<?xml version="1.0" encoding="utf-8"?>
<!-- Generator: Adobe Illustrator 16.0.0, SVG Export Plug-In . SVG Version: 6.00 Build 0)  -->
<!DOCTYPE svg PUBLIC "-//W3C//DTD SVG 1.1//EN" "http://www.w3.org/Graphics/SVG/1.1/DTD/svg11.dtd">
<svg version="1.1" id="svg2" xmlns:svg="http://www.w3.org/2000/svg"
	 xmlns="http://www.w3.org/2000/svg" xmlns:xlink="http://www.w3.org/1999/xlink" x="0px" y="0px" width="520px" height="500px"
	 viewBox="0 0 520 500" enable-background="new 0 0 520 500" xml:space="preserve">
<g id="g12" transform="matrix(1.25,0,0,-1.25,-136.61316,788.09803)">
	<g id="g18" transform="matrix(0,1,-1,0,718.75,123.67)">
		<path id="path20" fill="none" stroke="#808080" stroke-linecap="round" stroke-linejoin="round" stroke-dasharray="4,8" d="
			M283.32,265.39h1.08l0.96,0.36l1.08,0.48l0.96,0.72l0.96,0.84l0.96,1.08l1.08,1.32l0.96,1.44l0.96,1.68l0.96,1.8l0.959,2.04
			l0.841,2.28l0.959,2.4l0.96,2.64l0.84,2.76l0.841,2.88l0.839,3.12l0.841,3.24l0.84,3.48l0.84,3.48l0.72,3.841l0.72,3.84
			l0.719,4.08l0.72,4.08l0.72,4.32l0.6,4.44l0.6,4.56l0.6,4.68l0.6,4.8l0.6,4.93l0.48,5.03l0.48,5.16l0.48,5.16l0.36,5.28l0.36,5.4
			l0.36,5.4l0.36,5.52l0.24,5.52l0.24,5.639l0.24,5.641l0.24,5.76l0.12,5.76l0.12,5.76l0.12,5.76v5.76v5.88v5.76v5.76l-0.12,5.76
			l-0.12,5.88l-0.12,5.64l-0.24,5.77l-0.24,5.63l-0.24,5.64l-0.24,5.52l-0.36,5.52l-0.36,5.4l-0.36,5.4l-0.36,5.28l-0.48,5.16
			l-0.48,5.16l-0.48,5.04l-0.6,4.92l-0.6,4.8l-0.6,4.68l-0.6,4.56l-0.6,4.44l-0.72,4.32l-0.72,4.08l-0.719,4.08l-0.72,3.96
			l-0.72,3.72l-0.84,3.6l-0.84,3.36l-0.841,3.24l-0.839,3.12l-0.841,3l-0.84,2.76l-0.96,2.52l-0.959,2.4l-0.841,2.28l-0.959,2.04
			l-0.96,1.8l-0.96,1.68l-0.96,1.44l-1.08,1.32l-0.96,1.08l-0.96,0.84l-0.96,0.72l-1.08,0.49l-0.96,0.35h-1.08"/>
	</g>
	<g id="g22" transform="matrix(0,1,-1,0,718.75,123.67)">
		<path id="path24" fill="none" stroke="#808080" stroke-width="1.6" stroke-linecap="round" stroke-linejoin="round" d="
			M283.32,605.35h-0.96L281.4,605l-1.08-0.49l-0.96-0.72l-0.959-0.84l-1.08-1.08l-0.96-1.32l-0.959-1.44l-0.961-1.68l-0.959-1.8
			l-0.96-2.04l-0.96-2.28l-0.84-2.4l-0.96-2.52l-0.84-2.76l-0.84-3l-0.96-3.12l-0.72-3.24l-0.841-3.36l-0.84-3.6l-0.72-3.72
			l-0.841-3.96l-0.72-4.08l-0.6-4.08l-0.72-4.32l-0.6-4.44l-0.719-4.56l-0.6-4.68l-0.48-4.8l-0.6-4.92l-0.48-5.04l-0.48-5.16
			l-0.48-5.16l-0.36-5.28l-0.36-5.4l-0.359-5.4l-0.361-5.52l-0.239-5.52l-0.361-5.64l-0.12-5.63l-0.24-5.77l-0.12-5.64l-0.12-5.88
			l-0.12-5.76v-5.76l-0.12-5.76l0.12-5.88v-5.76l0.12-5.76l0.12-5.76l0.12-5.76l0.24-5.76l0.12-5.641l0.361-5.639l0.239-5.52
			l0.361-5.52l0.359-5.4l0.36-5.4l0.36-5.28l0.48-5.16l0.48-5.16l0.48-5.03l0.6-4.93l0.48-4.8l0.6-4.68l0.719-4.56l0.6-4.44
			l0.72-4.32l0.6-4.08l0.72-4.08l0.841-3.84l0.72-3.841l0.84-3.48l0.841-3.48l0.72-3.24l0.96-3.12l0.84-2.88l0.84-2.76l0.96-2.64
			l0.84-2.4l0.96-2.28l0.96-2.04l0.959-1.8l0.961-1.68l0.959-1.44l0.96-1.32l1.08-1.08l0.959-0.84l0.96-0.72l1.08-0.48l0.96-0.36
			h0.96"/>
	</g>
	<g id="g26" transform="matrix(0,1,-1,0,718.75,123.67)">
		<path id="path28" fill="none" stroke="#808080" stroke-width="1.6" stroke-linecap="round" stroke-linejoin="round" d="
			M283.32,605.35l-8.88-0.12l-8.88-0.72l-8.76-1.2l-8.76-1.56l-8.64-2.16l-8.52-2.52l-8.4-3l-8.28-3.36l-8.04-3.84l-7.8-4.2
			L190.8,578l-7.32-5.05l-7.08-5.4l-6.84-5.76l-6.36-6.24l-6.24-6.36l-5.76-6.84l-5.4-7.08l-5.04-7.32l-4.68-7.56l-4.2-7.8
			l-3.841-8.04l-3.359-8.28l-3-8.4l-2.52-8.52l-2.16-8.64l-1.56-8.76l-1.2-8.76l-0.72-8.88l-0.12-8.88l0.12-9l0.72-8.88l1.2-8.76
			l1.56-8.76l2.16-8.64l2.52-8.52l3-8.4l3.359-8.28l3.841-8.04l4.2-7.8l4.68-7.56l5.04-7.32l5.4-7.08l5.76-6.84l6.24-6.36l6.36-6.12
			l6.84-5.88l7.08-5.4l7.32-5.04l7.56-4.68l7.8-4.2l8.04-3.84l8.28-3.36l8.4-3l8.52-2.52l8.64-2.04l8.76-1.68l8.76-1.2l8.88-0.6
			l8.88-0.24"/>
	</g>
	<g id="g30" transform="matrix(0,1,-1,0,718.75,123.67)">
		<path id="path32" fill="none" stroke="#808080" stroke-width="1.6" stroke-linecap="round" stroke-linejoin="round" d="
			M453.36,435.43v0.96l-0.36,0.96l-0.48,1.08l-0.72,0.96l-0.84,0.96l-1.08,1.08l-1.32,0.96l-1.44,0.96l-1.68,0.96l-1.92,0.96
			l-2.04,0.96l-2.16,0.96l-2.52,0.84l-2.52,0.97l-2.76,0.83l-3,0.96l-3.12,0.84l-3.24,0.84l-3.48,0.84l-3.6,0.72l-3.72,0.84
			l-3.96,0.72l-3.96,0.72l-4.2,0.72l-4.32,0.6l-4.56,0.72l-4.56,0.6l-4.68,0.6l-4.8,0.6l-4.92,0.48l-5.04,0.48l-5.16,0.48
			l-5.16,0.48l-5.28,0.48l-5.4,0.36l-5.52,0.36l-5.52,0.24l-5.52,0.36l-5.64,0.24l-5.64,0.24l-5.76,0.12l-5.76,0.12l-5.76,0.12
			l-5.88,0.12l-5.76,0.12h-5.76l-5.88-0.12h-5.76l-5.88-0.12l-5.759-0.12l-5.76-0.12"/>
	</g>
	<g id="g46" transform="matrix(0,1,-1,0,718.75,123.67)">
		<path id="path48" fill="none" stroke="#FF9900" stroke-width="1.6" stroke-linecap="round" stroke-linejoin="round" d="
			M270.6,392.35l-0.24,3.48l-0.36,3.6l-0.24,3.6l-0.24,3.72l-0.24,3.72l-0.241,3.84l-0.12,3.96l-0.12,3.84l-0.12,3.96v3.96
			l-0.12,4.08v3.96l0.12,3.96V446l0.12,3.95"/>
	</g>
	<path fill="none" d=""/>
	<g id="g34" transform="matrix(0,1,-1,0,718.75,123.67)">
		<path id="path36" fill="none" stroke="#FF9900" stroke-width="1.6" stroke-linecap="round" stroke-linejoin="round" d="
			M363,358.51l-79.68,76.92"/>
	</g>
	<g id="g38" transform="matrix(0,1,-1,0,718.75,123.67)">
		<path id="path40" fill="none" stroke="#808080" stroke-width="1.6" stroke-linecap="round" stroke-linejoin="round" d="
			M453.36,435.43l-0.12-3.96l-0.48-3.96l-0.96-3.96l-1.2-3.84l-1.56-3.84l-1.92-3.84l-2.16-3.84l-2.64-3.72l-2.88-3.6l-3.24-3.6
			l-3.48-3.48l-3.84-3.48l-4.08-3.239l-4.44-3.241l-4.68-3.12l-5.04-3l-5.16-2.88l-5.52-2.88l-5.76-2.641l-5.88-2.4l-6.24-2.399
			l-6.36-2.28l-6.48-2.04l-6.84-1.92l-6.84-1.68l-7.08-1.68l-7.2-1.441l-7.2-1.2l-7.44-1.08l-7.44-0.96l-7.56-0.72l-7.68-0.6
			l-7.68-0.36l-7.68-0.24h-7.68l-7.68,0.12l-7.68,0.36l-7.68,0.48"/>
	</g>
	<g id="g42" transform="matrix(0,1,-1,0,718.75,123.67)">
		<path id="path44" fill="none" stroke="#FF9900" stroke-width="1.6" stroke-linecap="round" stroke-linejoin="round" d="
			M257.88,349.27l25.44,86.16"/>
	</g>
	<g id="g50" transform="matrix(0,1,-1,0,718.75,123.67)">
		<path id="path52" fill="none" stroke="#FF9900" stroke-width="1.6" stroke-linecap="round" stroke-linejoin="round" d="
			M274.92,406.63l4.44-0.24h4.56l4.44,0.12l4.56,0.24l4.32,0.48l4.441,0.72l4.2,0.84l4.08,0.96"/>
	</g>
	<g id="g58" transform="matrix(0,1,-1,0,718.75,123.67)">
		
			<path id="path60" fill="none" stroke="#00B800" stroke-width="0.72" stroke-linecap="round" stroke-linejoin="round" stroke-miterlimit="10" d="
			M337.92,327.31v48.72l50.16,13.56v-48.72L337.92,327.31z"/>
	</g>
	
		<path id="path72" fill="#FFFFFF" stroke="#25B312" stroke-width="1.6" stroke-linecap="round" stroke-linejoin="round" stroke-miterlimit="10" d="
		M342.72,461.59l-13.56,50.16h48.72l13.559-50.16H342.72z"/>
	<g id="g74" transform="matrix(0,1,-1,0,718.75,123.67)">
		<path id="path76" fill="none" stroke="#808080" stroke-width="1.6" stroke-linecap="round" stroke-linejoin="round" d="
			M283.32,265.39l9,0.24l8.88,0.6l8.76,1.2l8.76,1.68l8.64,2.04l8.52,2.52l8.4,3l8.28,3.359l8.04,3.84l7.8,4.201l7.56,4.68
			l7.32,5.04l7.08,5.4l6.84,5.88l6.36,6.12l6.12,6.36l5.88,6.84l5.4,7.08l5.04,7.32l4.68,7.56l4.2,7.8l3.84,8.04l3.36,8.28l3,8.4
			l2.52,8.52l2.04,8.64l1.68,8.76l1.2,8.76l0.6,8.88l0.24,9l-0.24,8.88l-0.6,8.88l-1.2,8.76l-1.68,8.76l-2.04,8.64l-2.52,8.52
			l-3,8.4l-3.36,8.28l-3.84,8.04l-4.2,7.8l-4.68,7.56l-5.04,7.32l-5.4,7.08l-5.88,6.84l-6.12,6.36l-6.36,6.24l-6.84,5.76l-7.08,5.4
			l-7.32,5.05l-7.56,4.67l-7.8,4.2l-8.04,3.84l-8.28,3.36l-8.4,3l-8.52,2.52l-8.64,2.16l-8.76,1.56l-8.76,1.2l-8.88,0.72l-9,0.12"/>
	</g>
	<path fill="none" d=""/>
	<path fill="none" d=""/>
	<path id="path3741" fill="#00B800" stroke="#00B800" d="M451.28,486.67l-3.2,3.2l11.2-3.2l-11.2-3.2L451.28,486.67z"/>
	<path id="path68" fill="#00B800" stroke="#00B800" d="M457.68,486.67"/>
	<path fill="none" d=""/>
	<path id="path3741_1_" fill="#00B800" stroke="#00B800" d="M334.794,580.573l-2.252-3.926l0.159,11.647l6.018-9.973
		L334.794,580.573z"/>
	<path id="path64" fill="#00B800" stroke="#00B800" d="M333.12,586.75"/>
	<text transform="matrix(0.8 0 0 -0.8 341.8897 575.8937)" font-family="'ArialMT'" font-size="20">North</text>
	<text transform="matrix(0.8 0 0 -0.8 435.7264 491.9933)" font-family="'ArialMT'" font-size="20">East</text>
	<text transform="matrix(0.8 0 0 -0.8 414.1757 527.3116)" font-family="'ArialMT'" font-size="20">Down</text>
	<g id="text4066" transform="matrix(-1,0,0,1,314.12527,7.5684393)">
		<path id="path5083" d="M63.106,443.212l11.437,0.609l-0.23,4.314c-0.04,0.759-0.107,1.337-0.202,1.734
			c-0.124,0.557-0.327,1.018-0.61,1.384c-0.283,0.366-0.667,0.652-1.153,0.858c-0.486,0.206-1.012,0.294-1.579,0.264
			c-0.973-0.052-1.779-0.405-2.42-1.06c-0.641-0.655-0.918-1.791-0.832-3.409l0.156-2.933l-4.65-0.248L63.106,443.212z
			 M69.025,445.045l-0.157,2.957c-0.052,0.978,0.093,1.682,0.435,2.112c0.342,0.43,0.843,0.663,1.504,0.698
			c0.479,0.025,0.895-0.074,1.248-0.297c0.354-0.224,0.596-0.53,0.726-0.92c0.081-0.251,0.14-0.72,0.177-1.407l0.156-2.925
			L69.025,445.045z"/>
		<path id="path5085" d="M62.494,453.686l8.288,0.377l-0.057,1.264l-1.257-0.057c0.573,0.349,0.948,0.665,1.122,0.947
			c0.175,0.282,0.255,0.586,0.24,0.914c-0.021,0.473-0.195,0.948-0.518,1.423l-1.281-0.543c0.218-0.334,0.336-0.673,0.351-1.016
			c0.014-0.307-0.066-0.587-0.239-0.84c-0.174-0.253-0.422-0.439-0.745-0.558c-0.493-0.179-1.035-0.281-1.629-0.309l-4.339-0.197
			L62.494,453.686z"/>
		<path id="path5087" d="M72.064,459.648l1.614,0.099l-0.086,1.404l-1.614-0.098L72.064,459.648z M62.246,459.047l8.281,0.506
			l-0.086,1.404l-8.282-0.506L62.246,459.047z"/>
		<path id="path5089" d="M62.072,462.599l8.273,0.628l-0.095,1.254l-1.161-0.088c0.385,0.291,0.685,0.661,0.899,1.111
			c0.214,0.45,0.3,0.95,0.258,1.5c-0.047,0.613-0.212,1.105-0.496,1.478c-0.284,0.373-0.661,0.622-1.13,0.749
			c0.916,0.728,1.334,1.616,1.255,2.665c-0.063,0.82-0.338,1.434-0.825,1.841c-0.488,0.407-1.205,0.575-2.15,0.503l-5.679-0.432
			l0.106-1.394l5.211,0.396c0.561,0.043,0.968,0.028,1.222-0.044c0.254-0.072,0.465-0.222,0.634-0.45
			c0.169-0.227,0.265-0.502,0.29-0.824c0.044-0.581-0.113-1.079-0.47-1.493c-0.358-0.414-0.962-0.653-1.814-0.718l-4.807-0.365
			l0.107-1.402l5.375,0.408c0.623,0.047,1.099-0.031,1.429-0.236c0.329-0.205,0.513-0.567,0.552-1.086
			c0.03-0.395-0.046-0.768-0.229-1.118c-0.182-0.351-0.468-0.616-0.856-0.798c-0.389-0.181-0.959-0.3-1.712-0.357l-4.293-0.327
			L62.072,462.599z"/>
		<path id="path5091" d="M63.113,481.8l-0.314,1.43c-0.824-0.307-1.441-0.791-1.85-1.451c-0.409-0.661-0.57-1.47-0.48-2.43
			c0.113-1.209,0.573-2.132,1.384-2.77c0.81-0.639,1.887-0.896,3.23-0.771c1.39,0.129,2.435,0.588,3.136,1.375
			c0.701,0.787,0.998,1.751,0.892,2.892c-0.103,1.105-0.563,1.972-1.38,2.602c-0.817,0.63-1.908,0.882-3.271,0.755
			c-0.083-0.008-0.207-0.022-0.373-0.043l0.573-6.161c-0.913-0.032-1.631,0.159-2.156,0.576c-0.525,0.417-0.82,0.97-0.884,1.66
			c-0.048,0.513,0.046,0.964,0.282,1.352C62.137,481.204,62.541,481.532,63.113,481.8L63.113,481.8z M65.804,477.413l-0.429,4.613
			c0.701,0.002,1.238-0.125,1.613-0.384c0.581-0.396,0.904-0.949,0.97-1.66c0.06-0.643-0.105-1.203-0.495-1.682
			C67.073,477.823,66.52,477.527,65.804,477.413z"/>
		<path id="path5093" d="M59.793,489.322l11.384,1.258l-0.251,2.268l-8.358,1.804c-0.778,0.166-1.36,0.285-1.745,0.357
			c0.4,0.175,0.986,0.444,1.758,0.807l7.619,3.601l-0.224,2.027l-11.384-1.258l0.161-1.452l9.528,1.053l-9.163-4.361l0.15-1.359
			l10.055-2.222l-9.691-1.071L59.793,489.322z"/>
		<path id="path5095" d="M60.145,508.425l-0.37,1.417c-0.811-0.339-1.408-0.848-1.791-1.524c-0.382-0.676-0.51-1.492-0.383-2.447
			c0.161-1.203,0.659-2.107,1.493-2.713c0.835-0.606,1.921-0.82,3.258-0.641c1.384,0.185,2.41,0.684,3.079,1.498
			c0.669,0.814,0.928,1.79,0.776,2.925c-0.147,1.1-0.641,1.948-1.483,2.545c-0.841,0.597-1.941,0.805-3.299,0.624
			c-0.082-0.011-0.206-0.03-0.371-0.057l0.819-6.133c-0.911-0.069-1.636,0.094-2.178,0.489c-0.541,0.395-0.858,0.936-0.95,1.623
			c-0.068,0.511,0.008,0.965,0.228,1.363C59.194,507.792,59.584,508.135,60.145,508.425L60.145,508.425z M63.009,504.149
			l-0.613,4.592c0.7,0.03,1.242-0.076,1.627-0.319c0.596-0.372,0.941-0.912,1.036-1.62c0.086-0.64-0.057-1.207-0.427-1.7
			S63.72,504.292,63.009,504.149z"/>
		<path id="path5097" d="M57.018,511.247l8.204,1.243l-0.19,1.252l-1.243-0.189c0.534,0.407,0.872,0.76,1.017,1.059
			s0.192,0.61,0.143,0.934c-0.071,0.468-0.293,0.922-0.664,1.361l-1.218-0.674c0.252-0.31,0.404-0.634,0.456-0.974
			c0.046-0.304-0.004-0.591-0.15-0.86c-0.146-0.27-0.373-0.481-0.682-0.633c-0.471-0.23-1-0.389-1.587-0.478l-4.295-0.651
			L57.018,511.247z"/>
		<path id="path5099" d="M65.98,517.997l1.6,0.237l-0.206,1.391l-1.6-0.237L65.98,517.997z M56.249,516.558l8.208,1.214
			l-0.206,1.391l-8.207-1.214L56.249,516.558z"/>
		<path id="path5101" d="M54.756,525.37l1.031,0.183c-0.718-0.662-0.988-1.495-0.809-2.501c0.116-0.651,0.402-1.218,0.858-1.7
			c0.456-0.482,1.033-0.816,1.73-1.002c0.697-0.185,1.463-0.204,2.299-0.055c0.815,0.145,1.531,0.412,2.146,0.802
			c0.616,0.39,1.052,0.888,1.309,1.495s0.326,1.246,0.206,1.917c-0.088,0.492-0.27,0.912-0.546,1.26
			c-0.276,0.348-0.602,0.613-0.979,0.794l4.046,0.72l-0.245,1.377l-11.276-2.007L54.756,525.37z M59.612,521.719
			c-1.046-0.186-1.868-0.105-2.464,0.244c-0.596,0.349-0.948,0.823-1.055,1.423c-0.107,0.605,0.048,1.163,0.468,1.674
			c0.42,0.511,1.137,0.857,2.152,1.038c1.118,0.199,1.977,0.129,2.577-0.208c0.6-0.338,0.955-0.822,1.068-1.452
			c0.109-0.616-0.05-1.174-0.479-1.677C61.449,522.258,60.694,521.911,59.612,521.719L59.612,521.719z"/>
		<path id="path5103" d="M63.78,530.735l1.587,0.311l-0.27,1.38l-1.587-0.311L63.78,530.735z M54.127,528.844l8.142,1.595
			l-0.27,1.38l-8.142-1.594L54.127,528.844z"/>
		<path id="path5105" d="M53.252,537.834c-0.321-0.604-0.518-1.161-0.593-1.67c-0.075-0.51-0.053-1.034,0.066-1.573
			c0.195-0.89,0.563-1.527,1.103-1.909c0.54-0.383,1.148-0.5,1.825-0.351c0.397,0.087,0.739,0.257,1.028,0.51
			c0.288,0.253,0.5,0.547,0.634,0.883c0.134,0.336,0.212,0.698,0.233,1.087c0.012,0.286-0.009,0.707-0.062,1.266
			c-0.111,1.138-0.133,1.989-0.065,2.553c0.187,0.047,0.306,0.075,0.357,0.086c0.559,0.123,0.982,0.08,1.268-0.129
			c0.387-0.283,0.657-0.77,0.809-1.462c0.142-0.646,0.134-1.148-0.025-1.505c-0.159-0.357-0.509-0.673-1.052-0.946l0.478-1.303
			c0.548,0.248,0.968,0.551,1.26,0.909c0.292,0.357,0.476,0.822,0.55,1.393c0.075,0.571,0.035,1.205-0.118,1.902
			c-0.152,0.692-0.357,1.236-0.614,1.633c-0.258,0.397-0.532,0.669-0.823,0.819c-0.291,0.149-0.634,0.223-1.029,0.222
			c-0.244-0.006-0.671-0.075-1.282-0.209l-1.831-0.402c-1.277-0.28-2.091-0.428-2.442-0.444c-0.351-0.016-0.701,0.029-1.049,0.134
			l0.315-1.435C52.509,537.809,52.862,537.791,53.252,537.834L53.252,537.834z M56.345,538.393
			c-0.094-0.543-0.103-1.329-0.026-2.357c0.043-0.583,0.039-1.002-0.011-1.259c-0.05-0.256-0.16-0.47-0.328-0.64
			c-0.168-0.17-0.371-0.281-0.611-0.334c-0.366-0.08-0.702-0.009-1.007,0.215c-0.305,0.224-0.516,0.603-0.634,1.137
			c-0.116,0.529-0.104,1.025,0.038,1.488c0.141,0.463,0.391,0.835,0.75,1.117c0.278,0.216,0.72,0.39,1.325,0.523L56.345,538.393z"/>
		<path id="path5107" d="M51.496,541.024l8.011,2.161l-0.329,1.222l-1.139-0.307c0.721,0.825,0.932,1.794,0.632,2.905
			c-0.13,0.482-0.337,0.903-0.619,1.261c-0.283,0.358-0.592,0.6-0.928,0.725c-0.336,0.125-0.709,0.176-1.117,0.152
			c-0.265-0.017-0.712-0.111-1.341-0.28l-4.925-1.328l0.366-1.358l4.873,1.314c0.554,0.149,0.981,0.208,1.284,0.176
			c0.303-0.032,0.572-0.16,0.808-0.385c0.236-0.225,0.403-0.519,0.5-0.88c0.156-0.578,0.107-1.127-0.147-1.646
			c-0.254-0.519-0.894-0.916-1.92-1.193l-4.375-1.18L51.496,541.024z"/>
	</g>
</g>
<line fill="none" stroke="#25B312" stroke-miterlimit="10" x1="313.686" y1="179.761" x2="281.879" y2="62.382"/>
<g>
	<g>
		<line fill="none" stroke="#25B312" stroke-miterlimit="10" x1="320.955" y1="172.058" x2="381.106" y2="108.316"/>
		<g>
			<polygon fill="#25B312" points="313.686,179.761 328.364,173.092 321.499,171.482 319.495,164.723 			"/>
		</g>
	</g>
</g>
<line fill="none" stroke="#25B312" stroke-miterlimit="10" x1="427.486" y1="179.761" x2="313.686" y2="179.761"/>
<line fill="none" stroke="#FF9900" stroke-miterlimit="10" x1="217.537" y1="279.36" x2="181.237" y2="316.261"/>
<text transform="matrix(1 0 0 1 188.5 333.5)" font-family="'ArialMT'" font-size="18">Equator</text>
</svg>
