<?xml version="1.0" encoding="utf-8"?>
<!-- Generator: Adobe Illustrator 16.0.0, SVG Export Plug-In . SVG Version: 6.00 Build 0)  -->
<!DOCTYPE svg PUBLIC "-//W3C//DTD SVG 1.1//EN" "http://www.w3.org/Graphics/SVG/1.1/DTD/svg11.dtd">
<svg version="1.1"
	 id="svg2" xmlns:dc="http://purl.org/dc/elements/1.1/" xmlns:cc="http://creativecommons.org/ns#" xmlns:rdf="http://www.w3.org/1999/02/22-rdf-syntax-ns#" xmlns:svg="http://www.w3.org/2000/svg" xmlns:sodipodi="http://sodipodi.sourceforge.net/DTD/sodipodi-0.dtd" xmlns:inkscape="http://www.inkscape.org/namespaces/inkscape" sodipodi:docname="Hawker Tempest Mk II 3-view.svg" inkscape:version="0.48.2 r9819"
	 xmlns="http://www.w3.org/2000/svg" xmlns:xlink="http://www.w3.org/1999/xlink" x="0px" y="0px" width="2769.277px"
	 height="2127.213px" viewBox="-499.818 -302.773 2769.277 2127.213" enable-background="new -499.818 -302.773 2769.277 2127.213"
	 xml:space="preserve">
<sodipodi:namedview  inkscape:cy="820.27287" inkscape:cx="757.8735" inkscape:zoom="0.37485715" showgrid="false" guidetolerance="10" gridtolerance="10" objecttolerance="10" bordercolor="#666666" pagecolor="#ffffff" borderopacity="1" id="namedview4" inkscape:current-layer="svg2" inkscape:window-maximized="1" inkscape:window-y="24" inkscape:window-x="0" inkscape:window-height="776" inkscape:window-width="1280" inkscape:pageshadow="2" inkscape:pageopacity="0">
	</sodipodi:namedview>
<g id="g3702" transform="translate(41.347558,50.685978)">
	
		<path id="path3070" sodipodi:type="arc" sodipodi:cx="1083.4644" sodipodi:cy="191.45773" sodipodi:rx="34.117901" sodipodi:ry="34.117901" fill="none" stroke="#000000" stroke-width="2.3886" stroke-linecap="round" stroke-linejoin="round" d="
		M1566.371,43.059c0,19.722-15.987,35.709-35.709,35.709s-35.709-15.987-35.709-35.709c0-19.721,15.987-35.709,35.709-35.709
		S1566.371,23.338,1566.371,43.059z"/>
	
		<path id="path3072" sodipodi:type="arc" sodipodi:cx="1083.4644" sodipodi:cy="191.45773" sodipodi:rx="34.117901" sodipodi:ry="34.117901" fill="none" stroke="#000000" stroke-width="1.7739" stroke-linecap="round" stroke-linejoin="round" d="
		M1578.745,43.059c0,26.556-21.527,48.083-48.083,48.083s-48.083-21.528-48.083-48.083s21.527-48.083,48.083-48.083
		S1578.745,16.503,1578.745,43.059z"/>
	
		<path id="path3074" sodipodi:type="arc" sodipodi:cx="1083.4644" sodipodi:cy="191.45773" sodipodi:rx="34.117901" sodipodi:ry="34.117901" fill="none" stroke="#000000" stroke-width="1.2631" stroke-linecap="round" stroke-linejoin="round" d="
		M1598.191,43.059c0,37.295-30.233,67.529-67.528,67.529s-67.529-30.233-67.529-67.529c0-37.295,30.234-67.529,67.529-67.529
		S1598.191,5.764,1598.191,43.059z"/>
	
		<path id="path3076" sodipodi:type="arc" sodipodi:cx="1083.4644" sodipodi:cy="191.45773" sodipodi:rx="34.117901" sodipodi:ry="34.117901" fill="none" stroke="#000000" stroke-width="82.0249" stroke-linecap="round" stroke-linejoin="round" d="
		M1531.369,43.059c0,0.391-0.316,0.707-0.707,0.707s-0.707-0.316-0.707-0.707s0.316-0.707,0.707-0.707
		S1531.369,42.669,1531.369,43.059z"/>
	
		<path id="path3846" sodipodi:start="3.0871002" sodipodi:end="6.4453377" sodipodi:open="true" sodipodi:type="arc" sodipodi:cx="1083.4644" sodipodi:cy="191.45773" sodipodi:rx="34.117901" sodipodi:ry="34.117901" fill="none" stroke="#000000" stroke-width="3.0782" stroke-linecap="round" stroke-linejoin="round" d="
		M1502.994-27.432c-0.833-15.28,10.878-28.343,26.158-29.177c15.281-0.834,28.344,10.878,29.178,26.158c0.108,2,0,4.006-0.322,5.983
		"/>
	
		<path id="path3852" inkscape:connector-curvature="0" sodipodi:nodetypes="cccc" fill="none" stroke="#000000" stroke-width="2.5" stroke-linejoin="round" d="
		M1544.227-40.498l-4.295,12.447c5.676,0.799,9.667,2.352,13.618,3.777L1544.227-40.498z"/>
	
		<path id="path3854" inkscape:connector-curvature="0" sodipodi:nodetypes="ccsccc" fill="none" stroke="#000000" stroke-width="2.5" stroke-linejoin="round" d="
		M1535.926-29.333l4.969-14.188c-0.938-2.325-6.891-4.563-10.664-4.563c-3.774,0-9.728,2.238-10.665,4.563l4.969,14.188
		C1528.332-29.333,1532.129-29.333,1535.926-29.333L1535.926-29.333z"/>
	
		<path id="path3858" sodipodi:type="arc" sodipodi:cx="1083.4644" sodipodi:cy="191.45773" sodipodi:rx="34.117901" sodipodi:ry="34.117901" fill="none" stroke="#000000" stroke-width="0.1558" stroke-linecap="round" stroke-linejoin="round" d="
		M1705.871,43.059c0,96.765-78.444,175.209-175.209,175.209s-175.209-78.444-175.209-175.209s78.444-175.208,175.209-175.208
		S1705.871-53.706,1705.871,43.059z"/>
	
		<path id="path3860" inkscape:connector-curvature="0" sodipodi:nodetypes="ccccccccccc" fill="none" stroke="#000000" stroke-width="2.5" d="
		M1591.051,72.417l160.25,1.75l339.036-16.436c7.864,0.068,6.211,4.079,0.53,5.126l-338.881,42.957l-221.756,4.852l-221.757-4.852
		L969.593,62.858c-5.681-1.048-7.334-5.058,0.53-5.126l339.036,16.436l160.25-1.75"/>
	<path id="path3862" inkscape:connector-curvature="0" fill="none" stroke="#000000" stroke-width="1.7" d="M1751.926,74.417v31.25"
		/>
	
		<path id="path3864" inkscape:connector-curvature="0" sodipodi:nodetypes="ccccccc" fill="none" stroke="#000000" stroke-width="1.7" d="
		M2095.021,60.118l-303.361,29.39 M1784.279,90.224l-12.642,1.225 M1764.276,92.161l-12.29,1.191h-137.436"/>
	<path id="path3866" inkscape:connector-curvature="0" fill="none" stroke="#000000" stroke-width="1.7" stroke-linecap="round" d="
		M1608.801,79.417l6,14l-4.375,9.938"/>
	
		<path id="path3868" sodipodi:type="arc" sodipodi:cx="1319.9032" sodipodi:cy="236.53578" sodipodi:rx="3.8890872" sodipodi:ry="3.8890872" fill="none" stroke="#000000" stroke-width="2.5" stroke-linecap="round" stroke-linejoin="round" d="
		M1772.051,91.054c0,2.148-1.741,3.889-3.89,3.889c-2.147,0-3.889-1.741-3.889-3.889c0-2.147,1.741-3.889,3.889-3.889
		C1770.31,87.165,1772.051,88.906,1772.051,91.054z"/>
	
		<path id="path3870" sodipodi:type="arc" sodipodi:cx="1319.9032" sodipodi:cy="236.53578" sodipodi:rx="3.8890872" sodipodi:ry="3.8890872" fill="none" stroke="#000000" stroke-width="2.5" stroke-linecap="round" stroke-linejoin="round" d="
		M1791.85,89.021c0,2.148-1.741,3.889-3.89,3.889c-2.147,0-3.889-1.741-3.889-3.889s1.741-3.889,3.889-3.889
		C1790.109,85.132,1791.85,86.873,1791.85,89.021z"/>
	
		<path id="path3872" inkscape:connector-curvature="0" sodipodi:nodetypes="cc" fill="none" stroke="#000000" stroke-width="2.5" d="
		M1760.693,73.73c4.292-5.599,11.932-2.643,12.729-0.707"/>
	
		<path id="path3874" inkscape:connector-curvature="0" sodipodi:nodetypes="cc" fill="none" stroke="#000000" stroke-width="2.5" d="
		M1781.11,72.758c4.292-5.599,11.932-2.643,12.728-0.708"/>
	<path id="path3876" inkscape:connector-curvature="0" fill="none" stroke="#000000" stroke-width="1.7" d="M1575.961,93.131h13.965
		"/>
	
		<rect id="rect3878" x="1589.301" y="89.417" fill="none" stroke="#000000" stroke-width="2.5" stroke-linecap="round" stroke-linejoin="round" width="15.375" height="8.375"/>
	
		<path id="path3880" inkscape:connector-curvature="0" sodipodi:nodetypes="cssc" fill="none" stroke="#000000" stroke-width="2.5" d="
		M1590.551,12.542l114.125-1.375c14.48-0.174,13.421-5.818,0-6.125l-120.25-2.75"/>
	
		<path id="path3932" inkscape:connector-curvature="0" sodipodi:nodetypes="csssc" fill="none" stroke="#000000" stroke-width="2.5" d="
		M1497.659-16.083l15.57-27.339c3-5.267,11.016-8.411,17-8.411c5.985,0,14.001,3.144,17.001,8.411l15.57,27.339"/>
	
		<path id="path3934" inkscape:connector-curvature="0" sodipodi:nodetypes="cccc" fill="none" stroke="#000000" stroke-width="2.5" stroke-linejoin="round" d="
		M1516.234-40.498l4.295,12.447c-5.676,0.799-9.667,2.352-13.618,3.777L1516.234-40.498z"/>
	
		<path id="path3938" inkscape:connector-curvature="0" sodipodi:nodetypes="csssc" fill="none" stroke="#000000" stroke-width="2.5" d="
		M1525.379-56.643l1.496-62.579c0.247-10.329,1.031-14.762,3.355-14.861c2.496-0.106,3.323,4.402,3.542,14.861l1.309,62.579"/>
	<path id="path3942" inkscape:connector-curvature="0" fill="none" stroke="#000000" stroke-width="1.7" d="M1308.534,74.417v31.25"
		/>
	
		<path id="path3944" inkscape:connector-curvature="0" sodipodi:nodetypes="ccccccccc" fill="none" stroke="#000000" stroke-width="1.7" d="
		M965.439,60.118l303.362,29.39 M1276.182,90.224l12.641,1.225 M1296.184,92.161l12.29,1.191h71.574 M1446.163,93.352h8.996"/>
	
		<path id="path3946" inkscape:connector-curvature="0" sodipodi:nodetypes="ccc" fill="none" stroke="#000000" stroke-width="1.7" stroke-linecap="round" d="
		M1385.909,79.417l-6,14l4.375,9.938"/>
	
		<path id="path3948" sodipodi:type="arc" sodipodi:cx="1319.9032" sodipodi:cy="236.53578" sodipodi:rx="3.8890872" sodipodi:ry="3.8890872" fill="none" stroke="#000000" stroke-width="2.5" stroke-linecap="round" stroke-linejoin="round" d="
		M1288.41,91.054c0,2.148,1.741,3.889,3.889,3.889c2.148,0,3.89-1.741,3.89-3.889c0-2.147-1.741-3.889-3.89-3.889
		C1290.151,87.165,1288.41,88.906,1288.41,91.054z"/>
	
		<path id="path3950" sodipodi:type="arc" sodipodi:cx="1319.9032" sodipodi:cy="236.53578" sodipodi:rx="3.8890872" sodipodi:ry="3.8890872" fill="none" stroke="#000000" stroke-width="2.5" stroke-linecap="round" stroke-linejoin="round" d="
		M1268.611,89.021c0,2.148,1.741,3.889,3.889,3.889c2.148,0,3.89-1.741,3.89-3.889s-1.741-3.889-3.89-3.889
		C1270.353,85.132,1268.611,86.873,1268.611,89.021z"/>
	
		<path id="path3952" inkscape:connector-curvature="0" sodipodi:nodetypes="cc" fill="none" stroke="#000000" stroke-width="2.5" d="
		M1299.768,73.73c-4.292-5.599-11.932-2.643-12.728-0.707"/>
	
		<path id="path3954" inkscape:connector-curvature="0" sodipodi:nodetypes="cc" fill="none" stroke="#000000" stroke-width="2.5" d="
		M1279.35,72.758c-4.291-5.599-11.932-2.643-12.728-0.708"/>
	<path id="path3956" inkscape:connector-curvature="0" fill="none" stroke="#000000" stroke-width="1.7" d="M1484.499,93.131
		h-13.965"/>
	
		<rect id="rect3958" x="1455.784" y="89.417" fill="none" stroke="#000000" stroke-width="2.5" stroke-linecap="round" stroke-linejoin="round" width="15.375" height="8.375"/>
	
		<path id="path3960" inkscape:connector-curvature="0" sodipodi:nodetypes="cssc" fill="none" stroke="#000000" stroke-width="2.5" d="
		M1469.909,12.542l-114.125-1.375c-14.48-0.174-13.421-5.818,0-6.125l120.25-2.75"/>
	<path id="path4000" inkscape:connector-curvature="0" fill="none" stroke="#000000" stroke-width="1.7" stroke-linecap="round" d="
		M1512.801-76.458l4.125,23.125"/>
	<path id="rect3128" fill="none" stroke="#000000" stroke-width="2.5" stroke-linecap="round" stroke-linejoin="round" d="
		M1444.819,89.417h-54.442c-0.488,0-0.884,0.317-0.884,0.708v6.96c0,0.391,0.396,0.707,0.884,0.707h54.442
		c0.488,0,0.884-0.316,0.884-0.707v-6.96C1445.703,89.734,1445.308,89.417,1444.819,89.417z"/>
</g>
<g id="g3551" transform="translate(-495.76556,0)">
	
		<path id="path3763" inkscape:connector-curvature="0" sodipodi:nodetypes="ccccccscssccsssssccc" fill="none" stroke="#000000" stroke-width="2.5" d="
		M1624.93,1549.509h-17.338 M1607.592,1549.509h-160.234c-20.863-0.822-39.551-5.621-40.201-29.193v-77.172
		c0.02-16.137,14.207-26.807,45.775-27.451l238.768-4.887l27.096-18.709c7.598-5.246,17.484-7.443,30.645-7.418
		c34.143,0.066,70.742,15.598,102.414,31.531l203.463,15.363c30.906-1.277,95.4-37.92,118.332-78.1
		c12.053-21.119,28.941-39.539,55.158-38.174c51.195,2.666,67.461,54.625,68.023,109.861c0.279,27.65-1.01,53.637-10.709,71.354
		c-8.697,15.885-27.057,26.379-47.887,26.379h-11.348c-3.842-0.012-8.756-0.672-13.439-3.947c-5.385-4.395-11.406-4.881-17.5-4.92"
		/>
	
		<path id="path3765" inkscape:connector-curvature="0" sodipodi:nodetypes="cc" fill="none" stroke="#000000" stroke-width="2.5" d="
		M2127.807,1520.155c-118.465,11.35-241.59,22.678-385.205,27.729"/>
	
		<path id="path3786" inkscape:connector-curvature="0" sodipodi:nodetypes="ccsssssssc" fill="none" stroke="#000000" stroke-width="2.5" stroke-linejoin="round" d="
		M1738.795,1510.8c54.998,3.146,101.182,10.574,135.799,16.613c-25.707,6.109-54.588,12.652-84.094,16.008
		c-42.563,4.84-84.516,7.43-133.658,7.299c-25.879-0.07-59.057-2.584-85.533-8.781c-5.852-1.371-14.617-5.934-14.369-14.939
		c0.232-8.488,7.865-16.496,13.799-22.695c10.238-10.697,30.834-13.201,49.836-13.115c23.51,0.105,49.035,2.086,64.996,4.936
		c53.385,9.533,90.637,29.764,104.107,47.094"/>
	<path id="path3788" inkscape:connector-curvature="0" fill="none" stroke="#000000" stroke-width="2.5" d="M2240.541,1316.778
		l-2.479,206.229"/>
	<path id="path3790" inkscape:connector-curvature="0" fill="none" stroke="#000000" stroke-width="2.5" d="M2239.889,1513.142
		v3.992"/>
	<path id="path3792" inkscape:connector-curvature="0" fill="none" stroke="#000000" stroke-width="2.5" d="M2241.941,1367.038
		v3.992"/>
	<path id="path3794" inkscape:connector-curvature="0" fill="none" stroke="#000000" stroke-width="1.7" d="M1452.68,1415.161
		v134.186"/>
	<path id="path3796" inkscape:connector-curvature="0" fill="none" stroke="#000000" d="M1521.225,1414.677v134.832"/>
	<path id="path3798" inkscape:connector-curvature="0" fill="none" stroke="#000000" stroke-width="1.7" d="M1526.063,1549.509
		v-135.186"/>
	
		<path id="path3800" inkscape:connector-curvature="0" sodipodi:nodetypes="cccccccc" fill="none" stroke="#000000" stroke-width="1.7" d="
		M1452.59,1476.134h3.92 M1459.393,1476.134h26.27 M1488.605,1476.134h26.047 M1517.758,1476.134h3.486"/>
	
		<path id="path3804" inkscape:connector-curvature="0" sodipodi:nodetypes="ccccccc" fill="none" stroke="#000000" stroke-width="1.7" d="
		M1459.488,1470.675c0.02-1.535-2.771-1.768-2.965,0v5.225v5.225c0.193,1.768,2.984,1.535,2.965,0v-5.225V1470.675z"/>
	
		<path id="path3806" inkscape:connector-curvature="0" sodipodi:nodetypes="ccccccc" fill="none" stroke="#000000" stroke-width="1.7" d="
		M1488.57,1470.675c0.018-1.535-2.773-1.768-2.965,0v5.225v5.225c0.191,1.768,2.982,1.535,2.965,0v-5.225V1470.675z"/>
	
		<path id="path3808" inkscape:connector-curvature="0" sodipodi:nodetypes="ccccccc" fill="none" stroke="#000000" stroke-width="1.7" d="
		M1517.65,1470.675c0.02-1.535-2.771-1.768-2.965,0v5.225v5.225c0.193,1.768,2.984,1.535,2.965,0v-5.225V1470.675z"/>
	
		<path id="path3812" inkscape:connector-curvature="0" sodipodi:nodetypes="csc" fill="none" stroke="#000000" stroke-width="2.5" d="
		M1407.199,1516.526c-28.764-1.264-70.078-15.035-70.078-35.199c0-20.166,41.314-33.936,70.078-35.201"/>
	<path id="path3814" inkscape:connector-curvature="0" fill="none" stroke="#000000" stroke-width="1.7" d="M1402.521,1446.61
		v69.514"/>
	
		<path id="path2997" inkscape:connector-curvature="0" sodipodi:nodetypes="ccssc" fill="none" stroke="#000000" stroke-width="2.5" d="
		M1727.826,1387.581v33.697c0.012,1.924,1.102,3.266,3.469,3.467c18.881,1.604,49,1.525,69.754,0.898
		c21.434-0.646,37.93-4.545,51.721-9.344"/>
	
		<path id="path3767" inkscape:connector-curvature="0" sodipodi:nodetypes="ccscc" fill="none" stroke="#000000" stroke-width="1.7" stroke-linejoin="round" d="
		M1732.109,1386.61v33.746c23.576,1.463,45.262,1.531,63.617,1.416c11.123-0.068,28.5-1.609,30.805-3.869l5.322-10.969"/>
	
		<path id="path3769" inkscape:connector-curvature="0" sodipodi:nodetypes="cc" fill="none" stroke="#000000" stroke-width="1.7" d="
		M2108.889,1453.819l136.814,2.146"/>
	
		<path id="path3771" inkscape:connector-curvature="0" sodipodi:nodetypes="scsss" fill="none" stroke="#000000" stroke-width="2.5" stroke-linejoin="round" d="
		M2156.029,1446.61c35.967,0.631,68.389,6.246,89.754,9.412c-22.172,3.166-53.787,4.912-89.754,5.541
		c-26.176,0.459-47.375-3.682-47.375-8.041S2129.854,1446.151,2156.029,1446.61z"/>
	<path id="path3775" inkscape:connector-curvature="0" fill="none" stroke="#000000" stroke-width="1.7" d="M2183.152,1448.308
		v12.887"/>
	<path id="path3795" inkscape:connector-curvature="0" fill="none" stroke="#000000" stroke-width="1.7" d="M1606.865,1412.741
		v79.512"/>
	<path id="path3797" inkscape:connector-curvature="0" fill="none" stroke="#000000" stroke-width="1.7" d="M1525.74,1428.708
		h81.287"/>
	<path id="path3799" inkscape:connector-curvature="0" fill="none" stroke="#000000" stroke-width="1.7" d="M1567.514,1507.575
		h-28.387v-54.998h67.578"/>
	<path id="path3801" inkscape:connector-curvature="0" fill="none" stroke="#000000" stroke-width="1.7" d="M1589.285,1452.417
		v41.771"/>
	<path id="path3803" inkscape:connector-curvature="0" fill="none" stroke="#000000" stroke-width="1.7" d="M1569.125,1452.255
		v53.223"/>
	<path id="path3805" inkscape:connector-curvature="0" fill="none" stroke="#000000" stroke-width="1.7" d="M1546.223,1452.417
		v55.32"/>
	<path id="path3807" inkscape:connector-curvature="0" fill="none" stroke="#000000" stroke-width="1.7" d="M1539.289,1458.224
		h6.531"/>
	<path id="path3809" inkscape:connector-curvature="0" fill="none" stroke="#000000" stroke-width="1.7" d="M1539.289,1463.716
		h6.531"/>
	<path id="path3811" inkscape:connector-curvature="0" fill="none" stroke="#000000" stroke-width="1.7" d="M1539.289,1469.21h6.531
		"/>
	<path id="path3813" inkscape:connector-curvature="0" fill="none" stroke="#000000" stroke-width="1.7" d="M1539.289,1474.704
		h6.531"/>
	<path id="path3815" inkscape:connector-curvature="0" fill="none" stroke="#000000" stroke-width="1.7" d="M1539.289,1485.69h6.531
		"/>
	<path id="path3817" inkscape:connector-curvature="0" fill="none" stroke="#000000" stroke-width="1.7" d="M1539.289,1480.198
		h6.531"/>
	<path id="path3819" inkscape:connector-curvature="0" fill="none" stroke="#000000" stroke-width="1.7" d="M1539.289,1491.185
		h6.531"/>
	<path id="path3821" inkscape:connector-curvature="0" fill="none" stroke="#000000" stroke-width="1.7" d="M1539.289,1496.679
		h6.531"/>
	<path id="path3823" inkscape:connector-curvature="0" fill="none" stroke="#000000" stroke-width="1.7" d="M1539.289,1502.173
		h6.531"/>
	<path id="path3825" inkscape:connector-curvature="0" fill="none" stroke="#000000" stroke-width="1.7" d="M1607.027,1457.417
		h172.732v56.609"/>
	<path id="path3827" inkscape:connector-curvature="0" fill="none" stroke="#000000" stroke-width="1.7" d="M1682.99,1411.29v46.287
		"/>
	<path id="path3829" inkscape:connector-curvature="0" fill="none" stroke="#000000" stroke-width="1.7" d="M1728.633,1423.95
		v33.467"/>
	
		<path id="path3831" inkscape:connector-curvature="0" sodipodi:nodetypes="cccc" fill="none" stroke="#000000" stroke-width="2.5" stroke-linejoin="round" d="
		M1696.135,1412.581l27.822-19.273v27.014C1716.156,1419.079,1705.33,1416.214,1696.135,1412.581z"/>
	<path id="path3833" inkscape:connector-curvature="0" fill="none" stroke="#000000" stroke-width="1.7" d="M1779.76,1457.899
		l10.967-32.256"/>
	<path id="path3835" inkscape:connector-curvature="0" fill="none" stroke="#000000" stroke-width="1.7" d="M2102.162,1436.61
		v86.447"/>
	
		<path id="path3837" inkscape:connector-curvature="0" sodipodi:nodetypes="cc" fill="none" stroke="#000000" stroke-width="2.5" d="
		M2054.578,1431.517c55.268,4.781,115.145,13.197,163.279,20.357"/>
	<path id="path3839" inkscape:connector-curvature="0" fill="none" stroke="#000000" stroke-width="1.7" d="M1833.615,1421.833v98.5
		"/>
	
		<path id="path3841" inkscape:connector-curvature="0" sodipodi:nodetypes="cc" fill="none" stroke="#000000" stroke-width="1.7" d="
		M1833.74,1426.333h-51.875"/>
	
		<path id="path3843" inkscape:connector-curvature="0" sodipodi:nodetypes="cccc" fill="none" stroke="#000000" stroke-width="1.7" d="
		M2168.24,1446.708c-113.318-5.154-238.58-7.75-364.875-10.125v31.75l435.459,3.08"/>
	<path id="path3845" inkscape:connector-curvature="0" fill="none" stroke="#000000" stroke-width="1.7" d="M1779.734,1501.819
		l322.256-4.861"/>
	
		<path id="path3847" inkscape:connector-curvature="0" sodipodi:nodetypes="cc" fill="none" stroke="#000000" stroke-width="1.7" d="
		M2101.99,1515.583l-229.139,11.824"/>
	<path id="path3851" inkscape:connector-curvature="0" fill="none" stroke="#000000" stroke-width="1.7" stroke-linecap="round" d="
		M2244.834,1331.052h15.027"/>
	<path id="path3853" inkscape:connector-curvature="0" fill="none" stroke="#000000" stroke-width="1.7" stroke-linecap="round" d="
		M2244.834,1346.985h28.523"/>
	<path id="path3855" inkscape:connector-curvature="0" fill="none" stroke="#000000" stroke-width="1.7" stroke-linecap="round" d="
		M2244.834,1362.919h36.861"/>
	<path id="path3857" inkscape:connector-curvature="0" fill="none" stroke="#000000" stroke-width="1.7" stroke-linecap="round" d="
		M2244.834,1378.851h41.033"/>
	<path id="path3859" inkscape:connector-curvature="0" fill="none" stroke="#000000" stroke-width="1.7" stroke-linecap="round" d="
		M2244.834,1394.784h48.961"/>
	
		<path id="path3861" inkscape:connector-curvature="0" sodipodi:nodetypes="cc" fill="none" stroke="#000000" stroke-width="1.7" stroke-linecap="round" d="
		M2244.834,1410.718h35.494"/>
	
		<path id="path3863" inkscape:connector-curvature="0" sodipodi:nodetypes="cc" fill="none" stroke="#000000" stroke-width="1.7" stroke-linecap="round" d="
		M2244.834,1426.649h35.494"/>
	
		<path id="path3865" inkscape:connector-curvature="0" sodipodi:nodetypes="cc" fill="none" stroke="#000000" stroke-width="1.7" stroke-linecap="round" d="
		M2244.834,1442.583h35.494"/>
	
		<path id="path3867" inkscape:connector-curvature="0" sodipodi:nodetypes="cc" fill="none" stroke="#000000" stroke-width="1.7" stroke-linecap="round" d="
		M2244.834,1458.515h35.494"/>
	<path id="path3869" inkscape:connector-curvature="0" fill="none" stroke="#000000" stroke-width="1.7" stroke-linecap="round" d="
		M2244.834,1474.448h48.65"/>
	<path id="path3871" inkscape:connector-curvature="0" fill="none" stroke="#000000" stroke-width="1.7" stroke-linecap="round" d="
		M2244.834,1490.382h38.52"/>
	<path id="path3873" inkscape:connector-curvature="0" fill="none" stroke="#000000" stroke-width="1.7" stroke-linecap="round" d="
		M2244.834,1506.313h27.154"/>
	<path id="path3875" inkscape:connector-curvature="0" fill="none" stroke="#000000" stroke-width="1.7" d="M2285.99,1394.833
		v79.875"/>
	<path id="path3877" inkscape:connector-curvature="0" fill="none" stroke="#000000" stroke-width="1.7" stroke-linecap="round" d="
		M2271.365,1404.708h19.563"/>
	
		<path id="path3879" inkscape:connector-curvature="0" sodipodi:nodetypes="ccccc" fill="none" stroke="#000000" stroke-width="2.5" d="
		M2128.162,1523.915v-14.672l51.441-3.535c10.188-0.332,16.68,5.469,17.148,12.729L2128.162,1523.915z"/>
	
		<path id="path3893" inkscape:connector-curvature="0" sodipodi:nodetypes="csc" fill="none" stroke="#000000" stroke-width="2.5" d="
		M1559.117,1518.79c-9.91,0.93-16.932,4.904-16.793,9.986c0.236,8.639,15.137,10.504,23.865,11.314"/>
	
		<path id="path3895" inkscape:connector-curvature="0" sodipodi:nodetypes="cccc" fill="none" stroke="#000000" stroke-width="1.7" stroke-linejoin="round" d="
		M1687.016,1496.161l-27.754,5.568c15.559,12.33,38.141,22.232,63.682,30.9l41.59-9.598"/>
	<path id="path3897" inkscape:connector-curvature="0" fill="none" stroke="#000000" stroke-width="1.7" d="M1725.73,1531.87
		l17.412,15.91"/>
	
		<path id="path3899" inkscape:connector-curvature="0" sodipodi:nodetypes="ccc" fill="none" stroke="#000000" stroke-width="1.7" stroke-linejoin="round" d="
		M1747.65,1514.636l-7.867,1.855l14.055,9.104"/>
	
		<path id="path3901" inkscape:connector-curvature="0" sodipodi:nodetypes="cc" fill="none" stroke="#000000" stroke-width="1.7" d="
		M1813.854,1540.091c-8.934-3.025-21.479-6.146-34.826-7.16"/>
	
		<path id="path3905" inkscape:connector-curvature="0" sodipodi:nodetypes="cccc" fill="none" stroke="#000000" stroke-width="1.7" d="
		M1658.732,1543.626v-22.451c0.098-1.26-4.516-1.631-4.686,0v22.805"/>
	
		<path id="path3907" inkscape:connector-curvature="0" sodipodi:nodetypes="sccss" fill="none" stroke="#000000" stroke-width="1.7" d="
		M1661.727,1543.714h-28.01v3.801h28.01C1664.77,1547.515,1664.74,1543.714,1661.727,1543.714z"/>
	<path id="path3909" inkscape:connector-curvature="0" fill="none" stroke="#000000" stroke-width="1.7" stroke-linecap="round" d="
		M1664.477,1527.981h21.213"/>
	
		<path id="path3911" inkscape:connector-curvature="0" sodipodi:nodetypes="cc" fill="none" stroke="#000000" stroke-width="1.7" stroke-linecap="round" d="
		M1682.99,1516.333h7.969"/>
	
		<path id="path3913" inkscape:connector-curvature="0" sodipodi:nodetypes="cccc" fill="none" stroke="#000000" stroke-width="1.7" d="
		M1585.803,1495.896c1.014,3.129,4.602,4.938,6.625,4.813c3.203,0.293,4.418-1.367,4.375-2.313c0.271-2.135-3.135-3.277-2.375-5.281
		"/>
	
		<path id="path3181" inkscape:connector-curvature="0" sodipodi:nodetypes="ccc" fill="none" stroke="#000000" stroke-width="1.7" d="
		M1844.963,1412.864l44.02,3.307l-0.176,2.828"/>
</g>
<g id="g4618" transform="translate(896.98696,-57.272081)">
	
		<path id="path3130" inkscape:connector-curvature="0" sodipodi:nodetypes="csccccsccsccccsc" fill="none" stroke="#000000" stroke-width="2.5" d="
		M-733.197,866.843c10.934-87.404,18.891-182.592,25.5-279.25c5.08-74.281,7.076-150.176,9.887-225.75h3.613l1.16-64.117h7.07
		v-90.51c0-18.973-4.053-39.598-31.112-39.598c-24.631,0-49.262,0-73.894,0c-27.06,0-31.112,20.625-31.112,39.598v90.51h7.071
		l1.159,64.117h3.613c2.812,75.574,4.808,151.469,9.887,225.75c6.609,96.658,14.567,191.846,25.5,279.25"/>
	
		<path id="path3903" inkscape:connector-curvature="0" sodipodi:nodetypes="csssssscccccccc" fill="none" stroke="#000000" stroke-width="2.5" d="
		M-708.815,604.39c7.052-18.93,17.33-33.682,33.984-35.135c108.92-9.51,210.765-20.088,294.133-45.162
		c80.132-24.1,158.091-64.959,180-89.5c10.992-12.313,10.957-37.455,11.75-59.25c0.883-24.262-7.738-32.533-29.75-36
		c-104.794-16.502-209.427-20.051-314.181-20.051h-57.982c-3.58-0.049-6.883-2.813-9.546-7.248
		c-2.232-3.551-2.893-10.719-6.718-10.605c-4.17-0.115-4.003,5.43-9.369,5.832h-43.487c-5.716-0.594-4.98-7.055-11.313-7.246
		c-5.653-0.045-6.839,6.297-12.374,6.539h-9.369"/>
	
		<path id="path3906" inkscape:connector-curvature="0" sodipodi:nodetypes="ccsc" fill="none" stroke="#000000" stroke-width="2.5" d="
		M-711.709,982.377l-20.927,2.658c-8.451,1.953-9.161,8.422-9.893,12.48c-1.128,6.258-3.878,10.9-7.419,11.828"/>
	
		<path id="path3915" inkscape:connector-curvature="0" sodipodi:nodetypes="ccccc" fill="none" stroke="#000000" stroke-width="2.5" d="
		M-711.511,984.957v-8.055l59.839-7.602v8.061L-711.511,984.957z"/>
	<path id="path3917" inkscape:connector-curvature="0" fill="none" stroke="#000000" stroke-width="2.5" d="M-732.447,984.843v-44.5
		h163.153"/>
	
		<path id="path3919" inkscape:connector-curvature="0" sodipodi:nodetypes="csc" fill="none" stroke="#000000" stroke-width="2.5" d="
		M-788.321,167.031c1.265-28.763,15.034-70.077,35.199-70.077c20.166,0,33.936,41.314,35.2,70.077"/>
	<path id="path3921" inkscape:connector-curvature="0" fill="none" stroke="#000000" stroke-width="1.7" d="M-718.406,162.354
		h-69.512"/>
	
		<path id="path3929" inkscape:connector-curvature="0" sodipodi:nodetypes="ssccccssss" fill="none" stroke="#000000" stroke-width="2.5" d="
		M-734.757,588.347c10.565-23.75,12.6-49.182,14.103-76.266c0.318-5.732,0.163-17.322-2.293-28.113l-17.893-35.25
		c-8.791,0-17.581,0-26.372,0l-17.893,35.25c-2.456,10.791-2.611,22.381-2.293,28.113c1.504,27.084,3.538,52.516,14.103,76.266
		c1.549,3.48,9.676,23.512,19.27,23.512C-744.433,611.859-736.305,591.828-734.757,588.347L-734.757,588.347z"/>
	<path id="path3935" inkscape:connector-curvature="0" fill="none" stroke="#000000" stroke-width="1.7" d="M-722.272,484.402
		h19.556"/>
	
		<path id="path3939" inkscape:connector-curvature="0" sodipodi:nodetypes="cccc" fill="none" stroke="#000000" stroke-width="2.5" stroke-linejoin="round" d="
		M-743.451,452.994l13.407,27.432h-9.778L-743.451,452.994z"/>
	<path id="path3941" inkscape:connector-curvature="0" fill="none" stroke="#000000" stroke-width="1.7" d="M-219.276,338.916
		v56.215l18.385,39.773"/>
	<path id="path3943" inkscape:connector-curvature="0" fill="none" stroke="#000000" stroke-width="1.7" d="M-694.099,360.304
		h474.911"/>
	<path id="path3945" inkscape:connector-curvature="0" fill="none" stroke="#000000" stroke-width="1.7" d="M-533.055,319.117
		v235.602"/>
	<path id="path3947" inkscape:connector-curvature="0" fill="none" stroke="#000000" stroke-width="1.7" d="M-491.697,548.093
		v-111.75"/>
	<path id="path3949" inkscape:connector-curvature="0" fill="none" stroke="#000000" stroke-width="1.7" d="M-703.697,512.093
		l170.625-69.938l313.664-46.982"/>
	
		<path id="path3951" inkscape:connector-curvature="0" sodipodi:nodetypes="cc" fill="none" stroke="#000000" stroke-width="1.7" d="
		M-696.457,362.603c0.784,63.111-4.107,138.223,21.385,206.24"/>
	<path id="path3953" inkscape:connector-curvature="0" fill="none" stroke="#000000" stroke-width="1.7" d="M-627.072,480.718
		v33.375l94.375-39.25"/>
	<path id="path3955" inkscape:connector-curvature="0" fill="none" stroke="#000000" stroke-width="1.7" d="M-532.947,497.343h41.25
		"/>
	<path id="path3957" inkscape:connector-curvature="0" fill="none" stroke="#000000" stroke-width="1.7" d="M-491.697,472.593l89-8
		v-42"/>
	
		<path id="path3959" inkscape:connector-curvature="0" sodipodi:nodetypes="sssss" fill="none" stroke="#000000" stroke-width="1.7" d="
		M-527.604,466.5c-0.015-6.637,0.628-16.656,5.516-16.656s5.53,10.02,5.516,16.656c-0.023,10.768-1.933,26.594-5.516,26.594
		S-527.58,477.267-527.604,466.5z"/>
	
		<path id="path3963" inkscape:connector-curvature="0" sodipodi:nodetypes="sssss" fill="none" stroke="#000000" stroke-width="1.7" d="
		M-507.451,460.312c-0.015-6.635,0.628-16.656,5.516-16.656s5.53,10.021,5.516,16.656c-0.023,10.768-1.933,26.594-5.516,26.594
		S-507.428,471.08-507.451,460.312z"/>
	<path id="path3965" inkscape:connector-curvature="0" fill="none" stroke="#000000" stroke-width="1.7" d="M-381.557,524.353
		l-14.85-40.658l186.209-68.852"/>
	
		<path id="path3967" inkscape:connector-curvature="0" sodipodi:nodetypes="ccc" fill="none" stroke="#000000" stroke-width="1.7" d="
		M-383.635,518.343l38.188-13.375l2.5,5.875"/>
	<path id="path3969" inkscape:connector-curvature="0" fill="none" stroke="#000000" stroke-width="2.5" d="M-297.635,447.281
		l2,4.813"/>
	
		<path id="path3971" inkscape:connector-curvature="0" sodipodi:nodetypes="cccc" fill="none" stroke="#000000" stroke-width="1.7" stroke-linejoin="round" d="
		M-205.697,348.218v7.313h9.937C-197.977,353.084-200.483,349.793-205.697,348.218L-205.697,348.218z"/>
	
		<path id="path3161" inkscape:connector-curvature="0" sodipodi:nodetypes="cc" fill="none" stroke="#000000" stroke-width="1.7" d="
		M-686.947,284.593c-44.719,0-89.438,0-134.157,0"/>
	
		<path id="path3163" inkscape:connector-curvature="0" sodipodi:nodetypes="cc" fill="none" stroke="#000000" stroke-width="1.7" d="
		M-745.697,279.593v-70.938"/>
	<path id="path3165" inkscape:connector-curvature="0" fill="none" stroke="#000000" stroke-width="1.7" d="M-715.697,284.656
		v77.438"/>
	
		<path id="path3167" inkscape:connector-curvature="0" sodipodi:nodetypes="cc" fill="none" stroke="#000000" stroke-width="1.7" d="
		M-698.385,361.843c-37.094,0-74.188,0-111.282,0"/>
	
		<path id="path3169" inkscape:connector-curvature="0" sodipodi:nodetypes="cc" fill="none" stroke="#000000" stroke-width="1.7" d="
		M-700.697,439.843c-35.553,0-71.104,0-106.657,0"/>
	<path id="path3171" inkscape:connector-curvature="0" fill="none" stroke="#000000" stroke-width="1.7" d="M-723.197,547.468
		l18.5-12.625"/>
	<path id="path3173" inkscape:connector-curvature="0" fill="none" stroke="#000000" stroke-width="1.7" d="M-734.322,588.343h26"/>
	<path id="path3175" inkscape:connector-curvature="0" fill="none" stroke="#000000" stroke-width="1.7" d="M-728.885,572.656
		v15.875"/>
	
		<path id="path3177" inkscape:connector-curvature="0" sodipodi:nodetypes="cc" fill="none" stroke="#000000" stroke-width="1.7" d="
		M-723.26,588.468c-1.981,89.83-10.312,177.123-16.624,265.221"/>
	<path id="path3179" inkscape:connector-curvature="0" fill="none" stroke="#000000" stroke-width="1.7" d="M-751.021,853.955
		h18.915"/>
	
		<path id="path3958" inkscape:connector-curvature="0" sodipodi:nodetypes="cc" fill="none" stroke="#000000" stroke-width="1.7" d="
		M-754.069,813.031v240.416"/>
	
		<path id="path3961" inkscape:connector-curvature="0" sodipodi:nodetypes="ssscs" fill="none" stroke="#000000" stroke-width="2.5" d="
		M-746.426,938.718c-0.144-44.258-3.913-126.793-7.6-126.793c-3.688,0-7.457,82.535-7.601,126.793
		c-0.13,40.068,1.913,78.551,7.601,114.861C-748.338,1017.269-746.296,978.787-746.426,938.718z"/>
	<path id="path3964" inkscape:connector-curvature="0" fill="none" stroke="#000000" stroke-width="1.7" d="M-762.072,992.093h12"/>
	<path id="path3968" inkscape:connector-curvature="0" fill="none" stroke="#000000" stroke-width="1.7" d="M-749.697,1000.968
		l4.375,4"/>
	<path id="path3970" inkscape:connector-curvature="0" fill="none" stroke="#000000" stroke-width="2.5" d="M-616.26,942.031h3.844"
		/>
	
		<path id="path4218" inkscape:connector-curvature="0" sodipodi:nodetypes="cssssssccccc" fill="none" stroke="#000000" stroke-width="2.5" d="
		M-799.236,604.39c-7.053-18.93-17.33-33.682-33.985-35.135c-108.919-9.51-210.765-20.088-294.133-45.162
		c-80.131-24.1-158.091-64.959-180-89.5c-10.992-12.313-10.957-37.455-11.75-59.25c-0.882-24.262,7.739-32.533,29.75-36
		c104.794-16.502,209.427-20.051,314.181-20.051h125.865c3.579-0.049,6.883-2.813,9.546-7.248
		c2.232-3.551,2.893-10.719,6.718-10.605c4.169-0.115,4.003,5.43,9.369,5.832h8.309"/>
	
		<path id="path4220" inkscape:connector-curvature="0" sodipodi:nodetypes="cssscccccsc" fill="none" stroke="#000000" stroke-width="2.5" d="
		M-856.497,974.734l-49.733-6.316c-23.319-2.963-35.841-24.492-35.709-46.67c0.111-18.77,12.839-41.074,40.658-43.486
		l126.396-10.961c4.663-0.535,7.731-4.561,7.867-7.91c4.43,11.607,5.54,30.266,6.011,44.725 M-796.343,982.377l20.927,2.658
		c8.451,1.953,9.161,8.422,9.893,12.48c1.128,6.258,3.878,10.9,7.419,11.828"/>
	
		<path id="path4222" inkscape:connector-curvature="0" sodipodi:nodetypes="ccccc" fill="none" stroke="#000000" stroke-width="2.5" d="
		M-796.541,984.957v-8.055l-59.839-7.602v8.061L-796.541,984.957z"/>
	<path id="path4224" inkscape:connector-curvature="0" fill="none" stroke="#000000" stroke-width="2.5" d="M-775.605,984.843v-44.5
		h-163.153"/>
	
		<path id="path4228" inkscape:connector-curvature="0" sodipodi:nodetypes="sccsss" fill="none" stroke="#000000" stroke-width="1.7" stroke-linejoin="round" d="
		M-777.184,554.759c-3.679-12.455-7.633-41.174-4.773-66.291c18.621,0,37.241,0,55.862,0c2.859,25.117-1.095,53.836-4.773,66.291
		c-5.321,18.02-12.851,35.002-23.157,35.002C-764.333,589.761-771.862,572.779-777.184,554.759L-777.184,554.759z"/>
	
		<path id="path4230" inkscape:connector-curvature="0" sodipodi:nodetypes="cc" fill="none" stroke="#000000" stroke-width="2.5" d="
		M-785.006,484.402c20.653,0,41.307,0,61.96,0"/>
	<path id="path4232" inkscape:connector-curvature="0" fill="none" stroke="#000000" stroke-width="1.7" d="M-785.78,484.402
		h-19.556"/>
	
		<path id="path4234" inkscape:connector-curvature="0" sodipodi:nodetypes="ccccsc" fill="none" stroke="#000000" stroke-width="2.5" stroke-linejoin="round" d="
		M-763.749,478.214l3.006-25.102c4.479,0,8.957,0,13.435,0l3.006,25.102c-0.25,1.41-5.833,2.059-9.723,2.059
		C-757.916,480.273-763.499,479.625-763.749,478.214z"/>
	
		<path id="path4236" inkscape:connector-curvature="0" sodipodi:nodetypes="cccc" fill="none" stroke="#000000" stroke-width="2.5" stroke-linejoin="round" d="
		M-764.601,452.994l-13.407,27.432h9.779L-764.601,452.994z"/>
	<path id="path4238" inkscape:connector-curvature="0" fill="none" stroke="#000000" stroke-width="1.7" d="M-1288.775,338.916
		v56.215l-18.385,39.773"/>
	<path id="path4240" inkscape:connector-curvature="0" fill="none" stroke="#000000" stroke-width="1.7" d="M-813.953,360.304
		h-474.911"/>
	<path id="path4242" inkscape:connector-curvature="0" fill="none" stroke="#000000" stroke-width="1.7" d="M-974.997,319.117
		v235.602"/>
	<path id="path4244" inkscape:connector-curvature="0" fill="none" stroke="#000000" stroke-width="1.7" d="M-1016.355,548.093
		v-111.75"/>
	<path id="path4246" inkscape:connector-curvature="0" fill="none" stroke="#000000" stroke-width="1.7" d="M-804.355,512.093
		l-170.625-69.938l-313.664-46.982"/>
	
		<path id="path4248" inkscape:connector-curvature="0" sodipodi:nodetypes="cc" fill="none" stroke="#000000" stroke-width="1.7" d="
		M-811.595,362.603c-0.784,63.111,4.107,138.223-21.385,206.24"/>
	<path id="path4250" inkscape:connector-curvature="0" fill="none" stroke="#000000" stroke-width="1.7" d="M-880.98,480.718v33.375
		l-94.375-39.25"/>
	<path id="path4252" inkscape:connector-curvature="0" fill="none" stroke="#000000" stroke-width="1.7" d="M-975.105,497.343
		h-41.25"/>
	<path id="path4254" inkscape:connector-curvature="0" fill="none" stroke="#000000" stroke-width="1.7" d="M-1016.355,472.593
		l-89-8v-42"/>
	
		<path id="path4256" inkscape:connector-curvature="0" sodipodi:nodetypes="sssss" fill="none" stroke="#000000" stroke-width="1.7" d="
		M-980.448,466.5c0.015-6.637-0.628-16.656-5.516-16.656c-4.887,0-5.53,10.02-5.516,16.656c0.024,10.768,1.933,26.594,5.516,26.594
		C-982.38,493.093-980.472,477.267-980.448,466.5z"/>
	
		<path id="path4258" inkscape:connector-curvature="0" sodipodi:nodetypes="sssss" fill="none" stroke="#000000" stroke-width="1.7" d="
		M-1000.601,460.312c0.015-6.635-0.628-16.656-5.516-16.656s-5.53,10.021-5.516,16.656c0.023,10.768,1.933,26.594,5.516,26.594
		S-1000.624,471.08-1000.601,460.312z"/>
	<path id="path4260" inkscape:connector-curvature="0" fill="none" stroke="#000000" stroke-width="1.7" d="M-1126.495,524.353
		l14.849-40.658l-186.209-68.852"/>
	
		<path id="path4262" inkscape:connector-curvature="0" sodipodi:nodetypes="ccc" fill="none" stroke="#000000" stroke-width="1.7" d="
		M-1124.417,518.343l-38.188-13.375l-2.5,5.875"/>
	<path id="path4264" inkscape:connector-curvature="0" fill="none" stroke="#000000" stroke-width="2.5" d="M-1210.417,447.281
		l-2,4.813"/>
	
		<path id="path4266" inkscape:connector-curvature="0" sodipodi:nodetypes="cccc" fill="none" stroke="#000000" stroke-width="1.7" stroke-linejoin="round" d="
		M-1302.354,348.218v7.313h-9.938C-1310.075,353.084-1307.568,349.793-1302.354,348.218z"/>
	
		<path id="path4268" inkscape:connector-curvature="0" sodipodi:nodetypes="cc" fill="none" stroke="#000000" stroke-width="1.7" d="
		M-821.855,208.593c45.219,0,90.438,0,135.657,0"/>
	
		<path id="path4270" inkscape:connector-curvature="0" sodipodi:nodetypes="cc" fill="none" stroke="#000000" stroke-width="1.7" d="
		M-822.105,279.843c45.386,0,90.771,0,136.157,0"/>
	<path id="path4274" inkscape:connector-curvature="0" fill="none" stroke="#000000" stroke-width="1.7" d="M-762.355,279.593
		v-70.938"/>
	<path id="path4276" inkscape:connector-curvature="0" fill="none" stroke="#000000" stroke-width="1.7" d="M-792.355,284.656
		v77.438"/>
	<path id="path4282" inkscape:connector-curvature="0" fill="none" stroke="#000000" stroke-width="1.7" d="M-784.855,547.468
		l-18.5-12.625"/>
	<path id="path4284" inkscape:connector-curvature="0" fill="none" stroke="#000000" stroke-width="1.7" d="M-773.73,588.343h-26"/>
	<path id="path4286" inkscape:connector-curvature="0" fill="none" stroke="#000000" stroke-width="1.7" d="M-779.167,572.656
		v15.875"/>
	
		<path id="path4288" inkscape:connector-curvature="0" sodipodi:nodetypes="ccc" fill="none" stroke="#000000" stroke-width="1.7" d="
		M-801.586,557.201h14.928c2.161,89.494,12.257,209.498,18.49,296.488"/>
	<path id="path4290" inkscape:connector-curvature="0" fill="none" stroke="#000000" stroke-width="1.7" d="M-757.031,853.955
		h-18.915"/>
	
		<path id="path4294" inkscape:connector-curvature="0" sodipodi:nodetypes="cccc" fill="none" stroke="#000000" stroke-width="1.7" d="
		M-755.48,611.843v45.592c0.969,0,1.938,0,2.907,0v-45.592"/>
	<path id="path4296" inkscape:connector-curvature="0" fill="none" stroke="#000000" stroke-width="1.7" d="M-758.355,1000.968
		l-4.375,4"/>
	<path id="path4298" inkscape:connector-curvature="0" fill="none" stroke="#000000" stroke-width="2.5" d="M-891.792,942.031
		h-3.844"/>
	
		<path id="path4386" inkscape:connector-curvature="0" sodipodi:nodetypes="cc" fill="none" stroke="#000000" stroke-width="1.7" stroke-linecap="round" d="
		M-754.069,689.332v11.078"/>
	
		<path id="path4388" inkscape:connector-curvature="0" sodipodi:nodetypes="cccsssc" fill="none" stroke="#000000" stroke-width="2.5" d="
		M-747.043,904.115c0.471-14.459,1.58-33.117,6.011-44.725c0.135,3.35,3.203,7.375,7.866,7.91l126.396,10.961
		c27.819,2.412,40.547,24.717,40.658,43.486c0.132,22.178-12.39,43.707-35.709,46.67l-49.733,6.316"/>
	
		<path id="path4392" inkscape:connector-curvature="0" sodipodi:nodetypes="cc" fill="none" stroke="#000000" stroke-width="2.5" d="
		M-1009.114,319.734c1.54,3.717,6.394,2.506,6.916-0.109"/>
	
		<path id="path4394" inkscape:connector-curvature="0" sodipodi:nodetypes="cc" fill="none" stroke="#000000" stroke-width="2.5" d="
		M-991.239,319.734c1.54,3.717,6.394,2.506,6.916-0.109"/>
	
		<path id="path4396" inkscape:connector-curvature="0" sodipodi:nodetypes="cc" fill="none" stroke="#000000" stroke-width="2.5" d="
		M-523.614,319.734c1.54,3.717,6.394,2.506,6.916-0.109"/>
	
		<path id="path4398" inkscape:connector-curvature="0" sodipodi:nodetypes="cc" fill="none" stroke="#000000" stroke-width="2.5" d="
		M-505.739,319.734c1.54,3.717,6.394,2.506,6.916-0.109"/>
	<path id="path3848" inkscape:connector-curvature="0" fill="none" stroke="#000000" stroke-width="0.8" d="M-929.94,155.239
		h352.802"/>
</g>
<path id="path3217" inkscape:connector-curvature="0" fill="none" stroke="#000000" stroke-width="1.7" d="M208.415,240.616v8.605"
	/>
<path id="path3987" inkscape:connector-curvature="0" fill="none" stroke="#000000" stroke-width="1.7" d="M180.528,2.852v8.606"/>
</svg>
