G75*
G70*
%OFA0B0*%
%FSLAX24Y24*%
%IPPOS*%
%LPD*%
%AMOC8*
5,1,8,0,0,1.08239X$1,22.5*
%
%ADD10C,0.1330*%
%ADD11C,0.0600*%
%ADD12C,0.0050*%
%ADD13R,0.0820X0.0820*%
%ADD14C,0.0820*%
%ADD15C,0.2080*%
%ADD16C,0.1360*%
%ADD17OC8,0.0600*%
%ADD18R,0.0730X0.0730*%
%ADD19C,0.0730*%
%ADD20C,0.0480*%
D10*
X001050Y001258D03*
X015000Y001308D03*
X001100Y015458D03*
X014850Y015558D03*
D11*
X010300Y006368D02*
X010300Y005848D01*
X009300Y005848D02*
X009300Y006368D01*
X008300Y006368D02*
X008300Y005848D01*
X007300Y005848D02*
X007300Y006368D01*
X006300Y006368D02*
X006300Y005848D01*
X005300Y005848D02*
X005300Y006368D01*
X004300Y006368D02*
X004300Y005848D01*
X003300Y005848D02*
X003300Y006368D01*
X003300Y003368D02*
X003300Y002848D01*
X004300Y002848D02*
X004300Y003368D01*
X005300Y003368D02*
X005300Y002848D01*
X006300Y002848D02*
X006300Y003368D01*
X007300Y003368D02*
X007300Y002848D01*
X008300Y002848D02*
X008300Y003368D01*
X009300Y003368D02*
X009300Y002848D01*
X010300Y002848D02*
X010300Y003368D01*
D12*
X010603Y007430D02*
X010564Y007435D01*
X010527Y007449D01*
X010493Y007471D01*
X010466Y007499D01*
X010445Y007533D01*
X010433Y007571D01*
X010429Y007610D01*
X010434Y007649D01*
X010447Y007685D01*
X010468Y007718D01*
X010495Y007745D01*
X010528Y007765D01*
X010565Y007777D01*
X010603Y007781D01*
X010641Y007778D01*
X010678Y007766D01*
X010710Y007747D01*
X010738Y007720D01*
X010759Y007688D01*
X010773Y007652D01*
X010778Y007614D01*
X010774Y007574D01*
X010762Y007536D01*
X010742Y007501D01*
X010714Y007472D01*
X010680Y007450D01*
X010643Y007436D01*
X010603Y007430D01*
X010644Y007436D02*
X010561Y007436D01*
X010480Y007485D02*
X010726Y007485D01*
X010761Y007533D02*
X010445Y007533D01*
X010432Y007582D02*
X010775Y007582D01*
X010776Y007630D02*
X010431Y007630D01*
X010445Y007679D02*
X010763Y007679D01*
X010731Y007727D02*
X010478Y007727D01*
X010560Y007776D02*
X010648Y007776D01*
X009671Y007652D02*
X009676Y007614D01*
X009672Y007574D01*
X009660Y007536D01*
X009640Y007501D01*
X009612Y007472D01*
X009578Y007450D01*
X009541Y007436D01*
X009501Y007430D01*
X009462Y007435D01*
X009424Y007449D01*
X009391Y007471D01*
X009364Y007499D01*
X009343Y007533D01*
X009331Y007571D01*
X009327Y007610D01*
X009332Y007649D01*
X009345Y007685D01*
X009366Y007718D01*
X009393Y007745D01*
X009426Y007765D01*
X009463Y007777D01*
X009501Y007781D01*
X009539Y007778D01*
X009576Y007766D01*
X009608Y007747D01*
X009636Y007720D01*
X009657Y007688D01*
X009671Y007652D01*
X009674Y007630D02*
X009329Y007630D01*
X009330Y007582D02*
X009673Y007582D01*
X009659Y007533D02*
X009343Y007533D01*
X009378Y007485D02*
X009624Y007485D01*
X009542Y007436D02*
X009459Y007436D01*
X009343Y007679D02*
X009661Y007679D01*
X009629Y007727D02*
X009376Y007727D01*
X009458Y007776D02*
X009546Y007776D01*
X007478Y007614D02*
X007474Y007574D01*
X007462Y007536D01*
X007442Y007501D01*
X007414Y007472D01*
X007380Y007450D01*
X007343Y007436D01*
X007303Y007430D01*
X007264Y007435D01*
X007227Y007449D01*
X007193Y007471D01*
X007166Y007499D01*
X007145Y007533D01*
X007133Y007571D01*
X007129Y007610D01*
X007134Y007649D01*
X007147Y007685D01*
X007168Y007718D01*
X007195Y007745D01*
X007228Y007765D01*
X007265Y007777D01*
X007303Y007781D01*
X007341Y007778D01*
X007378Y007766D01*
X007410Y007747D01*
X007438Y007720D01*
X007459Y007688D01*
X007473Y007652D01*
X007478Y007614D01*
X007476Y007630D02*
X007131Y007630D01*
X007132Y007582D02*
X007475Y007582D01*
X007461Y007533D02*
X007145Y007533D01*
X007180Y007485D02*
X007426Y007485D01*
X007344Y007436D02*
X007261Y007436D01*
X007145Y007679D02*
X007463Y007679D01*
X007431Y007727D02*
X007178Y007727D01*
X007260Y007776D02*
X007348Y007776D01*
X006371Y007652D02*
X006376Y007614D01*
X006372Y007574D01*
X006360Y007536D01*
X006340Y007501D01*
X006312Y007472D01*
X006278Y007450D01*
X006241Y007436D01*
X006201Y007430D01*
X006162Y007435D01*
X006124Y007449D01*
X006091Y007471D01*
X006064Y007499D01*
X006043Y007533D01*
X006031Y007571D01*
X006027Y007610D01*
X006032Y007649D01*
X006045Y007685D01*
X006066Y007718D01*
X006093Y007745D01*
X006126Y007765D01*
X006163Y007777D01*
X006201Y007781D01*
X006239Y007778D01*
X006276Y007766D01*
X006308Y007747D01*
X006336Y007720D01*
X006357Y007688D01*
X006371Y007652D01*
X006374Y007630D02*
X006029Y007630D01*
X006030Y007582D02*
X006373Y007582D01*
X006359Y007533D02*
X006043Y007533D01*
X006078Y007485D02*
X006324Y007485D01*
X006242Y007436D02*
X006159Y007436D01*
X006043Y007679D02*
X006361Y007679D01*
X006329Y007727D02*
X006076Y007727D01*
X006158Y007776D02*
X006246Y007776D01*
X001328Y007811D02*
X001323Y007772D01*
X001309Y007735D01*
X001287Y007702D01*
X001259Y007674D01*
X001225Y007654D01*
X001187Y007641D01*
X001148Y007637D01*
X001110Y007642D01*
X001073Y007655D01*
X001041Y007676D01*
X001014Y007703D01*
X000993Y007736D01*
X000981Y007773D01*
X000977Y007811D01*
X000980Y007849D01*
X000992Y007886D01*
X001012Y007919D01*
X001038Y007947D01*
X001070Y007968D01*
X001106Y007981D01*
X001144Y007986D01*
X001184Y007983D01*
X001222Y007970D01*
X001257Y007950D01*
X001286Y007922D01*
X001308Y007889D01*
X001322Y007851D01*
X001328Y007811D01*
X001326Y007824D02*
X000978Y007824D01*
X000981Y007776D02*
X001323Y007776D01*
X001304Y007727D02*
X000999Y007727D01*
X001038Y007679D02*
X001264Y007679D01*
X001314Y007873D02*
X000988Y007873D01*
X001014Y007921D02*
X001287Y007921D01*
X001223Y007970D02*
X001076Y007970D01*
X001144Y006884D02*
X001184Y006881D01*
X001222Y006868D01*
X001257Y006848D01*
X001286Y006820D01*
X001308Y006787D01*
X001322Y006749D01*
X001328Y006709D01*
X000977Y006709D01*
X000981Y006671D01*
X000993Y006634D01*
X001014Y006601D01*
X001041Y006574D01*
X001073Y006553D01*
X001110Y006540D01*
X001148Y006535D01*
X001187Y006539D01*
X001225Y006552D01*
X001259Y006572D01*
X001287Y006600D01*
X001309Y006633D01*
X001323Y006670D01*
X001328Y006709D01*
X001319Y006757D02*
X000984Y006757D01*
X000980Y006747D02*
X000992Y006784D01*
X001012Y006817D01*
X001038Y006845D01*
X001070Y006866D01*
X001106Y006879D01*
X001144Y006884D01*
X001053Y006854D02*
X001246Y006854D01*
X001296Y006806D02*
X001005Y006806D01*
X000980Y006747D02*
X000977Y006709D01*
X000985Y006660D02*
X001319Y006660D01*
X001295Y006612D02*
X001007Y006612D01*
X001057Y006563D02*
X001245Y006563D01*
X001144Y005136D02*
X001184Y005133D01*
X001222Y005120D01*
X001257Y005100D01*
X001286Y005072D01*
X001308Y005039D01*
X001322Y005001D01*
X001328Y004961D01*
X001323Y004922D01*
X001309Y004885D01*
X001287Y004852D01*
X001259Y004824D01*
X001225Y004804D01*
X001187Y004791D01*
X001148Y004787D01*
X001110Y004792D01*
X001073Y004805D01*
X001041Y004826D01*
X001014Y004853D01*
X000993Y004886D01*
X000981Y004923D01*
X000977Y004961D01*
X000980Y004999D01*
X000992Y005036D01*
X001012Y005069D01*
X001038Y005097D01*
X001070Y005118D01*
X001106Y005131D01*
X001144Y005136D01*
X001056Y005108D02*
X001243Y005108D01*
X001294Y005060D02*
X001006Y005060D01*
X000984Y005011D02*
X001319Y005011D01*
X001328Y004963D02*
X000977Y004963D01*
X000984Y004914D02*
X001320Y004914D01*
X001297Y004866D02*
X001006Y004866D01*
X001054Y004817D02*
X001248Y004817D01*
X001184Y004031D02*
X001144Y004034D01*
X001106Y004029D01*
X001070Y004016D01*
X001038Y003995D01*
X001012Y003967D01*
X000992Y003934D01*
X000980Y003897D01*
X000977Y003859D01*
X000981Y003821D01*
X000993Y003784D01*
X001014Y003751D01*
X001041Y003724D01*
X001073Y003703D01*
X001110Y003690D01*
X001148Y003685D01*
X001187Y003689D01*
X001225Y003702D01*
X001259Y003722D01*
X001287Y003750D01*
X001309Y003783D01*
X001323Y003820D01*
X001328Y003859D01*
X001322Y003899D01*
X001308Y003937D01*
X001286Y003970D01*
X001257Y003998D01*
X001222Y004018D01*
X001184Y004031D01*
X001262Y003993D02*
X001037Y003993D01*
X000998Y003944D02*
X001303Y003944D01*
X001323Y003896D02*
X000980Y003896D01*
X000978Y003847D02*
X001326Y003847D01*
X001315Y003799D02*
X000988Y003799D01*
X001015Y003750D02*
X001288Y003750D01*
X001226Y003702D02*
X001077Y003702D01*
D13*
X012541Y010489D03*
D14*
X012541Y009399D03*
X013659Y009942D03*
X013659Y008852D03*
X012541Y008308D03*
X012541Y007218D03*
X013659Y006674D03*
X012541Y006127D03*
X013659Y007765D03*
X007250Y010858D03*
X006250Y010358D03*
X006250Y011358D03*
X007250Y011858D03*
X006250Y012358D03*
X007250Y012858D03*
D15*
X013100Y013230D03*
X013100Y003387D03*
D16*
X003750Y009608D03*
X003750Y013608D03*
D17*
X008900Y010558D03*
X010900Y010558D03*
D18*
X009250Y012758D03*
D19*
X010250Y012758D03*
D20*
X011650Y010158D03*
M02*
