G75*
G70*
%OFA0B0*%
%FSLAX24Y24*%
%IPPOS*%
%LPD*%
%AMOC8*
5,1,8,0,0,1.08239X$1,22.5*
%
%ADD10C,0.1330*%
%ADD11C,0.0600*%
%ADD12C,0.0050*%
%ADD13R,0.0820X0.0820*%
%ADD14C,0.0820*%
%ADD15C,0.2080*%
%ADD16C,0.1360*%
%ADD17OC8,0.0600*%
%ADD18R,0.0730X0.0730*%
%ADD19C,0.0730*%
D10*
X001283Y001100D03*
X015233Y001150D03*
X001333Y015300D03*
X015083Y015400D03*
D11*
X010533Y006210D02*
X010533Y005690D01*
X009533Y005690D02*
X009533Y006210D01*
X008533Y006210D02*
X008533Y005690D01*
X007533Y005690D02*
X007533Y006210D01*
X006533Y006210D02*
X006533Y005690D01*
X005533Y005690D02*
X005533Y006210D01*
X004533Y006210D02*
X004533Y005690D01*
X003533Y005690D02*
X003533Y006210D01*
X003533Y003210D02*
X003533Y002690D01*
X004533Y002690D02*
X004533Y003210D01*
X005533Y003210D02*
X005533Y002690D01*
X006533Y002690D02*
X006533Y003210D01*
X007533Y003210D02*
X007533Y002690D01*
X008533Y002690D02*
X008533Y003210D01*
X009533Y003210D02*
X009533Y002690D01*
X010533Y002690D02*
X010533Y003210D01*
D12*
X010836Y007073D02*
X010771Y007080D01*
X010707Y007098D01*
X010647Y007127D01*
X010594Y007165D01*
X010548Y007213D01*
X010510Y007268D01*
X010483Y007328D01*
X010467Y007392D01*
X010462Y007458D01*
X010470Y007530D01*
X010492Y007599D01*
X010527Y007662D01*
X010573Y007718D01*
X010630Y007763D01*
X010694Y007796D01*
X010763Y007817D01*
X010835Y007823D01*
X010908Y007817D01*
X010978Y007797D01*
X011042Y007763D01*
X011099Y007718D01*
X011146Y007662D01*
X011181Y007599D01*
X011203Y007529D01*
X011211Y007457D01*
X011206Y007391D01*
X011190Y007327D01*
X011163Y007267D01*
X011125Y007212D01*
X011079Y007165D01*
X011025Y007126D01*
X010966Y007097D01*
X010902Y007080D01*
X010836Y007073D01*
X010755Y007084D02*
X010918Y007084D01*
X011034Y007133D02*
X010639Y007133D01*
X010578Y007181D02*
X011095Y007181D01*
X011137Y007230D02*
X010536Y007230D01*
X010506Y007278D02*
X011168Y007278D01*
X011190Y007327D02*
X010484Y007327D01*
X010471Y007375D02*
X011202Y007375D01*
X011209Y007424D02*
X010465Y007424D01*
X010464Y007472D02*
X011210Y007472D01*
X011204Y007521D02*
X010469Y007521D01*
X010482Y007569D02*
X011191Y007569D01*
X011171Y007618D02*
X010502Y007618D01*
X010530Y007666D02*
X011143Y007666D01*
X011102Y007715D02*
X010570Y007715D01*
X010630Y007763D02*
X011043Y007763D01*
X010926Y007812D02*
X010745Y007812D01*
X010079Y007599D02*
X010101Y007529D01*
X010109Y007457D01*
X010104Y007391D01*
X010088Y007327D01*
X010061Y007267D01*
X010023Y007212D01*
X009977Y007165D01*
X009923Y007126D01*
X009864Y007097D01*
X009800Y007080D01*
X009734Y007073D01*
X009668Y007080D01*
X009605Y007098D01*
X009545Y007127D01*
X009492Y007165D01*
X009446Y007213D01*
X009408Y007268D01*
X009381Y007328D01*
X009365Y007392D01*
X009360Y007458D01*
X009368Y007530D01*
X009390Y007599D01*
X009425Y007662D01*
X009471Y007718D01*
X009528Y007763D01*
X009592Y007796D01*
X009661Y007817D01*
X009733Y007823D01*
X009806Y007817D01*
X009876Y007797D01*
X009940Y007763D01*
X009997Y007718D01*
X010044Y007662D01*
X010079Y007599D01*
X010069Y007618D02*
X009400Y007618D01*
X009380Y007569D02*
X010089Y007569D01*
X010102Y007521D02*
X009367Y007521D01*
X009362Y007472D02*
X010108Y007472D01*
X010107Y007424D02*
X009363Y007424D01*
X009369Y007375D02*
X010100Y007375D01*
X010088Y007327D02*
X009382Y007327D01*
X009404Y007278D02*
X010066Y007278D01*
X010035Y007230D02*
X009434Y007230D01*
X009476Y007181D02*
X009993Y007181D01*
X009932Y007133D02*
X009537Y007133D01*
X009653Y007084D02*
X009816Y007084D01*
X010041Y007666D02*
X009428Y007666D01*
X009468Y007715D02*
X010000Y007715D01*
X009941Y007763D02*
X009528Y007763D01*
X009643Y007812D02*
X009824Y007812D01*
X007903Y007529D02*
X007911Y007457D01*
X007906Y007391D01*
X007890Y007327D01*
X007863Y007267D01*
X007825Y007212D01*
X007779Y007165D01*
X007725Y007126D01*
X007666Y007097D01*
X007602Y007080D01*
X007536Y007073D01*
X007471Y007080D01*
X007407Y007098D01*
X007347Y007127D01*
X007294Y007165D01*
X007248Y007213D01*
X007210Y007268D01*
X007183Y007328D01*
X007167Y007392D01*
X007162Y007458D01*
X007170Y007530D01*
X007192Y007599D01*
X007227Y007662D01*
X007273Y007718D01*
X007330Y007763D01*
X007394Y007796D01*
X007463Y007817D01*
X007535Y007823D01*
X007608Y007817D01*
X007678Y007797D01*
X007742Y007763D01*
X007799Y007718D01*
X007846Y007662D01*
X007881Y007599D01*
X007903Y007529D01*
X007904Y007521D02*
X007169Y007521D01*
X007164Y007472D02*
X007910Y007472D01*
X007909Y007424D02*
X007165Y007424D01*
X007171Y007375D02*
X007902Y007375D01*
X007890Y007327D02*
X007184Y007327D01*
X007206Y007278D02*
X007868Y007278D01*
X007837Y007230D02*
X007236Y007230D01*
X007278Y007181D02*
X007795Y007181D01*
X007734Y007133D02*
X007339Y007133D01*
X007455Y007084D02*
X007618Y007084D01*
X007891Y007569D02*
X007182Y007569D01*
X007202Y007618D02*
X007871Y007618D01*
X007843Y007666D02*
X007230Y007666D01*
X007270Y007715D02*
X007802Y007715D01*
X007743Y007763D02*
X007330Y007763D01*
X007445Y007812D02*
X007626Y007812D01*
X006801Y007529D02*
X006809Y007457D01*
X006804Y007391D01*
X006788Y007327D01*
X006761Y007267D01*
X006723Y007212D01*
X006677Y007165D01*
X006623Y007126D01*
X006564Y007097D01*
X006500Y007080D01*
X006434Y007073D01*
X006368Y007080D01*
X006305Y007098D01*
X006245Y007127D01*
X006192Y007165D01*
X006146Y007213D01*
X006108Y007268D01*
X006081Y007328D01*
X006065Y007392D01*
X006060Y007458D01*
X006068Y007530D01*
X006090Y007599D01*
X006125Y007662D01*
X006171Y007718D01*
X006228Y007763D01*
X006292Y007796D01*
X006361Y007817D01*
X006433Y007823D01*
X006506Y007817D01*
X006576Y007797D01*
X006640Y007763D01*
X006697Y007718D01*
X006744Y007662D01*
X006779Y007599D01*
X006801Y007529D01*
X006802Y007521D02*
X006067Y007521D01*
X006062Y007472D02*
X006808Y007472D01*
X006807Y007424D02*
X006063Y007424D01*
X006069Y007375D02*
X006800Y007375D01*
X006788Y007327D02*
X006082Y007327D01*
X006104Y007278D02*
X006766Y007278D01*
X006735Y007230D02*
X006134Y007230D01*
X006176Y007181D02*
X006693Y007181D01*
X006632Y007133D02*
X006237Y007133D01*
X006353Y007084D02*
X006516Y007084D01*
X006789Y007569D02*
X006080Y007569D01*
X006100Y007618D02*
X006769Y007618D01*
X006741Y007666D02*
X006128Y007666D01*
X006168Y007715D02*
X006700Y007715D01*
X006641Y007763D02*
X006228Y007763D01*
X006343Y007812D02*
X006524Y007812D01*
X001760Y007653D02*
X001754Y007587D01*
X001736Y007524D01*
X001707Y007464D01*
X001668Y007410D01*
X001621Y007364D01*
X001566Y007327D01*
X001505Y007300D01*
X001441Y007284D01*
X001375Y007279D01*
X001303Y007287D01*
X001234Y007309D01*
X001171Y007343D01*
X001116Y007390D01*
X001070Y007446D01*
X001037Y007510D01*
X001017Y007580D01*
X001010Y007652D01*
X001016Y007724D01*
X001037Y007794D01*
X001070Y007859D01*
X001115Y007916D01*
X001171Y007963D01*
X001235Y007998D01*
X001304Y008020D01*
X001376Y008028D01*
X001442Y008023D01*
X001506Y008007D01*
X001567Y007979D01*
X001621Y007942D01*
X001669Y007896D01*
X001707Y007842D01*
X001736Y007783D01*
X001754Y007719D01*
X001760Y007653D01*
X001759Y007666D02*
X001011Y007666D01*
X001013Y007618D02*
X001757Y007618D01*
X001748Y007569D02*
X001020Y007569D01*
X001034Y007521D02*
X001734Y007521D01*
X001711Y007472D02*
X001057Y007472D01*
X001089Y007424D02*
X001678Y007424D01*
X001632Y007375D02*
X001133Y007375D01*
X001202Y007327D02*
X001565Y007327D01*
X001754Y007715D02*
X001016Y007715D01*
X001028Y007763D02*
X001741Y007763D01*
X001722Y007812D02*
X001046Y007812D01*
X001071Y007860D02*
X001694Y007860D01*
X001656Y007909D02*
X001110Y007909D01*
X001164Y007957D02*
X001599Y007957D01*
X001509Y008006D02*
X001259Y008006D01*
X001376Y006926D02*
X001442Y006921D01*
X001506Y006905D01*
X001567Y006877D01*
X001621Y006840D01*
X001669Y006794D01*
X001707Y006740D01*
X001736Y006681D01*
X001754Y006617D01*
X001760Y006551D01*
X001754Y006485D01*
X001736Y006422D01*
X001707Y006362D01*
X001668Y006308D01*
X001099Y006308D01*
X001116Y006288D02*
X001070Y006344D01*
X001037Y006408D01*
X001017Y006478D01*
X001010Y006550D01*
X001016Y006622D01*
X001037Y006692D01*
X001070Y006757D01*
X001115Y006814D01*
X001171Y006861D01*
X001235Y006896D01*
X001304Y006918D01*
X001376Y006926D01*
X001224Y006890D02*
X001539Y006890D01*
X001619Y006842D02*
X001148Y006842D01*
X001099Y006793D02*
X001669Y006793D01*
X001704Y006745D02*
X001064Y006745D01*
X001039Y006696D02*
X001728Y006696D01*
X001745Y006648D02*
X001024Y006648D01*
X001014Y006599D02*
X001756Y006599D01*
X001760Y006551D02*
X001010Y006551D01*
X001014Y006502D02*
X001755Y006502D01*
X001745Y006454D02*
X001024Y006454D01*
X001039Y006405D02*
X001728Y006405D01*
X001703Y006357D02*
X001064Y006357D01*
X001116Y006288D02*
X001171Y006241D01*
X001234Y006207D01*
X001303Y006185D01*
X001375Y006177D01*
X001441Y006182D01*
X001505Y006198D01*
X001566Y006225D01*
X001621Y006262D01*
X001668Y006308D01*
X001617Y006260D02*
X001149Y006260D01*
X001226Y006211D02*
X001535Y006211D01*
X001442Y005173D02*
X001376Y005178D01*
X001304Y005170D01*
X001235Y005148D01*
X001171Y005113D01*
X001115Y005066D01*
X001070Y005009D01*
X001037Y004944D01*
X001016Y004874D01*
X001010Y004802D01*
X001017Y004730D01*
X001037Y004660D01*
X001070Y004596D01*
X001116Y004540D01*
X001171Y004493D01*
X001234Y004459D01*
X001303Y004437D01*
X001375Y004429D01*
X001441Y004434D01*
X001505Y004450D01*
X001566Y004477D01*
X001621Y004514D01*
X001668Y004560D01*
X001707Y004614D01*
X001736Y004674D01*
X001754Y004737D01*
X001760Y004803D01*
X001754Y004869D01*
X001736Y004933D01*
X001707Y004992D01*
X001669Y005046D01*
X001621Y005092D01*
X001567Y005129D01*
X001506Y005157D01*
X001442Y005173D01*
X001534Y005144D02*
X001228Y005144D01*
X001151Y005096D02*
X001616Y005096D01*
X001667Y005047D02*
X001100Y005047D01*
X001065Y004999D02*
X001703Y004999D01*
X001727Y004950D02*
X001040Y004950D01*
X001024Y004902D02*
X001745Y004902D01*
X001755Y004853D02*
X001015Y004853D01*
X001011Y004805D02*
X001760Y004805D01*
X001756Y004756D02*
X001014Y004756D01*
X001023Y004708D02*
X001745Y004708D01*
X001729Y004659D02*
X001038Y004659D01*
X001063Y004611D02*
X001704Y004611D01*
X001669Y004562D02*
X001098Y004562D01*
X001147Y004514D02*
X001620Y004514D01*
X001539Y004465D02*
X001223Y004465D01*
X001304Y004068D02*
X001376Y004076D01*
X001442Y004071D01*
X001506Y004055D01*
X001567Y004027D01*
X001621Y003990D01*
X001669Y003944D01*
X001707Y003890D01*
X001736Y003831D01*
X001754Y003767D01*
X001760Y003701D01*
X001754Y003635D01*
X001736Y003572D01*
X001707Y003512D01*
X001668Y003458D01*
X001621Y003412D01*
X001566Y003375D01*
X001505Y003348D01*
X001441Y003332D01*
X001375Y003327D01*
X001303Y003335D01*
X001234Y003357D01*
X001171Y003391D01*
X001116Y003438D01*
X001070Y003494D01*
X001037Y003558D01*
X001017Y003628D01*
X001010Y003700D01*
X001016Y003772D01*
X001037Y003842D01*
X001070Y003907D01*
X001115Y003964D01*
X001171Y004011D01*
X001235Y004046D01*
X001304Y004068D01*
X001203Y004029D02*
X001564Y004029D01*
X001632Y003980D02*
X001135Y003980D01*
X001090Y003932D02*
X001678Y003932D01*
X001711Y003883D02*
X001058Y003883D01*
X001034Y003835D02*
X001734Y003835D01*
X001748Y003786D02*
X001020Y003786D01*
X001013Y003738D02*
X001757Y003738D01*
X001759Y003689D02*
X001011Y003689D01*
X001015Y003641D02*
X001754Y003641D01*
X001741Y003592D02*
X001027Y003592D01*
X001045Y003544D02*
X001722Y003544D01*
X001695Y003495D02*
X001070Y003495D01*
X001109Y003447D02*
X001656Y003447D01*
X001600Y003398D02*
X001163Y003398D01*
X001257Y003350D02*
X001509Y003350D01*
D13*
X012774Y010331D03*
D14*
X012774Y009241D03*
X013892Y009784D03*
X013892Y008693D03*
X013892Y007607D03*
X012774Y008150D03*
X012774Y007059D03*
X012774Y005969D03*
X013892Y006516D03*
X007483Y010700D03*
X006483Y010200D03*
X006483Y011200D03*
X007483Y011700D03*
X006483Y012200D03*
X007483Y012700D03*
D15*
X013333Y013071D03*
X013333Y003229D03*
D16*
X003983Y009450D03*
X003983Y013450D03*
D17*
X009133Y010400D03*
X011133Y010400D03*
D18*
X009483Y012600D03*
D19*
X010483Y012600D03*
M02*
