G75*
G70*
%OFA0B0*%
%FSLAX24Y24*%
%IPPOS*%
%LPD*%
%AMOC8*
5,1,8,0,0,1.08239X$1,22.5*
%
%ADD10C,0.0520*%
%ADD11C,0.0800*%
%ADD12R,0.0740X0.0740*%
%ADD13C,0.0740*%
%ADD14C,0.2000*%
%ADD15OC8,0.0520*%
%ADD16R,0.0650X0.0650*%
%ADD17C,0.0650*%
%ADD18C,0.0100*%
%ADD19C,0.0400*%
D10*
X003300Y002848D02*
X003300Y003368D01*
X004300Y003368D02*
X004300Y002848D01*
X005300Y002848D02*
X005300Y003368D01*
X006300Y003368D02*
X006300Y002848D01*
X007300Y002848D02*
X007300Y003368D01*
X008300Y003368D02*
X008300Y002848D01*
X009300Y002848D02*
X009300Y003368D01*
X010300Y003368D02*
X010300Y002848D01*
X010300Y005848D02*
X010300Y006368D01*
X009300Y006368D02*
X009300Y005848D01*
X008300Y005848D02*
X008300Y006368D01*
X007300Y006368D02*
X007300Y005848D01*
X006300Y005848D02*
X006300Y006368D01*
X005300Y006368D02*
X005300Y005848D01*
X004300Y005848D02*
X004300Y006368D01*
X003300Y006368D02*
X003300Y005848D01*
D11*
X001150Y006708D03*
X001150Y007808D03*
X001150Y004958D03*
X001150Y003858D03*
X006200Y007608D03*
X007300Y007608D03*
X009500Y007608D03*
X010600Y007608D03*
D12*
X012541Y010489D03*
D13*
X012541Y009399D03*
X013659Y009942D03*
X013659Y008852D03*
X012541Y008308D03*
X012541Y007218D03*
X013659Y006674D03*
X012541Y006127D03*
X013659Y007765D03*
X007250Y010858D03*
X006250Y010358D03*
X006250Y011358D03*
X007250Y011858D03*
X006250Y012358D03*
X007250Y012858D03*
D14*
X013100Y013230D03*
X013100Y003387D03*
D15*
X010900Y010558D03*
X008900Y010558D03*
D16*
X009250Y012758D03*
D17*
X010250Y012758D03*
D18*
X012000Y011008D01*
X012000Y006108D01*
X012250Y006108D01*
X012541Y006127D01*
X012500Y006108D01*
X012300Y006108D01*
X009925Y003733D01*
X009900Y003758D01*
X001250Y003758D01*
X001150Y003858D01*
X001150Y004958D02*
X004150Y004958D01*
X005300Y006108D01*
X007650Y006758D02*
X001200Y006758D01*
X001150Y006708D01*
X001900Y007058D02*
X001150Y007808D01*
X001900Y007058D02*
X009350Y007058D01*
X010300Y006108D01*
X008300Y006108D02*
X007650Y006758D01*
X009925Y003733D02*
X009300Y003108D01*
X010500Y002458D02*
X013050Y005008D01*
X013050Y008308D01*
X012541Y008308D01*
X011650Y010158D02*
X007950Y010158D01*
X007250Y010858D01*
X008100Y011358D02*
X006250Y011358D01*
X007250Y012858D02*
X007650Y013258D01*
X009750Y013258D01*
X010250Y012758D01*
X008100Y011358D02*
X008900Y010558D01*
X007300Y003108D02*
X007950Y002458D01*
X010500Y002458D01*
D19*
X011650Y010158D03*
M02*
