G75*
G70*
%OFA0B0*%
%FSLAX24Y24*%
%IPPOS*%
%LPD*%
%AMOC8*
5,1,8,0,0,1.08239X$1,22.5*
%
%ADD10C,0.0060*%
%ADD11C,0.0020*%
D10*
X005687Y001413D02*
X006114Y001413D01*
X005687Y001840D01*
X005687Y001947D01*
X005794Y002054D01*
X006007Y002054D01*
X006114Y001947D01*
X006332Y001947D02*
X006332Y001840D01*
X006438Y001734D01*
X006332Y001627D01*
X006332Y001520D01*
X006438Y001413D01*
X006652Y001413D01*
X006759Y001520D01*
X006976Y001413D02*
X007403Y001413D01*
X006976Y001840D01*
X006976Y001947D01*
X007083Y002054D01*
X007296Y002054D01*
X007403Y001947D01*
X007621Y001947D02*
X007727Y002054D01*
X007941Y002054D01*
X008048Y001947D01*
X008048Y001840D01*
X007941Y001734D01*
X007727Y001734D01*
X007621Y001627D01*
X007621Y001520D01*
X007727Y001413D01*
X007941Y001413D01*
X008048Y001520D01*
X008265Y001413D02*
X008479Y001627D01*
X008372Y001627D02*
X008692Y001627D01*
X008692Y001413D02*
X008692Y002054D01*
X008372Y002054D01*
X008265Y001947D01*
X008265Y001734D01*
X008372Y001627D01*
X008910Y001734D02*
X009337Y001734D01*
X009554Y001413D02*
X009981Y001413D01*
X009981Y002054D01*
X010199Y002054D02*
X010626Y002054D01*
X010412Y002054D02*
X010412Y001413D01*
X011057Y001413D02*
X011057Y002054D01*
X011270Y002054D02*
X010843Y002054D01*
X009820Y000790D02*
X009607Y000363D01*
X009393Y000790D01*
X009176Y000790D02*
X008962Y001004D01*
X008962Y000363D01*
X008749Y000363D02*
X009176Y000363D01*
X008531Y000363D02*
X008424Y000363D01*
X008424Y000470D01*
X008531Y000470D01*
X008531Y000363D01*
X008209Y000363D02*
X007782Y000363D01*
X007564Y000470D02*
X007137Y000897D01*
X007137Y000470D01*
X007244Y000363D01*
X007458Y000363D01*
X007564Y000470D01*
X007564Y000897D01*
X007458Y001004D01*
X007244Y001004D01*
X007137Y000897D01*
X007995Y001004D02*
X007995Y000363D01*
X008209Y000790D02*
X007995Y001004D01*
X006759Y001947D02*
X006652Y002054D01*
X006438Y002054D01*
X006332Y001947D01*
X006438Y001734D02*
X006545Y001734D01*
X006654Y014638D02*
X007081Y014638D01*
X006867Y014638D02*
X006867Y015279D01*
X007081Y015065D01*
X007298Y015279D02*
X007725Y014638D01*
X007943Y014745D02*
X008050Y014638D01*
X008263Y014638D01*
X008370Y014745D01*
X008588Y014638D02*
X009015Y014638D01*
X008801Y014638D02*
X008801Y015279D01*
X009015Y015065D01*
X009232Y015279D02*
X009659Y014638D01*
X009877Y014745D02*
X009983Y014638D01*
X010197Y014638D01*
X010304Y014745D01*
X010304Y014852D01*
X010197Y014959D01*
X009983Y014959D01*
X009877Y014852D01*
X009877Y014745D01*
X009983Y014959D02*
X009877Y015065D01*
X009877Y015172D01*
X009983Y015279D01*
X010197Y015279D01*
X010304Y015172D01*
X010304Y015065D01*
X010197Y014959D01*
X010521Y015172D02*
X010628Y015279D01*
X010841Y015279D01*
X010948Y015172D01*
X010948Y014745D01*
X010521Y015172D01*
X010521Y014745D01*
X010628Y014638D01*
X010841Y014638D01*
X010948Y014745D01*
X010948Y015688D02*
X010628Y015688D01*
X010521Y015795D01*
X010521Y016222D01*
X010628Y016329D01*
X010948Y016329D01*
X010948Y015688D01*
X011166Y015688D02*
X011166Y016115D01*
X011379Y016329D01*
X011593Y016115D01*
X011593Y015688D01*
X011593Y016009D02*
X011166Y016009D01*
X010304Y016009D02*
X009877Y016009D01*
X009877Y016115D02*
X009877Y015688D01*
X009659Y015688D02*
X009659Y016329D01*
X009446Y016115D01*
X009232Y016329D01*
X009232Y015688D01*
X009877Y016115D02*
X010090Y016329D01*
X010304Y016115D01*
X010304Y015688D01*
X008370Y015795D02*
X008263Y015688D01*
X008050Y015688D01*
X007943Y015795D01*
X007725Y015688D02*
X007725Y016329D01*
X007943Y016222D02*
X008050Y016329D01*
X008263Y016329D01*
X008370Y016222D01*
X008370Y015795D01*
X008263Y015279D02*
X008050Y015279D01*
X007943Y015172D01*
X007943Y015065D01*
X008050Y014959D01*
X007943Y014852D01*
X007943Y014745D01*
X008050Y014959D02*
X008156Y014959D01*
X008370Y015172D02*
X008263Y015279D01*
X007725Y016009D02*
X007298Y016009D01*
X007081Y016009D02*
X006654Y016009D01*
X006654Y016115D02*
X006654Y015688D01*
X006436Y015795D02*
X006330Y015688D01*
X006116Y015688D01*
X006009Y015795D01*
X006009Y015902D01*
X006116Y016009D01*
X006330Y016009D01*
X006436Y016115D01*
X006436Y016222D01*
X006330Y016329D01*
X006116Y016329D01*
X006009Y016222D01*
X005792Y016329D02*
X005792Y015688D01*
X005365Y015688D01*
X005578Y016009D02*
X005792Y016009D01*
X005792Y016329D02*
X005365Y016329D01*
X006116Y015279D02*
X006009Y015172D01*
X006009Y015065D01*
X006116Y014959D01*
X006009Y014852D01*
X006009Y014745D01*
X006116Y014638D01*
X006330Y014638D01*
X006436Y014745D01*
X006223Y014959D02*
X006116Y014959D01*
X006116Y015279D02*
X006330Y015279D01*
X006436Y015172D01*
X007081Y015688D02*
X007081Y016115D01*
X006867Y016329D01*
X006654Y016115D01*
X007298Y016329D02*
X007298Y015688D01*
D11*
X002060Y003862D02*
X002153Y003768D01*
X002060Y003862D02*
X002340Y003862D01*
X002340Y003955D02*
X002340Y003768D01*
X002293Y004045D02*
X002106Y004045D01*
X002060Y004091D01*
X002060Y004185D01*
X002106Y004231D01*
X002293Y004045D01*
X002340Y004091D01*
X002340Y004185D01*
X002293Y004231D01*
X002106Y004231D01*
X002106Y004321D02*
X002060Y004368D01*
X002060Y004461D01*
X002106Y004508D01*
X002293Y004321D01*
X002340Y004368D01*
X002340Y004461D01*
X002293Y004508D01*
X002106Y004508D01*
X002153Y004597D02*
X002153Y004737D01*
X002200Y004784D01*
X002340Y004784D01*
X002340Y004873D02*
X002060Y004873D01*
X002060Y005060D01*
X002200Y004967D02*
X002200Y004873D01*
X002153Y004597D02*
X002340Y004597D01*
X002293Y004321D02*
X002106Y004321D01*
X002053Y006518D02*
X001960Y006612D01*
X002240Y006612D01*
X002240Y006705D02*
X002240Y006518D01*
X002193Y006795D02*
X002006Y006795D01*
X001960Y006841D01*
X001960Y006935D01*
X002006Y006981D01*
X002193Y006795D01*
X002240Y006841D01*
X002240Y006935D01*
X002193Y006981D01*
X002006Y006981D01*
X002006Y007071D02*
X001960Y007118D01*
X001960Y007211D01*
X002006Y007258D01*
X002193Y007071D01*
X002240Y007118D01*
X002240Y007211D01*
X002193Y007258D01*
X002006Y007258D01*
X002053Y007347D02*
X002053Y007487D01*
X002100Y007534D01*
X002240Y007534D01*
X002240Y007623D02*
X001960Y007623D01*
X001960Y007810D01*
X002100Y007717D02*
X002100Y007623D01*
X002053Y007347D02*
X002240Y007347D01*
X002193Y007071D02*
X002006Y007071D01*
X006060Y008368D02*
X006247Y008368D01*
X006153Y008368D02*
X006153Y008649D01*
X006060Y008555D01*
X006336Y008602D02*
X006336Y008415D01*
X006523Y008602D01*
X006523Y008415D01*
X006476Y008368D01*
X006383Y008368D01*
X006336Y008415D01*
X006336Y008602D02*
X006383Y008649D01*
X006476Y008649D01*
X006523Y008602D01*
X006612Y008602D02*
X006659Y008649D01*
X006753Y008649D01*
X006799Y008602D01*
X006612Y008415D01*
X006659Y008368D01*
X006753Y008368D01*
X006799Y008415D01*
X006799Y008602D01*
X006889Y008555D02*
X006889Y008368D01*
X007076Y008368D02*
X007076Y008508D01*
X007029Y008555D01*
X006889Y008555D01*
X007165Y008508D02*
X007258Y008508D01*
X007165Y008368D02*
X007165Y008649D01*
X007352Y008649D01*
X006612Y008602D02*
X006612Y008415D01*
X009360Y008505D02*
X009453Y008599D01*
X009453Y008318D01*
X009360Y008318D02*
X009547Y008318D01*
X009636Y008365D02*
X009683Y008318D01*
X009776Y008318D01*
X009823Y008365D01*
X009823Y008552D01*
X009636Y008365D01*
X009636Y008552D01*
X009683Y008599D01*
X009776Y008599D01*
X009823Y008552D01*
X009912Y008552D02*
X009959Y008599D01*
X010053Y008599D01*
X010099Y008552D01*
X009912Y008365D01*
X009959Y008318D01*
X010053Y008318D01*
X010099Y008365D01*
X010099Y008552D01*
X010189Y008505D02*
X010329Y008505D01*
X010376Y008458D01*
X010376Y008318D01*
X010465Y008318D02*
X010465Y008599D01*
X010652Y008599D01*
X010558Y008458D02*
X010465Y008458D01*
X010189Y008505D02*
X010189Y008318D01*
X009912Y008365D02*
X009912Y008552D01*
M02*
