  0
SECTION
  2
HEADER
  9
$ACADVER
  1
AC1009
  9
$FILLMODE
 70
0
  9
$EXTMIN
 10
-41.2365
 20
-32.8507
 30
0.0000
  9
$EXTMAX
 10
42.9794
 20
56.9807
 30
0.0000
  0
ENDSEC
  0
SECTION
  2
TABLES
  0
TABLE
  2
LTYPE
 70
1
  0
LTYPE
  2
CONTINUOUS
 70
64
  3
Solid line
 72
65
 73
0
 40
0
  0
ENDTAB
  0
TABLE
  2
LAYER
 70
255
  0
LAYER
  2
91
 70
64
 62
82
  6
CONTINUOUS
  0
LAYER
  2
92
 70
64
 62
175
  6
CONTINUOUS
  0
LAYER
  2
94
 70
64
 62
22
  6
CONTINUOUS
  0
LAYER
  2
95
 70
64
 62
253
  6
CONTINUOUS
  0
LAYER
  2
96
 70
64
 62
253
  6
CONTINUOUS
  0
LAYER
  2
97
 70
64
 62
253
  6
CONTINUOUS
  0
LAYER
  2
98
 70
64
 62
53
  6
CONTINUOUS
  0
ENDTAB
  0
ENDSEC
  0
SECTION
  2
BLOCKS
  0
BLOCK
  8
0
  2
RECT
 70
64
 10
0.0000
 20
0.0000
 30
0.0000
  3
RECT
  0
SOLID
  8
0
 10
-0.5000
 20
-0.5000
 30
0.0000
 11
0.5000
 21
-0.5000
 31
0.0000
 12
-0.5000
 22
0.5000
 32
0.0000
 13
0.5000
 23
0.5000
 33
0.0000
  0
ENDBLK
  8
0
  0
BLOCK
  8
0
  2
PIE
 70
64
 10
0.0000
 20
0.0000
 30
0.0000
  3
PIE
  0
CIRCLE
  8
0
 10
0.0000
 20
0.0000
 30
0.0000
 40
0.5000
  0
ENDBLK
  8
0
  0
ENDSEC
  0
SECTION
  2
ENTITIES
  0
LINE
  8
94
 10
33.0200
 20
22.8600
 30
0.0000
 11
38.1000
 21
22.8600
 31
0.0000
  0
LINE
  8
94
 10
35.5600
 20
21.8440
 30
0.0000
 11
35.5600
 21
20.3200
 31
0.0000
  0
ARC
  8
94
 10
35.5599
 20
17.8058
 30
0.0000
 40
4.0542
 50
52.1206
 51
89.9988
  0
ARC
  8
94
 10
35.5598
 20
17.7802
 30
0.0000
 40
4.0637
 50
89.9973
 51
127.3736
  0
LINE
  8
95
 10
37.7369
 20
24.9270
 30
0.0000
 11
37.4657
 21
25.1982
 31
0.0000
  0
LINE
  8
95
 10
37.4657
 20
25.1982
 30
0.0000
 11
36.9234
 21
25.1982
 31
0.0000
  0
LINE
  8
95
 10
36.9234
 20
25.1982
 30
0.0000
 11
36.6522
 21
24.9270
 31
0.0000
  0
LINE
  8
95
 10
36.6522
 20
24.9270
 30
0.0000
 11
36.6522
 21
23.8424
 31
0.0000
  0
LINE
  8
95
 10
36.6522
 20
23.8424
 30
0.0000
 11
36.9234
 21
23.5712
 31
0.0000
  0
LINE
  8
95
 10
36.9234
 20
23.5712
 30
0.0000
 11
37.4657
 21
23.5712
 31
0.0000
  0
LINE
  8
95
 10
37.4657
 20
23.5712
 30
0.0000
 11
37.7369
 21
23.8424
 31
0.0000
  0
LINE
  8
95
 10
39.3740
 20
23.5712
 30
0.0000
 11
38.2894
 21
23.5712
 31
0.0000
  0
LINE
  8
95
 10
38.2894
 20
23.5712
 30
0.0000
 11
39.3740
 21
24.6559
 31
0.0000
  0
LINE
  8
95
 10
39.3740
 20
24.6559
 30
0.0000
 11
39.3740
 21
24.9270
 31
0.0000
  0
LINE
  8
95
 10
39.3740
 20
24.9270
 30
0.0000
 11
39.1029
 21
25.1982
 31
0.0000
  0
LINE
  8
95
 10
39.1029
 20
25.1982
 30
0.0000
 11
38.5605
 21
25.1982
 31
0.0000
  0
LINE
  8
95
 10
38.5605
 20
25.1982
 30
0.0000
 11
38.2894
 21
24.9270
 31
0.0000
  0
LINE
  8
96
 10
36.6522
 20
19.8299
 30
0.0000
 11
37.1945
 21
20.3722
 31
0.0000
  0
LINE
  8
96
 10
37.1945
 20
20.3722
 30
0.0000
 11
37.1945
 21
18.7452
 31
0.0000
  0
LINE
  8
96
 10
36.6522
 20
18.7452
 30
0.0000
 11
37.7369
 21
18.7452
 31
0.0000
  0
LINE
  8
96
 10
38.2894
 20
19.0164
 30
0.0000
 11
38.2894
 21
20.1010
 31
0.0000
  0
LINE
  8
96
 10
38.2894
 20
20.1010
 30
0.0000
 11
38.5605
 21
20.3722
 31
0.0000
  0
LINE
  8
96
 10
38.5605
 20
20.3722
 30
0.0000
 11
39.1029
 21
20.3722
 31
0.0000
  0
LINE
  8
96
 10
39.1029
 20
20.3722
 30
0.0000
 11
39.3740
 21
20.1010
 31
0.0000
  0
LINE
  8
96
 10
39.3740
 20
20.1010
 30
0.0000
 11
39.3740
 21
19.0164
 31
0.0000
  0
LINE
  8
96
 10
39.3740
 20
19.0164
 30
0.0000
 11
39.1029
 21
18.7452
 31
0.0000
  0
LINE
  8
96
 10
39.1029
 20
18.7452
 30
0.0000
 11
38.5605
 21
18.7452
 31
0.0000
  0
LINE
  8
96
 10
38.5605
 20
18.7452
 30
0.0000
 11
38.2894
 21
19.0164
 31
0.0000
  0
LINE
  8
96
 10
38.2894
 20
19.0164
 30
0.0000
 11
39.3740
 21
20.1010
 31
0.0000
  0
LINE
  8
96
 10
39.9265
 20
19.8299
 30
0.0000
 11
39.9265
 21
19.0164
 31
0.0000
  0
LINE
  8
96
 10
39.9265
 20
19.0164
 30
0.0000
 11
40.1977
 21
18.7452
 31
0.0000
  0
LINE
  8
96
 10
40.1977
 20
18.7452
 30
0.0000
 11
41.0112
 21
18.7452
 31
0.0000
  0
LINE
  8
96
 10
41.0112
 20
18.7452
 30
0.0000
 11
41.0112
 21
19.8299
 31
0.0000
  0
LINE
  8
96
 10
41.5637
 20
18.7452
 30
0.0000
 11
41.5637
 21
20.3722
 31
0.0000
  0
LINE
  8
96
 10
41.5637
 20
20.3722
 30
0.0000
 11
42.6483
 21
20.3722
 31
0.0000
  0
LINE
  8
96
 10
41.5637
 20
19.5587
 30
0.0000
 11
42.1060
 21
19.5587
 31
0.0000
  0
LINE
  8
94
 10
35.5600
 20
25.4000
 30
0.0000
 11
35.5600
 21
22.8600
 31
0.0000
  0
LINE
  8
94
 10
35.5600
 20
17.7800
 30
0.0000
 11
35.5600
 21
20.3200
 31
0.0000
  0
INSERT
  8
94
  2
RECT
 10
33.7515
 20
23.5915
 30
0.0000
 41
0.8890
 42
0.1270
 43
1.0000
 50
0.0000
  0
INSERT
  8
94
  2
RECT
 10
33.7515
 20
23.5915
 30
0.0000
 41
0.1270
 42
0.8890
 43
1.0000
 50
0.0000
  0
LINE
  8
94
 10
-33.0200
 20
10.1600
 30
0.0000
 11
-33.0200
 21
9.6520
 31
0.0000
  0
LINE
  8
94
 10
-33.0200
 20
7.6200
 30
0.0000
 11
-33.0200
 21
8.1280
 31
0.0000
  0
LINE
  8
95
 10
-30.3351
 20
11.9730
 30
0.0000
 11
-30.6063
 21
12.2442
 31
0.0000
  0
LINE
  8
95
 10
-30.6063
 20
12.2442
 30
0.0000
 11
-31.1486
 21
12.2442
 31
0.0000
  0
LINE
  8
95
 10
-31.1486
 20
12.2442
 30
0.0000
 11
-31.4198
 21
11.9730
 31
0.0000
  0
LINE
  8
95
 10
-31.4198
 20
11.9730
 30
0.0000
 11
-31.4198
 21
10.8884
 31
0.0000
  0
LINE
  8
95
 10
-31.4198
 20
10.8884
 30
0.0000
 11
-31.1486
 21
10.6172
 31
0.0000
  0
LINE
  8
95
 10
-31.1486
 20
10.6172
 30
0.0000
 11
-30.6063
 21
10.6172
 31
0.0000
  0
LINE
  8
95
 10
-30.6063
 20
10.6172
 30
0.0000
 11
-30.3351
 21
10.8884
 31
0.0000
  0
LINE
  8
95
 10
-29.7826
 20
11.9730
 30
0.0000
 11
-29.5115
 21
12.2442
 31
0.0000
  0
LINE
  8
95
 10
-29.5115
 20
12.2442
 30
0.0000
 11
-28.9692
 21
12.2442
 31
0.0000
  0
LINE
  8
95
 10
-28.9692
 20
12.2442
 30
0.0000
 11
-28.6980
 21
11.9730
 31
0.0000
  0
LINE
  8
95
 10
-28.6980
 20
11.9730
 30
0.0000
 11
-28.6980
 21
11.7019
 31
0.0000
  0
LINE
  8
95
 10
-28.6980
 20
11.7019
 30
0.0000
 11
-28.9692
 21
11.4307
 31
0.0000
  0
LINE
  8
95
 10
-28.9692
 20
11.4307
 30
0.0000
 11
-29.2403
 21
11.4307
 31
0.0000
  0
LINE
  8
95
 10
-28.9692
 20
11.4307
 30
0.0000
 11
-28.6980
 21
11.1595
 31
0.0000
  0
LINE
  8
95
 10
-28.6980
 20
11.1595
 30
0.0000
 11
-28.6980
 21
10.8884
 31
0.0000
  0
LINE
  8
95
 10
-28.6980
 20
10.8884
 30
0.0000
 11
-28.9692
 21
10.6172
 31
0.0000
  0
LINE
  8
95
 10
-28.9692
 20
10.6172
 30
0.0000
 11
-29.5115
 21
10.6172
 31
0.0000
  0
LINE
  8
95
 10
-29.5115
 20
10.6172
 30
0.0000
 11
-29.7826
 21
10.8884
 31
0.0000
  0
LINE
  8
96
 10
-31.4198
 20
6.6219
 30
0.0000
 11
-30.8775
 21
7.1642
 31
0.0000
  0
LINE
  8
96
 10
-30.8775
 20
7.1642
 30
0.0000
 11
-30.8775
 21
5.5372
 31
0.0000
  0
LINE
  8
96
 10
-31.4198
 20
5.5372
 30
0.0000
 11
-30.3351
 21
5.5372
 31
0.0000
  0
LINE
  8
96
 10
-29.7826
 20
5.8084
 30
0.0000
 11
-29.7826
 21
6.8930
 31
0.0000
  0
LINE
  8
96
 10
-29.7826
 20
6.8930
 30
0.0000
 11
-29.5115
 21
7.1642
 31
0.0000
  0
LINE
  8
96
 10
-29.5115
 20
7.1642
 30
0.0000
 11
-28.9692
 21
7.1642
 31
0.0000
  0
LINE
  8
96
 10
-28.9692
 20
7.1642
 30
0.0000
 11
-28.6980
 21
6.8930
 31
0.0000
  0
LINE
  8
96
 10
-28.6980
 20
6.8930
 30
0.0000
 11
-28.6980
 21
5.8084
 31
0.0000
  0
LINE
  8
96
 10
-28.6980
 20
5.8084
 30
0.0000
 11
-28.9692
 21
5.5372
 31
0.0000
  0
LINE
  8
96
 10
-28.9692
 20
5.5372
 30
0.0000
 11
-29.5115
 21
5.5372
 31
0.0000
  0
LINE
  8
96
 10
-29.5115
 20
5.5372
 30
0.0000
 11
-29.7826
 21
5.8084
 31
0.0000
  0
LINE
  8
96
 10
-29.7826
 20
5.8084
 30
0.0000
 11
-28.6980
 21
6.8930
 31
0.0000
  0
LINE
  8
96
 10
-28.1455
 20
5.8084
 30
0.0000
 11
-28.1455
 21
6.8930
 31
0.0000
  0
LINE
  8
96
 10
-28.1455
 20
6.8930
 30
0.0000
 11
-27.8743
 21
7.1642
 31
0.0000
  0
LINE
  8
96
 10
-27.8743
 20
7.1642
 30
0.0000
 11
-27.3320
 21
7.1642
 31
0.0000
  0
LINE
  8
96
 10
-27.3320
 20
7.1642
 30
0.0000
 11
-27.0608
 21
6.8930
 31
0.0000
  0
LINE
  8
96
 10
-27.0608
 20
6.8930
 30
0.0000
 11
-27.0608
 21
5.8084
 31
0.0000
  0
LINE
  8
96
 10
-27.0608
 20
5.8084
 30
0.0000
 11
-27.3320
 21
5.5372
 31
0.0000
  0
LINE
  8
96
 10
-27.3320
 20
5.5372
 30
0.0000
 11
-27.8743
 21
5.5372
 31
0.0000
  0
LINE
  8
96
 10
-27.8743
 20
5.5372
 30
0.0000
 11
-28.1455
 21
5.8084
 31
0.0000
  0
LINE
  8
96
 10
-28.1455
 20
5.8084
 30
0.0000
 11
-27.0608
 21
6.8930
 31
0.0000
  0
LINE
  8
96
 10
-26.5083
 20
5.5372
 30
0.0000
 11
-26.5083
 21
6.6219
 31
0.0000
  0
LINE
  8
96
 10
-26.5083
 20
6.6219
 30
0.0000
 11
-25.6948
 21
6.6219
 31
0.0000
  0
LINE
  8
96
 10
-25.6948
 20
6.6219
 30
0.0000
 11
-25.4237
 21
6.3507
 31
0.0000
  0
LINE
  8
96
 10
-25.4237
 20
6.3507
 30
0.0000
 11
-25.4237
 21
5.5372
 31
0.0000
  0
LINE
  8
96
 10
-24.8712
 20
5.5372
 30
0.0000
 11
-24.8712
 21
7.1642
 31
0.0000
  0
LINE
  8
96
 10
-24.8712
 20
7.1642
 30
0.0000
 11
-23.7865
 21
7.1642
 31
0.0000
  0
LINE
  8
96
 10
-24.8712
 20
6.3507
 30
0.0000
 11
-24.3288
 21
6.3507
 31
0.0000
  0
LINE
  8
94
 10
-33.0200
 20
12.7000
 30
0.0000
 11
-33.0200
 21
10.1600
 31
0.0000
  0
LINE
  8
94
 10
-33.0200
 20
5.0800
 30
0.0000
 11
-33.0200
 21
7.6200
 31
0.0000
  0
INSERT
  8
94
  2
RECT
 10
-33.0200
 20
8.3820
 30
0.0000
 41
4.0640
 42
0.5080
 43
1.0000
 50
0.0000
  0
INSERT
  8
94
  2
RECT
 10
-33.0200
 20
9.3980
 30
0.0000
 41
4.0640
 42
0.5080
 43
1.0000
 50
0.0000
  0
LINE
  8
94
 10
22.8600
 20
20.3200
 30
0.0000
 11
22.8600
 21
19.8120
 31
0.0000
  0
LINE
  8
94
 10
22.8600
 20
17.7800
 30
0.0000
 11
22.8600
 21
18.2880
 31
0.0000
  0
LINE
  8
95
 10
25.5449
 20
22.1330
 30
0.0000
 11
25.2737
 21
22.4042
 31
0.0000
  0
LINE
  8
95
 10
25.2737
 20
22.4042
 30
0.0000
 11
24.7314
 21
22.4042
 31
0.0000
  0
LINE
  8
95
 10
24.7314
 20
22.4042
 30
0.0000
 11
24.4602
 21
22.1330
 31
0.0000
  0
LINE
  8
95
 10
24.4602
 20
22.1330
 30
0.0000
 11
24.4602
 21
21.0484
 31
0.0000
  0
LINE
  8
95
 10
24.4602
 20
21.0484
 30
0.0000
 11
24.7314
 21
20.7772
 31
0.0000
  0
LINE
  8
95
 10
24.7314
 20
20.7772
 30
0.0000
 11
25.2737
 21
20.7772
 31
0.0000
  0
LINE
  8
95
 10
25.2737
 20
20.7772
 30
0.0000
 11
25.5449
 21
21.0484
 31
0.0000
  0
LINE
  8
95
 10
26.9108
 20
20.7772
 30
0.0000
 11
26.9108
 21
22.4042
 31
0.0000
  0
LINE
  8
95
 10
26.9108
 20
22.4042
 30
0.0000
 11
26.0974
 21
21.5907
 31
0.0000
  0
LINE
  8
95
 10
26.0974
 20
21.5907
 30
0.0000
 11
27.1820
 21
21.5907
 31
0.0000
  0
LINE
  8
96
 10
24.4602
 20
16.7819
 30
0.0000
 11
25.0025
 21
17.3242
 31
0.0000
  0
LINE
  8
96
 10
25.0025
 20
17.3242
 30
0.0000
 11
25.0025
 21
15.6972
 31
0.0000
  0
LINE
  8
96
 10
24.4602
 20
15.6972
 30
0.0000
 11
25.5449
 21
15.6972
 31
0.0000
  0
LINE
  8
96
 10
26.0974
 20
15.9684
 30
0.0000
 11
26.0974
 21
17.0530
 31
0.0000
  0
LINE
  8
96
 10
26.0974
 20
17.0530
 30
0.0000
 11
26.3685
 21
17.3242
 31
0.0000
  0
LINE
  8
96
 10
26.3685
 20
17.3242
 30
0.0000
 11
26.9108
 21
17.3242
 31
0.0000
  0
LINE
  8
96
 10
26.9108
 20
17.3242
 30
0.0000
 11
27.1820
 21
17.0530
 31
0.0000
  0
LINE
  8
96
 10
27.1820
 20
17.0530
 30
0.0000
 11
27.1820
 21
15.9684
 31
0.0000
  0
LINE
  8
96
 10
27.1820
 20
15.9684
 30
0.0000
 11
26.9108
 21
15.6972
 31
0.0000
  0
LINE
  8
96
 10
26.9108
 20
15.6972
 30
0.0000
 11
26.3685
 21
15.6972
 31
0.0000
  0
LINE
  8
96
 10
26.3685
 20
15.6972
 30
0.0000
 11
26.0974
 21
15.9684
 31
0.0000
  0
LINE
  8
96
 10
26.0974
 20
15.9684
 30
0.0000
 11
27.1820
 21
17.0530
 31
0.0000
  0
LINE
  8
96
 10
27.7345
 20
15.9684
 30
0.0000
 11
27.7345
 21
17.0530
 31
0.0000
  0
LINE
  8
96
 10
27.7345
 20
17.0530
 30
0.0000
 11
28.0057
 21
17.3242
 31
0.0000
  0
LINE
  8
96
 10
28.0057
 20
17.3242
 30
0.0000
 11
28.5480
 21
17.3242
 31
0.0000
  0
LINE
  8
96
 10
28.5480
 20
17.3242
 30
0.0000
 11
28.8192
 21
17.0530
 31
0.0000
  0
LINE
  8
96
 10
28.8192
 20
17.0530
 30
0.0000
 11
28.8192
 21
15.9684
 31
0.0000
  0
LINE
  8
96
 10
28.8192
 20
15.9684
 30
0.0000
 11
28.5480
 21
15.6972
 31
0.0000
  0
LINE
  8
96
 10
28.5480
 20
15.6972
 30
0.0000
 11
28.0057
 21
15.6972
 31
0.0000
  0
LINE
  8
96
 10
28.0057
 20
15.6972
 30
0.0000
 11
27.7345
 21
15.9684
 31
0.0000
  0
LINE
  8
96
 10
27.7345
 20
15.9684
 30
0.0000
 11
28.8192
 21
17.0530
 31
0.0000
  0
LINE
  8
96
 10
29.3717
 20
15.6972
 30
0.0000
 11
29.3717
 21
16.7819
 31
0.0000
  0
LINE
  8
96
 10
29.3717
 20
16.7819
 30
0.0000
 11
30.1852
 21
16.7819
 31
0.0000
  0
LINE
  8
96
 10
30.1852
 20
16.7819
 30
0.0000
 11
30.4563
 21
16.5107
 31
0.0000
  0
LINE
  8
96
 10
30.4563
 20
16.5107
 30
0.0000
 11
30.4563
 21
15.6972
 31
0.0000
  0
LINE
  8
96
 10
31.0088
 20
15.6972
 30
0.0000
 11
31.0088
 21
17.3242
 31
0.0000
  0
LINE
  8
96
 10
31.0088
 20
17.3242
 30
0.0000
 11
32.0935
 21
17.3242
 31
0.0000
  0
LINE
  8
96
 10
31.0088
 20
16.5107
 30
0.0000
 11
31.5512
 21
16.5107
 31
0.0000
  0
LINE
  8
94
 10
22.8600
 20
22.8600
 30
0.0000
 11
22.8600
 21
20.3200
 31
0.0000
  0
LINE
  8
94
 10
22.8600
 20
15.2400
 30
0.0000
 11
22.8600
 21
17.7800
 31
0.0000
  0
INSERT
  8
94
  2
RECT
 10
22.8600
 20
18.5420
 30
0.0000
 41
4.0640
 42
0.5080
 43
1.0000
 50
0.0000
  0
INSERT
  8
94
  2
RECT
 10
22.8600
 20
19.5580
 30
0.0000
 41
4.0640
 42
0.5080
 43
1.0000
 50
0.0000
  0
LINE
  8
94
 10
-33.0200
 20
0.0000
 30
0.0000
 11
-33.0200
 21
-0.5080
 31
0.0000
  0
LINE
  8
94
 10
-33.0200
 20
-2.5400
 30
0.0000
 11
-33.0200
 21
-2.0320
 31
0.0000
  0
LINE
  8
95
 10
-30.3351
 20
1.8130
 30
0.0000
 11
-30.6063
 21
2.0842
 31
0.0000
  0
LINE
  8
95
 10
-30.6063
 20
2.0842
 30
0.0000
 11
-31.1486
 21
2.0842
 31
0.0000
  0
LINE
  8
95
 10
-31.1486
 20
2.0842
 30
0.0000
 11
-31.4198
 21
1.8130
 31
0.0000
  0
LINE
  8
95
 10
-31.4198
 20
1.8130
 30
0.0000
 11
-31.4198
 21
0.7284
 31
0.0000
  0
LINE
  8
95
 10
-31.4198
 20
0.7284
 30
0.0000
 11
-31.1486
 21
0.4572
 31
0.0000
  0
LINE
  8
95
 10
-31.1486
 20
0.4572
 30
0.0000
 11
-30.6063
 21
0.4572
 31
0.0000
  0
LINE
  8
95
 10
-30.6063
 20
0.4572
 30
0.0000
 11
-30.3351
 21
0.7284
 31
0.0000
  0
LINE
  8
95
 10
-28.6980
 20
2.0842
 30
0.0000
 11
-29.7826
 21
2.0842
 31
0.0000
  0
LINE
  8
95
 10
-29.7826
 20
2.0842
 30
0.0000
 11
-29.7826
 21
1.2707
 31
0.0000
  0
LINE
  8
95
 10
-29.7826
 20
1.2707
 30
0.0000
 11
-29.2403
 21
1.5419
 31
0.0000
  0
LINE
  8
95
 10
-29.2403
 20
1.5419
 30
0.0000
 11
-28.9692
 21
1.5419
 31
0.0000
  0
LINE
  8
95
 10
-28.9692
 20
1.5419
 30
0.0000
 11
-28.6980
 21
1.2707
 31
0.0000
  0
LINE
  8
95
 10
-28.6980
 20
1.2707
 30
0.0000
 11
-28.6980
 21
0.7284
 31
0.0000
  0
LINE
  8
95
 10
-28.6980
 20
0.7284
 30
0.0000
 11
-28.9692
 21
0.4572
 31
0.0000
  0
LINE
  8
95
 10
-28.9692
 20
0.4572
 30
0.0000
 11
-29.5115
 21
0.4572
 31
0.0000
  0
LINE
  8
95
 10
-29.5115
 20
0.4572
 30
0.0000
 11
-29.7826
 21
0.7284
 31
0.0000
  0
LINE
  8
96
 10
-31.4198
 20
-3.5381
 30
0.0000
 11
-30.8775
 21
-2.9958
 31
0.0000
  0
LINE
  8
96
 10
-30.8775
 20
-2.9958
 30
0.0000
 11
-30.8775
 21
-4.6228
 31
0.0000
  0
LINE
  8
96
 10
-31.4198
 20
-4.6228
 30
0.0000
 11
-30.3351
 21
-4.6228
 31
0.0000
  0
LINE
  8
96
 10
-29.7826
 20
-4.3516
 30
0.0000
 11
-29.7826
 21
-3.2670
 31
0.0000
  0
LINE
  8
96
 10
-29.7826
 20
-3.2670
 30
0.0000
 11
-29.5115
 21
-2.9958
 31
0.0000
  0
LINE
  8
96
 10
-29.5115
 20
-2.9958
 30
0.0000
 11
-28.9692
 21
-2.9958
 31
0.0000
  0
LINE
  8
96
 10
-28.9692
 20
-2.9958
 30
0.0000
 11
-28.6980
 21
-3.2670
 31
0.0000
  0
LINE
  8
96
 10
-28.6980
 20
-3.2670
 30
0.0000
 11
-28.6980
 21
-4.3516
 31
0.0000
  0
LINE
  8
96
 10
-28.6980
 20
-4.3516
 30
0.0000
 11
-28.9692
 21
-4.6228
 31
0.0000
  0
LINE
  8
96
 10
-28.9692
 20
-4.6228
 30
0.0000
 11
-29.5115
 21
-4.6228
 31
0.0000
  0
LINE
  8
96
 10
-29.5115
 20
-4.6228
 30
0.0000
 11
-29.7826
 21
-4.3516
 31
0.0000
  0
LINE
  8
96
 10
-29.7826
 20
-4.3516
 30
0.0000
 11
-28.6980
 21
-3.2670
 31
0.0000
  0
LINE
  8
96
 10
-28.1455
 20
-4.3516
 30
0.0000
 11
-28.1455
 21
-3.2670
 31
0.0000
  0
LINE
  8
96
 10
-28.1455
 20
-3.2670
 30
0.0000
 11
-27.8743
 21
-2.9958
 31
0.0000
  0
LINE
  8
96
 10
-27.8743
 20
-2.9958
 30
0.0000
 11
-27.3320
 21
-2.9958
 31
0.0000
  0
LINE
  8
96
 10
-27.3320
 20
-2.9958
 30
0.0000
 11
-27.0608
 21
-3.2670
 31
0.0000
  0
LINE
  8
96
 10
-27.0608
 20
-3.2670
 30
0.0000
 11
-27.0608
 21
-4.3516
 31
0.0000
  0
LINE
  8
96
 10
-27.0608
 20
-4.3516
 30
0.0000
 11
-27.3320
 21
-4.6228
 31
0.0000
  0
LINE
  8
96
 10
-27.3320
 20
-4.6228
 30
0.0000
 11
-27.8743
 21
-4.6228
 31
0.0000
  0
LINE
  8
96
 10
-27.8743
 20
-4.6228
 30
0.0000
 11
-28.1455
 21
-4.3516
 31
0.0000
  0
LINE
  8
96
 10
-28.1455
 20
-4.3516
 30
0.0000
 11
-27.0608
 21
-3.2670
 31
0.0000
  0
LINE
  8
96
 10
-26.5083
 20
-4.6228
 30
0.0000
 11
-26.5083
 21
-3.5381
 31
0.0000
  0
LINE
  8
96
 10
-26.5083
 20
-3.5381
 30
0.0000
 11
-25.6948
 21
-3.5381
 31
0.0000
  0
LINE
  8
96
 10
-25.6948
 20
-3.5381
 30
0.0000
 11
-25.4237
 21
-3.8093
 31
0.0000
  0
LINE
  8
96
 10
-25.4237
 20
-3.8093
 30
0.0000
 11
-25.4237
 21
-4.6228
 31
0.0000
  0
LINE
  8
96
 10
-24.8712
 20
-4.6228
 30
0.0000
 11
-24.8712
 21
-2.9958
 31
0.0000
  0
LINE
  8
96
 10
-24.8712
 20
-2.9958
 30
0.0000
 11
-23.7865
 21
-2.9958
 31
0.0000
  0
LINE
  8
96
 10
-24.8712
 20
-3.8093
 30
0.0000
 11
-24.3288
 21
-3.8093
 31
0.0000
  0
LINE
  8
94
 10
-33.0200
 20
2.5400
 30
0.0000
 11
-33.0200
 21
0.0000
 31
0.0000
  0
LINE
  8
94
 10
-33.0200
 20
-5.0800
 30
0.0000
 11
-33.0200
 21
-2.5400
 31
0.0000
  0
INSERT
  8
94
  2
RECT
 10
-33.0200
 20
-1.7780
 30
0.0000
 41
4.0640
 42
0.5080
 43
1.0000
 50
0.0000
  0
INSERT
  8
94
  2
RECT
 10
-33.0200
 20
-0.7620
 30
0.0000
 41
4.0640
 42
0.5080
 43
1.0000
 50
0.0000
  0
LINE
  8
94
 10
25.4000
 20
5.0800
 30
0.0000
 11
25.9080
 21
5.0800
 31
0.0000
  0
LINE
  8
94
 10
27.9400
 20
5.0800
 30
0.0000
 11
27.4320
 21
5.0800
 31
0.0000
  0
LINE
  8
94
 10
22.8600
 20
5.0800
 30
0.0000
 11
25.4000
 21
5.0800
 31
0.0000
  0
LINE
  8
94
 10
30.4800
 20
5.0800
 30
0.0000
 11
27.9400
 21
5.0800
 31
0.0000
  0
INSERT
  8
94
  2
RECT
 10
27.1780
 20
5.0800
 30
0.0000
 41
4.0640
 42
0.5080
 43
1.0000
 50
90.0000
  0
INSERT
  8
94
  2
RECT
 10
26.1620
 20
5.0800
 30
0.0000
 41
4.0640
 42
0.5080
 43
1.0000
 50
90.0000
  0
LINE
  8
95
 10
30.6249
 20
4.3530
 30
0.0000
 11
30.3537
 21
4.6242
 31
0.0000
  0
LINE
  8
95
 10
30.3537
 20
4.6242
 30
0.0000
 11
29.8114
 21
4.6242
 31
0.0000
  0
LINE
  8
95
 10
29.8114
 20
4.6242
 30
0.0000
 11
29.5402
 21
4.3530
 31
0.0000
  0
LINE
  8
95
 10
29.5402
 20
4.3530
 30
0.0000
 11
29.5402
 21
3.2684
 31
0.0000
  0
LINE
  8
95
 10
29.5402
 20
3.2684
 30
0.0000
 11
29.8114
 21
2.9972
 31
0.0000
  0
LINE
  8
95
 10
29.8114
 20
2.9972
 30
0.0000
 11
30.3537
 21
2.9972
 31
0.0000
  0
LINE
  8
95
 10
30.3537
 20
2.9972
 30
0.0000
 11
30.6249
 21
3.2684
 31
0.0000
  0
LINE
  8
95
 10
32.2620
 20
4.6242
 30
0.0000
 11
31.7197
 21
4.3530
 31
0.0000
  0
LINE
  8
95
 10
31.7197
 20
4.3530
 30
0.0000
 11
31.1774
 21
3.8107
 31
0.0000
  0
LINE
  8
95
 10
31.1774
 20
3.8107
 30
0.0000
 11
31.1774
 21
3.2684
 31
0.0000
  0
LINE
  8
95
 10
31.1774
 20
3.2684
 30
0.0000
 11
31.4485
 21
2.9972
 31
0.0000
  0
LINE
  8
95
 10
31.4485
 20
2.9972
 30
0.0000
 11
31.9909
 21
2.9972
 31
0.0000
  0
LINE
  8
95
 10
31.9909
 20
2.9972
 30
0.0000
 11
32.2620
 21
3.2684
 31
0.0000
  0
LINE
  8
95
 10
32.2620
 20
3.2684
 30
0.0000
 11
32.2620
 21
3.5395
 31
0.0000
  0
LINE
  8
95
 10
32.2620
 20
3.5395
 30
0.0000
 11
31.9909
 21
3.8107
 31
0.0000
  0
LINE
  8
95
 10
31.9909
 20
3.8107
 30
0.0000
 11
31.1774
 21
3.8107
 31
0.0000
  0
LINE
  8
96
 10
29.5402
 20
6.6219
 30
0.0000
 11
30.0825
 21
7.1642
 31
0.0000
  0
LINE
  8
96
 10
30.0825
 20
7.1642
 30
0.0000
 11
30.0825
 21
5.5372
 31
0.0000
  0
LINE
  8
96
 10
29.5402
 20
5.5372
 30
0.0000
 11
30.6249
 21
5.5372
 31
0.0000
  0
LINE
  8
96
 10
31.1774
 20
5.8084
 30
0.0000
 11
31.1774
 21
6.8930
 31
0.0000
  0
LINE
  8
96
 10
31.1774
 20
6.8930
 30
0.0000
 11
31.4485
 21
7.1642
 31
0.0000
  0
LINE
  8
96
 10
31.4485
 20
7.1642
 30
0.0000
 11
31.9909
 21
7.1642
 31
0.0000
  0
LINE
  8
96
 10
31.9909
 20
7.1642
 30
0.0000
 11
32.2620
 21
6.8930
 31
0.0000
  0
LINE
  8
96
 10
32.2620
 20
6.8930
 30
0.0000
 11
32.2620
 21
5.8084
 31
0.0000
  0
LINE
  8
96
 10
32.2620
 20
5.8084
 30
0.0000
 11
31.9909
 21
5.5372
 31
0.0000
  0
LINE
  8
96
 10
31.9909
 20
5.5372
 30
0.0000
 11
31.4485
 21
5.5372
 31
0.0000
  0
LINE
  8
96
 10
31.4485
 20
5.5372
 30
0.0000
 11
31.1774
 21
5.8084
 31
0.0000
  0
LINE
  8
96
 10
31.1774
 20
5.8084
 30
0.0000
 11
32.2620
 21
6.8930
 31
0.0000
  0
LINE
  8
96
 10
32.8145
 20
5.8084
 30
0.0000
 11
32.8145
 21
6.8930
 31
0.0000
  0
LINE
  8
96
 10
32.8145
 20
6.8930
 30
0.0000
 11
33.0857
 21
7.1642
 31
0.0000
  0
LINE
  8
96
 10
33.0857
 20
7.1642
 30
0.0000
 11
33.6280
 21
7.1642
 31
0.0000
  0
LINE
  8
96
 10
33.6280
 20
7.1642
 30
0.0000
 11
33.8992
 21
6.8930
 31
0.0000
  0
LINE
  8
96
 10
33.8992
 20
6.8930
 30
0.0000
 11
33.8992
 21
5.8084
 31
0.0000
  0
LINE
  8
96
 10
33.8992
 20
5.8084
 30
0.0000
 11
33.6280
 21
5.5372
 31
0.0000
  0
LINE
  8
96
 10
33.6280
 20
5.5372
 30
0.0000
 11
33.0857
 21
5.5372
 31
0.0000
  0
LINE
  8
96
 10
33.0857
 20
5.5372
 30
0.0000
 11
32.8145
 21
5.8084
 31
0.0000
  0
LINE
  8
96
 10
32.8145
 20
5.8084
 30
0.0000
 11
33.8992
 21
6.8930
 31
0.0000
  0
LINE
  8
96
 10
34.4517
 20
5.5372
 30
0.0000
 11
34.4517
 21
6.6219
 31
0.0000
  0
LINE
  8
96
 10
34.4517
 20
6.6219
 30
0.0000
 11
35.2652
 21
6.6219
 31
0.0000
  0
LINE
  8
96
 10
35.2652
 20
6.6219
 30
0.0000
 11
35.5363
 21
6.3507
 31
0.0000
  0
LINE
  8
96
 10
35.5363
 20
6.3507
 30
0.0000
 11
35.5363
 21
5.5372
 31
0.0000
  0
LINE
  8
96
 10
36.0888
 20
5.5372
 30
0.0000
 11
36.0888
 21
7.1642
 31
0.0000
  0
LINE
  8
96
 10
36.0888
 20
7.1642
 30
0.0000
 11
37.1735
 21
7.1642
 31
0.0000
  0
LINE
  8
96
 10
36.0888
 20
6.3507
 30
0.0000
 11
36.6312
 21
6.3507
 31
0.0000
  0
ARC
  8
94
 10
-19.4310
 20
48.2600
 30
0.0000
 40
0.8890
 50
90.0000
 51
270.0000
  0
ARC
  8
94
 10
-16.2560
 20
48.2600
 30
0.0000
 40
0.8890
 50
270.0000
 51
90.0000
  0
ARC
  8
94
 10
-19.4310
 20
50.8000
 30
0.0000
 40
0.8890
 50
90.0000
 51
270.0000
  0
ARC
  8
94
 10
-16.2560
 20
43.1800
 30
0.0000
 40
0.8890
 50
270.0000
 51
90.0000
  0
ARC
  8
94
 10
-19.4310
 20
45.7200
 30
0.0000
 40
0.8890
 50
90.0000
 51
270.0000
  0
ARC
  8
94
 10
-16.2560
 20
45.7200
 30
0.0000
 40
0.8890
 50
270.0000
 51
90.0000
  0
ARC
  8
94
 10
-19.4310
 20
43.1800
 30
0.0000
 40
0.8890
 50
90.0000
 51
270.0000
  0
ARC
  8
94
 10
-16.2560
 20
40.6400
 30
0.0000
 40
0.8890
 50
270.0000
 51
90.0000
  0
ARC
  8
94
 10
-19.4310
 20
40.6400
 30
0.0000
 40
0.8890
 50
90.0000
 51
270.0000
  0
ARC
  8
94
 10
-20.5738
 20
52.6511
 30
0.0000
 40
1.2702
 50
77.6714
 51
179.9955
  0
LINE
  8
94
 10
-20.3026
 20
53.8918
 30
0.0000
 11
-17.7800
 21
53.3400
 31
0.0000
  0
LINE
  8
94
 10
-17.7800
 20
53.3400
 30
0.0000
 11
-14.7146
 21
52.6694
 31
0.0000
  0
ARC
  8
94
 10
-14.9860
 20
51.4286
 30
0.0000
 40
1.2702
 50
0.0075
 51
77.6627
  0
LINE
  8
94
 10
-13.7160
 20
40.0112
 30
0.0000
 11
-13.7160
 21
51.4288
 31
0.0000
  0
ARC
  8
94
 10
-14.9860
 20
40.0113
 30
0.0000
 40
1.2700
 50
282.3393
 51
359.9972
  0
LINE
  8
94
 10
-21.8440
 20
38.7888
 30
0.0000
 11
-21.8440
 21
52.6512
 31
0.0000
  0
LINE
  8
94
 10
-20.3026
 20
37.5482
 30
0.0000
 11
-17.7800
 21
38.1000
 31
0.0000
  0
LINE
  8
94
 10
-17.7800
 20
38.1000
 30
0.0000
 11
-14.7146
 21
38.7706
 31
0.0000
  0
ARC
  8
94
 10
-20.5740
 20
38.7888
 30
0.0000
 40
1.2700
 50
180.0000
 51
282.3376
  0
LINE
  8
96
 10
-21.5138
 20
35.0012
 30
0.0000
 11
-21.5138
 21
36.6282
 31
0.0000
  0
LINE
  8
96
 10
-21.5138
 20
36.6282
 30
0.0000
 11
-20.7003
 21
36.6282
 31
0.0000
  0
LINE
  8
96
 10
-20.7003
 20
36.6282
 30
0.0000
 11
-20.4291
 21
36.3570
 31
0.0000
  0
LINE
  8
96
 10
-20.4291
 20
36.3570
 30
0.0000
 11
-20.4291
 21
35.8147
 31
0.0000
  0
LINE
  8
96
 10
-20.4291
 20
35.8147
 30
0.0000
 11
-20.7003
 21
35.5435
 31
0.0000
  0
LINE
  8
96
 10
-20.7003
 20
35.5435
 30
0.0000
 11
-21.5138
 21
35.5435
 31
0.0000
  0
LINE
  8
96
 10
-20.9715
 20
35.5435
 30
0.0000
 11
-20.4291
 21
35.0012
 31
0.0000
  0
LINE
  8
96
 10
-18.7920
 20
36.3570
 30
0.0000
 11
-19.0632
 21
36.6282
 31
0.0000
  0
LINE
  8
96
 10
-19.0632
 20
36.6282
 30
0.0000
 11
-19.6055
 21
36.6282
 31
0.0000
  0
LINE
  8
96
 10
-19.6055
 20
36.6282
 30
0.0000
 11
-19.8766
 21
36.3570
 31
0.0000
  0
LINE
  8
96
 10
-19.8766
 20
36.3570
 30
0.0000
 11
-19.8766
 21
36.0859
 31
0.0000
  0
LINE
  8
96
 10
-19.8766
 20
36.0859
 30
0.0000
 11
-19.6055
 21
35.8147
 31
0.0000
  0
LINE
  8
96
 10
-19.6055
 20
35.8147
 30
0.0000
 11
-19.0632
 21
35.8147
 31
0.0000
  0
LINE
  8
96
 10
-19.0632
 20
35.8147
 30
0.0000
 11
-18.7920
 21
35.5435
 31
0.0000
  0
LINE
  8
96
 10
-18.7920
 20
35.5435
 30
0.0000
 11
-18.7920
 21
35.2724
 31
0.0000
  0
LINE
  8
96
 10
-18.7920
 20
35.2724
 30
0.0000
 11
-19.0632
 21
35.0012
 31
0.0000
  0
LINE
  8
96
 10
-19.0632
 20
35.0012
 30
0.0000
 11
-19.6055
 21
35.0012
 31
0.0000
  0
LINE
  8
96
 10
-19.6055
 20
35.0012
 30
0.0000
 11
-19.8766
 21
35.2724
 31
0.0000
  0
LINE
  8
96
 10
-17.1548
 20
35.0012
 30
0.0000
 11
-18.2395
 21
35.0012
 31
0.0000
  0
LINE
  8
96
 10
-18.2395
 20
35.0012
 30
0.0000
 11
-17.1548
 21
36.0859
 31
0.0000
  0
LINE
  8
96
 10
-17.1548
 20
36.0859
 30
0.0000
 11
-17.1548
 21
36.3570
 31
0.0000
  0
LINE
  8
96
 10
-17.1548
 20
36.3570
 30
0.0000
 11
-17.4260
 21
36.6282
 31
0.0000
  0
LINE
  8
96
 10
-17.4260
 20
36.6282
 30
0.0000
 11
-17.9683
 21
36.6282
 31
0.0000
  0
LINE
  8
96
 10
-17.9683
 20
36.6282
 30
0.0000
 11
-18.2395
 21
36.3570
 31
0.0000
  0
LINE
  8
96
 10
-16.6023
 20
36.3570
 30
0.0000
 11
-16.3312
 21
36.6282
 31
0.0000
  0
LINE
  8
96
 10
-16.3312
 20
36.6282
 30
0.0000
 11
-15.7888
 21
36.6282
 31
0.0000
  0
LINE
  8
96
 10
-15.7888
 20
36.6282
 30
0.0000
 11
-15.5177
 21
36.3570
 31
0.0000
  0
LINE
  8
96
 10
-15.5177
 20
36.3570
 30
0.0000
 11
-15.5177
 21
36.0859
 31
0.0000
  0
LINE
  8
96
 10
-15.5177
 20
36.0859
 30
0.0000
 11
-15.7888
 21
35.8147
 31
0.0000
  0
LINE
  8
96
 10
-15.7888
 20
35.8147
 30
0.0000
 11
-16.0600
 21
35.8147
 31
0.0000
  0
LINE
  8
96
 10
-15.7888
 20
35.8147
 30
0.0000
 11
-15.5177
 21
35.5435
 31
0.0000
  0
LINE
  8
96
 10
-15.5177
 20
35.5435
 30
0.0000
 11
-15.5177
 21
35.2724
 31
0.0000
  0
LINE
  8
96
 10
-15.5177
 20
35.2724
 30
0.0000
 11
-15.7888
 21
35.0012
 31
0.0000
  0
LINE
  8
96
 10
-15.7888
 20
35.0012
 30
0.0000
 11
-16.3312
 21
35.0012
 31
0.0000
  0
LINE
  8
96
 10
-16.3312
 20
35.0012
 30
0.0000
 11
-16.6023
 21
35.2724
 31
0.0000
  0
LINE
  8
96
 10
-13.8805
 20
35.0012
 30
0.0000
 11
-14.9652
 21
35.0012
 31
0.0000
  0
LINE
  8
96
 10
-14.9652
 20
35.0012
 30
0.0000
 11
-13.8805
 21
36.0859
 31
0.0000
  0
LINE
  8
96
 10
-13.8805
 20
36.0859
 30
0.0000
 11
-13.8805
 21
36.3570
 31
0.0000
  0
LINE
  8
96
 10
-13.8805
 20
36.3570
 30
0.0000
 11
-14.1517
 21
36.6282
 31
0.0000
  0
LINE
  8
96
 10
-14.1517
 20
36.6282
 30
0.0000
 11
-14.6940
 21
36.6282
 31
0.0000
  0
LINE
  8
96
 10
-14.6940
 20
36.6282
 30
0.0000
 11
-14.9652
 21
36.3570
 31
0.0000
  0
LINE
  8
95
 10
-21.5138
 20
54.6862
 30
0.0000
 11
-21.5138
 21
56.3132
 31
0.0000
  0
LINE
  8
95
 10
-21.5138
 20
55.4997
 30
0.0000
 11
-20.4291
 21
55.4997
 31
0.0000
  0
LINE
  8
95
 10
-20.4291
 20
56.3132
 30
0.0000
 11
-20.4291
 21
54.6862
 31
0.0000
  0
LINE
  8
95
 10
-19.8766
 20
54.6862
 30
0.0000
 11
-19.8766
 21
56.3132
 31
0.0000
  0
LINE
  8
95
 10
-19.8766
 20
56.3132
 30
0.0000
 11
-19.3343
 21
55.7709
 31
0.0000
  0
LINE
  8
95
 10
-19.3343
 20
55.7709
 30
0.0000
 11
-18.7920
 21
56.3132
 31
0.0000
  0
LINE
  8
95
 10
-18.7920
 20
56.3132
 30
0.0000
 11
-18.7920
 21
54.6862
 31
0.0000
  0
LINE
  8
95
 10
-18.2395
 20
54.6862
 30
0.0000
 11
-18.2395
 21
56.3132
 31
0.0000
  0
LINE
  8
95
 10
-18.2395
 20
56.3132
 30
0.0000
 11
-17.4260
 21
56.3132
 31
0.0000
  0
LINE
  8
95
 10
-17.4260
 20
56.3132
 30
0.0000
 11
-17.1548
 21
56.0420
 31
0.0000
  0
LINE
  8
95
 10
-17.1548
 20
56.0420
 30
0.0000
 11
-17.1548
 21
55.4997
 31
0.0000
  0
LINE
  8
95
 10
-17.1548
 20
55.4997
 30
0.0000
 11
-17.4260
 21
55.2285
 31
0.0000
  0
LINE
  8
95
 10
-17.4260
 20
55.2285
 30
0.0000
 11
-18.2395
 21
55.2285
 31
0.0000
  0
LINE
  8
95
 10
-17.6972
 20
55.2285
 30
0.0000
 11
-17.1548
 21
54.6862
 31
0.0000
  0
LINE
  8
95
 10
-15.5177
 20
54.6862
 30
0.0000
 11
-16.6023
 21
54.6862
 31
0.0000
  0
LINE
  8
95
 10
-16.6023
 20
54.6862
 30
0.0000
 11
-15.5177
 21
55.7709
 31
0.0000
  0
LINE
  8
95
 10
-15.5177
 20
55.7709
 30
0.0000
 11
-15.5177
 21
56.0420
 31
0.0000
  0
LINE
  8
95
 10
-15.5177
 20
56.0420
 30
0.0000
 11
-15.7888
 21
56.3132
 31
0.0000
  0
LINE
  8
95
 10
-15.7888
 20
56.3132
 30
0.0000
 11
-16.3312
 21
56.3132
 31
0.0000
  0
LINE
  8
95
 10
-16.3312
 20
56.3132
 30
0.0000
 11
-16.6023
 21
56.0420
 31
0.0000
  0
LINE
  8
95
 10
-14.9652
 20
56.0420
 30
0.0000
 11
-14.6940
 21
56.3132
 31
0.0000
  0
LINE
  8
95
 10
-14.6940
 20
56.3132
 30
0.0000
 11
-14.1517
 21
56.3132
 31
0.0000
  0
LINE
  8
95
 10
-14.1517
 20
56.3132
 30
0.0000
 11
-13.8805
 21
56.0420
 31
0.0000
  0
LINE
  8
95
 10
-13.8805
 20
56.0420
 30
0.0000
 11
-13.8805
 21
55.7709
 31
0.0000
  0
LINE
  8
95
 10
-13.8805
 20
55.7709
 30
0.0000
 11
-14.1517
 21
55.4997
 31
0.0000
  0
LINE
  8
95
 10
-14.1517
 20
55.4997
 30
0.0000
 11
-14.4228
 21
55.4997
 31
0.0000
  0
LINE
  8
95
 10
-14.1517
 20
55.4997
 30
0.0000
 11
-13.8805
 21
55.2285
 31
0.0000
  0
LINE
  8
95
 10
-13.8805
 20
55.2285
 30
0.0000
 11
-13.8805
 21
54.9574
 31
0.0000
  0
LINE
  8
95
 10
-13.8805
 20
54.9574
 30
0.0000
 11
-14.1517
 21
54.6862
 31
0.0000
  0
LINE
  8
95
 10
-14.1517
 20
54.6862
 30
0.0000
 11
-14.6940
 21
54.6862
 31
0.0000
  0
LINE
  8
95
 10
-14.6940
 20
54.6862
 30
0.0000
 11
-14.9652
 21
54.9574
 31
0.0000
  0
LINE
  8
95
 10
-13.3280
 20
54.9574
 30
0.0000
 11
-13.3280
 21
56.0420
 31
0.0000
  0
LINE
  8
95
 10
-13.3280
 20
56.0420
 30
0.0000
 11
-13.0569
 21
56.3132
 31
0.0000
  0
LINE
  8
95
 10
-13.0569
 20
56.3132
 30
0.0000
 11
-12.5145
 21
56.3132
 31
0.0000
  0
LINE
  8
95
 10
-12.5145
 20
56.3132
 30
0.0000
 11
-12.2434
 21
56.0420
 31
0.0000
  0
LINE
  8
95
 10
-12.2434
 20
56.0420
 30
0.0000
 11
-12.2434
 21
54.9574
 31
0.0000
  0
LINE
  8
95
 10
-12.2434
 20
54.9574
 30
0.0000
 11
-12.5145
 21
54.6862
 31
0.0000
  0
LINE
  8
95
 10
-12.5145
 20
54.6862
 30
0.0000
 11
-13.0569
 21
54.6862
 31
0.0000
  0
LINE
  8
95
 10
-13.0569
 20
54.6862
 30
0.0000
 11
-13.3280
 21
54.9574
 31
0.0000
  0
LINE
  8
95
 10
-13.3280
 20
54.9574
 30
0.0000
 11
-12.2434
 21
56.0420
 31
0.0000
  0
LINE
  8
95
 10
-11.6909
 20
54.9574
 30
0.0000
 11
-11.6909
 21
56.0420
 31
0.0000
  0
LINE
  8
95
 10
-11.6909
 20
56.0420
 30
0.0000
 11
-11.4197
 21
56.3132
 31
0.0000
  0
LINE
  8
95
 10
-11.4197
 20
56.3132
 30
0.0000
 11
-10.8774
 21
56.3132
 31
0.0000
  0
LINE
  8
95
 10
-10.8774
 20
56.3132
 30
0.0000
 11
-10.6062
 21
56.0420
 31
0.0000
  0
LINE
  8
95
 10
-10.6062
 20
56.0420
 30
0.0000
 11
-10.6062
 21
54.9574
 31
0.0000
  0
LINE
  8
95
 10
-10.6062
 20
54.9574
 30
0.0000
 11
-10.8774
 21
54.6862
 31
0.0000
  0
LINE
  8
95
 10
-10.8774
 20
54.6862
 30
0.0000
 11
-11.4197
 21
54.6862
 31
0.0000
  0
LINE
  8
95
 10
-11.4197
 20
54.6862
 30
0.0000
 11
-11.6909
 21
54.9574
 31
0.0000
  0
LINE
  8
95
 10
-11.6909
 20
54.9574
 30
0.0000
 11
-10.6062
 21
56.0420
 31
0.0000
  0
LINE
  8
94
 10
-25.4000
 20
50.8000
 30
0.0000
 11
-20.3200
 21
50.8000
 31
0.0000
  0
LINE
  8
95
 10
-23.9966
 20
52.1512
 30
0.0000
 11
-23.5305
 21
52.6173
 31
0.0000
  0
LINE
  8
95
 10
-23.5305
 20
52.6173
 30
0.0000
 11
-23.5305
 21
51.2191
 31
0.0000
  0
LINE
  8
95
 10
-23.9966
 20
51.2191
 30
0.0000
 11
-23.0645
 21
51.2191
 31
0.0000
  0
LINE
  8
94
 10
-25.4000
 20
48.2600
 30
0.0000
 11
-20.3200
 21
48.2600
 31
0.0000
  0
LINE
  8
95
 10
-23.0645
 20
48.6791
 30
0.0000
 11
-23.9966
 21
48.6791
 31
0.0000
  0
LINE
  8
95
 10
-23.9966
 20
48.6791
 30
0.0000
 11
-23.0645
 21
49.6112
 31
0.0000
  0
LINE
  8
95
 10
-23.0645
 20
49.6112
 30
0.0000
 11
-23.0645
 21
49.8443
 31
0.0000
  0
LINE
  8
95
 10
-23.0645
 20
49.8443
 30
0.0000
 11
-23.2975
 21
50.0773
 31
0.0000
  0
LINE
  8
95
 10
-23.2975
 20
50.0773
 30
0.0000
 11
-23.7635
 21
50.0773
 31
0.0000
  0
LINE
  8
95
 10
-23.7635
 20
50.0773
 30
0.0000
 11
-23.9966
 21
49.8443
 31
0.0000
  0
LINE
  8
94
 10
-25.4000
 20
45.7200
 30
0.0000
 11
-20.3200
 21
45.7200
 31
0.0000
  0
LINE
  8
95
 10
-23.9966
 20
47.3043
 30
0.0000
 11
-23.7635
 21
47.5373
 31
0.0000
  0
LINE
  8
95
 10
-23.7635
 20
47.5373
 30
0.0000
 11
-23.2975
 21
47.5373
 31
0.0000
  0
LINE
  8
95
 10
-23.2975
 20
47.5373
 30
0.0000
 11
-23.0645
 21
47.3043
 31
0.0000
  0
LINE
  8
95
 10
-23.0645
 20
47.3043
 30
0.0000
 11
-23.0645
 21
47.0712
 31
0.0000
  0
LINE
  8
95
 10
-23.0645
 20
47.0712
 30
0.0000
 11
-23.2975
 21
46.8382
 31
0.0000
  0
LINE
  8
95
 10
-23.2975
 20
46.8382
 30
0.0000
 11
-23.5305
 21
46.8382
 31
0.0000
  0
LINE
  8
95
 10
-23.2975
 20
46.8382
 30
0.0000
 11
-23.0645
 21
46.6052
 31
0.0000
  0
LINE
  8
95
 10
-23.0645
 20
46.6052
 30
0.0000
 11
-23.0645
 21
46.3721
 31
0.0000
  0
LINE
  8
95
 10
-23.0645
 20
46.3721
 30
0.0000
 11
-23.2975
 21
46.1391
 31
0.0000
  0
LINE
  8
95
 10
-23.2975
 20
46.1391
 30
0.0000
 11
-23.7635
 21
46.1391
 31
0.0000
  0
LINE
  8
95
 10
-23.7635
 20
46.1391
 30
0.0000
 11
-23.9966
 21
46.3721
 31
0.0000
  0
LINE
  8
94
 10
-25.4000
 20
43.1800
 30
0.0000
 11
-20.3200
 21
43.1800
 31
0.0000
  0
LINE
  8
95
 10
-23.2975
 20
43.5991
 30
0.0000
 11
-23.2975
 21
44.9973
 31
0.0000
  0
LINE
  8
95
 10
-23.2975
 20
44.9973
 30
0.0000
 11
-23.9966
 21
44.2982
 31
0.0000
  0
LINE
  8
95
 10
-23.9966
 20
44.2982
 30
0.0000
 11
-23.0645
 21
44.2982
 31
0.0000
  0
LINE
  8
94
 10
-25.4000
 20
40.6400
 30
0.0000
 11
-20.3200
 21
40.6400
 31
0.0000
  0
LINE
  8
95
 10
-23.0645
 20
42.4573
 30
0.0000
 11
-23.9966
 21
42.4573
 31
0.0000
  0
LINE
  8
95
 10
-23.9966
 20
42.4573
 30
0.0000
 11
-23.9966
 21
41.7582
 31
0.0000
  0
LINE
  8
95
 10
-23.9966
 20
41.7582
 30
0.0000
 11
-23.5305
 21
41.9912
 31
0.0000
  0
LINE
  8
95
 10
-23.5305
 20
41.9912
 30
0.0000
 11
-23.2975
 21
41.9912
 31
0.0000
  0
LINE
  8
95
 10
-23.2975
 20
41.9912
 30
0.0000
 11
-23.0645
 21
41.7582
 31
0.0000
  0
LINE
  8
95
 10
-23.0645
 20
41.7582
 30
0.0000
 11
-23.0645
 21
41.2921
 31
0.0000
  0
LINE
  8
95
 10
-23.0645
 20
41.2921
 30
0.0000
 11
-23.2975
 21
41.0591
 31
0.0000
  0
LINE
  8
95
 10
-23.2975
 20
41.0591
 30
0.0000
 11
-23.7635
 21
41.0591
 31
0.0000
  0
LINE
  8
95
 10
-23.7635
 20
41.0591
 30
0.0000
 11
-23.9966
 21
41.2921
 31
0.0000
  0
LINE
  8
94
 10
-10.1600
 20
48.2600
 30
0.0000
 11
-15.2400
 21
48.2600
 31
0.0000
  0
LINE
  8
95
 10
-11.9076
 20
50.0773
 30
0.0000
 11
-12.3736
 21
49.8443
 31
0.0000
  0
LINE
  8
95
 10
-12.3736
 20
49.8443
 30
0.0000
 11
-12.8397
 21
49.3782
 31
0.0000
  0
LINE
  8
95
 10
-12.8397
 20
49.3782
 30
0.0000
 11
-12.8397
 21
48.9121
 31
0.0000
  0
LINE
  8
95
 10
-12.8397
 20
48.9121
 30
0.0000
 11
-12.6067
 21
48.6791
 31
0.0000
  0
LINE
  8
95
 10
-12.6067
 20
48.6791
 30
0.0000
 11
-12.1406
 21
48.6791
 31
0.0000
  0
LINE
  8
95
 10
-12.1406
 20
48.6791
 30
0.0000
 11
-11.9076
 21
48.9121
 31
0.0000
  0
LINE
  8
95
 10
-11.9076
 20
48.9121
 30
0.0000
 11
-11.9076
 21
49.1452
 31
0.0000
  0
LINE
  8
95
 10
-11.9076
 20
49.1452
 30
0.0000
 11
-12.1406
 21
49.3782
 31
0.0000
  0
LINE
  8
95
 10
-12.1406
 20
49.3782
 30
0.0000
 11
-12.8397
 21
49.3782
 31
0.0000
  0
LINE
  8
94
 10
-10.1600
 20
45.7200
 30
0.0000
 11
-15.2400
 21
45.7200
 31
0.0000
  0
LINE
  8
95
 10
-12.8397
 20
47.5373
 30
0.0000
 11
-11.9076
 21
47.5373
 31
0.0000
  0
LINE
  8
95
 10
-11.9076
 20
47.5373
 30
0.0000
 11
-11.9076
 21
47.3043
 31
0.0000
  0
LINE
  8
95
 10
-11.9076
 20
47.3043
 30
0.0000
 11
-12.8397
 21
46.3721
 31
0.0000
  0
LINE
  8
95
 10
-12.8397
 20
46.3721
 30
0.0000
 11
-12.8397
 21
46.1391
 31
0.0000
  0
LINE
  8
94
 10
-10.1600
 20
43.1800
 30
0.0000
 11
-15.2400
 21
43.1800
 31
0.0000
  0
LINE
  8
95
 10
-12.8397
 20
44.7643
 30
0.0000
 11
-12.6067
 21
44.9973
 31
0.0000
  0
LINE
  8
95
 10
-12.6067
 20
44.9973
 30
0.0000
 11
-12.1406
 21
44.9973
 31
0.0000
  0
LINE
  8
95
 10
-12.1406
 20
44.9973
 30
0.0000
 11
-11.9076
 21
44.7643
 31
0.0000
  0
LINE
  8
95
 10
-11.9076
 20
44.7643
 30
0.0000
 11
-11.9076
 21
44.5312
 31
0.0000
  0
LINE
  8
95
 10
-11.9076
 20
44.5312
 30
0.0000
 11
-12.1406
 21
44.2982
 31
0.0000
  0
LINE
  8
95
 10
-12.1406
 20
44.2982
 30
0.0000
 11
-11.9076
 21
44.0652
 31
0.0000
  0
LINE
  8
95
 10
-11.9076
 20
44.0652
 30
0.0000
 11
-11.9076
 21
43.8321
 31
0.0000
  0
LINE
  8
95
 10
-11.9076
 20
43.8321
 30
0.0000
 11
-12.1406
 21
43.5991
 31
0.0000
  0
LINE
  8
95
 10
-12.1406
 20
43.5991
 30
0.0000
 11
-12.6067
 21
43.5991
 31
0.0000
  0
LINE
  8
95
 10
-12.6067
 20
43.5991
 30
0.0000
 11
-12.8397
 21
43.8321
 31
0.0000
  0
LINE
  8
95
 10
-12.8397
 20
43.8321
 30
0.0000
 11
-12.8397
 21
44.0652
 31
0.0000
  0
LINE
  8
95
 10
-12.8397
 20
44.0652
 30
0.0000
 11
-12.6067
 21
44.2982
 31
0.0000
  0
LINE
  8
95
 10
-12.6067
 20
44.2982
 30
0.0000
 11
-12.8397
 21
44.5312
 31
0.0000
  0
LINE
  8
95
 10
-12.8397
 20
44.5312
 30
0.0000
 11
-12.8397
 21
44.7643
 31
0.0000
  0
LINE
  8
95
 10
-12.6067
 20
44.2982
 30
0.0000
 11
-12.1406
 21
44.2982
 31
0.0000
  0
LINE
  8
94
 10
-10.1600
 20
40.6400
 30
0.0000
 11
-15.2400
 21
40.6400
 31
0.0000
  0
LINE
  8
95
 10
-12.8397
 20
41.2921
 30
0.0000
 11
-12.6067
 21
41.0591
 31
0.0000
  0
LINE
  8
95
 10
-12.6067
 20
41.0591
 30
0.0000
 11
-12.1406
 21
41.0591
 31
0.0000
  0
LINE
  8
95
 10
-12.1406
 20
41.0591
 30
0.0000
 11
-11.9076
 21
41.2921
 31
0.0000
  0
LINE
  8
95
 10
-11.9076
 20
41.2921
 30
0.0000
 11
-11.9076
 21
42.2243
 31
0.0000
  0
LINE
  8
95
 10
-11.9076
 20
42.2243
 30
0.0000
 11
-12.1406
 21
42.4573
 31
0.0000
  0
LINE
  8
95
 10
-12.1406
 20
42.4573
 30
0.0000
 11
-12.6067
 21
42.4573
 31
0.0000
  0
LINE
  8
95
 10
-12.6067
 20
42.4573
 30
0.0000
 11
-12.8397
 21
42.2243
 31
0.0000
  0
LINE
  8
95
 10
-12.8397
 20
42.2243
 30
0.0000
 11
-12.8397
 21
41.9912
 31
0.0000
  0
LINE
  8
95
 10
-12.8397
 20
41.9912
 30
0.0000
 11
-12.6067
 21
41.7582
 31
0.0000
  0
LINE
  8
95
 10
-12.6067
 20
41.7582
 30
0.0000
 11
-11.9076
 21
41.7582
 31
0.0000
  0
LINE
  8
94
 10
19.0500
 20
53.3400
 30
0.0000
 11
25.4000
 21
53.3400
 31
0.0000
  0
LINE
  8
94
 10
21.5900
 20
45.7200
 30
0.0000
 11
20.3200
 21
45.7200
 31
0.0000
  0
LINE
  8
94
 10
21.5900
 20
48.2600
 30
0.0000
 11
20.3200
 21
48.2600
 31
0.0000
  0
LINE
  8
94
 10
21.5900
 20
50.8000
 30
0.0000
 11
20.3200
 21
50.8000
 31
0.0000
  0
LINE
  8
94
 10
25.4000
 20
35.5600
 30
0.0000
 11
25.4000
 21
53.3400
 31
0.0000
  0
LINE
  8
94
 10
19.0500
 20
53.3400
 30
0.0000
 11
19.0500
 21
35.5600
 31
0.0000
  0
LINE
  8
94
 10
25.4000
 20
35.5600
 30
0.0000
 11
19.0500
 21
35.5600
 31
0.0000
  0
LINE
  8
94
 10
21.5900
 20
40.6400
 30
0.0000
 11
20.3200
 21
40.6400
 31
0.0000
  0
LINE
  8
94
 10
21.5900
 20
43.1800
 30
0.0000
 11
20.3200
 21
43.1800
 31
0.0000
  0
LINE
  8
94
 10
21.5900
 20
38.1000
 30
0.0000
 11
20.3200
 21
38.1000
 31
0.0000
  0
LINE
  8
96
 10
10.7418
 20
54.1782
 30
0.0000
 11
10.7418
 21
55.8052
 31
0.0000
  0
LINE
  8
96
 10
10.7418
 20
55.8052
 30
0.0000
 11
11.5553
 21
55.8052
 31
0.0000
  0
LINE
  8
96
 10
11.5553
 20
55.8052
 30
0.0000
 11
11.8264
 21
55.5340
 31
0.0000
  0
LINE
  8
96
 10
11.8264
 20
55.5340
 30
0.0000
 11
11.8264
 21
54.9917
 31
0.0000
  0
LINE
  8
96
 10
11.8264
 20
54.9917
 30
0.0000
 11
11.5553
 21
54.7205
 31
0.0000
  0
LINE
  8
96
 10
11.5553
 20
54.7205
 30
0.0000
 11
10.7418
 21
54.7205
 31
0.0000
  0
LINE
  8
96
 10
11.2841
 20
54.7205
 30
0.0000
 11
11.8264
 21
54.1782
 31
0.0000
  0
LINE
  8
96
 10
12.3789
 20
54.4494
 30
0.0000
 11
12.6501
 21
54.1782
 31
0.0000
  0
LINE
  8
96
 10
12.6501
 20
54.1782
 30
0.0000
 11
12.9213
 21
54.1782
 31
0.0000
  0
LINE
  8
96
 10
12.9213
 20
54.1782
 30
0.0000
 11
13.1924
 21
54.4494
 31
0.0000
  0
LINE
  8
96
 10
13.1924
 20
54.4494
 30
0.0000
 11
13.1924
 21
55.8052
 31
0.0000
  0
LINE
  8
96
 10
12.9213
 20
55.8052
 30
0.0000
 11
13.4636
 21
55.8052
 31
0.0000
  0
LINE
  8
96
 10
14.0161
 20
55.2629
 30
0.0000
 11
14.5584
 21
55.8052
 31
0.0000
  0
LINE
  8
96
 10
14.5584
 20
55.8052
 30
0.0000
 11
14.5584
 21
54.1782
 31
0.0000
  0
LINE
  8
96
 10
14.0161
 20
54.1782
 30
0.0000
 11
15.1007
 21
54.1782
 31
0.0000
  0
LINE
  8
96
 10
15.6532
 20
55.2629
 30
0.0000
 11
16.1956
 21
55.8052
 31
0.0000
  0
LINE
  8
96
 10
16.1956
 20
55.8052
 30
0.0000
 11
16.1956
 21
54.1782
 31
0.0000
  0
LINE
  8
96
 10
15.6532
 20
54.1782
 30
0.0000
 11
16.7379
 21
54.1782
 31
0.0000
  0
LINE
  8
96
 10
17.2904
 20
54.9917
 30
0.0000
 11
18.3751
 21
54.9917
 31
0.0000
  0
LINE
  8
96
 10
20.0122
 20
55.8052
 30
0.0000
 11
19.4699
 21
55.5340
 31
0.0000
  0
LINE
  8
96
 10
19.4699
 20
55.5340
 30
0.0000
 11
18.9276
 21
54.9917
 31
0.0000
  0
LINE
  8
96
 10
18.9276
 20
54.9917
 30
0.0000
 11
18.9276
 21
54.4494
 31
0.0000
  0
LINE
  8
96
 10
18.9276
 20
54.4494
 30
0.0000
 11
19.1987
 21
54.1782
 31
0.0000
  0
LINE
  8
96
 10
19.1987
 20
54.1782
 30
0.0000
 11
19.7410
 21
54.1782
 31
0.0000
  0
LINE
  8
96
 10
19.7410
 20
54.1782
 30
0.0000
 11
20.0122
 21
54.4494
 31
0.0000
  0
LINE
  8
96
 10
20.0122
 20
54.4494
 30
0.0000
 11
20.0122
 21
54.7205
 31
0.0000
  0
LINE
  8
96
 10
20.0122
 20
54.7205
 30
0.0000
 11
19.7410
 21
54.9917
 31
0.0000
  0
LINE
  8
96
 10
19.7410
 20
54.9917
 30
0.0000
 11
18.9276
 21
54.9917
 31
0.0000
  0
LINE
  8
96
 10
20.5647
 20
54.1782
 30
0.0000
 11
20.5647
 21
55.8052
 31
0.0000
  0
LINE
  8
96
 10
20.5647
 20
55.8052
 30
0.0000
 11
21.3782
 21
55.8052
 31
0.0000
  0
LINE
  8
96
 10
21.3782
 20
55.8052
 30
0.0000
 11
21.6494
 21
55.5340
 31
0.0000
  0
LINE
  8
96
 10
21.6494
 20
55.5340
 30
0.0000
 11
21.6494
 21
54.9917
 31
0.0000
  0
LINE
  8
96
 10
21.6494
 20
54.9917
 30
0.0000
 11
21.3782
 21
54.7205
 31
0.0000
  0
LINE
  8
96
 10
21.3782
 20
54.7205
 30
0.0000
 11
20.5647
 21
54.7205
 31
0.0000
  0
LINE
  8
96
 10
22.7442
 20
54.1782
 30
0.0000
 11
22.7442
 21
55.8052
 31
0.0000
  0
LINE
  8
96
 10
22.2019
 20
55.8052
 30
0.0000
 11
23.2865
 21
55.8052
 31
0.0000
  0
LINE
  8
96
 10
23.8390
 20
54.1782
 30
0.0000
 11
23.8390
 21
55.8052
 31
0.0000
  0
LINE
  8
96
 10
23.8390
 20
54.9917
 30
0.0000
 11
24.9237
 21
54.9917
 31
0.0000
  0
LINE
  8
96
 10
24.9237
 20
55.8052
 30
0.0000
 11
24.9237
 21
54.1782
 31
0.0000
  0
LINE
  8
95
 10
22.2019
 20
33.3674
 30
0.0000
 11
22.4730
 21
33.0962
 31
0.0000
  0
LINE
  8
95
 10
22.4730
 20
33.0962
 30
0.0000
 11
22.7442
 21
33.0962
 31
0.0000
  0
LINE
  8
95
 10
22.7442
 20
33.0962
 30
0.0000
 11
23.0154
 21
33.3674
 31
0.0000
  0
LINE
  8
95
 10
23.0154
 20
33.3674
 30
0.0000
 11
23.0154
 21
34.7232
 31
0.0000
  0
LINE
  8
95
 10
22.7442
 20
34.7232
 30
0.0000
 11
23.2865
 21
34.7232
 31
0.0000
  0
LINE
  8
95
 10
23.8390
 20
34.1809
 30
0.0000
 11
24.3814
 21
34.7232
 31
0.0000
  0
LINE
  8
95
 10
24.3814
 20
34.7232
 30
0.0000
 11
24.3814
 21
33.0962
 31
0.0000
  0
LINE
  8
95
 10
23.8390
 20
33.0962
 30
0.0000
 11
24.9237
 21
33.0962
 31
0.0000
  0
LINE
  8
94
 10
15.2400
 20
50.8000
 30
0.0000
 11
20.3200
 21
50.8000
 31
0.0000
  0
LINE
  8
95
 10
16.6434
 20
52.1512
 30
0.0000
 11
17.1095
 21
52.6173
 31
0.0000
  0
LINE
  8
95
 10
17.1095
 20
52.6173
 30
0.0000
 11
17.1095
 21
51.2191
 31
0.0000
  0
LINE
  8
95
 10
16.6434
 20
51.2191
 30
0.0000
 11
17.5755
 21
51.2191
 31
0.0000
  0
LINE
  8
94
 10
15.2400
 20
48.2600
 30
0.0000
 11
20.3200
 21
48.2600
 31
0.0000
  0
LINE
  8
95
 10
17.5755
 20
48.6791
 30
0.0000
 11
16.6434
 21
48.6791
 31
0.0000
  0
LINE
  8
95
 10
16.6434
 20
48.6791
 30
0.0000
 11
17.5755
 21
49.6112
 31
0.0000
  0
LINE
  8
95
 10
17.5755
 20
49.6112
 30
0.0000
 11
17.5755
 21
49.8443
 31
0.0000
  0
LINE
  8
95
 10
17.5755
 20
49.8443
 30
0.0000
 11
17.3425
 21
50.0773
 31
0.0000
  0
LINE
  8
95
 10
17.3425
 20
50.0773
 30
0.0000
 11
16.8765
 21
50.0773
 31
0.0000
  0
LINE
  8
95
 10
16.8765
 20
50.0773
 30
0.0000
 11
16.6434
 21
49.8443
 31
0.0000
  0
LINE
  8
94
 10
15.2400
 20
45.7200
 30
0.0000
 11
20.3200
 21
45.7200
 31
0.0000
  0
LINE
  8
95
 10
16.6434
 20
47.3043
 30
0.0000
 11
16.8765
 21
47.5373
 31
0.0000
  0
LINE
  8
95
 10
16.8765
 20
47.5373
 30
0.0000
 11
17.3425
 21
47.5373
 31
0.0000
  0
LINE
  8
95
 10
17.3425
 20
47.5373
 30
0.0000
 11
17.5755
 21
47.3043
 31
0.0000
  0
LINE
  8
95
 10
17.5755
 20
47.3043
 30
0.0000
 11
17.5755
 21
47.0712
 31
0.0000
  0
LINE
  8
95
 10
17.5755
 20
47.0712
 30
0.0000
 11
17.3425
 21
46.8382
 31
0.0000
  0
LINE
  8
95
 10
17.3425
 20
46.8382
 30
0.0000
 11
17.1095
 21
46.8382
 31
0.0000
  0
LINE
  8
95
 10
17.3425
 20
46.8382
 30
0.0000
 11
17.5755
 21
46.6052
 31
0.0000
  0
LINE
  8
95
 10
17.5755
 20
46.6052
 30
0.0000
 11
17.5755
 21
46.3721
 31
0.0000
  0
LINE
  8
95
 10
17.5755
 20
46.3721
 30
0.0000
 11
17.3425
 21
46.1391
 31
0.0000
  0
LINE
  8
95
 10
17.3425
 20
46.1391
 30
0.0000
 11
16.8765
 21
46.1391
 31
0.0000
  0
LINE
  8
95
 10
16.8765
 20
46.1391
 30
0.0000
 11
16.6434
 21
46.3721
 31
0.0000
  0
LINE
  8
94
 10
15.2400
 20
43.1800
 30
0.0000
 11
20.3200
 21
43.1800
 31
0.0000
  0
LINE
  8
95
 10
17.3425
 20
43.5991
 30
0.0000
 11
17.3425
 21
44.9973
 31
0.0000
  0
LINE
  8
95
 10
17.3425
 20
44.9973
 30
0.0000
 11
16.6434
 21
44.2982
 31
0.0000
  0
LINE
  8
95
 10
16.6434
 20
44.2982
 30
0.0000
 11
17.5755
 21
44.2982
 31
0.0000
  0
LINE
  8
94
 10
15.2400
 20
40.6400
 30
0.0000
 11
20.3200
 21
40.6400
 31
0.0000
  0
LINE
  8
95
 10
17.5755
 20
42.4573
 30
0.0000
 11
16.6434
 21
42.4573
 31
0.0000
  0
LINE
  8
95
 10
16.6434
 20
42.4573
 30
0.0000
 11
16.6434
 21
41.7582
 31
0.0000
  0
LINE
  8
95
 10
16.6434
 20
41.7582
 30
0.0000
 11
17.1095
 21
41.9912
 31
0.0000
  0
LINE
  8
95
 10
17.1095
 20
41.9912
 30
0.0000
 11
17.3425
 21
41.9912
 31
0.0000
  0
LINE
  8
95
 10
17.3425
 20
41.9912
 30
0.0000
 11
17.5755
 21
41.7582
 31
0.0000
  0
LINE
  8
95
 10
17.5755
 20
41.7582
 30
0.0000
 11
17.5755
 21
41.2921
 31
0.0000
  0
LINE
  8
95
 10
17.5755
 20
41.2921
 30
0.0000
 11
17.3425
 21
41.0591
 31
0.0000
  0
LINE
  8
95
 10
17.3425
 20
41.0591
 30
0.0000
 11
16.8765
 21
41.0591
 31
0.0000
  0
LINE
  8
95
 10
16.8765
 20
41.0591
 30
0.0000
 11
16.6434
 21
41.2921
 31
0.0000
  0
LINE
  8
94
 10
15.2400
 20
38.1000
 30
0.0000
 11
20.3200
 21
38.1000
 31
0.0000
  0
LINE
  8
95
 10
17.5755
 20
39.9173
 30
0.0000
 11
17.1095
 21
39.6843
 31
0.0000
  0
LINE
  8
95
 10
17.1095
 20
39.6843
 30
0.0000
 11
16.6434
 21
39.2182
 31
0.0000
  0
LINE
  8
95
 10
16.6434
 20
39.2182
 30
0.0000
 11
16.6434
 21
38.7521
 31
0.0000
  0
LINE
  8
95
 10
16.6434
 20
38.7521
 30
0.0000
 11
16.8765
 21
38.5191
 31
0.0000
  0
LINE
  8
95
 10
16.8765
 20
38.5191
 30
0.0000
 11
17.3425
 21
38.5191
 31
0.0000
  0
LINE
  8
95
 10
17.3425
 20
38.5191
 30
0.0000
 11
17.5755
 21
38.7521
 31
0.0000
  0
LINE
  8
95
 10
17.5755
 20
38.7521
 30
0.0000
 11
17.5755
 21
38.9852
 31
0.0000
  0
LINE
  8
95
 10
17.5755
 20
38.9852
 30
0.0000
 11
17.3425
 21
39.2182
 31
0.0000
  0
LINE
  8
95
 10
17.3425
 20
39.2182
 30
0.0000
 11
16.6434
 21
39.2182
 31
0.0000
  0
LINE
  8
94
 10
-27.9400
 20
27.9400
 30
0.0000
 11
-27.5590
 21
28.9560
 31
0.0000
  0
LINE
  8
94
 10
-27.5590
 20
28.9560
 30
0.0000
 11
-26.9240
 21
26.9240
 31
0.0000
  0
LINE
  8
94
 10
-26.9240
 20
26.9240
 30
0.0000
 11
-26.2890
 21
28.9560
 31
0.0000
  0
LINE
  8
94
 10
-26.2890
 20
28.9560
 30
0.0000
 11
-25.6540
 21
26.9240
 31
0.0000
  0
LINE
  8
94
 10
-25.6540
 20
26.9240
 30
0.0000
 11
-25.0190
 21
28.9560
 31
0.0000
  0
LINE
  8
94
 10
-25.0190
 20
28.9560
 30
0.0000
 11
-24.3840
 21
26.9240
 31
0.0000
  0
LINE
  8
94
 10
-24.3840
 20
26.9240
 30
0.0000
 11
-23.7490
 21
28.9560
 31
0.0000
  0
LINE
  8
94
 10
-23.7490
 20
28.9560
 30
0.0000
 11
-23.1140
 21
26.9240
 31
0.0000
  0
LINE
  8
94
 10
-23.1140
 20
26.9240
 30
0.0000
 11
-22.8600
 21
27.9400
 31
0.0000
  0
LINE
  8
95
 10
-29.1338
 20
29.5148
 30
0.0000
 11
-29.1338
 21
31.1418
 31
0.0000
  0
LINE
  8
95
 10
-29.1338
 20
31.1418
 30
0.0000
 11
-28.3203
 21
31.1418
 31
0.0000
  0
LINE
  8
95
 10
-28.3203
 20
31.1418
 30
0.0000
 11
-28.0491
 21
30.8706
 31
0.0000
  0
LINE
  8
95
 10
-28.0491
 20
30.8706
 30
0.0000
 11
-28.0491
 21
30.3283
 31
0.0000
  0
LINE
  8
95
 10
-28.0491
 20
30.3283
 30
0.0000
 11
-28.3203
 21
30.0571
 31
0.0000
  0
LINE
  8
95
 10
-28.3203
 20
30.0571
 30
0.0000
 11
-29.1338
 21
30.0571
 31
0.0000
  0
LINE
  8
95
 10
-28.5915
 20
30.0571
 30
0.0000
 11
-28.0491
 21
29.5148
 31
0.0000
  0
LINE
  8
95
 10
-27.4966
 20
30.5995
 30
0.0000
 11
-26.9543
 21
31.1418
 31
0.0000
  0
LINE
  8
95
 10
-26.9543
 20
31.1418
 30
0.0000
 11
-26.9543
 21
29.5148
 31
0.0000
  0
LINE
  8
95
 10
-27.4966
 20
29.5148
 30
0.0000
 11
-26.4120
 21
29.5148
 31
0.0000
  0
LINE
  8
96
 10
-29.1338
 20
25.7989
 30
0.0000
 11
-28.5915
 21
26.3412
 31
0.0000
  0
LINE
  8
96
 10
-28.5915
 20
26.3412
 30
0.0000
 11
-28.5915
 21
24.7142
 31
0.0000
  0
LINE
  8
96
 10
-29.1338
 20
24.7142
 30
0.0000
 11
-28.0491
 21
24.7142
 31
0.0000
  0
LINE
  8
96
 10
-27.4966
 20
26.3412
 30
0.0000
 11
-27.4966
 21
24.7142
 31
0.0000
  0
LINE
  8
96
 10
-27.4966
 20
25.2565
 30
0.0000
 11
-26.4120
 21
26.3412
 31
0.0000
  0
LINE
  8
96
 10
-27.2255
 20
25.5277
 30
0.0000
 11
-26.4120
 21
24.7142
 31
0.0000
  0
LINE
  8
94
 10
-30.4800
 20
27.9400
 30
0.0000
 11
-27.9400
 21
27.9400
 31
0.0000
  0
LINE
  8
94
 10
-20.3200
 20
27.9400
 30
0.0000
 11
-22.8600
 21
27.9400
 31
0.0000
  0
LINE
  8
94
 10
-12.7000
 20
15.2400
 30
0.0000
 11
12.7000
 21
15.2400
 31
0.0000
  0
LINE
  8
94
 10
12.7000
 20
-17.7800
 30
0.0000
 11
12.7000
 21
15.2400
 31
0.0000
  0
LINE
  8
94
 10
12.7000
 20
-17.7800
 30
0.0000
 11
-12.7000
 21
-17.7800
 31
0.0000
  0
LINE
  8
94
 10
-12.7000
 20
15.2400
 30
0.0000
 11
-12.7000
 21
-17.7800
 31
0.0000
  0
LINE
  8
94
 10
-17.7800
 20
12.7000
 30
0.0000
 11
-12.7000
 21
12.7000
 31
0.0000
  0
LINE
  8
95
 10
-9.3676
 20
13.1667
 30
0.0000
 11
-9.6006
 21
13.3997
 31
0.0000
  0
LINE
  8
95
 10
-9.6006
 20
13.3997
 30
0.0000
 11
-10.0667
 21
13.3997
 31
0.0000
  0
LINE
  8
95
 10
-10.0667
 20
13.3997
 30
0.0000
 11
-10.2997
 21
13.1667
 31
0.0000
  0
LINE
  8
95
 10
-10.2997
 20
13.1667
 30
0.0000
 11
-10.2997
 21
12.2345
 31
0.0000
  0
LINE
  8
95
 10
-10.2997
 20
12.2345
 30
0.0000
 11
-10.0667
 21
12.0015
 31
0.0000
  0
LINE
  8
95
 10
-10.0667
 20
12.0015
 30
0.0000
 11
-9.6006
 21
12.0015
 31
0.0000
  0
LINE
  8
95
 10
-9.6006
 20
12.0015
 30
0.0000
 11
-9.3676
 21
12.2345
 31
0.0000
  0
LINE
  8
95
 10
-8.8964
 20
12.9336
 30
0.0000
 11
-8.4304
 21
13.3997
 31
0.0000
  0
LINE
  8
95
 10
-8.4304
 20
13.3997
 30
0.0000
 11
-8.4304
 21
12.0015
 31
0.0000
  0
LINE
  8
95
 10
-8.8964
 20
12.0015
 30
0.0000
 11
-7.9643
 21
12.0015
 31
0.0000
  0
LINE
  8
95
 10
-7.4931
 20
12.7006
 30
0.0000
 11
-6.5610
 21
12.7006
 31
0.0000
  0
LINE
  8
95
 10
-7.0271
 20
13.1667
 30
0.0000
 11
-7.0271
 21
12.2345
 31
0.0000
  0
LINE
  8
95
 10
-16.3766
 20
14.0512
 30
0.0000
 11
-15.9105
 21
14.5173
 31
0.0000
  0
LINE
  8
95
 10
-15.9105
 20
14.5173
 30
0.0000
 11
-15.9105
 21
13.1191
 31
0.0000
  0
LINE
  8
95
 10
-16.3766
 20
13.1191
 30
0.0000
 11
-15.4445
 21
13.1191
 31
0.0000
  0
LINE
  8
94
 10
-17.7800
 20
7.6200
 30
0.0000
 11
-12.7000
 21
7.6200
 31
0.0000
  0
LINE
  8
95
 10
-9.3676
 20
8.0867
 30
0.0000
 11
-9.6006
 21
8.3197
 31
0.0000
  0
LINE
  8
95
 10
-9.6006
 20
8.3197
 30
0.0000
 11
-10.0667
 21
8.3197
 31
0.0000
  0
LINE
  8
95
 10
-10.0667
 20
8.3197
 30
0.0000
 11
-10.2997
 21
8.0867
 31
0.0000
  0
LINE
  8
95
 10
-10.2997
 20
8.0867
 30
0.0000
 11
-10.2997
 21
7.1545
 31
0.0000
  0
LINE
  8
95
 10
-10.2997
 20
7.1545
 30
0.0000
 11
-10.0667
 21
6.9215
 31
0.0000
  0
LINE
  8
95
 10
-10.0667
 20
6.9215
 30
0.0000
 11
-9.6006
 21
6.9215
 31
0.0000
  0
LINE
  8
95
 10
-9.6006
 20
6.9215
 30
0.0000
 11
-9.3676
 21
7.1545
 31
0.0000
  0
LINE
  8
95
 10
-8.8964
 20
7.8536
 30
0.0000
 11
-8.4304
 21
8.3197
 31
0.0000
  0
LINE
  8
95
 10
-8.4304
 20
8.3197
 30
0.0000
 11
-8.4304
 21
6.9215
 31
0.0000
  0
LINE
  8
95
 10
-8.8964
 20
6.9215
 30
0.0000
 11
-7.9643
 21
6.9215
 31
0.0000
  0
LINE
  8
95
 10
-7.4931
 20
7.6206
 30
0.0000
 11
-6.5610
 21
7.6206
 31
0.0000
  0
LINE
  8
95
 10
-16.3766
 20
9.2043
 30
0.0000
 11
-16.1435
 21
9.4373
 31
0.0000
  0
LINE
  8
95
 10
-16.1435
 20
9.4373
 30
0.0000
 11
-15.6775
 21
9.4373
 31
0.0000
  0
LINE
  8
95
 10
-15.6775
 20
9.4373
 30
0.0000
 11
-15.4445
 21
9.2043
 31
0.0000
  0
LINE
  8
95
 10
-15.4445
 20
9.2043
 30
0.0000
 11
-15.4445
 21
8.9712
 31
0.0000
  0
LINE
  8
95
 10
-15.4445
 20
8.9712
 30
0.0000
 11
-15.6775
 21
8.7382
 31
0.0000
  0
LINE
  8
95
 10
-15.6775
 20
8.7382
 30
0.0000
 11
-15.9105
 21
8.7382
 31
0.0000
  0
LINE
  8
95
 10
-15.6775
 20
8.7382
 30
0.0000
 11
-15.4445
 21
8.5052
 31
0.0000
  0
LINE
  8
95
 10
-15.4445
 20
8.5052
 30
0.0000
 11
-15.4445
 21
8.2721
 31
0.0000
  0
LINE
  8
95
 10
-15.4445
 20
8.2721
 30
0.0000
 11
-15.6775
 21
8.0391
 31
0.0000
  0
LINE
  8
95
 10
-15.6775
 20
8.0391
 30
0.0000
 11
-16.1435
 21
8.0391
 31
0.0000
  0
LINE
  8
95
 10
-16.1435
 20
8.0391
 30
0.0000
 11
-16.3766
 21
8.2721
 31
0.0000
  0
LINE
  8
94
 10
-17.7800
 20
2.5400
 30
0.0000
 11
-12.7000
 21
2.5400
 31
0.0000
  0
LINE
  8
95
 10
-9.3676
 20
3.0067
 30
0.0000
 11
-9.6006
 21
3.2397
 31
0.0000
  0
LINE
  8
95
 10
-9.6006
 20
3.2397
 30
0.0000
 11
-10.0667
 21
3.2397
 31
0.0000
  0
LINE
  8
95
 10
-10.0667
 20
3.2397
 30
0.0000
 11
-10.2997
 21
3.0067
 31
0.0000
  0
LINE
  8
95
 10
-10.2997
 20
3.0067
 30
0.0000
 11
-10.2997
 21
2.0745
 31
0.0000
  0
LINE
  8
95
 10
-10.2997
 20
2.0745
 30
0.0000
 11
-10.0667
 21
1.8415
 31
0.0000
  0
LINE
  8
95
 10
-10.0667
 20
1.8415
 30
0.0000
 11
-9.6006
 21
1.8415
 31
0.0000
  0
LINE
  8
95
 10
-9.6006
 20
1.8415
 30
0.0000
 11
-9.3676
 21
2.0745
 31
0.0000
  0
LINE
  8
95
 10
-7.9643
 20
1.8415
 30
0.0000
 11
-8.8964
 21
1.8415
 31
0.0000
  0
LINE
  8
95
 10
-8.8964
 20
1.8415
 30
0.0000
 11
-7.9643
 21
2.7736
 31
0.0000
  0
LINE
  8
95
 10
-7.9643
 20
2.7736
 30
0.0000
 11
-7.9643
 21
3.0067
 31
0.0000
  0
LINE
  8
95
 10
-7.9643
 20
3.0067
 30
0.0000
 11
-8.1973
 21
3.2397
 31
0.0000
  0
LINE
  8
95
 10
-8.1973
 20
3.2397
 30
0.0000
 11
-8.6634
 21
3.2397
 31
0.0000
  0
LINE
  8
95
 10
-8.6634
 20
3.2397
 30
0.0000
 11
-8.8964
 21
3.0067
 31
0.0000
  0
LINE
  8
95
 10
-7.4931
 20
2.5406
 30
0.0000
 11
-6.5610
 21
2.5406
 31
0.0000
  0
LINE
  8
95
 10
-7.0271
 20
3.0067
 30
0.0000
 11
-7.0271
 21
2.0745
 31
0.0000
  0
LINE
  8
95
 10
-15.6775
 20
2.9591
 30
0.0000
 11
-15.6775
 21
4.3573
 31
0.0000
  0
LINE
  8
95
 10
-15.6775
 20
4.3573
 30
0.0000
 11
-16.3766
 21
3.6582
 31
0.0000
  0
LINE
  8
95
 10
-16.3766
 20
3.6582
 30
0.0000
 11
-15.4445
 21
3.6582
 31
0.0000
  0
LINE
  8
94
 10
-17.7800
 20
-2.5400
 30
0.0000
 11
-12.7000
 21
-2.5400
 31
0.0000
  0
LINE
  8
95
 10
-9.3676
 20
-2.0733
 30
0.0000
 11
-9.6006
 21
-1.8403
 31
0.0000
  0
LINE
  8
95
 10
-9.6006
 20
-1.8403
 30
0.0000
 11
-10.0667
 21
-1.8403
 31
0.0000
  0
LINE
  8
95
 10
-10.0667
 20
-1.8403
 30
0.0000
 11
-10.2997
 21
-2.0733
 31
0.0000
  0
LINE
  8
95
 10
-10.2997
 20
-2.0733
 30
0.0000
 11
-10.2997
 21
-3.0055
 31
0.0000
  0
LINE
  8
95
 10
-10.2997
 20
-3.0055
 30
0.0000
 11
-10.0667
 21
-3.2385
 31
0.0000
  0
LINE
  8
95
 10
-10.0667
 20
-3.2385
 30
0.0000
 11
-9.6006
 21
-3.2385
 31
0.0000
  0
LINE
  8
95
 10
-9.6006
 20
-3.2385
 30
0.0000
 11
-9.3676
 21
-3.0055
 31
0.0000
  0
LINE
  8
95
 10
-7.9643
 20
-3.2385
 30
0.0000
 11
-8.8964
 21
-3.2385
 31
0.0000
  0
LINE
  8
95
 10
-8.8964
 20
-3.2385
 30
0.0000
 11
-7.9643
 21
-2.3064
 31
0.0000
  0
LINE
  8
95
 10
-7.9643
 20
-2.3064
 30
0.0000
 11
-7.9643
 21
-2.0733
 31
0.0000
  0
LINE
  8
95
 10
-7.9643
 20
-2.0733
 30
0.0000
 11
-8.1973
 21
-1.8403
 31
0.0000
  0
LINE
  8
95
 10
-8.1973
 20
-1.8403
 30
0.0000
 11
-8.6634
 21
-1.8403
 31
0.0000
  0
LINE
  8
95
 10
-8.6634
 20
-1.8403
 30
0.0000
 11
-8.8964
 21
-2.0733
 31
0.0000
  0
LINE
  8
95
 10
-7.4931
 20
-2.5394
 30
0.0000
 11
-6.5610
 21
-2.5394
 31
0.0000
  0
LINE
  8
95
 10
-15.4445
 20
-0.7227
 30
0.0000
 11
-16.3766
 21
-0.7227
 31
0.0000
  0
LINE
  8
95
 10
-16.3766
 20
-0.7227
 30
0.0000
 11
-16.3766
 21
-1.4218
 31
0.0000
  0
LINE
  8
95
 10
-16.3766
 20
-1.4218
 30
0.0000
 11
-15.9105
 21
-1.1888
 31
0.0000
  0
LINE
  8
95
 10
-15.9105
 20
-1.1888
 30
0.0000
 11
-15.6775
 21
-1.1888
 31
0.0000
  0
LINE
  8
95
 10
-15.6775
 20
-1.1888
 30
0.0000
 11
-15.4445
 21
-1.4218
 31
0.0000
  0
LINE
  8
95
 10
-15.4445
 20
-1.4218
 30
0.0000
 11
-15.4445
 21
-1.8879
 31
0.0000
  0
LINE
  8
95
 10
-15.4445
 20
-1.8879
 30
0.0000
 11
-15.6775
 21
-2.1209
 31
0.0000
  0
LINE
  8
95
 10
-15.6775
 20
-2.1209
 30
0.0000
 11
-16.1435
 21
-2.1209
 31
0.0000
  0
LINE
  8
95
 10
-16.1435
 20
-2.1209
 30
0.0000
 11
-16.3766
 21
-1.8879
 31
0.0000
  0
LINE
  8
94
 10
0.0000
 20
-22.8600
 30
0.0000
 11
0.0000
 21
-17.7800
 31
0.0000
  0
LINE
  8
95
 10
-0.4667
 20
-14.4476
 30
0.0000
 11
-0.6997
 21
-14.6806
 31
0.0000
  0
LINE
  8
95
 10
-0.6997
 20
-14.6806
 30
0.0000
 11
-0.6997
 21
-15.1467
 31
0.0000
  0
LINE
  8
95
 10
-0.6997
 20
-15.1467
 30
0.0000
 11
-0.4667
 21
-15.3797
 31
0.0000
  0
LINE
  8
95
 10
-0.4667
 20
-15.3797
 30
0.0000
 11
0.4655
 21
-15.3797
 31
0.0000
  0
LINE
  8
95
 10
0.4655
 20
-15.3797
 30
0.0000
 11
0.6985
 21
-15.1467
 31
0.0000
  0
LINE
  8
95
 10
0.6985
 20
-15.1467
 30
0.0000
 11
0.6985
 21
-14.6806
 31
0.0000
  0
LINE
  8
95
 10
0.6985
 20
-14.6806
 30
0.0000
 11
0.4655
 21
-14.4476
 31
0.0000
  0
LINE
  8
95
 10
0.4655
 20
-14.4476
 30
0.0000
 11
-0.0006
 21
-14.4476
 31
0.0000
  0
LINE
  8
95
 10
-0.0006
 20
-14.4476
 30
0.0000
 11
-0.0006
 21
-14.9136
 31
0.0000
  0
LINE
  8
95
 10
0.6985
 20
-13.9764
 30
0.0000
 11
-0.6997
 21
-13.9764
 31
0.0000
  0
LINE
  8
95
 10
-0.6997
 20
-13.9764
 30
0.0000
 11
0.6985
 21
-13.0443
 31
0.0000
  0
LINE
  8
95
 10
0.6985
 20
-13.0443
 30
0.0000
 11
-0.6997
 21
-13.0443
 31
0.0000
  0
LINE
  8
95
 10
-0.6997
 20
-12.5731
 30
0.0000
 11
0.6985
 21
-12.5731
 31
0.0000
  0
LINE
  8
95
 10
0.6985
 20
-12.5731
 30
0.0000
 11
0.6985
 21
-11.8740
 31
0.0000
  0
LINE
  8
95
 10
0.6985
 20
-11.8740
 30
0.0000
 11
0.4655
 21
-11.6410
 31
0.0000
  0
LINE
  8
95
 10
0.4655
 20
-11.6410
 30
0.0000
 11
-0.4667
 21
-11.6410
 31
0.0000
  0
LINE
  8
95
 10
-0.4667
 20
-11.6410
 30
0.0000
 11
-0.6997
 21
-11.8740
 31
0.0000
  0
LINE
  8
95
 10
-0.6997
 20
-11.8740
 30
0.0000
 11
-0.6997
 21
-12.5731
 31
0.0000
  0
LINE
  8
95
 10
-1.3512
 20
-22.8599
 30
0.0000
 11
-1.8173
 21
-22.3938
 31
0.0000
  0
LINE
  8
95
 10
-1.8173
 20
-22.3938
 30
0.0000
 11
-0.4191
 21
-22.3938
 31
0.0000
  0
LINE
  8
95
 10
-0.4191
 20
-22.8599
 30
0.0000
 11
-0.4191
 21
-21.9277
 31
0.0000
  0
LINE
  8
95
 10
-1.8173
 20
-20.5245
 30
0.0000
 11
-1.8173
 21
-21.4566
 31
0.0000
  0
LINE
  8
95
 10
-1.8173
 20
-21.4566
 30
0.0000
 11
-1.1182
 21
-21.4566
 31
0.0000
  0
LINE
  8
95
 10
-1.1182
 20
-21.4566
 30
0.0000
 11
-1.3512
 21
-20.9905
 31
0.0000
  0
LINE
  8
95
 10
-1.3512
 20
-20.9905
 30
0.0000
 11
-1.3512
 21
-20.7575
 31
0.0000
  0
LINE
  8
95
 10
-1.3512
 20
-20.7575
 30
0.0000
 11
-1.1182
 21
-20.5245
 31
0.0000
  0
LINE
  8
95
 10
-1.1182
 20
-20.5245
 30
0.0000
 11
-0.6521
 21
-20.5245
 31
0.0000
  0
LINE
  8
95
 10
-0.6521
 20
-20.5245
 30
0.0000
 11
-0.4191
 21
-20.7575
 31
0.0000
  0
LINE
  8
95
 10
-0.4191
 20
-20.7575
 30
0.0000
 11
-0.4191
 21
-21.2235
 31
0.0000
  0
LINE
  8
95
 10
-0.4191
 20
-21.2235
 30
0.0000
 11
-0.6521
 21
-21.4566
 31
0.0000
  0
LINE
  8
94
 10
17.7800
 20
-12.7000
 30
0.0000
 11
12.7000
 21
-12.7000
 31
0.0000
  0
LINE
  8
95
 10
5.2813
 20
-13.3985
 30
0.0000
 11
5.2813
 21
-12.0003
 31
0.0000
  0
LINE
  8
95
 10
5.2813
 20
-12.0003
 30
0.0000
 11
5.9804
 21
-12.0003
 31
0.0000
  0
LINE
  8
95
 10
5.9804
 20
-12.0003
 30
0.0000
 11
6.2135
 21
-12.2333
 31
0.0000
  0
LINE
  8
95
 10
6.2135
 20
-12.2333
 30
0.0000
 11
6.2135
 21
-12.6994
 31
0.0000
  0
LINE
  8
95
 10
6.2135
 20
-12.6994
 30
0.0000
 11
5.9804
 21
-12.9324
 31
0.0000
  0
LINE
  8
95
 10
5.9804
 20
-12.9324
 30
0.0000
 11
5.2813
 21
-12.9324
 31
0.0000
  0
LINE
  8
95
 10
5.7474
 20
-12.9324
 30
0.0000
 11
6.2135
 21
-13.3985
 31
0.0000
  0
LINE
  8
95
 10
6.6846
 20
-12.4664
 30
0.0000
 11
7.1507
 21
-12.0003
 31
0.0000
  0
LINE
  8
95
 10
7.1507
 20
-12.0003
 30
0.0000
 11
7.1507
 21
-13.3985
 31
0.0000
  0
LINE
  8
95
 10
6.6846
 20
-13.3985
 30
0.0000
 11
7.6168
 21
-13.3985
 31
0.0000
  0
LINE
  8
95
 10
8.0879
 20
-13.3985
 30
0.0000
 11
8.5540
 21
-13.3985
 31
0.0000
  0
LINE
  8
95
 10
8.3209
 20
-13.3985
 30
0.0000
 11
8.3209
 21
-12.0003
 31
0.0000
  0
LINE
  8
95
 10
8.0879
 20
-12.0003
 30
0.0000
 11
8.5540
 21
-12.0003
 31
0.0000
  0
LINE
  8
95
 10
9.0234
 20
-13.3985
 30
0.0000
 11
9.0234
 21
-12.0003
 31
0.0000
  0
LINE
  8
95
 10
9.0234
 20
-12.0003
 30
0.0000
 11
9.9555
 21
-13.3985
 31
0.0000
  0
LINE
  8
95
 10
9.9555
 20
-13.3985
 30
0.0000
 11
9.9555
 21
-12.0003
 31
0.0000
  0
LINE
  8
95
 10
15.1003
 20
-11.3488
 30
0.0000
 11
15.5664
 21
-10.8827
 31
0.0000
  0
LINE
  8
95
 10
15.5664
 20
-10.8827
 30
0.0000
 11
15.5664
 21
-12.2809
 31
0.0000
  0
LINE
  8
95
 10
15.1003
 20
-12.2809
 30
0.0000
 11
16.0324
 21
-12.2809
 31
0.0000
  0
LINE
  8
95
 10
16.5036
 20
-11.1157
 30
0.0000
 11
16.7366
 21
-10.8827
 31
0.0000
  0
LINE
  8
95
 10
16.7366
 20
-10.8827
 30
0.0000
 11
17.2027
 21
-10.8827
 31
0.0000
  0
LINE
  8
95
 10
17.2027
 20
-10.8827
 30
0.0000
 11
17.4357
 21
-11.1157
 31
0.0000
  0
LINE
  8
95
 10
17.4357
 20
-11.1157
 30
0.0000
 11
17.4357
 21
-11.3488
 31
0.0000
  0
LINE
  8
95
 10
17.4357
 20
-11.3488
 30
0.0000
 11
17.2027
 21
-11.5818
 31
0.0000
  0
LINE
  8
95
 10
17.2027
 20
-11.5818
 30
0.0000
 11
16.9696
 21
-11.5818
 31
0.0000
  0
LINE
  8
95
 10
17.2027
 20
-11.5818
 30
0.0000
 11
17.4357
 21
-11.8148
 31
0.0000
  0
LINE
  8
95
 10
17.4357
 20
-11.8148
 30
0.0000
 11
17.4357
 21
-12.0479
 31
0.0000
  0
LINE
  8
95
 10
17.4357
 20
-12.0479
 30
0.0000
 11
17.2027
 21
-12.2809
 31
0.0000
  0
LINE
  8
95
 10
17.2027
 20
-12.2809
 30
0.0000
 11
16.7366
 21
-12.2809
 31
0.0000
  0
LINE
  8
95
 10
16.7366
 20
-12.2809
 30
0.0000
 11
16.5036
 21
-12.0479
 31
0.0000
  0
LINE
  8
94
 10
-17.7800
 20
-12.7000
 30
0.0000
 11
-12.7000
 21
-12.7000
 31
0.0000
  0
LINE
  8
95
 10
-10.2997
 20
-13.3985
 30
0.0000
 11
-10.2997
 21
-12.0003
 31
0.0000
  0
LINE
  8
95
 10
-10.2997
 20
-12.0003
 30
0.0000
 11
-9.6006
 21
-12.0003
 31
0.0000
  0
LINE
  8
95
 10
-9.6006
 20
-12.0003
 30
0.0000
 11
-9.3676
 21
-12.2333
 31
0.0000
  0
LINE
  8
95
 10
-9.3676
 20
-12.2333
 30
0.0000
 11
-9.3676
 21
-12.6994
 31
0.0000
  0
LINE
  8
95
 10
-9.3676
 20
-12.6994
 30
0.0000
 11
-9.6006
 21
-12.9324
 31
0.0000
  0
LINE
  8
95
 10
-9.6006
 20
-12.9324
 30
0.0000
 11
-10.2997
 21
-12.9324
 31
0.0000
  0
LINE
  8
95
 10
-9.8336
 20
-12.9324
 30
0.0000
 11
-9.3676
 21
-13.3985
 31
0.0000
  0
LINE
  8
95
 10
-8.8964
 20
-12.4664
 30
0.0000
 11
-8.4304
 21
-12.0003
 31
0.0000
  0
LINE
  8
95
 10
-8.4304
 20
-12.0003
 30
0.0000
 11
-8.4304
 21
-13.3985
 31
0.0000
  0
LINE
  8
95
 10
-8.8964
 20
-13.3985
 30
0.0000
 11
-7.9643
 21
-13.3985
 31
0.0000
  0
LINE
  8
95
 10
-6.7940
 20
-12.0003
 30
0.0000
 11
-7.2601
 21
-12.0003
 31
0.0000
  0
LINE
  8
95
 10
-7.2601
 20
-12.0003
 30
0.0000
 11
-7.4931
 21
-12.2333
 31
0.0000
  0
LINE
  8
95
 10
-7.4931
 20
-12.2333
 30
0.0000
 11
-7.4931
 21
-13.1655
 31
0.0000
  0
LINE
  8
95
 10
-7.4931
 20
-13.1655
 30
0.0000
 11
-7.2601
 21
-13.3985
 31
0.0000
  0
LINE
  8
95
 10
-7.2601
 20
-13.3985
 30
0.0000
 11
-6.7940
 21
-13.3985
 31
0.0000
  0
LINE
  8
95
 10
-6.7940
 20
-13.3985
 30
0.0000
 11
-6.5610
 21
-13.1655
 31
0.0000
  0
LINE
  8
95
 10
-6.5610
 20
-13.1655
 30
0.0000
 11
-6.5610
 21
-12.2333
 31
0.0000
  0
LINE
  8
95
 10
-6.5610
 20
-12.2333
 30
0.0000
 11
-6.7940
 21
-12.0003
 31
0.0000
  0
LINE
  8
95
 10
-6.0899
 20
-12.0003
 30
0.0000
 11
-6.0899
 21
-13.1655
 31
0.0000
  0
LINE
  8
95
 10
-6.0899
 20
-13.1655
 30
0.0000
 11
-5.8568
 21
-13.3985
 31
0.0000
  0
LINE
  8
95
 10
-5.8568
 20
-13.3985
 30
0.0000
 11
-5.3908
 21
-13.3985
 31
0.0000
  0
LINE
  8
95
 10
-5.3908
 20
-13.3985
 30
0.0000
 11
-5.1577
 21
-13.1655
 31
0.0000
  0
LINE
  8
95
 10
-5.1577
 20
-13.1655
 30
0.0000
 11
-5.1577
 21
-12.0003
 31
0.0000
  0
LINE
  8
95
 10
-4.2205
 20
-13.3985
 30
0.0000
 11
-4.2205
 21
-12.0003
 31
0.0000
  0
LINE
  8
95
 10
-4.6866
 20
-12.0003
 30
0.0000
 11
-3.7545
 21
-12.0003
 31
0.0000
  0
LINE
  8
95
 10
-17.7799
 20
-11.3488
 30
0.0000
 11
-17.3138
 21
-10.8827
 31
0.0000
  0
LINE
  8
95
 10
-17.3138
 20
-10.8827
 30
0.0000
 11
-17.3138
 21
-12.2809
 31
0.0000
  0
LINE
  8
95
 10
-17.7799
 20
-12.2809
 30
0.0000
 11
-16.8477
 21
-12.2809
 31
0.0000
  0
LINE
  8
95
 10
-15.4445
 20
-12.2809
 30
0.0000
 11
-16.3766
 21
-12.2809
 31
0.0000
  0
LINE
  8
95
 10
-16.3766
 20
-12.2809
 30
0.0000
 11
-15.4445
 21
-11.3488
 31
0.0000
  0
LINE
  8
95
 10
-15.4445
 20
-11.3488
 30
0.0000
 11
-15.4445
 21
-11.1157
 31
0.0000
  0
LINE
  8
95
 10
-15.4445
 20
-11.1157
 30
0.0000
 11
-15.6775
 21
-10.8827
 31
0.0000
  0
LINE
  8
95
 10
-15.6775
 20
-10.8827
 30
0.0000
 11
-16.1435
 21
-10.8827
 31
0.0000
  0
LINE
  8
95
 10
-16.1435
 20
-10.8827
 30
0.0000
 11
-16.3766
 21
-11.1157
 31
0.0000
  0
LINE
  8
94
 10
17.7800
 20
-15.2400
 30
0.0000
 11
12.7000
 21
-15.2400
 31
0.0000
  0
LINE
  8
95
 10
5.2813
 20
-15.9385
 30
0.0000
 11
5.2813
 21
-14.5403
 31
0.0000
  0
LINE
  8
95
 10
5.2813
 20
-14.5403
 30
0.0000
 11
5.9804
 21
-14.5403
 31
0.0000
  0
LINE
  8
95
 10
5.9804
 20
-14.5403
 30
0.0000
 11
6.2135
 21
-14.7733
 31
0.0000
  0
LINE
  8
95
 10
6.2135
 20
-14.7733
 30
0.0000
 11
6.2135
 21
-15.2394
 31
0.0000
  0
LINE
  8
95
 10
6.2135
 20
-15.2394
 30
0.0000
 11
5.9804
 21
-15.4724
 31
0.0000
  0
LINE
  8
95
 10
5.9804
 20
-15.4724
 30
0.0000
 11
5.2813
 21
-15.4724
 31
0.0000
  0
LINE
  8
95
 10
5.7474
 20
-15.4724
 30
0.0000
 11
6.2135
 21
-15.9385
 31
0.0000
  0
LINE
  8
95
 10
7.6168
 20
-15.9385
 30
0.0000
 11
6.6846
 21
-15.9385
 31
0.0000
  0
LINE
  8
95
 10
6.6846
 20
-15.9385
 30
0.0000
 11
7.6168
 21
-15.0064
 31
0.0000
  0
LINE
  8
95
 10
7.6168
 20
-15.0064
 30
0.0000
 11
7.6168
 21
-14.7733
 31
0.0000
  0
LINE
  8
95
 10
7.6168
 20
-14.7733
 30
0.0000
 11
7.3837
 21
-14.5403
 31
0.0000
  0
LINE
  8
95
 10
7.3837
 20
-14.5403
 30
0.0000
 11
6.9177
 21
-14.5403
 31
0.0000
  0
LINE
  8
95
 10
6.9177
 20
-14.5403
 30
0.0000
 11
6.6846
 21
-14.7733
 31
0.0000
  0
LINE
  8
95
 10
8.0879
 20
-15.9385
 30
0.0000
 11
8.5540
 21
-15.9385
 31
0.0000
  0
LINE
  8
95
 10
8.3209
 20
-15.9385
 30
0.0000
 11
8.3209
 21
-14.5403
 31
0.0000
  0
LINE
  8
95
 10
8.0879
 20
-14.5403
 30
0.0000
 11
8.5540
 21
-14.5403
 31
0.0000
  0
LINE
  8
95
 10
9.0234
 20
-15.9385
 30
0.0000
 11
9.0234
 21
-14.5403
 31
0.0000
  0
LINE
  8
95
 10
9.0234
 20
-14.5403
 30
0.0000
 11
9.9555
 21
-15.9385
 31
0.0000
  0
LINE
  8
95
 10
9.9555
 20
-15.9385
 30
0.0000
 11
9.9555
 21
-14.5403
 31
0.0000
  0
LINE
  8
95
 10
15.1003
 20
-13.6557
 30
0.0000
 11
15.3333
 21
-13.4227
 31
0.0000
  0
LINE
  8
95
 10
15.3333
 20
-13.4227
 30
0.0000
 11
15.7994
 21
-13.4227
 31
0.0000
  0
LINE
  8
95
 10
15.7994
 20
-13.4227
 30
0.0000
 11
16.0324
 21
-13.6557
 31
0.0000
  0
LINE
  8
95
 10
16.0324
 20
-13.6557
 30
0.0000
 11
16.0324
 21
-13.8888
 31
0.0000
  0
LINE
  8
95
 10
16.0324
 20
-13.8888
 30
0.0000
 11
15.7994
 21
-14.1218
 31
0.0000
  0
LINE
  8
95
 10
15.7994
 20
-14.1218
 30
0.0000
 11
16.0324
 21
-14.3548
 31
0.0000
  0
LINE
  8
95
 10
16.0324
 20
-14.3548
 30
0.0000
 11
16.0324
 21
-14.5879
 31
0.0000
  0
LINE
  8
95
 10
16.0324
 20
-14.5879
 30
0.0000
 11
15.7994
 21
-14.8209
 31
0.0000
  0
LINE
  8
95
 10
15.7994
 20
-14.8209
 30
0.0000
 11
15.3333
 21
-14.8209
 31
0.0000
  0
LINE
  8
95
 10
15.3333
 20
-14.8209
 30
0.0000
 11
15.1003
 21
-14.5879
 31
0.0000
  0
LINE
  8
95
 10
15.1003
 20
-14.5879
 30
0.0000
 11
15.1003
 21
-14.3548
 31
0.0000
  0
LINE
  8
95
 10
15.1003
 20
-14.3548
 30
0.0000
 11
15.3333
 21
-14.1218
 31
0.0000
  0
LINE
  8
95
 10
15.3333
 20
-14.1218
 30
0.0000
 11
15.1003
 21
-13.8888
 31
0.0000
  0
LINE
  8
95
 10
15.1003
 20
-13.8888
 30
0.0000
 11
15.1003
 21
-13.6557
 31
0.0000
  0
LINE
  8
95
 10
15.3333
 20
-14.1218
 30
0.0000
 11
15.7994
 21
-14.1218
 31
0.0000
  0
LINE
  8
94
 10
-17.7800
 20
-15.2400
 30
0.0000
 11
-12.7000
 21
-15.2400
 31
0.0000
  0
LINE
  8
95
 10
-10.2997
 20
-15.9385
 30
0.0000
 11
-10.2997
 21
-14.5403
 31
0.0000
  0
LINE
  8
95
 10
-10.2997
 20
-14.5403
 30
0.0000
 11
-9.6006
 21
-14.5403
 31
0.0000
  0
LINE
  8
95
 10
-9.6006
 20
-14.5403
 30
0.0000
 11
-9.3676
 21
-14.7733
 31
0.0000
  0
LINE
  8
95
 10
-9.3676
 20
-14.7733
 30
0.0000
 11
-9.3676
 21
-15.2394
 31
0.0000
  0
LINE
  8
95
 10
-9.3676
 20
-15.2394
 30
0.0000
 11
-9.6006
 21
-15.4724
 31
0.0000
  0
LINE
  8
95
 10
-9.6006
 20
-15.4724
 30
0.0000
 11
-10.2997
 21
-15.4724
 31
0.0000
  0
LINE
  8
95
 10
-9.8336
 20
-15.4724
 30
0.0000
 11
-9.3676
 21
-15.9385
 31
0.0000
  0
LINE
  8
95
 10
-7.9643
 20
-15.9385
 30
0.0000
 11
-8.8964
 21
-15.9385
 31
0.0000
  0
LINE
  8
95
 10
-8.8964
 20
-15.9385
 30
0.0000
 11
-7.9643
 21
-15.0064
 31
0.0000
  0
LINE
  8
95
 10
-7.9643
 20
-15.0064
 30
0.0000
 11
-7.9643
 21
-14.7733
 31
0.0000
  0
LINE
  8
95
 10
-7.9643
 20
-14.7733
 30
0.0000
 11
-8.1973
 21
-14.5403
 31
0.0000
  0
LINE
  8
95
 10
-8.1973
 20
-14.5403
 30
0.0000
 11
-8.6634
 21
-14.5403
 31
0.0000
  0
LINE
  8
95
 10
-8.6634
 20
-14.5403
 30
0.0000
 11
-8.8964
 21
-14.7733
 31
0.0000
  0
LINE
  8
95
 10
-6.7940
 20
-14.5403
 30
0.0000
 11
-7.2601
 21
-14.5403
 31
0.0000
  0
LINE
  8
95
 10
-7.2601
 20
-14.5403
 30
0.0000
 11
-7.4931
 21
-14.7733
 31
0.0000
  0
LINE
  8
95
 10
-7.4931
 20
-14.7733
 30
0.0000
 11
-7.4931
 21
-15.7055
 31
0.0000
  0
LINE
  8
95
 10
-7.4931
 20
-15.7055
 30
0.0000
 11
-7.2601
 21
-15.9385
 31
0.0000
  0
LINE
  8
95
 10
-7.2601
 20
-15.9385
 30
0.0000
 11
-6.7940
 21
-15.9385
 31
0.0000
  0
LINE
  8
95
 10
-6.7940
 20
-15.9385
 30
0.0000
 11
-6.5610
 21
-15.7055
 31
0.0000
  0
LINE
  8
95
 10
-6.5610
 20
-15.7055
 30
0.0000
 11
-6.5610
 21
-14.7733
 31
0.0000
  0
LINE
  8
95
 10
-6.5610
 20
-14.7733
 30
0.0000
 11
-6.7940
 21
-14.5403
 31
0.0000
  0
LINE
  8
95
 10
-6.0899
 20
-14.5403
 30
0.0000
 11
-6.0899
 21
-15.7055
 31
0.0000
  0
LINE
  8
95
 10
-6.0899
 20
-15.7055
 30
0.0000
 11
-5.8568
 21
-15.9385
 31
0.0000
  0
LINE
  8
95
 10
-5.8568
 20
-15.9385
 30
0.0000
 11
-5.3908
 21
-15.9385
 31
0.0000
  0
LINE
  8
95
 10
-5.3908
 20
-15.9385
 30
0.0000
 11
-5.1577
 21
-15.7055
 31
0.0000
  0
LINE
  8
95
 10
-5.1577
 20
-15.7055
 30
0.0000
 11
-5.1577
 21
-14.5403
 31
0.0000
  0
LINE
  8
95
 10
-4.2205
 20
-15.9385
 30
0.0000
 11
-4.2205
 21
-14.5403
 31
0.0000
  0
LINE
  8
95
 10
-4.6866
 20
-14.5403
 30
0.0000
 11
-3.7545
 21
-14.5403
 31
0.0000
  0
LINE
  8
95
 10
-16.3766
 20
-14.5879
 30
0.0000
 11
-16.1435
 21
-14.8209
 31
0.0000
  0
LINE
  8
95
 10
-16.1435
 20
-14.8209
 30
0.0000
 11
-15.6775
 21
-14.8209
 31
0.0000
  0
LINE
  8
95
 10
-15.6775
 20
-14.8209
 30
0.0000
 11
-15.4445
 21
-14.5879
 31
0.0000
  0
LINE
  8
95
 10
-15.4445
 20
-14.5879
 30
0.0000
 11
-15.4445
 21
-13.6557
 31
0.0000
  0
LINE
  8
95
 10
-15.4445
 20
-13.6557
 30
0.0000
 11
-15.6775
 21
-13.4227
 31
0.0000
  0
LINE
  8
95
 10
-15.6775
 20
-13.4227
 30
0.0000
 11
-16.1435
 21
-13.4227
 31
0.0000
  0
LINE
  8
95
 10
-16.1435
 20
-13.4227
 30
0.0000
 11
-16.3766
 21
-13.6557
 31
0.0000
  0
LINE
  8
95
 10
-16.3766
 20
-13.6557
 30
0.0000
 11
-16.3766
 21
-13.8888
 31
0.0000
  0
LINE
  8
95
 10
-16.3766
 20
-13.8888
 30
0.0000
 11
-16.1435
 21
-14.1218
 31
0.0000
  0
LINE
  8
95
 10
-16.1435
 20
-14.1218
 30
0.0000
 11
-15.4445
 21
-14.1218
 31
0.0000
  0
LINE
  8
94
 10
-17.7800
 20
-7.6200
 30
0.0000
 11
-12.7000
 21
-7.6200
 31
0.0000
  0
LINE
  8
95
 10
-9.8336
 20
-8.3185
 30
0.0000
 11
-9.8336
 21
-6.9203
 31
0.0000
  0
LINE
  8
95
 10
-10.2997
 20
-6.9203
 30
0.0000
 11
-9.3676
 21
-6.9203
 31
0.0000
  0
LINE
  8
95
 10
-8.8964
 20
-7.3864
 30
0.0000
 11
-8.4304
 21
-6.9203
 31
0.0000
  0
LINE
  8
95
 10
-8.4304
 20
-6.9203
 30
0.0000
 11
-8.4304
 21
-8.3185
 31
0.0000
  0
LINE
  8
95
 10
-8.8964
 20
-8.3185
 30
0.0000
 11
-7.9643
 21
-8.3185
 31
0.0000
  0
LINE
  8
95
 10
-7.4931
 20
-8.3185
 30
0.0000
 11
-7.0271
 21
-8.3185
 31
0.0000
  0
LINE
  8
95
 10
-7.2601
 20
-8.3185
 30
0.0000
 11
-7.2601
 21
-6.9203
 31
0.0000
  0
LINE
  8
95
 10
-7.4931
 20
-6.9203
 30
0.0000
 11
-7.0271
 21
-6.9203
 31
0.0000
  0
LINE
  8
95
 10
-6.5576
 20
-8.3185
 30
0.0000
 11
-6.5576
 21
-6.9203
 31
0.0000
  0
LINE
  8
95
 10
-6.5576
 20
-6.9203
 30
0.0000
 11
-5.6255
 21
-8.3185
 31
0.0000
  0
LINE
  8
95
 10
-5.6255
 20
-8.3185
 30
0.0000
 11
-5.6255
 21
-6.9203
 31
0.0000
  0
LINE
  8
95
 10
-17.7799
 20
-6.2688
 30
0.0000
 11
-17.3138
 21
-5.8027
 31
0.0000
  0
LINE
  8
95
 10
-17.3138
 20
-5.8027
 30
0.0000
 11
-17.3138
 21
-7.2009
 31
0.0000
  0
LINE
  8
95
 10
-17.7799
 20
-7.2009
 30
0.0000
 11
-16.8477
 21
-7.2009
 31
0.0000
  0
LINE
  8
95
 10
-16.3766
 20
-6.2688
 30
0.0000
 11
-15.9105
 21
-5.8027
 31
0.0000
  0
LINE
  8
95
 10
-15.9105
 20
-5.8027
 30
0.0000
 11
-15.9105
 21
-7.2009
 31
0.0000
  0
LINE
  8
95
 10
-16.3766
 20
-7.2009
 30
0.0000
 11
-15.4445
 21
-7.2009
 31
0.0000
  0
LINE
  8
94
 10
17.7800
 20
-7.6200
 30
0.0000
 11
12.7000
 21
-7.6200
 31
0.0000
  0
LINE
  8
95
 10
3.8764
 20
-8.3185
 30
0.0000
 11
3.8764
 21
-6.9203
 31
0.0000
  0
LINE
  8
95
 10
3.4103
 20
-6.9203
 30
0.0000
 11
4.3424
 21
-6.9203
 31
0.0000
  0
LINE
  8
95
 10
4.8136
 20
-7.3864
 30
0.0000
 11
5.2796
 21
-6.9203
 31
0.0000
  0
LINE
  8
95
 10
5.2796
 20
-6.9203
 30
0.0000
 11
5.2796
 21
-8.3185
 31
0.0000
  0
LINE
  8
95
 10
4.8136
 20
-8.3185
 30
0.0000
 11
5.7457
 21
-8.3185
 31
0.0000
  0
LINE
  8
95
 10
6.9160
 20
-6.9203
 30
0.0000
 11
6.4499
 21
-6.9203
 31
0.0000
  0
LINE
  8
95
 10
6.4499
 20
-6.9203
 30
0.0000
 11
6.2169
 21
-7.1533
 31
0.0000
  0
LINE
  8
95
 10
6.2169
 20
-7.1533
 30
0.0000
 11
6.2169
 21
-8.0855
 31
0.0000
  0
LINE
  8
95
 10
6.2169
 20
-8.0855
 30
0.0000
 11
6.4499
 21
-8.3185
 31
0.0000
  0
LINE
  8
95
 10
6.4499
 20
-8.3185
 30
0.0000
 11
6.9160
 21
-8.3185
 31
0.0000
  0
LINE
  8
95
 10
6.9160
 20
-8.3185
 30
0.0000
 11
7.1490
 21
-8.0855
 31
0.0000
  0
LINE
  8
95
 10
7.1490
 20
-8.0855
 30
0.0000
 11
7.1490
 21
-7.1533
 31
0.0000
  0
LINE
  8
95
 10
7.1490
 20
-7.1533
 30
0.0000
 11
6.9160
 21
-6.9203
 31
0.0000
  0
LINE
  8
95
 10
7.6201
 20
-6.9203
 30
0.0000
 11
7.6201
 21
-8.0855
 31
0.0000
  0
LINE
  8
95
 10
7.6201
 20
-8.0855
 30
0.0000
 11
7.8532
 21
-8.3185
 31
0.0000
  0
LINE
  8
95
 10
7.8532
 20
-8.3185
 30
0.0000
 11
8.3192
 21
-8.3185
 31
0.0000
  0
LINE
  8
95
 10
8.3192
 20
-8.3185
 30
0.0000
 11
8.5523
 21
-8.0855
 31
0.0000
  0
LINE
  8
95
 10
8.5523
 20
-8.0855
 30
0.0000
 11
8.5523
 21
-6.9203
 31
0.0000
  0
LINE
  8
95
 10
9.4895
 20
-8.3185
 30
0.0000
 11
9.4895
 21
-6.9203
 31
0.0000
  0
LINE
  8
95
 10
9.0234
 20
-6.9203
 30
0.0000
 11
9.9555
 21
-6.9203
 31
0.0000
  0
LINE
  8
95
 10
15.1003
 20
-6.2688
 30
0.0000
 11
15.5664
 21
-5.8027
 31
0.0000
  0
LINE
  8
95
 10
15.5664
 20
-5.8027
 30
0.0000
 11
15.5664
 21
-7.2009
 31
0.0000
  0
LINE
  8
95
 10
15.1003
 20
-7.2009
 30
0.0000
 11
16.0324
 21
-7.2009
 31
0.0000
  0
LINE
  8
95
 10
17.2027
 20
-7.2009
 30
0.0000
 11
17.2027
 21
-5.8027
 31
0.0000
  0
LINE
  8
95
 10
17.2027
 20
-5.8027
 30
0.0000
 11
16.5036
 21
-6.5018
 31
0.0000
  0
LINE
  8
95
 10
16.5036
 20
-6.5018
 30
0.0000
 11
17.4357
 21
-6.5018
 31
0.0000
  0
LINE
  8
94
 10
-17.7800
 20
-10.1600
 30
0.0000
 11
-12.7000
 21
-10.1600
 31
0.0000
  0
LINE
  8
95
 10
-9.8336
 20
-10.8585
 30
0.0000
 11
-9.8336
 21
-9.4603
 31
0.0000
  0
LINE
  8
95
 10
-10.2997
 20
-9.4603
 30
0.0000
 11
-9.3676
 21
-9.4603
 31
0.0000
  0
LINE
  8
95
 10
-7.9643
 20
-10.8585
 30
0.0000
 11
-8.8964
 21
-10.8585
 31
0.0000
  0
LINE
  8
95
 10
-8.8964
 20
-10.8585
 30
0.0000
 11
-7.9643
 21
-9.9264
 31
0.0000
  0
LINE
  8
95
 10
-7.9643
 20
-9.9264
 30
0.0000
 11
-7.9643
 21
-9.6933
 31
0.0000
  0
LINE
  8
95
 10
-7.9643
 20
-9.6933
 30
0.0000
 11
-8.1973
 21
-9.4603
 31
0.0000
  0
LINE
  8
95
 10
-8.1973
 20
-9.4603
 30
0.0000
 11
-8.6634
 21
-9.4603
 31
0.0000
  0
LINE
  8
95
 10
-8.6634
 20
-9.4603
 30
0.0000
 11
-8.8964
 21
-9.6933
 31
0.0000
  0
LINE
  8
95
 10
-7.4931
 20
-10.8585
 30
0.0000
 11
-7.0271
 21
-10.8585
 31
0.0000
  0
LINE
  8
95
 10
-7.2601
 20
-10.8585
 30
0.0000
 11
-7.2601
 21
-9.4603
 31
0.0000
  0
LINE
  8
95
 10
-7.4931
 20
-9.4603
 30
0.0000
 11
-7.0271
 21
-9.4603
 31
0.0000
  0
LINE
  8
95
 10
-6.5576
 20
-10.8585
 30
0.0000
 11
-6.5576
 21
-9.4603
 31
0.0000
  0
LINE
  8
95
 10
-6.5576
 20
-9.4603
 30
0.0000
 11
-5.6255
 21
-10.8585
 31
0.0000
  0
LINE
  8
95
 10
-5.6255
 20
-10.8585
 30
0.0000
 11
-5.6255
 21
-9.4603
 31
0.0000
  0
LINE
  8
95
 10
-17.7799
 20
-8.8088
 30
0.0000
 11
-17.3138
 21
-8.3427
 31
0.0000
  0
LINE
  8
95
 10
-17.3138
 20
-8.3427
 30
0.0000
 11
-17.3138
 21
-9.7409
 31
0.0000
  0
LINE
  8
95
 10
-17.7799
 20
-9.7409
 30
0.0000
 11
-16.8477
 21
-9.7409
 31
0.0000
  0
LINE
  8
95
 10
-16.3766
 20
-9.5079
 30
0.0000
 11
-16.3766
 21
-8.5757
 31
0.0000
  0
LINE
  8
95
 10
-16.3766
 20
-8.5757
 30
0.0000
 11
-16.1435
 21
-8.3427
 31
0.0000
  0
LINE
  8
95
 10
-16.1435
 20
-8.3427
 30
0.0000
 11
-15.6775
 21
-8.3427
 31
0.0000
  0
LINE
  8
95
 10
-15.6775
 20
-8.3427
 30
0.0000
 11
-15.4445
 21
-8.5757
 31
0.0000
  0
LINE
  8
95
 10
-15.4445
 20
-8.5757
 30
0.0000
 11
-15.4445
 21
-9.5079
 31
0.0000
  0
LINE
  8
95
 10
-15.4445
 20
-9.5079
 30
0.0000
 11
-15.6775
 21
-9.7409
 31
0.0000
  0
LINE
  8
95
 10
-15.6775
 20
-9.7409
 30
0.0000
 11
-16.1435
 21
-9.7409
 31
0.0000
  0
LINE
  8
95
 10
-16.1435
 20
-9.7409
 30
0.0000
 11
-16.3766
 21
-9.5079
 31
0.0000
  0
LINE
  8
95
 10
-16.3766
 20
-9.5079
 30
0.0000
 11
-15.4445
 21
-8.5757
 31
0.0000
  0
LINE
  8
94
 10
17.7800
 20
-10.1600
 30
0.0000
 11
12.7000
 21
-10.1600
 31
0.0000
  0
LINE
  8
95
 10
3.8764
 20
-10.8585
 30
0.0000
 11
3.8764
 21
-9.4603
 31
0.0000
  0
LINE
  8
95
 10
3.4103
 20
-9.4603
 30
0.0000
 11
4.3424
 21
-9.4603
 31
0.0000
  0
LINE
  8
95
 10
5.7457
 20
-10.8585
 30
0.0000
 11
4.8136
 21
-10.8585
 31
0.0000
  0
LINE
  8
95
 10
4.8136
 20
-10.8585
 30
0.0000
 11
5.7457
 21
-9.9264
 31
0.0000
  0
LINE
  8
95
 10
5.7457
 20
-9.9264
 30
0.0000
 11
5.7457
 21
-9.6933
 31
0.0000
  0
LINE
  8
95
 10
5.7457
 20
-9.6933
 30
0.0000
 11
5.5127
 21
-9.4603
 31
0.0000
  0
LINE
  8
95
 10
5.5127
 20
-9.4603
 30
0.0000
 11
5.0466
 21
-9.4603
 31
0.0000
  0
LINE
  8
95
 10
5.0466
 20
-9.4603
 30
0.0000
 11
4.8136
 21
-9.6933
 31
0.0000
  0
LINE
  8
95
 10
6.9160
 20
-9.4603
 30
0.0000
 11
6.4499
 21
-9.4603
 31
0.0000
  0
LINE
  8
95
 10
6.4499
 20
-9.4603
 30
0.0000
 11
6.2169
 21
-9.6933
 31
0.0000
  0
LINE
  8
95
 10
6.2169
 20
-9.6933
 30
0.0000
 11
6.2169
 21
-10.6255
 31
0.0000
  0
LINE
  8
95
 10
6.2169
 20
-10.6255
 30
0.0000
 11
6.4499
 21
-10.8585
 31
0.0000
  0
LINE
  8
95
 10
6.4499
 20
-10.8585
 30
0.0000
 11
6.9160
 21
-10.8585
 31
0.0000
  0
LINE
  8
95
 10
6.9160
 20
-10.8585
 30
0.0000
 11
7.1490
 21
-10.6255
 31
0.0000
  0
LINE
  8
95
 10
7.1490
 20
-10.6255
 30
0.0000
 11
7.1490
 21
-9.6933
 31
0.0000
  0
LINE
  8
95
 10
7.1490
 20
-9.6933
 30
0.0000
 11
6.9160
 21
-9.4603
 31
0.0000
  0
LINE
  8
95
 10
7.6201
 20
-9.4603
 30
0.0000
 11
7.6201
 21
-10.6255
 31
0.0000
  0
LINE
  8
95
 10
7.6201
 20
-10.6255
 30
0.0000
 11
7.8532
 21
-10.8585
 31
0.0000
  0
LINE
  8
95
 10
7.8532
 20
-10.8585
 30
0.0000
 11
8.3192
 21
-10.8585
 31
0.0000
  0
LINE
  8
95
 10
8.3192
 20
-10.8585
 30
0.0000
 11
8.5523
 21
-10.6255
 31
0.0000
  0
LINE
  8
95
 10
8.5523
 20
-10.6255
 30
0.0000
 11
8.5523
 21
-9.4603
 31
0.0000
  0
LINE
  8
95
 10
9.4895
 20
-10.8585
 30
0.0000
 11
9.4895
 21
-9.4603
 31
0.0000
  0
LINE
  8
95
 10
9.0234
 20
-9.4603
 30
0.0000
 11
9.9555
 21
-9.4603
 31
0.0000
  0
LINE
  8
95
 10
15.1003
 20
-8.3427
 30
0.0000
 11
16.0324
 21
-8.3427
 31
0.0000
  0
LINE
  8
95
 10
16.0324
 20
-8.3427
 30
0.0000
 11
16.0324
 21
-8.5757
 31
0.0000
  0
LINE
  8
95
 10
16.0324
 20
-8.5757
 30
0.0000
 11
15.1003
 21
-9.5079
 31
0.0000
  0
LINE
  8
95
 10
15.1003
 20
-9.5079
 30
0.0000
 11
15.1003
 21
-9.7409
 31
0.0000
  0
LINE
  8
94
 10
17.7800
 20
10.1600
 30
0.0000
 11
12.7000
 21
10.1600
 31
0.0000
  0
LINE
  8
95
 10
7.6201
 20
10.8597
 30
0.0000
 11
7.6201
 21
9.9276
 31
0.0000
  0
LINE
  8
95
 10
7.6201
 20
9.9276
 30
0.0000
 11
8.0862
 21
9.4615
 31
0.0000
  0
LINE
  8
95
 10
8.0862
 20
9.4615
 30
0.0000
 11
8.5523
 21
9.9276
 31
0.0000
  0
LINE
  8
95
 10
8.5523
 20
9.9276
 30
0.0000
 11
8.5523
 21
10.8597
 31
0.0000
  0
LINE
  8
95
 10
9.0234
 20
10.1606
 30
0.0000
 11
9.9556
 21
10.1606
 31
0.0000
  0
LINE
  8
95
 10
9.4895
 20
10.6267
 30
0.0000
 11
9.4895
 21
9.6945
 31
0.0000
  0
LINE
  8
95
 10
16.0324
 20
10.5791
 30
0.0000
 11
15.1003
 21
10.5791
 31
0.0000
  0
LINE
  8
95
 10
15.1003
 20
10.5791
 30
0.0000
 11
16.0324
 21
11.5112
 31
0.0000
  0
LINE
  8
95
 10
16.0324
 20
11.5112
 30
0.0000
 11
16.0324
 21
11.7443
 31
0.0000
  0
LINE
  8
95
 10
16.0324
 20
11.7443
 30
0.0000
 11
15.7994
 21
11.9773
 31
0.0000
  0
LINE
  8
95
 10
15.7994
 20
11.9773
 30
0.0000
 11
15.3333
 21
11.9773
 31
0.0000
  0
LINE
  8
95
 10
15.3333
 20
11.9773
 30
0.0000
 11
15.1003
 21
11.7443
 31
0.0000
  0
LINE
  8
94
 10
17.7800
 20
5.0800
 30
0.0000
 11
12.7000
 21
5.0800
 31
0.0000
  0
LINE
  8
95
 10
7.6201
 20
5.7797
 30
0.0000
 11
7.6201
 21
4.8476
 31
0.0000
  0
LINE
  8
95
 10
7.6201
 20
4.8476
 30
0.0000
 11
8.0862
 21
4.3815
 31
0.0000
  0
LINE
  8
95
 10
8.0862
 20
4.3815
 30
0.0000
 11
8.5523
 21
4.8476
 31
0.0000
  0
LINE
  8
95
 10
8.5523
 20
4.8476
 30
0.0000
 11
8.5523
 21
5.7797
 31
0.0000
  0
LINE
  8
95
 10
9.0234
 20
5.0806
 30
0.0000
 11
9.9556
 21
5.0806
 31
0.0000
  0
LINE
  8
95
 10
16.0324
 20
6.8973
 30
0.0000
 11
15.5664
 21
6.6643
 31
0.0000
  0
LINE
  8
95
 10
15.5664
 20
6.6643
 30
0.0000
 11
15.1003
 21
6.1982
 31
0.0000
  0
LINE
  8
95
 10
15.1003
 20
6.1982
 30
0.0000
 11
15.1003
 21
5.7321
 31
0.0000
  0
LINE
  8
95
 10
15.1003
 20
5.7321
 30
0.0000
 11
15.3333
 21
5.4991
 31
0.0000
  0
LINE
  8
95
 10
15.3333
 20
5.4991
 30
0.0000
 11
15.7994
 21
5.4991
 31
0.0000
  0
LINE
  8
95
 10
15.7994
 20
5.4991
 30
0.0000
 11
16.0324
 21
5.7321
 31
0.0000
  0
LINE
  8
95
 10
16.0324
 20
5.7321
 30
0.0000
 11
16.0324
 21
5.9652
 31
0.0000
  0
LINE
  8
95
 10
16.0324
 20
5.9652
 30
0.0000
 11
15.7994
 21
6.1982
 31
0.0000
  0
LINE
  8
95
 10
15.7994
 20
6.1982
 30
0.0000
 11
15.1003
 21
6.1982
 31
0.0000
  0
LINE
  8
94
 10
0.0000
 20
20.3200
 30
0.0000
 11
0.0000
 21
15.2400
 31
0.0000
  0
LINE
  8
95
 10
-0.6997
 20
8.7569
 30
0.0000
 11
0.2324
 21
8.7569
 31
0.0000
  0
LINE
  8
95
 10
0.2324
 20
8.7569
 30
0.0000
 11
0.6985
 21
9.2229
 31
0.0000
  0
LINE
  8
95
 10
0.6985
 20
9.2229
 30
0.0000
 11
0.2324
 21
9.6890
 31
0.0000
  0
LINE
  8
95
 10
0.2324
 20
9.6890
 30
0.0000
 11
-0.6997
 21
9.6890
 31
0.0000
  0
LINE
  8
95
 10
-0.4667
 20
11.0923
 30
0.0000
 11
-0.6997
 21
10.8592
 31
0.0000
  0
LINE
  8
95
 10
-0.6997
 20
10.8592
 30
0.0000
 11
-0.6997
 21
10.3932
 31
0.0000
  0
LINE
  8
95
 10
-0.6997
 20
10.3932
 30
0.0000
 11
-0.4667
 21
10.1601
 31
0.0000
  0
LINE
  8
95
 10
-0.4667
 20
10.1601
 30
0.0000
 11
0.4655
 21
10.1601
 31
0.0000
  0
LINE
  8
95
 10
0.4655
 20
10.1601
 30
0.0000
 11
0.6985
 21
10.3932
 31
0.0000
  0
LINE
  8
95
 10
0.6985
 20
10.3932
 30
0.0000
 11
0.6985
 21
10.8592
 31
0.0000
  0
LINE
  8
95
 10
0.6985
 20
10.8592
 30
0.0000
 11
0.4655
 21
11.0923
 31
0.0000
  0
LINE
  8
95
 10
-0.4667
 20
12.4955
 30
0.0000
 11
-0.6997
 21
12.2625
 31
0.0000
  0
LINE
  8
95
 10
-0.6997
 20
12.2625
 30
0.0000
 11
-0.6997
 21
11.7965
 31
0.0000
  0
LINE
  8
95
 10
-0.6997
 20
11.7965
 30
0.0000
 11
-0.4667
 21
11.5634
 31
0.0000
  0
LINE
  8
95
 10
-0.4667
 20
11.5634
 30
0.0000
 11
0.4655
 21
11.5634
 31
0.0000
  0
LINE
  8
95
 10
0.4655
 20
11.5634
 30
0.0000
 11
0.6985
 21
11.7965
 31
0.0000
  0
LINE
  8
95
 10
0.6985
 20
11.7965
 30
0.0000
 11
0.6985
 21
12.2625
 31
0.0000
  0
LINE
  8
95
 10
0.6985
 20
12.2625
 30
0.0000
 11
0.4655
 21
12.4955
 31
0.0000
  0
LINE
  8
95
 10
-1.3512
 20
17.6403
 30
0.0000
 11
-1.8173
 21
18.1064
 31
0.0000
  0
LINE
  8
95
 10
-1.8173
 20
18.1064
 30
0.0000
 11
-0.4191
 21
18.1064
 31
0.0000
  0
LINE
  8
95
 10
-0.4191
 20
17.6403
 30
0.0000
 11
-0.4191
 21
18.5724
 31
0.0000
  0
LINE
  8
95
 10
-1.8173
 20
19.9757
 30
0.0000
 11
-1.5843
 21
19.5096
 31
0.0000
  0
LINE
  8
95
 10
-1.5843
 20
19.5096
 30
0.0000
 11
-1.1182
 21
19.0436
 31
0.0000
  0
LINE
  8
95
 10
-1.1182
 20
19.0436
 30
0.0000
 11
-0.6521
 21
19.0436
 31
0.0000
  0
LINE
  8
95
 10
-0.6521
 20
19.0436
 30
0.0000
 11
-0.4191
 21
19.2766
 31
0.0000
  0
LINE
  8
95
 10
-0.4191
 20
19.2766
 30
0.0000
 11
-0.4191
 21
19.7427
 31
0.0000
  0
LINE
  8
95
 10
-0.4191
 20
19.7427
 30
0.0000
 11
-0.6521
 21
19.9757
 31
0.0000
  0
LINE
  8
95
 10
-0.6521
 20
19.9757
 30
0.0000
 11
-0.8852
 21
19.9757
 31
0.0000
  0
LINE
  8
95
 10
-0.8852
 20
19.9757
 30
0.0000
 11
-1.1182
 21
19.7427
 31
0.0000
  0
LINE
  8
95
 10
-1.1182
 20
19.7427
 30
0.0000
 11
-1.1182
 21
19.0436
 31
0.0000
  0
LINE
  8
95
 10
-12.6238
 20
17.5782
 30
0.0000
 11
-12.6238
 21
16.2224
 31
0.0000
  0
LINE
  8
95
 10
-12.6238
 20
16.2224
 30
0.0000
 11
-12.3526
 21
15.9512
 31
0.0000
  0
LINE
  8
95
 10
-12.3526
 20
15.9512
 30
0.0000
 11
-11.8103
 21
15.9512
 31
0.0000
  0
LINE
  8
95
 10
-11.8103
 20
15.9512
 30
0.0000
 11
-11.5391
 21
16.2224
 31
0.0000
  0
LINE
  8
95
 10
-11.5391
 20
16.2224
 30
0.0000
 11
-11.5391
 21
17.5782
 31
0.0000
  0
LINE
  8
95
 10
-10.9866
 20
17.3070
 30
0.0000
 11
-10.7155
 21
17.5782
 31
0.0000
  0
LINE
  8
95
 10
-10.7155
 20
17.5782
 30
0.0000
 11
-10.1731
 21
17.5782
 31
0.0000
  0
LINE
  8
95
 10
-10.1731
 20
17.5782
 30
0.0000
 11
-9.9020
 21
17.3070
 31
0.0000
  0
LINE
  8
95
 10
-9.9020
 20
17.3070
 30
0.0000
 11
-9.9020
 21
17.0359
 31
0.0000
  0
LINE
  8
95
 10
-9.9020
 20
17.0359
 30
0.0000
 11
-10.1731
 21
16.7647
 31
0.0000
  0
LINE
  8
95
 10
-10.1731
 20
16.7647
 30
0.0000
 11
-10.4443
 21
16.7647
 31
0.0000
  0
LINE
  8
95
 10
-10.1731
 20
16.7647
 30
0.0000
 11
-9.9020
 21
16.4935
 31
0.0000
  0
LINE
  8
95
 10
-9.9020
 20
16.4935
 30
0.0000
 11
-9.9020
 21
16.2224
 31
0.0000
  0
LINE
  8
95
 10
-9.9020
 20
16.2224
 30
0.0000
 11
-10.1731
 21
15.9512
 31
0.0000
  0
LINE
  8
95
 10
-10.1731
 20
15.9512
 30
0.0000
 11
-10.7155
 21
15.9512
 31
0.0000
  0
LINE
  8
95
 10
-10.7155
 20
15.9512
 30
0.0000
 11
-10.9866
 21
16.2224
 31
0.0000
  0
LINE
  8
96
 10
5.1562
 20
-22.7838
 30
0.0000
 11
5.1562
 21
-21.1568
 31
0.0000
  0
LINE
  8
96
 10
5.1562
 20
-21.1568
 30
0.0000
 11
5.6985
 21
-21.6991
 31
0.0000
  0
LINE
  8
96
 10
5.6985
 20
-21.6991
 30
0.0000
 11
6.2409
 21
-21.1568
 31
0.0000
  0
LINE
  8
96
 10
6.2409
 20
-21.1568
 30
0.0000
 11
6.2409
 21
-22.7838
 31
0.0000
  0
LINE
  8
96
 10
6.7934
 20
-22.7838
 30
0.0000
 11
6.7934
 21
-21.6991
 31
0.0000
  0
LINE
  8
96
 10
6.7934
 20
-21.6991
 30
0.0000
 11
7.3357
 21
-21.1568
 31
0.0000
  0
LINE
  8
96
 10
7.3357
 20
-21.1568
 30
0.0000
 11
7.8780
 21
-21.6991
 31
0.0000
  0
LINE
  8
96
 10
7.8780
 20
-21.6991
 30
0.0000
 11
7.8780
 21
-22.7838
 31
0.0000
  0
LINE
  8
96
 10
6.7934
 20
-21.9703
 30
0.0000
 11
7.8780
 21
-21.9703
 31
0.0000
  0
LINE
  8
96
 10
8.4305
 20
-21.1568
 30
0.0000
 11
9.5152
 21
-22.7838
 31
0.0000
  0
LINE
  8
96
 10
9.5152
 20
-21.1568
 30
0.0000
 11
8.4305
 21
-22.7838
 31
0.0000
  0
LINE
  8
96
 10
10.0677
 20
-21.4280
 30
0.0000
 11
10.3388
 21
-21.1568
 31
0.0000
  0
LINE
  8
96
 10
10.3388
 20
-21.1568
 30
0.0000
 11
10.8812
 21
-21.1568
 31
0.0000
  0
LINE
  8
96
 10
10.8812
 20
-21.1568
 30
0.0000
 11
11.1523
 21
-21.4280
 31
0.0000
  0
LINE
  8
96
 10
11.1523
 20
-21.4280
 30
0.0000
 11
11.1523
 21
-21.6991
 31
0.0000
  0
LINE
  8
96
 10
11.1523
 20
-21.6991
 30
0.0000
 11
10.8812
 21
-21.9703
 31
0.0000
  0
LINE
  8
96
 10
10.8812
 20
-21.9703
 30
0.0000
 11
10.6100
 21
-21.9703
 31
0.0000
  0
LINE
  8
96
 10
10.8812
 20
-21.9703
 30
0.0000
 11
11.1523
 21
-22.2415
 31
0.0000
  0
LINE
  8
96
 10
11.1523
 20
-22.2415
 30
0.0000
 11
11.1523
 21
-22.5126
 31
0.0000
  0
LINE
  8
96
 10
11.1523
 20
-22.5126
 30
0.0000
 11
10.8812
 21
-22.7838
 31
0.0000
  0
LINE
  8
96
 10
10.8812
 20
-22.7838
 30
0.0000
 11
10.3388
 21
-22.7838
 31
0.0000
  0
LINE
  8
96
 10
10.3388
 20
-22.7838
 30
0.0000
 11
10.0677
 21
-22.5126
 31
0.0000
  0
LINE
  8
96
 10
12.7895
 20
-22.7838
 30
0.0000
 11
11.7048
 21
-22.7838
 31
0.0000
  0
LINE
  8
96
 10
11.7048
 20
-22.7838
 30
0.0000
 11
12.7895
 21
-21.6991
 31
0.0000
  0
LINE
  8
96
 10
12.7895
 20
-21.6991
 30
0.0000
 11
12.7895
 21
-21.4280
 31
0.0000
  0
LINE
  8
96
 10
12.7895
 20
-21.4280
 30
0.0000
 11
12.5183
 21
-21.1568
 31
0.0000
  0
LINE
  8
96
 10
12.5183
 20
-21.1568
 30
0.0000
 11
11.9760
 21
-21.1568
 31
0.0000
  0
LINE
  8
96
 10
11.9760
 20
-21.1568
 30
0.0000
 11
11.7048
 21
-21.4280
 31
0.0000
  0
LINE
  8
96
 10
13.3420
 20
-21.4280
 30
0.0000
 11
13.6131
 21
-21.1568
 31
0.0000
  0
LINE
  8
96
 10
13.6131
 20
-21.1568
 30
0.0000
 11
14.1555
 21
-21.1568
 31
0.0000
  0
LINE
  8
96
 10
14.1555
 20
-21.1568
 30
0.0000
 11
14.4266
 21
-21.4280
 31
0.0000
  0
LINE
  8
96
 10
14.4266
 20
-21.4280
 30
0.0000
 11
14.4266
 21
-21.6991
 31
0.0000
  0
LINE
  8
96
 10
14.4266
 20
-21.6991
 30
0.0000
 11
14.1555
 21
-21.9703
 31
0.0000
  0
LINE
  8
96
 10
14.1555
 20
-21.9703
 30
0.0000
 11
13.8843
 21
-21.9703
 31
0.0000
  0
LINE
  8
96
 10
14.1555
 20
-21.9703
 30
0.0000
 11
14.4266
 21
-22.2415
 31
0.0000
  0
LINE
  8
96
 10
14.4266
 20
-22.2415
 30
0.0000
 11
14.4266
 21
-22.5126
 31
0.0000
  0
LINE
  8
96
 10
14.4266
 20
-22.5126
 30
0.0000
 11
14.1555
 21
-22.7838
 31
0.0000
  0
LINE
  8
96
 10
14.1555
 20
-22.7838
 30
0.0000
 11
13.6131
 21
-22.7838
 31
0.0000
  0
LINE
  8
96
 10
13.6131
 20
-22.7838
 30
0.0000
 11
13.3420
 21
-22.5126
 31
0.0000
  0
LINE
  8
96
 10
16.0638
 20
-22.7838
 30
0.0000
 11
14.9791
 21
-22.7838
 31
0.0000
  0
LINE
  8
96
 10
14.9791
 20
-22.7838
 30
0.0000
 11
16.0638
 21
-21.6991
 31
0.0000
  0
LINE
  8
96
 10
16.0638
 20
-21.6991
 30
0.0000
 11
16.0638
 21
-21.4280
 31
0.0000
  0
LINE
  8
96
 10
16.0638
 20
-21.4280
 30
0.0000
 11
15.7926
 21
-21.1568
 31
0.0000
  0
LINE
  8
96
 10
15.7926
 20
-21.1568
 30
0.0000
 11
15.2503
 21
-21.1568
 31
0.0000
  0
LINE
  8
96
 10
15.2503
 20
-21.1568
 30
0.0000
 11
14.9791
 21
-21.4280
 31
0.0000
  0
LINE
  8
96
 10
16.6163
 20
-22.7838
 30
0.0000
 11
16.6163
 21
-21.1568
 31
0.0000
  0
LINE
  8
96
 10
16.6163
 20
-21.1568
 30
0.0000
 11
17.4298
 21
-21.1568
 31
0.0000
  0
LINE
  8
96
 10
17.4298
 20
-21.1568
 30
0.0000
 11
17.7010
 21
-21.4280
 31
0.0000
  0
LINE
  8
96
 10
17.7010
 20
-21.4280
 30
0.0000
 11
17.7010
 21
-21.9703
 31
0.0000
  0
LINE
  8
96
 10
17.7010
 20
-21.9703
 30
0.0000
 11
17.4298
 21
-22.2415
 31
0.0000
  0
LINE
  8
96
 10
17.4298
 20
-22.2415
 30
0.0000
 11
16.6163
 21
-22.2415
 31
0.0000
  0
LINE
  8
96
 10
18.7958
 20
-22.7838
 30
0.0000
 11
18.7958
 21
-21.1568
 31
0.0000
  0
LINE
  8
96
 10
18.2535
 20
-21.1568
 30
0.0000
 11
19.3381
 21
-21.1568
 31
0.0000
  0
LINE
  8
96
 10
19.8906
 20
-22.7838
 30
0.0000
 11
19.8906
 21
-21.1568
 31
0.0000
  0
LINE
  8
96
 10
19.8906
 20
-21.9703
 30
0.0000
 11
20.9753
 21
-21.9703
 31
0.0000
  0
LINE
  8
96
 10
20.9753
 20
-21.1568
 30
0.0000
 11
20.9753
 21
-22.7838
 31
0.0000
  0
LINE
  8
91
 10
0.0000
 20
20.3200
 30
0.0000
 11
0.0000
 21
27.9400
 31
0.0000
  0
LINE
  8
91
 10
0.0000
 20
27.9400
 30
0.0000
 11
22.8600
 21
27.9400
 31
0.0000
  0
LINE
  8
91
 10
22.8600
 20
27.9400
 30
0.0000
 11
22.8600
 21
22.8600
 31
0.0000
  0
LINE
  8
91
 10
-20.3200
 20
27.9400
 30
0.0000
 11
0.0000
 21
27.9400
 31
0.0000
  0
LINE
  8
91
 10
22.8600
 20
27.9400
 30
0.0000
 11
35.5600
 21
27.9400
 31
0.0000
  0
LINE
  8
91
 10
35.5600
 20
27.9400
 30
0.0000
 11
35.5600
 21
25.4000
 31
0.0000
  0
CIRCLE
  8
91
 10
0.0000
 20
27.9400
 30
0.0000
 40
0.5080
  0
CIRCLE
  8
91
 10
22.8600
 20
27.9400
 30
0.0000
 40
0.5080
  0
LINE
  8
95
 10
7.6962
 20
29.3720
 30
0.0000
 11
7.9674
 21
29.6432
 31
0.0000
  0
LINE
  8
95
 10
7.9674
 20
29.6432
 30
0.0000
 11
8.5097
 21
29.6432
 31
0.0000
  0
LINE
  8
95
 10
8.5097
 20
29.6432
 30
0.0000
 11
8.7809
 21
29.3720
 31
0.0000
  0
LINE
  8
95
 10
8.7809
 20
29.3720
 30
0.0000
 11
8.7809
 21
29.1009
 31
0.0000
  0
LINE
  8
95
 10
8.7809
 20
29.1009
 30
0.0000
 11
8.5097
 21
28.8297
 31
0.0000
  0
LINE
  8
95
 10
8.5097
 20
28.8297
 30
0.0000
 11
8.2385
 21
28.8297
 31
0.0000
  0
LINE
  8
95
 10
8.5097
 20
28.8297
 30
0.0000
 11
8.7809
 21
28.5585
 31
0.0000
  0
LINE
  8
95
 10
8.7809
 20
28.5585
 30
0.0000
 11
8.7809
 21
28.2874
 31
0.0000
  0
LINE
  8
95
 10
8.7809
 20
28.2874
 30
0.0000
 11
8.5097
 21
28.0162
 31
0.0000
  0
LINE
  8
95
 10
8.5097
 20
28.0162
 30
0.0000
 11
7.9674
 21
28.0162
 31
0.0000
  0
LINE
  8
95
 10
7.9674
 20
28.0162
 30
0.0000
 11
7.6962
 21
28.2874
 31
0.0000
  0
LINE
  8
95
 10
9.3334
 20
29.3720
 30
0.0000
 11
9.6045
 21
29.6432
 31
0.0000
  0
LINE
  8
95
 10
9.6045
 20
29.6432
 30
0.0000
 11
10.1469
 21
29.6432
 31
0.0000
  0
LINE
  8
95
 10
10.1469
 20
29.6432
 30
0.0000
 11
10.4180
 21
29.3720
 31
0.0000
  0
LINE
  8
95
 10
10.4180
 20
29.3720
 30
0.0000
 11
10.4180
 21
29.1009
 31
0.0000
  0
LINE
  8
95
 10
10.4180
 20
29.1009
 30
0.0000
 11
10.1469
 21
28.8297
 31
0.0000
  0
LINE
  8
95
 10
10.1469
 20
28.8297
 30
0.0000
 11
9.8757
 21
28.8297
 31
0.0000
  0
LINE
  8
95
 10
10.1469
 20
28.8297
 30
0.0000
 11
10.4180
 21
28.5585
 31
0.0000
  0
LINE
  8
95
 10
10.4180
 20
28.5585
 30
0.0000
 11
10.4180
 21
28.2874
 31
0.0000
  0
LINE
  8
95
 10
10.4180
 20
28.2874
 30
0.0000
 11
10.1469
 21
28.0162
 31
0.0000
  0
LINE
  8
95
 10
10.1469
 20
28.0162
 30
0.0000
 11
9.6045
 21
28.0162
 31
0.0000
  0
LINE
  8
95
 10
9.6045
 20
28.0162
 30
0.0000
 11
9.3334
 21
28.2874
 31
0.0000
  0
LINE
  8
95
 10
10.9705
 20
29.6432
 30
0.0000
 11
10.9705
 21
28.5585
 31
0.0000
  0
LINE
  8
95
 10
10.9705
 20
28.5585
 30
0.0000
 11
11.5128
 21
28.0162
 31
0.0000
  0
LINE
  8
95
 10
11.5128
 20
28.0162
 30
0.0000
 11
12.0552
 21
28.5585
 31
0.0000
  0
LINE
  8
95
 10
12.0552
 20
28.5585
 30
0.0000
 11
12.0552
 21
29.6432
 31
0.0000
  0
LINE
  8
91
 10
15.2400
 20
40.6400
 30
0.0000
 11
10.1600
 21
40.6400
 31
0.0000
  0
LINE
  8
95
 10
10.2362
 20
42.0720
 30
0.0000
 11
10.5074
 21
42.3432
 31
0.0000
  0
LINE
  8
95
 10
10.5074
 20
42.3432
 30
0.0000
 11
11.0497
 21
42.3432
 31
0.0000
  0
LINE
  8
95
 10
11.0497
 20
42.3432
 30
0.0000
 11
11.3209
 21
42.0720
 31
0.0000
  0
LINE
  8
95
 10
11.3209
 20
42.0720
 30
0.0000
 11
11.3209
 21
41.8009
 31
0.0000
  0
LINE
  8
95
 10
11.3209
 20
41.8009
 30
0.0000
 11
11.0497
 21
41.5297
 31
0.0000
  0
LINE
  8
95
 10
11.0497
 20
41.5297
 30
0.0000
 11
10.7785
 21
41.5297
 31
0.0000
  0
LINE
  8
95
 10
11.0497
 20
41.5297
 30
0.0000
 11
11.3209
 21
41.2585
 31
0.0000
  0
LINE
  8
95
 10
11.3209
 20
41.2585
 30
0.0000
 11
11.3209
 21
40.9874
 31
0.0000
  0
LINE
  8
95
 10
11.3209
 20
40.9874
 30
0.0000
 11
11.0497
 21
40.7162
 31
0.0000
  0
LINE
  8
95
 10
11.0497
 20
40.7162
 30
0.0000
 11
10.5074
 21
40.7162
 31
0.0000
  0
LINE
  8
95
 10
10.5074
 20
40.7162
 30
0.0000
 11
10.2362
 21
40.9874
 31
0.0000
  0
LINE
  8
95
 10
11.8734
 20
42.0720
 30
0.0000
 11
12.1445
 21
42.3432
 31
0.0000
  0
LINE
  8
95
 10
12.1445
 20
42.3432
 30
0.0000
 11
12.6868
 21
42.3432
 31
0.0000
  0
LINE
  8
95
 10
12.6868
 20
42.3432
 30
0.0000
 11
12.9580
 21
42.0720
 31
0.0000
  0
LINE
  8
95
 10
12.9580
 20
42.0720
 30
0.0000
 11
12.9580
 21
41.8009
 31
0.0000
  0
LINE
  8
95
 10
12.9580
 20
41.8009
 30
0.0000
 11
12.6868
 21
41.5297
 31
0.0000
  0
LINE
  8
95
 10
12.6868
 20
41.5297
 30
0.0000
 11
12.4157
 21
41.5297
 31
0.0000
  0
LINE
  8
95
 10
12.6868
 20
41.5297
 30
0.0000
 11
12.9580
 21
41.2585
 31
0.0000
  0
LINE
  8
95
 10
12.9580
 20
41.2585
 30
0.0000
 11
12.9580
 21
40.9874
 31
0.0000
  0
LINE
  8
95
 10
12.9580
 20
40.9874
 30
0.0000
 11
12.6868
 21
40.7162
 31
0.0000
  0
LINE
  8
95
 10
12.6868
 20
40.7162
 30
0.0000
 11
12.1445
 21
40.7162
 31
0.0000
  0
LINE
  8
95
 10
12.1445
 20
40.7162
 30
0.0000
 11
11.8734
 21
40.9874
 31
0.0000
  0
LINE
  8
95
 10
13.5105
 20
42.3432
 30
0.0000
 11
13.5105
 21
41.2585
 31
0.0000
  0
LINE
  8
95
 10
13.5105
 20
41.2585
 30
0.0000
 11
14.0528
 21
40.7162
 31
0.0000
  0
LINE
  8
95
 10
14.0528
 20
40.7162
 30
0.0000
 11
14.5952
 21
41.2585
 31
0.0000
  0
LINE
  8
95
 10
14.5952
 20
41.2585
 30
0.0000
 11
14.5952
 21
42.3432
 31
0.0000
  0
LINE
  8
91
 10
-17.7800
 20
-7.6200
 30
0.0000
 11
-20.3200
 21
-7.6200
 31
0.0000
  0
LINE
  8
91
 10
-20.3200
 20
-7.6200
 30
0.0000
 11
-20.3200
 21
-10.1600
 31
0.0000
  0
LINE
  8
91
 10
-20.3200
 20
-10.1600
 30
0.0000
 11
-38.1000
 21
-10.1600
 31
0.0000
  0
LINE
  8
91
 10
-38.1000
 20
27.9400
 30
0.0000
 11
-38.1000
 21
-10.1600
 31
0.0000
  0
LINE
  8
91
 10
-38.1000
 20
27.9400
 30
0.0000
 11
-30.4800
 21
27.9400
 31
0.0000
  0
LINE
  8
95
 10
-40.7524
 20
-10.2348
 30
0.0000
 11
-40.7524
 21
-11.8618
 31
0.0000
  0
LINE
  8
95
 10
-40.7524
 20
-11.8618
 30
0.0000
 11
-39.9389
 21
-11.8618
 31
0.0000
  0
LINE
  8
95
 10
-39.9389
 20
-11.8618
 30
0.0000
 11
-39.6677
 21
-11.5906
 31
0.0000
  0
LINE
  8
95
 10
-39.6677
 20
-11.5906
 30
0.0000
 11
-39.6677
 21
-10.5060
 31
0.0000
  0
LINE
  8
95
 10
-39.6677
 20
-10.5060
 30
0.0000
 11
-39.9389
 21
-10.2348
 31
0.0000
  0
LINE
  8
95
 10
-39.9389
 20
-10.2348
 30
0.0000
 11
-40.7524
 21
-10.2348
 31
0.0000
  0
LINE
  8
95
 10
-39.1152
 20
-11.8618
 30
0.0000
 11
-38.5729
 21
-11.8618
 31
0.0000
  0
LINE
  8
95
 10
-38.8441
 20
-11.8618
 30
0.0000
 11
-38.8441
 21
-10.2348
 31
0.0000
  0
LINE
  8
95
 10
-39.1152
 20
-10.2348
 30
0.0000
 11
-38.5729
 21
-10.2348
 31
0.0000
  0
LINE
  8
91
 10
15.2400
 20
45.7200
 30
0.0000
 11
10.1600
 21
45.7200
 31
0.0000
  0
LINE
  8
95
 10
10.2362
 20
47.4232
 30
0.0000
 11
10.2362
 21
45.7962
 31
0.0000
  0
LINE
  8
95
 10
10.2362
 20
45.7962
 30
0.0000
 11
11.0497
 21
45.7962
 31
0.0000
  0
LINE
  8
95
 10
11.0497
 20
45.7962
 30
0.0000
 11
11.3209
 21
46.0674
 31
0.0000
  0
LINE
  8
95
 10
11.3209
 20
46.0674
 30
0.0000
 11
11.3209
 21
47.1520
 31
0.0000
  0
LINE
  8
95
 10
11.3209
 20
47.1520
 30
0.0000
 11
11.0497
 21
47.4232
 31
0.0000
  0
LINE
  8
95
 10
11.0497
 20
47.4232
 30
0.0000
 11
10.2362
 21
47.4232
 31
0.0000
  0
LINE
  8
95
 10
11.8734
 20
45.7962
 30
0.0000
 11
12.4157
 21
45.7962
 31
0.0000
  0
LINE
  8
95
 10
12.1445
 20
45.7962
 30
0.0000
 11
12.1445
 21
47.4232
 31
0.0000
  0
LINE
  8
95
 10
11.8734
 20
47.4232
 30
0.0000
 11
12.4157
 21
47.4232
 31
0.0000
  0
LINE
  8
91
 10
-17.7800
 20
-12.7000
 30
0.0000
 11
-20.3200
 21
-12.7000
 31
0.0000
  0
LINE
  8
91
 10
-20.3200
 20
-12.7000
 30
0.0000
 11
-20.3200
 21
-22.8600
 31
0.0000
  0
LINE
  8
95
 10
-23.5181
 20
-20.3948
 30
0.0000
 11
-23.5181
 21
-22.0218
 31
0.0000
  0
LINE
  8
95
 10
-23.5181
 20
-22.0218
 30
0.0000
 11
-22.7046
 21
-22.0218
 31
0.0000
  0
LINE
  8
95
 10
-22.7046
 20
-22.0218
 30
0.0000
 11
-22.4335
 21
-21.7506
 31
0.0000
  0
LINE
  8
95
 10
-22.4335
 20
-21.7506
 30
0.0000
 11
-22.4335
 21
-20.6660
 31
0.0000
  0
LINE
  8
95
 10
-22.4335
 20
-20.6660
 30
0.0000
 11
-22.7046
 21
-20.3948
 31
0.0000
  0
LINE
  8
95
 10
-22.7046
 20
-20.3948
 30
0.0000
 11
-23.5181
 21
-20.3948
 31
0.0000
  0
LINE
  8
95
 10
-21.0675
 20
-20.3948
 30
0.0000
 11
-21.6098
 21
-20.3948
 31
0.0000
  0
LINE
  8
95
 10
-21.6098
 20
-20.3948
 30
0.0000
 11
-21.8810
 21
-20.6660
 31
0.0000
  0
LINE
  8
95
 10
-21.8810
 20
-20.6660
 30
0.0000
 11
-21.8810
 21
-21.7506
 31
0.0000
  0
LINE
  8
95
 10
-21.8810
 20
-21.7506
 30
0.0000
 11
-21.6098
 21
-22.0218
 31
0.0000
  0
LINE
  8
95
 10
-21.6098
 20
-22.0218
 30
0.0000
 11
-21.0675
 21
-22.0218
 31
0.0000
  0
LINE
  8
95
 10
-21.0675
 20
-22.0218
 30
0.0000
 11
-20.7963
 21
-21.7506
 31
0.0000
  0
LINE
  8
95
 10
-20.7963
 20
-21.7506
 30
0.0000
 11
-20.7963
 21
-20.6660
 31
0.0000
  0
LINE
  8
95
 10
-20.7963
 20
-20.6660
 30
0.0000
 11
-21.0675
 21
-20.3948
 31
0.0000
  0
LINE
  8
91
 10
15.2400
 20
43.1800
 30
0.0000
 11
10.1600
 21
43.1800
 31
0.0000
  0
LINE
  8
95
 10
10.2362
 20
44.8832
 30
0.0000
 11
10.2362
 21
43.2562
 31
0.0000
  0
LINE
  8
95
 10
10.2362
 20
43.2562
 30
0.0000
 11
11.0497
 21
43.2562
 31
0.0000
  0
LINE
  8
95
 10
11.0497
 20
43.2562
 30
0.0000
 11
11.3209
 21
43.5274
 31
0.0000
  0
LINE
  8
95
 10
11.3209
 20
43.5274
 30
0.0000
 11
11.3209
 21
44.6120
 31
0.0000
  0
LINE
  8
95
 10
11.3209
 20
44.6120
 30
0.0000
 11
11.0497
 21
44.8832
 31
0.0000
  0
LINE
  8
95
 10
11.0497
 20
44.8832
 30
0.0000
 11
10.2362
 21
44.8832
 31
0.0000
  0
LINE
  8
95
 10
12.6868
 20
44.8832
 30
0.0000
 11
12.1445
 21
44.8832
 31
0.0000
  0
LINE
  8
95
 10
12.1445
 20
44.8832
 30
0.0000
 11
11.8734
 21
44.6120
 31
0.0000
  0
LINE
  8
95
 10
11.8734
 20
44.6120
 30
0.0000
 11
11.8734
 21
43.5274
 31
0.0000
  0
LINE
  8
95
 10
11.8734
 20
43.5274
 30
0.0000
 11
12.1445
 21
43.2562
 31
0.0000
  0
LINE
  8
95
 10
12.1445
 20
43.2562
 30
0.0000
 11
12.6868
 21
43.2562
 31
0.0000
  0
LINE
  8
95
 10
12.6868
 20
43.2562
 30
0.0000
 11
12.9580
 21
43.5274
 31
0.0000
  0
LINE
  8
95
 10
12.9580
 20
43.5274
 30
0.0000
 11
12.9580
 21
44.6120
 31
0.0000
  0
LINE
  8
95
 10
12.9580
 20
44.6120
 30
0.0000
 11
12.6868
 21
44.8832
 31
0.0000
  0
LINE
  8
91
 10
40.6400
 20
5.0800
 30
0.0000
 11
30.4800
 21
5.0800
 31
0.0000
  0
LINE
  8
91
 10
15.2400
 20
38.1000
 30
0.0000
 11
10.1600
 21
38.1000
 31
0.0000
  0
LINE
  8
95
 10
11.3209
 20
39.5320
 30
0.0000
 11
11.0497
 21
39.8032
 31
0.0000
  0
LINE
  8
95
 10
11.0497
 20
39.8032
 30
0.0000
 11
10.5074
 21
39.8032
 31
0.0000
  0
LINE
  8
95
 10
10.5074
 20
39.8032
 30
0.0000
 11
10.2362
 21
39.5320
 31
0.0000
  0
LINE
  8
95
 10
10.2362
 20
39.5320
 30
0.0000
 11
10.2362
 21
38.4474
 31
0.0000
  0
LINE
  8
95
 10
10.2362
 20
38.4474
 30
0.0000
 11
10.5074
 21
38.1762
 31
0.0000
  0
LINE
  8
95
 10
10.5074
 20
38.1762
 30
0.0000
 11
11.0497
 21
38.1762
 31
0.0000
  0
LINE
  8
95
 10
11.0497
 20
38.1762
 30
0.0000
 11
11.3209
 21
38.4474
 31
0.0000
  0
LINE
  8
95
 10
11.3209
 20
38.4474
 30
0.0000
 11
11.3209
 21
38.9897
 31
0.0000
  0
LINE
  8
95
 10
11.3209
 20
38.9897
 30
0.0000
 11
10.7785
 21
38.9897
 31
0.0000
  0
LINE
  8
95
 10
11.8734
 20
38.1762
 30
0.0000
 11
11.8734
 21
39.8032
 31
0.0000
  0
LINE
  8
95
 10
11.8734
 20
39.8032
 30
0.0000
 11
12.9580
 21
38.1762
 31
0.0000
  0
LINE
  8
95
 10
12.9580
 20
38.1762
 30
0.0000
 11
12.9580
 21
39.8032
 31
0.0000
  0
LINE
  8
95
 10
13.5105
 20
39.8032
 30
0.0000
 11
13.5105
 21
38.1762
 31
0.0000
  0
LINE
  8
95
 10
13.5105
 20
38.1762
 30
0.0000
 11
14.3240
 21
38.1762
 31
0.0000
  0
LINE
  8
95
 10
14.3240
 20
38.1762
 30
0.0000
 11
14.5952
 21
38.4474
 31
0.0000
  0
LINE
  8
95
 10
14.5952
 20
38.4474
 30
0.0000
 11
14.5952
 21
39.5320
 31
0.0000
  0
LINE
  8
95
 10
14.5952
 20
39.5320
 30
0.0000
 11
14.3240
 21
39.8032
 31
0.0000
  0
LINE
  8
95
 10
14.3240
 20
39.8032
 30
0.0000
 11
13.5105
 21
39.8032
 31
0.0000
  0
LINE
  8
91
 10
35.5600
 20
17.7800
 30
0.0000
 11
35.5600
 21
15.2400
 31
0.0000
  0
LINE
  8
95
 10
36.7209
 20
16.6720
 30
0.0000
 11
36.4497
 21
16.9432
 31
0.0000
  0
LINE
  8
95
 10
36.4497
 20
16.9432
 30
0.0000
 11
35.9074
 21
16.9432
 31
0.0000
  0
LINE
  8
95
 10
35.9074
 20
16.9432
 30
0.0000
 11
35.6362
 21
16.6720
 31
0.0000
  0
LINE
  8
95
 10
35.6362
 20
16.6720
 30
0.0000
 11
35.6362
 21
15.5874
 31
0.0000
  0
LINE
  8
95
 10
35.6362
 20
15.5874
 30
0.0000
 11
35.9074
 21
15.3162
 31
0.0000
  0
LINE
  8
95
 10
35.9074
 20
15.3162
 30
0.0000
 11
36.4497
 21
15.3162
 31
0.0000
  0
LINE
  8
95
 10
36.4497
 20
15.3162
 30
0.0000
 11
36.7209
 21
15.5874
 31
0.0000
  0
LINE
  8
95
 10
36.7209
 20
15.5874
 30
0.0000
 11
36.7209
 21
16.1297
 31
0.0000
  0
LINE
  8
95
 10
36.7209
 20
16.1297
 30
0.0000
 11
36.1785
 21
16.1297
 31
0.0000
  0
LINE
  8
95
 10
37.2734
 20
15.3162
 30
0.0000
 11
37.2734
 21
16.9432
 31
0.0000
  0
LINE
  8
95
 10
37.2734
 20
16.9432
 30
0.0000
 11
38.3580
 21
15.3162
 31
0.0000
  0
LINE
  8
95
 10
38.3580
 20
15.3162
 30
0.0000
 11
38.3580
 21
16.9432
 31
0.0000
  0
LINE
  8
95
 10
38.9105
 20
16.9432
 30
0.0000
 11
38.9105
 21
15.3162
 31
0.0000
  0
LINE
  8
95
 10
38.9105
 20
15.3162
 30
0.0000
 11
39.7240
 21
15.3162
 31
0.0000
  0
LINE
  8
95
 10
39.7240
 20
15.3162
 30
0.0000
 11
39.9952
 21
15.5874
 31
0.0000
  0
LINE
  8
95
 10
39.9952
 20
15.5874
 30
0.0000
 11
39.9952
 21
16.6720
 31
0.0000
  0
LINE
  8
95
 10
39.9952
 20
16.6720
 30
0.0000
 11
39.7240
 21
16.9432
 31
0.0000
  0
LINE
  8
95
 10
39.7240
 20
16.9432
 30
0.0000
 11
38.9105
 21
16.9432
 31
0.0000
  0
LINE
  8
91
 10
-25.4000
 20
40.6400
 30
0.0000
 11
-38.1000
 21
40.6400
 31
0.0000
  0
LINE
  8
95
 10
-36.9391
 20
42.0720
 30
0.0000
 11
-37.2103
 21
42.3432
 31
0.0000
  0
LINE
  8
95
 10
-37.2103
 20
42.3432
 30
0.0000
 11
-37.7526
 21
42.3432
 31
0.0000
  0
LINE
  8
95
 10
-37.7526
 20
42.3432
 30
0.0000
 11
-38.0238
 21
42.0720
 31
0.0000
  0
LINE
  8
95
 10
-38.0238
 20
42.0720
 30
0.0000
 11
-38.0238
 21
40.9874
 31
0.0000
  0
LINE
  8
95
 10
-38.0238
 20
40.9874
 30
0.0000
 11
-37.7526
 21
40.7162
 31
0.0000
  0
LINE
  8
95
 10
-37.7526
 20
40.7162
 30
0.0000
 11
-37.2103
 21
40.7162
 31
0.0000
  0
LINE
  8
95
 10
-37.2103
 20
40.7162
 30
0.0000
 11
-36.9391
 21
40.9874
 31
0.0000
  0
LINE
  8
95
 10
-36.9391
 20
40.9874
 30
0.0000
 11
-36.9391
 21
41.5297
 31
0.0000
  0
LINE
  8
95
 10
-36.9391
 20
41.5297
 30
0.0000
 11
-37.4815
 21
41.5297
 31
0.0000
  0
LINE
  8
95
 10
-36.3866
 20
40.7162
 30
0.0000
 11
-36.3866
 21
42.3432
 31
0.0000
  0
LINE
  8
95
 10
-36.3866
 20
42.3432
 30
0.0000
 11
-35.3020
 21
40.7162
 31
0.0000
  0
LINE
  8
95
 10
-35.3020
 20
40.7162
 30
0.0000
 11
-35.3020
 21
42.3432
 31
0.0000
  0
LINE
  8
95
 10
-34.7495
 20
42.3432
 30
0.0000
 11
-34.7495
 21
40.7162
 31
0.0000
  0
LINE
  8
95
 10
-34.7495
 20
40.7162
 30
0.0000
 11
-33.9360
 21
40.7162
 31
0.0000
  0
LINE
  8
95
 10
-33.9360
 20
40.7162
 30
0.0000
 11
-33.6648
 21
40.9874
 31
0.0000
  0
LINE
  8
95
 10
-33.6648
 20
40.9874
 30
0.0000
 11
-33.6648
 21
42.0720
 31
0.0000
  0
LINE
  8
95
 10
-33.6648
 20
42.0720
 30
0.0000
 11
-33.9360
 21
42.3432
 31
0.0000
  0
LINE
  8
95
 10
-33.9360
 20
42.3432
 30
0.0000
 11
-34.7495
 21
42.3432
 31
0.0000
  0
LINE
  8
91
 10
0.0000
 20
-22.8600
 30
0.0000
 11
0.0000
 21
-30.4800
 31
0.0000
  0
LINE
  8
95
 10
-3.7506
 20
-30.8260
 30
0.0000
 11
-4.0218
 21
-30.5548
 31
0.0000
  0
LINE
  8
95
 10
-4.0218
 20
-30.5548
 30
0.0000
 11
-4.5641
 21
-30.5548
 31
0.0000
  0
LINE
  8
95
 10
-4.5641
 20
-30.5548
 30
0.0000
 11
-4.8353
 21
-30.8260
 31
0.0000
  0
LINE
  8
95
 10
-4.8353
 20
-30.8260
 30
0.0000
 11
-4.8353
 21
-31.9106
 31
0.0000
  0
LINE
  8
95
 10
-4.8353
 20
-31.9106
 30
0.0000
 11
-4.5641
 21
-32.1818
 31
0.0000
  0
LINE
  8
95
 10
-4.5641
 20
-32.1818
 30
0.0000
 11
-4.0218
 21
-32.1818
 31
0.0000
  0
LINE
  8
95
 10
-4.0218
 20
-32.1818
 30
0.0000
 11
-3.7506
 21
-31.9106
 31
0.0000
  0
LINE
  8
95
 10
-3.7506
 20
-31.9106
 30
0.0000
 11
-3.7506
 21
-31.3683
 31
0.0000
  0
LINE
  8
95
 10
-3.7506
 20
-31.3683
 30
0.0000
 11
-4.2929
 21
-31.3683
 31
0.0000
  0
LINE
  8
95
 10
-3.1981
 20
-32.1818
 30
0.0000
 11
-3.1981
 21
-30.5548
 31
0.0000
  0
LINE
  8
95
 10
-3.1981
 20
-30.5548
 30
0.0000
 11
-2.1135
 21
-32.1818
 31
0.0000
  0
LINE
  8
95
 10
-2.1135
 20
-32.1818
 30
0.0000
 11
-2.1135
 21
-30.5548
 31
0.0000
  0
LINE
  8
95
 10
-1.5610
 20
-30.5548
 30
0.0000
 11
-1.5610
 21
-32.1818
 31
0.0000
  0
LINE
  8
95
 10
-1.5610
 20
-32.1818
 30
0.0000
 11
-0.7475
 21
-32.1818
 31
0.0000
  0
LINE
  8
95
 10
-0.7475
 20
-32.1818
 30
0.0000
 11
-0.4763
 21
-31.9106
 31
0.0000
  0
LINE
  8
95
 10
-0.4763
 20
-31.9106
 30
0.0000
 11
-0.4763
 21
-30.8260
 31
0.0000
  0
LINE
  8
95
 10
-0.4763
 20
-30.8260
 30
0.0000
 11
-0.7475
 21
-30.5548
 31
0.0000
  0
LINE
  8
95
 10
-0.7475
 20
-30.5548
 30
0.0000
 11
-1.5610
 21
-30.5548
 31
0.0000
  0
LINE
  8
91
 10
-17.7800
 20
12.7000
 30
0.0000
 11
-33.0200
 21
12.7000
 31
0.0000
  0
LINE
  8
91
 10
-33.0200
 20
5.0800
 30
0.0000
 11
-17.7800
 21
5.0800
 31
0.0000
  0
LINE
  8
91
 10
-17.7800
 20
5.0800
 30
0.0000
 11
-17.7800
 21
7.6200
 31
0.0000
  0
LINE
  8
91
 10
-17.7800
 20
2.5400
 30
0.0000
 11
-33.0200
 21
2.5400
 31
0.0000
  0
LINE
  8
91
 10
-17.7800
 20
-2.5400
 30
0.0000
 11
-22.8600
 21
-2.5400
 31
0.0000
  0
LINE
  8
91
 10
-22.8600
 20
-2.5400
 30
0.0000
 11
-22.8600
 21
-7.6200
 31
0.0000
  0
LINE
  8
91
 10
-22.8600
 20
-7.6200
 30
0.0000
 11
-33.0200
 21
-7.6200
 31
0.0000
  0
LINE
  8
91
 10
-33.0200
 20
-7.6200
 30
0.0000
 11
-33.0200
 21
-5.0800
 31
0.0000
  0
LINE
  8
91
 10
17.7800
 20
10.1600
 30
0.0000
 11
22.8600
 21
10.1600
 31
0.0000
  0
LINE
  8
91
 10
22.8600
 20
10.1600
 30
0.0000
 11
22.8600
 21
15.2400
 31
0.0000
  0
LINE
  8
91
 10
17.7800
 20
5.0800
 30
0.0000
 11
22.8600
 21
5.0800
 31
0.0000
  0
LINE
  8
91
 10
17.7800
 20
-12.7000
 30
0.0000
 11
27.9400
 21
-12.7000
 31
0.0000
  0
LINE
  8
95
 10
17.8562
 20
-12.6238
 30
0.0000
 11
17.8562
 21
-10.9968
 31
0.0000
  0
LINE
  8
95
 10
17.8562
 20
-10.9968
 30
0.0000
 11
18.6697
 21
-10.9968
 31
0.0000
  0
LINE
  8
95
 10
18.6697
 20
-10.9968
 30
0.0000
 11
18.9409
 21
-11.2680
 31
0.0000
  0
LINE
  8
95
 10
18.9409
 20
-11.2680
 30
0.0000
 11
18.9409
 21
-11.8103
 31
0.0000
  0
LINE
  8
95
 10
18.9409
 20
-11.8103
 30
0.0000
 11
18.6697
 21
-12.0815
 31
0.0000
  0
LINE
  8
95
 10
18.6697
 20
-12.0815
 30
0.0000
 11
17.8562
 21
-12.0815
 31
0.0000
  0
LINE
  8
95
 10
18.3985
 20
-12.0815
 30
0.0000
 11
18.9409
 21
-12.6238
 31
0.0000
  0
LINE
  8
95
 10
20.5780
 20
-11.2680
 30
0.0000
 11
20.3069
 21
-10.9968
 31
0.0000
  0
LINE
  8
95
 10
20.3069
 20
-10.9968
 30
0.0000
 11
19.7645
 21
-10.9968
 31
0.0000
  0
LINE
  8
95
 10
19.7645
 20
-10.9968
 30
0.0000
 11
19.4934
 21
-11.2680
 31
0.0000
  0
LINE
  8
95
 10
19.4934
 20
-11.2680
 30
0.0000
 11
19.4934
 21
-11.5391
 31
0.0000
  0
LINE
  8
95
 10
19.4934
 20
-11.5391
 30
0.0000
 11
19.7645
 21
-11.8103
 31
0.0000
  0
LINE
  8
95
 10
19.7645
 20
-11.8103
 30
0.0000
 11
20.3069
 21
-11.8103
 31
0.0000
  0
LINE
  8
95
 10
20.3069
 20
-11.8103
 30
0.0000
 11
20.5780
 21
-12.0815
 31
0.0000
  0
LINE
  8
95
 10
20.5780
 20
-12.0815
 30
0.0000
 11
20.5780
 21
-12.3526
 31
0.0000
  0
LINE
  8
95
 10
20.5780
 20
-12.3526
 30
0.0000
 11
20.3069
 21
-12.6238
 31
0.0000
  0
LINE
  8
95
 10
20.3069
 20
-12.6238
 30
0.0000
 11
19.7645
 21
-12.6238
 31
0.0000
  0
LINE
  8
95
 10
19.7645
 20
-12.6238
 30
0.0000
 11
19.4934
 21
-12.3526
 31
0.0000
  0
LINE
  8
95
 10
22.2152
 20
-12.6238
 30
0.0000
 11
21.1305
 21
-12.6238
 31
0.0000
  0
LINE
  8
95
 10
21.1305
 20
-12.6238
 30
0.0000
 11
22.2152
 21
-11.5391
 31
0.0000
  0
LINE
  8
95
 10
22.2152
 20
-11.5391
 30
0.0000
 11
22.2152
 21
-11.2680
 31
0.0000
  0
LINE
  8
95
 10
22.2152
 20
-11.2680
 30
0.0000
 11
21.9440
 21
-10.9968
 31
0.0000
  0
LINE
  8
95
 10
21.9440
 20
-10.9968
 30
0.0000
 11
21.4017
 21
-10.9968
 31
0.0000
  0
LINE
  8
95
 10
21.4017
 20
-10.9968
 30
0.0000
 11
21.1305
 21
-11.2680
 31
0.0000
  0
LINE
  8
95
 10
22.7677
 20
-11.2680
 30
0.0000
 11
23.0388
 21
-10.9968
 31
0.0000
  0
LINE
  8
95
 10
23.0388
 20
-10.9968
 30
0.0000
 11
23.5812
 21
-10.9968
 31
0.0000
  0
LINE
  8
95
 10
23.5812
 20
-10.9968
 30
0.0000
 11
23.8523
 21
-11.2680
 31
0.0000
  0
LINE
  8
95
 10
23.8523
 20
-11.2680
 30
0.0000
 11
23.8523
 21
-11.5391
 31
0.0000
  0
LINE
  8
95
 10
23.8523
 20
-11.5391
 30
0.0000
 11
23.5812
 21
-11.8103
 31
0.0000
  0
LINE
  8
95
 10
23.5812
 20
-11.8103
 30
0.0000
 11
23.3100
 21
-11.8103
 31
0.0000
  0
LINE
  8
95
 10
23.5812
 20
-11.8103
 30
0.0000
 11
23.8523
 21
-12.0815
 31
0.0000
  0
LINE
  8
95
 10
23.8523
 20
-12.0815
 30
0.0000
 11
23.8523
 21
-12.3526
 31
0.0000
  0
LINE
  8
95
 10
23.8523
 20
-12.3526
 30
0.0000
 11
23.5812
 21
-12.6238
 31
0.0000
  0
LINE
  8
95
 10
23.5812
 20
-12.6238
 30
0.0000
 11
23.0388
 21
-12.6238
 31
0.0000
  0
LINE
  8
95
 10
23.0388
 20
-12.6238
 30
0.0000
 11
22.7677
 21
-12.3526
 31
0.0000
  0
LINE
  8
95
 10
25.4895
 20
-12.6238
 30
0.0000
 11
24.4048
 21
-12.6238
 31
0.0000
  0
LINE
  8
95
 10
24.4048
 20
-12.6238
 30
0.0000
 11
25.4895
 21
-11.5391
 31
0.0000
  0
LINE
  8
95
 10
25.4895
 20
-11.5391
 30
0.0000
 11
25.4895
 21
-11.2680
 31
0.0000
  0
LINE
  8
95
 10
25.4895
 20
-11.2680
 30
0.0000
 11
25.2183
 21
-10.9968
 31
0.0000
  0
LINE
  8
95
 10
25.2183
 20
-10.9968
 30
0.0000
 11
24.6760
 21
-10.9968
 31
0.0000
  0
LINE
  8
95
 10
24.6760
 20
-10.9968
 30
0.0000
 11
24.4048
 21
-11.2680
 31
0.0000
  0
LINE
  8
95
 10
26.0420
 20
-10.9968
 30
0.0000
 11
26.0420
 21
-12.6238
 31
0.0000
  0
LINE
  8
95
 10
26.0420
 20
-12.6238
 30
0.0000
 11
26.8555
 21
-12.6238
 31
0.0000
  0
LINE
  8
95
 10
26.8555
 20
-12.6238
 30
0.0000
 11
27.1266
 21
-12.3526
 31
0.0000
  0
LINE
  8
95
 10
27.1266
 20
-12.3526
 30
0.0000
 11
27.1266
 21
-11.2680
 31
0.0000
  0
LINE
  8
95
 10
27.1266
 20
-11.2680
 30
0.0000
 11
26.8555
 21
-10.9968
 31
0.0000
  0
LINE
  8
95
 10
26.8555
 20
-10.9968
 30
0.0000
 11
26.0420
 21
-10.9968
 31
0.0000
  0
LINE
  8
95
 10
27.6791
 20
-12.6238
 30
0.0000
 11
28.2215
 21
-12.6238
 31
0.0000
  0
LINE
  8
95
 10
27.9503
 20
-12.6238
 30
0.0000
 11
27.9503
 21
-10.9968
 31
0.0000
  0
LINE
  8
95
 10
27.6791
 20
-10.9968
 30
0.0000
 11
28.2215
 21
-10.9968
 31
0.0000
  0
LINE
  8
91
 10
-22.8600
 20
45.7200
 30
0.0000
 11
-25.4000
 21
45.7200
 31
0.0000
  0
LINE
  8
91
 10
-25.4000
 20
45.7200
 30
0.0000
 11
-38.1000
 21
45.7200
 31
0.0000
  0
CIRCLE
  8
91
 10
-25.4000
 20
45.7200
 30
0.0000
 40
0.5080
  0
LINE
  8
95
 10
-38.0238
 20
45.7962
 30
0.0000
 11
-38.0238
 21
47.4232
 31
0.0000
  0
LINE
  8
95
 10
-38.0238
 20
47.4232
 30
0.0000
 11
-37.2103
 21
47.4232
 31
0.0000
  0
LINE
  8
95
 10
-37.2103
 20
47.4232
 30
0.0000
 11
-36.9391
 21
47.1520
 31
0.0000
  0
LINE
  8
95
 10
-36.9391
 20
47.1520
 30
0.0000
 11
-36.9391
 21
46.6097
 31
0.0000
  0
LINE
  8
95
 10
-36.9391
 20
46.6097
 30
0.0000
 11
-37.2103
 21
46.3385
 31
0.0000
  0
LINE
  8
95
 10
-37.2103
 20
46.3385
 30
0.0000
 11
-38.0238
 21
46.3385
 31
0.0000
  0
LINE
  8
95
 10
-37.4815
 20
46.3385
 30
0.0000
 11
-36.9391
 21
45.7962
 31
0.0000
  0
LINE
  8
95
 10
-35.3020
 20
47.1520
 30
0.0000
 11
-35.5731
 21
47.4232
 31
0.0000
  0
LINE
  8
95
 10
-35.5731
 20
47.4232
 30
0.0000
 11
-36.1155
 21
47.4232
 31
0.0000
  0
LINE
  8
95
 10
-36.1155
 20
47.4232
 30
0.0000
 11
-36.3866
 21
47.1520
 31
0.0000
  0
LINE
  8
95
 10
-36.3866
 20
47.1520
 30
0.0000
 11
-36.3866
 21
46.8809
 31
0.0000
  0
LINE
  8
95
 10
-36.3866
 20
46.8809
 30
0.0000
 11
-36.1155
 21
46.6097
 31
0.0000
  0
LINE
  8
95
 10
-36.1155
 20
46.6097
 30
0.0000
 11
-35.5731
 21
46.6097
 31
0.0000
  0
LINE
  8
95
 10
-35.5731
 20
46.6097
 30
0.0000
 11
-35.3020
 21
46.3385
 31
0.0000
  0
LINE
  8
95
 10
-35.3020
 20
46.3385
 30
0.0000
 11
-35.3020
 21
46.0674
 31
0.0000
  0
LINE
  8
95
 10
-35.3020
 20
46.0674
 30
0.0000
 11
-35.5731
 21
45.7962
 31
0.0000
  0
LINE
  8
95
 10
-35.5731
 20
45.7962
 30
0.0000
 11
-36.1155
 21
45.7962
 31
0.0000
  0
LINE
  8
95
 10
-36.1155
 20
45.7962
 30
0.0000
 11
-36.3866
 21
46.0674
 31
0.0000
  0
LINE
  8
95
 10
-33.6648
 20
45.7962
 30
0.0000
 11
-34.7495
 21
45.7962
 31
0.0000
  0
LINE
  8
95
 10
-34.7495
 20
45.7962
 30
0.0000
 11
-33.6648
 21
46.8809
 31
0.0000
  0
LINE
  8
95
 10
-33.6648
 20
46.8809
 30
0.0000
 11
-33.6648
 21
47.1520
 31
0.0000
  0
LINE
  8
95
 10
-33.6648
 20
47.1520
 30
0.0000
 11
-33.9360
 21
47.4232
 31
0.0000
  0
LINE
  8
95
 10
-33.9360
 20
47.4232
 30
0.0000
 11
-34.4783
 21
47.4232
 31
0.0000
  0
LINE
  8
95
 10
-34.4783
 20
47.4232
 30
0.0000
 11
-34.7495
 21
47.1520
 31
0.0000
  0
LINE
  8
95
 10
-33.1123
 20
47.1520
 30
0.0000
 11
-32.8412
 21
47.4232
 31
0.0000
  0
LINE
  8
95
 10
-32.8412
 20
47.4232
 30
0.0000
 11
-32.2988
 21
47.4232
 31
0.0000
  0
LINE
  8
95
 10
-32.2988
 20
47.4232
 30
0.0000
 11
-32.0277
 21
47.1520
 31
0.0000
  0
LINE
  8
95
 10
-32.0277
 20
47.1520
 30
0.0000
 11
-32.0277
 21
46.8809
 31
0.0000
  0
LINE
  8
95
 10
-32.0277
 20
46.8809
 30
0.0000
 11
-32.2988
 21
46.6097
 31
0.0000
  0
LINE
  8
95
 10
-32.2988
 20
46.6097
 30
0.0000
 11
-32.5700
 21
46.6097
 31
0.0000
  0
LINE
  8
95
 10
-32.2988
 20
46.6097
 30
0.0000
 11
-32.0277
 21
46.3385
 31
0.0000
  0
LINE
  8
95
 10
-32.0277
 20
46.3385
 30
0.0000
 11
-32.0277
 21
46.0674
 31
0.0000
  0
LINE
  8
95
 10
-32.0277
 20
46.0674
 30
0.0000
 11
-32.2988
 21
45.7962
 31
0.0000
  0
LINE
  8
95
 10
-32.2988
 20
45.7962
 30
0.0000
 11
-32.8412
 21
45.7962
 31
0.0000
  0
LINE
  8
95
 10
-32.8412
 20
45.7962
 30
0.0000
 11
-33.1123
 21
46.0674
 31
0.0000
  0
LINE
  8
95
 10
-30.3905
 20
45.7962
 30
0.0000
 11
-31.4752
 21
45.7962
 31
0.0000
  0
LINE
  8
95
 10
-31.4752
 20
45.7962
 30
0.0000
 11
-30.3905
 21
46.8809
 31
0.0000
  0
LINE
  8
95
 10
-30.3905
 20
46.8809
 30
0.0000
 11
-30.3905
 21
47.1520
 31
0.0000
  0
LINE
  8
95
 10
-30.3905
 20
47.1520
 30
0.0000
 11
-30.6617
 21
47.4232
 31
0.0000
  0
LINE
  8
95
 10
-30.6617
 20
47.4232
 30
0.0000
 11
-31.2040
 21
47.4232
 31
0.0000
  0
LINE
  8
95
 10
-31.2040
 20
47.4232
 30
0.0000
 11
-31.4752
 21
47.1520
 31
0.0000
  0
LINE
  8
95
 10
-29.8380
 20
47.4232
 30
0.0000
 11
-29.8380
 21
45.7962
 31
0.0000
  0
LINE
  8
95
 10
-29.8380
 20
45.7962
 30
0.0000
 11
-29.0245
 21
45.7962
 31
0.0000
  0
LINE
  8
95
 10
-29.0245
 20
45.7962
 30
0.0000
 11
-28.7534
 21
46.0674
 31
0.0000
  0
LINE
  8
95
 10
-28.7534
 20
46.0674
 30
0.0000
 11
-28.7534
 21
47.1520
 31
0.0000
  0
LINE
  8
95
 10
-28.7534
 20
47.1520
 30
0.0000
 11
-29.0245
 21
47.4232
 31
0.0000
  0
LINE
  8
95
 10
-29.0245
 20
47.4232
 30
0.0000
 11
-29.8380
 21
47.4232
 31
0.0000
  0
LINE
  8
95
 10
-28.2009
 20
45.7962
 30
0.0000
 11
-27.6585
 21
45.7962
 31
0.0000
  0
LINE
  8
95
 10
-27.9297
 20
45.7962
 30
0.0000
 11
-27.9297
 21
47.4232
 31
0.0000
  0
LINE
  8
95
 10
-28.2009
 20
47.4232
 30
0.0000
 11
-27.6585
 21
47.4232
 31
0.0000
  0
LINE
  8
91
 10
-25.4000
 20
48.2600
 30
0.0000
 11
-38.1000
 21
48.2600
 31
0.0000
  0
LINE
  8
95
 10
-38.0238
 20
48.3362
 30
0.0000
 11
-38.0238
 21
49.9632
 31
0.0000
  0
LINE
  8
95
 10
-38.0238
 20
49.9632
 30
0.0000
 11
-37.2103
 21
49.9632
 31
0.0000
  0
LINE
  8
95
 10
-37.2103
 20
49.9632
 30
0.0000
 11
-36.9391
 21
49.6920
 31
0.0000
  0
LINE
  8
95
 10
-36.9391
 20
49.6920
 30
0.0000
 11
-36.9391
 21
49.1497
 31
0.0000
  0
LINE
  8
95
 10
-36.9391
 20
49.1497
 30
0.0000
 11
-37.2103
 21
48.8785
 31
0.0000
  0
LINE
  8
95
 10
-37.2103
 20
48.8785
 30
0.0000
 11
-38.0238
 21
48.8785
 31
0.0000
  0
LINE
  8
95
 10
-37.4815
 20
48.8785
 30
0.0000
 11
-36.9391
 21
48.3362
 31
0.0000
  0
LINE
  8
95
 10
-35.3020
 20
49.6920
 30
0.0000
 11
-35.5731
 21
49.9632
 31
0.0000
  0
LINE
  8
95
 10
-35.5731
 20
49.9632
 30
0.0000
 11
-36.1155
 21
49.9632
 31
0.0000
  0
LINE
  8
95
 10
-36.1155
 20
49.9632
 30
0.0000
 11
-36.3866
 21
49.6920
 31
0.0000
  0
LINE
  8
95
 10
-36.3866
 20
49.6920
 30
0.0000
 11
-36.3866
 21
49.4209
 31
0.0000
  0
LINE
  8
95
 10
-36.3866
 20
49.4209
 30
0.0000
 11
-36.1155
 21
49.1497
 31
0.0000
  0
LINE
  8
95
 10
-36.1155
 20
49.1497
 30
0.0000
 11
-35.5731
 21
49.1497
 31
0.0000
  0
LINE
  8
95
 10
-35.5731
 20
49.1497
 30
0.0000
 11
-35.3020
 21
48.8785
 31
0.0000
  0
LINE
  8
95
 10
-35.3020
 20
48.8785
 30
0.0000
 11
-35.3020
 21
48.6074
 31
0.0000
  0
LINE
  8
95
 10
-35.3020
 20
48.6074
 30
0.0000
 11
-35.5731
 21
48.3362
 31
0.0000
  0
LINE
  8
95
 10
-35.5731
 20
48.3362
 30
0.0000
 11
-36.1155
 21
48.3362
 31
0.0000
  0
LINE
  8
95
 10
-36.1155
 20
48.3362
 30
0.0000
 11
-36.3866
 21
48.6074
 31
0.0000
  0
LINE
  8
95
 10
-33.6648
 20
48.3362
 30
0.0000
 11
-34.7495
 21
48.3362
 31
0.0000
  0
LINE
  8
95
 10
-34.7495
 20
48.3362
 30
0.0000
 11
-33.6648
 21
49.4209
 31
0.0000
  0
LINE
  8
95
 10
-33.6648
 20
49.4209
 30
0.0000
 11
-33.6648
 21
49.6920
 31
0.0000
  0
LINE
  8
95
 10
-33.6648
 20
49.6920
 30
0.0000
 11
-33.9360
 21
49.9632
 31
0.0000
  0
LINE
  8
95
 10
-33.9360
 20
49.9632
 30
0.0000
 11
-34.4783
 21
49.9632
 31
0.0000
  0
LINE
  8
95
 10
-34.4783
 20
49.9632
 30
0.0000
 11
-34.7495
 21
49.6920
 31
0.0000
  0
LINE
  8
95
 10
-33.1123
 20
49.6920
 30
0.0000
 11
-32.8412
 21
49.9632
 31
0.0000
  0
LINE
  8
95
 10
-32.8412
 20
49.9632
 30
0.0000
 11
-32.2988
 21
49.9632
 31
0.0000
  0
LINE
  8
95
 10
-32.2988
 20
49.9632
 30
0.0000
 11
-32.0277
 21
49.6920
 31
0.0000
  0
LINE
  8
95
 10
-32.0277
 20
49.6920
 30
0.0000
 11
-32.0277
 21
49.4209
 31
0.0000
  0
LINE
  8
95
 10
-32.0277
 20
49.4209
 30
0.0000
 11
-32.2988
 21
49.1497
 31
0.0000
  0
LINE
  8
95
 10
-32.2988
 20
49.1497
 30
0.0000
 11
-32.5700
 21
49.1497
 31
0.0000
  0
LINE
  8
95
 10
-32.2988
 20
49.1497
 30
0.0000
 11
-32.0277
 21
48.8785
 31
0.0000
  0
LINE
  8
95
 10
-32.0277
 20
48.8785
 30
0.0000
 11
-32.0277
 21
48.6074
 31
0.0000
  0
LINE
  8
95
 10
-32.0277
 20
48.6074
 30
0.0000
 11
-32.2988
 21
48.3362
 31
0.0000
  0
LINE
  8
95
 10
-32.2988
 20
48.3362
 30
0.0000
 11
-32.8412
 21
48.3362
 31
0.0000
  0
LINE
  8
95
 10
-32.8412
 20
48.3362
 30
0.0000
 11
-33.1123
 21
48.6074
 31
0.0000
  0
LINE
  8
95
 10
-30.3905
 20
48.3362
 30
0.0000
 11
-31.4752
 21
48.3362
 31
0.0000
  0
LINE
  8
95
 10
-31.4752
 20
48.3362
 30
0.0000
 11
-30.3905
 21
49.4209
 31
0.0000
  0
LINE
  8
95
 10
-30.3905
 20
49.4209
 30
0.0000
 11
-30.3905
 21
49.6920
 31
0.0000
  0
LINE
  8
95
 10
-30.3905
 20
49.6920
 30
0.0000
 11
-30.6617
 21
49.9632
 31
0.0000
  0
LINE
  8
95
 10
-30.6617
 20
49.9632
 30
0.0000
 11
-31.2040
 21
49.9632
 31
0.0000
  0
LINE
  8
95
 10
-31.2040
 20
49.9632
 30
0.0000
 11
-31.4752
 21
49.6920
 31
0.0000
  0
LINE
  8
95
 10
-29.8380
 20
49.9632
 30
0.0000
 11
-29.8380
 21
48.3362
 31
0.0000
  0
LINE
  8
95
 10
-29.8380
 20
48.3362
 30
0.0000
 11
-29.0245
 21
48.3362
 31
0.0000
  0
LINE
  8
95
 10
-29.0245
 20
48.3362
 30
0.0000
 11
-28.7534
 21
48.6074
 31
0.0000
  0
LINE
  8
95
 10
-28.7534
 20
48.6074
 30
0.0000
 11
-28.7534
 21
49.6920
 31
0.0000
  0
LINE
  8
95
 10
-28.7534
 20
49.6920
 30
0.0000
 11
-29.0245
 21
49.9632
 31
0.0000
  0
LINE
  8
95
 10
-29.0245
 20
49.9632
 30
0.0000
 11
-29.8380
 21
49.9632
 31
0.0000
  0
LINE
  8
95
 10
-27.3874
 20
49.9632
 30
0.0000
 11
-27.9297
 21
49.9632
 31
0.0000
  0
LINE
  8
95
 10
-27.9297
 20
49.9632
 30
0.0000
 11
-28.2009
 21
49.6920
 31
0.0000
  0
LINE
  8
95
 10
-28.2009
 20
49.6920
 30
0.0000
 11
-28.2009
 21
48.6074
 31
0.0000
  0
LINE
  8
95
 10
-28.2009
 20
48.6074
 30
0.0000
 11
-27.9297
 21
48.3362
 31
0.0000
  0
LINE
  8
95
 10
-27.9297
 20
48.3362
 30
0.0000
 11
-27.3874
 21
48.3362
 31
0.0000
  0
LINE
  8
95
 10
-27.3874
 20
48.3362
 30
0.0000
 11
-27.1162
 21
48.6074
 31
0.0000
  0
LINE
  8
95
 10
-27.1162
 20
48.6074
 30
0.0000
 11
-27.1162
 21
49.6920
 31
0.0000
  0
LINE
  8
95
 10
-27.1162
 20
49.6920
 30
0.0000
 11
-27.3874
 21
49.9632
 31
0.0000
  0
LINE
  8
91
 10
27.9400
 20
-7.6200
 30
0.0000
 11
17.7800
 21
-7.6200
 31
0.0000
  0
LINE
  8
95
 10
17.8562
 20
-7.5438
 30
0.0000
 11
17.8562
 21
-5.9168
 31
0.0000
  0
LINE
  8
95
 10
17.8562
 20
-5.9168
 30
0.0000
 11
18.6697
 21
-5.9168
 31
0.0000
  0
LINE
  8
95
 10
18.6697
 20
-5.9168
 30
0.0000
 11
18.9409
 21
-6.1880
 31
0.0000
  0
LINE
  8
95
 10
18.9409
 20
-6.1880
 30
0.0000
 11
18.9409
 21
-6.7303
 31
0.0000
  0
LINE
  8
95
 10
18.9409
 20
-6.7303
 30
0.0000
 11
18.6697
 21
-7.0015
 31
0.0000
  0
LINE
  8
95
 10
18.6697
 20
-7.0015
 30
0.0000
 11
17.8562
 21
-7.0015
 31
0.0000
  0
LINE
  8
95
 10
18.3985
 20
-7.0015
 30
0.0000
 11
18.9409
 21
-7.5438
 31
0.0000
  0
LINE
  8
95
 10
20.5780
 20
-6.1880
 30
0.0000
 11
20.3069
 21
-5.9168
 31
0.0000
  0
LINE
  8
95
 10
20.3069
 20
-5.9168
 30
0.0000
 11
19.7645
 21
-5.9168
 31
0.0000
  0
LINE
  8
95
 10
19.7645
 20
-5.9168
 30
0.0000
 11
19.4934
 21
-6.1880
 31
0.0000
  0
LINE
  8
95
 10
19.4934
 20
-6.1880
 30
0.0000
 11
19.4934
 21
-6.4591
 31
0.0000
  0
LINE
  8
95
 10
19.4934
 20
-6.4591
 30
0.0000
 11
19.7645
 21
-6.7303
 31
0.0000
  0
LINE
  8
95
 10
19.7645
 20
-6.7303
 30
0.0000
 11
20.3069
 21
-6.7303
 31
0.0000
  0
LINE
  8
95
 10
20.3069
 20
-6.7303
 30
0.0000
 11
20.5780
 21
-7.0015
 31
0.0000
  0
LINE
  8
95
 10
20.5780
 20
-7.0015
 30
0.0000
 11
20.5780
 21
-7.2726
 31
0.0000
  0
LINE
  8
95
 10
20.5780
 20
-7.2726
 30
0.0000
 11
20.3069
 21
-7.5438
 31
0.0000
  0
LINE
  8
95
 10
20.3069
 20
-7.5438
 30
0.0000
 11
19.7645
 21
-7.5438
 31
0.0000
  0
LINE
  8
95
 10
19.7645
 20
-7.5438
 30
0.0000
 11
19.4934
 21
-7.2726
 31
0.0000
  0
LINE
  8
95
 10
22.2152
 20
-7.5438
 30
0.0000
 11
21.1305
 21
-7.5438
 31
0.0000
  0
LINE
  8
95
 10
21.1305
 20
-7.5438
 30
0.0000
 11
22.2152
 21
-6.4591
 31
0.0000
  0
LINE
  8
95
 10
22.2152
 20
-6.4591
 30
0.0000
 11
22.2152
 21
-6.1880
 31
0.0000
  0
LINE
  8
95
 10
22.2152
 20
-6.1880
 30
0.0000
 11
21.9440
 21
-5.9168
 31
0.0000
  0
LINE
  8
95
 10
21.9440
 20
-5.9168
 30
0.0000
 11
21.4017
 21
-5.9168
 31
0.0000
  0
LINE
  8
95
 10
21.4017
 20
-5.9168
 30
0.0000
 11
21.1305
 21
-6.1880
 31
0.0000
  0
LINE
  8
95
 10
22.7677
 20
-6.1880
 30
0.0000
 11
23.0388
 21
-5.9168
 31
0.0000
  0
LINE
  8
95
 10
23.0388
 20
-5.9168
 30
0.0000
 11
23.5812
 21
-5.9168
 31
0.0000
  0
LINE
  8
95
 10
23.5812
 20
-5.9168
 30
0.0000
 11
23.8523
 21
-6.1880
 31
0.0000
  0
LINE
  8
95
 10
23.8523
 20
-6.1880
 30
0.0000
 11
23.8523
 21
-6.4591
 31
0.0000
  0
LINE
  8
95
 10
23.8523
 20
-6.4591
 30
0.0000
 11
23.5812
 21
-6.7303
 31
0.0000
  0
LINE
  8
95
 10
23.5812
 20
-6.7303
 30
0.0000
 11
23.3100
 21
-6.7303
 31
0.0000
  0
LINE
  8
95
 10
23.5812
 20
-6.7303
 30
0.0000
 11
23.8523
 21
-7.0015
 31
0.0000
  0
LINE
  8
95
 10
23.8523
 20
-7.0015
 30
0.0000
 11
23.8523
 21
-7.2726
 31
0.0000
  0
LINE
  8
95
 10
23.8523
 20
-7.2726
 30
0.0000
 11
23.5812
 21
-7.5438
 31
0.0000
  0
LINE
  8
95
 10
23.5812
 20
-7.5438
 30
0.0000
 11
23.0388
 21
-7.5438
 31
0.0000
  0
LINE
  8
95
 10
23.0388
 20
-7.5438
 30
0.0000
 11
22.7677
 21
-7.2726
 31
0.0000
  0
LINE
  8
95
 10
25.4895
 20
-7.5438
 30
0.0000
 11
24.4048
 21
-7.5438
 31
0.0000
  0
LINE
  8
95
 10
24.4048
 20
-7.5438
 30
0.0000
 11
25.4895
 21
-6.4591
 31
0.0000
  0
LINE
  8
95
 10
25.4895
 20
-6.4591
 30
0.0000
 11
25.4895
 21
-6.1880
 31
0.0000
  0
LINE
  8
95
 10
25.4895
 20
-6.1880
 30
0.0000
 11
25.2183
 21
-5.9168
 31
0.0000
  0
LINE
  8
95
 10
25.2183
 20
-5.9168
 30
0.0000
 11
24.6760
 21
-5.9168
 31
0.0000
  0
LINE
  8
95
 10
24.6760
 20
-5.9168
 30
0.0000
 11
24.4048
 21
-6.1880
 31
0.0000
  0
LINE
  8
95
 10
26.0420
 20
-5.9168
 30
0.0000
 11
26.0420
 21
-7.5438
 31
0.0000
  0
LINE
  8
95
 10
26.0420
 20
-7.5438
 30
0.0000
 11
26.8555
 21
-7.5438
 31
0.0000
  0
LINE
  8
95
 10
26.8555
 20
-7.5438
 30
0.0000
 11
27.1266
 21
-7.2726
 31
0.0000
  0
LINE
  8
95
 10
27.1266
 20
-7.2726
 30
0.0000
 11
27.1266
 21
-6.1880
 31
0.0000
  0
LINE
  8
95
 10
27.1266
 20
-6.1880
 30
0.0000
 11
26.8555
 21
-5.9168
 31
0.0000
  0
LINE
  8
95
 10
26.8555
 20
-5.9168
 30
0.0000
 11
26.0420
 21
-5.9168
 31
0.0000
  0
LINE
  8
95
 10
28.4926
 20
-5.9168
 30
0.0000
 11
27.9503
 21
-5.9168
 31
0.0000
  0
LINE
  8
95
 10
27.9503
 20
-5.9168
 30
0.0000
 11
27.6791
 21
-6.1880
 31
0.0000
  0
LINE
  8
95
 10
27.6791
 20
-6.1880
 30
0.0000
 11
27.6791
 21
-7.2726
 31
0.0000
  0
LINE
  8
95
 10
27.6791
 20
-7.2726
 30
0.0000
 11
27.9503
 21
-7.5438
 31
0.0000
  0
LINE
  8
95
 10
27.9503
 20
-7.5438
 30
0.0000
 11
28.4926
 21
-7.5438
 31
0.0000
  0
LINE
  8
95
 10
28.4926
 20
-7.5438
 30
0.0000
 11
28.7638
 21
-7.2726
 31
0.0000
  0
LINE
  8
95
 10
28.7638
 20
-7.2726
 30
0.0000
 11
28.7638
 21
-6.1880
 31
0.0000
  0
LINE
  8
95
 10
28.7638
 20
-6.1880
 30
0.0000
 11
28.4926
 21
-5.9168
 31
0.0000
  0
LINE
  8
91
 10
-10.1600
 20
40.6400
 30
0.0000
 11
-5.0800
 21
40.6400
 31
0.0000
  0
LINE
  8
95
 10
-7.5438
 20
42.3432
 30
0.0000
 11
-7.5438
 21
41.2585
 31
0.0000
  0
LINE
  8
95
 10
-7.5438
 20
41.2585
 30
0.0000
 11
-7.0015
 21
40.7162
 31
0.0000
  0
LINE
  8
95
 10
-7.0015
 20
40.7162
 30
0.0000
 11
-6.4591
 21
41.2585
 31
0.0000
  0
LINE
  8
95
 10
-6.4591
 20
41.2585
 30
0.0000
 11
-6.4591
 21
42.3432
 31
0.0000
  0
LINE
  8
95
 10
-5.9066
 20
40.7162
 30
0.0000
 11
-5.3643
 21
40.7162
 31
0.0000
  0
LINE
  8
95
 10
-5.6355
 20
40.7162
 30
0.0000
 11
-5.6355
 21
42.3432
 31
0.0000
  0
LINE
  8
95
 10
-5.9066
 20
42.3432
 30
0.0000
 11
-5.3643
 21
42.3432
 31
0.0000
  0
LINE
  8
95
 10
-4.8152
 20
40.7162
 30
0.0000
 11
-4.8152
 21
42.3432
 31
0.0000
  0
LINE
  8
95
 10
-4.8152
 20
42.3432
 30
0.0000
 11
-3.7305
 21
40.7162
 31
0.0000
  0
LINE
  8
95
 10
-3.7305
 20
40.7162
 30
0.0000
 11
-3.7305
 21
42.3432
 31
0.0000
  0
LINE
  8
91
 10
15.2400
 20
48.2600
 30
0.0000
 11
10.1600
 21
48.2600
 31
0.0000
  0
LINE
  8
95
 10
10.2362
 20
49.9632
 30
0.0000
 11
10.2362
 21
48.8785
 31
0.0000
  0
LINE
  8
95
 10
10.2362
 20
48.8785
 30
0.0000
 11
10.7785
 21
48.3362
 31
0.0000
  0
LINE
  8
95
 10
10.7785
 20
48.3362
 30
0.0000
 11
11.3209
 21
48.8785
 31
0.0000
  0
LINE
  8
95
 10
11.3209
 20
48.8785
 30
0.0000
 11
11.3209
 21
49.9632
 31
0.0000
  0
LINE
  8
95
 10
11.8734
 20
48.3362
 30
0.0000
 11
12.4157
 21
48.3362
 31
0.0000
  0
LINE
  8
95
 10
12.1445
 20
48.3362
 30
0.0000
 11
12.1445
 21
49.9632
 31
0.0000
  0
LINE
  8
95
 10
11.8734
 20
49.9632
 30
0.0000
 11
12.4157
 21
49.9632
 31
0.0000
  0
LINE
  8
95
 10
12.9648
 20
48.3362
 30
0.0000
 11
12.9648
 21
49.9632
 31
0.0000
  0
LINE
  8
95
 10
12.9648
 20
49.9632
 30
0.0000
 11
14.0495
 21
48.3362
 31
0.0000
  0
LINE
  8
95
 10
14.0495
 20
48.3362
 30
0.0000
 11
14.0495
 21
49.9632
 31
0.0000
  0
ENDSEC
  0
EOF
