%
M48
M72
T01C0.0276
T02C0.0320
T03C0.0400
T04C0.1250
T05C0.1280
T06C0.1300
%
T01
X9483Y12600
X10483Y12600
T02
X11133Y10400
X9133Y10400
X9533Y5950
X8533Y5950
X7533Y5950
X6533Y5950
X5533Y5950
X4533Y5950
X3533Y5950
X3533Y2950
X4533Y2950
X5533Y2950
X6533Y2950
X7533Y2950
X8533Y2950
X9533Y2950
X10533Y2950
X10533Y5950
T03
X10833Y7450
X9733Y7450
X7533Y7450
X6433Y7450
X6483Y10200
X7483Y10700
X6483Y11200
X7483Y11700
X6483Y12200
X7483Y12700
X12774Y10331
X12774Y9241
X13892Y9784
X13892Y8693
X13892Y7607
X12774Y8150
X12774Y7059
X12774Y5969
X13892Y6516
X1383Y6550
X1383Y7650
X1383Y4800
X1383Y3700
T04
X1283Y1100
X15233Y1150
X1333Y15300
X15083Y15400
T05
X3983Y13450
X3983Y9450
T06
X13333Y13071
X13333Y3229
M30
