G75*
G70*
%OFA0B0*%
%FSLAX24Y24*%
%IPPOS*%
%LPD*%
%AMOC8*
5,1,8,0,0,1.08239X$1,22.5*
%
%ADD10C,0.0000*%
%ADD11C,0.0520*%
%ADD12C,0.0800*%
%ADD13R,0.0740X0.0740*%
%ADD14C,0.0740*%
%ADD15C,0.2000*%
%ADD16OC8,0.0520*%
%ADD17R,0.0650X0.0650*%
%ADD18C,0.0650*%
%ADD19C,0.0100*%
D10*
X000333Y000100D02*
X000333Y016396D01*
X017333Y016400D01*
X017333Y000100D01*
X000333Y000100D01*
X000658Y001100D02*
X000660Y001150D01*
X000666Y001199D01*
X000676Y001248D01*
X000689Y001295D01*
X000707Y001342D01*
X000728Y001387D01*
X000752Y001430D01*
X000780Y001471D01*
X000811Y001510D01*
X000845Y001546D01*
X000882Y001580D01*
X000922Y001610D01*
X000963Y001637D01*
X001007Y001661D01*
X001052Y001681D01*
X001099Y001697D01*
X001147Y001710D01*
X001196Y001719D01*
X001246Y001724D01*
X001295Y001725D01*
X001345Y001722D01*
X001394Y001715D01*
X001443Y001704D01*
X001490Y001690D01*
X001536Y001671D01*
X001581Y001649D01*
X001624Y001624D01*
X001664Y001595D01*
X001702Y001563D01*
X001738Y001529D01*
X001771Y001491D01*
X001800Y001451D01*
X001826Y001409D01*
X001849Y001365D01*
X001868Y001319D01*
X001884Y001272D01*
X001896Y001223D01*
X001904Y001174D01*
X001908Y001125D01*
X001908Y001075D01*
X001904Y001026D01*
X001896Y000977D01*
X001884Y000928D01*
X001868Y000881D01*
X001849Y000835D01*
X001826Y000791D01*
X001800Y000749D01*
X001771Y000709D01*
X001738Y000671D01*
X001702Y000637D01*
X001664Y000605D01*
X001624Y000576D01*
X001581Y000551D01*
X001536Y000529D01*
X001490Y000510D01*
X001443Y000496D01*
X001394Y000485D01*
X001345Y000478D01*
X001295Y000475D01*
X001246Y000476D01*
X001196Y000481D01*
X001147Y000490D01*
X001099Y000503D01*
X001052Y000519D01*
X001007Y000539D01*
X000963Y000563D01*
X000922Y000590D01*
X000882Y000620D01*
X000845Y000654D01*
X000811Y000690D01*
X000780Y000729D01*
X000752Y000770D01*
X000728Y000813D01*
X000707Y000858D01*
X000689Y000905D01*
X000676Y000952D01*
X000666Y001001D01*
X000660Y001050D01*
X000658Y001100D01*
X003343Y009450D02*
X003345Y009500D01*
X003351Y009550D01*
X003361Y009599D01*
X003374Y009648D01*
X003392Y009695D01*
X003413Y009741D01*
X003437Y009784D01*
X003465Y009826D01*
X003496Y009866D01*
X003530Y009903D01*
X003567Y009937D01*
X003607Y009968D01*
X003649Y009996D01*
X003692Y010020D01*
X003738Y010041D01*
X003785Y010059D01*
X003834Y010072D01*
X003883Y010082D01*
X003933Y010088D01*
X003983Y010090D01*
X004033Y010088D01*
X004083Y010082D01*
X004132Y010072D01*
X004181Y010059D01*
X004228Y010041D01*
X004274Y010020D01*
X004317Y009996D01*
X004359Y009968D01*
X004399Y009937D01*
X004436Y009903D01*
X004470Y009866D01*
X004501Y009826D01*
X004529Y009784D01*
X004553Y009741D01*
X004574Y009695D01*
X004592Y009648D01*
X004605Y009599D01*
X004615Y009550D01*
X004621Y009500D01*
X004623Y009450D01*
X004621Y009400D01*
X004615Y009350D01*
X004605Y009301D01*
X004592Y009252D01*
X004574Y009205D01*
X004553Y009159D01*
X004529Y009116D01*
X004501Y009074D01*
X004470Y009034D01*
X004436Y008997D01*
X004399Y008963D01*
X004359Y008932D01*
X004317Y008904D01*
X004274Y008880D01*
X004228Y008859D01*
X004181Y008841D01*
X004132Y008828D01*
X004083Y008818D01*
X004033Y008812D01*
X003983Y008810D01*
X003933Y008812D01*
X003883Y008818D01*
X003834Y008828D01*
X003785Y008841D01*
X003738Y008859D01*
X003692Y008880D01*
X003649Y008904D01*
X003607Y008932D01*
X003567Y008963D01*
X003530Y008997D01*
X003496Y009034D01*
X003465Y009074D01*
X003437Y009116D01*
X003413Y009159D01*
X003392Y009205D01*
X003374Y009252D01*
X003361Y009301D01*
X003351Y009350D01*
X003345Y009400D01*
X003343Y009450D01*
X003343Y013450D02*
X003345Y013500D01*
X003351Y013550D01*
X003361Y013599D01*
X003374Y013648D01*
X003392Y013695D01*
X003413Y013741D01*
X003437Y013784D01*
X003465Y013826D01*
X003496Y013866D01*
X003530Y013903D01*
X003567Y013937D01*
X003607Y013968D01*
X003649Y013996D01*
X003692Y014020D01*
X003738Y014041D01*
X003785Y014059D01*
X003834Y014072D01*
X003883Y014082D01*
X003933Y014088D01*
X003983Y014090D01*
X004033Y014088D01*
X004083Y014082D01*
X004132Y014072D01*
X004181Y014059D01*
X004228Y014041D01*
X004274Y014020D01*
X004317Y013996D01*
X004359Y013968D01*
X004399Y013937D01*
X004436Y013903D01*
X004470Y013866D01*
X004501Y013826D01*
X004529Y013784D01*
X004553Y013741D01*
X004574Y013695D01*
X004592Y013648D01*
X004605Y013599D01*
X004615Y013550D01*
X004621Y013500D01*
X004623Y013450D01*
X004621Y013400D01*
X004615Y013350D01*
X004605Y013301D01*
X004592Y013252D01*
X004574Y013205D01*
X004553Y013159D01*
X004529Y013116D01*
X004501Y013074D01*
X004470Y013034D01*
X004436Y012997D01*
X004399Y012963D01*
X004359Y012932D01*
X004317Y012904D01*
X004274Y012880D01*
X004228Y012859D01*
X004181Y012841D01*
X004132Y012828D01*
X004083Y012818D01*
X004033Y012812D01*
X003983Y012810D01*
X003933Y012812D01*
X003883Y012818D01*
X003834Y012828D01*
X003785Y012841D01*
X003738Y012859D01*
X003692Y012880D01*
X003649Y012904D01*
X003607Y012932D01*
X003567Y012963D01*
X003530Y012997D01*
X003496Y013034D01*
X003465Y013074D01*
X003437Y013116D01*
X003413Y013159D01*
X003392Y013205D01*
X003374Y013252D01*
X003361Y013301D01*
X003351Y013350D01*
X003345Y013400D01*
X003343Y013450D01*
X000708Y015300D02*
X000710Y015350D01*
X000716Y015399D01*
X000726Y015448D01*
X000739Y015495D01*
X000757Y015542D01*
X000778Y015587D01*
X000802Y015630D01*
X000830Y015671D01*
X000861Y015710D01*
X000895Y015746D01*
X000932Y015780D01*
X000972Y015810D01*
X001013Y015837D01*
X001057Y015861D01*
X001102Y015881D01*
X001149Y015897D01*
X001197Y015910D01*
X001246Y015919D01*
X001296Y015924D01*
X001345Y015925D01*
X001395Y015922D01*
X001444Y015915D01*
X001493Y015904D01*
X001540Y015890D01*
X001586Y015871D01*
X001631Y015849D01*
X001674Y015824D01*
X001714Y015795D01*
X001752Y015763D01*
X001788Y015729D01*
X001821Y015691D01*
X001850Y015651D01*
X001876Y015609D01*
X001899Y015565D01*
X001918Y015519D01*
X001934Y015472D01*
X001946Y015423D01*
X001954Y015374D01*
X001958Y015325D01*
X001958Y015275D01*
X001954Y015226D01*
X001946Y015177D01*
X001934Y015128D01*
X001918Y015081D01*
X001899Y015035D01*
X001876Y014991D01*
X001850Y014949D01*
X001821Y014909D01*
X001788Y014871D01*
X001752Y014837D01*
X001714Y014805D01*
X001674Y014776D01*
X001631Y014751D01*
X001586Y014729D01*
X001540Y014710D01*
X001493Y014696D01*
X001444Y014685D01*
X001395Y014678D01*
X001345Y014675D01*
X001296Y014676D01*
X001246Y014681D01*
X001197Y014690D01*
X001149Y014703D01*
X001102Y014719D01*
X001057Y014739D01*
X001013Y014763D01*
X000972Y014790D01*
X000932Y014820D01*
X000895Y014854D01*
X000861Y014890D01*
X000830Y014929D01*
X000802Y014970D01*
X000778Y015013D01*
X000757Y015058D01*
X000739Y015105D01*
X000726Y015152D01*
X000716Y015201D01*
X000710Y015250D01*
X000708Y015300D01*
X014458Y015400D02*
X014460Y015450D01*
X014466Y015499D01*
X014476Y015548D01*
X014489Y015595D01*
X014507Y015642D01*
X014528Y015687D01*
X014552Y015730D01*
X014580Y015771D01*
X014611Y015810D01*
X014645Y015846D01*
X014682Y015880D01*
X014722Y015910D01*
X014763Y015937D01*
X014807Y015961D01*
X014852Y015981D01*
X014899Y015997D01*
X014947Y016010D01*
X014996Y016019D01*
X015046Y016024D01*
X015095Y016025D01*
X015145Y016022D01*
X015194Y016015D01*
X015243Y016004D01*
X015290Y015990D01*
X015336Y015971D01*
X015381Y015949D01*
X015424Y015924D01*
X015464Y015895D01*
X015502Y015863D01*
X015538Y015829D01*
X015571Y015791D01*
X015600Y015751D01*
X015626Y015709D01*
X015649Y015665D01*
X015668Y015619D01*
X015684Y015572D01*
X015696Y015523D01*
X015704Y015474D01*
X015708Y015425D01*
X015708Y015375D01*
X015704Y015326D01*
X015696Y015277D01*
X015684Y015228D01*
X015668Y015181D01*
X015649Y015135D01*
X015626Y015091D01*
X015600Y015049D01*
X015571Y015009D01*
X015538Y014971D01*
X015502Y014937D01*
X015464Y014905D01*
X015424Y014876D01*
X015381Y014851D01*
X015336Y014829D01*
X015290Y014810D01*
X015243Y014796D01*
X015194Y014785D01*
X015145Y014778D01*
X015095Y014775D01*
X015046Y014776D01*
X014996Y014781D01*
X014947Y014790D01*
X014899Y014803D01*
X014852Y014819D01*
X014807Y014839D01*
X014763Y014863D01*
X014722Y014890D01*
X014682Y014920D01*
X014645Y014954D01*
X014611Y014990D01*
X014580Y015029D01*
X014552Y015070D01*
X014528Y015113D01*
X014507Y015158D01*
X014489Y015205D01*
X014476Y015252D01*
X014466Y015301D01*
X014460Y015350D01*
X014458Y015400D01*
X014608Y001150D02*
X014610Y001200D01*
X014616Y001249D01*
X014626Y001298D01*
X014639Y001345D01*
X014657Y001392D01*
X014678Y001437D01*
X014702Y001480D01*
X014730Y001521D01*
X014761Y001560D01*
X014795Y001596D01*
X014832Y001630D01*
X014872Y001660D01*
X014913Y001687D01*
X014957Y001711D01*
X015002Y001731D01*
X015049Y001747D01*
X015097Y001760D01*
X015146Y001769D01*
X015196Y001774D01*
X015245Y001775D01*
X015295Y001772D01*
X015344Y001765D01*
X015393Y001754D01*
X015440Y001740D01*
X015486Y001721D01*
X015531Y001699D01*
X015574Y001674D01*
X015614Y001645D01*
X015652Y001613D01*
X015688Y001579D01*
X015721Y001541D01*
X015750Y001501D01*
X015776Y001459D01*
X015799Y001415D01*
X015818Y001369D01*
X015834Y001322D01*
X015846Y001273D01*
X015854Y001224D01*
X015858Y001175D01*
X015858Y001125D01*
X015854Y001076D01*
X015846Y001027D01*
X015834Y000978D01*
X015818Y000931D01*
X015799Y000885D01*
X015776Y000841D01*
X015750Y000799D01*
X015721Y000759D01*
X015688Y000721D01*
X015652Y000687D01*
X015614Y000655D01*
X015574Y000626D01*
X015531Y000601D01*
X015486Y000579D01*
X015440Y000560D01*
X015393Y000546D01*
X015344Y000535D01*
X015295Y000528D01*
X015245Y000525D01*
X015196Y000526D01*
X015146Y000531D01*
X015097Y000540D01*
X015049Y000553D01*
X015002Y000569D01*
X014957Y000589D01*
X014913Y000613D01*
X014872Y000640D01*
X014832Y000670D01*
X014795Y000704D01*
X014761Y000740D01*
X014730Y000779D01*
X014702Y000820D01*
X014678Y000863D01*
X014657Y000908D01*
X014639Y000955D01*
X014626Y001002D01*
X014616Y001051D01*
X014610Y001100D01*
X014608Y001150D01*
D11*
X010533Y002690D02*
X010533Y003210D01*
X009533Y003210D02*
X009533Y002690D01*
X008533Y002690D02*
X008533Y003210D01*
X007533Y003210D02*
X007533Y002690D01*
X006533Y002690D02*
X006533Y003210D01*
X005533Y003210D02*
X005533Y002690D01*
X004533Y002690D02*
X004533Y003210D01*
X003533Y003210D02*
X003533Y002690D01*
X003533Y005690D02*
X003533Y006210D01*
X004533Y006210D02*
X004533Y005690D01*
X005533Y005690D02*
X005533Y006210D01*
X006533Y006210D02*
X006533Y005690D01*
X007533Y005690D02*
X007533Y006210D01*
X008533Y006210D02*
X008533Y005690D01*
X009533Y005690D02*
X009533Y006210D01*
X010533Y006210D02*
X010533Y005690D01*
D12*
X010833Y007450D03*
X009733Y007450D03*
X007533Y007450D03*
X006433Y007450D03*
X001383Y007650D03*
X001383Y006550D03*
X001383Y004800D03*
X001383Y003700D03*
D13*
X012774Y010331D03*
D14*
X012774Y009241D03*
X013892Y009784D03*
X013892Y008693D03*
X013892Y007607D03*
X012774Y008150D03*
X012774Y007059D03*
X012774Y005969D03*
X013892Y006516D03*
X007483Y010700D03*
X006483Y010200D03*
X006483Y011200D03*
X007483Y011700D03*
X006483Y012200D03*
X007483Y012700D03*
D15*
X013333Y013071D03*
X013333Y003229D03*
D16*
X011133Y010400D03*
X009133Y010400D03*
D17*
X009483Y012600D03*
D18*
X010483Y012600D03*
D19*
X009483Y012600D02*
X009483Y012200D01*
X006483Y012200D01*
X007483Y011700D02*
X006983Y011200D01*
X006983Y003400D01*
X006533Y002950D01*
X005933Y003350D02*
X005933Y007200D01*
X005883Y007250D01*
X005883Y010600D01*
X006483Y011200D01*
X009483Y012050D02*
X009483Y012200D01*
X009483Y012050D02*
X011133Y010400D01*
X011083Y010400D01*
X011083Y007650D01*
X010883Y007450D01*
X010833Y007450D01*
X010933Y007350D01*
X010933Y003350D01*
X010533Y002950D01*
X009183Y002300D02*
X012183Y002300D01*
X012183Y008650D01*
X012733Y009200D01*
X012774Y009241D01*
X009733Y007450D02*
X009733Y006150D01*
X009533Y005950D01*
X007533Y005950D02*
X007533Y007450D01*
X006433Y007450D02*
X006433Y006050D01*
X006533Y005950D01*
X005933Y003350D02*
X005533Y002950D01*
X008533Y002950D02*
X009183Y002300D01*
M02*
