G75*
G70*
%OFA0B0*%
%FSLAX24Y24*%
%IPPOS*%
%LPD*%
%AMOC8*
5,1,8,0,0,1.08239X$1,22.5*
%
%ADD10C,0.0060*%
D10*
X004563Y008557D02*
X004990Y008557D01*
X005204Y008771D01*
X004990Y008984D01*
X004563Y008984D01*
X004563Y009202D02*
X004563Y009522D01*
X004670Y009629D01*
X005097Y009629D01*
X005204Y009522D01*
X005204Y009202D01*
X004563Y009202D01*
X004884Y008984D02*
X004884Y008557D01*
X004154Y009309D02*
X004047Y009202D01*
X003620Y009202D01*
X004047Y009629D01*
X003620Y009629D01*
X003513Y009522D01*
X003513Y009309D01*
X003620Y009202D01*
X003104Y009307D02*
X003104Y008880D01*
X003104Y009093D02*
X002463Y009093D01*
X003104Y009524D02*
X003104Y009951D01*
X003104Y009738D02*
X002463Y009738D01*
X002463Y010169D02*
X002463Y010596D01*
X002784Y010813D02*
X002784Y011240D01*
X002677Y011458D02*
X002677Y011778D01*
X002784Y011885D01*
X002997Y011885D01*
X003104Y011778D01*
X003104Y011458D01*
X002463Y011458D01*
X002677Y011671D02*
X002463Y011885D01*
X002570Y012102D02*
X002463Y012209D01*
X002463Y012423D01*
X002570Y012529D01*
X002677Y012529D01*
X002784Y012423D01*
X002784Y012209D01*
X002890Y012102D01*
X002997Y012102D01*
X003104Y012209D01*
X003104Y012423D01*
X002997Y012529D01*
X002997Y012747D02*
X003104Y012854D01*
X003104Y013067D01*
X002997Y013174D01*
X002890Y013174D01*
X002463Y012747D01*
X002463Y013174D01*
X002570Y013391D02*
X002463Y013498D01*
X002463Y013712D01*
X002570Y013818D01*
X002677Y013818D01*
X002784Y013712D01*
X002784Y013605D01*
X002784Y013712D02*
X002890Y013818D01*
X002997Y013818D01*
X003104Y013712D01*
X003104Y013498D01*
X002997Y013391D01*
X003513Y013496D02*
X003513Y013069D01*
X003513Y013283D02*
X004154Y013283D01*
X003940Y013069D01*
X004154Y012852D02*
X003513Y012425D01*
X003620Y012207D02*
X003513Y012100D01*
X003513Y011887D01*
X003620Y011780D01*
X003834Y011887D02*
X003834Y012207D01*
X004047Y012207D02*
X003620Y012207D01*
X003834Y011887D02*
X003940Y011780D01*
X004047Y011780D01*
X004154Y011887D01*
X004154Y012100D01*
X004047Y012207D01*
X004563Y012100D02*
X004563Y011887D01*
X004670Y011780D01*
X005097Y011780D01*
X005204Y011887D01*
X005204Y012100D01*
X005097Y012207D01*
X005204Y012425D02*
X004563Y012425D01*
X004884Y012425D02*
X004884Y012852D01*
X005204Y012852D02*
X004563Y012852D01*
X004563Y013069D02*
X004990Y013069D01*
X005204Y013283D01*
X004990Y013496D01*
X004563Y013496D01*
X004884Y013496D02*
X004884Y013069D01*
X004990Y013714D02*
X004884Y013820D01*
X004884Y014034D01*
X004777Y014141D01*
X004670Y014141D01*
X004563Y014034D01*
X004563Y013820D01*
X004670Y013714D01*
X004990Y013714D02*
X005097Y013714D01*
X005204Y013820D01*
X005204Y014034D01*
X005097Y014141D01*
X005204Y014358D02*
X004563Y014358D01*
X004563Y014785D01*
X004884Y014572D02*
X004884Y014358D01*
X005204Y014358D02*
X005204Y014785D01*
X004154Y014034D02*
X004047Y014141D01*
X003940Y014141D01*
X003834Y014034D01*
X003727Y014141D01*
X003620Y014141D01*
X003513Y014034D01*
X003513Y013820D01*
X003620Y013714D01*
X003834Y013927D02*
X003834Y014034D01*
X004154Y014034D02*
X004154Y013820D01*
X004047Y013714D01*
X003104Y014143D02*
X002997Y014036D01*
X003104Y014143D02*
X003104Y014356D01*
X002997Y014463D01*
X002890Y014463D01*
X002463Y014036D01*
X002463Y014463D01*
X001947Y013013D02*
X001520Y013013D01*
X001413Y012906D01*
X001413Y012692D01*
X001520Y012586D01*
X001947Y013013D01*
X002054Y012906D01*
X002054Y012692D01*
X001947Y012586D01*
X001520Y012586D01*
X001520Y012368D02*
X001413Y012261D01*
X001413Y012048D01*
X001520Y011941D01*
X001947Y012368D01*
X001520Y012368D01*
X001520Y011941D02*
X001947Y011941D01*
X002054Y012048D01*
X002054Y012261D01*
X001947Y012368D01*
X001520Y011726D02*
X001413Y011726D01*
X001413Y011619D01*
X001520Y011619D01*
X001520Y011726D01*
X001413Y011401D02*
X001413Y010974D01*
X001413Y011188D02*
X002054Y011188D01*
X001840Y010974D01*
X001840Y010757D02*
X001413Y010543D01*
X001840Y010330D01*
X002463Y010169D02*
X003104Y010169D01*
X003513Y010491D02*
X004154Y010918D01*
X004047Y011135D02*
X004154Y011242D01*
X004154Y011456D01*
X004047Y011562D01*
X003940Y011562D01*
X003513Y011135D01*
X003513Y011562D01*
X004563Y012100D02*
X004670Y012207D01*
X004563Y010918D02*
X005204Y010918D01*
X004990Y010704D01*
X005204Y010491D01*
X004563Y010491D01*
X004563Y010273D02*
X004990Y010273D01*
X005204Y010060D01*
X004990Y009846D01*
X004563Y009846D01*
X004884Y009846D02*
X004884Y010273D01*
X004154Y010273D02*
X004154Y009846D01*
X004047Y009629D02*
X004154Y009522D01*
X004154Y009309D01*
X003620Y009846D02*
X003513Y009846D01*
X003620Y009846D02*
X004047Y010273D01*
X004154Y010273D01*
M02*
