G75*
G70*
%OFA0B0*%
%FSLAX24Y24*%
%IPPOS*%
%LPD*%
%AMOC8*
5,1,8,0,0,1.08239X$1,22.5*
%
%ADD10C,0.0120*%
%ADD11C,0.0100*%
%ADD12C,0.0080*%
%ADD13C,0.0060*%
%ADD14C,0.0040*%
D10*
X002800Y003458D02*
X002800Y005758D01*
X010800Y005758D01*
X010800Y005008D01*
X010761Y005006D01*
X010722Y005000D01*
X010684Y004991D01*
X010647Y004978D01*
X010611Y004961D01*
X010578Y004941D01*
X010546Y004917D01*
X010517Y004891D01*
X010491Y004862D01*
X010467Y004830D01*
X010447Y004797D01*
X010430Y004761D01*
X010417Y004724D01*
X010408Y004686D01*
X010402Y004647D01*
X010400Y004608D01*
X010402Y004569D01*
X010408Y004530D01*
X010417Y004492D01*
X010430Y004455D01*
X010447Y004419D01*
X010467Y004386D01*
X010491Y004354D01*
X010517Y004325D01*
X010546Y004299D01*
X010578Y004275D01*
X010611Y004255D01*
X010647Y004238D01*
X010684Y004225D01*
X010722Y004216D01*
X010761Y004210D01*
X010800Y004208D01*
X010800Y003458D01*
X002800Y003458D01*
D11*
X000650Y003358D02*
X000650Y005458D01*
X001650Y005458D01*
X001650Y003358D01*
X000650Y003358D01*
X000900Y004408D02*
X001400Y004408D01*
X001650Y006208D02*
X000650Y006208D01*
X000650Y008308D01*
X001650Y008308D01*
X001650Y006208D01*
X001400Y007258D02*
X000900Y007258D01*
X005700Y007108D02*
X005700Y008108D01*
X007800Y008108D01*
X007800Y007108D01*
X005700Y007108D01*
X006750Y007358D02*
X006750Y007858D01*
X009000Y008108D02*
X009000Y007108D01*
X011100Y007108D01*
X011100Y008108D01*
X009000Y008108D01*
X010050Y007858D02*
X010050Y007358D01*
D12*
X007850Y008908D02*
X007850Y014308D01*
X001700Y014308D01*
X001700Y008908D01*
X007850Y008908D01*
X010050Y012208D02*
X010450Y012208D01*
X008766Y012758D02*
X008768Y012820D01*
X008774Y012883D01*
X008784Y012944D01*
X008798Y013005D01*
X008815Y013065D01*
X008836Y013124D01*
X008862Y013181D01*
X008890Y013236D01*
X008922Y013290D01*
X008958Y013341D01*
X008996Y013391D01*
X009038Y013437D01*
X009082Y013481D01*
X009130Y013522D01*
X009179Y013560D01*
X009231Y013594D01*
X009285Y013625D01*
X009341Y013653D01*
X009399Y013677D01*
X009458Y013698D01*
X009518Y013714D01*
X009579Y013727D01*
X009641Y013736D01*
X009703Y013741D01*
X009766Y013742D01*
X009828Y013739D01*
X009890Y013732D01*
X009952Y013721D01*
X010012Y013706D01*
X010072Y013688D01*
X010130Y013666D01*
X010187Y013640D01*
X010242Y013610D01*
X010295Y013577D01*
X010346Y013541D01*
X010394Y013502D01*
X010440Y013459D01*
X010483Y013414D01*
X010523Y013366D01*
X010560Y013316D01*
X010594Y013263D01*
X010625Y013209D01*
X010651Y013153D01*
X010675Y013095D01*
X010694Y013035D01*
X010710Y012975D01*
X010722Y012913D01*
X010730Y012852D01*
X010734Y012789D01*
X010734Y012727D01*
X010730Y012664D01*
X010722Y012603D01*
X010710Y012541D01*
X010694Y012481D01*
X010675Y012421D01*
X010651Y012363D01*
X010625Y012307D01*
X010594Y012253D01*
X010560Y012200D01*
X010523Y012150D01*
X010483Y012102D01*
X010440Y012057D01*
X010394Y012014D01*
X010346Y011975D01*
X010295Y011939D01*
X010242Y011906D01*
X010187Y011876D01*
X010130Y011850D01*
X010072Y011828D01*
X010012Y011810D01*
X009952Y011795D01*
X009890Y011784D01*
X009828Y011777D01*
X009766Y011774D01*
X009703Y011775D01*
X009641Y011780D01*
X009579Y011789D01*
X009518Y011802D01*
X009458Y011818D01*
X009399Y011839D01*
X009341Y011863D01*
X009285Y011891D01*
X009231Y011922D01*
X009179Y011956D01*
X009130Y011994D01*
X009082Y012035D01*
X009038Y012079D01*
X008996Y012125D01*
X008958Y012175D01*
X008922Y012226D01*
X008890Y012280D01*
X008862Y012335D01*
X008836Y012392D01*
X008815Y012451D01*
X008798Y012511D01*
X008784Y012572D01*
X008774Y012633D01*
X008768Y012696D01*
X008766Y012758D01*
X011998Y014371D02*
X011998Y002245D01*
X014100Y002245D01*
X014100Y014371D02*
X011998Y014371D01*
D13*
X010500Y010908D02*
X010400Y010908D01*
X010350Y010858D01*
X009450Y010858D01*
X009400Y010908D01*
X009300Y010908D01*
X009283Y010906D01*
X009266Y010902D01*
X009250Y010895D01*
X009236Y010885D01*
X009223Y010872D01*
X009213Y010858D01*
X009206Y010842D01*
X009202Y010825D01*
X009200Y010808D01*
X009200Y010308D02*
X009202Y010291D01*
X009206Y010274D01*
X009213Y010258D01*
X009223Y010244D01*
X009236Y010231D01*
X009250Y010221D01*
X009266Y010214D01*
X009283Y010210D01*
X009300Y010208D01*
X009400Y010208D01*
X009450Y010258D01*
X010350Y010258D01*
X010400Y010208D01*
X010500Y010208D01*
X010517Y010210D01*
X010534Y010214D01*
X010550Y010221D01*
X010564Y010231D01*
X010577Y010244D01*
X010587Y010258D01*
X010594Y010274D01*
X010598Y010291D01*
X010600Y010308D01*
X010600Y010808D02*
X010598Y010825D01*
X010594Y010842D01*
X010587Y010858D01*
X010577Y010872D01*
X010564Y010885D01*
X010550Y010895D01*
X010534Y010902D01*
X010517Y010906D01*
X010500Y010908D01*
D14*
X009673Y010019D02*
X009439Y009785D01*
X009497Y009843D02*
X009673Y009668D01*
X009439Y009668D02*
X009439Y010019D01*
X009197Y010019D02*
X009197Y009668D01*
X009080Y009668D02*
X009314Y009668D01*
X009080Y009902D02*
X009197Y010019D01*
M02*
