G75*
G70*
%OFA0B0*%
%FSLAX24Y24*%
%IPPOS*%
%LPD*%
%AMOC8*
5,1,8,0,0,1.08239X$1,22.5*
%
%ADD10C,0.1330*%
%ADD11C,0.0600*%
%ADD12C,0.0050*%
%ADD13R,0.0820X0.0820*%
%ADD14C,0.0820*%
%ADD15C,0.2080*%
%ADD16C,0.1360*%
%ADD17OC8,0.0600*%
%ADD18R,0.0730X0.0730*%
%ADD19C,0.0730*%
%ADD20C,0.0480*%
D10*
X001050Y001258D03*
X015000Y001308D03*
X001100Y015458D03*
X014850Y015558D03*
D11*
X010300Y006368D02*
X010300Y005848D01*
X009300Y005848D02*
X009300Y006368D01*
X008300Y006368D02*
X008300Y005848D01*
X007300Y005848D02*
X007300Y006368D01*
X006300Y006368D02*
X006300Y005848D01*
X005300Y005848D02*
X005300Y006368D01*
X004300Y006368D02*
X004300Y005848D01*
X003300Y005848D02*
X003300Y006368D01*
X003300Y003368D02*
X003300Y002848D01*
X004300Y002848D02*
X004300Y003368D01*
X005300Y003368D02*
X005300Y002848D01*
X006300Y002848D02*
X006300Y003368D01*
X007300Y003368D02*
X007300Y002848D01*
X008300Y002848D02*
X008300Y003368D01*
X009300Y003368D02*
X009300Y002848D01*
X010300Y002848D02*
X010300Y003368D01*
D12*
X010603Y007231D02*
X010537Y007238D01*
X010474Y007256D01*
X010414Y007285D01*
X010360Y007324D01*
X010314Y007371D01*
X010277Y007426D01*
X010250Y007486D01*
X010234Y007550D01*
X010229Y007616D01*
X010237Y007688D01*
X010259Y007757D01*
X010293Y007821D01*
X010340Y007876D01*
X010396Y007921D01*
X010809Y007921D01*
X010809Y007922D02*
X010866Y007876D01*
X010913Y007821D01*
X010948Y007757D01*
X010970Y007688D01*
X010978Y007615D01*
X010973Y007549D01*
X010957Y007485D01*
X010929Y007425D01*
X010892Y007370D01*
X010846Y007323D01*
X010792Y007284D01*
X010733Y007256D01*
X010669Y007238D01*
X010603Y007231D01*
X010522Y007242D02*
X010685Y007242D01*
X010801Y007291D02*
X010406Y007291D01*
X010345Y007339D02*
X010862Y007339D01*
X010904Y007388D02*
X010303Y007388D01*
X010272Y007436D02*
X010935Y007436D01*
X010956Y007485D02*
X010251Y007485D01*
X010238Y007533D02*
X010969Y007533D01*
X010975Y007582D02*
X010231Y007582D01*
X010231Y007630D02*
X010976Y007630D01*
X010971Y007679D02*
X010236Y007679D01*
X010249Y007727D02*
X010957Y007727D01*
X010937Y007776D02*
X010269Y007776D01*
X010296Y007824D02*
X010910Y007824D01*
X010869Y007873D02*
X010337Y007873D01*
X010396Y007921D02*
X010460Y007955D01*
X010530Y007975D01*
X010602Y007981D01*
X010674Y007975D01*
X010744Y007955D01*
X010809Y007922D01*
X010693Y007970D02*
X010512Y007970D01*
X009846Y007757D02*
X009868Y007688D01*
X009876Y007615D01*
X009871Y007549D01*
X009855Y007485D01*
X009827Y007425D01*
X009790Y007370D01*
X009744Y007323D01*
X009690Y007284D01*
X009631Y007256D01*
X009567Y007238D01*
X009501Y007231D01*
X009435Y007238D01*
X009372Y007256D01*
X009312Y007285D01*
X009258Y007324D01*
X009212Y007371D01*
X009175Y007426D01*
X009148Y007486D01*
X009132Y007550D01*
X009127Y007616D01*
X009135Y007688D01*
X009157Y007757D01*
X009191Y007821D01*
X009238Y007876D01*
X009294Y007921D01*
X009707Y007921D01*
X009707Y007922D02*
X009764Y007876D01*
X009811Y007821D01*
X009846Y007757D01*
X009835Y007776D02*
X009167Y007776D01*
X009147Y007727D02*
X009855Y007727D01*
X009869Y007679D02*
X009134Y007679D01*
X009128Y007630D02*
X009874Y007630D01*
X009873Y007582D02*
X009129Y007582D01*
X009136Y007533D02*
X009867Y007533D01*
X009854Y007485D02*
X009149Y007485D01*
X009170Y007436D02*
X009833Y007436D01*
X009802Y007388D02*
X009201Y007388D01*
X009243Y007339D02*
X009760Y007339D01*
X009699Y007291D02*
X009304Y007291D01*
X009420Y007242D02*
X009583Y007242D01*
X009807Y007824D02*
X009194Y007824D01*
X009235Y007873D02*
X009767Y007873D01*
X009707Y007922D02*
X009642Y007955D01*
X009572Y007975D01*
X009500Y007981D01*
X009428Y007975D01*
X009358Y007955D01*
X009294Y007921D01*
X009410Y007970D02*
X009591Y007970D01*
X007670Y007688D02*
X007678Y007615D01*
X007673Y007549D01*
X007657Y007485D01*
X007629Y007425D01*
X007592Y007370D01*
X007546Y007323D01*
X007492Y007284D01*
X007433Y007256D01*
X007369Y007238D01*
X007303Y007231D01*
X007237Y007238D01*
X007174Y007256D01*
X007114Y007285D01*
X007060Y007324D01*
X007014Y007371D01*
X006977Y007426D01*
X006950Y007486D01*
X006934Y007550D01*
X006929Y007616D01*
X006937Y007688D01*
X006959Y007757D01*
X006993Y007821D01*
X007040Y007876D01*
X007096Y007921D01*
X007509Y007921D01*
X007509Y007922D02*
X007566Y007876D01*
X007613Y007821D01*
X007648Y007757D01*
X007670Y007688D01*
X007671Y007679D02*
X006936Y007679D01*
X006931Y007630D02*
X007676Y007630D01*
X007675Y007582D02*
X006931Y007582D01*
X006938Y007533D02*
X007669Y007533D01*
X007656Y007485D02*
X006951Y007485D01*
X006972Y007436D02*
X007635Y007436D01*
X007604Y007388D02*
X007003Y007388D01*
X007045Y007339D02*
X007562Y007339D01*
X007501Y007291D02*
X007106Y007291D01*
X007222Y007242D02*
X007385Y007242D01*
X007657Y007727D02*
X006949Y007727D01*
X006969Y007776D02*
X007637Y007776D01*
X007610Y007824D02*
X006996Y007824D01*
X007037Y007873D02*
X007569Y007873D01*
X007509Y007922D02*
X007444Y007955D01*
X007374Y007975D01*
X007302Y007981D01*
X007230Y007975D01*
X007160Y007955D01*
X007096Y007921D01*
X007212Y007970D02*
X007393Y007970D01*
X006568Y007688D02*
X006576Y007615D01*
X006571Y007549D01*
X006555Y007485D01*
X006527Y007425D01*
X006490Y007370D01*
X006444Y007323D01*
X006390Y007284D01*
X006331Y007256D01*
X006267Y007238D01*
X006201Y007231D01*
X006135Y007238D01*
X006072Y007256D01*
X006012Y007285D01*
X005958Y007324D01*
X005912Y007371D01*
X005875Y007426D01*
X005848Y007486D01*
X005832Y007550D01*
X005827Y007616D01*
X005835Y007688D01*
X005857Y007757D01*
X005891Y007821D01*
X005938Y007876D01*
X005994Y007921D01*
X006407Y007921D01*
X006407Y007922D02*
X006464Y007876D01*
X006511Y007821D01*
X006546Y007757D01*
X006568Y007688D01*
X006569Y007679D02*
X005834Y007679D01*
X005828Y007630D02*
X006574Y007630D01*
X006573Y007582D02*
X005829Y007582D01*
X005836Y007533D02*
X006567Y007533D01*
X006554Y007485D02*
X005849Y007485D01*
X005870Y007436D02*
X006533Y007436D01*
X006502Y007388D02*
X005901Y007388D01*
X005943Y007339D02*
X006460Y007339D01*
X006399Y007291D02*
X006004Y007291D01*
X006120Y007242D02*
X006283Y007242D01*
X006555Y007727D02*
X005847Y007727D01*
X005867Y007776D02*
X006535Y007776D01*
X006507Y007824D02*
X005894Y007824D01*
X005935Y007873D02*
X006467Y007873D01*
X006407Y007922D02*
X006342Y007955D01*
X006272Y007975D01*
X006200Y007981D01*
X006128Y007975D01*
X006058Y007955D01*
X005994Y007921D01*
X006110Y007970D02*
X006291Y007970D01*
X001527Y007811D02*
X001520Y007746D01*
X001502Y007682D01*
X001473Y007622D01*
X001435Y007569D01*
X001387Y007523D01*
X001332Y007485D01*
X001272Y007458D01*
X001208Y007442D01*
X001142Y007437D01*
X001070Y007445D01*
X001001Y007467D01*
X000938Y007502D01*
X000882Y007548D01*
X000837Y007605D01*
X000804Y007669D01*
X000783Y007738D01*
X000777Y007810D01*
X000783Y007883D01*
X000803Y007953D01*
X000837Y008017D01*
X000882Y008074D01*
X000938Y008121D01*
X001001Y008156D01*
X001071Y008178D01*
X001143Y008186D01*
X001209Y008181D01*
X001273Y008165D01*
X001333Y008138D01*
X001388Y008100D01*
X001435Y008054D01*
X001474Y008000D01*
X001503Y007941D01*
X001520Y007877D01*
X001527Y007811D01*
X001526Y007824D02*
X000778Y007824D01*
X000780Y007776D02*
X001523Y007776D01*
X001515Y007727D02*
X000786Y007727D01*
X000801Y007679D02*
X001501Y007679D01*
X001477Y007630D02*
X000824Y007630D01*
X000855Y007582D02*
X001444Y007582D01*
X001398Y007533D02*
X000900Y007533D01*
X000968Y007485D02*
X001331Y007485D01*
X001209Y007079D02*
X001143Y007084D01*
X001071Y007076D01*
X001001Y007054D01*
X000938Y007019D01*
X000882Y006972D01*
X000837Y006915D01*
X000803Y006851D01*
X000783Y006781D01*
X000777Y006708D01*
X000783Y006636D01*
X000804Y006567D01*
X000837Y006503D01*
X000882Y006446D01*
X000938Y006400D01*
X001001Y006365D01*
X001070Y006343D01*
X001142Y006335D01*
X001208Y006340D01*
X001272Y006356D01*
X001332Y006383D01*
X001387Y006421D01*
X001435Y006467D01*
X001473Y006520D01*
X001502Y006580D01*
X001520Y006643D01*
X001527Y006709D01*
X000777Y006709D01*
X000781Y006757D02*
X001522Y006757D01*
X001520Y006775D02*
X001527Y006709D01*
X001522Y006660D02*
X000781Y006660D01*
X000790Y006612D02*
X001511Y006612D01*
X001494Y006563D02*
X000805Y006563D01*
X000831Y006515D02*
X001469Y006515D01*
X001434Y006466D02*
X000866Y006466D01*
X000916Y006418D02*
X001383Y006418D01*
X001301Y006369D02*
X000993Y006369D01*
X000790Y006806D02*
X001512Y006806D01*
X001520Y006775D02*
X001503Y006839D01*
X001474Y006898D01*
X001435Y006952D01*
X001388Y006998D01*
X001333Y007036D01*
X001273Y007063D01*
X001209Y007079D01*
X001305Y007048D02*
X000991Y007048D01*
X000915Y007000D02*
X001386Y007000D01*
X001436Y006951D02*
X000866Y006951D01*
X000830Y006903D02*
X001471Y006903D01*
X001495Y006854D02*
X000805Y006854D01*
X000782Y007873D02*
X001521Y007873D01*
X001508Y007921D02*
X000794Y007921D01*
X000812Y007970D02*
X001489Y007970D01*
X001461Y008018D02*
X000838Y008018D01*
X000876Y008067D02*
X001422Y008067D01*
X001366Y008115D02*
X000931Y008115D01*
X001026Y008164D02*
X001275Y008164D01*
X001143Y005336D02*
X001209Y005331D01*
X001273Y005315D01*
X001333Y005288D01*
X001388Y005250D01*
X001435Y005204D01*
X001474Y005150D01*
X001503Y005091D01*
X001520Y005027D01*
X001527Y004961D01*
X001520Y004896D01*
X001502Y004832D01*
X001473Y004772D01*
X001435Y004719D01*
X001387Y004673D01*
X001332Y004635D01*
X001272Y004608D01*
X001208Y004592D01*
X001142Y004587D01*
X001070Y004595D01*
X001001Y004617D01*
X000938Y004652D01*
X000882Y004698D01*
X000837Y004755D01*
X000804Y004819D01*
X000783Y004888D01*
X000777Y004960D01*
X000783Y005033D01*
X000803Y005103D01*
X000837Y005167D01*
X000882Y005224D01*
X000938Y005271D01*
X001001Y005306D01*
X001071Y005328D01*
X001143Y005336D01*
X000995Y005302D02*
X001301Y005302D01*
X001383Y005254D02*
X000917Y005254D01*
X000867Y005205D02*
X001434Y005205D01*
X001469Y005157D02*
X000831Y005157D01*
X000806Y005108D02*
X001494Y005108D01*
X001511Y005060D02*
X000791Y005060D01*
X000781Y005011D02*
X001522Y005011D01*
X001527Y004963D02*
X000777Y004963D01*
X000781Y004914D02*
X001522Y004914D01*
X001512Y004866D02*
X000790Y004866D01*
X000804Y004817D02*
X001495Y004817D01*
X001471Y004769D02*
X000830Y004769D01*
X000864Y004720D02*
X001436Y004720D01*
X001386Y004672D02*
X000914Y004672D01*
X000989Y004623D02*
X001306Y004623D01*
X001209Y004229D02*
X001143Y004234D01*
X001071Y004226D01*
X001001Y004204D01*
X000938Y004169D01*
X000882Y004122D01*
X000837Y004065D01*
X000803Y004001D01*
X000783Y003931D01*
X000777Y003858D01*
X000783Y003786D01*
X000804Y003717D01*
X000837Y003653D01*
X000882Y003596D01*
X000938Y003550D01*
X001001Y003515D01*
X001070Y003493D01*
X001142Y003485D01*
X001208Y003490D01*
X001272Y003506D01*
X001332Y003533D01*
X001387Y003571D01*
X001435Y003617D01*
X001473Y003670D01*
X001502Y003730D01*
X001520Y003793D01*
X001527Y003859D01*
X001520Y003925D01*
X001503Y003989D01*
X001474Y004048D01*
X001435Y004102D01*
X001388Y004148D01*
X001333Y004186D01*
X001273Y004213D01*
X001209Y004229D01*
X001331Y004187D02*
X000970Y004187D01*
X000901Y004138D02*
X001398Y004138D01*
X001444Y004090D02*
X000856Y004090D01*
X000824Y004041D02*
X001477Y004041D01*
X001501Y003993D02*
X000801Y003993D01*
X000787Y003944D02*
X001515Y003944D01*
X001523Y003896D02*
X000780Y003896D01*
X000778Y003847D02*
X001526Y003847D01*
X001521Y003799D02*
X000782Y003799D01*
X000794Y003750D02*
X001508Y003750D01*
X001489Y003702D02*
X000811Y003702D01*
X000837Y003653D02*
X001461Y003653D01*
X001423Y003605D02*
X000875Y003605D01*
X000930Y003556D02*
X001366Y003556D01*
X001276Y003508D02*
X001023Y003508D01*
D13*
X012541Y010489D03*
D14*
X012541Y009399D03*
X013659Y009942D03*
X013659Y008852D03*
X012541Y008308D03*
X012541Y007218D03*
X013659Y006674D03*
X012541Y006127D03*
X013659Y007765D03*
X007250Y010858D03*
X006250Y010358D03*
X006250Y011358D03*
X007250Y011858D03*
X006250Y012358D03*
X007250Y012858D03*
D15*
X013100Y013230D03*
X013100Y003387D03*
D16*
X003750Y009608D03*
X003750Y013608D03*
D17*
X008900Y010558D03*
X010900Y010558D03*
D18*
X009250Y012758D03*
D19*
X010250Y012758D03*
D20*
X011650Y010158D03*
M02*
