G75*
G70*
%OFA0B0*%
%FSLAX24Y24*%
%IPPOS*%
%LPD*%
%AMOC8*
5,1,8,0,0,1.08239X$1,22.5*
%
%ADD10C,0.0520*%
%ADD11C,0.0800*%
%ADD12R,0.0740X0.0740*%
%ADD13C,0.0740*%
%ADD14C,0.2000*%
%ADD15OC8,0.0520*%
%ADD16R,0.0650X0.0650*%
%ADD17C,0.0650*%
%ADD18C,0.0100*%
D10*
X003533Y002690D02*
X003533Y003210D01*
X004533Y003210D02*
X004533Y002690D01*
X005533Y002690D02*
X005533Y003210D01*
X006533Y003210D02*
X006533Y002690D01*
X007533Y002690D02*
X007533Y003210D01*
X008533Y003210D02*
X008533Y002690D01*
X009533Y002690D02*
X009533Y003210D01*
X010533Y003210D02*
X010533Y002690D01*
X010533Y005690D02*
X010533Y006210D01*
X009533Y006210D02*
X009533Y005690D01*
X008533Y005690D02*
X008533Y006210D01*
X007533Y006210D02*
X007533Y005690D01*
X006533Y005690D02*
X006533Y006210D01*
X005533Y006210D02*
X005533Y005690D01*
X004533Y005690D02*
X004533Y006210D01*
X003533Y006210D02*
X003533Y005690D01*
D11*
X001383Y006550D03*
X001383Y007650D03*
X001383Y004800D03*
X001383Y003700D03*
X006433Y007450D03*
X007533Y007450D03*
X009733Y007450D03*
X010833Y007450D03*
D12*
X012774Y010331D03*
D13*
X012774Y009241D03*
X013892Y009784D03*
X013892Y008693D03*
X013892Y007607D03*
X012774Y008150D03*
X012774Y007059D03*
X012774Y005969D03*
X013892Y006516D03*
X007483Y010700D03*
X006483Y010200D03*
X006483Y011200D03*
X007483Y011700D03*
X006483Y012200D03*
X007483Y012700D03*
D14*
X013333Y013071D03*
X013333Y003229D03*
D15*
X011133Y010400D03*
X009133Y010400D03*
D16*
X009483Y012600D03*
D17*
X010483Y012600D03*
D18*
X012233Y010850D01*
X012233Y005950D01*
X012483Y005950D01*
X012774Y005969D01*
X012733Y005950D01*
X012533Y005950D01*
X010158Y003575D01*
X010133Y003600D01*
X001483Y003600D01*
X001383Y003700D01*
X001383Y004800D02*
X004383Y004800D01*
X005533Y005950D01*
X007883Y006600D02*
X001433Y006600D01*
X001383Y006550D01*
X002133Y006900D02*
X001383Y007650D01*
X002133Y006900D02*
X009583Y006900D01*
X010533Y005950D01*
X008533Y005950D02*
X007883Y006600D01*
X010158Y003575D02*
X009533Y002950D01*
X010733Y002300D02*
X013283Y004850D01*
X013283Y008150D01*
X012774Y008150D01*
X009133Y010400D02*
X008333Y011200D01*
X006483Y011200D01*
X007483Y012700D02*
X007883Y013100D01*
X009983Y013100D01*
X010483Y012600D01*
X007533Y002950D02*
X008183Y002300D01*
X010733Y002300D01*
M02*
