%
M48
M72
T01C0.0240
T02C0.0276
T03C0.0320
T04C0.0400
T05C0.1250
T06C0.1280
T07C0.1300
%
T01
X11650Y10158
T02
X10250Y12758
X9250Y12758
T03
X8900Y10558
X10900Y10558
X10300Y6108
X9300Y6108
X8300Y6108
X7300Y6108
X6300Y6108
X5300Y6108
X4300Y6108
X3300Y6108
X3300Y3108
X4300Y3108
X5300Y3108
X6300Y3108
X7300Y3108
X8300Y3108
X9300Y3108
X10300Y3108
T04
X12541Y6127
X13659Y6674
X12541Y7218
X12541Y8308
X13659Y7765
X13659Y8852
X13659Y9942
X12541Y9399
X12541Y10489
X10600Y7608
X9500Y7608
X7300Y7608
X6200Y7608
X6250Y10358
X7250Y10858
X6250Y11358
X7250Y11858
X6250Y12358
X7250Y12858
X1150Y7808
X1150Y6708
X1150Y4958
X1150Y3858
T05
X1050Y1258
X15000Y1308
X1100Y15458
X14850Y15558
T06
X3750Y13608
X3750Y9608
T07
X13100Y13230
X13100Y3387
M30
