G75*
G70*
%OFA0B0*%
%FSLAX24Y24*%
%IPPOS*%
%LPD*%
%AMOC8*
5,1,8,0,0,1.08239X$1,22.5*
%
%ADD10C,0.0000*%
%ADD11C,0.0709*%
%ADD12C,0.2000*%
%ADD13C,0.0600*%
%ADD14OC8,0.0520*%
%ADD15OC8,0.0600*%
%ADD16C,0.0100*%
%ADD17C,0.0400*%
D10*
X000100Y002125D02*
X000100Y033125D01*
X031600Y033125D01*
X031600Y002125D01*
X000100Y002125D01*
D11*
X004700Y005725D03*
X005600Y005725D03*
X006500Y005725D03*
X007400Y005725D03*
X008300Y005725D03*
X007850Y006725D03*
X006950Y006725D03*
X006050Y006725D03*
X005150Y006725D03*
X004700Y007725D03*
X005600Y007725D03*
X006500Y007725D03*
X007400Y007725D03*
X008300Y007725D03*
X008750Y006725D03*
D12*
X011520Y006725D03*
X001680Y006725D03*
D13*
X001900Y013625D02*
X001300Y013625D01*
X001300Y014625D02*
X001900Y014625D01*
X001900Y015625D02*
X001300Y015625D01*
X001300Y016625D02*
X001900Y016625D01*
X001900Y017625D02*
X001300Y017625D01*
X001300Y018625D02*
X001900Y018625D01*
X001900Y024625D02*
X001300Y024625D01*
X001300Y025625D02*
X001900Y025625D01*
X001900Y026625D02*
X001300Y026625D01*
X001300Y027625D02*
X001900Y027625D01*
X001900Y028625D02*
X001300Y028625D01*
X001300Y029625D02*
X001900Y029625D01*
X019100Y003925D02*
X019100Y003325D01*
X020100Y003325D02*
X020100Y003925D01*
X021100Y003925D02*
X021100Y003325D01*
X023100Y003325D02*
X023100Y003925D01*
X024100Y003925D02*
X024100Y003325D01*
X025100Y003325D02*
X025100Y003925D01*
X026100Y003925D02*
X026100Y003325D01*
X027100Y003325D02*
X027100Y003925D01*
X029100Y003925D02*
X029100Y003325D01*
X030100Y003325D02*
X030100Y003925D01*
X030400Y013625D02*
X029800Y013625D01*
X029800Y014625D02*
X030400Y014625D01*
X030400Y015625D02*
X029800Y015625D01*
X029800Y016625D02*
X030400Y016625D01*
X030400Y017625D02*
X029800Y017625D01*
X029800Y018625D02*
X030400Y018625D01*
X030400Y024625D02*
X029800Y024625D01*
X029800Y025625D02*
X030400Y025625D01*
X030400Y026625D02*
X029800Y026625D01*
X029800Y027625D02*
X030400Y027625D01*
X030400Y028625D02*
X029800Y028625D01*
X029800Y029625D02*
X030400Y029625D01*
D14*
X030100Y005625D03*
X028100Y005625D03*
D15*
X017100Y004625D03*
X017100Y003625D03*
X016100Y003625D03*
X016100Y004625D03*
X015100Y004625D03*
X015100Y003625D03*
D16*
X015550Y004175D02*
X015550Y004825D01*
X011750Y008625D01*
X012000Y007875D02*
X008300Y007875D01*
X008300Y007725D01*
X008300Y007875D02*
X007250Y008925D01*
X007400Y007725D02*
X007400Y007225D01*
X008950Y007225D01*
X009250Y006925D01*
X009250Y003075D01*
X016550Y003075D01*
X017100Y003625D01*
X017100Y004625D02*
X012450Y009275D01*
X005000Y009275D01*
X004975Y009250D01*
X006500Y007725D01*
X005150Y006725D02*
X005000Y006725D01*
X004200Y005925D01*
X004200Y002675D01*
X023150Y002675D01*
X024100Y003625D01*
X025100Y003625D02*
X021050Y007675D01*
X021350Y008375D02*
X026100Y003625D01*
X028100Y005625D02*
X030100Y007625D01*
X030100Y013625D01*
X028950Y014775D01*
X028950Y028475D01*
X030100Y029625D01*
X030100Y028625D02*
X029150Y027675D01*
X029150Y015575D01*
X030100Y014625D01*
X030100Y016625D02*
X029350Y017375D01*
X029350Y017875D01*
X030100Y018625D01*
X030100Y024625D01*
X029350Y025375D01*
X029350Y025875D01*
X030100Y026625D01*
X030100Y025625D02*
X030850Y024875D01*
X030850Y018375D01*
X030825Y018350D01*
X030850Y018325D01*
X030850Y006375D01*
X030100Y005625D01*
X030100Y003625D01*
X023100Y003625D02*
X021150Y005575D01*
X020100Y003625D02*
X019350Y002875D01*
X008800Y002875D01*
X008800Y005925D01*
X008000Y006725D01*
X007850Y006725D01*
X005550Y004875D02*
X004700Y005725D01*
X004975Y009250D02*
X003650Y010575D01*
X000650Y010575D01*
X000650Y015725D01*
X001550Y016625D01*
X001600Y016625D01*
X000850Y017375D01*
X000850Y017875D01*
X000875Y017900D01*
X000850Y017925D01*
X000850Y026925D01*
X001550Y027625D01*
X001600Y027625D01*
X000850Y028375D01*
X000850Y028875D01*
X001600Y029625D01*
X001600Y028625D02*
X002750Y027475D01*
X002750Y019075D01*
X002900Y018925D01*
X001600Y018625D02*
X000875Y017900D01*
X001600Y014625D02*
X000850Y013875D01*
X000850Y013175D01*
X002100Y013175D01*
X002550Y013625D01*
X002550Y024675D01*
X001600Y025625D01*
X001600Y024625D02*
X002350Y023875D01*
X002350Y014375D01*
X001600Y013625D01*
X012000Y007875D02*
X012650Y007225D01*
X012650Y007075D01*
X015100Y004625D01*
X015550Y004175D02*
X016100Y003625D01*
X030100Y017625D02*
X030825Y018350D01*
D17*
X021350Y008375D03*
X021050Y007675D03*
X021150Y005575D03*
X011750Y008625D03*
X007250Y008925D03*
X005550Y004875D03*
X002900Y018925D03*
M02*
