G75*
G70*
%OFA0B0*%
%FSLAX24Y24*%
%IPPOS*%
%LPD*%
%AMOC8*
5,1,8,0,0,1.08239X$1,22.5*
%
%ADD10C,0.0709*%
%ADD11C,0.2000*%
%ADD12C,0.0600*%
%ADD13OC8,0.0520*%
%ADD14OC8,0.0600*%
%ADD15C,0.0100*%
%ADD16C,0.0400*%
D10*
X004700Y005725D03*
X005600Y005725D03*
X006500Y005725D03*
X007400Y005725D03*
X008300Y005725D03*
X007850Y006725D03*
X006950Y006725D03*
X006050Y006725D03*
X005150Y006725D03*
X004700Y007725D03*
X005600Y007725D03*
X006500Y007725D03*
X007400Y007725D03*
X008300Y007725D03*
X008750Y006725D03*
D11*
X011520Y006725D03*
X001680Y006725D03*
D12*
X001900Y013625D02*
X001300Y013625D01*
X001300Y014625D02*
X001900Y014625D01*
X001900Y015625D02*
X001300Y015625D01*
X001300Y016625D02*
X001900Y016625D01*
X001900Y017625D02*
X001300Y017625D01*
X001300Y018625D02*
X001900Y018625D01*
X001900Y024625D02*
X001300Y024625D01*
X001300Y025625D02*
X001900Y025625D01*
X001900Y026625D02*
X001300Y026625D01*
X001300Y027625D02*
X001900Y027625D01*
X001900Y028625D02*
X001300Y028625D01*
X001300Y029625D02*
X001900Y029625D01*
X019100Y003925D02*
X019100Y003325D01*
X020100Y003325D02*
X020100Y003925D01*
X021100Y003925D02*
X021100Y003325D01*
X023100Y003325D02*
X023100Y003925D01*
X024100Y003925D02*
X024100Y003325D01*
X025100Y003325D02*
X025100Y003925D01*
X026100Y003925D02*
X026100Y003325D01*
X027100Y003325D02*
X027100Y003925D01*
X029100Y003925D02*
X029100Y003325D01*
X030100Y003325D02*
X030100Y003925D01*
X030400Y013625D02*
X029800Y013625D01*
X029800Y014625D02*
X030400Y014625D01*
X030400Y015625D02*
X029800Y015625D01*
X029800Y016625D02*
X030400Y016625D01*
X030400Y017625D02*
X029800Y017625D01*
X029800Y018625D02*
X030400Y018625D01*
X030400Y024625D02*
X029800Y024625D01*
X029800Y025625D02*
X030400Y025625D01*
X030400Y026625D02*
X029800Y026625D01*
X029800Y027625D02*
X030400Y027625D01*
X030400Y028625D02*
X029800Y028625D01*
X029800Y029625D02*
X030400Y029625D01*
D13*
X030100Y005625D03*
X028100Y005625D03*
D14*
X017100Y004625D03*
X017100Y003625D03*
X016100Y003625D03*
X016100Y004625D03*
X015100Y004625D03*
X015100Y003625D03*
D15*
X001550Y005225D02*
X000550Y006225D01*
X000550Y016325D01*
X000850Y016325D01*
X000875Y016350D01*
X001600Y015625D01*
X001600Y014625D02*
X000850Y013875D01*
X000850Y007875D01*
X003250Y007875D01*
X005400Y005725D01*
X005600Y005725D01*
X006000Y005225D02*
X001550Y005225D01*
X004200Y007225D02*
X005100Y007225D01*
X005600Y007725D01*
X005250Y008275D02*
X004700Y007725D01*
X004200Y007925D02*
X004200Y007225D01*
X004200Y007925D02*
X004750Y008475D01*
X011600Y008475D01*
X011750Y008625D01*
X012100Y008075D02*
X008650Y008075D01*
X008300Y007725D01*
X008500Y007225D02*
X006550Y007225D01*
X006050Y006725D01*
X006950Y006725D02*
X007450Y006225D01*
X008500Y006225D01*
X009350Y005375D01*
X016550Y005375D01*
X016550Y004525D01*
X016900Y004175D01*
X018550Y004175D01*
X019100Y003625D01*
X020100Y004625D02*
X017100Y004625D01*
X016100Y004625D02*
X015550Y005175D01*
X008850Y005175D01*
X008300Y005725D01*
X008150Y004975D02*
X007400Y005725D01*
X006500Y005725D02*
X006000Y005225D01*
X005550Y004875D02*
X007550Y002875D01*
X026350Y002875D01*
X027100Y003625D01*
X028500Y004625D02*
X020150Y004625D01*
X020125Y004600D01*
X021100Y003625D01*
X020125Y004600D02*
X020100Y004625D01*
X021150Y005575D02*
X009900Y005575D01*
X008750Y006725D01*
X008500Y007225D02*
X009150Y007875D01*
X012000Y007875D01*
X012050Y007825D01*
X020900Y007825D01*
X021050Y007675D01*
X021250Y008275D02*
X005250Y008275D01*
X007250Y008925D02*
X005600Y010575D01*
X003050Y010575D01*
X001600Y012025D01*
X001600Y013625D01*
X000875Y016350D02*
X000850Y016375D01*
X000850Y022025D01*
X030850Y022025D01*
X030850Y016375D01*
X030100Y015625D01*
X030100Y016625D02*
X028500Y015025D01*
X028500Y004625D01*
X028100Y005625D02*
X025700Y008025D01*
X012150Y008025D01*
X012100Y008075D01*
X013750Y004975D02*
X008150Y004975D01*
X013750Y004975D02*
X015100Y003625D01*
X021250Y008275D02*
X021350Y008375D01*
X029350Y017625D02*
X030100Y017625D01*
X029350Y017625D02*
X029350Y019975D01*
X028150Y021175D01*
X002900Y021175D01*
X002900Y018925D01*
X001600Y017625D01*
X000850Y022025D02*
X000850Y026625D01*
X001600Y026625D01*
X001600Y025625D02*
X002350Y025625D01*
X002350Y031975D01*
X003050Y032675D01*
X028150Y032675D01*
X028150Y030575D01*
X030100Y028625D01*
X030100Y027625D02*
X030850Y027625D01*
X030850Y022025D01*
D16*
X021350Y008375D03*
X021050Y007675D03*
X021150Y005575D03*
X011750Y008625D03*
X007250Y008925D03*
X005550Y004875D03*
X002900Y018925D03*
M02*
