%
M48
M72
T01C0.0240
T02C0.0320
T03C0.0400
T04C0.0472
T05C0.1250
%
T01
X5550Y4875
X7250Y8925
X11750Y8625
X21050Y7675
X21350Y8375
X21150Y5575
X2900Y18925
T02
X28100Y5625
X30100Y5625
T03
X30100Y3625
X29100Y3625
X27100Y3625
X26100Y3625
X25100Y3625
X24100Y3625
X23100Y3625
X21100Y3625
X20100Y3625
X19100Y3625
X17100Y3625
X17100Y4625
X16100Y4625
X16100Y3625
X15100Y3625
X15100Y4625
X1600Y13625
X1600Y14625
X1600Y15625
X1600Y16625
X1600Y17625
X1600Y18625
X1600Y24625
X1600Y25625
X1600Y26625
X1600Y27625
X1600Y28625
X1600Y29625
X30100Y29625
X30100Y28625
X30100Y27625
X30100Y26625
X30100Y25625
X30100Y24625
X30100Y18625
X30100Y17625
X30100Y16625
X30100Y15625
X30100Y14625
X30100Y13625
T04
X8750Y6725
X7850Y6725
X6950Y6725
X6050Y6725
X5150Y6725
X4700Y5725
X5600Y5725
X6500Y5725
X7400Y5725
X8300Y5725
X8300Y7725
X7400Y7725
X6500Y7725
X5600Y7725
X4700Y7725
T05
X1680Y6725
X11520Y6725
M30
