G75*
G70*
%OFA0B0*%
%FSLAX24Y24*%
%IPPOS*%
%LPD*%
%AMOC8*
5,1,8,0,0,1.08239X$1,22.5*
%
%ADD10C,0.0060*%
D10*
X014444Y019230D02*
X014658Y019230D01*
X014764Y019337D01*
X014337Y019764D01*
X014337Y019337D01*
X014444Y019230D01*
X014764Y019337D02*
X014764Y019764D01*
X014658Y019871D01*
X014444Y019871D01*
X014337Y019764D01*
X014281Y020280D02*
X013961Y020280D01*
X013854Y020387D01*
X013854Y020494D01*
X013961Y020600D01*
X014281Y020600D01*
X014281Y020280D02*
X014281Y020921D01*
X013961Y020921D01*
X013854Y020814D01*
X013854Y020707D01*
X013961Y020600D01*
X013636Y020387D02*
X013530Y020280D01*
X013316Y020280D01*
X013209Y020387D01*
X013209Y020814D01*
X013316Y020921D01*
X013530Y020921D01*
X013636Y020814D01*
X013636Y020387D01*
X012992Y020280D02*
X012992Y020707D01*
X012778Y020921D01*
X012565Y020707D01*
X012565Y020280D01*
X012347Y020280D02*
X012347Y020921D01*
X012027Y020921D01*
X011920Y020814D01*
X011920Y020600D01*
X012027Y020494D01*
X012347Y020494D01*
X012134Y020494D02*
X011920Y020280D01*
X011703Y020280D02*
X011703Y020921D01*
X011382Y020921D01*
X011276Y020814D01*
X011276Y020387D01*
X011382Y020280D01*
X011703Y020280D01*
X012565Y020600D02*
X012992Y020600D01*
X012885Y021330D02*
X012672Y021330D01*
X012565Y021437D01*
X012565Y021544D01*
X012672Y021650D01*
X012778Y021650D01*
X012672Y021650D02*
X012565Y021757D01*
X012565Y021864D01*
X012672Y021971D01*
X012885Y021971D01*
X012992Y021864D01*
X012992Y021437D02*
X012885Y021330D01*
X013209Y021330D02*
X013636Y021330D01*
X013423Y021330D02*
X013423Y021971D01*
X013636Y021757D01*
X013854Y021864D02*
X014281Y021437D01*
X014174Y021330D01*
X013961Y021330D01*
X013854Y021437D01*
X013854Y021864D01*
X013961Y021971D01*
X014174Y021971D01*
X014281Y021864D01*
X014281Y021437D01*
X014498Y021330D02*
X014925Y021330D01*
X014498Y021757D01*
X014498Y021864D01*
X014605Y021971D01*
X014819Y021971D01*
X014925Y021864D01*
X015143Y021971D02*
X015570Y021330D01*
X015788Y021437D02*
X015788Y021864D01*
X015894Y021971D01*
X016108Y021971D01*
X016215Y021864D01*
X016215Y021757D01*
X016108Y021650D01*
X015788Y021650D01*
X015788Y021437D02*
X015894Y021330D01*
X016108Y021330D01*
X016215Y021437D01*
X016432Y021330D02*
X016859Y021330D01*
X016432Y021757D01*
X016432Y021864D01*
X016539Y021971D01*
X016752Y021971D01*
X016859Y021864D01*
X017077Y021971D02*
X017504Y021330D01*
X017721Y021864D02*
X018148Y021437D01*
X018148Y021330D01*
X018366Y021437D02*
X018472Y021330D01*
X018686Y021330D01*
X018793Y021437D01*
X018366Y021864D01*
X018366Y021437D01*
X018366Y021864D02*
X018472Y021971D01*
X018686Y021971D01*
X018793Y021864D01*
X018793Y021437D01*
X018793Y020921D02*
X018366Y020921D01*
X018148Y020814D02*
X018148Y020707D01*
X018041Y020600D01*
X017828Y020600D01*
X017721Y020494D01*
X017721Y020387D01*
X017828Y020280D01*
X018041Y020280D01*
X018148Y020387D01*
X018366Y020280D02*
X018793Y020280D01*
X018793Y020921D01*
X019010Y020814D02*
X019010Y020600D01*
X019117Y020494D01*
X019437Y020494D01*
X019224Y020494D02*
X019010Y020280D01*
X018793Y020600D02*
X018579Y020600D01*
X018148Y020814D02*
X018041Y020921D01*
X017828Y020921D01*
X017721Y020814D01*
X017504Y020814D02*
X017504Y020707D01*
X017397Y020600D01*
X017183Y020600D01*
X017077Y020494D01*
X017077Y020387D01*
X017183Y020280D01*
X017397Y020280D01*
X017504Y020387D01*
X017504Y020814D02*
X017397Y020921D01*
X017183Y020921D01*
X017077Y020814D01*
X016859Y020921D02*
X016859Y020387D01*
X016752Y020280D01*
X016539Y020280D01*
X016432Y020387D01*
X016432Y020921D01*
X016215Y020921D02*
X015894Y020921D01*
X015788Y020814D01*
X015788Y020600D01*
X015894Y020494D01*
X016215Y020494D01*
X016001Y020494D02*
X015788Y020280D01*
X015570Y020280D02*
X015143Y020280D01*
X015356Y020600D02*
X015570Y020600D01*
X015570Y020280D02*
X015570Y020921D01*
X015143Y020921D01*
X015089Y019871D02*
X014982Y019764D01*
X015409Y019337D01*
X015302Y019230D01*
X015089Y019230D01*
X014982Y019337D01*
X014982Y019764D01*
X015089Y019871D02*
X015302Y019871D01*
X015409Y019764D01*
X015409Y019337D01*
X015624Y019337D02*
X015624Y019230D01*
X015731Y019230D01*
X015731Y019337D01*
X015624Y019337D01*
X015949Y019230D02*
X016376Y019230D01*
X016162Y019230D02*
X016162Y019871D01*
X016376Y019657D01*
X016593Y019657D02*
X016807Y019230D01*
X017020Y019657D01*
X016215Y020280D02*
X016215Y020921D01*
X017721Y021864D02*
X017721Y021971D01*
X018148Y021971D01*
X018148Y022380D02*
X017828Y022380D01*
X017721Y022487D01*
X017721Y022914D01*
X017828Y023021D01*
X018148Y023021D01*
X018148Y022380D01*
X018366Y022380D02*
X018366Y022807D01*
X018579Y023021D01*
X018793Y022807D01*
X018793Y022380D01*
X018793Y022700D02*
X018366Y022700D01*
X017504Y022700D02*
X017077Y022700D01*
X017077Y022807D02*
X017077Y022380D01*
X016859Y022380D02*
X016859Y023021D01*
X016646Y022807D01*
X016432Y023021D01*
X016432Y022380D01*
X017077Y022807D02*
X017290Y023021D01*
X017504Y022807D01*
X017504Y022380D01*
X019010Y020814D02*
X019117Y020921D01*
X019437Y020921D01*
X019437Y020280D01*
X019655Y020600D02*
X019762Y020494D01*
X020082Y020494D01*
X020082Y020280D02*
X020082Y020921D01*
X019762Y020921D01*
X019655Y020814D01*
X019655Y020600D01*
X015570Y022487D02*
X015463Y022380D01*
X015250Y022380D01*
X015143Y022487D01*
X014925Y022380D02*
X014925Y023021D01*
X015143Y022914D02*
X015250Y023021D01*
X015463Y023021D01*
X015570Y022914D01*
X015570Y022487D01*
X014925Y022700D02*
X014498Y022700D01*
X014281Y022700D02*
X013854Y022700D01*
X013854Y022807D02*
X013854Y022380D01*
X013636Y022487D02*
X013530Y022380D01*
X013316Y022380D01*
X013209Y022487D01*
X013209Y022594D01*
X013316Y022700D01*
X013530Y022700D01*
X013636Y022807D01*
X013636Y022914D01*
X013530Y023021D01*
X013316Y023021D01*
X013209Y022914D01*
X012992Y023021D02*
X012992Y022380D01*
X012565Y022380D01*
X012778Y022700D02*
X012992Y022700D01*
X012992Y023021D02*
X012565Y023021D01*
X013854Y022807D02*
X014067Y023021D01*
X014281Y022807D01*
X014281Y022380D01*
X014498Y022380D02*
X014498Y023021D01*
M02*
