G75*
G70*
%OFA0B0*%
%FSLAX24Y24*%
%IPPOS*%
%LPD*%
%AMOC8*
5,1,8,0,0,1.08239X$1,22.5*
%
%ADD10C,0.0050*%
%ADD11C,0.0060*%
D10*
X000400Y002125D02*
X000400Y008425D01*
X012800Y008425D01*
X012800Y002125D01*
X012800Y002375D02*
X000400Y002375D01*
D11*
X001350Y013125D02*
X001100Y013375D01*
X001100Y013875D01*
X001350Y014125D01*
X001100Y014375D01*
X001100Y014875D01*
X001350Y015125D01*
X001850Y015125D01*
X002100Y014875D01*
X002100Y014375D01*
X001850Y014125D01*
X002100Y013875D01*
X002100Y013375D01*
X001850Y013125D01*
X001350Y013125D01*
X001350Y014125D02*
X001850Y014125D01*
X001850Y015125D02*
X002100Y015375D01*
X002100Y015875D01*
X001850Y016125D01*
X002100Y016375D01*
X002100Y016875D01*
X001850Y017125D01*
X002100Y017375D01*
X002100Y017875D01*
X001850Y018125D01*
X002100Y018375D01*
X002100Y018875D01*
X001850Y019125D01*
X001350Y019125D01*
X001100Y018875D01*
X001100Y018375D01*
X001350Y018125D01*
X001850Y018125D01*
X001350Y018125D02*
X001100Y017875D01*
X001100Y017375D01*
X001350Y017125D01*
X001850Y017125D01*
X001350Y017125D02*
X001100Y016875D01*
X001100Y016375D01*
X001350Y016125D01*
X001850Y016125D01*
X001350Y016125D02*
X001100Y015875D01*
X001100Y015375D01*
X001350Y015125D01*
X001350Y024125D02*
X001100Y024375D01*
X001100Y024875D01*
X001350Y025125D01*
X001100Y025375D01*
X001100Y025875D01*
X001350Y026125D01*
X001850Y026125D01*
X002100Y025875D01*
X002100Y025375D01*
X001850Y025125D01*
X002100Y024875D01*
X002100Y024375D01*
X001850Y024125D01*
X001350Y024125D01*
X001350Y025125D02*
X001850Y025125D01*
X001850Y026125D02*
X002100Y026375D01*
X002100Y026875D01*
X001850Y027125D01*
X002100Y027375D01*
X002100Y027875D01*
X001850Y028125D01*
X002100Y028375D01*
X002100Y028875D01*
X001850Y029125D01*
X002100Y029375D01*
X002100Y029875D01*
X001850Y030125D01*
X001350Y030125D01*
X001100Y029875D01*
X001100Y029375D01*
X001350Y029125D01*
X001850Y029125D01*
X001350Y029125D02*
X001100Y028875D01*
X001100Y028375D01*
X001350Y028125D01*
X001850Y028125D01*
X001350Y028125D02*
X001100Y027875D01*
X001100Y027375D01*
X001350Y027125D01*
X001850Y027125D01*
X001350Y027125D02*
X001100Y026875D01*
X001100Y026375D01*
X001350Y026125D01*
X014850Y005125D02*
X015350Y005125D01*
X015600Y004875D01*
X015600Y003375D01*
X015850Y003125D01*
X016350Y003125D01*
X016600Y003375D01*
X016850Y003125D01*
X017350Y003125D01*
X017600Y003375D01*
X017600Y004875D01*
X017350Y005125D01*
X016850Y005125D01*
X016600Y004875D01*
X016600Y003375D01*
X015600Y003375D02*
X015350Y003125D01*
X014850Y003125D01*
X014600Y003375D01*
X014600Y004875D01*
X014850Y005125D01*
X015600Y004875D02*
X015850Y005125D01*
X016350Y005125D01*
X016600Y004875D01*
X018600Y003875D02*
X018600Y003375D01*
X018850Y003125D01*
X019350Y003125D01*
X019600Y003375D01*
X019850Y003125D01*
X020350Y003125D01*
X020600Y003375D01*
X020850Y003125D01*
X021350Y003125D01*
X021600Y003375D01*
X021600Y003875D01*
X021350Y004125D01*
X020850Y004125D01*
X020600Y003875D01*
X020600Y003375D01*
X020600Y003875D02*
X020350Y004125D01*
X019850Y004125D01*
X019600Y003875D01*
X019600Y003375D01*
X019600Y003875D02*
X019350Y004125D01*
X018850Y004125D01*
X018600Y003875D01*
X022600Y003875D02*
X022600Y003375D01*
X022850Y003125D01*
X023350Y003125D01*
X023600Y003375D01*
X023600Y003875D01*
X023350Y004125D01*
X022850Y004125D01*
X022600Y003875D01*
X023600Y003875D02*
X023850Y004125D01*
X024350Y004125D01*
X024600Y003875D01*
X024850Y004125D01*
X025350Y004125D01*
X025600Y003875D01*
X025850Y004125D01*
X026350Y004125D01*
X026600Y003875D01*
X026850Y004125D01*
X027350Y004125D01*
X027600Y003875D01*
X027600Y003375D01*
X027350Y003125D01*
X026850Y003125D01*
X026600Y003375D01*
X026350Y003125D01*
X025850Y003125D01*
X025600Y003375D01*
X025600Y003875D01*
X025600Y003375D02*
X025350Y003125D01*
X024850Y003125D01*
X024600Y003375D01*
X024350Y003125D01*
X023850Y003125D01*
X023600Y003375D01*
X024600Y003375D02*
X024600Y003875D01*
X026600Y003875D02*
X026600Y003375D01*
X028500Y005275D02*
X028600Y005275D01*
X028650Y005325D01*
X029550Y005325D01*
X029600Y005275D01*
X029700Y005275D01*
X029717Y005277D01*
X029734Y005281D01*
X029750Y005288D01*
X029764Y005298D01*
X029777Y005311D01*
X029787Y005325D01*
X029794Y005341D01*
X029798Y005358D01*
X029800Y005375D01*
X029800Y005875D02*
X029798Y005892D01*
X029794Y005909D01*
X029787Y005925D01*
X029777Y005939D01*
X029764Y005952D01*
X029750Y005962D01*
X029734Y005969D01*
X029717Y005973D01*
X029700Y005975D01*
X029600Y005975D01*
X029550Y005925D01*
X028650Y005925D01*
X028600Y005975D01*
X028500Y005975D01*
X028483Y005973D01*
X028466Y005969D01*
X028450Y005962D01*
X028436Y005952D01*
X028423Y005939D01*
X028413Y005925D01*
X028406Y005909D01*
X028402Y005892D01*
X028400Y005875D01*
X028400Y005375D02*
X028402Y005358D01*
X028406Y005341D01*
X028413Y005325D01*
X028423Y005311D01*
X028436Y005298D01*
X028450Y005288D01*
X028466Y005281D01*
X028483Y005277D01*
X028500Y005275D01*
X028850Y004125D02*
X029350Y004125D01*
X029600Y003875D01*
X029850Y004125D01*
X030350Y004125D01*
X030600Y003875D01*
X030600Y003375D01*
X030350Y003125D01*
X029850Y003125D01*
X029600Y003375D01*
X029350Y003125D01*
X028850Y003125D01*
X028600Y003375D01*
X028600Y003875D01*
X028850Y004125D01*
X029600Y003875D02*
X029600Y003375D01*
X029850Y013125D02*
X029600Y013375D01*
X029600Y013875D01*
X029850Y014125D01*
X029600Y014375D01*
X029600Y014875D01*
X029850Y015125D01*
X030350Y015125D01*
X030600Y014875D01*
X030600Y014375D01*
X030350Y014125D01*
X030600Y013875D01*
X030600Y013375D01*
X030350Y013125D01*
X029850Y013125D01*
X029850Y014125D02*
X030350Y014125D01*
X030350Y015125D02*
X030600Y015375D01*
X030600Y015875D01*
X030350Y016125D01*
X030600Y016375D01*
X030600Y016875D01*
X030350Y017125D01*
X030600Y017375D01*
X030600Y017875D01*
X030350Y018125D01*
X030600Y018375D01*
X030600Y018875D01*
X030350Y019125D01*
X029850Y019125D01*
X029600Y018875D01*
X029600Y018375D01*
X029850Y018125D01*
X030350Y018125D01*
X029850Y018125D02*
X029600Y017875D01*
X029600Y017375D01*
X029850Y017125D01*
X030350Y017125D01*
X029850Y017125D02*
X029600Y016875D01*
X029600Y016375D01*
X029850Y016125D01*
X030350Y016125D01*
X029850Y016125D02*
X029600Y015875D01*
X029600Y015375D01*
X029850Y015125D01*
X029850Y024125D02*
X029600Y024375D01*
X029600Y024875D01*
X029850Y025125D01*
X029600Y025375D01*
X029600Y025875D01*
X029850Y026125D01*
X029600Y026375D01*
X029600Y026875D01*
X029850Y027125D01*
X029600Y027375D01*
X029600Y027875D01*
X029850Y028125D01*
X029600Y028375D01*
X029600Y028875D01*
X029850Y029125D01*
X029600Y029375D01*
X029600Y029875D01*
X029850Y030125D01*
X030350Y030125D01*
X030600Y029875D01*
X030600Y029375D01*
X030350Y029125D01*
X030600Y028875D01*
X030600Y028375D01*
X030350Y028125D01*
X029850Y028125D01*
X030350Y028125D02*
X030600Y027875D01*
X030600Y027375D01*
X030350Y027125D01*
X030600Y026875D01*
X030600Y026375D01*
X030350Y026125D01*
X030600Y025875D01*
X030600Y025375D01*
X030350Y025125D01*
X030600Y024875D01*
X030600Y024375D01*
X030350Y024125D01*
X029850Y024125D01*
X029850Y025125D02*
X030350Y025125D01*
X030350Y026125D02*
X029850Y026125D01*
X029850Y027125D02*
X030350Y027125D01*
X030350Y029125D02*
X029850Y029125D01*
M02*
