%
M48
M72
T01C0.0240
T02C0.0276
T03C0.0315
T04C0.0394
T05C0.0400
T06C0.1250
T07C0.1280
%
T01
X9150Y5600
X9950Y5350
X7100Y7050
X14000Y10300
X11450Y14300
X14950Y17800
X15600Y18450
X13350Y19250
X16800Y21500
X23350Y18200
X24750Y17600
X24750Y18850
X25900Y19950
X24700Y16250
X23450Y16250
X25750Y12600
X23900Y11650
X28800Y13850
X30800Y13100
X31650Y13500
X32500Y14750
X35400Y16750
X35050Y17200
X33250Y17200
X36800Y10700
X31300Y9200
X25900Y5450
X26250Y4000
X22550Y5000
X22550Y5500
X23600Y7050
X35950Y2750
X37000Y3250
X36250Y4350
X7700Y20650
X7700Y21150
X1600Y15600
T02
X24350Y14100
X25350Y14100
X25350Y13100
X24350Y13100
X24350Y12100
X25350Y12100
T03
X12350Y19600
X11350Y19600
X10350Y19600
X9350Y19600
X7850Y22100
X6850Y22100
X10050Y15400
X10050Y14400
X10050Y13400
X10050Y12400
X10050Y11400
X10050Y10400
X10050Y9400
X10050Y8400
X10350Y3100
X11350Y3100
T04
X12350Y3100
X13350Y3100
X14350Y3100
X15350Y3100
X16350Y3100
X17350Y3100
X19350Y3100
X20350Y3100
X21350Y3100
X22350Y3100
X23350Y3100
X24350Y3100
X25350Y3100
X26350Y3100
X28350Y3100
X29350Y3100
X30350Y3100
X31350Y3100
X32350Y3100
X33350Y3100
X34350Y3100
X35350Y3100
X36350Y5100
X37350Y5100
X37350Y6100
X36350Y6100
X36350Y7100
X37350Y7100
X37350Y8100
X36350Y8100
X36350Y9100
X37350Y9100
X37350Y10100
X36350Y10100
X36350Y11100
X37350Y11100
X37350Y12100
X36350Y12100
X36350Y13100
X37350Y13100
X37350Y14100
X36350Y14100
X36350Y15100
X37350Y15100
X37350Y16100
X36350Y16100
X36350Y17100
X37350Y17100
X37350Y18100
X36350Y18100
X36350Y19100
X37350Y19100
X37350Y20100
X36350Y20100
X36350Y21100
X37350Y21100
X37350Y22100
X36350Y22100
X33350Y22100
X32350Y22100
X31350Y22100
X30350Y22100
X29350Y22100
X28350Y22100
X27350Y22100
X26350Y22100
X24350Y22100
X23350Y22100
X22350Y22100
X21350Y22100
X20350Y22100
X19350Y22100
X18350Y22100
X17350Y22100
X15850Y22100
X14850Y22100
X13850Y22100
X12850Y22100
X11850Y22100
X10850Y22100
X9850Y22100
X8850Y22100
X8850Y22100
T05
X7400Y19600
X6400Y19100
X7400Y18600
X6400Y18100
X7400Y17600
X6400Y17100
X3600Y14450
X3600Y13450
X2600Y13450
X1600Y13450
X1600Y14450
X2600Y14450
X2600Y12450
X1600Y12450
X1600Y11450
X2600Y11450
X3600Y11450
X3600Y10450
X2600Y10450
X1600Y10450
X1600Y9450
X2600Y9450
X3600Y9450
X3600Y8450
X2600Y8450
X1600Y8450
X1600Y7450
X2600Y7450
X3600Y7450
X7000Y4950
X8000Y4450
X7000Y3950
X8000Y3450
X7000Y2950
X8000Y2450
X7000Y1950
X8000Y1450
X7000Y950
X8000Y5450
X3600Y12450
T06
X20050Y4900
X21850Y16350
T07
X4500Y900
X4500Y5400
X3900Y16350
X3900Y20350
M30
