G75*
G70*
%OFA0B0*%
%FSLAX24Y24*%
%IPPOS*%
%LPD*%
%AMOC8*
5,1,8,0,0,1.08239X$1,22.5*
%
%ADD10C,0.0060*%
%ADD11C,0.0050*%
%ADD12C,0.0040*%
%ADD13R,0.0200X0.0200*%
%ADD14C,0.0030*%
%ADD15C,0.0080*%
%ADD16R,0.0160X0.0280*%
%ADD17R,0.0280X0.0160*%
%ADD18C,0.0160*%
D10*
X006500Y000700D02*
X006750Y000450D01*
X007250Y000450D01*
X007500Y000700D01*
X007500Y001200D01*
X007250Y001450D01*
X006750Y001450D01*
X006500Y001200D01*
X006500Y000700D01*
X007500Y001200D02*
X007500Y001700D01*
X007250Y001450D01*
X007500Y001200D02*
X007750Y000950D01*
X008250Y000950D01*
X008500Y001200D01*
X008500Y001700D01*
X008250Y001950D01*
X007750Y001950D01*
X007500Y001700D01*
X007500Y002200D01*
X007250Y002450D01*
X006750Y002450D01*
X006500Y002200D01*
X006500Y001700D01*
X006750Y001450D01*
X007500Y002200D02*
X007500Y002700D01*
X007250Y002450D01*
X007500Y002200D02*
X007750Y001950D01*
X008250Y001950D02*
X008500Y002200D01*
X008500Y002700D01*
X008250Y002950D01*
X007750Y002950D01*
X007500Y002700D01*
X007500Y003200D01*
X007250Y003450D01*
X006750Y003450D01*
X006500Y003700D01*
X006500Y004200D01*
X006750Y004450D01*
X006500Y004700D01*
X006500Y005200D01*
X006750Y005450D01*
X007250Y005450D01*
X007500Y005200D01*
X007500Y004700D01*
X007250Y004450D01*
X007500Y004200D01*
X007500Y003700D01*
X007250Y003450D01*
X007500Y003200D02*
X007500Y003700D01*
X007750Y003950D01*
X007500Y004200D01*
X007500Y004700D01*
X007750Y004950D01*
X007500Y005200D01*
X007500Y005700D01*
X007750Y005950D01*
X008250Y005950D01*
X008500Y005700D01*
X008500Y005200D01*
X008250Y004950D01*
X008500Y004700D01*
X008500Y004200D01*
X008250Y003950D01*
X007750Y003950D01*
X008250Y003950D02*
X008500Y003700D01*
X008500Y003200D01*
X008250Y002950D01*
X007750Y002950D02*
X007500Y003200D01*
X006750Y003450D02*
X006500Y003200D01*
X006500Y002700D01*
X006750Y002450D01*
X006750Y004450D02*
X007250Y004450D01*
X007750Y004950D02*
X008250Y004950D01*
X027707Y006430D02*
X027707Y006857D01*
X027921Y007071D01*
X028134Y006857D01*
X028134Y006430D01*
X028352Y006430D02*
X028672Y006430D01*
X028779Y006537D01*
X028779Y006964D01*
X028672Y007071D01*
X028352Y007071D01*
X028352Y006430D01*
X028459Y006021D02*
X028672Y006021D01*
X028779Y005914D01*
X028352Y005487D01*
X028459Y005380D01*
X028672Y005380D01*
X028779Y005487D01*
X028779Y005914D01*
X028996Y006021D02*
X029423Y006021D01*
X029423Y005914D01*
X028996Y005487D01*
X028996Y005380D01*
X028940Y004971D02*
X028513Y004971D01*
X028513Y004330D01*
X028513Y004650D02*
X028726Y004650D01*
X029157Y004330D02*
X029478Y004330D01*
X029585Y004437D01*
X029585Y004864D01*
X029478Y004971D01*
X029157Y004971D01*
X029157Y004330D01*
X029802Y004330D02*
X029802Y004971D01*
X030122Y004971D01*
X030229Y004864D01*
X030229Y004650D01*
X030122Y004544D01*
X029802Y004544D01*
X030016Y004544D02*
X030229Y004330D01*
X031091Y004757D02*
X031305Y004330D01*
X031518Y004757D01*
X031736Y004757D02*
X031949Y004971D01*
X031949Y004330D01*
X031736Y004330D02*
X032163Y004330D01*
X032380Y004330D02*
X032380Y004437D01*
X032487Y004437D01*
X032487Y004330D01*
X032380Y004330D01*
X032703Y004437D02*
X033130Y004864D01*
X033130Y004437D01*
X033023Y004330D01*
X032809Y004330D01*
X032703Y004437D01*
X032703Y004864D01*
X032809Y004971D01*
X033023Y004971D01*
X033130Y004864D01*
X033184Y005380D02*
X032970Y005380D01*
X032864Y005487D01*
X032646Y005380D02*
X032219Y005380D01*
X032433Y005380D02*
X032433Y006021D01*
X032219Y005807D01*
X032002Y006021D02*
X031575Y005380D01*
X031357Y005487D02*
X031357Y005594D01*
X031250Y005700D01*
X030930Y005700D01*
X030930Y005487D01*
X031037Y005380D01*
X031250Y005380D01*
X031357Y005487D01*
X031144Y005914D02*
X030930Y005700D01*
X030712Y005807D02*
X030712Y005914D01*
X030606Y006021D01*
X030392Y006021D01*
X030285Y005914D01*
X030068Y006021D02*
X029641Y005380D01*
X030285Y005380D02*
X030712Y005807D01*
X031144Y005914D02*
X031357Y006021D01*
X031250Y006430D02*
X031037Y006430D01*
X030930Y006537D01*
X030930Y006964D01*
X031037Y007071D01*
X031250Y007071D01*
X031357Y006964D01*
X031575Y007071D02*
X031575Y006430D01*
X031357Y006537D02*
X031250Y006430D01*
X031575Y006750D02*
X032002Y006750D01*
X032219Y006750D02*
X032646Y006750D01*
X032646Y006857D02*
X032646Y006430D01*
X032864Y006537D02*
X032970Y006430D01*
X033184Y006430D01*
X033291Y006537D01*
X033291Y006644D01*
X033184Y006750D01*
X032970Y006750D01*
X032864Y006857D01*
X032864Y006964D01*
X032970Y007071D01*
X033184Y007071D01*
X033291Y006964D01*
X033508Y007071D02*
X033508Y006430D01*
X033935Y006430D01*
X033722Y006750D02*
X033508Y006750D01*
X033508Y007071D02*
X033935Y007071D01*
X033184Y006021D02*
X032970Y006021D01*
X032864Y005914D01*
X033077Y005700D02*
X033184Y005700D01*
X033291Y005594D01*
X033291Y005487D01*
X033184Y005380D01*
X033184Y005700D02*
X033291Y005807D01*
X033291Y005914D01*
X033184Y006021D01*
X032646Y006857D02*
X032433Y007071D01*
X032219Y006857D01*
X032219Y006430D01*
X032002Y006430D02*
X032002Y007071D01*
X030068Y007071D02*
X030068Y006430D01*
X029641Y006430D02*
X029641Y007071D01*
X029854Y006857D01*
X030068Y007071D01*
X029423Y006857D02*
X029423Y006430D01*
X028996Y006430D02*
X028996Y006857D01*
X029210Y007071D01*
X029423Y006857D01*
X029423Y006750D02*
X028996Y006750D01*
X028134Y006750D02*
X027707Y006750D01*
X028459Y006021D02*
X028352Y005914D01*
X028352Y005487D01*
X030285Y005380D02*
X030712Y005380D01*
D11*
X000500Y005900D02*
X000500Y000400D01*
X008500Y000400D02*
X008500Y005900D01*
X000500Y005900D01*
X009850Y003350D02*
X009850Y002850D01*
X010100Y002600D01*
X010600Y002600D01*
X010850Y002850D01*
X011100Y002600D01*
X011600Y002600D01*
X011850Y002850D01*
X012100Y002600D01*
X012600Y002600D01*
X012850Y002850D01*
X013100Y002600D01*
X013600Y002600D01*
X013850Y002850D01*
X014100Y002600D01*
X014600Y002600D01*
X014850Y002850D01*
X015100Y002600D01*
X015600Y002600D01*
X015850Y002850D01*
X016100Y002600D01*
X016600Y002600D01*
X016850Y002850D01*
X017100Y002600D01*
X017600Y002600D01*
X017850Y002850D01*
X017850Y003350D01*
X017600Y003600D01*
X017100Y003600D01*
X016850Y003350D01*
X016600Y003600D01*
X016100Y003600D01*
X015850Y003350D01*
X015600Y003600D01*
X015100Y003600D01*
X014850Y003350D01*
X014600Y003600D01*
X014100Y003600D01*
X013850Y003350D01*
X013600Y003600D01*
X013100Y003600D01*
X012850Y003350D01*
X012600Y003600D01*
X012100Y003600D01*
X011850Y003350D01*
X011600Y003600D01*
X011100Y003600D01*
X010850Y003350D01*
X010600Y003600D01*
X010100Y003600D01*
X009850Y003350D01*
X018850Y003350D02*
X018850Y002850D01*
X019100Y002600D01*
X019600Y002600D01*
X019850Y002850D01*
X020100Y002600D01*
X020600Y002600D01*
X020850Y002850D01*
X021100Y002600D01*
X021600Y002600D01*
X021850Y002850D01*
X022100Y002600D01*
X022600Y002600D01*
X022850Y002850D01*
X023100Y002600D01*
X023600Y002600D01*
X023850Y002850D01*
X024100Y002600D01*
X024600Y002600D01*
X024850Y002850D01*
X025100Y002600D01*
X025600Y002600D01*
X025850Y002850D01*
X026100Y002600D01*
X026600Y002600D01*
X026850Y002850D01*
X026850Y003350D01*
X026600Y003600D01*
X026100Y003600D01*
X025850Y003350D01*
X025600Y003600D01*
X025100Y003600D01*
X024850Y003350D01*
X024600Y003600D01*
X024100Y003600D01*
X023850Y003350D01*
X023600Y003600D01*
X023100Y003600D01*
X022850Y003350D01*
X022600Y003600D01*
X022100Y003600D01*
X021850Y003350D01*
X021600Y003600D01*
X021100Y003600D01*
X020850Y003350D01*
X020600Y003600D01*
X020100Y003600D01*
X019850Y003350D01*
X019600Y003600D01*
X019100Y003600D01*
X018850Y003350D01*
X027850Y003350D02*
X027850Y002850D01*
X028100Y002600D01*
X028600Y002600D01*
X028850Y002850D01*
X029100Y002600D01*
X029600Y002600D01*
X029850Y002850D01*
X030100Y002600D01*
X030600Y002600D01*
X030850Y002850D01*
X031100Y002600D01*
X031600Y002600D01*
X031850Y002850D01*
X032100Y002600D01*
X032600Y002600D01*
X032850Y002850D01*
X033100Y002600D01*
X033600Y002600D01*
X033850Y002850D01*
X034100Y002600D01*
X034600Y002600D01*
X034850Y002850D01*
X035100Y002600D01*
X035600Y002600D01*
X035850Y002850D01*
X035850Y003350D01*
X035600Y003600D01*
X035100Y003600D01*
X034850Y003350D01*
X034600Y003600D01*
X034100Y003600D01*
X033850Y003350D01*
X033600Y003600D01*
X033100Y003600D01*
X032850Y003350D01*
X032600Y003600D01*
X032100Y003600D01*
X031850Y003350D01*
X031600Y003600D01*
X031100Y003600D01*
X030850Y003350D01*
X030600Y003600D01*
X030100Y003600D01*
X029850Y003350D01*
X029600Y003600D01*
X029100Y003600D01*
X028850Y003350D01*
X028600Y003600D01*
X028100Y003600D01*
X027850Y003350D01*
X035850Y004850D02*
X036100Y004600D01*
X037600Y004600D01*
X037850Y004850D01*
X037850Y005350D01*
X037600Y005600D01*
X037850Y005850D01*
X037850Y006350D01*
X037600Y006600D01*
X037850Y006850D01*
X037850Y007350D01*
X037600Y007600D01*
X037850Y007850D01*
X037850Y008350D01*
X037600Y008600D01*
X037850Y008850D01*
X037850Y009350D01*
X037600Y009600D01*
X037850Y009850D01*
X037850Y010350D01*
X037600Y010600D01*
X037850Y010850D01*
X037850Y011350D01*
X037600Y011600D01*
X037850Y011850D01*
X037850Y012350D01*
X037600Y012600D01*
X037850Y012850D01*
X037850Y013350D01*
X037600Y013600D01*
X037850Y013850D01*
X037850Y014350D01*
X037600Y014600D01*
X037850Y014850D01*
X037850Y015350D01*
X037600Y015600D01*
X037850Y015850D01*
X037850Y016350D01*
X037600Y016600D01*
X037850Y016850D01*
X037850Y017350D01*
X037600Y017600D01*
X037850Y017850D01*
X037850Y018350D01*
X037600Y018600D01*
X037850Y018850D01*
X037850Y019350D01*
X037600Y019600D01*
X037850Y019850D01*
X037850Y020350D01*
X037600Y020600D01*
X037850Y020850D01*
X037850Y021350D01*
X037600Y021600D01*
X037850Y021850D01*
X037850Y022350D01*
X037600Y022600D01*
X036100Y022600D01*
X035850Y022350D01*
X035850Y021850D01*
X036100Y021600D01*
X035850Y021350D01*
X035850Y020850D01*
X036100Y020600D01*
X035850Y020350D01*
X035850Y019850D01*
X036100Y019600D01*
X035850Y019350D01*
X035850Y018850D01*
X036100Y018600D01*
X035850Y018350D01*
X035850Y017850D01*
X036100Y017600D01*
X035850Y017350D01*
X035850Y016850D01*
X036100Y016600D01*
X035850Y016350D01*
X035850Y015850D01*
X036100Y015600D01*
X035850Y015350D01*
X035850Y014850D01*
X036100Y014600D01*
X035850Y014350D01*
X035850Y013850D01*
X036100Y013600D01*
X035850Y013350D01*
X035850Y012850D01*
X036100Y012600D01*
X035850Y012350D01*
X035850Y011850D01*
X036100Y011600D01*
X035850Y011350D01*
X035850Y010850D01*
X036100Y010600D01*
X035850Y010350D01*
X035850Y009850D01*
X036100Y009600D01*
X035850Y009350D01*
X035850Y008850D01*
X036100Y008600D01*
X035850Y008350D01*
X035850Y007850D01*
X036100Y007600D01*
X035850Y007350D01*
X035850Y006850D01*
X036100Y006600D01*
X035850Y006350D01*
X035850Y005850D01*
X036100Y005600D01*
X035850Y005350D01*
X035850Y004850D01*
X036322Y003889D02*
X036499Y003889D01*
X036420Y003791D02*
X036420Y003692D01*
X036322Y003692D02*
X036322Y003889D01*
X036420Y003791D02*
X036755Y003791D01*
X037345Y003791D02*
X037680Y003791D01*
X037680Y003692D01*
X037680Y002708D02*
X037680Y002609D01*
X037345Y002609D01*
X036755Y002609D02*
X036420Y002609D01*
X036420Y002708D01*
X025850Y011850D02*
X025600Y011600D01*
X024100Y011600D01*
X023850Y011850D01*
X023850Y012350D01*
X024100Y012600D01*
X023850Y012850D01*
X023850Y013350D01*
X024100Y013600D01*
X023850Y013850D01*
X023850Y014600D01*
X025600Y014600D01*
X025850Y014350D01*
X025850Y013850D01*
X025600Y013600D01*
X025850Y013350D01*
X025850Y012850D01*
X025600Y012600D01*
X025850Y012350D01*
X025850Y011850D01*
X027751Y013993D02*
X027751Y020213D01*
X033775Y020213D01*
X033775Y013993D01*
X027751Y013993D01*
X029602Y013993D02*
X029602Y014623D01*
X029601Y014623D02*
X029603Y014662D01*
X029609Y014700D01*
X029618Y014737D01*
X029631Y014774D01*
X029648Y014809D01*
X029667Y014842D01*
X029690Y014873D01*
X029716Y014902D01*
X029745Y014928D01*
X029776Y014951D01*
X029809Y014970D01*
X029844Y014987D01*
X029881Y015000D01*
X029918Y015009D01*
X029956Y015015D01*
X029995Y015017D01*
X032672Y015017D01*
X032711Y015015D01*
X032749Y015009D01*
X032786Y015000D01*
X032823Y014987D01*
X032858Y014970D01*
X032891Y014951D01*
X032922Y014928D01*
X032951Y014902D01*
X032977Y014873D01*
X033000Y014842D01*
X033019Y014809D01*
X033036Y014774D01*
X033049Y014737D01*
X033058Y014700D01*
X033064Y014662D01*
X033066Y014623D01*
X033066Y013993D01*
X033100Y021600D02*
X032850Y021850D01*
X032600Y021600D01*
X032100Y021600D01*
X031850Y021850D01*
X031600Y021600D01*
X031100Y021600D01*
X030850Y021850D01*
X030600Y021600D01*
X030100Y021600D01*
X029850Y021850D01*
X029600Y021600D01*
X029100Y021600D01*
X028850Y021850D01*
X028600Y021600D01*
X028100Y021600D01*
X027850Y021850D01*
X027600Y021600D01*
X027100Y021600D01*
X026850Y021850D01*
X026600Y021600D01*
X026100Y021600D01*
X025850Y021850D01*
X025850Y022350D01*
X026100Y022600D01*
X026600Y022600D01*
X026850Y022350D01*
X027100Y022600D01*
X027600Y022600D01*
X027850Y022350D01*
X028100Y022600D01*
X028600Y022600D01*
X028850Y022350D01*
X029100Y022600D01*
X029600Y022600D01*
X029850Y022350D01*
X030100Y022600D01*
X030600Y022600D01*
X030850Y022350D01*
X031100Y022600D01*
X031600Y022600D01*
X031850Y022350D01*
X032100Y022600D01*
X032600Y022600D01*
X032850Y022350D01*
X033100Y022600D01*
X033600Y022600D01*
X033850Y022350D01*
X033850Y021850D01*
X033600Y021600D01*
X033100Y021600D01*
X024850Y021850D02*
X024600Y021600D01*
X024100Y021600D01*
X023850Y021850D01*
X023600Y021600D01*
X023100Y021600D01*
X022850Y021850D01*
X022600Y021600D01*
X022100Y021600D01*
X021850Y021850D01*
X021600Y021600D01*
X021100Y021600D01*
X020850Y021850D01*
X020600Y021600D01*
X020100Y021600D01*
X019850Y021850D01*
X019600Y021600D01*
X019100Y021600D01*
X018850Y021850D01*
X018600Y021600D01*
X018100Y021600D01*
X017850Y021850D01*
X017600Y021600D01*
X017100Y021600D01*
X016850Y021850D01*
X016850Y022350D01*
X017100Y022600D01*
X017600Y022600D01*
X017850Y022350D01*
X018100Y022600D01*
X018600Y022600D01*
X018850Y022350D01*
X019100Y022600D01*
X019600Y022600D01*
X019850Y022350D01*
X020100Y022600D01*
X020600Y022600D01*
X020850Y022350D01*
X021100Y022600D01*
X021600Y022600D01*
X021850Y022350D01*
X022100Y022600D01*
X022600Y022600D01*
X022850Y022350D01*
X023100Y022600D01*
X023600Y022600D01*
X023850Y022350D01*
X024100Y022600D01*
X024600Y022600D01*
X024850Y022350D01*
X024850Y021850D01*
X016350Y021850D02*
X016100Y021600D01*
X015600Y021600D01*
X015350Y021850D01*
X015100Y021600D01*
X014600Y021600D01*
X014350Y021850D01*
X014100Y021600D01*
X013600Y021600D01*
X013350Y021850D01*
X013100Y021600D01*
X012600Y021600D01*
X012350Y021850D01*
X012100Y021600D01*
X011600Y021600D01*
X011350Y021850D01*
X011100Y021600D01*
X010600Y021600D01*
X010350Y021850D01*
X010100Y021600D01*
X009600Y021600D01*
X009350Y021850D01*
X009100Y021600D01*
X008600Y021600D01*
X008350Y021850D01*
X008100Y021600D01*
X007600Y021600D01*
X007350Y021850D01*
X007100Y021600D01*
X006600Y021600D01*
X006350Y021850D01*
X006350Y022350D01*
X006600Y022600D01*
X007100Y022600D01*
X007350Y022350D01*
X007600Y022600D01*
X008100Y022600D01*
X008350Y022350D01*
X008600Y022600D01*
X009100Y022600D01*
X009350Y022350D01*
X009600Y022600D01*
X010100Y022600D01*
X010350Y022350D01*
X010600Y022600D01*
X011100Y022600D01*
X011350Y022350D01*
X011600Y022600D01*
X012100Y022600D01*
X012350Y022350D01*
X012600Y022600D01*
X013100Y022600D01*
X013350Y022350D01*
X013600Y022600D01*
X014100Y022600D01*
X014350Y022350D01*
X014600Y022600D01*
X015100Y022600D01*
X015350Y022350D01*
X015600Y022600D01*
X016100Y022600D01*
X016350Y022350D01*
X016350Y021850D01*
X012850Y019850D02*
X012600Y020100D01*
X012100Y020100D01*
X011850Y019850D01*
X011600Y020100D01*
X011100Y020100D01*
X010850Y019850D01*
X010600Y020100D01*
X010100Y020100D01*
X009850Y019850D01*
X009600Y020100D01*
X009100Y020100D01*
X008850Y019850D01*
X008850Y019350D01*
X009100Y019100D01*
X009600Y019100D01*
X009850Y019350D01*
X010100Y019100D01*
X010600Y019100D01*
X010850Y019350D01*
X011100Y019100D01*
X011600Y019100D01*
X011850Y019350D01*
X012100Y019100D01*
X012600Y019100D01*
X012850Y019350D01*
X012850Y019850D01*
D12*
X012773Y022870D02*
X012620Y023023D01*
X013080Y023023D01*
X013080Y022870D02*
X013080Y023177D01*
X013080Y023330D02*
X013080Y023637D01*
X013080Y023484D02*
X012620Y023484D01*
X012773Y023330D01*
X012080Y023330D02*
X011773Y023637D01*
X011696Y023637D01*
X011620Y023561D01*
X011620Y023407D01*
X011696Y023330D01*
X011620Y023023D02*
X012080Y023023D01*
X012080Y022870D02*
X012080Y023177D01*
X012080Y023330D02*
X012080Y023637D01*
X011620Y023023D02*
X011773Y022870D01*
X011080Y022870D02*
X011080Y023177D01*
X011080Y023023D02*
X010620Y023023D01*
X010773Y022870D01*
X010696Y023330D02*
X010620Y023407D01*
X010620Y023561D01*
X010696Y023637D01*
X010773Y023637D01*
X010850Y023561D01*
X010927Y023637D01*
X011003Y023637D01*
X011080Y023561D01*
X011080Y023407D01*
X011003Y023330D01*
X010850Y023484D02*
X010850Y023561D01*
X010080Y023637D02*
X009850Y023637D01*
X009773Y023561D01*
X009773Y023330D01*
X010080Y023330D01*
X010003Y023177D02*
X009850Y023177D01*
X009850Y023023D01*
X010003Y022870D02*
X009696Y022870D01*
X009620Y022947D01*
X009620Y023100D01*
X009696Y023177D01*
X010003Y023177D02*
X010080Y023100D01*
X010080Y022947D01*
X010003Y022870D01*
X010003Y023791D02*
X009850Y023791D01*
X009773Y023868D01*
X009773Y024098D01*
X009620Y024098D02*
X010080Y024098D01*
X010080Y023868D01*
X010003Y023791D01*
X009080Y023791D02*
X009003Y023714D01*
X008850Y023714D01*
X008773Y023791D01*
X008773Y023944D01*
X008850Y024021D01*
X008927Y024021D01*
X008927Y023714D01*
X009080Y023791D02*
X009080Y023944D01*
X009080Y024251D02*
X008696Y024251D01*
X008620Y024328D01*
X008850Y024328D02*
X008850Y024174D01*
X008773Y023561D02*
X008773Y023484D01*
X008927Y023330D01*
X009080Y023330D02*
X008773Y023330D01*
X008773Y023177D02*
X008620Y023023D01*
X008773Y022870D01*
X009080Y022870D01*
X008850Y022870D02*
X008850Y023177D01*
X008773Y023177D02*
X009080Y023177D01*
X013620Y023023D02*
X013773Y022870D01*
X013620Y023023D02*
X014080Y023023D01*
X014080Y022870D02*
X014080Y023177D01*
X014003Y023330D02*
X013696Y023330D01*
X013620Y023407D01*
X013620Y023561D01*
X013696Y023637D01*
X014003Y023330D01*
X014080Y023407D01*
X014080Y023561D01*
X014003Y023637D01*
X013696Y023637D01*
X014620Y023100D02*
X014620Y022947D01*
X014696Y022870D01*
X014773Y022870D01*
X014850Y022947D01*
X014850Y023177D01*
X015003Y023177D02*
X014696Y023177D01*
X014620Y023100D01*
X015003Y023177D02*
X015080Y023100D01*
X015080Y022947D01*
X015003Y022870D01*
X015620Y022947D02*
X015620Y023100D01*
X015696Y023177D01*
X015773Y023177D01*
X015850Y023100D01*
X015850Y022947D01*
X015773Y022870D01*
X015696Y022870D01*
X015620Y022947D01*
X015850Y022947D02*
X015927Y022870D01*
X016003Y022870D01*
X016080Y022947D01*
X016080Y023100D01*
X016003Y023177D01*
X015927Y023177D01*
X015850Y023100D01*
X017120Y023177D02*
X017120Y022870D01*
X017120Y023177D02*
X017196Y023177D01*
X017503Y022870D01*
X017580Y022870D01*
X018120Y023177D02*
X018196Y023023D01*
X018350Y022870D01*
X018350Y023100D01*
X018427Y023177D01*
X018503Y023177D01*
X018580Y023100D01*
X018580Y022947D01*
X018503Y022870D01*
X018350Y022870D01*
X019120Y022870D02*
X019350Y022870D01*
X019273Y023023D01*
X019273Y023100D01*
X019350Y023177D01*
X019503Y023177D01*
X019580Y023100D01*
X019580Y022947D01*
X019503Y022870D01*
X019120Y022870D02*
X019120Y023177D01*
X020120Y023100D02*
X020350Y022870D01*
X020350Y023177D01*
X020580Y023100D02*
X020120Y023100D01*
X021120Y023100D02*
X021120Y022947D01*
X021196Y022870D01*
X021350Y023023D02*
X021350Y023100D01*
X021427Y023177D01*
X021503Y023177D01*
X021580Y023100D01*
X021580Y022947D01*
X021503Y022870D01*
X021350Y023100D02*
X021273Y023177D01*
X021196Y023177D01*
X021120Y023100D01*
X022120Y023100D02*
X022120Y022947D01*
X022196Y022870D01*
X022120Y023100D02*
X022196Y023177D01*
X022273Y023177D01*
X022580Y022870D01*
X022580Y023177D01*
X023120Y023177D02*
X023120Y022870D01*
X023120Y023023D02*
X023580Y023023D01*
X023580Y023330D02*
X023273Y023637D01*
X023196Y023791D02*
X023120Y023868D01*
X023120Y024021D01*
X023196Y024098D01*
X023503Y023791D01*
X023580Y023868D01*
X023580Y024021D01*
X023503Y024098D01*
X023196Y024098D01*
X023196Y023791D02*
X023503Y023791D01*
X023580Y023637D02*
X023273Y023330D01*
X024120Y023100D02*
X024120Y022870D01*
X024580Y022870D01*
X024427Y022870D02*
X024427Y023100D01*
X024350Y023177D01*
X024196Y023177D01*
X024120Y023100D01*
X024273Y023330D02*
X024580Y023637D01*
X024503Y023791D02*
X024196Y024098D01*
X024503Y024098D01*
X024580Y024021D01*
X024580Y023868D01*
X024503Y023791D01*
X024196Y023791D01*
X024120Y023868D01*
X024120Y024021D01*
X024196Y024098D01*
X024273Y023637D02*
X024580Y023330D01*
X024580Y023177D02*
X024427Y023023D01*
X026120Y023023D02*
X026580Y023023D01*
X026580Y023330D02*
X026273Y023637D01*
X026196Y023791D02*
X026120Y023868D01*
X026120Y024021D01*
X026196Y024098D01*
X026273Y024098D01*
X026350Y024021D01*
X026427Y024098D01*
X026503Y024098D01*
X026580Y024021D01*
X026580Y023868D01*
X026503Y023791D01*
X026580Y023637D02*
X026273Y023330D01*
X026120Y023177D02*
X026120Y022870D01*
X027120Y022870D02*
X027120Y023100D01*
X027196Y023177D01*
X027350Y023177D01*
X027427Y023100D01*
X027427Y022870D01*
X027580Y022870D02*
X027120Y022870D01*
X027427Y023023D02*
X027580Y023177D01*
X027580Y023330D02*
X027273Y023637D01*
X027196Y023791D02*
X027120Y023868D01*
X027120Y024021D01*
X027196Y024098D01*
X027273Y024098D01*
X027350Y024021D01*
X027427Y024098D01*
X027503Y024098D01*
X027580Y024021D01*
X027580Y023868D01*
X027503Y023791D01*
X027580Y023637D02*
X027273Y023330D01*
X027350Y023944D02*
X027350Y024021D01*
X027427Y024251D02*
X027273Y024251D01*
X027120Y024405D01*
X027273Y024558D02*
X027120Y024712D01*
X027580Y024712D01*
X027580Y024865D02*
X027580Y024558D01*
X027580Y024405D02*
X027427Y024251D01*
X028120Y024405D02*
X028273Y024251D01*
X028427Y024251D01*
X028580Y024405D01*
X028580Y024558D02*
X028580Y024865D01*
X028580Y024712D02*
X028120Y024712D01*
X028273Y024558D01*
X028273Y024098D02*
X028196Y024098D01*
X028120Y024021D01*
X028120Y023868D01*
X028196Y023791D01*
X028273Y023637D02*
X028580Y023330D01*
X028580Y023023D02*
X028120Y023023D01*
X028120Y022870D02*
X028120Y023177D01*
X028273Y023330D02*
X028580Y023637D01*
X028580Y023791D02*
X028273Y024098D01*
X028580Y024098D02*
X028580Y023791D01*
X029120Y023868D02*
X029196Y023791D01*
X029120Y023868D02*
X029120Y024021D01*
X029196Y024098D01*
X029273Y024098D01*
X029580Y023791D01*
X029580Y024098D01*
X029427Y024251D02*
X029580Y024405D01*
X029580Y024558D02*
X029580Y024865D01*
X029580Y024712D02*
X029120Y024712D01*
X029273Y024558D01*
X029120Y024405D02*
X029273Y024251D01*
X029427Y024251D01*
X029580Y023637D02*
X029273Y023330D01*
X029196Y023177D02*
X029350Y023177D01*
X029427Y023100D01*
X029427Y022870D01*
X029580Y022870D02*
X029120Y022870D01*
X029120Y023100D01*
X029196Y023177D01*
X029427Y023023D02*
X029580Y023177D01*
X029580Y023330D02*
X029273Y023637D01*
X030120Y023944D02*
X030580Y023944D01*
X030580Y023791D02*
X030580Y024098D01*
X030427Y024251D02*
X030273Y024251D01*
X030120Y024405D01*
X030273Y024558D02*
X030120Y024712D01*
X030580Y024712D01*
X030580Y024865D02*
X030580Y024558D01*
X030580Y024405D02*
X030427Y024251D01*
X030120Y023944D02*
X030273Y023791D01*
X030273Y023637D02*
X030580Y023330D01*
X030580Y023023D02*
X030120Y023023D01*
X030120Y022870D02*
X030120Y023177D01*
X030273Y023330D02*
X030580Y023637D01*
X031120Y023944D02*
X031273Y023791D01*
X031273Y023637D02*
X031580Y023330D01*
X031580Y023177D02*
X031427Y023023D01*
X031427Y023100D02*
X031427Y022870D01*
X031580Y022870D02*
X031120Y022870D01*
X031120Y023100D01*
X031196Y023177D01*
X031350Y023177D01*
X031427Y023100D01*
X031273Y023330D02*
X031580Y023637D01*
X031580Y023791D02*
X031580Y024098D01*
X031580Y023944D02*
X031120Y023944D01*
X031273Y024251D02*
X031120Y024405D01*
X031273Y024558D02*
X031120Y024712D01*
X031580Y024712D01*
X031580Y024865D02*
X031580Y024558D01*
X031580Y024405D02*
X031427Y024251D01*
X031273Y024251D01*
X032120Y024405D02*
X032273Y024251D01*
X032427Y024251D01*
X032580Y024405D01*
X032580Y024558D02*
X032273Y024865D01*
X032196Y024865D01*
X032120Y024788D01*
X032120Y024635D01*
X032196Y024558D01*
X032580Y024558D02*
X032580Y024865D01*
X032503Y025018D02*
X032196Y025325D01*
X032503Y025325D01*
X032580Y025249D01*
X032580Y025095D01*
X032503Y025018D01*
X032196Y025018D01*
X032120Y025095D01*
X032120Y025249D01*
X032196Y025325D01*
X032120Y025479D02*
X032273Y025632D01*
X032427Y025632D01*
X032580Y025479D01*
X033120Y025479D02*
X033273Y025632D01*
X033427Y025632D01*
X033580Y025479D01*
X033580Y025325D02*
X033580Y025018D01*
X033580Y024865D02*
X033580Y024558D01*
X033273Y024865D01*
X033196Y024865D01*
X033120Y024788D01*
X033120Y024635D01*
X033196Y024558D01*
X033120Y024405D02*
X033273Y024251D01*
X033427Y024251D01*
X033580Y024405D01*
X033580Y024098D02*
X033580Y023791D01*
X033120Y023791D01*
X033196Y023637D02*
X033120Y023561D01*
X033120Y023407D01*
X033196Y023330D01*
X033503Y023330D01*
X033580Y023407D01*
X033580Y023561D01*
X033503Y023637D01*
X033503Y023177D02*
X033427Y023177D01*
X033350Y023100D01*
X033350Y022947D01*
X033273Y022870D01*
X033196Y022870D01*
X033120Y022947D01*
X033120Y023100D01*
X033196Y023177D01*
X033503Y023177D02*
X033580Y023100D01*
X033580Y022947D01*
X033503Y022870D01*
X032580Y022947D02*
X032503Y022870D01*
X032580Y022947D02*
X032580Y023100D01*
X032503Y023177D01*
X032427Y023177D01*
X032350Y023100D01*
X032350Y022947D01*
X032273Y022870D01*
X032196Y022870D01*
X032120Y022947D01*
X032120Y023100D01*
X032196Y023177D01*
X032120Y023330D02*
X032120Y023561D01*
X032196Y023637D01*
X032503Y023637D01*
X032580Y023561D01*
X032580Y023330D01*
X032120Y023330D01*
X032273Y023791D02*
X032120Y023944D01*
X032273Y024098D01*
X032580Y024098D01*
X032350Y024098D02*
X032350Y023791D01*
X032273Y023791D02*
X032580Y023791D01*
X033273Y025018D02*
X033120Y025172D01*
X033580Y025172D01*
X031580Y025249D02*
X031503Y025325D01*
X031196Y025325D01*
X031120Y025249D01*
X031120Y025095D01*
X031196Y025018D01*
X031273Y025018D01*
X031350Y025095D01*
X031350Y025325D01*
X031580Y025249D02*
X031580Y025095D01*
X031503Y025018D01*
X031580Y025479D02*
X031427Y025632D01*
X031273Y025632D01*
X031120Y025479D01*
X030580Y025479D02*
X030427Y025632D01*
X030273Y025632D01*
X030120Y025479D01*
X030196Y025325D02*
X030273Y025325D01*
X030350Y025249D01*
X030350Y025095D01*
X030273Y025018D01*
X030196Y025018D01*
X030120Y025095D01*
X030120Y025249D01*
X030196Y025325D01*
X030350Y025249D02*
X030427Y025325D01*
X030503Y025325D01*
X030580Y025249D01*
X030580Y025095D01*
X030503Y025018D01*
X030427Y025018D01*
X030350Y025095D01*
X029580Y025018D02*
X029503Y025018D01*
X029196Y025325D01*
X029120Y025325D01*
X029120Y025018D01*
X029120Y025479D02*
X029273Y025632D01*
X029427Y025632D01*
X029580Y025479D01*
X028580Y025479D02*
X028427Y025632D01*
X028273Y025632D01*
X028120Y025479D01*
X028120Y025325D02*
X028196Y025172D01*
X028350Y025018D01*
X028350Y025249D01*
X028427Y025325D01*
X028503Y025325D01*
X028580Y025249D01*
X028580Y025095D01*
X028503Y025018D01*
X028350Y025018D01*
X027580Y025095D02*
X027503Y025018D01*
X027580Y025095D02*
X027580Y025249D01*
X027503Y025325D01*
X027350Y025325D01*
X027273Y025249D01*
X027273Y025172D01*
X027350Y025018D01*
X027120Y025018D01*
X027120Y025325D01*
X027120Y025479D02*
X027273Y025632D01*
X027427Y025632D01*
X027580Y025479D01*
X026580Y025479D02*
X026427Y025632D01*
X026273Y025632D01*
X026120Y025479D01*
X026120Y025249D02*
X026350Y025018D01*
X026350Y025325D01*
X026580Y025249D02*
X026120Y025249D01*
X026580Y024865D02*
X026580Y024558D01*
X026580Y024405D02*
X026427Y024251D01*
X026273Y024251D01*
X026120Y024405D01*
X026273Y024558D02*
X026120Y024712D01*
X026580Y024712D01*
X026350Y024021D02*
X026350Y023944D01*
X034699Y022330D02*
X034699Y022100D01*
X034853Y022177D01*
X034929Y022177D01*
X035006Y022100D01*
X035006Y021947D01*
X034929Y021870D01*
X034776Y021870D01*
X034699Y021947D01*
X035160Y022177D02*
X035313Y021870D01*
X035467Y022177D01*
X035006Y022330D02*
X034699Y022330D01*
X034776Y021330D02*
X034699Y021254D01*
X034776Y021330D02*
X034929Y021330D01*
X035006Y021254D01*
X035006Y021177D01*
X034699Y020870D01*
X035006Y020870D01*
X035160Y020870D02*
X035467Y021177D01*
X035467Y021254D01*
X035390Y021330D01*
X035236Y021330D01*
X035160Y021254D01*
X035160Y020870D02*
X035467Y020870D01*
X035390Y020330D02*
X035160Y020100D01*
X035467Y020100D01*
X035390Y019870D02*
X035390Y020330D01*
X035006Y020254D02*
X034929Y020330D01*
X034776Y020330D01*
X034699Y020254D01*
X035006Y020254D02*
X035006Y020177D01*
X034699Y019870D01*
X035006Y019870D01*
X034929Y019330D02*
X034776Y019330D01*
X034699Y019254D01*
X034929Y019330D02*
X035006Y019254D01*
X035006Y019177D01*
X034699Y018870D01*
X035006Y018870D01*
X035160Y018947D02*
X035236Y018870D01*
X035390Y018870D01*
X035467Y018947D01*
X035467Y019023D01*
X035390Y019100D01*
X035160Y019100D01*
X035160Y018947D01*
X035160Y019100D02*
X035313Y019254D01*
X035467Y019330D01*
X035390Y018330D02*
X035467Y018254D01*
X035467Y018177D01*
X035390Y018100D01*
X035236Y018100D01*
X035160Y018177D01*
X035160Y018254D01*
X035236Y018330D01*
X035390Y018330D01*
X035390Y018100D02*
X035467Y018023D01*
X035467Y017947D01*
X035390Y017870D01*
X035236Y017870D01*
X035160Y017947D01*
X035160Y018023D01*
X035236Y018100D01*
X035006Y018177D02*
X035006Y018254D01*
X034929Y018330D01*
X034776Y018330D01*
X034699Y018254D01*
X035006Y018177D02*
X034699Y017870D01*
X035006Y017870D01*
X034929Y017330D02*
X035006Y017254D01*
X035006Y017177D01*
X034929Y017100D01*
X035006Y017023D01*
X035006Y016947D01*
X034929Y016870D01*
X034776Y016870D01*
X034699Y016947D01*
X034853Y017100D02*
X034929Y017100D01*
X034929Y017330D02*
X034776Y017330D01*
X034699Y017254D01*
X035160Y017254D02*
X035160Y016947D01*
X035467Y017254D01*
X035467Y016947D01*
X035390Y016870D01*
X035236Y016870D01*
X035160Y016947D01*
X035160Y017254D02*
X035236Y017330D01*
X035390Y017330D01*
X035467Y017254D01*
X035390Y016330D02*
X035236Y016330D01*
X035160Y016254D01*
X035006Y016254D02*
X034929Y016330D01*
X034776Y016330D01*
X034699Y016254D01*
X034853Y016100D02*
X034929Y016100D01*
X035006Y016023D01*
X035006Y015947D01*
X034929Y015870D01*
X034776Y015870D01*
X034699Y015947D01*
X034929Y016100D02*
X035006Y016177D01*
X035006Y016254D01*
X035390Y016330D02*
X035467Y016254D01*
X035467Y016177D01*
X035160Y015870D01*
X035467Y015870D01*
X035390Y015330D02*
X035160Y015100D01*
X035467Y015100D01*
X035390Y014870D02*
X035390Y015330D01*
X035006Y015254D02*
X035006Y015177D01*
X034929Y015100D01*
X035006Y015023D01*
X035006Y014947D01*
X034929Y014870D01*
X034776Y014870D01*
X034699Y014947D01*
X034853Y015100D02*
X034929Y015100D01*
X035006Y015254D02*
X034929Y015330D01*
X034776Y015330D01*
X034699Y015254D01*
X034776Y014330D02*
X034929Y014330D01*
X035006Y014254D01*
X035006Y014177D01*
X034929Y014100D01*
X035006Y014023D01*
X035006Y013947D01*
X034929Y013870D01*
X034776Y013870D01*
X034699Y013947D01*
X034853Y014100D02*
X034929Y014100D01*
X035160Y014100D02*
X035160Y013947D01*
X035236Y013870D01*
X035390Y013870D01*
X035467Y013947D01*
X035467Y014023D01*
X035390Y014100D01*
X035160Y014100D01*
X035313Y014254D01*
X035467Y014330D01*
X034776Y014330D02*
X034699Y014254D01*
X034776Y013330D02*
X034929Y013330D01*
X035006Y013254D01*
X035006Y013177D01*
X034929Y013100D01*
X035006Y013023D01*
X035006Y012947D01*
X034929Y012870D01*
X034776Y012870D01*
X034699Y012947D01*
X034853Y013100D02*
X034929Y013100D01*
X035160Y013023D02*
X035236Y013100D01*
X035390Y013100D01*
X035467Y013023D01*
X035467Y012947D01*
X035390Y012870D01*
X035236Y012870D01*
X035160Y012947D01*
X035160Y013023D01*
X035236Y013100D02*
X035160Y013177D01*
X035160Y013254D01*
X035236Y013330D01*
X035390Y013330D01*
X035467Y013254D01*
X035467Y013177D01*
X035390Y013100D01*
X034776Y013330D02*
X034699Y013254D01*
X034929Y012330D02*
X034699Y012100D01*
X035006Y012100D01*
X035160Y011947D02*
X035236Y011870D01*
X035390Y011870D01*
X035467Y011947D01*
X035467Y012254D01*
X035160Y011947D01*
X035160Y012254D01*
X035236Y012330D01*
X035390Y012330D01*
X035467Y012254D01*
X034929Y012330D02*
X034929Y011870D01*
X034929Y011330D02*
X034699Y011100D01*
X035006Y011100D01*
X035160Y011254D02*
X035236Y011330D01*
X035390Y011330D01*
X035467Y011254D01*
X035467Y011177D01*
X035160Y010870D01*
X035467Y010870D01*
X034929Y010870D02*
X034929Y011330D01*
X034929Y010330D02*
X034699Y010100D01*
X035006Y010100D01*
X035160Y010100D02*
X035467Y010100D01*
X035390Y009870D02*
X035390Y010330D01*
X035160Y010100D01*
X034929Y009870D02*
X034929Y010330D01*
X034929Y009330D02*
X034699Y009100D01*
X035006Y009100D01*
X035160Y009100D02*
X035160Y008947D01*
X035236Y008870D01*
X035390Y008870D01*
X035467Y008947D01*
X035467Y009023D01*
X035390Y009100D01*
X035160Y009100D01*
X035313Y009254D01*
X035467Y009330D01*
X034929Y009330D02*
X034929Y008870D01*
X034929Y008330D02*
X034699Y008100D01*
X035006Y008100D01*
X035160Y008023D02*
X035160Y007947D01*
X035236Y007870D01*
X035390Y007870D01*
X035467Y007947D01*
X035467Y008023D01*
X035390Y008100D01*
X035236Y008100D01*
X035160Y008177D01*
X035160Y008254D01*
X035236Y008330D01*
X035390Y008330D01*
X035467Y008254D01*
X035467Y008177D01*
X035390Y008100D01*
X035236Y008100D02*
X035160Y008023D01*
X034929Y007870D02*
X034929Y008330D01*
X035006Y007330D02*
X034699Y007330D01*
X034699Y007100D01*
X034853Y007177D01*
X034929Y007177D01*
X035006Y007100D01*
X035006Y006947D01*
X034929Y006870D01*
X034776Y006870D01*
X034699Y006947D01*
X035160Y006947D02*
X035467Y007254D01*
X035467Y006947D01*
X035390Y006870D01*
X035236Y006870D01*
X035160Y006947D01*
X035160Y007254D01*
X035236Y007330D01*
X035390Y007330D01*
X035467Y007254D01*
X035390Y006330D02*
X035236Y006330D01*
X035160Y006254D01*
X035006Y006330D02*
X034699Y006330D01*
X034699Y006100D01*
X034853Y006177D01*
X034929Y006177D01*
X035006Y006100D01*
X035006Y005947D01*
X034929Y005870D01*
X034776Y005870D01*
X034699Y005947D01*
X035160Y005870D02*
X035467Y006177D01*
X035467Y006254D01*
X035390Y006330D01*
X035467Y005870D02*
X035160Y005870D01*
X035467Y005330D02*
X035467Y004870D01*
X035236Y004870D01*
X035160Y004947D01*
X035160Y005100D01*
X035236Y005177D01*
X035467Y005177D01*
X035006Y005100D02*
X035006Y004870D01*
X035006Y005100D02*
X034929Y005177D01*
X034699Y005177D01*
X034699Y004870D01*
X034546Y004947D02*
X034546Y005100D01*
X034392Y005100D01*
X034239Y004947D02*
X034239Y005254D01*
X034316Y005330D01*
X034469Y005330D01*
X034546Y005254D01*
X034546Y004947D02*
X034469Y004870D01*
X034316Y004870D01*
X034239Y004947D01*
X038120Y004947D02*
X038197Y004870D01*
X038350Y004870D01*
X038427Y004947D01*
X038427Y005100D01*
X038273Y005100D01*
X038120Y004947D02*
X038120Y005254D01*
X038197Y005330D01*
X038350Y005330D01*
X038427Y005254D01*
X038580Y005177D02*
X038811Y005177D01*
X038887Y005100D01*
X038887Y004870D01*
X039041Y004947D02*
X039041Y005100D01*
X039118Y005177D01*
X039348Y005177D01*
X039348Y005330D02*
X039348Y004870D01*
X039118Y004870D01*
X039041Y004947D01*
X038580Y004870D02*
X038580Y005177D01*
X038657Y005870D02*
X038580Y005947D01*
X038657Y005870D02*
X038811Y005870D01*
X038887Y005947D01*
X038887Y006023D01*
X038811Y006100D01*
X038734Y006100D01*
X038811Y006100D02*
X038887Y006177D01*
X038887Y006254D01*
X038811Y006330D01*
X038657Y006330D01*
X038580Y006254D01*
X038427Y006330D02*
X038120Y006330D01*
X038120Y006100D01*
X038273Y006177D01*
X038350Y006177D01*
X038427Y006100D01*
X038427Y005947D01*
X038350Y005870D01*
X038197Y005870D01*
X038120Y005947D01*
X038197Y006870D02*
X038120Y006947D01*
X038197Y006870D02*
X038350Y006870D01*
X038427Y006947D01*
X038427Y007100D01*
X038350Y007177D01*
X038273Y007177D01*
X038120Y007100D01*
X038120Y007330D01*
X038427Y007330D01*
X038580Y007177D02*
X038734Y007330D01*
X038734Y006870D01*
X038887Y006870D02*
X038580Y006870D01*
X038657Y007870D02*
X038580Y007947D01*
X038657Y007870D02*
X038811Y007870D01*
X038887Y007947D01*
X038887Y008254D01*
X038811Y008330D01*
X038657Y008330D01*
X038580Y008254D01*
X038580Y008177D01*
X038657Y008100D01*
X038887Y008100D01*
X038427Y008100D02*
X038120Y008100D01*
X038350Y008330D01*
X038350Y007870D01*
X038350Y008870D02*
X038350Y009330D01*
X038120Y009100D01*
X038427Y009100D01*
X038580Y008947D02*
X038580Y008870D01*
X038580Y008947D02*
X038887Y009254D01*
X038887Y009330D01*
X038580Y009330D01*
X038657Y009870D02*
X038580Y009947D01*
X038657Y009870D02*
X038811Y009870D01*
X038887Y009947D01*
X038887Y010100D01*
X038811Y010177D01*
X038734Y010177D01*
X038580Y010100D01*
X038580Y010330D01*
X038887Y010330D01*
X038427Y010100D02*
X038120Y010100D01*
X038350Y010330D01*
X038350Y009870D01*
X038350Y010870D02*
X038350Y011330D01*
X038120Y011100D01*
X038427Y011100D01*
X038580Y010947D02*
X038657Y010870D01*
X038811Y010870D01*
X038887Y010947D01*
X038887Y011023D01*
X038811Y011100D01*
X038734Y011100D01*
X038811Y011100D02*
X038887Y011177D01*
X038887Y011254D01*
X038811Y011330D01*
X038657Y011330D01*
X038580Y011254D01*
X038580Y011870D02*
X038887Y011870D01*
X038734Y011870D02*
X038734Y012330D01*
X038580Y012177D01*
X038427Y012100D02*
X038120Y012100D01*
X038350Y012330D01*
X038350Y011870D01*
X038350Y012870D02*
X038197Y012870D01*
X038120Y012947D01*
X038273Y013100D02*
X038350Y013100D01*
X038427Y013023D01*
X038427Y012947D01*
X038350Y012870D01*
X038350Y013100D02*
X038427Y013177D01*
X038427Y013254D01*
X038350Y013330D01*
X038197Y013330D01*
X038120Y013254D01*
X038580Y013254D02*
X038580Y013177D01*
X038657Y013100D01*
X038887Y013100D01*
X038887Y012947D02*
X038887Y013254D01*
X038811Y013330D01*
X038657Y013330D01*
X038580Y013254D01*
X038580Y012947D02*
X038657Y012870D01*
X038811Y012870D01*
X038887Y012947D01*
X038580Y013870D02*
X038580Y013947D01*
X038887Y014254D01*
X038887Y014330D01*
X038580Y014330D01*
X038427Y014254D02*
X038427Y014177D01*
X038350Y014100D01*
X038427Y014023D01*
X038427Y013947D01*
X038350Y013870D01*
X038197Y013870D01*
X038120Y013947D01*
X038273Y014100D02*
X038350Y014100D01*
X038427Y014254D02*
X038350Y014330D01*
X038197Y014330D01*
X038120Y014254D01*
X038197Y014870D02*
X038120Y014947D01*
X038197Y014870D02*
X038350Y014870D01*
X038427Y014947D01*
X038427Y015023D01*
X038350Y015100D01*
X038273Y015100D01*
X038350Y015100D02*
X038427Y015177D01*
X038427Y015254D01*
X038350Y015330D01*
X038197Y015330D01*
X038120Y015254D01*
X038580Y015330D02*
X038580Y015100D01*
X038734Y015177D01*
X038811Y015177D01*
X038887Y015100D01*
X038887Y014947D01*
X038811Y014870D01*
X038657Y014870D01*
X038580Y014947D01*
X038580Y015330D02*
X038887Y015330D01*
X038811Y015870D02*
X038657Y015870D01*
X038580Y015947D01*
X038427Y015947D02*
X038350Y015870D01*
X038197Y015870D01*
X038120Y015947D01*
X038273Y016100D02*
X038350Y016100D01*
X038427Y016023D01*
X038427Y015947D01*
X038350Y016100D02*
X038427Y016177D01*
X038427Y016254D01*
X038350Y016330D01*
X038197Y016330D01*
X038120Y016254D01*
X038580Y016254D02*
X038657Y016330D01*
X038811Y016330D01*
X038887Y016254D01*
X038887Y016177D01*
X038811Y016100D01*
X038887Y016023D01*
X038887Y015947D01*
X038811Y015870D01*
X038811Y016100D02*
X038734Y016100D01*
X038734Y016870D02*
X038734Y017330D01*
X038580Y017177D01*
X038427Y017177D02*
X038350Y017100D01*
X038427Y017023D01*
X038427Y016947D01*
X038350Y016870D01*
X038197Y016870D01*
X038120Y016947D01*
X038273Y017100D02*
X038350Y017100D01*
X038427Y017177D02*
X038427Y017254D01*
X038350Y017330D01*
X038197Y017330D01*
X038120Y017254D01*
X038580Y016870D02*
X038887Y016870D01*
X038811Y017870D02*
X038887Y017947D01*
X038887Y018254D01*
X038811Y018330D01*
X038657Y018330D01*
X038580Y018254D01*
X038580Y018177D01*
X038657Y018100D01*
X038887Y018100D01*
X038811Y017870D02*
X038657Y017870D01*
X038580Y017947D01*
X038427Y017870D02*
X038120Y017870D01*
X038427Y018177D01*
X038427Y018254D01*
X038350Y018330D01*
X038197Y018330D01*
X038120Y018254D01*
X038120Y018870D02*
X038427Y019177D01*
X038427Y019254D01*
X038350Y019330D01*
X038197Y019330D01*
X038120Y019254D01*
X038580Y019330D02*
X038887Y019330D01*
X038887Y019254D01*
X038580Y018947D01*
X038580Y018870D01*
X038427Y018870D02*
X038120Y018870D01*
X038120Y019870D02*
X038427Y020177D01*
X038427Y020254D01*
X038350Y020330D01*
X038197Y020330D01*
X038120Y020254D01*
X038580Y020330D02*
X038580Y020100D01*
X038734Y020177D01*
X038811Y020177D01*
X038887Y020100D01*
X038887Y019947D01*
X038811Y019870D01*
X038657Y019870D01*
X038580Y019947D01*
X038427Y019870D02*
X038120Y019870D01*
X038580Y020330D02*
X038887Y020330D01*
X038811Y020870D02*
X038657Y020870D01*
X038580Y020947D01*
X038427Y020870D02*
X038120Y020870D01*
X038427Y021177D01*
X038427Y021254D01*
X038350Y021330D01*
X038197Y021330D01*
X038120Y021254D01*
X038580Y021254D02*
X038657Y021330D01*
X038811Y021330D01*
X038887Y021254D01*
X038887Y021177D01*
X038811Y021100D01*
X038887Y021023D01*
X038887Y020947D01*
X038811Y020870D01*
X038811Y021100D02*
X038734Y021100D01*
X038734Y021870D02*
X038887Y022177D01*
X038580Y022177D02*
X038734Y021870D01*
X038427Y021947D02*
X038427Y022100D01*
X038350Y022177D01*
X038273Y022177D01*
X038120Y022100D01*
X038120Y022330D01*
X038427Y022330D01*
X038427Y021947D02*
X038350Y021870D01*
X038197Y021870D01*
X038120Y021947D01*
X035580Y002217D02*
X035120Y001910D01*
X035120Y001756D02*
X035120Y001449D01*
X035120Y001603D02*
X035580Y001603D01*
X035580Y001910D02*
X035120Y002217D01*
X034580Y002217D02*
X034120Y001910D01*
X034196Y001756D02*
X034350Y001756D01*
X034427Y001679D01*
X034427Y001449D01*
X034580Y001449D02*
X034120Y001449D01*
X034120Y001679D01*
X034196Y001756D01*
X034427Y001603D02*
X034580Y001756D01*
X034580Y001910D02*
X034120Y002217D01*
X033580Y002217D02*
X033580Y001910D01*
X033580Y002063D02*
X033120Y002063D01*
X033273Y001910D01*
X033196Y001756D02*
X033120Y001679D01*
X033120Y001526D01*
X033196Y001449D01*
X033503Y001449D01*
X033580Y001526D01*
X033580Y001679D01*
X033503Y001756D01*
X033580Y001296D02*
X033273Y001296D01*
X033120Y001142D01*
X033273Y000989D01*
X033580Y000989D01*
X033503Y000835D02*
X033196Y000835D01*
X033120Y000759D01*
X033120Y000528D01*
X033580Y000528D01*
X033580Y000759D01*
X033503Y000835D01*
X033350Y000989D02*
X033350Y001296D01*
X032580Y001296D02*
X032273Y001296D01*
X032120Y001142D01*
X032273Y000989D01*
X032580Y000989D01*
X032503Y000835D02*
X032196Y000835D01*
X032120Y000759D01*
X032120Y000528D01*
X032580Y000528D01*
X032580Y000759D01*
X032503Y000835D01*
X032350Y000989D02*
X032350Y001296D01*
X032503Y001449D02*
X032580Y001526D01*
X032580Y001679D01*
X032503Y001756D01*
X032503Y001910D02*
X032196Y001910D01*
X032120Y001986D01*
X032120Y002140D01*
X032196Y002217D01*
X032503Y001910D01*
X032580Y001986D01*
X032580Y002140D01*
X032503Y002217D01*
X032196Y002217D01*
X031580Y002217D02*
X031580Y001910D01*
X031580Y002063D02*
X031120Y002063D01*
X031273Y001910D01*
X031580Y001756D02*
X031580Y001449D01*
X031580Y001296D02*
X031273Y001296D01*
X031120Y001142D01*
X031273Y000989D01*
X031580Y000989D01*
X031350Y000989D02*
X031350Y001296D01*
X031273Y001449D02*
X031120Y001603D01*
X031580Y001603D01*
X032120Y001679D02*
X032120Y001526D01*
X032196Y001449D01*
X032503Y001449D01*
X032196Y001756D02*
X032120Y001679D01*
X030580Y001603D02*
X030120Y001603D01*
X030273Y001449D01*
X030273Y001296D02*
X030580Y001296D01*
X030580Y001449D02*
X030580Y001756D01*
X030503Y001910D02*
X030196Y001910D01*
X030120Y001986D01*
X030120Y002140D01*
X030196Y002217D01*
X030503Y001910D01*
X030580Y001986D01*
X030580Y002140D01*
X030503Y002217D01*
X030196Y002217D01*
X029580Y002140D02*
X029580Y001986D01*
X029503Y001910D01*
X029350Y001986D02*
X029350Y002217D01*
X029503Y002217D02*
X029196Y002217D01*
X029120Y002140D01*
X029120Y001986D01*
X029196Y001910D01*
X029273Y001910D01*
X029350Y001986D01*
X029350Y001756D02*
X029350Y001449D01*
X029273Y001449D02*
X029120Y001603D01*
X029273Y001756D01*
X029580Y001756D01*
X029580Y001449D02*
X029273Y001449D01*
X028580Y001449D02*
X028273Y001449D01*
X028120Y001603D01*
X028273Y001756D01*
X028580Y001756D01*
X028503Y001910D02*
X028427Y001910D01*
X028350Y001986D01*
X028350Y002140D01*
X028427Y002217D01*
X028503Y002217D01*
X028580Y002140D01*
X028580Y001986D01*
X028503Y001910D01*
X028350Y001986D02*
X028273Y001910D01*
X028196Y001910D01*
X028120Y001986D01*
X028120Y002140D01*
X028196Y002217D01*
X028273Y002217D01*
X028350Y002140D01*
X028350Y001756D02*
X028350Y001449D01*
X029503Y002217D02*
X029580Y002140D01*
X030273Y001296D02*
X030120Y001142D01*
X030273Y000989D01*
X030580Y000989D01*
X030350Y000989D02*
X030350Y001296D01*
X026580Y001449D02*
X026273Y001449D01*
X026120Y001603D01*
X026273Y001756D01*
X026580Y001756D01*
X026580Y001910D02*
X026503Y001910D01*
X026196Y002217D01*
X026120Y002217D01*
X026120Y001910D01*
X026350Y001756D02*
X026350Y001449D01*
X025580Y001449D02*
X025273Y001449D01*
X025120Y001603D01*
X025273Y001756D01*
X025580Y001756D01*
X025503Y001910D02*
X025350Y001910D01*
X025350Y002140D01*
X025427Y002217D01*
X025503Y002217D01*
X025580Y002140D01*
X025580Y001986D01*
X025503Y001910D01*
X025350Y001910D02*
X025196Y002063D01*
X025120Y002217D01*
X025350Y001756D02*
X025350Y001449D01*
X024580Y001449D02*
X024273Y001449D01*
X024120Y001603D01*
X024273Y001756D01*
X024580Y001756D01*
X024503Y001910D02*
X024580Y001986D01*
X024580Y002140D01*
X024503Y002217D01*
X024350Y002217D01*
X024273Y002140D01*
X024273Y002063D01*
X024350Y001910D01*
X024120Y001910D01*
X024120Y002217D01*
X023580Y002140D02*
X023120Y002140D01*
X023350Y001910D01*
X023350Y002217D01*
X023350Y001756D02*
X023350Y001449D01*
X023273Y001449D02*
X023120Y001603D01*
X023273Y001756D01*
X023580Y001756D01*
X023580Y001449D02*
X023273Y001449D01*
X022580Y001449D02*
X022273Y001449D01*
X022120Y001603D01*
X022273Y001756D01*
X022580Y001756D01*
X022503Y001910D02*
X022580Y001986D01*
X022580Y002140D01*
X022503Y002217D01*
X022427Y002217D01*
X022350Y002140D01*
X022350Y002063D01*
X022350Y002140D02*
X022273Y002217D01*
X022196Y002217D01*
X022120Y002140D01*
X022120Y001986D01*
X022196Y001910D01*
X022350Y001756D02*
X022350Y001449D01*
X021580Y001449D02*
X021273Y001449D01*
X021120Y001603D01*
X021273Y001756D01*
X021580Y001756D01*
X021580Y001910D02*
X021273Y002217D01*
X021196Y002217D01*
X021120Y002140D01*
X021120Y001986D01*
X021196Y001910D01*
X021350Y001756D02*
X021350Y001449D01*
X021580Y001910D02*
X021580Y002217D01*
X020580Y002217D02*
X020580Y001910D01*
X020580Y002063D02*
X020120Y002063D01*
X020273Y001910D01*
X020273Y001756D02*
X020580Y001756D01*
X020350Y001756D02*
X020350Y001449D01*
X020273Y001449D02*
X020580Y001449D01*
X020273Y001449D02*
X020120Y001603D01*
X020273Y001756D01*
X019580Y001756D02*
X019273Y001756D01*
X019120Y001603D01*
X019273Y001449D01*
X019580Y001449D01*
X019350Y001449D02*
X019350Y001756D01*
X019503Y001910D02*
X019196Y002217D01*
X019503Y002217D01*
X019580Y002140D01*
X019580Y001986D01*
X019503Y001910D01*
X019196Y001910D01*
X019120Y001986D01*
X019120Y002140D01*
X019196Y002217D01*
X017580Y002217D02*
X017350Y002217D01*
X017273Y002140D01*
X017273Y001910D01*
X017580Y001910D01*
X017580Y001756D02*
X017580Y001603D01*
X017580Y001679D02*
X017273Y001679D01*
X017273Y001603D01*
X017120Y001679D02*
X017043Y001679D01*
X017120Y001449D02*
X017427Y001449D01*
X017580Y001296D01*
X017427Y001142D01*
X017120Y001142D01*
X016580Y001066D02*
X016503Y000989D01*
X016196Y000989D01*
X016120Y001066D01*
X016120Y001219D01*
X016196Y001296D01*
X016350Y001296D02*
X016350Y001142D01*
X016350Y001296D02*
X016503Y001296D01*
X016580Y001219D01*
X016580Y001066D01*
X016580Y001449D02*
X016273Y001449D01*
X016273Y001679D01*
X016350Y001756D01*
X016580Y001756D01*
X016503Y001910D02*
X016350Y001910D01*
X016273Y001986D01*
X016273Y002217D01*
X016120Y002217D02*
X016580Y002217D01*
X016580Y001986D01*
X016503Y001910D01*
X015580Y001986D02*
X015503Y001910D01*
X015350Y001910D01*
X015273Y001986D01*
X015273Y002217D01*
X015120Y002217D02*
X015580Y002217D01*
X015580Y001986D01*
X015580Y001756D02*
X015350Y001756D01*
X015273Y001679D01*
X015273Y001449D01*
X015580Y001449D01*
X015503Y001296D02*
X015580Y001219D01*
X015580Y001066D01*
X015503Y000989D01*
X015196Y000989D01*
X015120Y001066D01*
X015120Y001219D01*
X015196Y001296D01*
X015350Y001296D02*
X015350Y001142D01*
X015350Y001296D02*
X015503Y001296D01*
X014580Y001526D02*
X014503Y001449D01*
X014580Y001526D02*
X014580Y001679D01*
X014503Y001756D01*
X014350Y001756D01*
X014273Y001679D01*
X014273Y001603D01*
X014350Y001449D01*
X014120Y001449D01*
X014120Y001756D01*
X014273Y001910D02*
X014580Y002063D01*
X014273Y002217D01*
X013580Y002140D02*
X013580Y001986D01*
X013503Y001910D01*
X013350Y002063D02*
X013350Y002140D01*
X013427Y002217D01*
X013503Y002217D01*
X013580Y002140D01*
X013350Y002140D02*
X013273Y002217D01*
X013196Y002217D01*
X013120Y002140D01*
X013120Y001986D01*
X013196Y001910D01*
X013273Y001756D02*
X013580Y001603D01*
X013273Y001449D01*
X013273Y001296D02*
X013350Y001219D01*
X013427Y001296D01*
X013503Y001296D01*
X013580Y001219D01*
X013580Y001066D01*
X013503Y000989D01*
X013350Y001142D02*
X013350Y001219D01*
X013273Y001296D02*
X013196Y001296D01*
X013120Y001219D01*
X013120Y001066D01*
X013196Y000989D01*
X012580Y001142D02*
X012120Y001142D01*
X012120Y001372D01*
X012196Y001449D01*
X012350Y001449D01*
X012427Y001372D01*
X012427Y001142D01*
X012427Y001296D02*
X012580Y001449D01*
X012580Y001603D02*
X012580Y001833D01*
X012503Y001910D01*
X012427Y001833D01*
X012427Y001679D01*
X012350Y001603D01*
X012273Y001679D01*
X012273Y001910D01*
X012273Y002063D02*
X012273Y002217D01*
X012196Y002140D02*
X012503Y002140D01*
X012580Y002217D01*
X024350Y001756D02*
X024350Y001449D01*
X034273Y001219D02*
X034273Y000989D01*
X034580Y000989D01*
X034580Y000835D02*
X034580Y000605D01*
X034503Y000528D01*
X034350Y000528D01*
X034273Y000605D01*
X034273Y000835D01*
X034273Y001219D02*
X034350Y001296D01*
X034580Y001296D01*
X035273Y001219D02*
X035273Y000989D01*
X035580Y000989D01*
X035580Y000835D02*
X035580Y000605D01*
X035503Y000528D01*
X035350Y000528D01*
X035273Y000605D01*
X035273Y000835D01*
X035273Y001219D02*
X035350Y001296D01*
X035580Y001296D01*
D13*
X035350Y003100D03*
X034350Y003100D03*
X033350Y003100D03*
X032350Y003100D03*
X031350Y003100D03*
X030350Y003100D03*
X029350Y003100D03*
X028350Y003100D03*
X026350Y003100D03*
X025350Y003100D03*
X024350Y003100D03*
X023350Y003100D03*
X022350Y003100D03*
X021350Y003100D03*
X020350Y003100D03*
X019350Y003100D03*
X017350Y003100D03*
X016350Y003100D03*
X015350Y003100D03*
X014350Y003100D03*
X013350Y003100D03*
X012350Y003100D03*
X011350Y003100D03*
X010350Y003100D03*
X024350Y012100D03*
X025350Y012100D03*
X025350Y013100D03*
X024350Y013100D03*
X024350Y014100D03*
X025350Y014100D03*
X036350Y014100D03*
X037350Y014100D03*
X037350Y013100D03*
X036350Y013100D03*
X036350Y012100D03*
X037350Y012100D03*
X037350Y011100D03*
X036350Y011100D03*
X036350Y010100D03*
X037350Y010100D03*
X037350Y009100D03*
X036350Y009100D03*
X036350Y008100D03*
X037350Y008100D03*
X037350Y007100D03*
X036350Y007100D03*
X036350Y006100D03*
X037350Y006100D03*
X037350Y005100D03*
X036350Y005100D03*
X036350Y015100D03*
X037350Y015100D03*
X037350Y016100D03*
X036350Y016100D03*
X036350Y017100D03*
X037350Y017100D03*
X037350Y018100D03*
X036350Y018100D03*
X036350Y019100D03*
X037350Y019100D03*
X037350Y020100D03*
X036350Y020100D03*
X036350Y021100D03*
X037350Y021100D03*
X037350Y022100D03*
X036350Y022100D03*
X033350Y022100D03*
X032350Y022100D03*
X031350Y022100D03*
X030350Y022100D03*
X029350Y022100D03*
X028350Y022100D03*
X028350Y022100D03*
X027350Y022100D03*
X026350Y022100D03*
X024350Y022100D03*
X023350Y022100D03*
X022350Y022100D03*
X021350Y022100D03*
X020350Y022100D03*
X019350Y022100D03*
X018350Y022100D03*
X017350Y022100D03*
X015850Y022100D03*
X014850Y022100D03*
X013850Y022100D03*
X012850Y022100D03*
X011850Y022100D03*
X010850Y022100D03*
X009850Y022100D03*
X008850Y022100D03*
X007850Y022100D03*
X006850Y022100D03*
X009350Y019600D03*
X010350Y019600D03*
X011350Y019600D03*
X012350Y019600D03*
D14*
X012507Y018718D02*
X012193Y018718D01*
X012115Y018640D01*
X012115Y018405D01*
X012585Y018405D01*
X012585Y018640D01*
X012507Y018718D01*
X012585Y018258D02*
X012115Y018258D01*
X012115Y017944D02*
X012585Y018258D01*
X012585Y017944D02*
X012115Y017944D01*
X012193Y017797D02*
X012115Y017719D01*
X012115Y017562D01*
X012193Y017484D01*
X012507Y017484D01*
X012585Y017562D01*
X012585Y017719D01*
X012507Y017797D01*
X012350Y017797D01*
X012350Y017641D01*
X011585Y017719D02*
X011585Y017562D01*
X011507Y017484D01*
X011193Y017484D01*
X011115Y017562D01*
X011115Y017719D01*
X011193Y017797D01*
X011115Y017944D02*
X011585Y017944D01*
X011585Y018258D01*
X011585Y018405D02*
X011115Y018405D01*
X011350Y018483D02*
X011585Y018718D01*
X011428Y018405D02*
X011115Y018718D01*
X010585Y018640D02*
X010585Y018483D01*
X010507Y018405D01*
X010193Y018405D01*
X010115Y018483D01*
X010115Y018640D01*
X010193Y018718D01*
X010507Y018718D01*
X010585Y018640D01*
X010585Y018254D02*
X010585Y018098D01*
X010585Y018176D02*
X010115Y018176D01*
X010115Y018098D02*
X010115Y018254D01*
X010193Y017951D02*
X010115Y017872D01*
X010115Y017637D01*
X010585Y017637D01*
X010585Y017872D01*
X010507Y017951D01*
X010193Y017951D01*
X009585Y017944D02*
X009585Y018258D01*
X009350Y018101D02*
X009350Y017944D01*
X009428Y017797D02*
X009507Y017797D01*
X009585Y017719D01*
X009585Y017562D01*
X009507Y017484D01*
X009585Y017337D02*
X009585Y017023D01*
X009115Y017023D01*
X009115Y017337D01*
X009193Y017484D02*
X009115Y017562D01*
X009115Y017719D01*
X009193Y017797D01*
X009115Y017944D02*
X009585Y017944D01*
X009428Y017797D02*
X009350Y017719D01*
X009350Y017562D01*
X009271Y017484D01*
X009193Y017484D01*
X009350Y017180D02*
X009350Y017023D01*
X009350Y016877D02*
X009428Y016798D01*
X009428Y016563D01*
X009428Y016720D02*
X009585Y016877D01*
X009350Y016877D02*
X009193Y016877D01*
X009115Y016798D01*
X009115Y016563D01*
X009585Y016563D01*
X010115Y016795D02*
X010115Y016952D01*
X010193Y017030D01*
X010115Y017177D02*
X010585Y017177D01*
X010428Y017334D01*
X010585Y017490D01*
X010115Y017490D01*
X010428Y017030D02*
X010350Y016952D01*
X010350Y016795D01*
X010271Y016716D01*
X010193Y016716D01*
X010115Y016795D01*
X010428Y017030D02*
X010507Y017030D01*
X010585Y016952D01*
X010585Y016795D01*
X010507Y016716D01*
X011115Y016641D02*
X011193Y016563D01*
X011271Y016563D01*
X011350Y016641D01*
X011350Y016798D01*
X011428Y016877D01*
X011507Y016877D01*
X011585Y016798D01*
X011585Y016641D01*
X011507Y016563D01*
X011115Y016641D02*
X011115Y016798D01*
X011193Y016877D01*
X011115Y017023D02*
X011585Y017023D01*
X011428Y017180D01*
X011585Y017337D01*
X011115Y017337D01*
X011507Y017797D02*
X011585Y017719D01*
X009585Y018561D02*
X009115Y018561D01*
X009115Y018405D02*
X009115Y018718D01*
X009115Y018258D02*
X009115Y017944D01*
X008007Y022865D02*
X008085Y022943D01*
X008085Y023100D01*
X008007Y023179D01*
X007928Y023179D01*
X007850Y023100D01*
X007850Y022943D01*
X007771Y022865D01*
X007693Y022865D01*
X007615Y022943D01*
X007615Y023100D01*
X007693Y023179D01*
X007615Y023325D02*
X007615Y023561D01*
X007693Y023639D01*
X008007Y023639D01*
X008085Y023561D01*
X008085Y023325D01*
X007615Y023325D01*
X007771Y023786D02*
X007615Y023943D01*
X007771Y024099D01*
X008085Y024099D01*
X008085Y024246D02*
X008085Y024560D01*
X008085Y024403D02*
X007615Y024403D01*
X007771Y024246D01*
X007850Y024099D02*
X007850Y023786D01*
X007771Y023786D02*
X008085Y023786D01*
X007085Y023786D02*
X007085Y024099D01*
X007085Y024246D02*
X007085Y024560D01*
X007085Y024403D02*
X006615Y024403D01*
X006771Y024246D01*
X006615Y023786D02*
X007085Y023786D01*
X007007Y023639D02*
X007085Y023561D01*
X007085Y023404D01*
X007007Y023325D01*
X006693Y023325D01*
X006615Y023404D01*
X006615Y023561D01*
X006693Y023639D01*
X006693Y023179D02*
X006615Y023100D01*
X006615Y022943D01*
X006693Y022865D01*
X006771Y022865D01*
X006850Y022943D01*
X006850Y023100D01*
X006928Y023179D01*
X007007Y023179D01*
X007085Y023100D01*
X007085Y022943D01*
X007007Y022865D01*
X021927Y014335D02*
X021927Y013865D01*
X022240Y013865D02*
X022240Y014335D01*
X022084Y014179D01*
X021927Y014335D01*
X022387Y014335D02*
X022544Y014335D01*
X022466Y014335D02*
X022466Y013865D01*
X022544Y013865D02*
X022387Y013865D01*
X022694Y013943D02*
X022773Y013865D01*
X022929Y013865D01*
X023008Y013943D01*
X023008Y014022D01*
X022929Y014100D01*
X022773Y014100D01*
X022694Y014179D01*
X022694Y014257D01*
X022773Y014335D01*
X022929Y014335D01*
X023008Y014257D01*
X023155Y014257D02*
X023155Y013943D01*
X023233Y013865D01*
X023390Y013865D01*
X023468Y013943D01*
X023468Y014257D01*
X023390Y014335D01*
X023233Y014335D01*
X023155Y014257D01*
X023155Y013335D02*
X023155Y012865D01*
X023155Y013022D02*
X023468Y013335D01*
X023233Y013100D02*
X023468Y012865D01*
X023008Y012943D02*
X022929Y012865D01*
X022773Y012865D01*
X022694Y012943D01*
X022694Y013257D01*
X022773Y013335D01*
X022929Y013335D01*
X023008Y013257D01*
X022547Y013257D02*
X022469Y013335D01*
X022312Y013335D01*
X022234Y013257D01*
X022234Y013179D01*
X022312Y013100D01*
X022469Y013100D01*
X022547Y013022D01*
X022547Y012943D01*
X022469Y012865D01*
X022312Y012865D01*
X022234Y012943D01*
X022312Y012335D02*
X022234Y012257D01*
X022234Y012179D01*
X022312Y012100D01*
X022469Y012100D01*
X022547Y012022D01*
X022547Y011943D01*
X022469Y011865D01*
X022312Y011865D01*
X022234Y011943D01*
X022087Y011865D02*
X021773Y011865D01*
X021773Y012335D01*
X022087Y012335D01*
X022312Y012335D02*
X022469Y012335D01*
X022547Y012257D01*
X022694Y012335D02*
X022694Y011865D01*
X023008Y011865D01*
X022851Y012100D02*
X022694Y012100D01*
X022694Y012335D02*
X023008Y012335D01*
X023155Y012335D02*
X023468Y012335D01*
X023311Y012335D02*
X023311Y011865D01*
X021930Y012100D02*
X021773Y012100D01*
X021627Y012100D02*
X021548Y012022D01*
X021313Y012022D01*
X021470Y012022D02*
X021627Y011865D01*
X021627Y012100D02*
X021627Y012257D01*
X021548Y012335D01*
X021313Y012335D01*
X021313Y011865D01*
X026115Y011943D02*
X026193Y011865D01*
X026350Y011865D01*
X026429Y011943D01*
X026429Y012100D01*
X026272Y012100D01*
X026115Y012257D02*
X026115Y011943D01*
X026115Y012257D02*
X026193Y012335D01*
X026350Y012335D01*
X026429Y012257D01*
X026575Y012335D02*
X026889Y011865D01*
X026889Y012335D01*
X027036Y012335D02*
X027271Y012335D01*
X027349Y012257D01*
X027349Y011943D01*
X027271Y011865D01*
X027036Y011865D01*
X027036Y012335D01*
X026575Y012335D02*
X026575Y011865D01*
X026654Y012865D02*
X026811Y012865D01*
X026889Y012943D01*
X026889Y013257D01*
X026811Y013335D01*
X026654Y013335D01*
X026575Y013257D01*
X026575Y012943D01*
X026654Y012865D01*
X026429Y012865D02*
X026429Y013335D01*
X026272Y013179D01*
X026115Y013335D01*
X026115Y012865D01*
X027036Y012943D02*
X027114Y012865D01*
X027271Y012865D01*
X027349Y012943D01*
X027349Y013022D01*
X027271Y013100D01*
X027114Y013100D01*
X027036Y013179D01*
X027036Y013257D01*
X027114Y013335D01*
X027271Y013335D01*
X027349Y013257D01*
X027496Y013335D02*
X027653Y013335D01*
X027575Y013335D02*
X027575Y012865D01*
X027653Y012865D02*
X027496Y012865D01*
X026732Y013865D02*
X026889Y014022D01*
X026889Y014335D01*
X026575Y014335D02*
X026575Y014022D01*
X026732Y013865D01*
X026429Y013943D02*
X026429Y014100D01*
X026350Y014179D01*
X026272Y014179D01*
X026115Y014100D01*
X026115Y014335D01*
X026429Y014335D01*
X026429Y013943D02*
X026350Y013865D01*
X026193Y013865D01*
X026115Y013943D01*
X011585Y002136D02*
X011193Y002136D01*
X011115Y002215D01*
X011350Y002215D02*
X011350Y002058D01*
X011350Y001911D02*
X011428Y001911D01*
X011428Y001598D01*
X011350Y001598D02*
X011271Y001676D01*
X011271Y001833D01*
X011350Y001911D01*
X011585Y001833D02*
X011585Y001676D01*
X011507Y001598D01*
X011350Y001598D01*
X011271Y001449D02*
X011271Y001371D01*
X011428Y001214D01*
X011585Y001214D02*
X011271Y001214D01*
X011193Y001067D02*
X011115Y000989D01*
X011115Y000832D01*
X011193Y000754D01*
X011507Y000754D01*
X011585Y000832D01*
X011585Y000989D01*
X011507Y001067D01*
X011193Y001067D01*
X011115Y000603D02*
X011115Y000447D01*
X011115Y000525D02*
X011585Y000525D01*
X011585Y000447D02*
X011585Y000603D01*
D15*
X023013Y004313D02*
X023150Y004313D01*
X023013Y004313D02*
X023013Y004450D01*
X024450Y004313D02*
X024587Y004313D01*
X024587Y004450D01*
X024587Y005750D02*
X024450Y005887D01*
X023150Y005887D02*
X023013Y005887D01*
X023013Y005750D01*
X008000Y015650D02*
X008000Y021050D01*
X001850Y021050D01*
X001850Y015650D01*
X008000Y015650D01*
X000850Y014700D02*
X000850Y014200D01*
X023156Y016746D02*
X023304Y016606D01*
X024233Y016581D02*
X024469Y016581D01*
X024469Y016817D01*
X024469Y017683D02*
X024469Y017919D01*
X024233Y017919D01*
X023367Y017919D02*
X023131Y017919D01*
X023131Y017683D01*
D16*
X023800Y015750D03*
D17*
X025200Y016100D03*
D18*
X025238Y017650D02*
X025262Y017650D01*
X023850Y018638D02*
X023850Y018662D01*
X023850Y019438D02*
X023850Y019462D01*
X025650Y006112D02*
X025650Y006088D01*
X025888Y004750D02*
X025912Y004750D01*
M02*
