G75*
G70*
%OFA0B0*%
%FSLAX24Y24*%
%IPPOS*%
%LPD*%
%AMOC8*
5,1,8,0,0,1.08239X$1,22.5*
%
%ADD10C,0.1330*%
%ADD11C,0.0674*%
%ADD12C,0.0674*%
%ADD13C,0.0640*%
%ADD14C,0.0740*%
%ADD15R,0.0740X0.0740*%
%ADD16C,0.0820*%
%ADD17C,0.1360*%
%ADD18R,0.0820X0.0820*%
%ADD19OC8,0.0820*%
%ADD20OC8,0.0595*%
%ADD21R,0.0595X0.0595*%
%ADD22C,0.0789*%
%ADD23C,0.2080*%
%ADD24C,0.0480*%
D10*
X025875Y004720D03*
X027875Y015720D03*
D11*
X027875Y021073D02*
X027875Y021666D01*
X028875Y021666D02*
X028875Y021073D01*
X029875Y021073D02*
X029875Y021666D01*
X030875Y021666D02*
X030875Y021073D01*
X031875Y021073D02*
X031875Y021666D01*
X032875Y021666D02*
X032875Y021073D01*
X033875Y021073D02*
X033875Y021666D01*
X034875Y021666D02*
X034875Y021073D01*
X025875Y021073D02*
X025875Y021666D01*
X024875Y021666D02*
X024875Y021073D01*
X023875Y021073D02*
X023875Y021666D01*
X022875Y021666D02*
X022875Y021073D01*
X021875Y021073D02*
X021875Y021666D01*
X020875Y021666D02*
X020875Y021073D01*
X019875Y021073D02*
X019875Y021666D01*
X018875Y021666D02*
X018875Y021073D01*
X017375Y021073D02*
X017375Y021666D01*
X016375Y021666D02*
X016375Y021073D01*
X015375Y021073D02*
X015375Y021666D01*
X014375Y021666D02*
X014375Y021073D01*
X013375Y021073D02*
X013375Y021666D01*
X012375Y021666D02*
X012375Y021073D01*
X011375Y021073D02*
X011375Y021666D01*
X010375Y021666D02*
X010375Y021073D01*
X010375Y021666D01*
X013875Y002666D02*
X013875Y002073D01*
X014875Y002073D02*
X014875Y002666D01*
X015875Y002666D02*
X015875Y002073D01*
X016875Y002073D02*
X016875Y002666D01*
X017875Y002666D02*
X017875Y002073D01*
X018875Y002073D02*
X018875Y002666D01*
X020875Y002666D02*
X020875Y002073D01*
X021875Y002073D02*
X021875Y002666D01*
X022875Y002666D02*
X022875Y002073D01*
X023875Y002073D02*
X023875Y002666D01*
X024875Y002666D02*
X024875Y002073D01*
X025875Y002073D02*
X025875Y002666D01*
X026875Y002666D02*
X026875Y002073D01*
X027875Y002073D02*
X027875Y002666D01*
X029875Y002666D02*
X029875Y002073D01*
X030875Y002073D02*
X030875Y002666D01*
X031875Y002666D02*
X031875Y002073D01*
X032875Y002073D02*
X032875Y002666D01*
X033875Y002666D02*
X033875Y002073D01*
X034875Y002073D02*
X034875Y002666D01*
X035875Y002666D02*
X035875Y002073D01*
X036875Y002073D02*
X036875Y002666D01*
D12*
X037875Y004370D03*
X038875Y004370D03*
X038875Y005370D03*
X037875Y005370D03*
X037875Y006370D03*
X038875Y006370D03*
X038875Y007370D03*
X037875Y007370D03*
X037875Y008370D03*
X038875Y008370D03*
X038875Y009370D03*
X037875Y009370D03*
X037875Y010370D03*
X038875Y010370D03*
X038875Y011370D03*
X037875Y011370D03*
X037875Y012370D03*
X038875Y012370D03*
X038875Y013370D03*
X037875Y013370D03*
X037875Y014370D03*
X038875Y014370D03*
X038875Y015370D03*
X037875Y015370D03*
X037875Y016370D03*
X038875Y016370D03*
X038875Y017370D03*
X037875Y017370D03*
X037875Y018370D03*
X038875Y018370D03*
X038875Y019370D03*
X037875Y019370D03*
X037875Y020370D03*
X038875Y020370D03*
X038875Y021370D03*
X037875Y021370D03*
D13*
X013875Y019150D02*
X013875Y018590D01*
X012875Y018590D02*
X012875Y019150D01*
X011875Y019150D02*
X011875Y018590D01*
X010875Y018590D02*
X010875Y019150D01*
X009375Y021090D02*
X009375Y021650D01*
X008375Y021650D02*
X008375Y021090D01*
X011875Y002650D02*
X011875Y002090D01*
X012875Y002090D02*
X012875Y002650D01*
D14*
X025875Y011370D03*
X026875Y011370D03*
X026875Y012370D03*
X025875Y012370D03*
X026875Y013370D03*
D15*
X025875Y013370D03*
D16*
X006075Y016820D03*
X005075Y016820D03*
X004075Y016820D03*
X003575Y017820D03*
X004575Y017820D03*
X005575Y017820D03*
D17*
X006825Y020320D03*
X002825Y020320D03*
D18*
X013625Y005220D03*
D19*
X012625Y005220D03*
X011625Y005220D03*
X011625Y006220D03*
X012625Y006220D03*
X013625Y006220D03*
X013625Y007220D03*
X012625Y007220D03*
X011625Y007220D03*
X011625Y008220D03*
X012625Y008220D03*
X013625Y008220D03*
X013625Y009220D03*
X012625Y009220D03*
X011625Y009220D03*
X011625Y010220D03*
X012625Y010220D03*
X013625Y010220D03*
X013625Y011220D03*
X012625Y011220D03*
X011625Y011220D03*
X011625Y012220D03*
X012625Y012220D03*
X013625Y012220D03*
D20*
X016375Y012720D03*
X016375Y011720D03*
X016375Y010720D03*
X016375Y009720D03*
X016375Y008720D03*
X016375Y007720D03*
X016375Y014720D03*
D21*
X016375Y013720D03*
D22*
X007725Y011570D03*
X006725Y011120D03*
X007725Y010670D03*
X006725Y010220D03*
X007725Y009770D03*
X006725Y009320D03*
X007725Y008870D03*
X006725Y008420D03*
X007725Y007970D03*
X006725Y007520D03*
X005725Y007970D03*
X005725Y008870D03*
X005725Y009770D03*
X005725Y010670D03*
X005725Y011570D03*
D23*
X006725Y004750D03*
X006725Y014590D03*
D24*
X008675Y013770D03*
X010575Y015120D03*
X012275Y013870D03*
X013175Y012720D03*
X015525Y011570D03*
X015825Y010720D03*
X016925Y010720D03*
X018775Y008870D03*
X015175Y007720D03*
X014825Y008320D03*
X019975Y006670D03*
X020225Y006220D03*
X024825Y007370D03*
X024175Y010170D03*
X024825Y011320D03*
X025075Y015120D03*
X025475Y016270D03*
X024775Y016670D03*
X025725Y017520D03*
X026275Y018070D03*
X025875Y018370D03*
X024775Y018020D03*
X027575Y018070D03*
X027925Y018420D03*
X028275Y017720D03*
X032625Y019170D03*
X033525Y016970D03*
X033925Y014920D03*
X033175Y012870D03*
X032275Y012470D03*
X033875Y010520D03*
X036025Y010670D03*
X036725Y009220D03*
X033525Y007970D03*
X034275Y006170D03*
X035475Y005470D03*
X036175Y005820D03*
X036175Y004870D03*
X038725Y003420D03*
X038025Y003220D03*
X015625Y014070D03*
X018175Y016970D03*
X017775Y018070D03*
X015975Y017670D03*
X012625Y016820D03*
X006675Y017170D03*
X005225Y012870D03*
X012725Y004120D03*
X017925Y021970D03*
M02*
