G75*
G70*
%OFA0B0*%
%FSLAX24Y24*%
%IPPOS*%
%LPD*%
%AMOC8*
5,1,8,0,0,1.08239X$1,22.5*
%
%ADD10C,0.0060*%
%ADD11C,0.0040*%
%ADD12C,0.0020*%
%ADD13C,0.0224*%
%ADD14C,0.0316*%
%ADD15C,0.0030*%
%ADD16C,0.0050*%
%ADD17R,0.0200X0.0200*%
%ADD18C,0.0080*%
D10*
X029232Y005700D02*
X029232Y006127D01*
X029446Y006340D01*
X029659Y006127D01*
X029659Y005700D01*
X029877Y005700D02*
X030197Y005700D01*
X030304Y005806D01*
X030304Y006233D01*
X030197Y006340D01*
X029877Y006340D01*
X029877Y005700D01*
X029984Y005290D02*
X030197Y005290D01*
X030304Y005183D01*
X029877Y004756D01*
X029984Y004650D01*
X030197Y004650D01*
X030304Y004756D01*
X030304Y005183D01*
X030521Y005183D02*
X030628Y005290D01*
X030842Y005290D01*
X030948Y005183D01*
X030948Y005077D01*
X030842Y004970D01*
X030628Y004970D01*
X030521Y005077D01*
X030521Y005183D01*
X030628Y004970D02*
X030521Y004863D01*
X030521Y004756D01*
X030628Y004650D01*
X030842Y004650D01*
X030948Y004756D01*
X030948Y004863D01*
X030842Y004970D01*
X031166Y004650D02*
X031593Y005290D01*
X031810Y005077D02*
X032024Y005290D01*
X032024Y004650D01*
X032237Y004650D02*
X031810Y004650D01*
X032455Y004756D02*
X032562Y004650D01*
X032775Y004650D01*
X032882Y004756D01*
X032882Y004863D01*
X032775Y004970D01*
X032669Y004970D01*
X032775Y004970D02*
X032882Y005077D01*
X032882Y005183D01*
X032775Y005290D01*
X032562Y005290D01*
X032455Y005183D01*
X032562Y005700D02*
X032775Y005700D01*
X032882Y005806D01*
X033100Y005700D02*
X033100Y006340D01*
X032882Y006233D02*
X032775Y006340D01*
X032562Y006340D01*
X032455Y006233D01*
X032455Y005806D01*
X032562Y005700D01*
X033100Y006020D02*
X033527Y006020D01*
X033744Y006020D02*
X034171Y006020D01*
X034171Y006127D02*
X034171Y005700D01*
X034389Y005806D02*
X034495Y005700D01*
X034709Y005700D01*
X034816Y005806D01*
X034816Y005913D01*
X034709Y006020D01*
X034495Y006020D01*
X034389Y006127D01*
X034389Y006233D01*
X034495Y006340D01*
X034709Y006340D01*
X034816Y006233D01*
X035033Y006340D02*
X035033Y005700D01*
X035460Y005700D01*
X034816Y005183D02*
X034709Y005290D01*
X034495Y005290D01*
X034389Y005183D01*
X034602Y004970D02*
X034709Y004970D01*
X034816Y004863D01*
X034816Y004756D01*
X034709Y004650D01*
X034495Y004650D01*
X034389Y004756D01*
X034171Y004650D02*
X033744Y004650D01*
X033958Y004650D02*
X033958Y005290D01*
X033744Y005077D01*
X033527Y005290D02*
X033100Y004650D01*
X033045Y004240D02*
X032938Y004133D01*
X033045Y004240D02*
X033259Y004240D01*
X033365Y004133D01*
X033365Y004027D01*
X032938Y003600D01*
X033365Y003600D01*
X033583Y003600D02*
X033690Y003600D01*
X033690Y003706D01*
X033583Y003706D01*
X033583Y003600D01*
X033905Y003706D02*
X034332Y004133D01*
X034332Y003706D01*
X034226Y003600D01*
X034012Y003600D01*
X033905Y003706D01*
X033905Y004133D01*
X034012Y004240D01*
X034226Y004240D01*
X034332Y004133D01*
X034550Y004133D02*
X034657Y004240D01*
X034870Y004240D01*
X034977Y004133D01*
X034550Y003706D01*
X034657Y003600D01*
X034870Y003600D01*
X034977Y003706D01*
X034977Y004133D01*
X034550Y004133D02*
X034550Y003706D01*
X032721Y004027D02*
X032507Y003600D01*
X032294Y004027D01*
X031432Y004133D02*
X031432Y003920D01*
X031325Y003813D01*
X031005Y003813D01*
X031218Y003813D02*
X031432Y003600D01*
X031005Y003600D02*
X031005Y004240D01*
X031325Y004240D01*
X031432Y004133D01*
X030787Y004133D02*
X030787Y003706D01*
X030680Y003600D01*
X030360Y003600D01*
X030360Y004240D01*
X030680Y004240D01*
X030787Y004133D01*
X030143Y004240D02*
X029716Y004240D01*
X029716Y003600D01*
X029716Y003920D02*
X029929Y003920D01*
X029877Y004756D02*
X029877Y005183D01*
X029984Y005290D01*
X030521Y005700D02*
X030521Y006127D01*
X030735Y006340D01*
X030948Y006127D01*
X030948Y005700D01*
X031166Y005700D02*
X031166Y006340D01*
X031379Y006127D01*
X031593Y006340D01*
X031593Y005700D01*
X030948Y006020D02*
X030521Y006020D01*
X029659Y006020D02*
X029232Y006020D01*
X033527Y006340D02*
X033527Y005700D01*
X033744Y005700D02*
X033744Y006127D01*
X033958Y006340D01*
X034171Y006127D01*
X035033Y006020D02*
X035247Y006020D01*
X035460Y006340D02*
X035033Y006340D01*
X034816Y005183D02*
X034816Y005077D01*
X034709Y004970D01*
D11*
X003227Y001940D02*
X003150Y002016D01*
X003227Y001940D02*
X003380Y001940D01*
X003457Y002016D01*
X003457Y002093D01*
X003380Y002170D01*
X003227Y002170D01*
X003150Y002247D01*
X003150Y002323D01*
X003227Y002400D01*
X003380Y002400D01*
X003457Y002323D01*
X003610Y002247D02*
X003764Y002400D01*
X003917Y002247D01*
X003917Y001940D01*
X003917Y002170D02*
X003610Y002170D01*
X003610Y002247D02*
X003610Y001940D01*
X003994Y001650D02*
X004224Y001650D01*
X004301Y001573D01*
X004301Y001497D01*
X004224Y001420D01*
X003994Y001420D01*
X003994Y001190D02*
X003994Y001650D01*
X004224Y001420D02*
X004301Y001343D01*
X004301Y001266D01*
X004224Y001190D01*
X003994Y001190D01*
X004454Y001266D02*
X004531Y001190D01*
X004685Y001190D01*
X004761Y001266D01*
X004761Y001573D01*
X004685Y001650D01*
X004531Y001650D01*
X004454Y001573D01*
X004454Y001266D01*
X004915Y001190D02*
X004915Y001497D01*
X005068Y001650D01*
X005222Y001497D01*
X005222Y001190D01*
X005375Y001190D02*
X005375Y001650D01*
X005605Y001650D01*
X005682Y001573D01*
X005682Y001420D01*
X005605Y001343D01*
X005375Y001343D01*
X005529Y001343D02*
X005682Y001190D01*
X005836Y001190D02*
X006066Y001190D01*
X006143Y001266D01*
X006143Y001573D01*
X006066Y001650D01*
X005836Y001650D01*
X005836Y001190D01*
X005222Y001420D02*
X004915Y001420D01*
X004992Y001940D02*
X005298Y001940D01*
X005452Y001940D02*
X005759Y001940D01*
X005912Y001940D02*
X006066Y001940D01*
X005989Y001940D02*
X005989Y002400D01*
X005912Y002400D02*
X006066Y002400D01*
X006219Y002400D02*
X006526Y002400D01*
X006373Y002400D02*
X006373Y001940D01*
X006680Y001940D02*
X006987Y001940D01*
X006833Y002170D02*
X006680Y002170D01*
X006680Y002400D02*
X006680Y001940D01*
X006680Y002400D02*
X006987Y002400D01*
X006756Y002690D02*
X006833Y002766D01*
X006833Y003073D01*
X006756Y003150D01*
X006603Y003150D01*
X006526Y003073D01*
X006526Y002766D01*
X006603Y002690D01*
X006756Y002690D01*
X006219Y002690D02*
X006219Y003150D01*
X006066Y003150D02*
X006373Y003150D01*
X005452Y003150D02*
X005145Y003150D01*
X005145Y002920D01*
X005298Y002997D01*
X005375Y002997D01*
X005452Y002920D01*
X005452Y002766D01*
X005375Y002690D01*
X005222Y002690D01*
X005145Y002766D01*
X004992Y002690D02*
X004685Y002690D01*
X004838Y002690D02*
X004838Y003150D01*
X004685Y002997D01*
X004531Y002920D02*
X004224Y002920D01*
X004071Y002997D02*
X003994Y002920D01*
X003764Y002920D01*
X003610Y002766D02*
X003610Y003073D01*
X003534Y003150D01*
X003303Y003150D01*
X003303Y002690D01*
X003534Y002690D01*
X003610Y002766D01*
X003764Y002690D02*
X003994Y002690D01*
X004071Y002766D01*
X004071Y002843D01*
X003994Y002920D01*
X004071Y002997D02*
X004071Y003073D01*
X003994Y003150D01*
X003764Y003150D01*
X003764Y002690D01*
X004071Y002400D02*
X004378Y002400D01*
X004531Y002400D02*
X004531Y001940D01*
X004838Y001940D01*
X004992Y001940D02*
X004992Y002400D01*
X004838Y002400D02*
X004531Y002400D01*
X004531Y002170D02*
X004685Y002170D01*
X004224Y001940D02*
X004224Y002400D01*
X005452Y002400D02*
X005452Y001940D01*
X010845Y004116D02*
X010922Y004040D01*
X011075Y004040D01*
X011152Y004116D01*
X011152Y004270D01*
X010998Y004270D01*
X010845Y004423D02*
X010845Y004116D01*
X010845Y004423D02*
X010922Y004500D01*
X011075Y004500D01*
X011152Y004423D01*
X011305Y004500D02*
X011612Y004040D01*
X011612Y004500D01*
X011766Y004500D02*
X011996Y004500D01*
X012073Y004423D01*
X012073Y004116D01*
X011996Y004040D01*
X011766Y004040D01*
X011766Y004500D01*
X011305Y004500D02*
X011305Y004040D01*
X012295Y004116D02*
X012372Y004040D01*
X012525Y004040D01*
X012602Y004116D01*
X012602Y004193D01*
X012525Y004270D01*
X012448Y004270D01*
X012525Y004270D02*
X012602Y004347D01*
X012602Y004423D01*
X012525Y004500D01*
X012372Y004500D01*
X012295Y004423D01*
X012755Y004423D02*
X012832Y004500D01*
X012986Y004500D01*
X013062Y004423D01*
X013062Y004347D01*
X012986Y004270D01*
X013062Y004193D01*
X013062Y004116D01*
X012986Y004040D01*
X012832Y004040D01*
X012755Y004116D01*
X012909Y004270D02*
X012986Y004270D01*
X013216Y004193D02*
X013369Y004040D01*
X013523Y004193D01*
X013523Y004500D01*
X013216Y004500D02*
X013216Y004193D01*
X013798Y001486D02*
X013798Y001333D01*
X013721Y001409D02*
X014028Y001409D01*
X014105Y001486D01*
X014645Y001409D02*
X014721Y001486D01*
X014798Y001486D01*
X014875Y001409D01*
X014952Y001486D01*
X015028Y001486D01*
X015105Y001409D01*
X015105Y001256D01*
X015028Y001179D01*
X014875Y001333D02*
X014875Y001409D01*
X014645Y001409D02*
X014645Y001256D01*
X014721Y001179D01*
X014798Y001026D02*
X015105Y000872D01*
X014798Y000719D01*
X014798Y000565D02*
X014875Y000489D01*
X014952Y000565D01*
X015028Y000565D01*
X015105Y000489D01*
X015105Y000335D01*
X015028Y000258D01*
X014875Y000412D02*
X014875Y000489D01*
X014798Y000565D02*
X014721Y000565D01*
X014645Y000489D01*
X014645Y000335D01*
X014721Y000258D01*
X014105Y000412D02*
X013645Y000412D01*
X013645Y000642D01*
X013721Y000719D01*
X013875Y000719D01*
X013952Y000642D01*
X013952Y000412D01*
X013952Y000565D02*
X014105Y000719D01*
X014105Y000872D02*
X014105Y001102D01*
X014028Y001179D01*
X013952Y001102D01*
X013952Y000949D01*
X013875Y000872D01*
X013798Y000949D01*
X013798Y001179D01*
X015645Y001026D02*
X015645Y000719D01*
X015875Y000719D01*
X015798Y000872D01*
X015798Y000949D01*
X015875Y001026D01*
X016028Y001026D01*
X016105Y000949D01*
X016105Y000796D01*
X016028Y000719D01*
X015798Y001179D02*
X016105Y001333D01*
X015798Y001486D01*
X016645Y001486D02*
X017105Y001486D01*
X017105Y001256D01*
X017028Y001179D01*
X016875Y001179D01*
X016798Y001256D01*
X016798Y001486D01*
X016875Y001026D02*
X017105Y001026D01*
X016875Y001026D02*
X016798Y000949D01*
X016798Y000719D01*
X017105Y000719D01*
X017028Y000565D02*
X016875Y000565D01*
X016875Y000412D01*
X017028Y000565D02*
X017105Y000489D01*
X017105Y000335D01*
X017028Y000258D01*
X016721Y000258D01*
X016645Y000335D01*
X016645Y000489D01*
X016721Y000565D01*
X017645Y000489D02*
X017645Y000335D01*
X017721Y000258D01*
X018028Y000258D01*
X018105Y000335D01*
X018105Y000489D01*
X018028Y000565D01*
X017875Y000565D01*
X017875Y000412D01*
X017721Y000565D02*
X017645Y000489D01*
X017798Y000719D02*
X017798Y000949D01*
X017875Y001026D01*
X018105Y001026D01*
X018028Y001179D02*
X017875Y001179D01*
X017798Y001256D01*
X017798Y001486D01*
X017645Y001486D02*
X018105Y001486D01*
X018105Y001256D01*
X018028Y001179D01*
X018105Y000719D02*
X017798Y000719D01*
X018568Y000949D02*
X018645Y000949D01*
X018798Y000949D02*
X019105Y000949D01*
X019105Y000872D02*
X019105Y001026D01*
X019105Y001179D02*
X018798Y001179D01*
X018798Y001409D01*
X018875Y001486D01*
X019105Y001486D01*
X018798Y000949D02*
X018798Y000872D01*
X018645Y000719D02*
X018952Y000719D01*
X019105Y000565D01*
X018952Y000412D01*
X018645Y000412D01*
X020645Y000872D02*
X020798Y000719D01*
X021105Y000719D01*
X020875Y000719D02*
X020875Y001026D01*
X020798Y001026D02*
X021105Y001026D01*
X021028Y001179D02*
X021105Y001256D01*
X021105Y001409D01*
X021028Y001486D01*
X020721Y001486D01*
X021028Y001179D01*
X020721Y001179D01*
X020645Y001256D01*
X020645Y001409D01*
X020721Y001486D01*
X020798Y001026D02*
X020645Y000872D01*
X021645Y000872D02*
X021798Y000719D01*
X022105Y000719D01*
X021875Y000719D02*
X021875Y001026D01*
X021798Y001026D02*
X022105Y001026D01*
X022105Y001179D02*
X022105Y001486D01*
X022105Y001333D02*
X021645Y001333D01*
X021798Y001179D01*
X021798Y001026D02*
X021645Y000872D01*
X022645Y000872D02*
X022798Y001026D01*
X023105Y001026D01*
X023105Y001179D02*
X022798Y001486D01*
X022721Y001486D01*
X022645Y001409D01*
X022645Y001256D01*
X022721Y001179D01*
X022875Y001026D02*
X022875Y000719D01*
X022798Y000719D02*
X022645Y000872D01*
X022798Y000719D02*
X023105Y000719D01*
X023105Y001179D02*
X023105Y001486D01*
X023645Y001409D02*
X023721Y001486D01*
X023798Y001486D01*
X023875Y001409D01*
X023952Y001486D01*
X024028Y001486D01*
X024105Y001409D01*
X024105Y001256D01*
X024028Y001179D01*
X024105Y001026D02*
X023798Y001026D01*
X023645Y000872D01*
X023798Y000719D01*
X024105Y000719D01*
X023875Y000719D02*
X023875Y001026D01*
X023721Y001179D02*
X023645Y001256D01*
X023645Y001409D01*
X023875Y001409D02*
X023875Y001333D01*
X024645Y001409D02*
X024875Y001179D01*
X024875Y001486D01*
X025105Y001409D02*
X024645Y001409D01*
X024798Y001026D02*
X025105Y001026D01*
X024875Y001026D02*
X024875Y000719D01*
X024798Y000719D02*
X024645Y000872D01*
X024798Y001026D01*
X024798Y000719D02*
X025105Y000719D01*
X025645Y000872D02*
X025798Y000719D01*
X026105Y000719D01*
X025875Y000719D02*
X025875Y001026D01*
X025798Y001026D02*
X026105Y001026D01*
X026028Y001179D02*
X026105Y001256D01*
X026105Y001409D01*
X026028Y001486D01*
X025875Y001486D01*
X025798Y001409D01*
X025798Y001333D01*
X025875Y001179D01*
X025645Y001179D01*
X025645Y001486D01*
X025798Y001026D02*
X025645Y000872D01*
X026645Y000872D02*
X026798Y000719D01*
X027105Y000719D01*
X026875Y000719D02*
X026875Y001026D01*
X026798Y001026D02*
X027105Y001026D01*
X027028Y001179D02*
X027105Y001256D01*
X027105Y001409D01*
X027028Y001486D01*
X026952Y001486D01*
X026875Y001409D01*
X026875Y001179D01*
X027028Y001179D01*
X026875Y001179D02*
X026721Y001333D01*
X026645Y001486D01*
X026798Y001026D02*
X026645Y000872D01*
X027645Y000872D02*
X027798Y000719D01*
X028105Y000719D01*
X027875Y000719D02*
X027875Y001026D01*
X027798Y001026D02*
X028105Y001026D01*
X028105Y001179D02*
X028028Y001179D01*
X027721Y001486D01*
X027645Y001486D01*
X027645Y001179D01*
X027798Y001026D02*
X027645Y000872D01*
X029645Y000872D02*
X029798Y001026D01*
X030105Y001026D01*
X030028Y001179D02*
X029952Y001179D01*
X029875Y001256D01*
X029875Y001409D01*
X029952Y001486D01*
X030028Y001486D01*
X030105Y001409D01*
X030105Y001256D01*
X030028Y001179D01*
X029875Y001256D02*
X029798Y001179D01*
X029721Y001179D01*
X029645Y001256D01*
X029645Y001409D01*
X029721Y001486D01*
X029798Y001486D01*
X029875Y001409D01*
X029875Y001026D02*
X029875Y000719D01*
X029798Y000719D02*
X029645Y000872D01*
X029798Y000719D02*
X030105Y000719D01*
X030645Y000872D02*
X030798Y000719D01*
X031105Y000719D01*
X030875Y000719D02*
X030875Y001026D01*
X030798Y001026D02*
X031105Y001026D01*
X031028Y001179D02*
X031105Y001256D01*
X031105Y001409D01*
X031028Y001486D01*
X030721Y001486D01*
X030645Y001409D01*
X030645Y001256D01*
X030721Y001179D01*
X030798Y001179D01*
X030875Y001256D01*
X030875Y001486D01*
X030798Y001026D02*
X030645Y000872D01*
X031645Y000872D02*
X032105Y000872D01*
X032105Y000719D02*
X032105Y001026D01*
X032028Y001179D02*
X031721Y001486D01*
X032028Y001486D01*
X032105Y001409D01*
X032105Y001256D01*
X032028Y001179D01*
X031721Y001179D01*
X031645Y001256D01*
X031645Y001409D01*
X031721Y001486D01*
X031645Y000872D02*
X031798Y000719D01*
X031798Y000565D02*
X032105Y000565D01*
X031875Y000565D02*
X031875Y000258D01*
X031798Y000258D02*
X031645Y000412D01*
X031798Y000565D01*
X031798Y000258D02*
X032105Y000258D01*
X032645Y000412D02*
X032798Y000565D01*
X033105Y000565D01*
X033105Y000719D02*
X033105Y001026D01*
X033105Y001179D02*
X033105Y001486D01*
X033105Y001333D02*
X032645Y001333D01*
X032798Y001179D01*
X032645Y000872D02*
X033105Y000872D01*
X032798Y000719D02*
X032645Y000872D01*
X032875Y000565D02*
X032875Y000258D01*
X032798Y000258D02*
X032645Y000412D01*
X032798Y000258D02*
X033105Y000258D01*
X035841Y004140D02*
X035994Y004140D01*
X036071Y004216D01*
X036071Y004370D01*
X035917Y004370D01*
X035764Y004523D02*
X035764Y004216D01*
X035841Y004140D01*
X036224Y004140D02*
X036224Y004447D01*
X036454Y004447D01*
X036531Y004370D01*
X036531Y004140D01*
X036685Y004216D02*
X036685Y004370D01*
X036761Y004447D01*
X036992Y004447D01*
X036992Y004600D02*
X036992Y004140D01*
X036761Y004140D01*
X036685Y004216D01*
X036071Y004523D02*
X035994Y004600D01*
X035841Y004600D01*
X035764Y004523D01*
X036301Y005140D02*
X036224Y005216D01*
X036301Y005140D02*
X036454Y005140D01*
X036531Y005216D01*
X036531Y005370D01*
X036454Y005447D01*
X036378Y005447D01*
X036224Y005370D01*
X036224Y005600D01*
X036531Y005600D01*
X036685Y005523D02*
X036761Y005600D01*
X036915Y005600D01*
X036992Y005523D01*
X036992Y005447D01*
X036685Y005140D01*
X036992Y005140D01*
X036915Y006140D02*
X036761Y006140D01*
X036685Y006216D01*
X036992Y006523D01*
X036992Y006216D01*
X036915Y006140D01*
X036685Y006216D02*
X036685Y006523D01*
X036761Y006600D01*
X036915Y006600D01*
X036992Y006523D01*
X036531Y006600D02*
X036224Y006600D01*
X036224Y006370D01*
X036378Y006447D01*
X036454Y006447D01*
X036531Y006370D01*
X036531Y006216D01*
X036454Y006140D01*
X036301Y006140D01*
X036224Y006216D01*
X036454Y007140D02*
X036454Y007600D01*
X036224Y007370D01*
X036531Y007370D01*
X036685Y007447D02*
X036685Y007523D01*
X036761Y007600D01*
X036915Y007600D01*
X036992Y007523D01*
X036992Y007447D01*
X036915Y007370D01*
X036761Y007370D01*
X036685Y007447D01*
X036761Y007370D02*
X036685Y007293D01*
X036685Y007216D01*
X036761Y007140D01*
X036915Y007140D01*
X036992Y007216D01*
X036992Y007293D01*
X036915Y007370D01*
X036915Y008140D02*
X036992Y008216D01*
X036992Y008293D01*
X036915Y008370D01*
X036685Y008370D01*
X036685Y008216D01*
X036761Y008140D01*
X036915Y008140D01*
X036685Y008370D02*
X036838Y008523D01*
X036992Y008600D01*
X036531Y008370D02*
X036224Y008370D01*
X036454Y008600D01*
X036454Y008140D01*
X036454Y009140D02*
X036454Y009600D01*
X036224Y009370D01*
X036531Y009370D01*
X036685Y009370D02*
X036992Y009370D01*
X036915Y009140D02*
X036915Y009600D01*
X036685Y009370D01*
X036685Y010140D02*
X036992Y010447D01*
X036992Y010523D01*
X036915Y010600D01*
X036761Y010600D01*
X036685Y010523D01*
X036531Y010370D02*
X036224Y010370D01*
X036454Y010600D01*
X036454Y010140D01*
X036685Y010140D02*
X036992Y010140D01*
X036915Y011140D02*
X036761Y011140D01*
X036685Y011216D01*
X036992Y011523D01*
X036992Y011216D01*
X036915Y011140D01*
X036685Y011216D02*
X036685Y011523D01*
X036761Y011600D01*
X036915Y011600D01*
X036992Y011523D01*
X036531Y011370D02*
X036224Y011370D01*
X036454Y011600D01*
X036454Y011140D01*
X036454Y012140D02*
X036301Y012140D01*
X036224Y012216D01*
X036378Y012370D02*
X036454Y012370D01*
X036531Y012293D01*
X036531Y012216D01*
X036454Y012140D01*
X036454Y012370D02*
X036531Y012447D01*
X036531Y012523D01*
X036454Y012600D01*
X036301Y012600D01*
X036224Y012523D01*
X036685Y012523D02*
X036685Y012447D01*
X036761Y012370D01*
X036915Y012370D01*
X036992Y012293D01*
X036992Y012216D01*
X036915Y012140D01*
X036761Y012140D01*
X036685Y012216D01*
X036685Y012293D01*
X036761Y012370D01*
X036915Y012370D02*
X036992Y012447D01*
X036992Y012523D01*
X036915Y012600D01*
X036761Y012600D01*
X036685Y012523D01*
X036761Y013140D02*
X036915Y013140D01*
X036992Y013216D01*
X036992Y013293D01*
X036915Y013370D01*
X036685Y013370D01*
X036685Y013216D01*
X036761Y013140D01*
X036685Y013370D02*
X036838Y013523D01*
X036992Y013600D01*
X036531Y013523D02*
X036531Y013447D01*
X036454Y013370D01*
X036531Y013293D01*
X036531Y013216D01*
X036454Y013140D01*
X036301Y013140D01*
X036224Y013216D01*
X036378Y013370D02*
X036454Y013370D01*
X036531Y013523D02*
X036454Y013600D01*
X036301Y013600D01*
X036224Y013523D01*
X036301Y014140D02*
X036224Y014216D01*
X036301Y014140D02*
X036454Y014140D01*
X036531Y014216D01*
X036531Y014293D01*
X036454Y014370D01*
X036378Y014370D01*
X036454Y014370D02*
X036531Y014447D01*
X036531Y014523D01*
X036454Y014600D01*
X036301Y014600D01*
X036224Y014523D01*
X036685Y014370D02*
X036992Y014370D01*
X036915Y014140D02*
X036915Y014600D01*
X036685Y014370D01*
X036685Y015140D02*
X036992Y015447D01*
X036992Y015523D01*
X036915Y015600D01*
X036761Y015600D01*
X036685Y015523D01*
X036531Y015523D02*
X036531Y015447D01*
X036454Y015370D01*
X036531Y015293D01*
X036531Y015216D01*
X036454Y015140D01*
X036301Y015140D01*
X036224Y015216D01*
X036378Y015370D02*
X036454Y015370D01*
X036531Y015523D02*
X036454Y015600D01*
X036301Y015600D01*
X036224Y015523D01*
X036685Y015140D02*
X036992Y015140D01*
X036915Y016140D02*
X036761Y016140D01*
X036685Y016216D01*
X036992Y016523D01*
X036992Y016216D01*
X036915Y016140D01*
X036685Y016216D02*
X036685Y016523D01*
X036761Y016600D01*
X036915Y016600D01*
X036992Y016523D01*
X036531Y016523D02*
X036454Y016600D01*
X036301Y016600D01*
X036224Y016523D01*
X036378Y016370D02*
X036454Y016370D01*
X036531Y016293D01*
X036531Y016216D01*
X036454Y016140D01*
X036301Y016140D01*
X036224Y016216D01*
X036454Y016370D02*
X036531Y016447D01*
X036531Y016523D01*
X036531Y017140D02*
X036224Y017140D01*
X036531Y017447D01*
X036531Y017523D01*
X036454Y017600D01*
X036301Y017600D01*
X036224Y017523D01*
X036685Y017523D02*
X036685Y017447D01*
X036761Y017370D01*
X036915Y017370D01*
X036992Y017293D01*
X036992Y017216D01*
X036915Y017140D01*
X036761Y017140D01*
X036685Y017216D01*
X036685Y017293D01*
X036761Y017370D01*
X036915Y017370D02*
X036992Y017447D01*
X036992Y017523D01*
X036915Y017600D01*
X036761Y017600D01*
X036685Y017523D01*
X036761Y018140D02*
X036915Y018140D01*
X036992Y018216D01*
X036992Y018293D01*
X036915Y018370D01*
X036685Y018370D01*
X036685Y018216D01*
X036761Y018140D01*
X036531Y018140D02*
X036224Y018140D01*
X036531Y018447D01*
X036531Y018523D01*
X036454Y018600D01*
X036301Y018600D01*
X036224Y018523D01*
X036685Y018370D02*
X036838Y018523D01*
X036992Y018600D01*
X036915Y019140D02*
X036915Y019600D01*
X036685Y019370D01*
X036992Y019370D01*
X036531Y019447D02*
X036531Y019523D01*
X036454Y019600D01*
X036301Y019600D01*
X036224Y019523D01*
X036531Y019447D02*
X036224Y019140D01*
X036531Y019140D01*
X036531Y020140D02*
X036224Y020140D01*
X036531Y020447D01*
X036531Y020523D01*
X036454Y020600D01*
X036301Y020600D01*
X036224Y020523D01*
X036685Y020523D02*
X036761Y020600D01*
X036915Y020600D01*
X036992Y020523D01*
X036992Y020447D01*
X036685Y020140D01*
X036992Y020140D01*
X036838Y021140D02*
X036992Y021447D01*
X036685Y021447D02*
X036838Y021140D01*
X036531Y021216D02*
X036531Y021370D01*
X036454Y021447D01*
X036378Y021447D01*
X036224Y021370D01*
X036224Y021600D01*
X036531Y021600D01*
X036531Y021216D02*
X036454Y021140D01*
X036301Y021140D01*
X036224Y021216D01*
X035105Y022216D02*
X035028Y022140D01*
X035105Y022216D02*
X035105Y022370D01*
X035028Y022447D01*
X034952Y022447D01*
X034875Y022370D01*
X034875Y022216D01*
X034798Y022140D01*
X034721Y022140D01*
X034645Y022216D01*
X034645Y022370D01*
X034721Y022447D01*
X034721Y022600D02*
X034645Y022677D01*
X034645Y022830D01*
X034721Y022907D01*
X034645Y023060D02*
X035105Y023060D01*
X035105Y023367D01*
X035028Y022907D02*
X035105Y022830D01*
X035105Y022677D01*
X035028Y022600D01*
X034721Y022600D01*
X034105Y022600D02*
X034105Y022830D01*
X034028Y022907D01*
X033721Y022907D01*
X033645Y022830D01*
X033645Y022600D01*
X034105Y022600D01*
X034028Y022447D02*
X034105Y022370D01*
X034105Y022216D01*
X034028Y022140D01*
X033875Y022216D02*
X033875Y022370D01*
X033952Y022447D01*
X034028Y022447D01*
X033875Y022216D02*
X033798Y022140D01*
X033721Y022140D01*
X033645Y022216D01*
X033645Y022370D01*
X033721Y022447D01*
X033105Y022447D02*
X032952Y022293D01*
X032952Y022370D02*
X032952Y022140D01*
X033105Y022140D02*
X032645Y022140D01*
X032645Y022370D01*
X032721Y022447D01*
X032875Y022447D01*
X032952Y022370D01*
X033105Y022600D02*
X032798Y022907D01*
X032798Y023060D02*
X032645Y023214D01*
X033105Y023214D01*
X033105Y023367D02*
X033105Y023060D01*
X033105Y022907D02*
X032798Y022600D01*
X032105Y022600D02*
X031798Y022907D01*
X031798Y023060D02*
X031645Y023214D01*
X032105Y023214D01*
X032105Y023367D02*
X032105Y023060D01*
X032105Y022907D02*
X031798Y022600D01*
X031645Y022447D02*
X031645Y022140D01*
X031645Y022293D02*
X032105Y022293D01*
X031105Y022140D02*
X030645Y022140D01*
X030645Y022370D01*
X030721Y022447D01*
X030875Y022447D01*
X030952Y022370D01*
X030952Y022140D01*
X030952Y022293D02*
X031105Y022447D01*
X031105Y022600D02*
X030798Y022907D01*
X030721Y023060D02*
X030645Y023137D01*
X030645Y023291D01*
X030721Y023367D01*
X030798Y023367D01*
X031105Y023060D01*
X031105Y023367D01*
X031105Y022907D02*
X030798Y022600D01*
X030105Y022600D02*
X029798Y022907D01*
X029721Y023060D02*
X029645Y023137D01*
X029645Y023291D01*
X029721Y023367D01*
X029798Y023367D01*
X030105Y023060D01*
X030105Y023367D01*
X030105Y022907D02*
X029798Y022600D01*
X029645Y022447D02*
X029645Y022140D01*
X029645Y022293D02*
X030105Y022293D01*
X029105Y022140D02*
X028645Y022140D01*
X028645Y022370D01*
X028721Y022447D01*
X028875Y022447D01*
X028952Y022370D01*
X028952Y022140D01*
X028952Y022293D02*
X029105Y022447D01*
X029105Y022600D02*
X028798Y022907D01*
X028721Y023060D02*
X028645Y023137D01*
X028645Y023291D01*
X028721Y023367D01*
X028798Y023367D01*
X028875Y023291D01*
X028952Y023367D01*
X029028Y023367D01*
X029105Y023291D01*
X029105Y023137D01*
X029028Y023060D01*
X029105Y022907D02*
X028798Y022600D01*
X028105Y022600D02*
X027798Y022907D01*
X027721Y023060D02*
X027645Y023137D01*
X027645Y023291D01*
X027721Y023367D01*
X027798Y023367D01*
X027875Y023291D01*
X027952Y023367D01*
X028028Y023367D01*
X028105Y023291D01*
X028105Y023137D01*
X028028Y023060D01*
X028105Y022907D02*
X027798Y022600D01*
X027645Y022447D02*
X027645Y022140D01*
X027645Y022293D02*
X028105Y022293D01*
X027875Y023214D02*
X027875Y023291D01*
X028875Y023291D02*
X028875Y023214D01*
X026105Y023291D02*
X026105Y023137D01*
X026028Y023060D01*
X025721Y023367D01*
X026028Y023367D01*
X026105Y023291D01*
X026028Y023060D02*
X025721Y023060D01*
X025645Y023137D01*
X025645Y023291D01*
X025721Y023367D01*
X025798Y022907D02*
X026105Y022600D01*
X026105Y022447D02*
X025952Y022293D01*
X025952Y022370D02*
X025952Y022140D01*
X026105Y022140D02*
X025645Y022140D01*
X025645Y022370D01*
X025721Y022447D01*
X025875Y022447D01*
X025952Y022370D01*
X025798Y022600D02*
X026105Y022907D01*
X025105Y022907D02*
X024798Y022600D01*
X024645Y022447D02*
X024645Y022140D01*
X024645Y022293D02*
X025105Y022293D01*
X025105Y022600D02*
X024798Y022907D01*
X024721Y023060D02*
X024645Y023137D01*
X024645Y023291D01*
X024721Y023367D01*
X025028Y023060D01*
X025105Y023137D01*
X025105Y023291D01*
X025028Y023367D01*
X024721Y023367D01*
X024721Y023060D02*
X025028Y023060D01*
X024105Y022447D02*
X024105Y022140D01*
X023798Y022447D01*
X023721Y022447D01*
X023645Y022370D01*
X023645Y022216D01*
X023721Y022140D01*
X023105Y022216D02*
X023105Y022370D01*
X023028Y022447D01*
X022952Y022447D01*
X022875Y022370D01*
X022875Y022293D01*
X022875Y022370D02*
X022798Y022447D01*
X022721Y022447D01*
X022645Y022370D01*
X022645Y022216D01*
X022721Y022140D01*
X023028Y022140D02*
X023105Y022216D01*
X022105Y022370D02*
X021645Y022370D01*
X021875Y022140D01*
X021875Y022447D01*
X021105Y022370D02*
X021105Y022216D01*
X021028Y022140D01*
X020875Y022140D02*
X020798Y022293D01*
X020798Y022370D01*
X020875Y022447D01*
X021028Y022447D01*
X021105Y022370D01*
X020875Y022140D02*
X020645Y022140D01*
X020645Y022447D01*
X020105Y022370D02*
X020105Y022216D01*
X020028Y022140D01*
X019875Y022140D01*
X019875Y022370D01*
X019952Y022447D01*
X020028Y022447D01*
X020105Y022370D01*
X019875Y022140D02*
X019721Y022293D01*
X019645Y022447D01*
X019105Y022140D02*
X019028Y022140D01*
X018721Y022447D01*
X018645Y022447D01*
X018645Y022140D01*
X017605Y022216D02*
X017528Y022140D01*
X017452Y022140D01*
X017375Y022216D01*
X017375Y022370D01*
X017452Y022447D01*
X017528Y022447D01*
X017605Y022370D01*
X017605Y022216D01*
X017375Y022216D02*
X017298Y022140D01*
X017221Y022140D01*
X017145Y022216D01*
X017145Y022370D01*
X017221Y022447D01*
X017298Y022447D01*
X017375Y022370D01*
X016605Y022370D02*
X016605Y022216D01*
X016528Y022140D01*
X016375Y022216D02*
X016375Y022447D01*
X016528Y022447D02*
X016221Y022447D01*
X016145Y022370D01*
X016145Y022216D01*
X016221Y022140D01*
X016298Y022140D01*
X016375Y022216D01*
X016605Y022370D02*
X016528Y022447D01*
X015605Y022447D02*
X015605Y022140D01*
X015605Y022293D02*
X015145Y022293D01*
X015298Y022140D01*
X015221Y022600D02*
X015145Y022677D01*
X015145Y022830D01*
X015221Y022907D01*
X015528Y022600D01*
X015605Y022677D01*
X015605Y022830D01*
X015528Y022907D01*
X015221Y022907D01*
X015221Y022600D02*
X015528Y022600D01*
X014605Y022600D02*
X014605Y022907D01*
X014605Y022753D02*
X014145Y022753D01*
X014298Y022600D01*
X014145Y022293D02*
X014605Y022293D01*
X014605Y022140D02*
X014605Y022447D01*
X014298Y022140D02*
X014145Y022293D01*
X013605Y022293D02*
X013145Y022293D01*
X013298Y022140D01*
X013605Y022140D02*
X013605Y022447D01*
X013605Y022600D02*
X013298Y022907D01*
X013221Y022907D01*
X013145Y022830D01*
X013145Y022677D01*
X013221Y022600D01*
X013605Y022600D02*
X013605Y022907D01*
X012605Y022830D02*
X012605Y022677D01*
X012528Y022600D01*
X012605Y022447D02*
X012605Y022140D01*
X012605Y022293D02*
X012145Y022293D01*
X012298Y022140D01*
X011605Y022216D02*
X011605Y022370D01*
X011528Y022447D01*
X011375Y022447D01*
X011375Y022293D01*
X011528Y022140D02*
X011605Y022216D01*
X011528Y022140D02*
X011221Y022140D01*
X011145Y022216D01*
X011145Y022370D01*
X011221Y022447D01*
X011298Y022600D02*
X011298Y022830D01*
X011375Y022907D01*
X011605Y022907D01*
X011528Y023060D02*
X011375Y023060D01*
X011298Y023137D01*
X011298Y023367D01*
X011145Y023367D02*
X011605Y023367D01*
X011605Y023137D01*
X011528Y023060D01*
X011605Y022600D02*
X011298Y022600D01*
X010605Y022600D02*
X010298Y022600D01*
X010298Y022753D02*
X010298Y022830D01*
X010298Y022753D02*
X010452Y022600D01*
X010375Y022447D02*
X010375Y022140D01*
X010298Y022140D02*
X010605Y022140D01*
X010605Y022447D02*
X010298Y022447D01*
X010145Y022293D01*
X010298Y022140D01*
X010375Y022984D02*
X010298Y023060D01*
X010298Y023214D01*
X010375Y023291D01*
X010452Y023291D01*
X010452Y022984D01*
X010528Y022984D02*
X010375Y022984D01*
X010528Y022984D02*
X010605Y023060D01*
X010605Y023214D01*
X010375Y023444D02*
X010375Y023598D01*
X010221Y023521D02*
X010605Y023521D01*
X010221Y023521D02*
X010145Y023598D01*
X012145Y022830D02*
X012145Y022677D01*
X012221Y022600D01*
X012375Y022753D02*
X012375Y022830D01*
X012452Y022907D01*
X012528Y022907D01*
X012605Y022830D01*
X012375Y022830D02*
X012298Y022907D01*
X012221Y022907D01*
X012145Y022830D01*
X009502Y019894D02*
X009348Y019894D01*
X009195Y019741D01*
X009195Y019587D02*
X009655Y019587D01*
X009655Y019741D02*
X009502Y019894D01*
X009425Y019587D02*
X009425Y019280D01*
X009578Y019127D02*
X009655Y019050D01*
X009655Y018897D01*
X009578Y018820D01*
X009271Y018820D01*
X009195Y018897D01*
X009195Y019050D01*
X009271Y019127D01*
X009195Y019280D02*
X009655Y019280D01*
X008905Y019357D02*
X008828Y019280D01*
X008521Y019587D01*
X008828Y019587D01*
X008905Y019510D01*
X008905Y019357D01*
X008828Y019280D02*
X008521Y019280D01*
X008445Y019357D01*
X008445Y019510D01*
X008521Y019587D01*
X008521Y019741D02*
X008445Y019817D01*
X008445Y019971D01*
X008521Y020048D01*
X008828Y019741D01*
X008905Y019817D01*
X008905Y019971D01*
X008828Y020048D01*
X008521Y020048D01*
X008521Y019741D02*
X008828Y019741D01*
X008155Y019817D02*
X008155Y019971D01*
X008078Y020048D01*
X007771Y020048D01*
X007695Y019971D01*
X007695Y019817D01*
X007771Y019741D01*
X008078Y019741D01*
X008155Y019817D01*
X008155Y019434D02*
X007695Y019434D01*
X007695Y019587D02*
X007695Y019280D01*
X008445Y019050D02*
X008445Y018897D01*
X008521Y018820D01*
X008521Y018666D02*
X008445Y018590D01*
X008445Y018436D01*
X008521Y018359D01*
X008521Y018206D02*
X008675Y018206D01*
X008752Y018129D01*
X008752Y017899D01*
X008905Y017899D02*
X008445Y017899D01*
X008445Y018129D01*
X008521Y018206D01*
X008752Y018052D02*
X008905Y018206D01*
X008905Y018359D02*
X008598Y018666D01*
X008521Y018666D01*
X008828Y018820D02*
X008905Y018897D01*
X008905Y019050D01*
X008828Y019127D01*
X008752Y019127D01*
X008675Y019050D01*
X008675Y018973D01*
X008675Y019050D02*
X008598Y019127D01*
X008521Y019127D01*
X008445Y019050D01*
X008155Y018666D02*
X008155Y018359D01*
X008155Y018206D02*
X008155Y017899D01*
X008155Y018052D02*
X007695Y018052D01*
X007848Y017899D01*
X007695Y017746D02*
X007695Y017592D01*
X007695Y017669D02*
X008078Y017669D01*
X008155Y017592D01*
X008155Y017515D01*
X008078Y017439D01*
X008155Y017285D02*
X008002Y017132D01*
X008002Y017208D02*
X008002Y016978D01*
X008155Y016978D02*
X007695Y016978D01*
X007695Y017208D01*
X007771Y017285D01*
X007925Y017285D01*
X008002Y017208D01*
X008445Y017285D02*
X008905Y017285D01*
X008905Y017439D02*
X008445Y017439D01*
X008598Y017592D01*
X008445Y017746D01*
X008905Y017746D01*
X009195Y017669D02*
X009271Y017746D01*
X009425Y017746D01*
X009502Y017669D01*
X009502Y017439D01*
X009655Y017439D02*
X009195Y017439D01*
X009195Y017669D01*
X009348Y017899D02*
X009195Y018052D01*
X009348Y018206D01*
X009655Y018206D01*
X009425Y018206D02*
X009425Y017899D01*
X009348Y017899D02*
X009655Y017899D01*
X009655Y017285D02*
X009502Y017132D01*
X009348Y017132D01*
X009195Y017285D01*
X008675Y017285D02*
X008675Y016978D01*
X008905Y016978D02*
X008445Y016978D01*
X008905Y018359D02*
X008905Y018666D01*
X009195Y018666D02*
X009195Y018359D01*
X009195Y018513D02*
X009655Y018513D01*
X008155Y018513D02*
X007695Y018513D01*
X007848Y018359D01*
X016895Y015000D02*
X016895Y014770D01*
X017048Y014847D01*
X017125Y014847D01*
X017202Y014770D01*
X017202Y014616D01*
X017125Y014540D01*
X016972Y014540D01*
X016895Y014616D01*
X016895Y015000D02*
X017202Y015000D01*
X017355Y015000D02*
X017355Y014693D01*
X017509Y014540D01*
X017662Y014693D01*
X017662Y015000D01*
X017662Y013950D02*
X017662Y013490D01*
X017355Y013950D01*
X017355Y013490D01*
X017202Y013566D02*
X017202Y013720D01*
X017048Y013720D01*
X016895Y013873D02*
X016895Y013566D01*
X016972Y013490D01*
X017125Y013490D01*
X017202Y013566D01*
X017202Y013873D02*
X017125Y013950D01*
X016972Y013950D01*
X016895Y013873D01*
X016972Y013050D02*
X016895Y012973D01*
X016895Y012897D01*
X016972Y012820D01*
X017125Y012820D01*
X017202Y012743D01*
X017202Y012666D01*
X017125Y012590D01*
X016972Y012590D01*
X016895Y012666D01*
X016972Y013050D02*
X017125Y013050D01*
X017202Y012973D01*
X017355Y012973D02*
X017355Y012666D01*
X017432Y012590D01*
X017586Y012590D01*
X017662Y012666D01*
X017662Y012973D01*
X017586Y013050D01*
X017432Y013050D01*
X017355Y012973D01*
X017816Y013490D02*
X018046Y013490D01*
X018123Y013566D01*
X018123Y013873D01*
X018046Y013950D01*
X017816Y013950D01*
X017816Y013490D01*
X017459Y012000D02*
X017305Y012000D01*
X017382Y012000D02*
X017382Y011540D01*
X017305Y011540D02*
X017459Y011540D01*
X017152Y011616D02*
X017075Y011540D01*
X016922Y011540D01*
X016845Y011616D01*
X016922Y011770D02*
X016845Y011847D01*
X016845Y011923D01*
X016922Y012000D01*
X017075Y012000D01*
X017152Y011923D01*
X017075Y011770D02*
X017152Y011693D01*
X017152Y011616D01*
X017075Y011770D02*
X016922Y011770D01*
X033645Y023214D02*
X033798Y023367D01*
X034105Y023367D01*
X033875Y023367D02*
X033875Y023060D01*
X033798Y023060D02*
X034105Y023060D01*
X033798Y023060D02*
X033645Y023214D01*
X039645Y021600D02*
X039645Y021370D01*
X039798Y021447D01*
X039875Y021447D01*
X039952Y021370D01*
X039952Y021216D01*
X039875Y021140D01*
X039722Y021140D01*
X039645Y021216D01*
X040105Y021447D02*
X040259Y021140D01*
X040412Y021447D01*
X039952Y021600D02*
X039645Y021600D01*
X039722Y020600D02*
X039645Y020523D01*
X039722Y020600D02*
X039875Y020600D01*
X039952Y020523D01*
X039952Y020447D01*
X039645Y020140D01*
X039952Y020140D01*
X040105Y020216D02*
X040182Y020140D01*
X040336Y020140D01*
X040412Y020216D01*
X040412Y020293D01*
X040336Y020370D01*
X040259Y020370D01*
X040336Y020370D02*
X040412Y020447D01*
X040412Y020523D01*
X040336Y020600D01*
X040182Y020600D01*
X040105Y020523D01*
X040105Y019600D02*
X040105Y019370D01*
X040259Y019447D01*
X040336Y019447D01*
X040412Y019370D01*
X040412Y019216D01*
X040336Y019140D01*
X040182Y019140D01*
X040105Y019216D01*
X039952Y019140D02*
X039645Y019140D01*
X039952Y019447D01*
X039952Y019523D01*
X039875Y019600D01*
X039722Y019600D01*
X039645Y019523D01*
X040105Y019600D02*
X040412Y019600D01*
X040412Y018600D02*
X040412Y018523D01*
X040105Y018216D01*
X040105Y018140D01*
X039952Y018140D02*
X039645Y018140D01*
X039952Y018447D01*
X039952Y018523D01*
X039875Y018600D01*
X039722Y018600D01*
X039645Y018523D01*
X040105Y018600D02*
X040412Y018600D01*
X040336Y017600D02*
X040182Y017600D01*
X040105Y017523D01*
X040105Y017447D01*
X040182Y017370D01*
X040412Y017370D01*
X040412Y017523D02*
X040412Y017216D01*
X040336Y017140D01*
X040182Y017140D01*
X040105Y017216D01*
X039952Y017140D02*
X039645Y017140D01*
X039952Y017447D01*
X039952Y017523D01*
X039875Y017600D01*
X039722Y017600D01*
X039645Y017523D01*
X040336Y017600D02*
X040412Y017523D01*
X040259Y016600D02*
X040259Y016140D01*
X040412Y016140D02*
X040105Y016140D01*
X039952Y016216D02*
X039875Y016140D01*
X039722Y016140D01*
X039645Y016216D01*
X039798Y016370D02*
X039875Y016370D01*
X039952Y016293D01*
X039952Y016216D01*
X039875Y016370D02*
X039952Y016447D01*
X039952Y016523D01*
X039875Y016600D01*
X039722Y016600D01*
X039645Y016523D01*
X040105Y016447D02*
X040259Y016600D01*
X040336Y015600D02*
X040412Y015523D01*
X040412Y015447D01*
X040336Y015370D01*
X040412Y015293D01*
X040412Y015216D01*
X040336Y015140D01*
X040182Y015140D01*
X040105Y015216D01*
X039952Y015216D02*
X039875Y015140D01*
X039722Y015140D01*
X039645Y015216D01*
X039798Y015370D02*
X039875Y015370D01*
X039952Y015293D01*
X039952Y015216D01*
X039875Y015370D02*
X039952Y015447D01*
X039952Y015523D01*
X039875Y015600D01*
X039722Y015600D01*
X039645Y015523D01*
X040105Y015523D02*
X040182Y015600D01*
X040336Y015600D01*
X040336Y015370D02*
X040259Y015370D01*
X040412Y014600D02*
X040105Y014600D01*
X040105Y014370D01*
X040259Y014447D01*
X040336Y014447D01*
X040412Y014370D01*
X040412Y014216D01*
X040336Y014140D01*
X040182Y014140D01*
X040105Y014216D01*
X039952Y014216D02*
X039875Y014140D01*
X039722Y014140D01*
X039645Y014216D01*
X039798Y014370D02*
X039875Y014370D01*
X039952Y014293D01*
X039952Y014216D01*
X039875Y014370D02*
X039952Y014447D01*
X039952Y014523D01*
X039875Y014600D01*
X039722Y014600D01*
X039645Y014523D01*
X039722Y013600D02*
X039875Y013600D01*
X039952Y013523D01*
X039952Y013447D01*
X039875Y013370D01*
X039952Y013293D01*
X039952Y013216D01*
X039875Y013140D01*
X039722Y013140D01*
X039645Y013216D01*
X039798Y013370D02*
X039875Y013370D01*
X039645Y013523D02*
X039722Y013600D01*
X040105Y013600D02*
X040412Y013600D01*
X040412Y013523D01*
X040105Y013216D01*
X040105Y013140D01*
X040182Y012600D02*
X040105Y012523D01*
X040105Y012447D01*
X040182Y012370D01*
X040412Y012370D01*
X040412Y012523D02*
X040412Y012216D01*
X040336Y012140D01*
X040182Y012140D01*
X040105Y012216D01*
X039952Y012216D02*
X039952Y012293D01*
X039875Y012370D01*
X039798Y012370D01*
X039875Y012370D02*
X039952Y012447D01*
X039952Y012523D01*
X039875Y012600D01*
X039722Y012600D01*
X039645Y012523D01*
X040182Y012600D02*
X040336Y012600D01*
X040412Y012523D01*
X039952Y012216D02*
X039875Y012140D01*
X039722Y012140D01*
X039645Y012216D01*
X039875Y011600D02*
X039645Y011370D01*
X039952Y011370D01*
X040105Y011447D02*
X040259Y011600D01*
X040259Y011140D01*
X040412Y011140D02*
X040105Y011140D01*
X039875Y011140D02*
X039875Y011600D01*
X039875Y010600D02*
X039645Y010370D01*
X039952Y010370D01*
X040105Y010523D02*
X040182Y010600D01*
X040336Y010600D01*
X040412Y010523D01*
X040412Y010447D01*
X040336Y010370D01*
X040412Y010293D01*
X040412Y010216D01*
X040336Y010140D01*
X040182Y010140D01*
X040105Y010216D01*
X040259Y010370D02*
X040336Y010370D01*
X039875Y010140D02*
X039875Y010600D01*
X039875Y009600D02*
X039645Y009370D01*
X039952Y009370D01*
X040105Y009370D02*
X040105Y009600D01*
X040412Y009600D01*
X040336Y009447D02*
X040412Y009370D01*
X040412Y009216D01*
X040336Y009140D01*
X040182Y009140D01*
X040105Y009216D01*
X040105Y009370D02*
X040259Y009447D01*
X040336Y009447D01*
X039875Y009600D02*
X039875Y009140D01*
X039875Y008600D02*
X039645Y008370D01*
X039952Y008370D01*
X040105Y008216D02*
X040105Y008140D01*
X040105Y008216D02*
X040412Y008523D01*
X040412Y008600D01*
X040105Y008600D01*
X039875Y008600D02*
X039875Y008140D01*
X039875Y007600D02*
X039645Y007370D01*
X039952Y007370D01*
X040105Y007447D02*
X040182Y007370D01*
X040412Y007370D01*
X040412Y007523D02*
X040412Y007216D01*
X040336Y007140D01*
X040182Y007140D01*
X040105Y007216D01*
X040105Y007447D02*
X040105Y007523D01*
X040182Y007600D01*
X040336Y007600D01*
X040412Y007523D01*
X039875Y007600D02*
X039875Y007140D01*
X039952Y006600D02*
X039645Y006600D01*
X039645Y006370D01*
X039798Y006447D01*
X039875Y006447D01*
X039952Y006370D01*
X039952Y006216D01*
X039875Y006140D01*
X039722Y006140D01*
X039645Y006216D01*
X040105Y006140D02*
X040412Y006140D01*
X040259Y006140D02*
X040259Y006600D01*
X040105Y006447D01*
X040182Y005600D02*
X040336Y005600D01*
X040412Y005523D01*
X040412Y005447D01*
X040336Y005370D01*
X040412Y005293D01*
X040412Y005216D01*
X040336Y005140D01*
X040182Y005140D01*
X040105Y005216D01*
X039952Y005216D02*
X039952Y005370D01*
X039875Y005447D01*
X039798Y005447D01*
X039645Y005370D01*
X039645Y005600D01*
X039952Y005600D01*
X040105Y005523D02*
X040182Y005600D01*
X040259Y005370D02*
X040336Y005370D01*
X039952Y005216D02*
X039875Y005140D01*
X039722Y005140D01*
X039645Y005216D01*
X039722Y004600D02*
X039645Y004523D01*
X039645Y004216D01*
X039722Y004140D01*
X039875Y004140D01*
X039952Y004216D01*
X039952Y004370D01*
X039798Y004370D01*
X039952Y004523D02*
X039875Y004600D01*
X039722Y004600D01*
X040105Y004447D02*
X040336Y004447D01*
X040412Y004370D01*
X040412Y004140D01*
X040566Y004216D02*
X040566Y004370D01*
X040643Y004447D01*
X040873Y004447D01*
X040873Y004600D02*
X040873Y004140D01*
X040643Y004140D01*
X040566Y004216D01*
X040105Y004140D02*
X040105Y004447D01*
D12*
X026246Y014980D02*
X026105Y015120D01*
X026059Y015073D02*
X026246Y015260D01*
X026059Y015260D02*
X026059Y014980D01*
X025969Y015213D02*
X025783Y015026D01*
X025783Y014980D01*
X025691Y014980D02*
X025644Y014980D01*
X025644Y015026D01*
X025691Y015026D01*
X025691Y014980D01*
X025508Y014980D02*
X025508Y015260D01*
X025368Y015120D01*
X025555Y015120D01*
X025783Y015260D02*
X025969Y015260D01*
X025969Y015213D01*
X027535Y016783D02*
X027581Y016737D01*
X027768Y016737D01*
X027581Y016923D01*
X027768Y016923D01*
X027815Y016877D01*
X027815Y016783D01*
X027768Y016737D01*
X027535Y016783D02*
X027535Y016877D01*
X027581Y016923D01*
X027768Y017013D02*
X027768Y017059D01*
X027815Y017059D01*
X027815Y017013D01*
X027768Y017013D01*
X027815Y017151D02*
X027815Y017338D01*
X027815Y017244D02*
X027535Y017244D01*
X027628Y017151D01*
X027628Y017427D02*
X027768Y017427D01*
X027815Y017474D01*
X027815Y017614D01*
X027628Y017614D01*
X027675Y017703D02*
X027675Y017797D01*
X027535Y017703D02*
X027535Y017890D01*
X027535Y017703D02*
X027815Y017703D01*
X027055Y018380D02*
X026869Y018380D01*
X026869Y018660D01*
X026779Y018613D02*
X026779Y018566D01*
X026733Y018520D01*
X026779Y018473D01*
X026779Y018426D01*
X026733Y018380D01*
X026639Y018380D01*
X026592Y018426D01*
X026503Y018426D02*
X026456Y018380D01*
X026363Y018380D01*
X026316Y018426D01*
X026316Y018473D01*
X026363Y018520D01*
X026456Y018520D01*
X026503Y018473D01*
X026503Y018426D01*
X026456Y018520D02*
X026503Y018566D01*
X026503Y018613D01*
X026456Y018660D01*
X026363Y018660D01*
X026316Y018613D01*
X026316Y018566D01*
X026363Y018520D01*
X026227Y018566D02*
X026180Y018520D01*
X026087Y018520D01*
X026040Y018566D01*
X026040Y018613D01*
X026087Y018660D01*
X026180Y018660D01*
X026227Y018613D01*
X026227Y018566D01*
X026180Y018520D02*
X026227Y018473D01*
X026227Y018426D01*
X026180Y018380D01*
X026087Y018380D01*
X026040Y018426D01*
X026040Y018473D01*
X026087Y018520D01*
X025951Y018520D02*
X025951Y018426D01*
X025904Y018380D01*
X025810Y018380D01*
X025764Y018426D01*
X025674Y018426D02*
X025628Y018380D01*
X025534Y018380D01*
X025487Y018426D01*
X025487Y018613D01*
X025534Y018660D01*
X025628Y018660D01*
X025674Y018613D01*
X025764Y018660D02*
X025764Y018520D01*
X025857Y018566D01*
X025904Y018566D01*
X025951Y018520D01*
X025951Y018660D02*
X025764Y018660D01*
X025398Y018660D02*
X025398Y018380D01*
X025211Y018380D02*
X025211Y018660D01*
X025305Y018566D01*
X025398Y018660D01*
X025122Y018660D02*
X025122Y018380D01*
X025122Y018520D02*
X024935Y018520D01*
X024935Y018380D02*
X024935Y018660D01*
X023615Y018457D02*
X023475Y018317D01*
X023522Y018270D02*
X023335Y018457D01*
X023335Y018270D02*
X023615Y018270D01*
X023381Y018181D02*
X023568Y017994D01*
X023615Y017994D01*
X023615Y017903D02*
X023615Y017856D01*
X023568Y017856D01*
X023568Y017903D01*
X023615Y017903D01*
X023615Y017720D02*
X023335Y017720D01*
X023475Y017580D01*
X023475Y017766D01*
X023335Y017994D02*
X023335Y018181D01*
X023381Y018181D01*
X021915Y017896D02*
X021635Y017896D01*
X021635Y018083D01*
X021775Y017990D02*
X021775Y017896D01*
X021728Y017807D02*
X021915Y017807D01*
X021915Y017667D01*
X021868Y017620D01*
X021728Y017620D01*
X021635Y017437D02*
X021915Y017437D01*
X021915Y017344D02*
X021915Y017531D01*
X021728Y017344D02*
X021635Y017437D01*
X021868Y017253D02*
X021915Y017253D01*
X021915Y017206D01*
X021868Y017206D01*
X021868Y017253D01*
X021868Y017116D02*
X021915Y017070D01*
X021915Y016976D01*
X021868Y016930D01*
X021681Y017116D01*
X021868Y017116D01*
X021868Y016930D02*
X021681Y016930D01*
X021635Y016976D01*
X021635Y017070D01*
X021681Y017116D01*
X019646Y015710D02*
X019459Y015710D01*
X019459Y015430D01*
X019369Y015430D02*
X019369Y015570D01*
X019323Y015616D01*
X019183Y015616D01*
X019183Y015430D01*
X019093Y015430D02*
X018906Y015430D01*
X019093Y015616D01*
X019093Y015663D01*
X019046Y015710D01*
X018953Y015710D01*
X018906Y015663D01*
X018815Y015476D02*
X018815Y015430D01*
X018768Y015430D01*
X018768Y015476D01*
X018815Y015476D01*
X018679Y015430D02*
X018492Y015430D01*
X018679Y015616D01*
X018679Y015663D01*
X018632Y015710D01*
X018539Y015710D01*
X018492Y015663D01*
X019459Y015570D02*
X019552Y015570D01*
X017515Y016930D02*
X017515Y017023D01*
X017515Y016976D02*
X017235Y016976D01*
X017235Y016930D02*
X017235Y017023D01*
X017235Y017114D02*
X017235Y017301D01*
X017235Y017207D02*
X017515Y017207D01*
X017468Y017390D02*
X017281Y017390D01*
X017235Y017437D01*
X017235Y017530D01*
X017281Y017577D01*
X017281Y017666D02*
X017235Y017713D01*
X017235Y017806D01*
X017281Y017853D01*
X017328Y017853D01*
X017375Y017806D01*
X017422Y017853D01*
X017468Y017853D01*
X017515Y017806D01*
X017515Y017713D01*
X017468Y017666D01*
X017468Y017577D02*
X017375Y017577D01*
X017375Y017483D01*
X017468Y017390D02*
X017515Y017437D01*
X017515Y017530D01*
X017468Y017577D01*
X017375Y017760D02*
X017375Y017806D01*
X017281Y017942D02*
X017235Y017989D01*
X017235Y018083D01*
X017281Y018129D01*
X017328Y018129D01*
X017515Y017942D01*
X017515Y018129D01*
X017468Y018219D02*
X017281Y018406D01*
X017468Y018406D01*
X017515Y018359D01*
X017515Y018265D01*
X017468Y018219D01*
X017281Y018219D01*
X017235Y018265D01*
X017235Y018359D01*
X017281Y018406D01*
X017281Y018495D02*
X017235Y018542D01*
X017235Y018635D01*
X017281Y018682D01*
X017468Y018495D01*
X017515Y018542D01*
X017515Y018635D01*
X017468Y018682D01*
X017281Y018682D01*
X017281Y018495D02*
X017468Y018495D01*
X018430Y019730D02*
X018617Y019730D01*
X018523Y019730D02*
X018523Y020010D01*
X018430Y019916D01*
X018706Y019963D02*
X018706Y019776D01*
X018893Y019963D01*
X018893Y019776D01*
X018846Y019730D01*
X018753Y019730D01*
X018706Y019776D01*
X018706Y019963D02*
X018753Y020010D01*
X018846Y020010D01*
X018893Y019963D01*
X018983Y019916D02*
X018983Y019730D01*
X019169Y019730D02*
X019169Y019870D01*
X019123Y019916D01*
X018983Y019916D01*
X019259Y019870D02*
X019352Y019870D01*
X019259Y019730D02*
X019259Y020010D01*
X019446Y020010D01*
X016896Y017010D02*
X016709Y017010D01*
X016709Y016730D01*
X016619Y016730D02*
X016619Y016916D01*
X016709Y016870D02*
X016802Y016870D01*
X016619Y016730D02*
X016479Y016730D01*
X016433Y016776D01*
X016433Y016916D01*
X016250Y017010D02*
X016250Y016730D01*
X016343Y016730D02*
X016156Y016730D01*
X016065Y016730D02*
X016018Y016730D01*
X016018Y016776D01*
X016065Y016776D01*
X016065Y016730D01*
X015929Y016776D02*
X015882Y016730D01*
X015789Y016730D01*
X015742Y016776D01*
X015929Y016963D01*
X015929Y016776D01*
X015742Y016776D02*
X015742Y016963D01*
X015789Y017010D01*
X015882Y017010D01*
X015929Y016963D01*
X016156Y016916D02*
X016250Y017010D01*
X014924Y012360D02*
X014737Y012360D01*
X014737Y012220D01*
X014831Y012266D01*
X014878Y012266D01*
X014924Y012220D01*
X014924Y012126D01*
X014878Y012080D01*
X014784Y012080D01*
X014737Y012126D01*
X014648Y012220D02*
X014461Y012220D01*
X014601Y012360D01*
X014601Y012080D01*
X014372Y012126D02*
X014372Y012313D01*
X014325Y012360D01*
X014185Y012360D01*
X014185Y012080D01*
X014325Y012080D01*
X014372Y012126D01*
X014325Y011310D02*
X014185Y011310D01*
X014185Y011030D01*
X014325Y011030D01*
X014372Y011076D01*
X014372Y011263D01*
X014325Y011310D01*
X014461Y011170D02*
X014648Y011170D01*
X014737Y011170D02*
X014878Y011170D01*
X014924Y011123D01*
X014924Y011076D01*
X014878Y011030D01*
X014784Y011030D01*
X014737Y011076D01*
X014737Y011170D01*
X014831Y011263D01*
X014924Y011310D01*
X014601Y011310D02*
X014461Y011170D01*
X014601Y011030D02*
X014601Y011310D01*
X014601Y010310D02*
X014461Y010170D01*
X014648Y010170D01*
X014737Y010076D02*
X014737Y010030D01*
X014737Y010076D02*
X014924Y010263D01*
X014924Y010310D01*
X014737Y010310D01*
X014601Y010310D02*
X014601Y010030D01*
X014372Y010076D02*
X014372Y010263D01*
X014325Y010310D01*
X014185Y010310D01*
X014185Y010030D01*
X014325Y010030D01*
X014372Y010076D01*
X014325Y009310D02*
X014185Y009310D01*
X014185Y009030D01*
X014325Y009030D01*
X014372Y009076D01*
X014372Y009263D01*
X014325Y009310D01*
X014461Y009170D02*
X014648Y009170D01*
X014737Y009216D02*
X014737Y009263D01*
X014784Y009310D01*
X014878Y009310D01*
X014924Y009263D01*
X014924Y009216D01*
X014878Y009170D01*
X014784Y009170D01*
X014737Y009216D01*
X014784Y009170D02*
X014737Y009123D01*
X014737Y009076D01*
X014784Y009030D01*
X014878Y009030D01*
X014924Y009076D01*
X014924Y009123D01*
X014878Y009170D01*
X014601Y009030D02*
X014601Y009310D01*
X014461Y009170D01*
X014551Y008410D02*
X014411Y008270D01*
X014598Y008270D01*
X014687Y008316D02*
X014734Y008270D01*
X014874Y008270D01*
X014874Y008363D02*
X014828Y008410D01*
X014734Y008410D01*
X014687Y008363D01*
X014687Y008316D01*
X014687Y008176D02*
X014734Y008130D01*
X014828Y008130D01*
X014874Y008176D01*
X014874Y008363D01*
X014551Y008410D02*
X014551Y008130D01*
X014322Y008176D02*
X014322Y008363D01*
X014275Y008410D01*
X014135Y008410D01*
X014135Y008130D01*
X014275Y008130D01*
X014322Y008176D01*
X014325Y007360D02*
X014185Y007360D01*
X014185Y007080D01*
X014325Y007080D01*
X014372Y007126D01*
X014372Y007313D01*
X014325Y007360D01*
X014461Y007360D02*
X014461Y007220D01*
X014555Y007266D01*
X014601Y007266D01*
X014648Y007220D01*
X014648Y007126D01*
X014601Y007080D01*
X014508Y007080D01*
X014461Y007126D01*
X014461Y007360D02*
X014648Y007360D01*
X014737Y007313D02*
X014784Y007360D01*
X014878Y007360D01*
X014924Y007313D01*
X014737Y007126D01*
X014784Y007080D01*
X014878Y007080D01*
X014924Y007126D01*
X014924Y007313D01*
X014737Y007313D02*
X014737Y007126D01*
X014648Y006410D02*
X014461Y006410D01*
X014461Y006270D01*
X014555Y006316D01*
X014601Y006316D01*
X014648Y006270D01*
X014648Y006176D01*
X014601Y006130D01*
X014508Y006130D01*
X014461Y006176D01*
X014372Y006176D02*
X014372Y006363D01*
X014325Y006410D01*
X014185Y006410D01*
X014185Y006130D01*
X014325Y006130D01*
X014372Y006176D01*
X014737Y006130D02*
X014924Y006130D01*
X014831Y006130D02*
X014831Y006410D01*
X014737Y006316D01*
X014728Y004710D02*
X014634Y004710D01*
X014587Y004663D01*
X014498Y004710D02*
X014311Y004710D01*
X014311Y004570D01*
X014405Y004616D01*
X014451Y004616D01*
X014498Y004570D01*
X014498Y004476D01*
X014451Y004430D01*
X014358Y004430D01*
X014311Y004476D01*
X014222Y004476D02*
X014222Y004663D01*
X014175Y004710D01*
X014035Y004710D01*
X014035Y004430D01*
X014175Y004430D01*
X014222Y004476D01*
X014587Y004430D02*
X014774Y004616D01*
X014774Y004663D01*
X014728Y004710D01*
X014774Y004430D02*
X014587Y004430D01*
X026686Y018520D02*
X026733Y018520D01*
X026779Y018613D02*
X026733Y018660D01*
X026639Y018660D01*
X026592Y018613D01*
X026682Y019580D02*
X026635Y019626D01*
X026822Y019813D01*
X026822Y019626D01*
X026775Y019580D01*
X026682Y019580D01*
X026635Y019626D02*
X026635Y019813D01*
X026682Y019860D01*
X026775Y019860D01*
X026822Y019813D01*
X026911Y019626D02*
X026958Y019626D01*
X026958Y019580D01*
X026911Y019580D01*
X026911Y019626D01*
X027049Y019580D02*
X027236Y019766D01*
X027236Y019813D01*
X027189Y019860D01*
X027096Y019860D01*
X027049Y019813D01*
X027049Y019580D02*
X027236Y019580D01*
X027326Y019580D02*
X027512Y019766D01*
X027512Y019813D01*
X027466Y019860D01*
X027372Y019860D01*
X027326Y019813D01*
X027326Y019580D02*
X027512Y019580D01*
X027602Y019626D02*
X027649Y019580D01*
X027789Y019580D01*
X027789Y019766D01*
X027878Y019720D02*
X027971Y019720D01*
X027878Y019860D02*
X028065Y019860D01*
X027878Y019860D02*
X027878Y019580D01*
X027602Y019626D02*
X027602Y019766D01*
X025989Y020210D02*
X025802Y020210D01*
X025802Y019930D01*
X025712Y019930D02*
X025712Y020116D01*
X025802Y020070D02*
X025895Y020070D01*
X025712Y019930D02*
X025572Y019930D01*
X025526Y019976D01*
X025526Y020116D01*
X025436Y020163D02*
X025249Y019976D01*
X025249Y019930D01*
X025158Y019930D02*
X025111Y019930D01*
X025111Y019976D01*
X025158Y019976D01*
X025158Y019930D01*
X024975Y019930D02*
X024975Y020210D01*
X024835Y020070D01*
X025022Y020070D01*
X025249Y020210D02*
X025436Y020210D01*
X025436Y020163D01*
D13*
X024925Y016720D03*
X037725Y003270D03*
D14*
X019925Y018720D03*
D15*
X014110Y017909D02*
X014110Y017674D01*
X013640Y017674D01*
X013640Y017909D01*
X013718Y017988D01*
X014032Y017988D01*
X014110Y017909D01*
X014110Y017527D02*
X013640Y017527D01*
X013640Y017214D02*
X014110Y017527D01*
X014110Y017214D02*
X013640Y017214D01*
X013718Y017067D02*
X013640Y016989D01*
X013640Y016832D01*
X013718Y016753D01*
X014032Y016753D01*
X014110Y016832D01*
X014110Y016989D01*
X014032Y017067D01*
X013875Y017067D01*
X013875Y016910D01*
X013110Y016832D02*
X013032Y016753D01*
X012718Y016753D01*
X012640Y016832D01*
X012640Y016989D01*
X012718Y017067D01*
X012640Y017214D02*
X013110Y017214D01*
X013110Y017527D01*
X013110Y017674D02*
X012640Y017674D01*
X012875Y017753D02*
X013110Y017988D01*
X012953Y017674D02*
X012640Y017988D01*
X012110Y017909D02*
X012032Y017988D01*
X011718Y017988D01*
X011640Y017909D01*
X011640Y017753D01*
X011718Y017674D01*
X012032Y017674D01*
X012110Y017753D01*
X012110Y017909D01*
X012110Y017524D02*
X012110Y017367D01*
X012110Y017446D02*
X011640Y017446D01*
X011640Y017524D02*
X011640Y017367D01*
X011718Y017220D02*
X011640Y017142D01*
X011640Y016907D01*
X012110Y016907D01*
X012110Y017142D01*
X012032Y017220D01*
X011718Y017220D01*
X011640Y016760D02*
X012110Y016760D01*
X011953Y016603D01*
X012110Y016446D01*
X011640Y016446D01*
X011718Y016300D02*
X011640Y016221D01*
X011640Y016064D01*
X011718Y015986D01*
X011796Y015986D01*
X011875Y016064D01*
X011875Y016221D01*
X011953Y016300D01*
X012032Y016300D01*
X012110Y016221D01*
X012110Y016064D01*
X012032Y015986D01*
X012640Y015911D02*
X012640Y016068D01*
X012718Y016146D01*
X012640Y016293D02*
X013110Y016293D01*
X012953Y016450D01*
X013110Y016607D01*
X012640Y016607D01*
X013110Y016832D02*
X013110Y016989D01*
X013032Y017067D01*
X013032Y016146D02*
X013110Y016068D01*
X013110Y015911D01*
X013032Y015833D01*
X012875Y015911D02*
X012875Y016068D01*
X012953Y016146D01*
X013032Y016146D01*
X012875Y015911D02*
X012796Y015833D01*
X012718Y015833D01*
X012640Y015911D01*
X011110Y015833D02*
X010640Y015833D01*
X010640Y016068D01*
X010718Y016146D01*
X010875Y016146D01*
X010953Y016068D01*
X010953Y015833D01*
X010953Y015989D02*
X011110Y016146D01*
X011110Y016293D02*
X011110Y016607D01*
X011032Y016753D02*
X011110Y016832D01*
X011110Y016989D01*
X011032Y017067D01*
X010953Y017067D01*
X010875Y016989D01*
X010875Y016832D01*
X010796Y016753D01*
X010718Y016753D01*
X010640Y016832D01*
X010640Y016989D01*
X010718Y017067D01*
X010640Y017214D02*
X011110Y017214D01*
X011110Y017527D01*
X010875Y017371D02*
X010875Y017214D01*
X010640Y017214D02*
X010640Y017527D01*
X010640Y017674D02*
X010640Y017988D01*
X010640Y017831D02*
X011110Y017831D01*
X010640Y016607D02*
X010640Y016293D01*
X011110Y016293D01*
X010875Y016293D02*
X010875Y016450D01*
X009532Y022135D02*
X009610Y022213D01*
X009610Y022370D01*
X009532Y022448D01*
X009453Y022448D01*
X009375Y022370D01*
X009375Y022213D01*
X009296Y022135D01*
X009218Y022135D01*
X009140Y022213D01*
X009140Y022370D01*
X009218Y022448D01*
X009140Y022595D02*
X009140Y022830D01*
X009218Y022909D01*
X009532Y022909D01*
X009610Y022830D01*
X009610Y022595D01*
X009140Y022595D01*
X009296Y023055D02*
X009140Y023212D01*
X009296Y023369D01*
X009610Y023369D01*
X009375Y023369D02*
X009375Y023055D01*
X009296Y023055D02*
X009610Y023055D01*
X008610Y023055D02*
X008610Y023369D01*
X008610Y023055D02*
X008140Y023055D01*
X008218Y022909D02*
X008140Y022830D01*
X008140Y022673D01*
X008218Y022595D01*
X008532Y022595D01*
X008610Y022673D01*
X008610Y022830D01*
X008532Y022909D01*
X008532Y022448D02*
X008610Y022370D01*
X008610Y022213D01*
X008532Y022135D01*
X008375Y022213D02*
X008375Y022370D01*
X008453Y022448D01*
X008532Y022448D01*
X008375Y022213D02*
X008296Y022135D01*
X008218Y022135D01*
X008140Y022213D01*
X008140Y022370D01*
X008218Y022448D01*
X023452Y013605D02*
X023609Y013448D01*
X023765Y013605D01*
X023765Y013135D01*
X023912Y013135D02*
X024069Y013135D01*
X023991Y013135D02*
X023991Y013605D01*
X024069Y013605D02*
X023912Y013605D01*
X024219Y013527D02*
X024219Y013448D01*
X024298Y013370D01*
X024454Y013370D01*
X024533Y013291D01*
X024533Y013213D01*
X024454Y013135D01*
X024298Y013135D01*
X024219Y013213D01*
X024219Y013527D02*
X024298Y013605D01*
X024454Y013605D01*
X024533Y013527D01*
X024680Y013527D02*
X024680Y013213D01*
X024758Y013135D01*
X024915Y013135D01*
X024993Y013213D01*
X024993Y013527D01*
X024915Y013605D01*
X024758Y013605D01*
X024680Y013527D01*
X023452Y013605D02*
X023452Y013135D01*
X023837Y012605D02*
X023759Y012527D01*
X023759Y012448D01*
X023837Y012370D01*
X023994Y012370D01*
X024072Y012291D01*
X024072Y012213D01*
X023994Y012135D01*
X023837Y012135D01*
X023759Y012213D01*
X024219Y012213D02*
X024298Y012135D01*
X024454Y012135D01*
X024533Y012213D01*
X024680Y012135D02*
X024680Y012605D01*
X024533Y012527D02*
X024454Y012605D01*
X024298Y012605D01*
X024219Y012527D01*
X024219Y012213D01*
X024680Y012291D02*
X024993Y012605D01*
X024758Y012370D02*
X024993Y012135D01*
X024993Y011605D02*
X024680Y011605D01*
X024533Y011605D02*
X024219Y011605D01*
X024219Y011135D01*
X024533Y011135D01*
X024376Y011370D02*
X024219Y011370D01*
X024072Y011291D02*
X024072Y011213D01*
X023994Y011135D01*
X023837Y011135D01*
X023759Y011213D01*
X023612Y011135D02*
X023298Y011135D01*
X023298Y011605D01*
X023612Y011605D01*
X023759Y011527D02*
X023759Y011448D01*
X023837Y011370D01*
X023994Y011370D01*
X024072Y011291D01*
X024072Y011527D02*
X023994Y011605D01*
X023837Y011605D01*
X023759Y011527D01*
X023455Y011370D02*
X023298Y011370D01*
X023152Y011370D02*
X023073Y011291D01*
X022838Y011291D01*
X022838Y011135D02*
X022838Y011605D01*
X023073Y011605D01*
X023152Y011527D01*
X023152Y011370D01*
X022995Y011291D02*
X023152Y011135D01*
X024836Y011135D02*
X024836Y011605D01*
X024072Y012527D02*
X023994Y012605D01*
X023837Y012605D01*
X027290Y014820D02*
X027537Y014820D01*
X027658Y014820D02*
X027905Y014820D01*
X028027Y014820D02*
X028274Y014820D01*
X028395Y014943D02*
X028395Y014696D01*
X028642Y014943D01*
X028642Y014696D01*
X028580Y014635D01*
X028457Y014635D01*
X028395Y014696D01*
X028212Y014635D02*
X028212Y015005D01*
X028027Y014820D01*
X028395Y014943D02*
X028457Y015005D01*
X028580Y015005D01*
X028642Y014943D01*
X027475Y015005D02*
X027290Y014820D01*
X027475Y014635D02*
X027475Y015005D01*
X027640Y013605D02*
X027640Y013370D01*
X027797Y013448D01*
X027875Y013448D01*
X027954Y013370D01*
X027954Y013213D01*
X027875Y013135D01*
X027718Y013135D01*
X027640Y013213D01*
X027640Y013605D02*
X027954Y013605D01*
X028100Y013605D02*
X028100Y013291D01*
X028257Y013135D01*
X028414Y013291D01*
X028414Y013605D01*
X028336Y012605D02*
X028414Y012527D01*
X028414Y012213D01*
X028336Y012135D01*
X028179Y012135D01*
X028100Y012213D01*
X028100Y012527D01*
X028179Y012605D01*
X028336Y012605D01*
X028561Y012527D02*
X028561Y012448D01*
X028639Y012370D01*
X028796Y012370D01*
X028874Y012291D01*
X028874Y012213D01*
X028796Y012135D01*
X028639Y012135D01*
X028561Y012213D01*
X029021Y012135D02*
X029178Y012135D01*
X029100Y012135D02*
X029100Y012605D01*
X029178Y012605D02*
X029021Y012605D01*
X028874Y012527D02*
X028796Y012605D01*
X028639Y012605D01*
X028561Y012527D01*
X027954Y012605D02*
X027954Y012135D01*
X027640Y012135D02*
X027640Y012605D01*
X027797Y012448D01*
X027954Y012605D01*
X027875Y011605D02*
X027718Y011605D01*
X027640Y011527D01*
X027640Y011213D01*
X027718Y011135D01*
X027875Y011135D01*
X027954Y011213D01*
X027954Y011370D01*
X027797Y011370D01*
X027954Y011527D02*
X027875Y011605D01*
X028100Y011605D02*
X028414Y011135D01*
X028414Y011605D01*
X028561Y011605D02*
X028796Y011605D01*
X028874Y011527D01*
X028874Y011213D01*
X028796Y011135D01*
X028561Y011135D01*
X028561Y011605D01*
X028100Y011605D02*
X028100Y011135D01*
X026580Y003955D02*
X026642Y003893D01*
X026395Y003646D01*
X026457Y003585D01*
X026580Y003585D01*
X026642Y003646D01*
X026642Y003893D01*
X026580Y003955D02*
X026457Y003955D01*
X026395Y003893D01*
X026395Y003646D01*
X026274Y003770D02*
X026027Y003770D01*
X026212Y003955D01*
X026212Y003585D01*
X025905Y003770D02*
X025658Y003770D01*
X025537Y003770D02*
X025290Y003770D01*
X025475Y003955D01*
X025475Y003585D01*
X013110Y001409D02*
X013032Y001488D01*
X012718Y001488D01*
X012640Y001409D01*
X012640Y001253D01*
X012718Y001174D01*
X013032Y001174D01*
X013110Y001253D01*
X013110Y001409D01*
X013110Y001024D02*
X013110Y000867D01*
X013110Y000946D02*
X012640Y000946D01*
X012640Y001024D02*
X012640Y000867D01*
X039490Y001230D02*
X039613Y001353D01*
X039860Y001353D01*
X039860Y001475D02*
X039490Y001475D01*
X039490Y001660D01*
X039551Y001722D01*
X039798Y001722D01*
X039860Y001660D01*
X039860Y001475D01*
X039675Y001353D02*
X039675Y001106D01*
X039613Y001106D02*
X039490Y001230D01*
X039613Y001106D02*
X039860Y001106D01*
X039860Y001843D02*
X039490Y002090D01*
X039490Y002211D02*
X039860Y002211D01*
X039860Y002458D01*
X039798Y002580D02*
X039860Y002641D01*
X039860Y002765D01*
X039798Y002827D01*
X039737Y002827D01*
X039675Y002765D01*
X039675Y002703D01*
X039675Y002765D02*
X039613Y002827D01*
X039551Y002827D01*
X039490Y002765D01*
X039490Y002641D01*
X039551Y002580D01*
X039675Y002948D02*
X039551Y003071D01*
X039490Y003195D01*
X039551Y003316D02*
X039490Y003378D01*
X039490Y003501D01*
X039551Y003563D01*
X039613Y003563D01*
X039860Y003316D01*
X039860Y003563D01*
X039798Y003195D02*
X039737Y003195D01*
X039675Y003133D01*
X039675Y002948D01*
X039798Y002948D01*
X039860Y003010D01*
X039860Y003133D01*
X039798Y003195D01*
X039860Y002090D02*
X039490Y001843D01*
D16*
X039205Y001879D02*
X039205Y001977D01*
X039205Y001879D02*
X038870Y001879D01*
X038280Y001879D02*
X037945Y001879D01*
X037945Y001977D01*
X037375Y002120D02*
X037125Y001870D01*
X036625Y001870D01*
X036375Y002120D01*
X036125Y001870D01*
X035625Y001870D01*
X035375Y002120D01*
X035125Y001870D01*
X034625Y001870D01*
X034375Y002120D01*
X034125Y001870D01*
X033625Y001870D01*
X033375Y002120D01*
X033125Y001870D01*
X032625Y001870D01*
X032375Y002120D01*
X032125Y001870D01*
X031625Y001870D01*
X031375Y002120D01*
X031125Y001870D01*
X030625Y001870D01*
X030375Y002120D01*
X030125Y001870D01*
X029625Y001870D01*
X029375Y002120D01*
X029375Y002620D01*
X029625Y002870D01*
X030125Y002870D01*
X030375Y002620D01*
X030625Y002870D01*
X031125Y002870D01*
X031375Y002620D01*
X031625Y002870D01*
X032125Y002870D01*
X032375Y002620D01*
X032625Y002870D01*
X033125Y002870D01*
X033375Y002620D01*
X033625Y002870D01*
X034125Y002870D01*
X034375Y002620D01*
X034625Y002870D01*
X035125Y002870D01*
X035375Y002620D01*
X035625Y002870D01*
X036125Y002870D01*
X036375Y002620D01*
X036625Y002870D01*
X037125Y002870D01*
X037375Y002620D01*
X037375Y002120D01*
X037847Y002962D02*
X037847Y003159D01*
X038024Y003159D01*
X037945Y003060D02*
X037945Y002962D01*
X037945Y003060D02*
X038280Y003060D01*
X038870Y003060D02*
X039205Y003060D01*
X039205Y002962D01*
X039125Y003870D02*
X037625Y003870D01*
X037375Y004120D01*
X037375Y004620D01*
X037625Y004870D01*
X037375Y005120D01*
X037375Y005620D01*
X037625Y005870D01*
X037375Y006120D01*
X037375Y006620D01*
X037625Y006870D01*
X037375Y007120D01*
X037375Y007620D01*
X037625Y007870D01*
X037375Y008120D01*
X037375Y008620D01*
X037625Y008870D01*
X037375Y009120D01*
X037375Y009620D01*
X037625Y009870D01*
X037375Y010120D01*
X037375Y010620D01*
X037625Y010870D01*
X037375Y011120D01*
X037375Y011620D01*
X037625Y011870D01*
X037375Y012120D01*
X037375Y012620D01*
X037625Y012870D01*
X037375Y013120D01*
X037375Y013620D01*
X037625Y013870D01*
X037375Y014120D01*
X037375Y014620D01*
X037625Y014870D01*
X037375Y015120D01*
X037375Y015620D01*
X037625Y015870D01*
X037375Y016120D01*
X037375Y016620D01*
X037625Y016870D01*
X037375Y017120D01*
X037375Y017620D01*
X037625Y017870D01*
X037375Y018120D01*
X037375Y018620D01*
X037625Y018870D01*
X037375Y019120D01*
X037375Y019620D01*
X037625Y019870D01*
X037375Y020120D01*
X037375Y020620D01*
X037625Y020870D01*
X037375Y021120D01*
X037375Y021620D01*
X037625Y021870D01*
X039125Y021870D01*
X039375Y021620D01*
X039375Y021120D01*
X039125Y020870D01*
X039375Y020620D01*
X039375Y020120D01*
X039125Y019870D01*
X039375Y019620D01*
X039375Y019120D01*
X039125Y018870D01*
X039375Y018620D01*
X039375Y018120D01*
X039125Y017870D01*
X039375Y017620D01*
X039375Y017120D01*
X039125Y016870D01*
X039375Y016620D01*
X039375Y016120D01*
X039125Y015870D01*
X039375Y015620D01*
X039375Y015120D01*
X039125Y014870D01*
X039375Y014620D01*
X039375Y014120D01*
X039125Y013870D01*
X039375Y013620D01*
X039375Y013120D01*
X039125Y012870D01*
X039375Y012620D01*
X039375Y012120D01*
X039125Y011870D01*
X039375Y011620D01*
X039375Y011120D01*
X039125Y010870D01*
X039375Y010620D01*
X039375Y010120D01*
X039125Y009870D01*
X039375Y009620D01*
X039375Y009120D01*
X039125Y008870D01*
X039375Y008620D01*
X039375Y008120D01*
X039125Y007870D01*
X039375Y007620D01*
X039375Y007120D01*
X039125Y006870D01*
X039375Y006620D01*
X039375Y006120D01*
X039125Y005870D01*
X039375Y005620D01*
X039375Y005120D01*
X039125Y004870D01*
X039375Y004620D01*
X039375Y004120D01*
X039125Y003870D01*
X028375Y002620D02*
X028375Y002120D01*
X028125Y001870D01*
X027625Y001870D01*
X027375Y002120D01*
X027125Y001870D01*
X026625Y001870D01*
X026375Y002120D01*
X026125Y001870D01*
X025625Y001870D01*
X025375Y002120D01*
X025125Y001870D01*
X024625Y001870D01*
X024375Y002120D01*
X024125Y001870D01*
X023625Y001870D01*
X023375Y002120D01*
X023125Y001870D01*
X022625Y001870D01*
X022375Y002120D01*
X022125Y001870D01*
X021625Y001870D01*
X021375Y002120D01*
X021125Y001870D01*
X020625Y001870D01*
X020375Y002120D01*
X020375Y002620D01*
X020625Y002870D01*
X021125Y002870D01*
X021375Y002620D01*
X021625Y002870D01*
X022125Y002870D01*
X022375Y002620D01*
X022625Y002870D01*
X023125Y002870D01*
X023375Y002620D01*
X023625Y002870D01*
X024125Y002870D01*
X024375Y002620D01*
X024625Y002870D01*
X025125Y002870D01*
X025375Y002620D01*
X025625Y002870D01*
X026125Y002870D01*
X026375Y002620D01*
X026625Y002870D01*
X027125Y002870D01*
X027375Y002620D01*
X027625Y002870D01*
X028125Y002870D01*
X028375Y002620D01*
X019375Y002620D02*
X019375Y002120D01*
X019125Y001870D01*
X018625Y001870D01*
X018375Y002120D01*
X018125Y001870D01*
X017625Y001870D01*
X017375Y002120D01*
X017125Y001870D01*
X016625Y001870D01*
X016375Y002120D01*
X016125Y001870D01*
X015625Y001870D01*
X015375Y002120D01*
X015125Y001870D01*
X014625Y001870D01*
X014375Y002120D01*
X014125Y001870D01*
X013625Y001870D01*
X013375Y002120D01*
X013125Y001870D01*
X012625Y001870D01*
X012375Y002120D01*
X012125Y001870D01*
X011625Y001870D01*
X011375Y002120D01*
X011375Y002620D01*
X011625Y002870D01*
X012125Y002870D01*
X012375Y002620D01*
X012625Y002870D01*
X013125Y002870D01*
X013375Y002620D01*
X013625Y002870D01*
X014125Y002870D01*
X014375Y002620D01*
X014625Y002870D01*
X015125Y002870D01*
X015375Y002620D01*
X015625Y002870D01*
X016125Y002870D01*
X016375Y002620D01*
X016625Y002870D01*
X017125Y002870D01*
X017375Y002620D01*
X017625Y002870D01*
X018125Y002870D01*
X018375Y002620D01*
X018625Y002870D01*
X019125Y002870D01*
X019375Y002620D01*
X008425Y003470D02*
X002125Y003470D01*
X002375Y003470D02*
X002375Y015870D01*
X002125Y015870D02*
X008425Y015870D01*
X008425Y003470D01*
X025375Y011120D02*
X025625Y010870D01*
X027125Y010870D01*
X027375Y011120D01*
X027375Y011620D01*
X027125Y011870D01*
X027375Y012120D01*
X027375Y012620D01*
X027125Y012870D01*
X027375Y013120D01*
X027375Y013620D01*
X027125Y013870D01*
X025375Y013870D01*
X025375Y013120D01*
X025625Y012870D01*
X025375Y012620D01*
X025375Y012120D01*
X025625Y011870D01*
X025375Y011620D01*
X025375Y011120D01*
X029276Y013263D02*
X029276Y019483D01*
X035300Y019483D01*
X035300Y013263D01*
X029276Y013263D01*
X031127Y013263D02*
X031127Y013892D01*
X031126Y013892D02*
X031128Y013931D01*
X031134Y013969D01*
X031143Y014006D01*
X031156Y014043D01*
X031173Y014078D01*
X031192Y014111D01*
X031215Y014142D01*
X031241Y014171D01*
X031270Y014197D01*
X031301Y014220D01*
X031334Y014239D01*
X031369Y014256D01*
X031406Y014269D01*
X031443Y014278D01*
X031481Y014284D01*
X031520Y014286D01*
X034197Y014286D01*
X034236Y014284D01*
X034274Y014278D01*
X034311Y014269D01*
X034348Y014256D01*
X034383Y014239D01*
X034416Y014220D01*
X034447Y014197D01*
X034476Y014171D01*
X034502Y014142D01*
X034525Y014111D01*
X034544Y014078D01*
X034561Y014043D01*
X034574Y014006D01*
X034583Y013969D01*
X034589Y013931D01*
X034591Y013892D01*
X034591Y013263D01*
X034625Y020870D02*
X034375Y021120D01*
X034125Y020870D01*
X033625Y020870D01*
X033375Y021120D01*
X033125Y020870D01*
X032625Y020870D01*
X032375Y021120D01*
X032125Y020870D01*
X031625Y020870D01*
X031375Y021120D01*
X031125Y020870D01*
X030625Y020870D01*
X030375Y021120D01*
X030125Y020870D01*
X029625Y020870D01*
X029375Y021120D01*
X029125Y020870D01*
X028625Y020870D01*
X028375Y021120D01*
X028125Y020870D01*
X027625Y020870D01*
X027375Y021120D01*
X027375Y021620D01*
X027625Y021870D01*
X028125Y021870D01*
X028375Y021620D01*
X028625Y021870D01*
X029125Y021870D01*
X029375Y021620D01*
X029625Y021870D01*
X030125Y021870D01*
X030375Y021620D01*
X030625Y021870D01*
X031125Y021870D01*
X031375Y021620D01*
X031625Y021870D01*
X032125Y021870D01*
X032375Y021620D01*
X032625Y021870D01*
X033125Y021870D01*
X033375Y021620D01*
X033625Y021870D01*
X034125Y021870D01*
X034375Y021620D01*
X034625Y021870D01*
X035125Y021870D01*
X035375Y021620D01*
X035375Y021120D01*
X035125Y020870D01*
X034625Y020870D01*
X026375Y021120D02*
X026125Y020870D01*
X025625Y020870D01*
X025375Y021120D01*
X025125Y020870D01*
X024625Y020870D01*
X024375Y021120D01*
X024125Y020870D01*
X023625Y020870D01*
X023375Y021120D01*
X023125Y020870D01*
X022625Y020870D01*
X022375Y021120D01*
X022125Y020870D01*
X021625Y020870D01*
X021375Y021120D01*
X021125Y020870D01*
X020625Y020870D01*
X020375Y021120D01*
X020125Y020870D01*
X019625Y020870D01*
X019375Y021120D01*
X019125Y020870D01*
X018625Y020870D01*
X018375Y021120D01*
X018375Y021620D01*
X018625Y021870D01*
X019125Y021870D01*
X019375Y021620D01*
X019625Y021870D01*
X020125Y021870D01*
X020375Y021620D01*
X020625Y021870D01*
X021125Y021870D01*
X021375Y021620D01*
X021625Y021870D01*
X022125Y021870D01*
X022375Y021620D01*
X022625Y021870D01*
X023125Y021870D01*
X023375Y021620D01*
X023625Y021870D01*
X024125Y021870D01*
X024375Y021620D01*
X024625Y021870D01*
X025125Y021870D01*
X025375Y021620D01*
X025625Y021870D01*
X026125Y021870D01*
X026375Y021620D01*
X026375Y021120D01*
X017875Y021120D02*
X017625Y020870D01*
X017125Y020870D01*
X016875Y021120D01*
X016625Y020870D01*
X016125Y020870D01*
X015875Y021120D01*
X015625Y020870D01*
X015125Y020870D01*
X014875Y021120D01*
X014625Y020870D01*
X014125Y020870D01*
X013875Y021120D01*
X013625Y020870D01*
X013125Y020870D01*
X012875Y021120D01*
X012625Y020870D01*
X012125Y020870D01*
X011875Y021120D01*
X011625Y020870D01*
X011125Y020870D01*
X010875Y021120D01*
X010625Y020870D01*
X010125Y020870D01*
X009875Y021120D01*
X009625Y020870D01*
X009125Y020870D01*
X008875Y021120D01*
X008625Y020870D01*
X008125Y020870D01*
X007875Y021120D01*
X007875Y021620D01*
X008125Y021870D01*
X008625Y021870D01*
X008875Y021620D01*
X009125Y021870D01*
X009625Y021870D01*
X009875Y021620D01*
X010125Y021870D01*
X010625Y021870D01*
X010875Y021620D01*
X011125Y021870D01*
X011625Y021870D01*
X011875Y021620D01*
X012125Y021870D01*
X012625Y021870D01*
X012875Y021620D01*
X013125Y021870D01*
X013625Y021870D01*
X013875Y021620D01*
X014125Y021870D01*
X014625Y021870D01*
X014875Y021620D01*
X015125Y021870D01*
X015625Y021870D01*
X015875Y021620D01*
X016125Y021870D01*
X016625Y021870D01*
X016875Y021620D01*
X017125Y021870D01*
X017625Y021870D01*
X017875Y021620D01*
X017875Y021120D01*
X014375Y019120D02*
X014125Y019370D01*
X013625Y019370D01*
X013375Y019120D01*
X013125Y019370D01*
X012625Y019370D01*
X012375Y019120D01*
X012125Y019370D01*
X011625Y019370D01*
X011375Y019120D01*
X011125Y019370D01*
X010625Y019370D01*
X010375Y019120D01*
X010375Y018620D01*
X010625Y018370D01*
X011125Y018370D01*
X011375Y018620D01*
X011625Y018370D01*
X012125Y018370D01*
X012375Y018620D01*
X012625Y018370D01*
X013125Y018370D01*
X013375Y018620D01*
X013625Y018370D01*
X014125Y018370D01*
X014375Y018620D01*
X014375Y019120D01*
D17*
X013875Y018870D03*
X012875Y018870D03*
X011875Y018870D03*
X010875Y018870D03*
X010375Y021370D03*
X011375Y021370D03*
X012375Y021370D03*
X013375Y021370D03*
X014375Y021370D03*
X015375Y021370D03*
X016375Y021370D03*
X017375Y021370D03*
X018875Y021370D03*
X019875Y021370D03*
X020875Y021370D03*
X021875Y021370D03*
X022875Y021370D03*
X023875Y021370D03*
X024875Y021370D03*
X025875Y021370D03*
X027875Y021370D03*
X028875Y021370D03*
X029875Y021370D03*
X029875Y021370D03*
X030875Y021370D03*
X031875Y021370D03*
X032875Y021370D03*
X033875Y021370D03*
X034875Y021370D03*
X037875Y021370D03*
X038875Y021370D03*
X038875Y020370D03*
X037875Y020370D03*
X037875Y019370D03*
X038875Y019370D03*
X038875Y018370D03*
X037875Y018370D03*
X037875Y017370D03*
X038875Y017370D03*
X038875Y016370D03*
X037875Y016370D03*
X037875Y015370D03*
X038875Y015370D03*
X038875Y014370D03*
X037875Y014370D03*
X037875Y013370D03*
X038875Y013370D03*
X038875Y012370D03*
X037875Y012370D03*
X037875Y011370D03*
X038875Y011370D03*
X038875Y010370D03*
X037875Y010370D03*
X037875Y009370D03*
X038875Y009370D03*
X038875Y008370D03*
X037875Y008370D03*
X037875Y007370D03*
X038875Y007370D03*
X038875Y006370D03*
X037875Y006370D03*
X037875Y005370D03*
X038875Y005370D03*
X038875Y004370D03*
X037875Y004370D03*
X036875Y002370D03*
X035875Y002370D03*
X034875Y002370D03*
X033875Y002370D03*
X032875Y002370D03*
X031875Y002370D03*
X030875Y002370D03*
X029875Y002370D03*
X027875Y002370D03*
X026875Y002370D03*
X025875Y002370D03*
X024875Y002370D03*
X023875Y002370D03*
X022875Y002370D03*
X021875Y002370D03*
X020875Y002370D03*
X018875Y002370D03*
X017875Y002370D03*
X016875Y002370D03*
X015875Y002370D03*
X014875Y002370D03*
X013875Y002370D03*
X012875Y002370D03*
X011875Y002370D03*
X025875Y011370D03*
X026875Y011370D03*
X026875Y012370D03*
X025875Y012370D03*
X025875Y013370D03*
X026875Y013370D03*
X009375Y021370D03*
X008375Y021370D03*
D18*
X007525Y022370D02*
X002125Y022370D01*
X002125Y016220D01*
X007525Y016220D01*
X007525Y022370D01*
X018238Y018607D02*
X018375Y018607D01*
X018238Y018607D02*
X018238Y018469D01*
X019675Y018607D02*
X019812Y018469D01*
X019812Y017170D02*
X019812Y017032D01*
X019675Y017032D01*
X018375Y017032D02*
X018238Y017032D01*
X018238Y017170D01*
X024981Y016916D02*
X025129Y016776D01*
X026058Y016750D02*
X026294Y016750D01*
X026294Y016987D01*
X026294Y017853D02*
X026294Y018089D01*
X026058Y018089D01*
X025192Y018089D02*
X024956Y018089D01*
X024956Y017853D01*
X014375Y005470D02*
X014375Y004970D01*
M02*
