  0
SECTION
  2
HEADER
  9
$ACADVER
  1
AC1009
  9
$FILLMODE
 70
0
  9
$EXTMIN
 10
-0.177500
 20
0.000000
 30
0.000000
  9
$EXTMAX
 10
3.937008
 20
2.583249
 30
0.000000
  0
ENDSEC
  0
SECTION
  2
TABLES
  0
TABLE
  2
LTYPE
 70
1
  0
LTYPE
  2
CONTINUOUS
 70
64
  3
Solid line
 72
65
 73
0
 40
0
  0
ENDTAB
  0
TABLE
  2
LAYER
 70
255
  0
LAYER
  2
31
 70
64
 62
253
  6
CONTINUOUS
  0
ENDTAB
  0
ENDSEC
  0
SECTION
  2
BLOCKS
  0
BLOCK
  8
0
  2
RECT
 70
64
 10
0.000000
 20
0.000000
 30
0.000000
  3
RECT
  0
SOLID
  8
0
 10
-0.500000
 20
-0.500000
 30
0.000000
 11
0.500000
 21
-0.500000
 31
0.000000
 12
-0.500000
 22
0.500000
 32
0.000000
 13
0.500000
 23
0.500000
 33
0.000000
  0
ENDBLK
  8
0
  0
BLOCK
  8
0
  2
PIE
 70
64
 10
0.000000
 20
0.000000
 30
0.000000
  3
PIE
  0
CIRCLE
  8
0
 10
0.000000
 20
0.000000
 30
0.000000
 40
0.500000
  0
ENDBLK
  8
0
  0
BLOCK
  8
0
  2
OCTAGONP
 70
64
 10
0.000000
 20
0.000000
 30
0.000000
  3
OCTAGONP
  0
POLYLINE
  8
0
 66
1
 10
0.000000
 20
0.000000
 30
0.000000
 40
0.000000
 41
0.000000
 70
1
  0
VERTEX
  8
0
 10
-0.500000
 20
-0.207107
 30
0.000000
  0
VERTEX
  8
0
 10
-0.500000
 20
0.207107
 30
0.000000
  0
VERTEX
  8
0
 10
-0.207107
 20
0.500000
 30
0.000000
  0
VERTEX
  8
0
 10
0.207107
 20
0.500000
 30
0.000000
  0
VERTEX
  8
0
 10
0.500000
 20
0.207107
 30
0.000000
  0
VERTEX
  8
0
 10
0.500000
 20
-0.207107
 30
0.000000
  0
VERTEX
  8
0
 10
0.207107
 20
-0.500000
 30
0.000000
  0
VERTEX
  8
0
 10
-0.207107
 20
-0.500000
 30
0.000000
  0
SEQEND
  8
0
  0
ENDBLK
  8
0
  0
BLOCK
  8
0
  2
SQUAREP
 70
64
 10
0.000000
 20
0.000000
 30
0.000000
  3
SQUAREP
  0
SOLID
  8
0
 10
-0.500000
 20
-0.500000
 30
0.000000
 11
0.500000
 21
-0.500000
 31
0.000000
 12
-0.500000
 22
0.500000
 32
0.000000
 13
0.500000
 23
0.500000
 33
0.000000
  0
ENDBLK
  8
0
  0
BLOCK
  8
0
  2
ROUNDP
 70
64
 10
0.000000
 20
0.000000
 30
0.000000
  3
ROUNDP
  0
CIRCLE
  8
0
 10
0.000000
 20
0.000000
 30
0.000000
 40
0.500000
  0
ENDBLK
  8
0
  0
BLOCK
  8
0
  2
ANNULUSP
 70
64
 10
0.000000
 20
0.000000
 30
0.000000
  3
ANNULUSP
  0
CIRCLE
  8
0
 10
0.000000
 20
0.000000
 30
0.000000
 40
0.500000
  0
ENDBLK
  8
0
  0
BLOCK
  8
0
  2
THERMALP
 70
64
 10
0.000000
 20
0.000000
 30
0.000000
  3
THERMALP
  0
POLYLINE
  8
0
 66
1
 10
0.000000
 20
0.000000
 30
0.000000
 40
0.000000
 41
0.000000
 70
1
  0
VERTEX
  8
0
 10
-0.237868
 20
0.400000
 30
0.000000
  0
VERTEX
  8
0
 10
0.237868
 20
0.400000
 30
0.000000
 42
1.000000
  0
VERTEX
  8
0
 10
0.237868
 20
0.500000
 30
0.000000
  0
VERTEX
  8
0
 10
-0.237868
 20
0.500000
 30
0.000000
 42
1.000000
  0
SEQEND
  8
0
  0
POLYLINE
  8
0
 66
1
 10
0.000000
 20
0.000000
 30
0.000000
 40
0.000000
 41
0.000000
 70
1
  0
VERTEX
  8
0
 10
0.400000
 20
0.237868
 30
0.000000
  0
VERTEX
  8
0
 10
0.400000
 20
-0.237868
 30
0.000000
 42
1.000000
  0
VERTEX
  8
0
 10
0.500000
 20
-0.237868
 30
0.000000
  0
VERTEX
  8
0
 10
0.500000
 20
0.237868
 30
0.000000
 42
1.000000
  0
SEQEND
  8
0
  0
POLYLINE
  8
0
 66
1
 10
0.000000
 20
0.000000
 30
0.000000
 40
0.000000
 41
0.000000
 70
1
  0
VERTEX
  8
0
 10
0.237868
 20
-0.400000
 30
0.000000
  0
VERTEX
  8
0
 10
-0.237868
 20
-0.400000
 30
0.000000
 42
1.000000
  0
VERTEX
  8
0
 10
-0.237868
 20
-0.500000
 30
0.000000
  0
VERTEX
  8
0
 10
0.237868
 20
-0.500000
 30
0.000000
 42
1.000000
  0
SEQEND
  8
0
  0
POLYLINE
  8
0
 66
1
 10
0.000000
 20
0.000000
 30
0.000000
 40
0.000000
 41
0.000000
 70
1
  0
VERTEX
  8
0
 10
-0.400000
 20
-0.237868
 30
0.000000
  0
VERTEX
  8
0
 10
-0.400000
 20
0.237868
 30
0.000000
 42
1.000000
  0
VERTEX
  8
0
 10
-0.500000
 20
0.237868
 30
0.000000
  0
VERTEX
  8
0
 10
-0.500000
 20
-0.237868
 30
0.000000
 42
1.000000
  0
SEQEND
  8
0
  0
ENDBLK
  8
0
  0
BLOCK
  8
0
  2
OCTAGONV
 70
64
 10
0.000000
 20
0.000000
 30
0.000000
  3
OCTAGONV
  0
POLYLINE
  8
0
 66
1
 10
0.000000
 20
0.000000
 30
0.000000
 40
0.000000
 41
0.000000
 70
1
  0
VERTEX
  8
0
 10
-0.500000
 20
-0.207107
 30
0.000000
  0
VERTEX
  8
0
 10
-0.500000
 20
0.207107
 30
0.000000
  0
VERTEX
  8
0
 10
-0.207107
 20
0.500000
 30
0.000000
  0
VERTEX
  8
0
 10
0.207107
 20
0.500000
 30
0.000000
  0
VERTEX
  8
0
 10
0.500000
 20
0.207107
 30
0.000000
  0
VERTEX
  8
0
 10
0.500000
 20
-0.207107
 30
0.000000
  0
VERTEX
  8
0
 10
0.207107
 20
-0.500000
 30
0.000000
  0
VERTEX
  8
0
 10
-0.207107
 20
-0.500000
 30
0.000000
  0
SEQEND
  8
0
  0
ENDBLK
  8
0
  0
BLOCK
  8
0
  2
SQUAREV
 70
64
 10
0.000000
 20
0.000000
 30
0.000000
  3
SQUAREV
  0
SOLID
  8
0
 10
-0.500000
 20
-0.500000
 30
0.000000
 11
0.500000
 21
-0.500000
 31
0.000000
 12
-0.500000
 22
0.500000
 32
0.000000
 13
0.500000
 23
0.500000
 33
0.000000
  0
ENDBLK
  8
0
  0
BLOCK
  8
0
  2
ROUNDV
 70
64
 10
0.000000
 20
0.000000
 30
0.000000
  3
ROUNDV
  0
CIRCLE
  8
0
 10
0.000000
 20
0.000000
 30
0.000000
 40
0.500000
  0
ENDBLK
  8
0
  0
BLOCK
  8
0
  2
ANNULUSV
 70
64
 10
0.000000
 20
0.000000
 30
0.000000
  3
ANNULUSV
  0
CIRCLE
  8
0
 10
0.000000
 20
0.000000
 30
0.000000
 40
0.500000
  0
ENDBLK
  8
0
  0
BLOCK
  8
0
  2
THERMALV
 70
64
 10
0.000000
 20
0.000000
 30
0.000000
  3
THERMALV
  0
POLYLINE
  8
0
 66
1
 10
0.000000
 20
0.000000
 30
0.000000
 40
0.000000
 41
0.000000
 70
1
  0
VERTEX
  8
0
 10
-0.237868
 20
0.400000
 30
0.000000
  0
VERTEX
  8
0
 10
0.237868
 20
0.400000
 30
0.000000
 42
1.000000
  0
VERTEX
  8
0
 10
0.237868
 20
0.500000
 30
0.000000
  0
VERTEX
  8
0
 10
-0.237868
 20
0.500000
 30
0.000000
 42
1.000000
  0
SEQEND
  8
0
  0
POLYLINE
  8
0
 66
1
 10
0.000000
 20
0.000000
 30
0.000000
 40
0.000000
 41
0.000000
 70
1
  0
VERTEX
  8
0
 10
0.400000
 20
0.237868
 30
0.000000
  0
VERTEX
  8
0
 10
0.400000
 20
-0.237868
 30
0.000000
 42
1.000000
  0
VERTEX
  8
0
 10
0.500000
 20
-0.237868
 30
0.000000
  0
VERTEX
  8
0
 10
0.500000
 20
0.237868
 30
0.000000
 42
1.000000
  0
SEQEND
  8
0
  0
POLYLINE
  8
0
 66
1
 10
0.000000
 20
0.000000
 30
0.000000
 40
0.000000
 41
0.000000
 70
1
  0
VERTEX
  8
0
 10
0.237868
 20
-0.400000
 30
0.000000
  0
VERTEX
  8
0
 10
-0.237868
 20
-0.400000
 30
0.000000
 42
1.000000
  0
VERTEX
  8
0
 10
-0.237868
 20
-0.500000
 30
0.000000
  0
VERTEX
  8
0
 10
0.237868
 20
-0.500000
 30
0.000000
 42
1.000000
  0
SEQEND
  8
0
  0
POLYLINE
  8
0
 66
1
 10
0.000000
 20
0.000000
 30
0.000000
 40
0.000000
 41
0.000000
 70
1
  0
VERTEX
  8
0
 10
-0.400000
 20
-0.237868
 30
0.000000
  0
VERTEX
  8
0
 10
-0.400000
 20
0.237868
 30
0.000000
 42
1.000000
  0
VERTEX
  8
0
 10
-0.500000
 20
0.237868
 30
0.000000
  0
VERTEX
  8
0
 10
-0.500000
 20
-0.237868
 30
0.000000
 42
1.000000
  0
SEQEND
  8
0
  0
ENDBLK
  8
0
  0
BLOCK
  8
0
  2
LONGP100
 70
64
 10
0.000000
 20
0.000000
 30
0.000000
  3
LONGP100
  0
POLYLINE
  8
0
 66
1
 10
0.000000
 20
0.000000
 30
0.000000
 40
0.000000
 41
0.000000
 70
1
  0
VERTEX
  8
0
 10
-0.500000
 20
-0.500000
 30
0.000000
  0
VERTEX
  8
0
 10
0.500000
 20
-0.500000
 30
0.000000
 42
1.000000
  0
VERTEX
  8
0
 10
0.500000
 20
0.500000
 30
0.000000
  0
VERTEX
  8
0
 10
-0.500000
 20
0.500000
 30
0.000000
 42
1.000000
  0
SEQEND
  8
0
  0
ENDBLK
  8
0
  0
BLOCK
  8
0
  2
RECT128000X256000R50
 70
64
 10
0.000000
 20
0.000000
 30
0.000000
  3
RECT128000X256000R50
  0
POLYLINE
  8
0
 66
1
 10
0.000000
 20
0.000000
 30
0.000000
 40
0.000000
 41
0.000000
 70
1
  0
VERTEX
  8
0
 10
0.015748
 20
-0.023622
 30
0.000000
  0
VERTEX
  8
0
 10
0.015748
 20
0.023622
 30
0.000000
 42
0.414214
  0
VERTEX
  8
0
 10
0.007874
 20
0.031496
 30
0.000000
  0
VERTEX
  8
0
 10
-0.007874
 20
0.031496
 30
0.000000
 42
0.414214
  0
VERTEX
  8
0
 10
-0.015748
 20
0.023622
 30
0.000000
  0
VERTEX
  8
0
 10
-0.015748
 20
-0.023622
 30
0.000000
 42
0.414214
  0
VERTEX
  8
0
 10
-0.007874
 20
-0.031496
 30
0.000000
  0
VERTEX
  8
0
 10
0.007874
 20
-0.031496
 30
0.000000
 42
0.414214
  0
SEQEND
  8
0
  0
ENDBLK
  8
0
  0
BLOCK
  8
0
  2
RECT248000X448000R50
 70
64
 10
0.000000
 20
0.000000
 30
0.000000
  3
RECT248000X448000R50
  0
POLYLINE
  8
0
 66
1
 10
0.000000
 20
0.000000
 30
0.000000
 40
0.000000
 41
0.000000
 70
1
  0
VERTEX
  8
0
 10
0.030512
 20
-0.039862
 30
0.000000
  0
VERTEX
  8
0
 10
0.030512
 20
0.039862
 30
0.000000
 42
0.414214
  0
VERTEX
  8
0
 10
0.015256
 20
0.055118
 30
0.000000
  0
VERTEX
  8
0
 10
-0.015256
 20
0.055118
 30
0.000000
 42
0.414214
  0
VERTEX
  8
0
 10
-0.030512
 20
0.039862
 30
0.000000
  0
VERTEX
  8
0
 10
-0.030512
 20
-0.039862
 30
0.000000
 42
0.414214
  0
VERTEX
  8
0
 10
-0.015256
 20
-0.055118
 30
0.000000
  0
VERTEX
  8
0
 10
0.015256
 20
-0.055118
 30
0.000000
 42
0.414214
  0
SEQEND
  8
0
  0
ENDBLK
  8
0
  0
BLOCK
  8
0
  2
RECT248000X336000R50
 70
64
 10
0.000000
 20
0.000000
 30
0.000000
  3
RECT248000X336000R50
  0
POLYLINE
  8
0
 66
1
 10
0.000000
 20
0.000000
 30
0.000000
 40
0.000000
 41
0.000000
 70
1
  0
VERTEX
  8
0
 10
0.030512
 20
-0.026083
 30
0.000000
  0
VERTEX
  8
0
 10
0.030512
 20
0.026083
 30
0.000000
 42
0.414214
  0
VERTEX
  8
0
 10
0.015256
 20
0.041339
 30
0.000000
  0
VERTEX
  8
0
 10
-0.015256
 20
0.041339
 30
0.000000
 42
0.414214
  0
VERTEX
  8
0
 10
-0.030512
 20
0.026083
 30
0.000000
  0
VERTEX
  8
0
 10
-0.030512
 20
-0.026083
 30
0.000000
 42
0.414214
  0
VERTEX
  8
0
 10
-0.015256
 20
-0.041339
 30
0.000000
  0
VERTEX
  8
0
 10
0.015256
 20
-0.041339
 30
0.000000
 42
0.414214
  0
SEQEND
  8
0
  0
ENDBLK
  8
0
  0
BLOCK
  8
0
  2
RECT224000X304000R50
 70
64
 10
0.000000
 20
0.000000
 30
0.000000
  3
RECT224000X304000R50
  0
POLYLINE
  8
0
 66
1
 10
0.000000
 20
0.000000
 30
0.000000
 40
0.000000
 41
0.000000
 70
1
  0
VERTEX
  8
0
 10
0.027559
 20
-0.023622
 30
0.000000
  0
VERTEX
  8
0
 10
0.027559
 20
0.023622
 30
0.000000
 42
0.414214
  0
VERTEX
  8
0
 10
0.013780
 20
0.037402
 30
0.000000
  0
VERTEX
  8
0
 10
-0.013780
 20
0.037402
 30
0.000000
 42
0.414214
  0
VERTEX
  8
0
 10
-0.027559
 20
0.023622
 30
0.000000
  0
VERTEX
  8
0
 10
-0.027559
 20
-0.023622
 30
0.000000
 42
0.414214
  0
VERTEX
  8
0
 10
-0.013780
 20
-0.037402
 30
0.000000
  0
VERTEX
  8
0
 10
0.013780
 20
-0.037402
 30
0.000000
 42
0.414214
  0
SEQEND
  8
0
  0
ENDBLK
  8
0
  0
BLOCK
  8
0
  2
RECT224000X480000R50
 70
64
 10
0.000000
 20
0.000000
 30
0.000000
  3
RECT224000X480000R50
  0
POLYLINE
  8
0
 66
1
 10
0.000000
 20
0.000000
 30
0.000000
 40
0.000000
 41
0.000000
 70
1
  0
VERTEX
  8
0
 10
0.027559
 20
-0.045276
 30
0.000000
  0
VERTEX
  8
0
 10
0.027559
 20
0.045276
 30
0.000000
 42
0.414214
  0
VERTEX
  8
0
 10
0.013780
 20
0.059055
 30
0.000000
  0
VERTEX
  8
0
 10
-0.013780
 20
0.059055
 30
0.000000
 42
0.414214
  0
VERTEX
  8
0
 10
-0.027559
 20
0.045276
 30
0.000000
  0
VERTEX
  8
0
 10
-0.027559
 20
-0.045276
 30
0.000000
 42
0.414214
  0
VERTEX
  8
0
 10
-0.013780
 20
-0.059055
 30
0.000000
  0
VERTEX
  8
0
 10
0.013780
 20
-0.059055
 30
0.000000
 42
0.414214
  0
SEQEND
  8
0
  0
ENDBLK
  8
0
  0
BLOCK
  8
0
  2
RECT256000X248000R50
 70
64
 10
0.000000
 20
0.000000
 30
0.000000
  3
RECT256000X248000R50
  0
POLYLINE
  8
0
 66
1
 10
0.000000
 20
0.000000
 30
0.000000
 40
0.000000
 41
0.000000
 70
1
  0
VERTEX
  8
0
 10
0.031496
 20
-0.015256
 30
0.000000
  0
VERTEX
  8
0
 10
0.031496
 20
0.015256
 30
0.000000
 42
0.414214
  0
VERTEX
  8
0
 10
0.016240
 20
0.030512
 30
0.000000
  0
VERTEX
  8
0
 10
-0.016240
 20
0.030512
 30
0.000000
 42
0.414214
  0
VERTEX
  8
0
 10
-0.031496
 20
0.015256
 30
0.000000
  0
VERTEX
  8
0
 10
-0.031496
 20
-0.015256
 30
0.000000
 42
0.414214
  0
VERTEX
  8
0
 10
-0.016240
 20
-0.030512
 30
0.000000
  0
VERTEX
  8
0
 10
0.016240
 20
-0.030512
 30
0.000000
 42
0.414214
  0
SEQEND
  8
0
  0
ENDBLK
  8
0
  0
ENDSEC
  0
SECTION
  2
ENTITIES
  0
INSERT
  8
31
  2
RECT
 10
2.324409
 20
1.855000
 30
0.000000
 41
0.027559
 42
0.035433
 43
1.000000
 50
0.000000
  0
INSERT
  8
31
  2
RECT
 10
2.375591
 20
1.855000
 30
0.000000
 41
0.027559
 42
0.035433
 43
1.000000
 50
0.000000
  0
INSERT
  8
31
  2
RECT
 10
2.490000
 20
1.729409
 30
0.000000
 41
0.027559
 42
0.035433
 43
1.000000
 50
90.000000
  0
INSERT
  8
31
  2
RECT
 10
2.490000
 20
1.780591
 30
0.000000
 41
0.027559
 42
0.035433
 43
1.000000
 50
90.000000
  0
INSERT
  8
31
  2
RECT
 10
2.375591
 20
1.935000
 30
0.000000
 41
0.027559
 42
0.035433
 43
1.000000
 50
180.000000
  0
INSERT
  8
31
  2
RECT
 10
2.324409
 20
1.935000
 30
0.000000
 41
0.027559
 42
0.035433
 43
1.000000
 50
180.000000
  0
INSERT
  8
31
  2
RECT
 10
2.319409
 20
1.565000
 30
0.000000
 41
0.027559
 42
0.035433
 43
1.000000
 50
0.000000
  0
INSERT
  8
31
  2
RECT
 10
2.370591
 20
1.565000
 30
0.000000
 41
0.027559
 42
0.035433
 43
1.000000
 50
0.000000
  0
INSERT
  8
31
  2
RECT
 10
2.485000
 20
1.625591
 30
0.000000
 41
0.027559
 42
0.035433
 43
1.000000
 50
270.000000
  0
INSERT
  8
31
  2
RECT
 10
2.485000
 20
1.574409
 30
0.000000
 41
0.027559
 42
0.035433
 43
1.000000
 50
270.000000
  0
INSERT
  8
31
  2
RECT128000X256000R50
 10
2.955079
 20
2.042835
 30
0.000000
 41
1.000000
 42
1.000000
 43
1.000000
 50
180.000000
  0
INSERT
  8
31
  2
RECT128000X256000R50
 10
2.998386
 20
2.042835
 30
0.000000
 41
1.000000
 42
1.000000
 43
1.000000
 50
0.000000
  0
INSERT
  8
31
  2
RECT128000X256000R50
 10
3.041693
 20
2.042835
 30
0.000000
 41
1.000000
 42
1.000000
 43
1.000000
 50
0.000000
  0
INSERT
  8
31
  2
RECT128000X256000R50
 10
3.085000
 20
2.042835
 30
0.000000
 41
1.000000
 42
1.000000
 43
1.000000
 50
0.000000
  0
INSERT
  8
31
  2
RECT128000X256000R50
 10
3.128307
 20
2.042835
 30
0.000000
 41
1.000000
 42
1.000000
 43
1.000000
 50
0.000000
  0
INSERT
  8
31
  2
RECT128000X256000R50
 10
3.171614
 20
2.042835
 30
0.000000
 41
1.000000
 42
1.000000
 43
1.000000
 50
0.000000
  0
INSERT
  8
31
  2
RECT128000X256000R50
 10
3.214921
 20
2.042835
 30
0.000000
 41
1.000000
 42
1.000000
 43
1.000000
 50
0.000000
  0
INSERT
  8
31
  2
RECT128000X256000R50
 10
3.258228
 20
2.042835
 30
0.000000
 41
1.000000
 42
1.000000
 43
1.000000
 50
0.000000
  0
INSERT
  8
31
  2
RECT248000X448000R50
 10
3.339528
 20
1.944409
 30
0.000000
 41
1.000000
 42
1.000000
 43
1.000000
 50
0.000000
  0
INSERT
  8
31
  2
RECT248000X336000R50
 10
3.339528
 20
1.641260
 30
0.000000
 41
1.000000
 42
1.000000
 43
1.000000
 50
0.000000
  0
INSERT
  8
31
  2
RECT224000X304000R50
 10
3.342480
 20
1.454252
 30
0.000000
 41
1.000000
 42
1.000000
 43
1.000000
 50
0.000000
  0
INSERT
  8
31
  2
RECT224000X304000R50
 10
2.767677
 20
1.414882
 30
0.000000
 41
1.000000
 42
1.000000
 43
1.000000
 50
0.000000
  0
INSERT
  8
31
  2
RECT224000X480000R50
 10
2.740118
 20
1.603858
 30
0.000000
 41
1.000000
 42
1.000000
 43
1.000000
 50
0.000000
  0
INSERT
  8
31
  2
RECT224000X480000R50
 10
2.740118
 20
1.979843
 30
0.000000
 41
1.000000
 42
1.000000
 43
1.000000
 50
0.000000
  0
INSERT
  8
31
  2
RECT256000X248000R50
 10
2.860591
 20
2.024134
 30
0.000000
 41
1.000000
 42
1.000000
 43
1.000000
 50
0.000000
  0
INSERT
  8
31
  2
RECT
 10
2.315472
 20
1.661063
 30
0.000000
 41
0.025591
 42
0.011024
 43
1.000000
 50
90.000000
  0
INSERT
  8
31
  2
RECT
 10
2.335157
 20
1.661063
 30
0.000000
 41
0.025591
 42
0.011024
 43
1.000000
 50
90.000000
  0
INSERT
  8
31
  2
RECT
 10
2.354843
 20
1.661063
 30
0.000000
 41
0.025591
 42
0.011024
 43
1.000000
 50
90.000000
  0
INSERT
  8
31
  2
RECT
 10
2.374528
 20
1.661063
 30
0.000000
 41
0.025591
 42
0.011024
 43
1.000000
 50
90.000000
  0
INSERT
  8
31
  2
RECT
 10
2.398937
 20
1.685472
 30
0.000000
 41
0.025591
 42
0.011024
 43
1.000000
 50
0.000000
  0
INSERT
  8
31
  2
RECT
 10
2.398937
 20
1.705157
 30
0.000000
 41
0.025591
 42
0.011024
 43
1.000000
 50
180.000000
  0
INSERT
  8
31
  2
RECT
 10
2.398937
 20
1.724843
 30
0.000000
 41
0.025591
 42
0.011024
 43
1.000000
 50
180.000000
  0
INSERT
  8
31
  2
RECT
 10
2.398937
 20
1.744528
 30
0.000000
 41
0.025591
 42
0.011024
 43
1.000000
 50
180.000000
  0
INSERT
  8
31
  2
RECT
 10
2.374528
 20
1.768937
 30
0.000000
 41
0.025591
 42
0.011024
 43
1.000000
 50
90.000000
  0
INSERT
  8
31
  2
RECT
 10
2.354843
 20
1.768937
 30
0.000000
 41
0.025591
 42
0.011024
 43
1.000000
 50
90.000000
  0
INSERT
  8
31
  2
RECT
 10
2.335157
 20
1.768937
 30
0.000000
 41
0.025591
 42
0.011024
 43
1.000000
 50
90.000000
  0
INSERT
  8
31
  2
RECT
 10
2.315472
 20
1.768937
 30
0.000000
 41
0.025591
 42
0.011024
 43
1.000000
 50
90.000000
  0
INSERT
  8
31
  2
RECT
 10
2.291063
 20
1.744528
 30
0.000000
 41
0.025591
 42
0.011024
 43
1.000000
 50
180.000000
  0
INSERT
  8
31
  2
RECT
 10
2.291063
 20
1.724843
 30
0.000000
 41
0.025591
 42
0.011024
 43
1.000000
 50
180.000000
  0
INSERT
  8
31
  2
RECT
 10
2.291063
 20
1.705157
 30
0.000000
 41
0.025591
 42
0.011024
 43
1.000000
 50
180.000000
  0
INSERT
  8
31
  2
RECT
 10
2.291063
 20
1.685472
 30
0.000000
 41
0.025591
 42
0.011024
 43
1.000000
 50
180.000000
  0
INSERT
  8
31
  2
RECT
 10
2.394213
 20
0.578740
 30
0.000000
 41
0.031496
 42
0.011811
 43
1.000000
 50
90.000000
  0
INSERT
  8
31
  2
RECT
 10
2.374528
 20
0.578740
 30
0.000000
 41
0.031496
 42
0.011811
 43
1.000000
 50
90.000000
  0
INSERT
  8
31
  2
RECT
 10
2.354843
 20
0.578740
 30
0.000000
 41
0.031496
 42
0.011811
 43
1.000000
 50
90.000000
  0
INSERT
  8
31
  2
RECT
 10
2.335157
 20
0.578740
 30
0.000000
 41
0.031496
 42
0.011811
 43
1.000000
 50
90.000000
  0
INSERT
  8
31
  2
RECT
 10
2.315472
 20
0.578740
 30
0.000000
 41
0.031496
 42
0.011811
 43
1.000000
 50
90.000000
  0
INSERT
  8
31
  2
RECT
 10
2.295787
 20
0.578740
 30
0.000000
 41
0.031496
 42
0.011811
 43
1.000000
 50
90.000000
  0
INSERT
  8
31
  2
RECT
 10
2.266260
 20
0.549213
 30
0.000000
 41
0.031496
 42
0.011811
 43
1.000000
 50
0.000000
  0
INSERT
  8
31
  2
RECT
 10
2.266260
 20
0.529528
 30
0.000000
 41
0.031496
 42
0.011811
 43
1.000000
 50
0.000000
  0
INSERT
  8
31
  2
RECT
 10
2.266260
 20
0.509843
 30
0.000000
 41
0.031496
 42
0.011811
 43
1.000000
 50
0.000000
  0
INSERT
  8
31
  2
RECT
 10
2.266260
 20
0.490157
 30
0.000000
 41
0.031496
 42
0.011811
 43
1.000000
 50
0.000000
  0
INSERT
  8
31
  2
RECT
 10
2.266260
 20
0.470472
 30
0.000000
 41
0.031496
 42
0.011811
 43
1.000000
 50
0.000000
  0
INSERT
  8
31
  2
RECT
 10
2.266260
 20
0.450787
 30
0.000000
 41
0.031496
 42
0.011811
 43
1.000000
 50
0.000000
  0
INSERT
  8
31
  2
RECT
 10
2.295787
 20
0.421260
 30
0.000000
 41
0.031496
 42
0.011811
 43
1.000000
 50
270.000000
  0
INSERT
  8
31
  2
RECT
 10
2.315472
 20
0.421260
 30
0.000000
 41
0.031496
 42
0.011811
 43
1.000000
 50
270.000000
  0
INSERT
  8
31
  2
RECT
 10
2.335157
 20
0.421260
 30
0.000000
 41
0.031496
 42
0.011811
 43
1.000000
 50
270.000000
  0
INSERT
  8
31
  2
RECT
 10
2.354843
 20
0.421260
 30
0.000000
 41
0.031496
 42
0.011811
 43
1.000000
 50
270.000000
  0
INSERT
  8
31
  2
RECT
 10
2.374528
 20
0.421260
 30
0.000000
 41
0.031496
 42
0.011811
 43
1.000000
 50
270.000000
  0
INSERT
  8
31
  2
RECT
 10
2.394213
 20
0.421260
 30
0.000000
 41
0.031496
 42
0.011811
 43
1.000000
 50
270.000000
  0
INSERT
  8
31
  2
RECT
 10
2.423740
 20
0.450787
 30
0.000000
 41
0.031496
 42
0.011811
 43
1.000000
 50
180.000000
  0
INSERT
  8
31
  2
RECT
 10
2.423740
 20
0.470472
 30
0.000000
 41
0.031496
 42
0.011811
 43
1.000000
 50
180.000000
  0
INSERT
  8
31
  2
RECT
 10
2.423740
 20
0.490157
 30
0.000000
 41
0.031496
 42
0.011811
 43
1.000000
 50
180.000000
  0
INSERT
  8
31
  2
RECT
 10
2.423740
 20
0.509843
 30
0.000000
 41
0.031496
 42
0.011811
 43
1.000000
 50
180.000000
  0
INSERT
  8
31
  2
RECT
 10
2.423740
 20
0.529528
 30
0.000000
 41
0.031496
 42
0.011811
 43
1.000000
 50
180.000000
  0
INSERT
  8
31
  2
RECT
 10
2.423740
 20
0.549213
 30
0.000000
 41
0.031496
 42
0.011811
 43
1.000000
 50
180.000000
  0
INSERT
  8
31
  2
RECT
 10
3.616850
 20
0.349370
 30
0.000000
 41
0.031496
 42
0.011811
 43
1.000000
 50
0.000000
  0
INSERT
  8
31
  2
RECT
 10
3.616850
 20
0.329685
 30
0.000000
 41
0.031496
 42
0.011811
 43
1.000000
 50
0.000000
  0
INSERT
  8
31
  2
RECT
 10
3.616850
 20
0.310000
 30
0.000000
 41
0.031496
 42
0.011811
 43
1.000000
 50
0.000000
  0
INSERT
  8
31
  2
RECT
 10
3.616850
 20
0.290315
 30
0.000000
 41
0.031496
 42
0.011811
 43
1.000000
 50
0.000000
  0
INSERT
  8
31
  2
RECT
 10
3.616850
 20
0.270630
 30
0.000000
 41
0.031496
 42
0.011811
 43
1.000000
 50
0.000000
  0
INSERT
  8
31
  2
RECT
 10
3.650315
 20
0.259803
 30
0.000000
 41
0.031496
 42
0.011811
 43
1.000000
 50
90.000000
  0
INSERT
  8
31
  2
RECT
 10
3.670000
 20
0.259803
 30
0.000000
 41
0.031496
 42
0.011811
 43
1.000000
 50
90.000000
  0
INSERT
  8
31
  2
RECT
 10
3.689685
 20
0.259803
 30
0.000000
 41
0.031496
 42
0.011811
 43
1.000000
 50
90.000000
  0
INSERT
  8
31
  2
RECT
 10
3.723150
 20
0.270630
 30
0.000000
 41
0.031496
 42
0.011811
 43
1.000000
 50
0.000000
  0
INSERT
  8
31
  2
RECT
 10
3.723150
 20
0.290315
 30
0.000000
 41
0.031496
 42
0.011811
 43
1.000000
 50
0.000000
  0
INSERT
  8
31
  2
RECT
 10
3.723150
 20
0.310000
 30
0.000000
 41
0.031496
 42
0.011811
 43
1.000000
 50
0.000000
  0
INSERT
  8
31
  2
RECT
 10
3.723150
 20
0.329685
 30
0.000000
 41
0.031496
 42
0.011811
 43
1.000000
 50
0.000000
  0
INSERT
  8
31
  2
RECT
 10
3.723150
 20
0.349370
 30
0.000000
 41
0.031496
 42
0.011811
 43
1.000000
 50
0.000000
  0
INSERT
  8
31
  2
RECT
 10
3.689685
 20
0.360197
 30
0.000000
 41
0.031496
 42
0.011811
 43
1.000000
 50
90.000000
  0
INSERT
  8
31
  2
RECT
 10
3.670000
 20
0.360197
 30
0.000000
 41
0.031496
 42
0.011811
 43
1.000000
 50
90.000000
  0
INSERT
  8
31
  2
RECT
 10
3.650315
 20
0.360197
 30
0.000000
 41
0.031496
 42
0.011811
 43
1.000000
 50
90.000000
  0
ENDSEC
  0
EOF
