G75*
G70*
%OFA0B0*%
%FSLAX24Y24*%
%IPPOS*%
%LPD*%
%AMOC8*
5,1,8,0,0,1.08239X$1,22.5*
%
%ADD10C,0.0594*%
%ADD11C,0.0594*%
%ADD12C,0.0560*%
%ADD13C,0.0660*%
%ADD14R,0.0660X0.0660*%
%ADD15C,0.0740*%
%ADD16R,0.0740X0.0740*%
%ADD17OC8,0.0740*%
%ADD18OC8,0.0515*%
%ADD19R,0.0515X0.0515*%
%ADD20OC8,0.0600*%
%ADD21C,0.0100*%
%ADD22C,0.0400*%
D10*
X012350Y002803D02*
X012350Y003397D01*
X013350Y003397D02*
X013350Y002803D01*
X014350Y002803D02*
X014350Y003397D01*
X015350Y003397D02*
X015350Y002803D01*
X016350Y002803D02*
X016350Y003397D01*
X017350Y003397D02*
X017350Y002803D01*
X019350Y002803D02*
X019350Y003397D01*
X020350Y003397D02*
X020350Y002803D01*
X021350Y002803D02*
X021350Y003397D01*
X022350Y003397D02*
X022350Y002803D01*
X023350Y002803D02*
X023350Y003397D01*
X024350Y003397D02*
X024350Y002803D01*
X025350Y002803D02*
X025350Y003397D01*
X026350Y003397D02*
X026350Y002803D01*
X028350Y002803D02*
X028350Y003397D01*
X029350Y003397D02*
X029350Y002803D01*
X030350Y002803D02*
X030350Y003397D01*
X031350Y003397D02*
X031350Y002803D01*
X032350Y002803D02*
X032350Y003397D01*
X033350Y003397D02*
X033350Y002803D01*
X034350Y002803D02*
X034350Y003397D01*
X035350Y003397D02*
X035350Y002803D01*
X033350Y021803D02*
X033350Y022397D01*
X032350Y022397D02*
X032350Y021803D01*
X031350Y021803D02*
X031350Y022397D01*
X030350Y022397D02*
X030350Y021803D01*
X029350Y021803D02*
X029350Y022397D01*
X028350Y022397D02*
X028350Y021803D01*
X027350Y021803D02*
X027350Y022397D01*
X026350Y022397D02*
X026350Y021803D01*
X024350Y021803D02*
X024350Y022397D01*
X023350Y022397D02*
X023350Y021803D01*
X022350Y021803D02*
X022350Y022397D01*
X021350Y022397D02*
X021350Y021803D01*
X020350Y021803D02*
X020350Y022397D01*
X019350Y022397D02*
X019350Y021803D01*
X018350Y021803D02*
X018350Y022397D01*
X017350Y022397D02*
X017350Y021803D01*
X015850Y021803D02*
X015850Y022397D01*
X014850Y022397D02*
X014850Y021803D01*
X013850Y021803D02*
X013850Y022397D01*
X012850Y022397D02*
X012850Y021803D01*
X011850Y021803D02*
X011850Y022397D01*
X010850Y022397D02*
X010850Y021803D01*
X009850Y021803D02*
X009850Y022397D01*
X008850Y022397D02*
X008850Y021803D01*
X008850Y022397D01*
D11*
X036350Y022100D03*
X037350Y022100D03*
X037350Y021100D03*
X036350Y021100D03*
X036350Y020100D03*
X037350Y020100D03*
X037350Y019100D03*
X036350Y019100D03*
X036350Y018100D03*
X037350Y018100D03*
X037350Y017100D03*
X036350Y017100D03*
X036350Y016100D03*
X037350Y016100D03*
X037350Y015100D03*
X036350Y015100D03*
X036350Y014100D03*
X037350Y014100D03*
X037350Y013100D03*
X036350Y013100D03*
X036350Y012100D03*
X037350Y012100D03*
X037350Y011100D03*
X036350Y011100D03*
X036350Y010100D03*
X037350Y010100D03*
X037350Y009100D03*
X036350Y009100D03*
X036350Y008100D03*
X037350Y008100D03*
X037350Y007100D03*
X036350Y007100D03*
X036350Y006100D03*
X037350Y006100D03*
X037350Y005100D03*
X036350Y005100D03*
D12*
X012350Y019320D02*
X012350Y019880D01*
X011350Y019880D02*
X011350Y019320D01*
X010350Y019320D02*
X010350Y019880D01*
X009350Y019880D02*
X009350Y019320D01*
X007850Y021820D02*
X007850Y022380D01*
X006850Y022380D02*
X006850Y021820D01*
X010350Y003380D02*
X010350Y002820D01*
X011350Y002820D02*
X011350Y003380D01*
D13*
X024350Y012100D03*
X025350Y012100D03*
X025350Y013100D03*
X024350Y013100D03*
X025350Y014100D03*
D14*
X024350Y014100D03*
D15*
X007400Y017600D03*
X006400Y017100D03*
X006400Y018100D03*
X007400Y018600D03*
X006400Y019100D03*
X007400Y019600D03*
D16*
X001600Y014450D03*
D17*
X002600Y014450D03*
X002600Y013450D03*
X001600Y013450D03*
X001600Y012450D03*
X002600Y012450D03*
X003600Y012450D03*
X003600Y011450D03*
X002600Y011450D03*
X001600Y011450D03*
X001600Y010450D03*
X002600Y010450D03*
X003600Y010450D03*
X003600Y009450D03*
X002600Y009450D03*
X001600Y009450D03*
X001600Y008450D03*
X002600Y008450D03*
X003600Y008450D03*
X003600Y007450D03*
X002600Y007450D03*
X001600Y007450D03*
X003600Y013450D03*
X003600Y014450D03*
D18*
X010050Y015400D03*
X010050Y013400D03*
X010050Y012400D03*
X010050Y011400D03*
X010050Y010400D03*
X010050Y009400D03*
X010050Y008400D03*
D19*
X010050Y014400D03*
D20*
X008000Y005450D03*
X007000Y004950D03*
X008000Y004450D03*
X007000Y003950D03*
X008000Y003450D03*
X007000Y002950D03*
X008000Y002450D03*
X007000Y001950D03*
X008000Y001450D03*
X007000Y000950D03*
D21*
X007400Y001400D02*
X006450Y001400D01*
X006450Y002400D01*
X007000Y002950D01*
X007450Y003000D02*
X008250Y003000D01*
X010875Y005625D01*
X009800Y006700D01*
X003350Y006700D01*
X002600Y007450D01*
X001600Y007450D02*
X001100Y007450D01*
X001100Y014900D01*
X001150Y014950D01*
X005500Y014950D01*
X008000Y017450D01*
X022250Y017450D01*
X022450Y017250D01*
X024900Y017250D01*
X025200Y017550D01*
X036800Y017550D01*
X037350Y018100D01*
X037800Y018300D02*
X037800Y009550D01*
X010900Y009550D01*
X010300Y008950D01*
X002100Y008950D01*
X001600Y008450D01*
X001600Y009450D02*
X002100Y009950D01*
X010200Y009950D01*
X010400Y009750D01*
X030450Y009750D01*
X031250Y010550D01*
X036650Y010550D01*
X036800Y010700D01*
X031650Y013500D02*
X028400Y013500D01*
X028300Y013600D01*
X024850Y013600D01*
X024350Y013100D01*
X025350Y013100D02*
X030800Y013100D01*
X031650Y013900D02*
X028800Y013900D01*
X028800Y013850D01*
X028050Y014600D01*
X024850Y014600D01*
X024350Y014100D01*
X025750Y012600D02*
X010250Y012600D01*
X010050Y012400D01*
X010200Y010950D02*
X002100Y010950D01*
X001600Y010450D01*
X001600Y013450D02*
X002100Y013950D01*
X011600Y013950D01*
X012750Y015100D01*
X032950Y015100D01*
X035050Y017200D01*
X035400Y016750D02*
X028600Y009950D01*
X011200Y009950D01*
X010200Y010950D01*
X014000Y010300D02*
X015350Y011650D01*
X023900Y011650D01*
X026200Y009150D02*
X031300Y009150D01*
X031300Y009200D01*
X036150Y004350D01*
X036250Y004350D01*
X036250Y004000D02*
X026250Y004000D01*
X025900Y005450D02*
X023000Y005450D01*
X022550Y005000D01*
X022550Y005500D02*
X023025Y005975D01*
X023000Y006000D01*
X016150Y006000D01*
X013350Y003200D01*
X013350Y003100D01*
X013350Y003150D01*
X010875Y005625D01*
X009950Y005350D02*
X009900Y005350D01*
X008000Y003450D01*
X007450Y003000D02*
X007450Y002000D01*
X008000Y001450D01*
X007800Y001000D02*
X034200Y001000D01*
X035950Y002750D01*
X037000Y003250D02*
X036250Y004000D01*
X026200Y009150D02*
X023025Y005975D01*
X023600Y007050D02*
X007100Y007050D01*
X006950Y006500D02*
X008000Y005450D01*
X008000Y004450D02*
X009150Y005600D01*
X006950Y006500D02*
X000900Y006500D01*
X000900Y015400D01*
X004800Y019300D01*
X005000Y019300D01*
X005000Y021150D01*
X006700Y022850D01*
X026600Y022850D01*
X027350Y022100D01*
X028600Y021350D02*
X029350Y022100D01*
X029400Y021150D02*
X030350Y022100D01*
X031350Y022100D02*
X029900Y020650D01*
X007700Y020650D01*
X007700Y021150D02*
X029400Y021150D01*
X028600Y021350D02*
X016950Y021350D01*
X016800Y021500D01*
X013350Y019250D02*
X025200Y019250D01*
X025900Y019950D01*
X024750Y018850D02*
X024750Y017600D01*
X023350Y018200D02*
X023000Y017850D01*
X014950Y017850D01*
X014950Y017800D01*
X014650Y018100D01*
X007150Y018100D01*
X006650Y018600D01*
X006150Y018600D01*
X005900Y018850D01*
X005900Y019600D01*
X007400Y019600D01*
X007650Y019100D02*
X006400Y019100D01*
X007650Y019100D02*
X007850Y018900D01*
X015150Y018900D01*
X015600Y018450D01*
X011150Y014300D02*
X010050Y015400D01*
X011150Y014300D02*
X011450Y014300D01*
X006300Y020300D02*
X001600Y015600D01*
X006300Y020300D02*
X035550Y020300D01*
X036350Y021100D01*
X036800Y018550D02*
X037550Y018550D01*
X037800Y018300D01*
X036800Y018550D02*
X036350Y018100D01*
X033250Y017200D02*
X032300Y016250D01*
X024700Y016250D01*
X023450Y016250D01*
X031650Y013900D02*
X032500Y014750D01*
X014350Y003100D02*
X013600Y002350D01*
X008100Y002350D01*
X008000Y002450D01*
X007400Y001400D02*
X007800Y001000D01*
D22*
X009950Y005350D03*
X009150Y005600D03*
X007100Y007050D03*
X014000Y010300D03*
X011450Y014300D03*
X014950Y017800D03*
X015600Y018450D03*
X013350Y019250D03*
X016800Y021500D03*
X023350Y018200D03*
X024750Y017600D03*
X024750Y018850D03*
X025900Y019950D03*
X024700Y016250D03*
X023450Y016250D03*
X025750Y012600D03*
X023900Y011650D03*
X028800Y013850D03*
X030800Y013100D03*
X031650Y013500D03*
X032500Y014750D03*
X035400Y016750D03*
X035050Y017200D03*
X033250Y017200D03*
X036800Y010700D03*
X031300Y009200D03*
X025900Y005450D03*
X026250Y004000D03*
X022550Y005000D03*
X022550Y005500D03*
X023600Y007050D03*
X035950Y002750D03*
X037000Y003250D03*
X036250Y004350D03*
X007700Y020650D03*
X007700Y021150D03*
X001600Y015600D03*
M02*
