G75*
G70*
%OFA0B0*%
%FSLAX24Y24*%
%IPPOS*%
%LPD*%
%AMOC8*
5,1,8,0,0,1.08239X$1,22.5*
%
%ADD10C,0.1330*%
%ADD11C,0.0674*%
%ADD12C,0.0674*%
%ADD13C,0.0640*%
%ADD14C,0.0740*%
%ADD15R,0.0740X0.0740*%
%ADD16C,0.0197*%
%ADD17C,0.0345*%
%ADD18C,0.0316*%
%ADD19R,0.0198X0.0395*%
%ADD20R,0.0395X0.0198*%
%ADD21R,0.0394X0.0394*%
%ADD22C,0.0820*%
%ADD23C,0.1360*%
%ADD24R,0.0190X0.0336*%
%ADD25R,0.0336X0.0190*%
%ADD26R,0.0356X0.0434*%
%ADD27R,0.0434X0.0356*%
%ADD28R,0.0820X0.0820*%
%ADD29OC8,0.0820*%
%ADD30OC8,0.0595*%
%ADD31R,0.0595X0.0595*%
%ADD32OC8,0.0680*%
%ADD33C,0.0480*%
D10*
X020050Y004900D03*
X021850Y016350D03*
D11*
X021350Y021803D02*
X021350Y022397D01*
X020350Y022397D02*
X020350Y021803D01*
X019350Y021803D02*
X019350Y022397D01*
X018350Y022397D02*
X018350Y021803D01*
X017350Y021803D02*
X017350Y022397D01*
X015850Y022397D02*
X015850Y021803D01*
X014850Y021803D02*
X014850Y022397D01*
X013850Y022397D02*
X013850Y021803D01*
X012850Y021803D02*
X012850Y022397D01*
X011850Y022397D02*
X011850Y021803D01*
X010850Y021803D02*
X010850Y022397D01*
X009850Y022397D02*
X009850Y021803D01*
X008850Y021803D02*
X008850Y022397D01*
X008850Y021803D01*
X022350Y021803D02*
X022350Y022397D01*
X023350Y022397D02*
X023350Y021803D01*
X024350Y021803D02*
X024350Y022397D01*
X026350Y022397D02*
X026350Y021803D01*
X027350Y021803D02*
X027350Y022397D01*
X028350Y022397D02*
X028350Y021803D01*
X029350Y021803D02*
X029350Y022397D01*
X030350Y022397D02*
X030350Y021803D01*
X031350Y021803D02*
X031350Y022397D01*
X032350Y022397D02*
X032350Y021803D01*
X033350Y021803D02*
X033350Y022397D01*
X033350Y003397D02*
X033350Y002803D01*
X032350Y002803D02*
X032350Y003397D01*
X031350Y003397D02*
X031350Y002803D01*
X030350Y002803D02*
X030350Y003397D01*
X029350Y003397D02*
X029350Y002803D01*
X028350Y002803D02*
X028350Y003397D01*
X026350Y003397D02*
X026350Y002803D01*
X025350Y002803D02*
X025350Y003397D01*
X024350Y003397D02*
X024350Y002803D01*
X023350Y002803D02*
X023350Y003397D01*
X022350Y003397D02*
X022350Y002803D01*
X021350Y002803D02*
X021350Y003397D01*
X020350Y003397D02*
X020350Y002803D01*
X019350Y002803D02*
X019350Y003397D01*
X017350Y003397D02*
X017350Y002803D01*
X016350Y002803D02*
X016350Y003397D01*
X015350Y003397D02*
X015350Y002803D01*
X014350Y002803D02*
X014350Y003397D01*
X013350Y003397D02*
X013350Y002803D01*
X012350Y002803D02*
X012350Y003397D01*
X034350Y003397D02*
X034350Y002803D01*
X035350Y002803D02*
X035350Y003397D01*
D12*
X036350Y005100D03*
X037350Y005100D03*
X037350Y006100D03*
X036350Y006100D03*
X036350Y007100D03*
X037350Y007100D03*
X037350Y008100D03*
X036350Y008100D03*
X036350Y009100D03*
X037350Y009100D03*
X037350Y010100D03*
X036350Y010100D03*
X036350Y011100D03*
X037350Y011100D03*
X037350Y012100D03*
X036350Y012100D03*
X036350Y013100D03*
X037350Y013100D03*
X037350Y014100D03*
X036350Y014100D03*
X036350Y015100D03*
X037350Y015100D03*
X037350Y016100D03*
X036350Y016100D03*
X036350Y017100D03*
X037350Y017100D03*
X037350Y018100D03*
X036350Y018100D03*
X036350Y019100D03*
X037350Y019100D03*
X037350Y020100D03*
X036350Y020100D03*
X036350Y021100D03*
X037350Y021100D03*
X037350Y022100D03*
X036350Y022100D03*
D13*
X012350Y019880D02*
X012350Y019320D01*
X011350Y019320D02*
X011350Y019880D01*
X010350Y019880D02*
X010350Y019320D01*
X009350Y019320D02*
X009350Y019880D01*
X007850Y021820D02*
X007850Y022380D01*
X006850Y022380D02*
X006850Y021820D01*
X010350Y003380D02*
X010350Y002820D01*
X011350Y002820D02*
X011350Y003380D01*
D14*
X024350Y012100D03*
X025350Y012100D03*
X025350Y013100D03*
X024350Y013100D03*
X025350Y014100D03*
D15*
X024350Y014100D03*
D16*
X029802Y020785D02*
X030000Y020785D01*
X030000Y020271D01*
X029802Y020271D01*
X029802Y020785D01*
X029802Y020467D02*
X030000Y020467D01*
X030000Y020663D02*
X029802Y020663D01*
X030235Y020271D02*
X030433Y020271D01*
X030235Y020271D02*
X030235Y020785D01*
X030433Y020785D01*
X030433Y020271D01*
X030433Y020467D02*
X030235Y020467D01*
X030235Y020663D02*
X030433Y020663D01*
X030668Y020271D02*
X030866Y020271D01*
X030668Y020271D02*
X030668Y020785D01*
X030866Y020785D01*
X030866Y020271D01*
X030866Y020467D02*
X030668Y020467D01*
X030668Y020663D02*
X030866Y020663D01*
X031101Y020271D02*
X031299Y020271D01*
X031101Y020271D02*
X031101Y020785D01*
X031299Y020785D01*
X031299Y020271D01*
X031299Y020467D02*
X031101Y020467D01*
X031101Y020663D02*
X031299Y020663D01*
X031534Y020271D02*
X031732Y020271D01*
X031534Y020271D02*
X031534Y020785D01*
X031732Y020785D01*
X031732Y020271D01*
X031732Y020467D02*
X031534Y020467D01*
X031534Y020663D02*
X031732Y020663D01*
X031967Y020271D02*
X032165Y020271D01*
X031967Y020271D02*
X031967Y020785D01*
X032165Y020785D01*
X032165Y020271D01*
X032165Y020467D02*
X031967Y020467D01*
X031967Y020663D02*
X032165Y020663D01*
X032400Y020271D02*
X032598Y020271D01*
X032400Y020271D02*
X032400Y020785D01*
X032598Y020785D01*
X032598Y020271D01*
X032598Y020467D02*
X032400Y020467D01*
X032400Y020663D02*
X032598Y020663D01*
X032833Y020271D02*
X033031Y020271D01*
X032833Y020271D02*
X032833Y020785D01*
X033031Y020785D01*
X033031Y020271D01*
X033031Y020467D02*
X032833Y020467D01*
X032833Y020663D02*
X033031Y020663D01*
D17*
X033572Y019125D02*
X033918Y019125D01*
X033572Y019125D02*
X033572Y019963D01*
X033918Y019963D01*
X033918Y019125D01*
X033918Y019469D02*
X033572Y019469D01*
X033572Y019813D02*
X033918Y019813D01*
X033918Y016232D02*
X033572Y016232D01*
X033572Y016794D01*
X033918Y016794D01*
X033918Y016232D01*
X033918Y016576D02*
X033572Y016576D01*
X029139Y020168D02*
X028773Y020168D01*
X028773Y020514D01*
X029139Y020514D01*
X029139Y020168D01*
X029139Y020512D02*
X028773Y020512D01*
D18*
X027908Y019426D02*
X027594Y019426D01*
X027594Y020370D01*
X027908Y020370D01*
X027908Y019426D01*
X027908Y019741D02*
X027594Y019741D01*
X027594Y020056D02*
X027908Y020056D01*
X027908Y015667D02*
X027594Y015667D01*
X027594Y016611D01*
X027908Y016611D01*
X027908Y015667D01*
X027908Y015982D02*
X027594Y015982D01*
X027594Y016297D02*
X027908Y016297D01*
X027870Y013993D02*
X028184Y013993D01*
X027870Y013993D02*
X027870Y014505D01*
X028184Y014505D01*
X028184Y013993D01*
X028184Y014308D02*
X027870Y014308D01*
X033618Y014387D02*
X033932Y014387D01*
X033618Y014387D02*
X033618Y014899D01*
X033932Y014899D01*
X033932Y014387D01*
X033932Y014702D02*
X033618Y014702D01*
D19*
X024292Y005887D03*
X024095Y005887D03*
X023898Y005887D03*
X023702Y005887D03*
X023505Y005887D03*
X023308Y005887D03*
X023308Y004313D03*
X023505Y004313D03*
X023702Y004313D03*
X023898Y004313D03*
X024095Y004313D03*
X024292Y004313D03*
X036853Y003702D03*
X037050Y003702D03*
X037247Y003702D03*
X037247Y002698D03*
X037050Y002698D03*
X036853Y002698D03*
D20*
X036519Y002806D03*
X036519Y003003D03*
X036519Y003200D03*
X036519Y003397D03*
X036519Y003594D03*
X037581Y003594D03*
X037581Y003397D03*
X037581Y003200D03*
X037581Y003003D03*
X037581Y002806D03*
X024587Y004608D03*
X024587Y004805D03*
X024587Y005002D03*
X024587Y005198D03*
X024587Y005395D03*
X024587Y005592D03*
X023013Y005592D03*
X023013Y005395D03*
X023013Y005198D03*
X023013Y005002D03*
X023013Y004805D03*
X023013Y004608D03*
D21*
X023800Y005100D03*
D22*
X006400Y017100D03*
X007400Y017600D03*
X006400Y018100D03*
X007400Y018600D03*
X006400Y019100D03*
X007400Y019600D03*
D23*
X004500Y000900D03*
X004500Y005400D03*
X003900Y016350D03*
X003900Y020350D03*
D24*
X023505Y017789D03*
X023702Y017789D03*
X023898Y017789D03*
X024095Y017789D03*
X024095Y016711D03*
X023898Y016711D03*
X023702Y016711D03*
X023505Y016711D03*
D25*
X023261Y016955D03*
X023261Y017152D03*
X023261Y017348D03*
X023261Y017545D03*
X024339Y017545D03*
X024339Y017348D03*
X024339Y017152D03*
X024339Y016955D03*
D26*
X024056Y015750D03*
X023544Y015750D03*
X023594Y018650D03*
X024106Y018650D03*
X024106Y019450D03*
X023594Y019450D03*
X025394Y006100D03*
X025906Y006100D03*
D27*
X025900Y005006D03*
X025900Y004494D03*
X025200Y015844D03*
X025200Y016356D03*
X025250Y017394D03*
X025250Y017906D03*
D28*
X001600Y014450D03*
D29*
X002600Y014450D03*
X002600Y013450D03*
X001600Y013450D03*
X001600Y012450D03*
X002600Y012450D03*
X003600Y012450D03*
X003600Y011450D03*
X002600Y011450D03*
X001600Y011450D03*
X001600Y010450D03*
X002600Y010450D03*
X003600Y010450D03*
X003600Y009450D03*
X002600Y009450D03*
X001600Y009450D03*
X001600Y008450D03*
X002600Y008450D03*
X003600Y008450D03*
X003600Y007450D03*
X002600Y007450D03*
X001600Y007450D03*
X003600Y013450D03*
X003600Y014450D03*
D30*
X010050Y015400D03*
X010050Y013400D03*
X010050Y012400D03*
X010050Y011400D03*
X010050Y010400D03*
X010050Y009400D03*
X010050Y008400D03*
D31*
X010050Y014400D03*
D32*
X008000Y005450D03*
X007000Y004950D03*
X008000Y004450D03*
X007000Y003950D03*
X008000Y003450D03*
X007000Y002950D03*
X008000Y002450D03*
X007000Y001950D03*
X008000Y001450D03*
X007000Y000950D03*
D33*
X009950Y005350D03*
X009150Y005600D03*
X007100Y007050D03*
X014000Y010300D03*
X011450Y014300D03*
X014950Y017800D03*
X015600Y018450D03*
X013350Y019250D03*
X016800Y021500D03*
X023350Y018200D03*
X024750Y017600D03*
X024750Y018850D03*
X025900Y019950D03*
X024700Y016250D03*
X023450Y016250D03*
X025750Y012600D03*
X023900Y011650D03*
X028800Y013850D03*
X030800Y013100D03*
X031650Y013500D03*
X032500Y014750D03*
X035400Y016750D03*
X035050Y017200D03*
X033250Y017200D03*
X036800Y010700D03*
X031300Y009200D03*
X025900Y005450D03*
X026250Y004000D03*
X022550Y005000D03*
X022550Y005500D03*
X023600Y007050D03*
X035950Y002750D03*
X037000Y003250D03*
X036250Y004350D03*
X007700Y020650D03*
X007700Y021150D03*
X001600Y015600D03*
M02*
