G75*
G70*
%OFA0B0*%
%FSLAX24Y24*%
%IPPOS*%
%LPD*%
%AMOC8*
5,1,8,0,0,1.08239X$1,22.5*
%
%ADD10C,0.0157*%
%ADD11C,0.0305*%
%ADD12C,0.0276*%
%ADD13R,0.0118X0.0315*%
%ADD14R,0.0315X0.0118*%
%ADD15R,0.0110X0.0256*%
%ADD16R,0.0256X0.0110*%
%ADD17R,0.0276X0.0354*%
%ADD18R,0.0354X0.0276*%
D10*
X029822Y020765D02*
X029980Y020765D01*
X029980Y020291D01*
X029822Y020291D01*
X029822Y020765D01*
X029822Y020447D02*
X029980Y020447D01*
X029980Y020603D02*
X029822Y020603D01*
X029822Y020759D02*
X029980Y020759D01*
X030255Y020291D02*
X030413Y020291D01*
X030255Y020291D02*
X030255Y020765D01*
X030413Y020765D01*
X030413Y020291D01*
X030413Y020447D02*
X030255Y020447D01*
X030255Y020603D02*
X030413Y020603D01*
X030413Y020759D02*
X030255Y020759D01*
X030688Y020291D02*
X030846Y020291D01*
X030688Y020291D02*
X030688Y020765D01*
X030846Y020765D01*
X030846Y020291D01*
X030846Y020447D02*
X030688Y020447D01*
X030688Y020603D02*
X030846Y020603D01*
X030846Y020759D02*
X030688Y020759D01*
X031121Y020291D02*
X031279Y020291D01*
X031121Y020291D02*
X031121Y020765D01*
X031279Y020765D01*
X031279Y020291D01*
X031279Y020447D02*
X031121Y020447D01*
X031121Y020603D02*
X031279Y020603D01*
X031279Y020759D02*
X031121Y020759D01*
X031554Y020291D02*
X031712Y020291D01*
X031554Y020291D02*
X031554Y020765D01*
X031712Y020765D01*
X031712Y020291D01*
X031712Y020447D02*
X031554Y020447D01*
X031554Y020603D02*
X031712Y020603D01*
X031712Y020759D02*
X031554Y020759D01*
X031987Y020291D02*
X032145Y020291D01*
X031987Y020291D02*
X031987Y020765D01*
X032145Y020765D01*
X032145Y020291D01*
X032145Y020447D02*
X031987Y020447D01*
X031987Y020603D02*
X032145Y020603D01*
X032145Y020759D02*
X031987Y020759D01*
X032420Y020291D02*
X032578Y020291D01*
X032420Y020291D02*
X032420Y020765D01*
X032578Y020765D01*
X032578Y020291D01*
X032578Y020447D02*
X032420Y020447D01*
X032420Y020603D02*
X032578Y020603D01*
X032578Y020759D02*
X032420Y020759D01*
X032853Y020291D02*
X033011Y020291D01*
X032853Y020291D02*
X032853Y020765D01*
X033011Y020765D01*
X033011Y020291D01*
X033011Y020447D02*
X032853Y020447D01*
X032853Y020603D02*
X033011Y020603D01*
X033011Y020759D02*
X032853Y020759D01*
D11*
X033592Y019145D02*
X033898Y019145D01*
X033592Y019145D02*
X033592Y019943D01*
X033898Y019943D01*
X033898Y019145D01*
X033898Y019449D02*
X033592Y019449D01*
X033592Y019753D02*
X033898Y019753D01*
X033898Y016252D02*
X033592Y016252D01*
X033592Y016774D01*
X033898Y016774D01*
X033898Y016252D01*
X033898Y016556D02*
X033592Y016556D01*
X029119Y020188D02*
X028793Y020188D01*
X028793Y020494D01*
X029119Y020494D01*
X029119Y020188D01*
X029119Y020492D02*
X028793Y020492D01*
D12*
X027888Y019446D02*
X027614Y019446D01*
X027614Y020350D01*
X027888Y020350D01*
X027888Y019446D01*
X027888Y019721D02*
X027614Y019721D01*
X027614Y019996D02*
X027888Y019996D01*
X027888Y020271D02*
X027614Y020271D01*
X027614Y015687D02*
X027888Y015687D01*
X027614Y015687D02*
X027614Y016591D01*
X027888Y016591D01*
X027888Y015687D01*
X027888Y015962D02*
X027614Y015962D01*
X027614Y016237D02*
X027888Y016237D01*
X027888Y016512D02*
X027614Y016512D01*
X027890Y014013D02*
X028164Y014013D01*
X027890Y014013D02*
X027890Y014485D01*
X028164Y014485D01*
X028164Y014013D01*
X028164Y014288D02*
X027890Y014288D01*
X033638Y014407D02*
X033912Y014407D01*
X033638Y014407D02*
X033638Y014879D01*
X033912Y014879D01*
X033912Y014407D01*
X033912Y014682D02*
X033638Y014682D01*
D13*
X024292Y005887D03*
X024095Y005887D03*
X023898Y005887D03*
X023702Y005887D03*
X023505Y005887D03*
X023308Y005887D03*
X023308Y004313D03*
X023505Y004313D03*
X023702Y004313D03*
X023898Y004313D03*
X024095Y004313D03*
X024292Y004313D03*
X036853Y003702D03*
X037050Y003702D03*
X037247Y003702D03*
X037247Y002698D03*
X037050Y002698D03*
X036853Y002698D03*
D14*
X023013Y004608D03*
X023013Y004805D03*
X023013Y005002D03*
X023013Y005198D03*
X023013Y005395D03*
X023013Y005592D03*
X024587Y005592D03*
X024587Y005395D03*
X024587Y005198D03*
X024587Y005002D03*
X024587Y004805D03*
X024587Y004608D03*
X036519Y003594D03*
X036519Y003397D03*
X036519Y003200D03*
X036519Y003003D03*
X036519Y002806D03*
X037581Y002806D03*
X037581Y003003D03*
X037581Y003200D03*
X037581Y003397D03*
X037581Y003594D03*
D15*
X024095Y016711D03*
X023898Y016711D03*
X023702Y016711D03*
X023505Y016711D03*
X023505Y017789D03*
X023702Y017789D03*
X023898Y017789D03*
X024095Y017789D03*
D16*
X024339Y017545D03*
X024339Y017348D03*
X024339Y017152D03*
X024339Y016955D03*
X023261Y016955D03*
X023261Y017152D03*
X023261Y017348D03*
X023261Y017545D03*
D17*
X023594Y018650D03*
X024106Y018650D03*
X024106Y019450D03*
X023594Y019450D03*
X023544Y015750D03*
X024056Y015750D03*
X025394Y006100D03*
X025906Y006100D03*
D18*
X025900Y005006D03*
X025900Y004494D03*
X025200Y015844D03*
X025200Y016356D03*
X025250Y017394D03*
X025250Y017906D03*
M02*
