%
M48
M72
T01C0.0240
T02C0.0276
T03C0.0315
T04C0.0394
T05C0.0400
T06C0.0472
T07C0.1250
T08C0.1280
%
T01
X12725Y4120
X15175Y7720
X14825Y8320
X15825Y10720
X16925Y10720
X15525Y11570
X13175Y12720
X12275Y13870
X10575Y15120
X8675Y13770
X5225Y12870
X6675Y17170
X12625Y16820
X15975Y17670
X17775Y18070
X18175Y16970
X15625Y14070
X18775Y8870
X19975Y6670
X20225Y6220
X24825Y7370
X24175Y10170
X24825Y11320
X25075Y15120
X25475Y16270
X24775Y16670
X25725Y17520
X26275Y18070
X25875Y18370
X24775Y18020
X27575Y18070
X27925Y18420
X28275Y17720
X32625Y19170
X33525Y16970
X33925Y14920
X33175Y12870
X32275Y12470
X33875Y10520
X36025Y10670
X36725Y9220
X33525Y7970
X34275Y6170
X35475Y5470
X36175Y5820
X36175Y4870
X38725Y3420
X38025Y3220
X17925Y21970
T02
X25875Y13370
X26875Y13370
X26875Y12370
X25875Y12370
X25875Y11370
X26875Y11370
T03
X16375Y11720
X16375Y10720
X16375Y9720
X16375Y8720
X16375Y7720
X16375Y12720
X16375Y13720
X16375Y14720
X13875Y18870
X12875Y18870
X11875Y18870
X10875Y18870
X9375Y21370
X8375Y21370
X11875Y2370
X12875Y2370
T04
X13875Y2370
X14875Y2370
X15875Y2370
X16875Y2370
X17875Y2370
X18875Y2370
X20875Y2370
X21875Y2370
X22875Y2370
X23875Y2370
X24875Y2370
X25875Y2370
X26875Y2370
X27875Y2370
X29875Y2370
X30875Y2370
X31875Y2370
X32875Y2370
X33875Y2370
X34875Y2370
X35875Y2370
X36875Y2370
X37875Y4370
X38875Y4370
X38875Y5370
X37875Y5370
X37875Y6370
X38875Y6370
X38875Y7370
X37875Y7370
X37875Y8370
X38875Y8370
X38875Y9370
X37875Y9370
X37875Y10370
X38875Y10370
X38875Y11370
X37875Y11370
X37875Y12370
X38875Y12370
X38875Y13370
X37875Y13370
X37875Y14370
X38875Y14370
X38875Y15370
X37875Y15370
X37875Y16370
X38875Y16370
X38875Y17370
X37875Y17370
X37875Y18370
X38875Y18370
X38875Y19370
X37875Y19370
X37875Y20370
X38875Y20370
X38875Y21370
X37875Y21370
X34875Y21370
X33875Y21370
X32875Y21370
X31875Y21370
X30875Y21370
X29875Y21370
X28875Y21370
X27875Y21370
X25875Y21370
X24875Y21370
X23875Y21370
X22875Y21370
X21875Y21370
X20875Y21370
X19875Y21370
X18875Y21370
X17375Y21370
X16375Y21370
X15375Y21370
X14375Y21370
X13375Y21370
X12375Y21370
X11375Y21370
X10375Y21370
X10375Y21370
T05
X5575Y17820
X4575Y17820
X3575Y17820
X4075Y16820
X5075Y16820
X6075Y16820
X11625Y12220
X12625Y12220
X13625Y12220
X13625Y11220
X12625Y11220
X11625Y11220
X11625Y10220
X12625Y10220
X13625Y10220
X13625Y9220
X12625Y9220
X11625Y9220
X11625Y8220
X12625Y8220
X13625Y8220
X13625Y7220
X12625Y7220
X11625Y7220
X11625Y6220
X12625Y6220
X13625Y6220
X13625Y5220
X12625Y5220
X11625Y5220
T06
X7725Y7970
X6725Y8420
X7725Y8870
X6725Y9320
X7725Y9770
X6725Y10220
X7725Y10670
X6725Y11120
X7725Y11570
X5725Y11570
X5725Y10670
X5725Y9770
X5725Y8870
X5725Y7970
X6725Y7520
T07
X6725Y4750
X6725Y14590
X25875Y4720
X27875Y15720
T08
X6825Y20320
X2825Y20320
M30
