G75*
G70*
%OFA0B0*%
%FSLAX24Y24*%
%IPPOS*%
%LPD*%
%AMOC8*
5,1,8,0,0,1.08239X$1,22.5*
%
%ADD10C,0.0594*%
%ADD11C,0.0594*%
%ADD12C,0.0560*%
%ADD13C,0.0660*%
%ADD14R,0.0660X0.0660*%
%ADD15C,0.0740*%
%ADD16R,0.0740X0.0740*%
%ADD17OC8,0.0740*%
%ADD18OC8,0.0515*%
%ADD19R,0.0515X0.0515*%
%ADD20C,0.0709*%
%ADD21C,0.2000*%
%ADD22C,0.0100*%
%ADD23C,0.0400*%
D10*
X013875Y002803D02*
X013875Y003397D01*
X014875Y003397D02*
X014875Y002803D01*
X015875Y002803D02*
X015875Y003397D01*
X016875Y003397D02*
X016875Y002803D01*
X017875Y002803D02*
X017875Y003397D01*
X018875Y003397D02*
X018875Y002803D01*
X020875Y002803D02*
X020875Y003397D01*
X021875Y003397D02*
X021875Y002803D01*
X022875Y002803D02*
X022875Y003397D01*
X023875Y003397D02*
X023875Y002803D01*
X024875Y002803D02*
X024875Y003397D01*
X025875Y003397D02*
X025875Y002803D01*
X026875Y002803D02*
X026875Y003397D01*
X027875Y003397D02*
X027875Y002803D01*
X029875Y002803D02*
X029875Y003397D01*
X030875Y003397D02*
X030875Y002803D01*
X031875Y002803D02*
X031875Y003397D01*
X032875Y003397D02*
X032875Y002803D01*
X033875Y002803D02*
X033875Y003397D01*
X034875Y003397D02*
X034875Y002803D01*
X035875Y002803D02*
X035875Y003397D01*
X036875Y003397D02*
X036875Y002803D01*
X034875Y021803D02*
X034875Y022397D01*
X033875Y022397D02*
X033875Y021803D01*
X032875Y021803D02*
X032875Y022397D01*
X031875Y022397D02*
X031875Y021803D01*
X030875Y021803D02*
X030875Y022397D01*
X029875Y022397D02*
X029875Y021803D01*
X028875Y021803D02*
X028875Y022397D01*
X027875Y022397D02*
X027875Y021803D01*
X025875Y021803D02*
X025875Y022397D01*
X024875Y022397D02*
X024875Y021803D01*
X023875Y021803D02*
X023875Y022397D01*
X022875Y022397D02*
X022875Y021803D01*
X021875Y021803D02*
X021875Y022397D01*
X020875Y022397D02*
X020875Y021803D01*
X019875Y021803D02*
X019875Y022397D01*
X018875Y022397D02*
X018875Y021803D01*
X017375Y021803D02*
X017375Y022397D01*
X016375Y022397D02*
X016375Y021803D01*
X015375Y021803D02*
X015375Y022397D01*
X014375Y022397D02*
X014375Y021803D01*
X013375Y021803D02*
X013375Y022397D01*
X012375Y022397D02*
X012375Y021803D01*
X011375Y021803D02*
X011375Y022397D01*
X010375Y022397D02*
X010375Y021803D01*
X010375Y022397D01*
D11*
X037875Y022100D03*
X038875Y022100D03*
X038875Y021100D03*
X037875Y021100D03*
X037875Y020100D03*
X038875Y020100D03*
X038875Y019100D03*
X037875Y019100D03*
X037875Y018100D03*
X037875Y017100D03*
X038875Y017100D03*
X038875Y018100D03*
X038875Y016100D03*
X037875Y016100D03*
X037875Y015100D03*
X038875Y015100D03*
X038875Y014100D03*
X037875Y014100D03*
X037875Y013100D03*
X038875Y013100D03*
X038875Y012100D03*
X037875Y012100D03*
X037875Y011100D03*
X037875Y010100D03*
X038875Y010100D03*
X038875Y011100D03*
X038875Y009100D03*
X037875Y009100D03*
X037875Y008100D03*
X038875Y008100D03*
X038875Y007100D03*
X037875Y007100D03*
X037875Y006100D03*
X038875Y006100D03*
X038875Y005100D03*
X037875Y005100D03*
D12*
X013875Y019320D02*
X013875Y019880D01*
X012875Y019880D02*
X012875Y019320D01*
X011875Y019320D02*
X011875Y019880D01*
X010875Y019880D02*
X010875Y019320D01*
X009375Y021820D02*
X009375Y022380D01*
X008375Y022380D02*
X008375Y021820D01*
X011875Y003380D02*
X011875Y002820D01*
X012875Y002820D02*
X012875Y003380D01*
D13*
X025875Y012100D03*
X026875Y012100D03*
X026875Y013100D03*
X025875Y013100D03*
X026875Y014100D03*
D14*
X025875Y014100D03*
D15*
X006075Y017550D03*
X005075Y017550D03*
X004075Y017550D03*
X003575Y018550D03*
X004575Y018550D03*
X005575Y018550D03*
D16*
X002925Y000950D03*
D17*
X003925Y000950D03*
X004925Y000950D03*
X005925Y000950D03*
X006925Y000950D03*
X007925Y000950D03*
X008925Y000950D03*
X009925Y000950D03*
X009925Y001950D03*
X008925Y001950D03*
X007925Y001950D03*
X006925Y001950D03*
X005925Y001950D03*
X004925Y001950D03*
X003925Y001950D03*
X002925Y001950D03*
X002925Y002950D03*
X003925Y002950D03*
X004925Y002950D03*
X005925Y002950D03*
X006925Y002950D03*
X007925Y002950D03*
X008925Y002950D03*
X009925Y002950D03*
D18*
X011675Y008550D03*
X011675Y009550D03*
X011675Y010550D03*
X011675Y011550D03*
X011675Y012550D03*
X011675Y013550D03*
X011675Y015550D03*
D19*
X011675Y014550D03*
D20*
X007725Y012300D03*
X006725Y011850D03*
X007725Y011400D03*
X006725Y010950D03*
X007725Y010500D03*
X006725Y010050D03*
X007725Y009600D03*
X006725Y009150D03*
X007725Y008700D03*
X006725Y008250D03*
X005725Y008700D03*
X005725Y009600D03*
X005725Y010500D03*
X005725Y011400D03*
X005725Y012300D03*
D21*
X006725Y015320D03*
X006725Y005480D03*
D22*
X007925Y006350D02*
X036775Y006350D01*
X036925Y006200D01*
X038425Y006550D02*
X038875Y006100D01*
X038425Y006550D02*
X032275Y006550D01*
X031925Y006900D01*
X027825Y004300D02*
X027825Y004250D01*
X037775Y004250D01*
X038025Y004000D01*
X038025Y003950D01*
X038225Y004150D01*
X038725Y004150D01*
X037575Y003900D02*
X027525Y003900D01*
X027825Y004250D02*
X024475Y004250D01*
X024175Y003950D01*
X015725Y003950D01*
X014875Y003100D01*
X016125Y002350D02*
X016875Y003100D01*
X016125Y002350D02*
X010525Y002350D01*
X009925Y002950D01*
X009425Y003200D02*
X009425Y002450D01*
X007675Y002450D01*
X007425Y002200D01*
X007425Y000950D01*
X006925Y000950D01*
X005425Y000950D02*
X004925Y000950D01*
X004425Y000950D02*
X003925Y000950D01*
X003425Y000950D02*
X002925Y000950D01*
X003425Y000950D02*
X003425Y013950D01*
X006125Y016650D01*
X017075Y016650D01*
X018925Y018500D01*
X026575Y018500D01*
X028425Y016650D01*
X039325Y016650D01*
X039325Y012900D01*
X039075Y012650D01*
X038325Y012650D01*
X037875Y013100D01*
X038325Y013650D02*
X035475Y013650D01*
X033975Y015150D01*
X008525Y015150D01*
X007225Y016450D01*
X006225Y016450D01*
X004425Y014650D01*
X004425Y000950D01*
X005425Y000950D02*
X005425Y003200D01*
X006175Y003950D01*
X006825Y003950D01*
X008325Y005450D01*
X010125Y005450D01*
X009275Y005100D02*
X007775Y003600D01*
X006825Y003600D01*
X006925Y002950D02*
X005925Y002950D01*
X005925Y001950D02*
X006925Y001950D01*
X007925Y002950D02*
X008925Y002950D01*
X009425Y003200D02*
X009825Y003600D01*
X009425Y001450D02*
X008925Y000950D01*
X009425Y001450D02*
X039325Y001450D01*
X039325Y009300D01*
X039075Y009550D01*
X038425Y009550D01*
X037875Y010100D01*
X037875Y011100D02*
X036525Y009750D01*
X015375Y009750D01*
X016275Y009150D02*
X010875Y009150D01*
X008575Y011450D01*
X008125Y011800D02*
X011375Y011800D01*
X011725Y012150D01*
X024975Y012150D01*
X025875Y013050D01*
X025875Y013100D01*
X026375Y012600D01*
X033175Y012600D01*
X033875Y012600D01*
X034375Y012100D01*
X037525Y011750D02*
X027225Y011750D01*
X025925Y010450D01*
X015125Y010450D01*
X014275Y010100D02*
X025875Y010100D01*
X027325Y011550D01*
X038325Y011550D01*
X038875Y012100D01*
X037875Y012100D02*
X037525Y011750D01*
X038875Y013100D02*
X038325Y013650D01*
X034025Y014600D02*
X026375Y014600D01*
X025875Y014100D01*
X025475Y013700D01*
X017075Y013700D01*
X016825Y013950D01*
X005225Y013950D01*
X005225Y010100D01*
X005725Y009600D01*
X006225Y010550D02*
X006225Y013000D01*
X025075Y013000D01*
X026875Y013100D02*
X031125Y013100D01*
X032275Y014250D01*
X034325Y016250D02*
X026225Y016250D01*
X024975Y016250D01*
X024475Y016600D02*
X024475Y015500D01*
X024525Y015500D01*
X024475Y016600D02*
X025225Y017350D01*
X025225Y018150D01*
X025875Y018150D01*
X024175Y018850D02*
X030625Y018850D01*
X033875Y022100D01*
X032875Y022100D02*
X031075Y020300D01*
X007625Y020300D01*
X006375Y019050D01*
X005325Y019050D01*
X005075Y018800D01*
X005075Y017550D01*
X004575Y018550D02*
X004575Y020350D01*
X007075Y022850D01*
X031125Y022850D01*
X031875Y022100D01*
X028875Y022100D02*
X027425Y020650D01*
X011025Y020650D01*
X010925Y021150D02*
X026925Y021150D01*
X027875Y022100D01*
X034325Y016250D02*
X034375Y016300D01*
X038875Y010100D02*
X039525Y009450D01*
X039525Y000950D01*
X009925Y000950D01*
X005725Y006900D02*
X027475Y006900D01*
X026425Y008100D02*
X007225Y008100D01*
X007225Y008650D01*
X006725Y009150D01*
X006725Y010050D02*
X006225Y010550D01*
X007725Y011400D02*
X008125Y011800D01*
X008475Y012800D02*
X009125Y012150D01*
X008475Y012800D02*
X007525Y012800D01*
X006725Y012000D01*
X006725Y011850D01*
X007875Y014150D02*
X007725Y014300D01*
X007875Y014150D02*
X017125Y014150D01*
X017225Y014050D01*
X017225Y017300D02*
X015975Y018550D01*
X005575Y018550D01*
X016275Y009150D02*
X016975Y008450D01*
X037525Y008450D01*
X037875Y008100D01*
X038325Y007650D02*
X007325Y007650D01*
X006725Y008250D01*
X005725Y008700D02*
X005725Y006900D01*
X010925Y007250D02*
X037725Y007250D01*
X037875Y007100D01*
X038325Y007650D02*
X038875Y007100D01*
X038425Y008650D02*
X022625Y008650D01*
X021875Y009400D01*
X027125Y004750D02*
X027475Y005100D01*
X037875Y005100D01*
X037575Y003900D02*
X037575Y002650D01*
X038425Y008650D02*
X038875Y009100D01*
D23*
X034375Y012100D03*
X033175Y012600D03*
X032275Y014250D03*
X034025Y014600D03*
X034375Y016300D03*
X026225Y016250D03*
X024975Y016250D03*
X024525Y015500D03*
X025225Y017350D03*
X025875Y018150D03*
X024175Y018850D03*
X017225Y017300D03*
X017225Y014050D03*
X015125Y010450D03*
X014275Y010100D03*
X015375Y009750D03*
X010925Y007250D03*
X010125Y005450D03*
X009275Y005100D03*
X007925Y006350D03*
X006825Y003600D03*
X009825Y003600D03*
X021875Y009400D03*
X026425Y008100D03*
X027475Y006900D03*
X027125Y004750D03*
X027825Y004300D03*
X027525Y003900D03*
X024475Y004250D03*
X031925Y006900D03*
X036925Y006200D03*
X038725Y004150D03*
X038025Y003950D03*
X037575Y002650D03*
X025075Y013000D03*
X011025Y020650D03*
X010925Y021150D03*
X007725Y014300D03*
X009125Y012150D03*
X008575Y011450D03*
M02*
