%
M48
M72
T01C0.0236
T02C0.0240
T03C0.0276
T04C0.0315
T05C0.0394
T06C0.0400
T07C0.0472
T08C0.1250
T09C0.1280
%
T01
X24625Y16870
X24075Y17770
X21175Y19370
X37425Y3520
T02
X38525Y2520
X36425Y7020
X36075Y7370
X28625Y11170
X30025Y14020
X34025Y12870
X34375Y12220
X35725Y11770
X39325Y13770
X32625Y19170
X27575Y18320
X26275Y18070
X25725Y17520
X23575Y18720
X24875Y19720
X26275Y19720
X25775Y15270
X21225Y13120
X22375Y11970
X18225Y10270
X16925Y8970
X15525Y9870
X15825Y7720
X22675Y8970
X22925Y6720
X13425Y3070
X8725Y5720
X7525Y6420
X7325Y7120
X12975Y12970
X10725Y15270
X12625Y15620
X16325Y17720
X16375Y18470
X17775Y17720
X18175Y16970
X18175Y18920
X17925Y20770
X8475Y20420
X8575Y14320
T03
X25875Y13370
X26875Y13370
X26875Y12370
X25875Y12370
X25875Y11370
X26875Y11370
T04
X16375Y11720
X16375Y10720
X16375Y9720
X16375Y8720
X16375Y7720
X16375Y12720
X16375Y13720
X16375Y14720
X13875Y18870
X12875Y18870
X11875Y18870
X10875Y18870
X9375Y21370
X8375Y21370
X11875Y2370
X12875Y2370
T05
X13875Y2370
X14875Y2370
X15875Y2370
X16875Y2370
X17875Y2370
X18875Y2370
X20875Y2370
X21875Y2370
X22875Y2370
X23875Y2370
X24875Y2370
X25875Y2370
X26875Y2370
X27875Y2370
X29875Y2370
X30875Y2370
X31875Y2370
X32875Y2370
X33875Y2370
X34875Y2370
X35875Y2370
X36875Y2370
X37875Y4370
X38875Y4370
X38875Y5370
X37875Y5370
X37875Y6370
X38875Y6370
X38875Y7370
X37875Y7370
X37875Y8370
X38875Y8370
X38875Y9370
X37875Y9370
X37875Y10370
X38875Y10370
X38875Y11370
X37875Y11370
X37875Y12370
X38875Y12370
X38875Y13370
X37875Y13370
X37875Y14370
X38875Y14370
X38875Y15370
X37875Y15370
X37875Y16370
X38875Y16370
X38875Y17370
X37875Y17370
X37875Y18370
X38875Y18370
X38875Y19370
X37875Y19370
X37875Y20370
X38875Y20370
X38875Y21370
X37875Y21370
X34875Y21370
X33875Y21370
X32875Y21370
X31875Y21370
X30875Y21370
X29875Y21370
X28875Y21370
X27875Y21370
X25875Y21370
X24875Y21370
X23875Y21370
X22875Y21370
X21875Y21370
X20875Y21370
X19875Y21370
X18875Y21370
X17375Y21370
X16375Y21370
X15375Y21370
X14375Y21370
X13375Y21370
X12375Y21370
X11375Y21370
X10375Y21370
X10375Y21370
T06
X5575Y17820
X4575Y17820
X3575Y17820
X4075Y16820
X5075Y16820
X6075Y16820
X11625Y12220
X12625Y12220
X13625Y12220
X13625Y11220
X12625Y11220
X11625Y11220
X11625Y10220
X12625Y10220
X13625Y10220
X13625Y9220
X12625Y9220
X11625Y9220
X11625Y8220
X12625Y8220
X13625Y8220
X13625Y7220
X12625Y7220
X11625Y7220
X11625Y6220
X12625Y6220
X13625Y6220
X13625Y5220
X12625Y5220
X11625Y5220
T07
X7725Y7970
X6725Y8420
X7725Y8870
X6725Y9320
X7725Y9770
X6725Y10220
X7725Y10670
X6725Y11120
X7725Y11570
X5725Y11570
X5725Y10670
X5725Y9770
X5725Y8870
X5725Y7970
X6725Y7520
T08
X6725Y4750
X6725Y14590
X25875Y4720
X27875Y15720
T09
X6825Y20320
X2825Y20320
M30
