G75*
G70*
%OFA0B0*%
%FSLAX24Y24*%
%IPPOS*%
%LPD*%
%AMOC8*
5,1,8,0,0,1.08239X$1,22.5*
%
%ADD10C,0.0157*%
%ADD11C,0.0305*%
%ADD12C,0.0276*%
%ADD13R,0.0118X0.0315*%
%ADD14R,0.0315X0.0118*%
%ADD15R,0.0110X0.0256*%
%ADD16R,0.0256X0.0110*%
%ADD17R,0.0394X0.0433*%
%ADD18R,0.0433X0.0394*%
%ADD19R,0.0413X0.0425*%
%ADD20R,0.0425X0.0413*%
D10*
X031347Y020035D02*
X031505Y020035D01*
X031505Y019561D01*
X031347Y019561D01*
X031347Y020035D01*
X031347Y019717D02*
X031505Y019717D01*
X031505Y019873D02*
X031347Y019873D01*
X031347Y020029D02*
X031505Y020029D01*
X031780Y019561D02*
X031938Y019561D01*
X031780Y019561D02*
X031780Y020035D01*
X031938Y020035D01*
X031938Y019561D01*
X031938Y019717D02*
X031780Y019717D01*
X031780Y019873D02*
X031938Y019873D01*
X031938Y020029D02*
X031780Y020029D01*
X032213Y019561D02*
X032371Y019561D01*
X032213Y019561D02*
X032213Y020035D01*
X032371Y020035D01*
X032371Y019561D01*
X032371Y019717D02*
X032213Y019717D01*
X032213Y019873D02*
X032371Y019873D01*
X032371Y020029D02*
X032213Y020029D01*
X032646Y019561D02*
X032804Y019561D01*
X032646Y019561D02*
X032646Y020035D01*
X032804Y020035D01*
X032804Y019561D01*
X032804Y019717D02*
X032646Y019717D01*
X032646Y019873D02*
X032804Y019873D01*
X032804Y020029D02*
X032646Y020029D01*
X033079Y019561D02*
X033237Y019561D01*
X033079Y019561D02*
X033079Y020035D01*
X033237Y020035D01*
X033237Y019561D01*
X033237Y019717D02*
X033079Y019717D01*
X033079Y019873D02*
X033237Y019873D01*
X033237Y020029D02*
X033079Y020029D01*
X033512Y019561D02*
X033670Y019561D01*
X033512Y019561D02*
X033512Y020035D01*
X033670Y020035D01*
X033670Y019561D01*
X033670Y019717D02*
X033512Y019717D01*
X033512Y019873D02*
X033670Y019873D01*
X033670Y020029D02*
X033512Y020029D01*
X033945Y019561D02*
X034103Y019561D01*
X033945Y019561D02*
X033945Y020035D01*
X034103Y020035D01*
X034103Y019561D01*
X034103Y019717D02*
X033945Y019717D01*
X033945Y019873D02*
X034103Y019873D01*
X034103Y020029D02*
X033945Y020029D01*
X034378Y019561D02*
X034536Y019561D01*
X034378Y019561D02*
X034378Y020035D01*
X034536Y020035D01*
X034536Y019561D01*
X034536Y019717D02*
X034378Y019717D01*
X034378Y019873D02*
X034536Y019873D01*
X034536Y020029D02*
X034378Y020029D01*
D11*
X035117Y018415D02*
X035423Y018415D01*
X035117Y018415D02*
X035117Y019213D01*
X035423Y019213D01*
X035423Y018415D01*
X035423Y018719D02*
X035117Y018719D01*
X035117Y019023D02*
X035423Y019023D01*
X030644Y019458D02*
X030318Y019458D01*
X030318Y019764D01*
X030644Y019764D01*
X030644Y019458D01*
X030644Y019762D02*
X030318Y019762D01*
X035117Y015521D02*
X035423Y015521D01*
X035117Y015521D02*
X035117Y016043D01*
X035423Y016043D01*
X035423Y015521D01*
X035423Y015825D02*
X035117Y015825D01*
D12*
X035163Y013676D02*
X035437Y013676D01*
X035163Y013676D02*
X035163Y014148D01*
X035437Y014148D01*
X035437Y013676D01*
X035437Y013951D02*
X035163Y013951D01*
X029689Y013282D02*
X029415Y013282D01*
X029415Y013754D01*
X029689Y013754D01*
X029689Y013282D01*
X029689Y013557D02*
X029415Y013557D01*
X029413Y014956D02*
X029139Y014956D01*
X029139Y015860D01*
X029413Y015860D01*
X029413Y014956D01*
X029413Y015231D02*
X029139Y015231D01*
X029139Y015506D02*
X029413Y015506D01*
X029413Y015781D02*
X029139Y015781D01*
X029139Y018716D02*
X029413Y018716D01*
X029139Y018716D02*
X029139Y019620D01*
X029413Y019620D01*
X029413Y018716D01*
X029413Y018991D02*
X029139Y018991D01*
X029139Y019266D02*
X029413Y019266D01*
X029413Y019541D02*
X029139Y019541D01*
D13*
X019517Y018607D03*
X019320Y018607D03*
X019123Y018607D03*
X018927Y018607D03*
X018730Y018607D03*
X018533Y018607D03*
X018533Y017032D03*
X018730Y017032D03*
X018927Y017032D03*
X019123Y017032D03*
X019320Y017032D03*
X019517Y017032D03*
X038378Y002972D03*
X038575Y002972D03*
X038772Y002972D03*
X038772Y001968D03*
X038575Y001968D03*
X038378Y001968D03*
D14*
X038044Y002076D03*
X038044Y002273D03*
X038044Y002470D03*
X038044Y002666D03*
X038044Y002863D03*
X039106Y002863D03*
X039106Y002666D03*
X039106Y002470D03*
X039106Y002273D03*
X039106Y002076D03*
X019812Y017327D03*
X019812Y017524D03*
X019812Y017721D03*
X019812Y017918D03*
X019812Y018115D03*
X019812Y018312D03*
X018238Y018312D03*
X018238Y018115D03*
X018238Y017918D03*
X018238Y017721D03*
X018238Y017524D03*
X018238Y017327D03*
D15*
X025330Y016880D03*
X025527Y016880D03*
X025723Y016880D03*
X025920Y016880D03*
X025920Y017959D03*
X025723Y017959D03*
X025527Y017959D03*
X025330Y017959D03*
D16*
X025086Y017715D03*
X025086Y017518D03*
X025086Y017321D03*
X025086Y017124D03*
X026164Y017124D03*
X026164Y017321D03*
X026164Y017518D03*
X026164Y017715D03*
D17*
X025240Y015770D03*
X025910Y015770D03*
D18*
X024075Y018185D03*
X024075Y018854D03*
D19*
X025231Y019220D03*
X025919Y019220D03*
X026781Y019220D03*
X027469Y019220D03*
X019419Y016020D03*
X018731Y016020D03*
X018531Y019420D03*
X019219Y019420D03*
D20*
X016825Y018064D03*
X016825Y017375D03*
X021275Y017125D03*
X021275Y017814D03*
X027125Y017664D03*
X027125Y016975D03*
M02*
