G75*
G70*
%OFA0B0*%
%FSLAX24Y24*%
%IPPOS*%
%LPD*%
%AMOC8*
5,1,8,0,0,1.08239X$1,22.5*
%
%ADD10R,0.0030X0.7950*%
%ADD11R,0.0030X0.8190*%
%ADD12R,0.0030X0.8400*%
%ADD13R,0.0030X0.8610*%
%ADD14R,0.0030X0.8730*%
%ADD15R,0.0030X0.8820*%
%ADD16R,0.0030X0.0990*%
%ADD17R,0.0030X0.7860*%
%ADD18R,0.0030X0.0930*%
%ADD19R,0.0030X0.0780*%
%ADD20R,0.0030X0.0690*%
%ADD21R,0.0030X0.0120*%
%ADD22R,0.0030X0.0630*%
%ADD23R,0.0030X0.0210*%
%ADD24R,0.0030X0.0870*%
%ADD25R,0.0030X0.0810*%
%ADD26R,0.0030X0.1260*%
%ADD27R,0.0030X0.0480*%
%ADD28R,0.0030X0.0960*%
%ADD29R,0.0030X0.0090*%
%ADD30R,0.0030X0.0600*%
%ADD31R,0.0030X0.0150*%
%ADD32R,0.0030X0.0720*%
%ADD33R,0.0030X0.0660*%
%ADD34R,0.0030X0.0030*%
%ADD35R,0.0030X0.0060*%
%ADD36R,0.0030X0.0570*%
%ADD37R,0.0030X0.0540*%
%ADD38R,0.0030X0.1020*%
%ADD39R,0.0030X0.1050*%
%ADD40R,0.0030X0.1080*%
%ADD41R,0.0030X0.1110*%
%ADD42R,0.0030X0.0750*%
%ADD43R,0.0030X0.1170*%
%ADD44R,0.0030X0.1230*%
%ADD45R,0.0030X0.0840*%
%ADD46R,0.0030X0.1290*%
%ADD47R,0.0030X0.1350*%
%ADD48R,0.0030X0.1410*%
%ADD49R,0.0030X1.0140*%
%ADD50R,0.0030X1.0200*%
%ADD51R,0.0030X1.0230*%
%ADD52R,0.0030X1.0290*%
%ADD53R,0.0030X0.8550*%
%ADD54R,0.0030X0.4170*%
%ADD55R,0.0030X0.2430*%
%ADD56R,0.0030X0.3810*%
%ADD57R,0.0030X0.0450*%
%ADD58R,0.0030X0.1200*%
%ADD59R,0.0030X0.0240*%
%ADD60R,0.0030X0.0270*%
%ADD61R,0.0030X0.0510*%
%ADD62R,0.0030X0.0180*%
%ADD63R,0.0030X0.1320*%
%ADD64R,0.0030X0.0300*%
%ADD65R,0.0030X0.1380*%
%ADD66R,0.0030X0.0330*%
%ADD67R,0.0030X0.0360*%
%ADD68R,0.0030X0.0390*%
%ADD69R,0.0030X0.1470*%
%ADD70R,0.0030X0.0420*%
%ADD71R,0.0030X0.1500*%
%ADD72R,0.0030X0.1530*%
%ADD73R,0.0030X0.1560*%
%ADD74R,0.0030X0.1590*%
%ADD75R,0.0030X0.1620*%
%ADD76R,0.0030X0.1650*%
%ADD77R,0.0030X0.1680*%
%ADD78R,0.0030X0.1710*%
%ADD79R,0.0030X0.1740*%
%ADD80R,0.0030X0.1770*%
%ADD81R,0.0030X0.1800*%
%ADD82R,0.0030X0.1830*%
%ADD83R,0.0030X0.1860*%
%ADD84R,0.0030X0.1890*%
%ADD85R,0.0030X0.1920*%
%ADD86R,0.0030X0.1950*%
%ADD87R,0.0030X0.1980*%
%ADD88R,0.0030X0.2010*%
%ADD89R,0.0030X0.2040*%
%ADD90R,0.0030X0.2070*%
%ADD91R,0.0030X0.2100*%
%ADD92R,0.0030X0.2130*%
%ADD93R,0.0030X0.2160*%
%ADD94R,0.0030X0.2310*%
%ADD95R,0.0030X0.2460*%
%ADD96R,0.0030X0.3000*%
%ADD97R,0.0030X0.3150*%
%ADD98R,0.0030X0.3330*%
%ADD99R,0.0030X0.3510*%
%ADD100R,0.0030X0.3930*%
%ADD101R,0.0030X0.2280*%
%ADD102R,0.0030X0.2820*%
%ADD103R,0.0030X0.2850*%
%ADD104R,0.0030X0.3090*%
%ADD105R,0.0030X0.1140*%
%ADD106R,0.0030X0.0900*%
%ADD107R,0.0030X0.1440*%
%ADD108R,0.0030X0.2730*%
%ADD109R,0.0030X0.2700*%
%ADD110R,0.0030X0.2220*%
%ADD111R,0.0030X0.3120*%
%ADD112R,0.0030X0.3540*%
%ADD113R,0.0030X0.2520*%
%ADD114R,0.0030X0.2610*%
%ADD115R,0.0030X0.2670*%
%ADD116R,0.0030X0.2760*%
%ADD117R,0.0030X0.2790*%
%ADD118R,0.0030X0.2880*%
%ADD119R,0.0030X0.2940*%
%ADD120R,0.0030X0.3030*%
%ADD121R,0.0030X0.3180*%
%ADD122R,0.0030X0.3240*%
%ADD123R,0.0030X0.3900*%
%ADD124R,0.0030X0.3630*%
%ADD125R,0.0030X0.3390*%
%ADD126R,0.0030X0.2250*%
%ADD127R,0.0030X0.2340*%
%ADD128R,0.0030X0.2580*%
%ADD129R,0.0030X0.2640*%
%ADD130R,0.0030X0.3690*%
%ADD131R,0.0030X0.3780*%
%ADD132R,0.0030X0.3840*%
%ADD133R,0.0030X0.3480*%
%ADD134C,0.0090*%
D10*
X027835Y010100D03*
D11*
X027865Y010100D03*
D12*
X027895Y010115D03*
D13*
X027925Y010130D03*
D14*
X027955Y010130D03*
D15*
X027985Y010115D03*
D16*
X028795Y010130D03*
X031615Y007190D03*
X028465Y005570D03*
X028015Y014090D03*
X028105Y014240D03*
X028135Y014270D03*
X032215Y015410D03*
D17*
X028015Y009575D03*
D18*
X031645Y007160D03*
X033145Y008690D03*
X035665Y009050D03*
X028375Y005600D03*
X028045Y014150D03*
D19*
X028225Y013145D03*
X028045Y013025D03*
X029485Y013055D03*
X029515Y013055D03*
X029545Y013055D03*
X029575Y013055D03*
X029605Y013055D03*
X029635Y013085D03*
X029665Y013085D03*
X029695Y013085D03*
X029725Y013085D03*
X029755Y013085D03*
X029785Y013115D03*
X029815Y013115D03*
X029845Y013115D03*
X029875Y013115D03*
X029935Y013145D03*
X029965Y013145D03*
X029995Y013145D03*
X030025Y013145D03*
X029155Y010115D03*
X029125Y010115D03*
X029095Y010115D03*
X029065Y010115D03*
X029365Y008915D03*
X028075Y009035D03*
X031255Y009275D03*
X031285Y009275D03*
X031315Y009275D03*
X032485Y010205D03*
X035395Y009275D03*
X031795Y006995D03*
X031765Y007025D03*
X028285Y005645D03*
X032845Y017165D03*
D20*
X031975Y015440D03*
X030475Y013190D03*
X030445Y013190D03*
X030415Y013190D03*
X030385Y013190D03*
X030355Y013190D03*
X028255Y013100D03*
X028075Y013040D03*
X028045Y012050D03*
X028495Y012080D03*
X028525Y010970D03*
X028495Y010040D03*
X028285Y009950D03*
X028255Y009920D03*
X028225Y009920D03*
X028195Y009920D03*
X028165Y009920D03*
X028105Y009890D03*
X028075Y009890D03*
X028045Y009890D03*
X028135Y009050D03*
X028165Y009050D03*
X028285Y009050D03*
X028525Y008990D03*
X032245Y008240D03*
X031855Y006950D03*
X028195Y005690D03*
X035365Y009350D03*
X032755Y010580D03*
X032725Y010580D03*
X032455Y010220D03*
D21*
X033295Y010235D03*
X034135Y009515D03*
X033535Y009305D03*
X034825Y008615D03*
X033925Y007985D03*
X033895Y007985D03*
X033865Y007985D03*
X030835Y010145D03*
X030805Y010145D03*
X030775Y010145D03*
X030745Y010145D03*
X030655Y010115D03*
X030625Y010115D03*
X030595Y010115D03*
X030505Y010085D03*
X030475Y010085D03*
X030445Y010085D03*
X030355Y010055D03*
X030325Y010055D03*
X030145Y010625D03*
X030265Y010655D03*
X030355Y010685D03*
X030385Y010685D03*
X030415Y010685D03*
X030805Y010775D03*
X030925Y010805D03*
X031075Y010835D03*
X030865Y011435D03*
X030835Y011435D03*
X030715Y011405D03*
X030685Y011405D03*
X030595Y011375D03*
X030565Y011375D03*
X030535Y011375D03*
X030445Y011345D03*
X030415Y011345D03*
X030385Y011345D03*
X030295Y011315D03*
X030265Y011315D03*
X030235Y011315D03*
X030175Y011285D03*
X030145Y011285D03*
X030115Y011285D03*
X030085Y011285D03*
X030025Y011255D03*
X029995Y011255D03*
X029965Y011255D03*
X029935Y011255D03*
X029905Y011225D03*
X029875Y011225D03*
X029845Y011225D03*
X029815Y011225D03*
X029785Y011225D03*
X029755Y011195D03*
X029725Y011195D03*
X029695Y011195D03*
X029665Y011195D03*
X029635Y011195D03*
X029605Y011165D03*
X029575Y011165D03*
X029545Y011165D03*
X029515Y011165D03*
X029485Y011165D03*
X028045Y011405D03*
X030985Y011465D03*
X028345Y013655D03*
X031435Y014165D03*
X031465Y014165D03*
X031495Y014165D03*
X028885Y007835D03*
X028855Y007835D03*
X028825Y007835D03*
X028765Y007805D03*
X028525Y007535D03*
X028765Y007295D03*
X028795Y007295D03*
X028855Y007325D03*
X028885Y007325D03*
X028915Y007325D03*
X028945Y007325D03*
X029005Y007355D03*
X029035Y007355D03*
X029065Y007355D03*
X029095Y007355D03*
X029125Y007355D03*
X029155Y007385D03*
X029185Y007385D03*
X029425Y006965D03*
X029305Y006935D03*
X029185Y006905D03*
X029095Y006875D03*
X029065Y006875D03*
X028975Y006845D03*
X028495Y006395D03*
X032335Y003425D03*
X035395Y004925D03*
X035425Y004895D03*
D22*
X031945Y006890D03*
X030295Y006950D03*
X030265Y006950D03*
X030235Y006950D03*
X030205Y006950D03*
X030145Y006920D03*
X030115Y006920D03*
X028525Y007010D03*
X028495Y007010D03*
X028465Y007010D03*
X028435Y007010D03*
X028165Y006980D03*
X028135Y008000D03*
X028105Y008000D03*
X028225Y008030D03*
X028285Y008030D03*
X028465Y009020D03*
X028045Y010970D03*
X028075Y012020D03*
X028105Y012020D03*
X028135Y012020D03*
X028315Y012050D03*
X028345Y012050D03*
X028375Y012050D03*
X028405Y012050D03*
X028375Y013070D03*
X028285Y013070D03*
X028465Y013070D03*
X030535Y013190D03*
X030565Y013190D03*
X030595Y013190D03*
X030625Y013190D03*
X030295Y014600D03*
X030355Y014630D03*
X030415Y014660D03*
X030475Y014690D03*
X030535Y014720D03*
X030595Y014750D03*
X030655Y014780D03*
X030715Y014810D03*
X030775Y014840D03*
X030835Y014870D03*
X030865Y014900D03*
X030895Y014900D03*
X030925Y014930D03*
X030955Y014930D03*
X030985Y014960D03*
X031015Y014960D03*
X031045Y014990D03*
X031075Y014990D03*
X031105Y015020D03*
X031135Y015020D03*
X031165Y015050D03*
X031195Y015050D03*
X031255Y015080D03*
X031315Y015110D03*
X031375Y015140D03*
X032395Y016610D03*
X032425Y016640D03*
X028825Y014900D03*
X033175Y011000D03*
X033055Y008690D03*
X028165Y005720D03*
D23*
X030355Y007190D03*
X030445Y007220D03*
X030475Y007220D03*
X030505Y007220D03*
X030565Y007250D03*
X030595Y007250D03*
X030625Y007250D03*
X030745Y007280D03*
X029185Y007940D03*
X029035Y007910D03*
X029005Y007910D03*
X028975Y007880D03*
X032995Y009680D03*
X033445Y009200D03*
X034285Y009320D03*
X034315Y009290D03*
X034525Y008960D03*
X034735Y008840D03*
X033715Y008000D03*
X033205Y006890D03*
X033175Y006890D03*
X033145Y006860D03*
X032395Y003530D03*
X032395Y010250D03*
X031405Y010880D03*
X031375Y010880D03*
X031345Y010880D03*
X029785Y010520D03*
X029695Y010490D03*
X028045Y010460D03*
X031645Y014210D03*
X031675Y014210D03*
D24*
X028825Y010100D03*
X028045Y009020D03*
X031915Y008990D03*
X035455Y009170D03*
X035515Y009140D03*
X035545Y009110D03*
X035605Y009080D03*
X035605Y007370D03*
X035635Y007280D03*
X028345Y005600D03*
D25*
X028045Y007970D03*
X029335Y008900D03*
X029395Y008930D03*
X029425Y008930D03*
X029455Y008930D03*
X029485Y008930D03*
X029515Y008960D03*
X029545Y008960D03*
X029575Y008960D03*
X029605Y008960D03*
X029635Y008960D03*
X029665Y008990D03*
X029695Y008990D03*
X029725Y008990D03*
X029755Y008990D03*
X029785Y008990D03*
X029815Y009020D03*
X029845Y009020D03*
X029875Y009020D03*
X029905Y009020D03*
X029995Y009050D03*
X030025Y009050D03*
X030055Y009050D03*
X030145Y009080D03*
X030175Y009080D03*
X030205Y009080D03*
X030295Y009110D03*
X030325Y009110D03*
X030445Y009140D03*
X030475Y009140D03*
X030625Y009170D03*
X029035Y010100D03*
X029005Y010100D03*
X028975Y010100D03*
X028945Y010100D03*
X033115Y008690D03*
D26*
X031525Y007385D03*
X028855Y005435D03*
X028825Y005435D03*
X028045Y006755D03*
X032185Y005255D03*
X032215Y005255D03*
X032245Y005255D03*
X028405Y014405D03*
D27*
X029035Y015035D03*
X029065Y015035D03*
X029125Y015065D03*
X029155Y015065D03*
X029185Y015065D03*
X029245Y015095D03*
X029275Y015095D03*
X029305Y015095D03*
X029335Y015095D03*
X029365Y015125D03*
X029395Y015125D03*
X029425Y015125D03*
X029455Y015125D03*
X029545Y015155D03*
X029575Y015155D03*
X029605Y015155D03*
X029695Y015185D03*
X029725Y015185D03*
X029845Y015215D03*
X030265Y015395D03*
X030325Y015425D03*
X030385Y015455D03*
X030445Y015485D03*
X030595Y015575D03*
X030655Y015605D03*
X030715Y015635D03*
X030775Y015665D03*
X030835Y015695D03*
X030895Y015725D03*
X030925Y015755D03*
X030955Y015755D03*
X030985Y015785D03*
X031045Y015815D03*
X031105Y015845D03*
X031165Y015875D03*
X031195Y015905D03*
X031225Y015905D03*
X031255Y015935D03*
X031285Y015935D03*
X031315Y015965D03*
X031345Y015965D03*
X031375Y015995D03*
X031405Y015995D03*
X031435Y016025D03*
X031465Y016025D03*
X031495Y016055D03*
X031525Y016085D03*
X031555Y016085D03*
X031585Y016115D03*
X031615Y016115D03*
X031645Y016145D03*
X031675Y016145D03*
X031705Y016175D03*
X031735Y016175D03*
X031765Y016205D03*
X031825Y016235D03*
X031885Y016265D03*
X031945Y016295D03*
X032005Y016325D03*
X032035Y016355D03*
X032125Y016415D03*
X032275Y015695D03*
X031225Y013265D03*
X033265Y011015D03*
X035245Y009545D03*
X035275Y009515D03*
X035965Y009155D03*
X036025Y009125D03*
X036085Y009095D03*
X032425Y008015D03*
X032395Y008045D03*
X032395Y006755D03*
X032425Y006755D03*
X032365Y006755D03*
X032335Y006755D03*
X028885Y008885D03*
X028045Y005825D03*
X028075Y005765D03*
X032875Y004145D03*
D28*
X028435Y005585D03*
X028405Y005585D03*
X035665Y007205D03*
X032905Y010445D03*
X028075Y014195D03*
D29*
X028375Y013610D03*
X028375Y012590D03*
X028465Y011570D03*
X028495Y011570D03*
X028075Y011420D03*
X029425Y011150D03*
X029455Y011150D03*
X030055Y011270D03*
X030205Y011300D03*
X030325Y011330D03*
X030355Y011330D03*
X030475Y011360D03*
X030505Y011360D03*
X030625Y011390D03*
X030655Y011390D03*
X030745Y011420D03*
X030775Y011420D03*
X030805Y011420D03*
X030895Y011450D03*
X030925Y011450D03*
X030955Y011450D03*
X031015Y011480D03*
X031045Y011480D03*
X030955Y010160D03*
X030925Y010160D03*
X030895Y010160D03*
X030865Y010160D03*
X030715Y010130D03*
X030685Y010130D03*
X030565Y010100D03*
X030535Y010100D03*
X030415Y010070D03*
X030385Y010070D03*
X030295Y010040D03*
X030265Y010040D03*
X028105Y010460D03*
X028345Y008600D03*
X028195Y008480D03*
X028225Y008450D03*
X028795Y007820D03*
X029215Y007400D03*
X028945Y006830D03*
X028915Y006800D03*
X028885Y006800D03*
X028855Y006770D03*
X028795Y006740D03*
X028465Y006380D03*
X028435Y006380D03*
X028405Y006380D03*
X030325Y006680D03*
X030385Y006710D03*
X030415Y006710D03*
X033355Y006980D03*
X033385Y007010D03*
X033955Y007970D03*
X034885Y008480D03*
X034855Y008540D03*
X034465Y008990D03*
X034465Y009230D03*
X034435Y009230D03*
X033565Y009350D03*
X033265Y010250D03*
X036475Y008330D03*
X036505Y006650D03*
X036535Y006620D03*
X035455Y004880D03*
X031405Y014150D03*
X031375Y014150D03*
D30*
X030805Y014855D03*
X030745Y014825D03*
X030685Y014795D03*
X030625Y014765D03*
X030565Y014735D03*
X030505Y014705D03*
X030445Y014675D03*
X030385Y014645D03*
X030325Y014615D03*
X030265Y014585D03*
X030205Y014555D03*
X030145Y014525D03*
X028855Y014945D03*
X030655Y013205D03*
X030685Y013205D03*
X030715Y013205D03*
X030745Y013205D03*
X030775Y013205D03*
X028465Y012065D03*
X028435Y012065D03*
X028285Y012035D03*
X028255Y012035D03*
X028225Y012035D03*
X028195Y012035D03*
X028165Y012035D03*
X028165Y013055D03*
X028195Y013055D03*
X028135Y013055D03*
X028405Y013085D03*
X028435Y013085D03*
X028435Y010955D03*
X028405Y010955D03*
X028375Y010955D03*
X028345Y010955D03*
X028315Y010955D03*
X028285Y010955D03*
X028255Y010955D03*
X028225Y010955D03*
X028075Y010955D03*
X028465Y010955D03*
X028495Y010955D03*
X033205Y010985D03*
X035335Y009395D03*
X032305Y008135D03*
X032005Y006875D03*
X031975Y006875D03*
X032035Y006845D03*
X030175Y006935D03*
X030085Y006905D03*
X030055Y006905D03*
X030025Y006905D03*
X029995Y006905D03*
X029965Y006875D03*
X029935Y006875D03*
X029905Y006875D03*
X029875Y006875D03*
X029815Y006845D03*
X029785Y006845D03*
X029665Y006815D03*
X028405Y006995D03*
X028375Y006995D03*
X028345Y006995D03*
X028315Y006995D03*
X028285Y006995D03*
X028255Y006995D03*
X028225Y006995D03*
X028195Y006995D03*
X028135Y006965D03*
X028105Y006965D03*
X028165Y007985D03*
X028195Y007985D03*
X028315Y008015D03*
X028345Y008015D03*
X028375Y008015D03*
X028405Y008015D03*
X028435Y008015D03*
X028465Y008045D03*
X028135Y005735D03*
X032335Y016565D03*
X032365Y016595D03*
D31*
X031585Y014180D03*
X031555Y014180D03*
X031525Y014180D03*
X028525Y011570D03*
X029875Y010550D03*
X029935Y010580D03*
X029965Y010580D03*
X029995Y010580D03*
X030055Y010610D03*
X030085Y010610D03*
X030115Y010610D03*
X030175Y010640D03*
X030205Y010640D03*
X030235Y010640D03*
X030295Y010670D03*
X030325Y010670D03*
X030445Y010700D03*
X030475Y010700D03*
X030505Y010700D03*
X030535Y010700D03*
X030595Y010730D03*
X030625Y010730D03*
X030655Y010730D03*
X030715Y010760D03*
X030745Y010760D03*
X030775Y010760D03*
X030835Y010790D03*
X030865Y010790D03*
X030895Y010790D03*
X030955Y010820D03*
X030985Y010820D03*
X031015Y010820D03*
X031045Y010820D03*
X031105Y010850D03*
X031135Y010850D03*
X031165Y010850D03*
X031195Y010850D03*
X033325Y010220D03*
X033565Y010160D03*
X034165Y009470D03*
X034195Y009440D03*
X034795Y008690D03*
X033835Y007970D03*
X033805Y007970D03*
X033775Y007970D03*
X033325Y006950D03*
X033295Y006950D03*
X033265Y006920D03*
X036475Y006680D03*
X032365Y003470D03*
X028525Y006380D03*
X029005Y006860D03*
X029035Y006860D03*
X029125Y006890D03*
X029155Y006890D03*
X029215Y006920D03*
X029245Y006920D03*
X029275Y006920D03*
X029335Y006950D03*
X029365Y006950D03*
X029395Y006950D03*
X029455Y006980D03*
X029485Y006980D03*
X029515Y006980D03*
X029545Y007010D03*
X029575Y007010D03*
X029605Y007010D03*
X029635Y007010D03*
X028975Y007340D03*
X028825Y007310D03*
X028915Y007850D03*
X028075Y010460D03*
D32*
X028405Y009995D03*
X028375Y009965D03*
X028315Y009935D03*
X028525Y010025D03*
X029425Y010175D03*
X029455Y010175D03*
X029485Y010175D03*
X029545Y010205D03*
X029575Y010205D03*
X029605Y010205D03*
X028405Y009065D03*
X028375Y009065D03*
X028105Y009035D03*
X028525Y008075D03*
X028075Y007985D03*
X028225Y005675D03*
X033355Y008165D03*
X033085Y008675D03*
X028525Y012095D03*
X028495Y013085D03*
X030205Y013175D03*
X030235Y013175D03*
X030265Y013175D03*
X030295Y013175D03*
X030325Y013175D03*
X028825Y014165D03*
D33*
X030505Y013205D03*
X028105Y013055D03*
X031225Y015065D03*
X031285Y015095D03*
X031345Y015125D03*
X031405Y015155D03*
X031435Y015185D03*
X031465Y015185D03*
X031495Y015215D03*
X031525Y015215D03*
X031555Y015245D03*
X031585Y015245D03*
X031615Y015275D03*
X031645Y015275D03*
X031675Y015305D03*
X031705Y015305D03*
X031735Y015335D03*
X031765Y015335D03*
X031795Y015365D03*
X031825Y015365D03*
X031855Y015395D03*
X031885Y015395D03*
X031915Y015425D03*
X031945Y015425D03*
X032455Y016655D03*
X028465Y010025D03*
X028435Y010025D03*
X028135Y009905D03*
X028195Y009065D03*
X028225Y009065D03*
X028255Y009065D03*
X028435Y009035D03*
X028495Y009005D03*
X028495Y008045D03*
X028255Y008045D03*
X028075Y006965D03*
X031885Y006935D03*
X031915Y006905D03*
X032275Y008165D03*
X032995Y004355D03*
D34*
X032305Y003350D03*
X035545Y004820D03*
X036565Y006590D03*
X036595Y006590D03*
X034165Y008000D03*
X034135Y008000D03*
X034105Y008000D03*
X034435Y008990D03*
X034525Y009200D03*
X034045Y009620D03*
X034015Y009650D03*
X033625Y009440D03*
X031075Y011480D03*
X028405Y011570D03*
X028375Y011570D03*
X028345Y011570D03*
X028315Y011570D03*
X028285Y011570D03*
X028225Y011420D03*
X028195Y011420D03*
X028165Y011420D03*
X028135Y011420D03*
X028135Y010460D03*
X028255Y012530D03*
X028285Y012560D03*
X028405Y013580D03*
X031285Y014120D03*
X030445Y007640D03*
X030415Y007640D03*
X030385Y007640D03*
X030295Y007610D03*
X030265Y007610D03*
X030235Y007610D03*
X030205Y007610D03*
X030175Y007580D03*
X030145Y007580D03*
X030115Y007580D03*
X030085Y007580D03*
X030055Y007580D03*
X030025Y007550D03*
X029995Y007550D03*
X029965Y007550D03*
X029935Y007550D03*
X029905Y007550D03*
X029815Y007520D03*
X029785Y007520D03*
X029245Y007430D03*
X028465Y007520D03*
X028435Y007520D03*
X028405Y007520D03*
X028375Y007520D03*
X028255Y007490D03*
X028225Y007490D03*
X028195Y007490D03*
X028165Y007490D03*
X028165Y006500D03*
X028195Y006500D03*
X028225Y006500D03*
X028105Y006470D03*
X028075Y006470D03*
X028255Y006350D03*
X028225Y006200D03*
X028195Y006200D03*
X028165Y006200D03*
X028135Y006200D03*
X028105Y006200D03*
X029275Y006470D03*
X030595Y006740D03*
D35*
X030565Y006725D03*
X030535Y006725D03*
X030505Y006725D03*
X030475Y006725D03*
X030445Y006725D03*
X030355Y006695D03*
X029635Y006545D03*
X029605Y006545D03*
X029575Y006545D03*
X029545Y006545D03*
X029515Y006515D03*
X029485Y006515D03*
X029455Y006515D03*
X029425Y006515D03*
X029395Y006515D03*
X029365Y006485D03*
X029335Y006485D03*
X029305Y006485D03*
X028825Y006755D03*
X028765Y006725D03*
X028135Y006485D03*
X028285Y006365D03*
X028315Y006365D03*
X028345Y006365D03*
X028375Y006365D03*
X028075Y006185D03*
X028285Y007505D03*
X028315Y007505D03*
X028345Y007505D03*
X028495Y007535D03*
X029845Y007535D03*
X029875Y007535D03*
X028405Y008525D03*
X028375Y008555D03*
X028165Y008495D03*
X030235Y010025D03*
X029395Y011135D03*
X028435Y011555D03*
X028105Y011435D03*
X028165Y012545D03*
X028195Y012545D03*
X028195Y013535D03*
X031315Y014135D03*
X031345Y014135D03*
X032965Y010175D03*
X033235Y010295D03*
X033595Y009395D03*
X034075Y009575D03*
X034105Y009545D03*
X034495Y009215D03*
X034555Y009185D03*
X034585Y009155D03*
X034075Y007985D03*
X034045Y007985D03*
X034015Y007985D03*
X033985Y007985D03*
X033445Y007055D03*
X033415Y007025D03*
X036505Y008285D03*
X035485Y004865D03*
X035515Y004835D03*
D36*
X032965Y004280D03*
X032065Y006830D03*
X032335Y008090D03*
X033385Y008090D03*
X029845Y006860D03*
X029755Y006830D03*
X029725Y006830D03*
X029695Y006830D03*
X029305Y009020D03*
X029275Y009020D03*
X029245Y009020D03*
X029155Y008990D03*
X029125Y008990D03*
X029095Y008990D03*
X029035Y008960D03*
X028195Y010940D03*
X028165Y010940D03*
X028135Y010940D03*
X028105Y010940D03*
X030805Y013220D03*
X030835Y013220D03*
X030865Y013220D03*
X030895Y013220D03*
X030925Y013220D03*
X030235Y014570D03*
X030175Y014540D03*
X030115Y014510D03*
X030085Y014510D03*
X030025Y014480D03*
X028885Y014960D03*
X028855Y014240D03*
X032275Y016520D03*
X032305Y016550D03*
X033235Y011000D03*
D37*
X032425Y010235D03*
X033325Y009125D03*
X032365Y008075D03*
X032095Y006815D03*
X032155Y006785D03*
X032185Y006785D03*
X029215Y009005D03*
X029185Y009005D03*
X029065Y008975D03*
X029005Y008945D03*
X029635Y010325D03*
X030955Y013235D03*
X030985Y013235D03*
X031015Y013235D03*
X031045Y013235D03*
X029575Y014375D03*
X029695Y014405D03*
X029725Y014405D03*
X029815Y014435D03*
X029845Y014435D03*
X029875Y014435D03*
X029905Y014465D03*
X029935Y014465D03*
X029965Y014465D03*
X029995Y014465D03*
X030055Y014495D03*
X029275Y014315D03*
X029245Y014315D03*
X029155Y014285D03*
X029125Y014285D03*
X029005Y014255D03*
X028885Y014255D03*
X028915Y014975D03*
X032215Y016475D03*
X032245Y016505D03*
X035935Y009155D03*
X028105Y005735D03*
X032935Y004235D03*
D38*
X028495Y005555D03*
X031585Y007235D03*
X035575Y007445D03*
X032875Y010415D03*
X028165Y014285D03*
X032815Y016985D03*
D39*
X028195Y014300D03*
X032125Y008600D03*
X028525Y005540D03*
D40*
X035935Y008285D03*
X035995Y008255D03*
X036025Y008225D03*
X028225Y014315D03*
D41*
X028255Y014330D03*
X035965Y008270D03*
X036055Y008180D03*
X035545Y007520D03*
D42*
X032215Y008330D03*
X031375Y009260D03*
X031345Y009260D03*
X029515Y010190D03*
X029395Y010160D03*
X029365Y010160D03*
X029335Y010160D03*
X029305Y010160D03*
X029275Y010130D03*
X029245Y010130D03*
X029215Y010130D03*
X029185Y010130D03*
X028345Y009950D03*
X028345Y009050D03*
X028315Y009050D03*
X031825Y006980D03*
X028255Y005660D03*
X029905Y013130D03*
X030055Y013160D03*
X030085Y013160D03*
X030115Y013160D03*
X030145Y013160D03*
X030175Y013160D03*
X032245Y015560D03*
D43*
X028285Y014330D03*
X036085Y008090D03*
X036325Y007310D03*
X032935Y005420D03*
X032905Y005420D03*
X032845Y005390D03*
X032815Y005390D03*
X032755Y005360D03*
X032725Y005360D03*
X032665Y005330D03*
X032455Y005270D03*
X032425Y005270D03*
X032395Y005270D03*
X028765Y005450D03*
D44*
X028735Y005480D03*
X032275Y005270D03*
X032305Y005270D03*
X032335Y005270D03*
X028315Y014330D03*
X028345Y014360D03*
X028375Y014390D03*
X032185Y015290D03*
D45*
X028525Y013115D03*
X028345Y012965D03*
X028315Y012965D03*
X028855Y010085D03*
X028885Y010085D03*
X028915Y010085D03*
X030355Y009125D03*
X030385Y009125D03*
X030415Y009125D03*
X030505Y009155D03*
X030535Y009155D03*
X030565Y009155D03*
X030595Y009155D03*
X030655Y009185D03*
X030685Y009185D03*
X030715Y009185D03*
X030745Y009185D03*
X030775Y009215D03*
X030805Y009215D03*
X030835Y009215D03*
X030865Y009215D03*
X030895Y009215D03*
X030925Y009245D03*
X030955Y009245D03*
X030985Y009245D03*
X031015Y009245D03*
X031045Y009245D03*
X031075Y009275D03*
X031105Y009275D03*
X031135Y009275D03*
X031165Y009275D03*
X031195Y009275D03*
X031225Y009275D03*
X030265Y009095D03*
X030235Y009095D03*
X030115Y009065D03*
X030085Y009065D03*
X029965Y009035D03*
X029935Y009035D03*
X032185Y008405D03*
X031705Y007085D03*
X031735Y007055D03*
X028315Y005615D03*
X035425Y009215D03*
X035575Y009095D03*
X032515Y010175D03*
D46*
X034765Y006620D03*
X032155Y005240D03*
X032125Y005240D03*
X032095Y005240D03*
X032065Y005240D03*
X028915Y005420D03*
X028885Y005420D03*
X028465Y014420D03*
X028435Y014420D03*
X032785Y016820D03*
D47*
X028495Y014420D03*
X035695Y007130D03*
X034795Y006620D03*
X031915Y005210D03*
D48*
X031825Y005240D03*
X031795Y005240D03*
X029125Y005390D03*
X029095Y005390D03*
X036115Y007940D03*
X028525Y014390D03*
D49*
X028555Y010055D03*
X028585Y010055D03*
D50*
X028615Y010055D03*
D51*
X028645Y010040D03*
X028675Y010040D03*
D52*
X028705Y010040D03*
D53*
X028735Y010910D03*
D54*
X028765Y013130D03*
D55*
X028765Y009710D03*
X035005Y006350D03*
D56*
X028795Y013310D03*
D57*
X031255Y013250D03*
X031285Y013250D03*
X031315Y013250D03*
X031345Y013250D03*
X029215Y015080D03*
X031795Y016220D03*
X031855Y016250D03*
X031915Y016280D03*
X031975Y016310D03*
X032575Y009890D03*
X033355Y009140D03*
X033025Y008720D03*
X033445Y008060D03*
X033475Y008060D03*
X032485Y007970D03*
X032455Y008000D03*
X032455Y006740D03*
X032485Y006740D03*
X032515Y006740D03*
X032545Y006740D03*
X035905Y007160D03*
X036265Y008870D03*
X036235Y008930D03*
X036175Y009020D03*
X036145Y009050D03*
X036115Y009080D03*
X036055Y009110D03*
X028855Y008870D03*
X028825Y008870D03*
X028795Y008840D03*
X032845Y004100D03*
X032815Y004070D03*
X032785Y004040D03*
D58*
X032365Y005255D03*
X032875Y005405D03*
X032965Y005435D03*
X032995Y005435D03*
X028795Y005435D03*
D59*
X030535Y007235D03*
X030655Y007265D03*
X030685Y007265D03*
X030715Y007265D03*
X030775Y007295D03*
X030805Y007295D03*
X030835Y007295D03*
X030925Y007325D03*
X030955Y007325D03*
X031075Y007295D03*
X031105Y007295D03*
X031135Y007295D03*
X029635Y008015D03*
X029605Y008015D03*
X029485Y007985D03*
X029455Y007985D03*
X029425Y007985D03*
X029395Y007985D03*
X029335Y007955D03*
X029305Y007955D03*
X029275Y007955D03*
X029245Y007955D03*
X029215Y007955D03*
X029155Y007925D03*
X029125Y007925D03*
X029095Y007925D03*
X029065Y007925D03*
X033025Y006815D03*
X033085Y006845D03*
X033115Y006845D03*
X033685Y007985D03*
X034555Y008945D03*
X034585Y008945D03*
X034345Y009245D03*
X033025Y009665D03*
X033385Y010205D03*
X033535Y010175D03*
X031435Y010895D03*
X031615Y012275D03*
X031765Y013235D03*
X031795Y013235D03*
X031735Y014225D03*
X031705Y014225D03*
X028945Y013055D03*
X028885Y013025D03*
X028855Y013025D03*
X028825Y012995D03*
X029005Y011765D03*
X028975Y011735D03*
X028945Y011735D03*
X028915Y011705D03*
X028885Y011675D03*
X028825Y011645D03*
X032305Y015845D03*
X036415Y008465D03*
X036415Y006755D03*
X035305Y005015D03*
X032425Y003575D03*
D60*
X032455Y003620D03*
X032935Y006800D03*
X032965Y006800D03*
X032995Y006800D03*
X033055Y006830D03*
X033655Y008000D03*
X032995Y008750D03*
X033415Y009170D03*
X033055Y009650D03*
X032635Y009770D03*
X033415Y010190D03*
X033805Y010640D03*
X033775Y010670D03*
X033745Y010700D03*
X033715Y010730D03*
X033685Y010760D03*
X033025Y010820D03*
X032995Y010820D03*
X032965Y010820D03*
X032935Y010790D03*
X032635Y010430D03*
X032605Y010430D03*
X032575Y010430D03*
X031465Y010910D03*
X030835Y012200D03*
X030805Y012200D03*
X030775Y012200D03*
X030745Y012200D03*
X030715Y012170D03*
X030685Y012170D03*
X030655Y012170D03*
X030625Y012170D03*
X030595Y012170D03*
X030565Y012140D03*
X030535Y012140D03*
X030505Y012140D03*
X030475Y012140D03*
X030445Y012140D03*
X030415Y012110D03*
X030385Y012110D03*
X030355Y012110D03*
X030325Y012110D03*
X030265Y012080D03*
X030235Y012080D03*
X030205Y012080D03*
X030175Y012080D03*
X030145Y012050D03*
X030115Y012050D03*
X030085Y012050D03*
X030055Y012050D03*
X030025Y012050D03*
X029995Y012020D03*
X029965Y012020D03*
X029935Y012020D03*
X029905Y012020D03*
X029845Y011990D03*
X029815Y011990D03*
X029785Y011990D03*
X029755Y011990D03*
X029695Y011960D03*
X029665Y011960D03*
X029635Y011960D03*
X029575Y011930D03*
X029545Y011930D03*
X029515Y011930D03*
X029485Y011930D03*
X029425Y011900D03*
X029395Y011900D03*
X029365Y011900D03*
X029335Y011900D03*
X029275Y011870D03*
X029245Y011870D03*
X029065Y011810D03*
X029035Y011780D03*
X028855Y011660D03*
X030865Y012230D03*
X030895Y012230D03*
X030925Y012230D03*
X030955Y012230D03*
X030985Y012230D03*
X031015Y012260D03*
X031045Y012260D03*
X031075Y012260D03*
X031105Y012260D03*
X031135Y012260D03*
X031255Y012290D03*
X031285Y012290D03*
X031555Y012290D03*
X031585Y012290D03*
X031645Y012260D03*
X031675Y012260D03*
X031705Y013250D03*
X031735Y013250D03*
X031765Y014240D03*
X031795Y014240D03*
X028975Y013070D03*
X028915Y013040D03*
X034555Y009980D03*
X034585Y009980D03*
X034615Y009980D03*
X034705Y009950D03*
X034375Y009200D03*
X034405Y009170D03*
X034705Y008900D03*
X036385Y008540D03*
X031255Y008240D03*
X030205Y008120D03*
X030055Y008090D03*
X030025Y008090D03*
X029995Y008090D03*
X029905Y008060D03*
X029875Y008060D03*
X029845Y008060D03*
X029815Y008060D03*
X029755Y008030D03*
X029725Y008030D03*
X029695Y008030D03*
X029665Y008030D03*
X029575Y008000D03*
X029545Y008000D03*
X029515Y008000D03*
X029365Y007970D03*
X030865Y007310D03*
X030895Y007310D03*
X030985Y007310D03*
X031015Y007310D03*
X031045Y007310D03*
X032905Y017510D03*
D61*
X032875Y017330D03*
X032185Y016460D03*
X032155Y016430D03*
X032095Y016400D03*
X032065Y016370D03*
X031135Y015860D03*
X031075Y015830D03*
X031015Y015800D03*
X030865Y015710D03*
X030805Y015680D03*
X030745Y015650D03*
X030685Y015620D03*
X030625Y015590D03*
X030565Y015560D03*
X030535Y015530D03*
X030505Y015530D03*
X030475Y015500D03*
X030415Y015470D03*
X030355Y015440D03*
X030295Y015410D03*
X030235Y015380D03*
X030205Y015350D03*
X030175Y015350D03*
X030145Y015320D03*
X030115Y015320D03*
X030085Y015290D03*
X030055Y015290D03*
X030025Y015260D03*
X029995Y015260D03*
X029965Y015230D03*
X029935Y015230D03*
X029905Y015230D03*
X029875Y015230D03*
X029815Y015200D03*
X029785Y015200D03*
X029755Y015200D03*
X029665Y015170D03*
X029635Y015170D03*
X029515Y015140D03*
X029485Y015140D03*
X029095Y015050D03*
X029005Y015020D03*
X028975Y015020D03*
X028945Y014990D03*
X029605Y014390D03*
X029635Y014390D03*
X029665Y014390D03*
X029755Y014420D03*
X029785Y014420D03*
X029545Y014360D03*
X029515Y014360D03*
X029485Y014360D03*
X029455Y014360D03*
X029425Y014330D03*
X029395Y014330D03*
X029365Y014330D03*
X029335Y014330D03*
X029305Y014330D03*
X029215Y014300D03*
X029185Y014300D03*
X029095Y014270D03*
X029065Y014270D03*
X029035Y014270D03*
X028975Y014240D03*
X028945Y014240D03*
X028915Y014240D03*
X031075Y013250D03*
X031105Y013250D03*
X031135Y013250D03*
X031165Y013250D03*
X031195Y013250D03*
X032545Y009950D03*
X033145Y009500D03*
X035305Y009470D03*
X035995Y009140D03*
X033415Y008060D03*
X032305Y006770D03*
X032275Y006770D03*
X032245Y006770D03*
X032215Y006770D03*
X032125Y006800D03*
X028975Y008930D03*
X028945Y008930D03*
X028915Y008900D03*
X032905Y004190D03*
D62*
X035335Y004985D03*
X035365Y004955D03*
X036445Y006725D03*
X036445Y008405D03*
X034765Y008765D03*
X034495Y008975D03*
X034255Y009365D03*
X034225Y009395D03*
X033505Y009275D03*
X033475Y009245D03*
X032965Y009695D03*
X032935Y009695D03*
X032905Y009695D03*
X032875Y009695D03*
X033355Y010205D03*
X031315Y010865D03*
X031285Y010865D03*
X031255Y010865D03*
X031225Y010865D03*
X030685Y010745D03*
X030565Y010715D03*
X030025Y010595D03*
X029905Y010565D03*
X029845Y010535D03*
X029815Y010535D03*
X029755Y010505D03*
X029725Y010505D03*
X033745Y007985D03*
X033235Y006905D03*
X030415Y007205D03*
X030385Y007205D03*
X028945Y007865D03*
X031615Y014195D03*
D63*
X031705Y011105D03*
X031675Y010865D03*
X032785Y010265D03*
X032815Y010265D03*
X032845Y010265D03*
X031555Y009815D03*
X035515Y007535D03*
X036295Y007415D03*
X034735Y006575D03*
X032035Y005225D03*
X032005Y005225D03*
X031975Y005225D03*
X031945Y005225D03*
X028975Y005405D03*
X028945Y005405D03*
D64*
X031165Y007265D03*
X030355Y008135D03*
X030325Y008135D03*
X030295Y008135D03*
X030265Y008135D03*
X030235Y008135D03*
X030175Y008105D03*
X030145Y008105D03*
X030115Y008105D03*
X030085Y008105D03*
X029965Y008075D03*
X029935Y008075D03*
X029785Y008045D03*
X030415Y008165D03*
X030445Y008165D03*
X030475Y008165D03*
X030625Y008195D03*
X031135Y008255D03*
X031165Y008255D03*
X031195Y008255D03*
X031225Y008255D03*
X031285Y008225D03*
X033055Y007895D03*
X033085Y007895D03*
X033175Y007925D03*
X033625Y008015D03*
X032905Y006785D03*
X032875Y006785D03*
X035275Y005075D03*
X036385Y006815D03*
X032695Y009785D03*
X032665Y009785D03*
X032935Y010205D03*
X032695Y010415D03*
X032665Y010415D03*
X032545Y010445D03*
X032695Y010775D03*
X033055Y010835D03*
X033085Y010835D03*
X033565Y010865D03*
X033595Y010835D03*
X033625Y010805D03*
X033655Y010775D03*
X033835Y010625D03*
X033865Y010595D03*
X033895Y010565D03*
X033505Y010175D03*
X033475Y010175D03*
X033445Y010175D03*
X034645Y009965D03*
X034675Y009965D03*
X034735Y009935D03*
X034765Y009935D03*
X034795Y009905D03*
X034825Y009905D03*
X034885Y009875D03*
X031495Y010895D03*
X029725Y011975D03*
X029605Y011945D03*
X029455Y011915D03*
X029305Y011885D03*
X029215Y011855D03*
X029185Y011855D03*
X029155Y011855D03*
X029125Y011825D03*
X029095Y011825D03*
X029875Y012005D03*
X030295Y012095D03*
X031165Y012275D03*
X031195Y012275D03*
X031225Y012275D03*
X031315Y012305D03*
X031345Y012305D03*
X031375Y012305D03*
X031405Y012305D03*
X031435Y012305D03*
X031465Y012305D03*
X031495Y012305D03*
X031525Y012305D03*
X031675Y013265D03*
X031825Y014255D03*
X029005Y013085D03*
X029665Y010445D03*
X032485Y003665D03*
D65*
X031885Y005225D03*
X031855Y005225D03*
X029065Y005405D03*
X029035Y005405D03*
X029005Y005405D03*
X034705Y006515D03*
X031945Y009095D03*
X031525Y009575D03*
X031645Y010625D03*
D66*
X032605Y009800D03*
X032725Y009800D03*
X033385Y009140D03*
X034405Y010040D03*
X034375Y010070D03*
X034345Y010100D03*
X034315Y010130D03*
X034195Y010250D03*
X034165Y010280D03*
X034135Y010310D03*
X034105Y010340D03*
X034075Y010370D03*
X034045Y010400D03*
X034015Y010430D03*
X033985Y010460D03*
X033955Y010490D03*
X033925Y010520D03*
X033535Y010880D03*
X033505Y010910D03*
X033475Y010940D03*
X033385Y011000D03*
X033115Y010850D03*
X034435Y010010D03*
X034855Y009890D03*
X034915Y009860D03*
X034945Y009830D03*
X034975Y009800D03*
X034675Y008960D03*
X033595Y008030D03*
X033205Y007940D03*
X033145Y007910D03*
X033115Y007910D03*
X033025Y007880D03*
X032995Y007880D03*
X032965Y007880D03*
X032935Y007880D03*
X032905Y007880D03*
X032845Y006770D03*
X032815Y006770D03*
X031105Y008270D03*
X031075Y008270D03*
X031045Y008270D03*
X031015Y008270D03*
X030925Y008240D03*
X030895Y008240D03*
X030865Y008240D03*
X030835Y008240D03*
X030805Y008240D03*
X030775Y008210D03*
X030745Y008210D03*
X030715Y008210D03*
X030685Y008210D03*
X030655Y008210D03*
X030595Y008180D03*
X030565Y008180D03*
X030535Y008180D03*
X030505Y008180D03*
X030385Y008150D03*
X031885Y008870D03*
X036355Y008630D03*
X031705Y012200D03*
X031645Y013250D03*
X031855Y014240D03*
X031885Y014240D03*
X029065Y013130D03*
X029035Y013100D03*
D67*
X029095Y013145D03*
X029125Y013145D03*
X031555Y013265D03*
X031585Y013265D03*
X031615Y013265D03*
X031525Y010895D03*
X033145Y010865D03*
X033355Y011015D03*
X033415Y010985D03*
X033445Y010955D03*
X034225Y010235D03*
X034255Y010205D03*
X034285Y010175D03*
X034465Y009965D03*
X033085Y009605D03*
X030985Y008255D03*
X030955Y008255D03*
X032665Y007865D03*
X032695Y007865D03*
X032725Y007865D03*
X032785Y007865D03*
X032815Y007865D03*
X032845Y007865D03*
X032875Y007865D03*
X033565Y008015D03*
X032785Y006755D03*
X032755Y006755D03*
X032725Y006755D03*
X032695Y006755D03*
X030325Y007115D03*
X032515Y003725D03*
X036325Y008705D03*
D68*
X036295Y008780D03*
X035095Y009680D03*
X035065Y009710D03*
X035035Y009740D03*
X035005Y009770D03*
X034525Y009920D03*
X034495Y009950D03*
X034615Y008990D03*
X034645Y008990D03*
X033535Y008030D03*
X032755Y007850D03*
X032635Y007880D03*
X032605Y007880D03*
X032575Y007910D03*
X032635Y006740D03*
X032665Y006740D03*
X032545Y003770D03*
X033325Y011030D03*
X031525Y013280D03*
X029305Y013190D03*
X029275Y013190D03*
X029245Y013190D03*
X029185Y013160D03*
X029155Y013160D03*
D69*
X032155Y015140D03*
X031615Y010400D03*
X029185Y005390D03*
X029155Y005390D03*
D70*
X032575Y006755D03*
X032605Y006755D03*
X032545Y007925D03*
X032515Y007955D03*
X033505Y008045D03*
X033115Y009545D03*
X032755Y009845D03*
X031555Y010865D03*
X033295Y011045D03*
X035125Y009665D03*
X035155Y009635D03*
X035185Y009605D03*
X035215Y009575D03*
X036205Y008975D03*
X036355Y006905D03*
X035245Y005135D03*
X032755Y003995D03*
X032725Y003965D03*
X032695Y003935D03*
X032665Y003905D03*
X032635Y003875D03*
X032605Y003845D03*
X032575Y003815D03*
X029215Y013175D03*
X029335Y013205D03*
X029365Y013205D03*
X029395Y013205D03*
X029425Y013205D03*
X029455Y013205D03*
X031375Y013265D03*
X031405Y013265D03*
X031435Y013265D03*
X031465Y013265D03*
X031495Y013265D03*
D71*
X035695Y008765D03*
X034645Y006395D03*
X031735Y005255D03*
X029275Y005375D03*
X029245Y005375D03*
X029215Y005375D03*
D72*
X029305Y005360D03*
X031705Y005270D03*
X036235Y007610D03*
X032755Y016640D03*
D73*
X033205Y008915D03*
X036145Y007805D03*
X036175Y007745D03*
X036205Y007685D03*
X034615Y006335D03*
X031675Y005285D03*
X029365Y005375D03*
X029335Y005375D03*
D74*
X029395Y005360D03*
X029425Y005360D03*
X029455Y005360D03*
X031645Y005300D03*
X033175Y008960D03*
D75*
X035485Y007415D03*
X034585Y006275D03*
X031615Y005315D03*
X029485Y005345D03*
X031765Y011795D03*
D76*
X031735Y011540D03*
X034855Y006560D03*
X034555Y006230D03*
X031585Y005330D03*
X029575Y005360D03*
X029545Y005360D03*
X029515Y005360D03*
D77*
X029605Y005345D03*
X029635Y005345D03*
X029665Y005345D03*
X034525Y006185D03*
X035905Y008585D03*
D78*
X033295Y008630D03*
X031585Y010250D03*
X031795Y012110D03*
X034495Y006140D03*
X031555Y005330D03*
X029695Y005360D03*
D79*
X029725Y005345D03*
X029755Y005345D03*
X029785Y005345D03*
X029815Y005345D03*
X031345Y007685D03*
X034465Y006095D03*
X032125Y015005D03*
D80*
X033265Y008660D03*
X034435Y006050D03*
X031525Y005360D03*
X029875Y005360D03*
X029845Y005360D03*
D81*
X029905Y005345D03*
X029935Y005345D03*
X029965Y005345D03*
X029995Y005345D03*
X034105Y005735D03*
X034405Y006005D03*
X035455Y007355D03*
X032725Y016475D03*
D82*
X031855Y012680D03*
X031825Y012440D03*
X034375Y005960D03*
X034285Y005900D03*
X034255Y005870D03*
X034225Y005840D03*
X034195Y005810D03*
X034165Y005780D03*
X034135Y005750D03*
X034075Y005720D03*
X034045Y005690D03*
X034015Y005660D03*
X033925Y005600D03*
X031495Y005390D03*
X030175Y005360D03*
X030145Y005360D03*
X030115Y005360D03*
X030085Y005360D03*
X030055Y005360D03*
X030025Y005360D03*
D83*
X030205Y005375D03*
X030235Y005375D03*
X031465Y005405D03*
X033865Y005555D03*
X033895Y005585D03*
X033955Y005615D03*
X033985Y005645D03*
X034315Y005915D03*
X034345Y005945D03*
X033235Y008705D03*
X031975Y009245D03*
X031945Y013505D03*
D84*
X031975Y013760D03*
X031885Y012980D03*
X033835Y005540D03*
X033805Y005510D03*
X033775Y005480D03*
X033745Y005480D03*
X033715Y005450D03*
X033685Y005420D03*
X030355Y005360D03*
X030325Y005360D03*
X030295Y005360D03*
X030265Y005360D03*
D85*
X030385Y005375D03*
X030415Y005375D03*
X030445Y005375D03*
X030475Y005375D03*
X030505Y005375D03*
X033295Y005195D03*
X033325Y005195D03*
X033355Y005225D03*
X033385Y005225D03*
X033415Y005255D03*
X033445Y005285D03*
X033475Y005285D03*
X033505Y005315D03*
X033535Y005315D03*
X033565Y005345D03*
X033625Y005375D03*
X033655Y005405D03*
D86*
X033595Y005360D03*
X033265Y005180D03*
X033235Y005150D03*
X033205Y005150D03*
X031435Y005450D03*
X030595Y005390D03*
X030565Y005390D03*
X030535Y005390D03*
X035425Y007310D03*
D87*
X033175Y005135D03*
X033145Y005105D03*
X033115Y005105D03*
X033085Y005075D03*
X030685Y005375D03*
X030655Y005375D03*
X030625Y005375D03*
X031375Y007805D03*
X032095Y014855D03*
D88*
X030835Y005390D03*
X030805Y005390D03*
X030775Y005390D03*
X030745Y005390D03*
X030715Y005390D03*
X033055Y005060D03*
D89*
X033025Y005045D03*
X031405Y005465D03*
X030865Y005405D03*
X034885Y006395D03*
D90*
X035395Y007250D03*
X030925Y005420D03*
X030895Y005420D03*
X032695Y016310D03*
D91*
X030985Y005435D03*
X030955Y005435D03*
D92*
X031015Y005450D03*
X031075Y005480D03*
X031915Y013370D03*
D93*
X035365Y007205D03*
X034915Y006365D03*
X031375Y005525D03*
X031105Y005495D03*
X031045Y005465D03*
D94*
X031135Y005570D03*
X035245Y006800D03*
X035305Y007040D03*
X032665Y016130D03*
D95*
X032035Y014585D03*
X031165Y005645D03*
D96*
X031195Y005915D03*
X035875Y007955D03*
D97*
X031225Y005990D03*
D98*
X031255Y006110D03*
X032455Y014510D03*
D99*
X035725Y007760D03*
X031285Y006200D03*
D100*
X031315Y006410D03*
D101*
X031345Y005585D03*
X032005Y009395D03*
D102*
X031405Y008225D03*
X035185Y006395D03*
D103*
X031465Y008210D03*
X031435Y008210D03*
X032605Y015770D03*
D104*
X032365Y013490D03*
X031495Y008330D03*
D105*
X031555Y007295D03*
X032485Y005285D03*
X032515Y005285D03*
X032545Y005285D03*
X032575Y005315D03*
X032605Y005315D03*
X032635Y005315D03*
X032695Y005345D03*
X032785Y005375D03*
D106*
X031675Y007115D03*
X033325Y008255D03*
X032155Y008495D03*
X035485Y009155D03*
X035635Y009065D03*
D107*
X036265Y007535D03*
X034825Y006635D03*
X034675Y006455D03*
X031765Y005255D03*
D108*
X032005Y014450D03*
D109*
X032035Y009575D03*
X035125Y006365D03*
D110*
X032065Y014735D03*
D111*
X032575Y015605D03*
X032065Y009725D03*
D112*
X032095Y009905D03*
D113*
X032125Y010775D03*
X035035Y006365D03*
D114*
X032155Y011120D03*
X032635Y015950D03*
D115*
X032185Y011450D03*
D116*
X032215Y011795D03*
D117*
X032245Y012140D03*
X035155Y006380D03*
D118*
X035215Y006395D03*
X032275Y012485D03*
D119*
X032305Y012815D03*
D120*
X032335Y013160D03*
D121*
X032395Y013835D03*
D122*
X032425Y014165D03*
D123*
X032485Y015095D03*
D124*
X032515Y015260D03*
D125*
X032545Y015440D03*
D126*
X035335Y007130D03*
X034945Y006380D03*
D127*
X034975Y006365D03*
X035275Y006935D03*
D128*
X035065Y006365D03*
D129*
X035095Y006365D03*
D130*
X035755Y007640D03*
D131*
X035785Y007595D03*
D132*
X035815Y007565D03*
D133*
X035845Y007715D03*
D134*
X022476Y004409D02*
X021465Y004409D01*
X021970Y004409D02*
X021970Y004746D01*
X022476Y004409D02*
X022476Y005083D01*
X022476Y005422D02*
X021465Y005422D01*
X021465Y006096D01*
X021465Y006435D02*
X021465Y006772D01*
X021465Y006603D02*
X022476Y006603D01*
X022476Y006435D02*
X022476Y006772D01*
X022307Y007110D02*
X021633Y007110D01*
X021465Y007279D01*
X021465Y007615D01*
X021633Y007784D01*
X021970Y007784D01*
X021970Y007447D01*
X022307Y007110D02*
X022476Y007279D01*
X022476Y007615D01*
X022307Y007784D01*
X022476Y008123D02*
X021465Y008123D01*
X021970Y008123D02*
X021970Y008797D01*
X021465Y008797D02*
X022476Y008797D01*
X022476Y009136D02*
X022476Y009810D01*
X022476Y009473D02*
X021465Y009473D01*
X023115Y009305D02*
X024126Y009305D01*
X024126Y009810D01*
X023957Y009979D01*
X023620Y009979D01*
X023452Y009810D01*
X023452Y009305D01*
X023283Y010317D02*
X023115Y010486D01*
X023115Y010823D01*
X023283Y010991D01*
X023957Y010991D01*
X024126Y010823D01*
X024126Y010486D01*
X023957Y010317D01*
X023283Y010317D01*
X022476Y011162D02*
X021465Y011162D01*
X021465Y011835D01*
X021465Y012174D02*
X022139Y012174D01*
X022476Y012511D01*
X022139Y012848D01*
X021465Y012848D01*
X021970Y012848D02*
X021970Y012174D01*
X023115Y012004D02*
X023115Y011330D01*
X024126Y011330D01*
X024126Y012343D02*
X023957Y012343D01*
X023620Y012680D01*
X023115Y012680D01*
X023620Y012680D02*
X023957Y013017D01*
X024126Y013017D01*
X022476Y013187D02*
X022476Y013693D01*
X022307Y013861D01*
X022139Y013861D01*
X021970Y013693D01*
X021970Y013187D01*
X021465Y013187D02*
X021465Y013693D01*
X021633Y013861D01*
X021802Y013861D01*
X021970Y013693D01*
X021465Y013187D02*
X022476Y013187D01*
X023115Y007953D02*
X023115Y007279D01*
X024126Y007279D01*
X023789Y006940D02*
X023115Y006940D01*
X023620Y006940D02*
X023620Y006266D01*
X023789Y006266D02*
X024126Y006603D01*
X023789Y006940D01*
X023789Y006266D02*
X023115Y006266D01*
X023283Y005927D02*
X023115Y005759D01*
X023115Y005422D01*
X023283Y005253D01*
X023957Y005253D01*
X024126Y005422D01*
X024126Y005759D01*
X023957Y005927D01*
M02*
