G75*
G70*
%OFA0B0*%
%FSLAX24Y24*%
%IPPOS*%
%LPD*%
%AMOC8*
5,1,8,0,0,1.08239X$1,22.5*
%
%ADD10C,0.0000*%
%ADD11C,0.0594*%
%ADD12C,0.0594*%
%ADD13C,0.0560*%
%ADD14C,0.0660*%
%ADD15R,0.0660X0.0660*%
%ADD16C,0.0157*%
%ADD17C,0.0305*%
%ADD18C,0.0276*%
%ADD19R,0.0118X0.0315*%
%ADD20R,0.0315X0.0118*%
%ADD21R,0.0394X0.0394*%
%ADD22C,0.0740*%
%ADD23R,0.0110X0.0256*%
%ADD24R,0.0256X0.0110*%
%ADD25R,0.0394X0.0433*%
%ADD26R,0.0433X0.0394*%
%ADD27R,0.0413X0.0425*%
%ADD28R,0.0425X0.0413*%
%ADD29R,0.0740X0.0740*%
%ADD30OC8,0.0740*%
%ADD31OC8,0.0515*%
%ADD32R,0.0515X0.0515*%
%ADD33C,0.0709*%
%ADD34C,0.2000*%
%ADD35C,0.0100*%
%ADD36C,0.0400*%
D10*
X001975Y001262D02*
X001975Y023329D01*
X001977Y023373D01*
X001983Y023417D01*
X001993Y023460D01*
X002006Y023502D01*
X002022Y023543D01*
X002042Y023583D01*
X002065Y023621D01*
X002090Y023657D01*
X002119Y023691D01*
X002150Y023722D01*
X002184Y023751D01*
X002220Y023776D01*
X002258Y023799D01*
X002298Y023819D01*
X002339Y023835D01*
X002381Y023848D01*
X002424Y023858D01*
X002468Y023864D01*
X002512Y023866D01*
X040134Y023867D01*
X040190Y023865D01*
X040246Y023860D01*
X040302Y023850D01*
X040357Y023838D01*
X040411Y023821D01*
X040463Y023801D01*
X040515Y023778D01*
X040564Y023752D01*
X040612Y023722D01*
X040658Y023689D01*
X040702Y023653D01*
X040743Y023615D01*
X040781Y023574D01*
X040817Y023530D01*
X040850Y023484D01*
X040880Y023437D01*
X040906Y023387D01*
X040929Y023335D01*
X040949Y023283D01*
X040966Y023229D01*
X040978Y023174D01*
X040988Y023118D01*
X040993Y023062D01*
X040995Y023006D01*
X040995Y001110D01*
X040993Y001051D01*
X040988Y000992D01*
X040978Y000934D01*
X040965Y000876D01*
X040949Y000819D01*
X040929Y000764D01*
X040905Y000709D01*
X040879Y000657D01*
X040849Y000606D01*
X040815Y000557D01*
X040779Y000510D01*
X040740Y000466D01*
X040698Y000424D01*
X040654Y000385D01*
X040607Y000349D01*
X040558Y000315D01*
X040507Y000285D01*
X040455Y000259D01*
X040400Y000235D01*
X040345Y000215D01*
X040288Y000199D01*
X040230Y000186D01*
X040172Y000176D01*
X040113Y000171D01*
X040054Y000169D01*
X040054Y000170D02*
X003067Y000170D01*
X003004Y000172D01*
X002940Y000177D01*
X002877Y000187D01*
X002815Y000199D01*
X002754Y000216D01*
X002694Y000236D01*
X002634Y000259D01*
X002577Y000286D01*
X002521Y000316D01*
X002467Y000350D01*
X002415Y000386D01*
X002365Y000425D01*
X002318Y000468D01*
X002273Y000513D01*
X002230Y000560D01*
X002191Y000610D01*
X002155Y000662D01*
X002121Y000716D01*
X002091Y000772D01*
X002064Y000829D01*
X002041Y000889D01*
X002021Y000949D01*
X002004Y001010D01*
X001992Y001072D01*
X001982Y001135D01*
X001977Y001199D01*
X001975Y001262D01*
X025250Y004720D02*
X025252Y004770D01*
X025258Y004819D01*
X025268Y004868D01*
X025281Y004915D01*
X025299Y004962D01*
X025320Y005007D01*
X025344Y005050D01*
X025372Y005091D01*
X025403Y005130D01*
X025437Y005166D01*
X025474Y005200D01*
X025514Y005230D01*
X025555Y005257D01*
X025599Y005281D01*
X025644Y005301D01*
X025691Y005317D01*
X025739Y005330D01*
X025788Y005339D01*
X025838Y005344D01*
X025887Y005345D01*
X025937Y005342D01*
X025986Y005335D01*
X026035Y005324D01*
X026082Y005310D01*
X026128Y005291D01*
X026173Y005269D01*
X026216Y005244D01*
X026256Y005215D01*
X026294Y005183D01*
X026330Y005149D01*
X026363Y005111D01*
X026392Y005071D01*
X026418Y005029D01*
X026441Y004985D01*
X026460Y004939D01*
X026476Y004892D01*
X026488Y004843D01*
X026496Y004794D01*
X026500Y004745D01*
X026500Y004695D01*
X026496Y004646D01*
X026488Y004597D01*
X026476Y004548D01*
X026460Y004501D01*
X026441Y004455D01*
X026418Y004411D01*
X026392Y004369D01*
X026363Y004329D01*
X026330Y004291D01*
X026294Y004257D01*
X026256Y004225D01*
X026216Y004196D01*
X026173Y004171D01*
X026128Y004149D01*
X026082Y004130D01*
X026035Y004116D01*
X025986Y004105D01*
X025937Y004098D01*
X025887Y004095D01*
X025838Y004096D01*
X025788Y004101D01*
X025739Y004110D01*
X025691Y004123D01*
X025644Y004139D01*
X025599Y004159D01*
X025555Y004183D01*
X025514Y004210D01*
X025474Y004240D01*
X025437Y004274D01*
X025403Y004310D01*
X025372Y004349D01*
X025344Y004390D01*
X025320Y004433D01*
X025299Y004478D01*
X025281Y004525D01*
X025268Y004572D01*
X025258Y004621D01*
X025252Y004670D01*
X025250Y004720D01*
X027250Y015720D02*
X027252Y015770D01*
X027258Y015819D01*
X027268Y015868D01*
X027281Y015915D01*
X027299Y015962D01*
X027320Y016007D01*
X027344Y016050D01*
X027372Y016091D01*
X027403Y016130D01*
X027437Y016166D01*
X027474Y016200D01*
X027514Y016230D01*
X027555Y016257D01*
X027599Y016281D01*
X027644Y016301D01*
X027691Y016317D01*
X027739Y016330D01*
X027788Y016339D01*
X027838Y016344D01*
X027887Y016345D01*
X027937Y016342D01*
X027986Y016335D01*
X028035Y016324D01*
X028082Y016310D01*
X028128Y016291D01*
X028173Y016269D01*
X028216Y016244D01*
X028256Y016215D01*
X028294Y016183D01*
X028330Y016149D01*
X028363Y016111D01*
X028392Y016071D01*
X028418Y016029D01*
X028441Y015985D01*
X028460Y015939D01*
X028476Y015892D01*
X028488Y015843D01*
X028496Y015794D01*
X028500Y015745D01*
X028500Y015695D01*
X028496Y015646D01*
X028488Y015597D01*
X028476Y015548D01*
X028460Y015501D01*
X028441Y015455D01*
X028418Y015411D01*
X028392Y015369D01*
X028363Y015329D01*
X028330Y015291D01*
X028294Y015257D01*
X028256Y015225D01*
X028216Y015196D01*
X028173Y015171D01*
X028128Y015149D01*
X028082Y015130D01*
X028035Y015116D01*
X027986Y015105D01*
X027937Y015098D01*
X027887Y015095D01*
X027838Y015096D01*
X027788Y015101D01*
X027739Y015110D01*
X027691Y015123D01*
X027644Y015139D01*
X027599Y015159D01*
X027555Y015183D01*
X027514Y015210D01*
X027474Y015240D01*
X027437Y015274D01*
X027403Y015310D01*
X027372Y015349D01*
X027344Y015390D01*
X027320Y015433D01*
X027299Y015478D01*
X027281Y015525D01*
X027268Y015572D01*
X027258Y015621D01*
X027252Y015670D01*
X027250Y015720D01*
X006185Y020320D02*
X006187Y020370D01*
X006193Y020420D01*
X006203Y020469D01*
X006216Y020518D01*
X006234Y020565D01*
X006255Y020611D01*
X006279Y020654D01*
X006307Y020696D01*
X006338Y020736D01*
X006372Y020773D01*
X006409Y020807D01*
X006449Y020838D01*
X006491Y020866D01*
X006534Y020890D01*
X006580Y020911D01*
X006627Y020929D01*
X006676Y020942D01*
X006725Y020952D01*
X006775Y020958D01*
X006825Y020960D01*
X006875Y020958D01*
X006925Y020952D01*
X006974Y020942D01*
X007023Y020929D01*
X007070Y020911D01*
X007116Y020890D01*
X007159Y020866D01*
X007201Y020838D01*
X007241Y020807D01*
X007278Y020773D01*
X007312Y020736D01*
X007343Y020696D01*
X007371Y020654D01*
X007395Y020611D01*
X007416Y020565D01*
X007434Y020518D01*
X007447Y020469D01*
X007457Y020420D01*
X007463Y020370D01*
X007465Y020320D01*
X007463Y020270D01*
X007457Y020220D01*
X007447Y020171D01*
X007434Y020122D01*
X007416Y020075D01*
X007395Y020029D01*
X007371Y019986D01*
X007343Y019944D01*
X007312Y019904D01*
X007278Y019867D01*
X007241Y019833D01*
X007201Y019802D01*
X007159Y019774D01*
X007116Y019750D01*
X007070Y019729D01*
X007023Y019711D01*
X006974Y019698D01*
X006925Y019688D01*
X006875Y019682D01*
X006825Y019680D01*
X006775Y019682D01*
X006725Y019688D01*
X006676Y019698D01*
X006627Y019711D01*
X006580Y019729D01*
X006534Y019750D01*
X006491Y019774D01*
X006449Y019802D01*
X006409Y019833D01*
X006372Y019867D01*
X006338Y019904D01*
X006307Y019944D01*
X006279Y019986D01*
X006255Y020029D01*
X006234Y020075D01*
X006216Y020122D01*
X006203Y020171D01*
X006193Y020220D01*
X006187Y020270D01*
X006185Y020320D01*
X002185Y020320D02*
X002187Y020370D01*
X002193Y020420D01*
X002203Y020469D01*
X002216Y020518D01*
X002234Y020565D01*
X002255Y020611D01*
X002279Y020654D01*
X002307Y020696D01*
X002338Y020736D01*
X002372Y020773D01*
X002409Y020807D01*
X002449Y020838D01*
X002491Y020866D01*
X002534Y020890D01*
X002580Y020911D01*
X002627Y020929D01*
X002676Y020942D01*
X002725Y020952D01*
X002775Y020958D01*
X002825Y020960D01*
X002875Y020958D01*
X002925Y020952D01*
X002974Y020942D01*
X003023Y020929D01*
X003070Y020911D01*
X003116Y020890D01*
X003159Y020866D01*
X003201Y020838D01*
X003241Y020807D01*
X003278Y020773D01*
X003312Y020736D01*
X003343Y020696D01*
X003371Y020654D01*
X003395Y020611D01*
X003416Y020565D01*
X003434Y020518D01*
X003447Y020469D01*
X003457Y020420D01*
X003463Y020370D01*
X003465Y020320D01*
X003463Y020270D01*
X003457Y020220D01*
X003447Y020171D01*
X003434Y020122D01*
X003416Y020075D01*
X003395Y020029D01*
X003371Y019986D01*
X003343Y019944D01*
X003312Y019904D01*
X003278Y019867D01*
X003241Y019833D01*
X003201Y019802D01*
X003159Y019774D01*
X003116Y019750D01*
X003070Y019729D01*
X003023Y019711D01*
X002974Y019698D01*
X002925Y019688D01*
X002875Y019682D01*
X002825Y019680D01*
X002775Y019682D01*
X002725Y019688D01*
X002676Y019698D01*
X002627Y019711D01*
X002580Y019729D01*
X002534Y019750D01*
X002491Y019774D01*
X002449Y019802D01*
X002409Y019833D01*
X002372Y019867D01*
X002338Y019904D01*
X002307Y019944D01*
X002279Y019986D01*
X002255Y020029D01*
X002234Y020075D01*
X002216Y020122D01*
X002203Y020171D01*
X002193Y020220D01*
X002187Y020270D01*
X002185Y020320D01*
D11*
X010375Y021073D02*
X010375Y021666D01*
X010375Y021073D01*
X011375Y021073D02*
X011375Y021666D01*
X012375Y021666D02*
X012375Y021073D01*
X013375Y021073D02*
X013375Y021666D01*
X014375Y021666D02*
X014375Y021073D01*
X015375Y021073D02*
X015375Y021666D01*
X016375Y021666D02*
X016375Y021073D01*
X017375Y021073D02*
X017375Y021666D01*
X018875Y021666D02*
X018875Y021073D01*
X019875Y021073D02*
X019875Y021666D01*
X020875Y021666D02*
X020875Y021073D01*
X021875Y021073D02*
X021875Y021666D01*
X022875Y021666D02*
X022875Y021073D01*
X023875Y021073D02*
X023875Y021666D01*
X024875Y021666D02*
X024875Y021073D01*
X025875Y021073D02*
X025875Y021666D01*
X027875Y021666D02*
X027875Y021073D01*
X028875Y021073D02*
X028875Y021666D01*
X029875Y021666D02*
X029875Y021073D01*
X030875Y021073D02*
X030875Y021666D01*
X031875Y021666D02*
X031875Y021073D01*
X032875Y021073D02*
X032875Y021666D01*
X033875Y021666D02*
X033875Y021073D01*
X034875Y021073D02*
X034875Y021666D01*
X034875Y002666D02*
X034875Y002073D01*
X033875Y002073D02*
X033875Y002666D01*
X032875Y002666D02*
X032875Y002073D01*
X031875Y002073D02*
X031875Y002666D01*
X030875Y002666D02*
X030875Y002073D01*
X029875Y002073D02*
X029875Y002666D01*
X027875Y002666D02*
X027875Y002073D01*
X026875Y002073D02*
X026875Y002666D01*
X025875Y002666D02*
X025875Y002073D01*
X024875Y002073D02*
X024875Y002666D01*
X023875Y002666D02*
X023875Y002073D01*
X022875Y002073D02*
X022875Y002666D01*
X021875Y002666D02*
X021875Y002073D01*
X020875Y002073D02*
X020875Y002666D01*
X018875Y002666D02*
X018875Y002073D01*
X017875Y002073D02*
X017875Y002666D01*
X016875Y002666D02*
X016875Y002073D01*
X015875Y002073D02*
X015875Y002666D01*
X014875Y002666D02*
X014875Y002073D01*
X013875Y002073D02*
X013875Y002666D01*
X035875Y002666D02*
X035875Y002073D01*
X036875Y002073D02*
X036875Y002666D01*
D12*
X037875Y004370D03*
X038875Y004370D03*
X038875Y005370D03*
X037875Y005370D03*
X037875Y006370D03*
X038875Y006370D03*
X038875Y007370D03*
X037875Y007370D03*
X037875Y008370D03*
X038875Y008370D03*
X038875Y009370D03*
X037875Y009370D03*
X037875Y010370D03*
X038875Y010370D03*
X038875Y011370D03*
X037875Y011370D03*
X037875Y012370D03*
X038875Y012370D03*
X038875Y013370D03*
X037875Y013370D03*
X037875Y014370D03*
X038875Y014370D03*
X038875Y015370D03*
X037875Y015370D03*
X037875Y016370D03*
X038875Y016370D03*
X038875Y017370D03*
X037875Y017370D03*
X037875Y018370D03*
X038875Y018370D03*
X038875Y019370D03*
X037875Y019370D03*
X037875Y020370D03*
X038875Y020370D03*
X038875Y021370D03*
X037875Y021370D03*
D13*
X013875Y019150D02*
X013875Y018590D01*
X012875Y018590D02*
X012875Y019150D01*
X011875Y019150D02*
X011875Y018590D01*
X010875Y018590D02*
X010875Y019150D01*
X009375Y021090D02*
X009375Y021650D01*
X008375Y021650D02*
X008375Y021090D01*
X011875Y002650D02*
X011875Y002090D01*
X012875Y002090D02*
X012875Y002650D01*
D14*
X025875Y011370D03*
X026875Y011370D03*
X026875Y012370D03*
X025875Y012370D03*
X026875Y013370D03*
D15*
X025875Y013370D03*
D16*
X031347Y020035D02*
X031505Y020035D01*
X031505Y019561D01*
X031347Y019561D01*
X031347Y020035D01*
X031347Y019717D02*
X031505Y019717D01*
X031505Y019873D02*
X031347Y019873D01*
X031347Y020029D02*
X031505Y020029D01*
X031780Y019561D02*
X031938Y019561D01*
X031780Y019561D02*
X031780Y020035D01*
X031938Y020035D01*
X031938Y019561D01*
X031938Y019717D02*
X031780Y019717D01*
X031780Y019873D02*
X031938Y019873D01*
X031938Y020029D02*
X031780Y020029D01*
X032213Y019561D02*
X032371Y019561D01*
X032213Y019561D02*
X032213Y020035D01*
X032371Y020035D01*
X032371Y019561D01*
X032371Y019717D02*
X032213Y019717D01*
X032213Y019873D02*
X032371Y019873D01*
X032371Y020029D02*
X032213Y020029D01*
X032646Y019561D02*
X032804Y019561D01*
X032646Y019561D02*
X032646Y020035D01*
X032804Y020035D01*
X032804Y019561D01*
X032804Y019717D02*
X032646Y019717D01*
X032646Y019873D02*
X032804Y019873D01*
X032804Y020029D02*
X032646Y020029D01*
X033079Y019561D02*
X033237Y019561D01*
X033079Y019561D02*
X033079Y020035D01*
X033237Y020035D01*
X033237Y019561D01*
X033237Y019717D02*
X033079Y019717D01*
X033079Y019873D02*
X033237Y019873D01*
X033237Y020029D02*
X033079Y020029D01*
X033512Y019561D02*
X033670Y019561D01*
X033512Y019561D02*
X033512Y020035D01*
X033670Y020035D01*
X033670Y019561D01*
X033670Y019717D02*
X033512Y019717D01*
X033512Y019873D02*
X033670Y019873D01*
X033670Y020029D02*
X033512Y020029D01*
X033945Y019561D02*
X034103Y019561D01*
X033945Y019561D02*
X033945Y020035D01*
X034103Y020035D01*
X034103Y019561D01*
X034103Y019717D02*
X033945Y019717D01*
X033945Y019873D02*
X034103Y019873D01*
X034103Y020029D02*
X033945Y020029D01*
X034378Y019561D02*
X034536Y019561D01*
X034378Y019561D02*
X034378Y020035D01*
X034536Y020035D01*
X034536Y019561D01*
X034536Y019717D02*
X034378Y019717D01*
X034378Y019873D02*
X034536Y019873D01*
X034536Y020029D02*
X034378Y020029D01*
D17*
X035117Y018415D02*
X035423Y018415D01*
X035117Y018415D02*
X035117Y019213D01*
X035423Y019213D01*
X035423Y018415D01*
X035423Y018719D02*
X035117Y018719D01*
X035117Y019023D02*
X035423Y019023D01*
X030644Y019458D02*
X030318Y019458D01*
X030318Y019764D01*
X030644Y019764D01*
X030644Y019458D01*
X030644Y019762D02*
X030318Y019762D01*
X035117Y015521D02*
X035423Y015521D01*
X035117Y015521D02*
X035117Y016043D01*
X035423Y016043D01*
X035423Y015521D01*
X035423Y015825D02*
X035117Y015825D01*
D18*
X035163Y013676D02*
X035437Y013676D01*
X035163Y013676D02*
X035163Y014148D01*
X035437Y014148D01*
X035437Y013676D01*
X035437Y013951D02*
X035163Y013951D01*
X029689Y013282D02*
X029415Y013282D01*
X029415Y013754D01*
X029689Y013754D01*
X029689Y013282D01*
X029689Y013557D02*
X029415Y013557D01*
X029413Y014956D02*
X029139Y014956D01*
X029139Y015860D01*
X029413Y015860D01*
X029413Y014956D01*
X029413Y015231D02*
X029139Y015231D01*
X029139Y015506D02*
X029413Y015506D01*
X029413Y015781D02*
X029139Y015781D01*
X029139Y018716D02*
X029413Y018716D01*
X029139Y018716D02*
X029139Y019620D01*
X029413Y019620D01*
X029413Y018716D01*
X029413Y018991D02*
X029139Y018991D01*
X029139Y019266D02*
X029413Y019266D01*
X029413Y019541D02*
X029139Y019541D01*
D19*
X019517Y018607D03*
X019320Y018607D03*
X019123Y018607D03*
X018927Y018607D03*
X018730Y018607D03*
X018533Y018607D03*
X018533Y017032D03*
X018730Y017032D03*
X018927Y017032D03*
X019123Y017032D03*
X019320Y017032D03*
X019517Y017032D03*
X038378Y002972D03*
X038575Y002972D03*
X038772Y002972D03*
X038772Y001968D03*
X038575Y001968D03*
X038378Y001968D03*
D20*
X038044Y002076D03*
X038044Y002273D03*
X038044Y002470D03*
X038044Y002666D03*
X038044Y002863D03*
X039106Y002863D03*
X039106Y002666D03*
X039106Y002470D03*
X039106Y002273D03*
X039106Y002076D03*
X019812Y017327D03*
X019812Y017524D03*
X019812Y017721D03*
X019812Y017918D03*
X019812Y018115D03*
X019812Y018312D03*
X018238Y018312D03*
X018238Y018115D03*
X018238Y017918D03*
X018238Y017721D03*
X018238Y017524D03*
X018238Y017327D03*
D21*
X019025Y017820D03*
D22*
X006075Y016820D03*
X005075Y016820D03*
X004075Y016820D03*
X003575Y017820D03*
X004575Y017820D03*
X005575Y017820D03*
D23*
X025330Y017959D03*
X025527Y017959D03*
X025723Y017959D03*
X025920Y017959D03*
X025920Y016880D03*
X025723Y016880D03*
X025527Y016880D03*
X025330Y016880D03*
D24*
X025086Y017124D03*
X025086Y017321D03*
X025086Y017518D03*
X025086Y017715D03*
X026164Y017715D03*
X026164Y017518D03*
X026164Y017321D03*
X026164Y017124D03*
D25*
X025910Y015770D03*
X025240Y015770D03*
D26*
X024075Y018185D03*
X024075Y018854D03*
D27*
X025231Y019220D03*
X025919Y019220D03*
X026781Y019220D03*
X027469Y019220D03*
X019419Y016020D03*
X018731Y016020D03*
X018531Y019420D03*
X019219Y019420D03*
D28*
X016825Y018064D03*
X016825Y017375D03*
X021275Y017125D03*
X021275Y017814D03*
X027125Y017664D03*
X027125Y016975D03*
D29*
X013625Y005220D03*
D30*
X012625Y005220D03*
X011625Y005220D03*
X011625Y006220D03*
X012625Y006220D03*
X013625Y006220D03*
X013625Y007220D03*
X012625Y007220D03*
X011625Y007220D03*
X011625Y008220D03*
X012625Y008220D03*
X013625Y008220D03*
X013625Y009220D03*
X012625Y009220D03*
X011625Y009220D03*
X011625Y010220D03*
X012625Y010220D03*
X013625Y010220D03*
X013625Y011220D03*
X012625Y011220D03*
X011625Y011220D03*
X011625Y012220D03*
X012625Y012220D03*
X013625Y012220D03*
D31*
X016375Y012720D03*
X016375Y011720D03*
X016375Y010720D03*
X016375Y009720D03*
X016375Y008720D03*
X016375Y007720D03*
X016375Y014720D03*
D32*
X016375Y013720D03*
D33*
X007725Y011570D03*
X006725Y011120D03*
X007725Y010670D03*
X006725Y010220D03*
X007725Y009770D03*
X006725Y009320D03*
X007725Y008870D03*
X006725Y008420D03*
X007725Y007970D03*
X006725Y007520D03*
X005725Y007970D03*
X005725Y008870D03*
X005725Y009770D03*
X005725Y010670D03*
X005725Y011570D03*
D34*
X006725Y014590D03*
X006725Y004750D03*
D35*
X007025Y005920D02*
X008925Y005920D01*
X008925Y004420D01*
X012075Y001270D01*
X037325Y001270D01*
X037325Y001820D01*
X037325Y003220D01*
X035825Y004720D01*
X035825Y008570D01*
X033875Y010520D01*
X033525Y011370D02*
X033525Y007970D01*
X033175Y007770D02*
X033175Y012870D01*
X033175Y019770D01*
X033158Y019798D01*
X033525Y019720D02*
X033525Y016970D01*
X033925Y014920D02*
X033925Y019720D01*
X033975Y019770D01*
X034024Y019798D01*
X033591Y019798D02*
X033575Y019770D01*
X033525Y019720D01*
X032725Y019770D02*
X032725Y019798D01*
X032725Y019770D02*
X032625Y019670D01*
X032625Y019170D01*
X032275Y019770D02*
X032292Y019798D01*
X032275Y019770D02*
X032275Y012470D01*
X033525Y011370D02*
X037875Y011370D01*
X037875Y010370D02*
X036725Y009220D01*
X038325Y008920D02*
X038325Y021570D01*
X037375Y022520D01*
X007925Y022520D01*
X007925Y019420D01*
X005575Y017070D01*
X005575Y011720D01*
X005725Y011570D01*
X006225Y011320D02*
X006225Y010270D01*
X005725Y009770D01*
X005225Y009370D02*
X005225Y012870D01*
X007225Y011770D02*
X010575Y015120D01*
X012275Y013920D02*
X012275Y013870D01*
X012275Y013920D02*
X008100Y018095D01*
X011375Y021370D01*
X011825Y021870D02*
X011575Y022120D01*
X009375Y022120D01*
X009375Y021370D01*
X008825Y022320D02*
X008825Y019320D01*
X006675Y017170D01*
X006825Y016820D02*
X006075Y016820D01*
X006825Y016820D02*
X008100Y018095D01*
X011825Y020620D02*
X011825Y021870D01*
X011825Y020620D02*
X018625Y020620D01*
X019725Y019520D01*
X019725Y018370D01*
X019775Y018320D01*
X019812Y018312D01*
X019825Y018120D02*
X019812Y018115D01*
X019825Y018120D02*
X020125Y018120D01*
X020125Y020170D01*
X019325Y020970D01*
X019325Y021870D01*
X019075Y022120D01*
X017925Y022120D01*
X017925Y021970D01*
X018825Y019770D02*
X016475Y019770D01*
X016475Y017770D01*
X016825Y017420D01*
X016825Y017375D01*
X016825Y017370D01*
X017825Y017370D01*
X017825Y016320D01*
X018475Y015670D01*
X019375Y015670D01*
X019375Y016020D01*
X019419Y016020D01*
X019425Y016020D01*
X019525Y016120D01*
X019525Y017020D01*
X019517Y017032D01*
X019525Y017070D01*
X019525Y017120D01*
X021275Y017120D01*
X021275Y017125D01*
X021275Y017170D01*
X021625Y017520D01*
X021625Y019770D01*
X027525Y019770D01*
X027925Y019370D01*
X027925Y018420D01*
X027925Y017820D01*
X027125Y017020D01*
X027125Y016975D01*
X027125Y017620D02*
X026375Y016870D01*
X025975Y016870D01*
X025920Y016880D01*
X025925Y016870D01*
X025925Y016620D01*
X025925Y015770D01*
X025910Y015770D01*
X025240Y015770D02*
X025225Y015770D01*
X025225Y015120D01*
X025075Y015120D01*
X025225Y015120D02*
X025725Y014620D01*
X030025Y014620D01*
X030025Y020570D01*
X030425Y020970D01*
X030425Y021870D01*
X030675Y022120D01*
X033875Y022120D01*
X033875Y021370D01*
X031925Y019720D02*
X031925Y008520D01*
X034275Y006170D01*
X035475Y005470D02*
X033175Y007770D01*
X036025Y007920D02*
X036025Y010670D01*
X038325Y008920D02*
X038875Y008370D01*
X038975Y007920D02*
X036025Y007920D01*
X038975Y007920D02*
X039625Y007270D01*
X039625Y001620D01*
X038675Y001620D01*
X038575Y001720D01*
X038575Y001968D01*
X038378Y001968D02*
X038375Y001920D01*
X038275Y001820D01*
X037325Y001820D01*
X037525Y002270D02*
X037525Y003520D01*
X036175Y004870D01*
X036175Y005820D02*
X038325Y005820D01*
X038875Y006370D01*
X037875Y005370D02*
X037875Y004920D01*
X038975Y004920D01*
X039425Y004470D01*
X039425Y001820D01*
X038875Y001820D01*
X038775Y001920D01*
X038772Y001968D01*
X038044Y002273D02*
X038025Y002270D01*
X037525Y002270D01*
X038025Y002870D02*
X038044Y002863D01*
X038025Y002870D02*
X038025Y003220D01*
X038375Y003020D02*
X038378Y002972D01*
X038375Y002970D01*
X038375Y002770D01*
X038475Y002670D01*
X039075Y002670D01*
X039106Y002666D01*
X039125Y002670D01*
X039125Y002820D01*
X039106Y002863D01*
X038772Y002972D02*
X038775Y003020D01*
X038775Y003370D01*
X038725Y003420D01*
X038375Y003020D02*
X038375Y003870D01*
X037875Y004370D01*
X030975Y010870D02*
X030975Y021270D01*
X030875Y021370D01*
X028875Y021370D02*
X028275Y020770D01*
X028275Y017720D01*
X027575Y018070D02*
X027125Y017620D01*
X027125Y017664D01*
X026775Y017720D02*
X026775Y018570D01*
X027425Y019220D01*
X027469Y019220D01*
X026781Y019220D02*
X026775Y019220D01*
X026775Y019570D01*
X024975Y019570D01*
X024875Y019470D01*
X024875Y018420D01*
X025325Y017970D01*
X025330Y017959D01*
X025525Y017970D02*
X025527Y017959D01*
X025525Y017970D02*
X025525Y018570D01*
X025800Y018295D01*
X025875Y018370D01*
X025800Y018295D02*
X025925Y018170D01*
X025925Y017970D01*
X025920Y017959D01*
X025723Y017959D02*
X025725Y017920D01*
X025725Y017520D01*
X026164Y017715D02*
X026175Y017720D01*
X026775Y017720D01*
X026275Y018070D02*
X026225Y018120D01*
X026225Y018920D01*
X025925Y019220D01*
X025919Y019220D01*
X025525Y018970D02*
X025275Y019220D01*
X025231Y019220D01*
X025525Y018970D02*
X025525Y018570D01*
X024775Y018020D02*
X025075Y017720D01*
X025086Y017715D01*
X024775Y018020D02*
X024425Y018370D01*
X024425Y018470D01*
X024075Y018820D01*
X024075Y018854D01*
X024075Y018185D02*
X024075Y017370D01*
X024775Y016670D01*
X025325Y016870D02*
X025325Y016420D01*
X025475Y016270D01*
X025125Y015870D02*
X025225Y015770D01*
X025125Y015870D02*
X025125Y017120D01*
X025086Y017124D01*
X025330Y016880D02*
X025325Y016870D01*
X025525Y016870D02*
X025527Y016880D01*
X025525Y016870D02*
X025525Y016670D01*
X025575Y016620D01*
X025925Y016620D01*
X021275Y017120D02*
X021275Y011870D01*
X026375Y011870D01*
X026875Y011370D01*
X025675Y010870D02*
X030975Y010870D01*
X025675Y010870D02*
X025375Y011170D01*
X025375Y011670D01*
X021175Y011670D01*
X021075Y011770D01*
X021075Y012720D01*
X016375Y012720D01*
X015975Y012120D02*
X015975Y017670D01*
X016825Y017720D02*
X016825Y018064D01*
X016825Y017720D02*
X018225Y017720D01*
X018238Y017721D01*
X018238Y017524D02*
X018275Y017520D01*
X018275Y017370D01*
X018238Y017327D01*
X018225Y017370D01*
X017825Y017370D01*
X018175Y017020D02*
X018175Y016970D01*
X018175Y017020D02*
X018475Y017020D01*
X018533Y017032D01*
X018525Y017020D01*
X018525Y016220D01*
X018725Y016020D01*
X018731Y016020D01*
X019812Y017524D02*
X019825Y017520D01*
X021275Y017520D01*
X021275Y017814D01*
X019525Y018620D02*
X019517Y018607D01*
X019525Y018620D02*
X019525Y019120D01*
X019225Y019420D01*
X019219Y019420D01*
X019175Y019420D01*
X018825Y019770D01*
X018531Y019420D02*
X018525Y019420D01*
X017925Y018820D01*
X017925Y018120D01*
X017925Y018070D01*
X017775Y018070D01*
X017925Y018120D02*
X018225Y018120D01*
X018238Y018115D01*
X018275Y018070D01*
X018275Y017920D01*
X018238Y017918D01*
X012625Y016820D02*
X012625Y012220D01*
X012625Y011220D01*
X012625Y010220D01*
X012625Y009220D01*
X013125Y008720D02*
X013625Y008220D01*
X013125Y008720D02*
X013125Y012670D01*
X013175Y012720D01*
X013625Y012220D02*
X014125Y011720D01*
X014125Y009020D01*
X014825Y008320D01*
X015175Y007720D02*
X015175Y013620D01*
X015625Y014070D01*
X015975Y012120D02*
X016375Y011720D01*
X016425Y011320D02*
X024825Y011320D01*
X024175Y010170D02*
X020225Y006220D01*
X019975Y006670D02*
X016325Y010320D01*
X015475Y010320D01*
X015475Y011520D01*
X015525Y011570D01*
X015825Y010720D02*
X016425Y011320D01*
X016925Y010720D02*
X018775Y008870D01*
X015175Y007720D02*
X015175Y003070D01*
X015875Y002370D01*
X014875Y002370D02*
X014875Y002970D01*
X012625Y005220D01*
X012625Y006220D01*
X012625Y007220D01*
X012625Y008220D01*
X011625Y008220D02*
X011625Y007220D01*
X011625Y006220D01*
X011625Y005220D01*
X012725Y004120D01*
X012325Y002820D02*
X008125Y007020D01*
X006225Y007020D01*
X006225Y009720D01*
X006725Y010220D01*
X005725Y008870D02*
X005225Y009370D01*
X006725Y008420D02*
X007225Y008920D01*
X007225Y011770D01*
X006225Y011320D02*
X008675Y013770D01*
X011625Y012220D02*
X011625Y011220D01*
X011625Y010220D01*
X011625Y009220D01*
X011625Y008220D01*
X007025Y005920D02*
X006025Y006920D01*
X006025Y007670D01*
X005725Y007970D01*
X012325Y002820D02*
X012325Y001470D01*
X018925Y001470D01*
X024825Y007370D01*
X031925Y019720D02*
X031875Y019770D01*
X031859Y019798D01*
X027875Y021370D02*
X026325Y021370D01*
X026325Y021870D01*
X025875Y022320D01*
X008825Y022320D01*
D36*
X015975Y017670D03*
X017775Y018070D03*
X018175Y016970D03*
X015625Y014070D03*
X013175Y012720D03*
X012275Y013870D03*
X010575Y015120D03*
X008675Y013770D03*
X005225Y012870D03*
X006675Y017170D03*
X012625Y016820D03*
X017925Y021970D03*
X024775Y018020D03*
X025725Y017520D03*
X026275Y018070D03*
X025875Y018370D03*
X027575Y018070D03*
X027925Y018420D03*
X028275Y017720D03*
X025475Y016270D03*
X024775Y016670D03*
X025075Y015120D03*
X024825Y011320D03*
X024175Y010170D03*
X024825Y007370D03*
X020225Y006220D03*
X019975Y006670D03*
X018775Y008870D03*
X016925Y010720D03*
X015825Y010720D03*
X015525Y011570D03*
X014825Y008320D03*
X015175Y007720D03*
X012725Y004120D03*
X032275Y012470D03*
X033175Y012870D03*
X033925Y014920D03*
X033525Y016970D03*
X032625Y019170D03*
X036025Y010670D03*
X033875Y010520D03*
X036725Y009220D03*
X033525Y007970D03*
X034275Y006170D03*
X035475Y005470D03*
X036175Y005820D03*
X036175Y004870D03*
X038725Y003420D03*
X038025Y003220D03*
M02*
