%
M48
M72
T01C0.0240
T02C0.0276
T03C0.0315
T04C0.0394
T05C0.0400
T06C0.0472
T07C0.1250
T08C0.1280
%
T01
X6825Y3600
X9275Y5100
X10125Y5450
X7925Y6350
X10925Y7250
X14275Y10100
X15125Y10450
X15375Y9750
X21875Y9400
X26425Y8100
X27475Y6900
X27125Y4750
X27825Y4300
X27525Y3900
X24475Y4250
X31925Y6900
X36925Y6200
X38725Y4150
X38025Y3950
X37575Y2650
X34375Y12100
X33175Y12600
X32275Y14250
X34025Y14600
X34375Y16300
X26225Y16250
X24975Y16250
X24525Y15500
X25225Y17350
X25875Y18150
X24175Y18850
X17225Y17300
X17225Y14050
X25075Y13000
X11025Y20650
X10925Y21150
X7725Y14300
X9125Y12150
X8575Y11450
X9825Y3600
T02
X25875Y12100
X26875Y12100
X26875Y13100
X25875Y13100
X25875Y14100
X26875Y14100
T03
X13875Y19600
X12875Y19600
X11875Y19600
X10875Y19600
X9375Y22100
X8375Y22100
X11675Y15550
X11675Y14550
X11675Y13550
X11675Y12550
X11675Y11550
X11675Y10550
X11675Y9550
X11675Y8550
X11875Y3100
X12875Y3100
T04
X13875Y3100
X14875Y3100
X15875Y3100
X16875Y3100
X17875Y3100
X18875Y3100
X20875Y3100
X21875Y3100
X22875Y3100
X23875Y3100
X24875Y3100
X25875Y3100
X26875Y3100
X27875Y3100
X29875Y3100
X30875Y3100
X31875Y3100
X32875Y3100
X33875Y3100
X34875Y3100
X35875Y3100
X36875Y3100
X37875Y5100
X38875Y5100
X38875Y6100
X37875Y6100
X37875Y7100
X38875Y7100
X38875Y8100
X37875Y8100
X37875Y9100
X38875Y9100
X38875Y10100
X38875Y11100
X37875Y11100
X37875Y10100
X37875Y12100
X38875Y12100
X38875Y13100
X37875Y13100
X37875Y14100
X38875Y14100
X38875Y15100
X37875Y15100
X37875Y16100
X38875Y16100
X38875Y17100
X38875Y18100
X37875Y18100
X37875Y17100
X37875Y19100
X38875Y19100
X38875Y20100
X37875Y20100
X37875Y21100
X38875Y21100
X38875Y22100
X37875Y22100
X34875Y22100
X33875Y22100
X32875Y22100
X31875Y22100
X30875Y22100
X29875Y22100
X28875Y22100
X27875Y22100
X25875Y22100
X24875Y22100
X23875Y22100
X22875Y22100
X21875Y22100
X20875Y22100
X19875Y22100
X18875Y22100
X17375Y22100
X16375Y22100
X15375Y22100
X14375Y22100
X13375Y22100
X12375Y22100
X11375Y22100
X10375Y22100
X10375Y22100
T05
X2925Y950
X3925Y950
X4925Y950
X5925Y950
X6925Y950
X7925Y950
X8925Y950
X9925Y950
X9925Y1950
X8925Y1950
X7925Y1950
X6925Y1950
X5925Y1950
X4925Y1950
X3925Y1950
X2925Y1950
X2925Y2950
X3925Y2950
X4925Y2950
X5925Y2950
X6925Y2950
X7925Y2950
X8925Y2950
X9925Y2950
X6075Y17550
X5075Y17550
X4075Y17550
X3575Y18550
X4575Y18550
X5575Y18550
T06
X5725Y12300
X5725Y11400
X6725Y10950
X7725Y10500
X6725Y10050
X7725Y9600
X6725Y9150
X7725Y8700
X6725Y8250
X5725Y8700
X5725Y9600
X5725Y10500
X6725Y11850
X7725Y12300
X7725Y11400
T07
X6725Y15320
X6725Y5480
X21675Y5050
X23375Y16350
T08
X6825Y21050
X2825Y21050
M30
