%
M48
M72
T01C0.0240
T02C0.0276
T03C0.0315
T04C0.0394
T05C0.0400
T06C0.0472
T07C0.1250
T08C0.1280
%
T01
X8425Y3400
X9275Y5150
X7225Y6850
X6675Y7600
X8375Y8450
X12175Y8550
X13625Y8200
X15525Y9600
X14075Y9950
X8725Y13350
X8375Y13000
X5225Y12700
X11525Y18550
X17225Y18200
X17525Y17800
X18625Y17100
X23975Y17750
X24875Y18200
X27425Y16700
X27875Y17050
X28575Y17750
X26225Y16250
X24975Y16250
X24725Y14100
X24375Y12000
X27475Y7250
X26425Y6850
X27125Y4750
X27825Y4300
X27525Y3900
X24475Y4250
X31725Y7250
X36075Y9250
X38425Y6700
X38725Y4150
X38025Y3950
X37575Y2650
X35075Y13600
X32525Y13950
X32825Y17750
X33925Y18850
T02
X26875Y14100
X25875Y14100
X25875Y13100
X26875Y13100
X26875Y12100
X25875Y12100
T03
X13875Y19600
X12875Y19600
X11875Y19600
X10875Y19600
X9375Y22100
X8375Y22100
X11575Y15400
X11575Y14400
X11575Y13400
X11575Y12400
X11575Y11400
X11575Y10400
X11575Y9400
X11575Y8400
X11875Y3100
X12875Y3100
T04
X13875Y3100
X14875Y3100
X15875Y3100
X16875Y3100
X17875Y3100
X18875Y3100
X20875Y3100
X21875Y3100
X22875Y3100
X23875Y3100
X24875Y3100
X25875Y3100
X26875Y3100
X27875Y3100
X29875Y3100
X30875Y3100
X31875Y3100
X32875Y3100
X33875Y3100
X34875Y3100
X35875Y3100
X36875Y3100
X37875Y5100
X38875Y5100
X38875Y6100
X37875Y6100
X37875Y7100
X38875Y7100
X38875Y8100
X37875Y8100
X37875Y9100
X38875Y9100
X38875Y10100
X38875Y11100
X37875Y11100
X37875Y10100
X37875Y12100
X38875Y12100
X38875Y13100
X37875Y13100
X37875Y14100
X38875Y14100
X38875Y15100
X37875Y15100
X37875Y16100
X38875Y16100
X38875Y17100
X38875Y18100
X37875Y18100
X37875Y17100
X37875Y19100
X38875Y19100
X38875Y20100
X37875Y20100
X37875Y21100
X38875Y21100
X38875Y22100
X37875Y22100
X34875Y22100
X33875Y22100
X32875Y22100
X31875Y22100
X30875Y22100
X29875Y22100
X28875Y22100
X27875Y22100
X25875Y22100
X24875Y22100
X23875Y22100
X22875Y22100
X21875Y22100
X20875Y22100
X19875Y22100
X18875Y22100
X17375Y22100
X16375Y22100
X15375Y22100
X14375Y22100
X13375Y22100
X12375Y22100
X11375Y22100
X10375Y22100
X10375Y22100
T05
X2925Y950
X3925Y950
X4925Y950
X5925Y950
X6925Y950
X7925Y950
X8925Y950
X9925Y950
X9925Y1950
X8925Y1950
X7925Y1950
X6925Y1950
X5925Y1950
X4925Y1950
X3925Y1950
X2925Y1950
X2925Y2950
X3925Y2950
X4925Y2950
X5925Y2950
X6925Y2950
X7925Y2950
X8925Y2950
X9925Y2950
X6075Y17550
X5075Y17550
X4075Y17550
X3575Y18550
X4575Y18550
X5575Y18550
T06
X5725Y12300
X5725Y11400
X6725Y10950
X7725Y10500
X6725Y10050
X7725Y9600
X6725Y9150
X7725Y8700
X6725Y8250
X5725Y8700
X5725Y9600
X5725Y10500
X6725Y11850
X7725Y12300
X7725Y11400
T07
X6725Y15320
X6725Y5480
X21575Y4900
X23375Y16350
T08
X6825Y21050
X2825Y21050
M30
