G75*
G70*
%OFA0B0*%
%FSLAX24Y24*%
%IPPOS*%
%LPD*%
%AMOC8*
5,1,8,0,0,1.08239X$1,22.5*
%
%ADD10C,0.0060*%
%ADD11C,0.0050*%
%ADD12C,0.0040*%
%ADD13R,0.0200X0.0200*%
%ADD14C,0.0030*%
%ADD15C,0.0080*%
%ADD16R,0.0160X0.0280*%
%ADD17R,0.0280X0.0160*%
%ADD18C,0.0160*%
D10*
X029232Y006430D02*
X029232Y006857D01*
X029446Y007071D01*
X029659Y006857D01*
X029659Y006430D01*
X029877Y006430D02*
X030197Y006430D01*
X030304Y006537D01*
X030304Y006964D01*
X030197Y007071D01*
X029877Y007071D01*
X029877Y006430D01*
X029984Y006021D02*
X030197Y006021D01*
X030304Y005914D01*
X029877Y005487D01*
X029984Y005380D01*
X030197Y005380D01*
X030304Y005487D01*
X030304Y005914D01*
X030521Y006021D02*
X030948Y006021D01*
X030948Y005914D01*
X030521Y005487D01*
X030521Y005380D01*
X030465Y004971D02*
X030038Y004971D01*
X030038Y004330D01*
X030038Y004650D02*
X030251Y004650D01*
X030682Y004330D02*
X031003Y004330D01*
X031110Y004437D01*
X031110Y004864D01*
X031003Y004971D01*
X030682Y004971D01*
X030682Y004330D01*
X031327Y004330D02*
X031327Y004971D01*
X031647Y004971D01*
X031754Y004864D01*
X031754Y004650D01*
X031647Y004544D01*
X031327Y004544D01*
X031541Y004544D02*
X031754Y004330D01*
X032616Y004757D02*
X032830Y004330D01*
X033043Y004757D01*
X033261Y004757D02*
X033474Y004971D01*
X033474Y004330D01*
X033261Y004330D02*
X033688Y004330D01*
X033905Y004330D02*
X033905Y004437D01*
X034012Y004437D01*
X034012Y004330D01*
X033905Y004330D01*
X034228Y004437D02*
X034655Y004864D01*
X034655Y004437D01*
X034548Y004330D01*
X034334Y004330D01*
X034228Y004437D01*
X034228Y004864D01*
X034334Y004971D01*
X034548Y004971D01*
X034655Y004864D01*
X034709Y005380D02*
X034495Y005380D01*
X034389Y005487D01*
X034171Y005380D02*
X033744Y005380D01*
X033958Y005380D02*
X033958Y006021D01*
X033744Y005807D01*
X033527Y006021D02*
X033100Y005380D01*
X032882Y005487D02*
X032882Y005594D01*
X032775Y005700D01*
X032455Y005700D01*
X032455Y005487D01*
X032562Y005380D01*
X032775Y005380D01*
X032882Y005487D01*
X032669Y005914D02*
X032455Y005700D01*
X032237Y005807D02*
X032237Y005914D01*
X032131Y006021D01*
X031917Y006021D01*
X031810Y005914D01*
X031593Y006021D02*
X031166Y005380D01*
X031810Y005380D02*
X032237Y005807D01*
X032237Y005380D02*
X031810Y005380D01*
X032669Y005914D02*
X032882Y006021D01*
X032775Y006430D02*
X032562Y006430D01*
X032455Y006537D01*
X032455Y006964D01*
X032562Y007071D01*
X032775Y007071D01*
X032882Y006964D01*
X033100Y007071D02*
X033100Y006430D01*
X032882Y006537D02*
X032775Y006430D01*
X033100Y006750D02*
X033527Y006750D01*
X033744Y006750D02*
X034171Y006750D01*
X034171Y006857D02*
X034171Y006430D01*
X034389Y006537D02*
X034495Y006430D01*
X034709Y006430D01*
X034816Y006537D01*
X034816Y006644D01*
X034709Y006750D01*
X034495Y006750D01*
X034389Y006857D01*
X034389Y006964D01*
X034495Y007071D01*
X034709Y007071D01*
X034816Y006964D01*
X035033Y007071D02*
X035033Y006430D01*
X035460Y006430D01*
X035247Y006750D02*
X035033Y006750D01*
X035033Y007071D02*
X035460Y007071D01*
X034171Y006857D02*
X033958Y007071D01*
X033744Y006857D01*
X033744Y006430D01*
X033527Y006430D02*
X033527Y007071D01*
X034495Y006021D02*
X034709Y006021D01*
X034816Y005914D01*
X034816Y005807D01*
X034709Y005700D01*
X034816Y005594D01*
X034816Y005487D01*
X034709Y005380D01*
X034709Y005700D02*
X034602Y005700D01*
X034389Y005914D02*
X034495Y006021D01*
X031593Y006430D02*
X031593Y007071D01*
X031379Y006857D01*
X031166Y007071D01*
X031166Y006430D01*
X030948Y006430D02*
X030948Y006857D01*
X030735Y007071D01*
X030521Y006857D01*
X030521Y006430D01*
X029984Y006021D02*
X029877Y005914D01*
X029877Y005487D01*
X029659Y006750D02*
X029232Y006750D01*
X030521Y006750D02*
X030948Y006750D01*
D11*
X031125Y003600D02*
X030625Y003600D01*
X030375Y003350D01*
X030125Y003600D01*
X029625Y003600D01*
X029375Y003350D01*
X029375Y002850D01*
X029625Y002600D01*
X030125Y002600D01*
X030375Y002850D01*
X030625Y002600D01*
X031125Y002600D01*
X031375Y002850D01*
X031625Y002600D01*
X032125Y002600D01*
X032375Y002850D01*
X032625Y002600D01*
X033125Y002600D01*
X033375Y002850D01*
X033625Y002600D01*
X034125Y002600D01*
X034375Y002850D01*
X034625Y002600D01*
X035125Y002600D01*
X035375Y002850D01*
X035625Y002600D01*
X036125Y002600D01*
X036375Y002850D01*
X036625Y002600D01*
X037125Y002600D01*
X037375Y002850D01*
X037375Y003350D01*
X037125Y003600D01*
X036625Y003600D01*
X036375Y003350D01*
X036125Y003600D01*
X035625Y003600D01*
X035375Y003350D01*
X035125Y003600D01*
X034625Y003600D01*
X034375Y003350D01*
X034125Y003600D01*
X033625Y003600D01*
X033375Y003350D01*
X033125Y003600D01*
X032625Y003600D01*
X032375Y003350D01*
X032125Y003600D01*
X031625Y003600D01*
X031375Y003350D01*
X031125Y003600D01*
X028375Y003350D02*
X028375Y002850D01*
X028125Y002600D01*
X027625Y002600D01*
X027375Y002850D01*
X027125Y002600D01*
X026625Y002600D01*
X026375Y002850D01*
X026125Y002600D01*
X025625Y002600D01*
X025375Y002850D01*
X025125Y002600D01*
X024625Y002600D01*
X024375Y002850D01*
X024125Y002600D01*
X023625Y002600D01*
X023375Y002850D01*
X023125Y002600D01*
X022625Y002600D01*
X022375Y002850D01*
X022125Y002600D01*
X021625Y002600D01*
X021375Y002850D01*
X021125Y002600D01*
X020625Y002600D01*
X020375Y002850D01*
X020375Y003350D01*
X020625Y003600D01*
X021125Y003600D01*
X021375Y003350D01*
X021625Y003600D01*
X022125Y003600D01*
X022375Y003350D01*
X022625Y003600D01*
X023125Y003600D01*
X023375Y003350D01*
X023625Y003600D01*
X024125Y003600D01*
X024375Y003350D01*
X024625Y003600D01*
X025125Y003600D01*
X025375Y003350D01*
X025625Y003600D01*
X026125Y003600D01*
X026375Y003350D01*
X026625Y003600D01*
X027125Y003600D01*
X027375Y003350D01*
X027625Y003600D01*
X028125Y003600D01*
X028375Y003350D01*
X019375Y003350D02*
X019375Y002850D01*
X019125Y002600D01*
X018625Y002600D01*
X018375Y002850D01*
X018125Y002600D01*
X017625Y002600D01*
X017375Y002850D01*
X017125Y002600D01*
X016625Y002600D01*
X016375Y002850D01*
X016125Y002600D01*
X015625Y002600D01*
X015375Y002850D01*
X015125Y002600D01*
X014625Y002600D01*
X014375Y002850D01*
X014125Y002600D01*
X013625Y002600D01*
X013375Y002850D01*
X013125Y002600D01*
X012625Y002600D01*
X012375Y002850D01*
X012125Y002600D01*
X011625Y002600D01*
X011375Y002850D01*
X011375Y003350D01*
X011625Y003600D01*
X012125Y003600D01*
X012375Y003350D01*
X012625Y003600D01*
X013125Y003600D01*
X013375Y003350D01*
X013625Y003600D01*
X014125Y003600D01*
X014375Y003350D01*
X014625Y003600D01*
X015125Y003600D01*
X015375Y003350D01*
X015625Y003600D01*
X016125Y003600D01*
X016375Y003350D01*
X016625Y003600D01*
X017125Y003600D01*
X017375Y003350D01*
X017625Y003600D01*
X018125Y003600D01*
X018375Y003350D01*
X018625Y003600D01*
X019125Y003600D01*
X019375Y003350D01*
X008425Y004200D02*
X002125Y004200D01*
X002375Y004200D02*
X002375Y016600D01*
X002125Y016600D02*
X008425Y016600D01*
X008425Y004200D01*
X025375Y011850D02*
X025625Y011600D01*
X027125Y011600D01*
X027375Y011850D01*
X027375Y012350D01*
X027125Y012600D01*
X027375Y012850D01*
X027375Y013350D01*
X027125Y013600D01*
X027375Y013850D01*
X027375Y014350D01*
X027125Y014600D01*
X025375Y014600D01*
X025375Y013850D01*
X025625Y013600D01*
X025375Y013350D01*
X025375Y012850D01*
X025625Y012600D01*
X025375Y012350D01*
X025375Y011850D01*
X029276Y013993D02*
X029276Y020213D01*
X035300Y020213D01*
X035300Y013993D01*
X029276Y013993D01*
X031127Y013993D02*
X031127Y014623D01*
X031126Y014623D02*
X031128Y014662D01*
X031134Y014700D01*
X031143Y014737D01*
X031156Y014774D01*
X031173Y014809D01*
X031192Y014842D01*
X031215Y014873D01*
X031241Y014902D01*
X031270Y014928D01*
X031301Y014951D01*
X031334Y014970D01*
X031369Y014987D01*
X031406Y015000D01*
X031443Y015009D01*
X031481Y015015D01*
X031520Y015017D01*
X034197Y015017D01*
X034236Y015015D01*
X034274Y015009D01*
X034311Y015000D01*
X034348Y014987D01*
X034383Y014970D01*
X034416Y014951D01*
X034447Y014928D01*
X034476Y014902D01*
X034502Y014873D01*
X034525Y014842D01*
X034544Y014809D01*
X034561Y014774D01*
X034574Y014737D01*
X034583Y014700D01*
X034589Y014662D01*
X034591Y014623D01*
X034591Y013993D01*
X037375Y013850D02*
X037625Y013600D01*
X037375Y013350D01*
X037375Y012850D01*
X037625Y012600D01*
X037375Y012350D01*
X037375Y011850D01*
X037625Y011600D01*
X037375Y011350D01*
X037375Y010850D01*
X037625Y010600D01*
X037375Y010350D01*
X037375Y009850D01*
X037625Y009600D01*
X037375Y009350D01*
X037375Y008850D01*
X037625Y008600D01*
X037375Y008350D01*
X037375Y007850D01*
X037625Y007600D01*
X037375Y007350D01*
X037375Y006850D01*
X037625Y006600D01*
X037375Y006350D01*
X037375Y005850D01*
X037625Y005600D01*
X037375Y005350D01*
X037375Y004850D01*
X037625Y004600D01*
X039125Y004600D01*
X039375Y004850D01*
X039375Y005350D01*
X039125Y005600D01*
X039375Y005850D01*
X039375Y006350D01*
X039125Y006600D01*
X039375Y006850D01*
X039375Y007350D01*
X039125Y007600D01*
X039375Y007850D01*
X039375Y008350D01*
X039125Y008600D01*
X039375Y008850D01*
X039375Y009350D01*
X039125Y009600D01*
X039375Y009850D01*
X039375Y010350D01*
X039125Y010600D01*
X039375Y010850D01*
X039375Y011350D01*
X039125Y011600D01*
X039375Y011850D01*
X039375Y012350D01*
X039125Y012600D01*
X039375Y012850D01*
X039375Y013350D01*
X039125Y013600D01*
X039375Y013850D01*
X039375Y014350D01*
X039125Y014600D01*
X039375Y014850D01*
X039375Y015350D01*
X039125Y015600D01*
X039375Y015850D01*
X039375Y016350D01*
X039125Y016600D01*
X039375Y016850D01*
X039375Y017350D01*
X039125Y017600D01*
X039375Y017850D01*
X039375Y018350D01*
X039125Y018600D01*
X039375Y018850D01*
X039375Y019350D01*
X039125Y019600D01*
X039375Y019850D01*
X039375Y020350D01*
X039125Y020600D01*
X039375Y020850D01*
X039375Y021350D01*
X039125Y021600D01*
X039375Y021850D01*
X039375Y022350D01*
X039125Y022600D01*
X037625Y022600D01*
X037375Y022350D01*
X037375Y021850D01*
X037625Y021600D01*
X037375Y021350D01*
X037375Y020850D01*
X037625Y020600D01*
X037375Y020350D01*
X037375Y019850D01*
X037625Y019600D01*
X037375Y019350D01*
X037375Y018850D01*
X037625Y018600D01*
X037375Y018350D01*
X037375Y017850D01*
X037625Y017600D01*
X037375Y017350D01*
X037375Y016850D01*
X037625Y016600D01*
X037375Y016350D01*
X037375Y015850D01*
X037625Y015600D01*
X037375Y015350D01*
X037375Y014850D01*
X037625Y014600D01*
X037375Y014350D01*
X037375Y013850D01*
X035125Y021600D02*
X034625Y021600D01*
X034375Y021850D01*
X034125Y021600D01*
X033625Y021600D01*
X033375Y021850D01*
X033125Y021600D01*
X032625Y021600D01*
X032375Y021850D01*
X032125Y021600D01*
X031625Y021600D01*
X031375Y021850D01*
X031125Y021600D01*
X030625Y021600D01*
X030375Y021850D01*
X030125Y021600D01*
X029625Y021600D01*
X029375Y021850D01*
X029125Y021600D01*
X028625Y021600D01*
X028375Y021850D01*
X028125Y021600D01*
X027625Y021600D01*
X027375Y021850D01*
X027375Y022350D01*
X027625Y022600D01*
X028125Y022600D01*
X028375Y022350D01*
X028625Y022600D01*
X029125Y022600D01*
X029375Y022350D01*
X029625Y022600D01*
X030125Y022600D01*
X030375Y022350D01*
X030625Y022600D01*
X031125Y022600D01*
X031375Y022350D01*
X031625Y022600D01*
X032125Y022600D01*
X032375Y022350D01*
X032625Y022600D01*
X033125Y022600D01*
X033375Y022350D01*
X033625Y022600D01*
X034125Y022600D01*
X034375Y022350D01*
X034625Y022600D01*
X035125Y022600D01*
X035375Y022350D01*
X035375Y021850D01*
X035125Y021600D01*
X026375Y021850D02*
X026125Y021600D01*
X025625Y021600D01*
X025375Y021850D01*
X025125Y021600D01*
X024625Y021600D01*
X024375Y021850D01*
X024125Y021600D01*
X023625Y021600D01*
X023375Y021850D01*
X023125Y021600D01*
X022625Y021600D01*
X022375Y021850D01*
X022125Y021600D01*
X021625Y021600D01*
X021375Y021850D01*
X021125Y021600D01*
X020625Y021600D01*
X020375Y021850D01*
X020125Y021600D01*
X019625Y021600D01*
X019375Y021850D01*
X019125Y021600D01*
X018625Y021600D01*
X018375Y021850D01*
X018375Y022350D01*
X018625Y022600D01*
X019125Y022600D01*
X019375Y022350D01*
X019625Y022600D01*
X020125Y022600D01*
X020375Y022350D01*
X020625Y022600D01*
X021125Y022600D01*
X021375Y022350D01*
X021625Y022600D01*
X022125Y022600D01*
X022375Y022350D01*
X022625Y022600D01*
X023125Y022600D01*
X023375Y022350D01*
X023625Y022600D01*
X024125Y022600D01*
X024375Y022350D01*
X024625Y022600D01*
X025125Y022600D01*
X025375Y022350D01*
X025625Y022600D01*
X026125Y022600D01*
X026375Y022350D01*
X026375Y021850D01*
X017875Y021850D02*
X017625Y021600D01*
X017125Y021600D01*
X016875Y021850D01*
X016625Y021600D01*
X016125Y021600D01*
X015875Y021850D01*
X015625Y021600D01*
X015125Y021600D01*
X014875Y021850D01*
X014625Y021600D01*
X014125Y021600D01*
X013875Y021850D01*
X013625Y021600D01*
X013125Y021600D01*
X012875Y021850D01*
X012625Y021600D01*
X012125Y021600D01*
X011875Y021850D01*
X011625Y021600D01*
X011125Y021600D01*
X010875Y021850D01*
X010625Y021600D01*
X010125Y021600D01*
X009875Y021850D01*
X009625Y021600D01*
X009125Y021600D01*
X008875Y021850D01*
X008625Y021600D01*
X008125Y021600D01*
X007875Y021850D01*
X007875Y022350D01*
X008125Y022600D01*
X008625Y022600D01*
X008875Y022350D01*
X009125Y022600D01*
X009625Y022600D01*
X009875Y022350D01*
X010125Y022600D01*
X010625Y022600D01*
X010875Y022350D01*
X011125Y022600D01*
X011625Y022600D01*
X011875Y022350D01*
X012125Y022600D01*
X012625Y022600D01*
X012875Y022350D01*
X013125Y022600D01*
X013625Y022600D01*
X013875Y022350D01*
X014125Y022600D01*
X014625Y022600D01*
X014875Y022350D01*
X015125Y022600D01*
X015625Y022600D01*
X015875Y022350D01*
X016125Y022600D01*
X016625Y022600D01*
X016875Y022350D01*
X017125Y022600D01*
X017625Y022600D01*
X017875Y022350D01*
X017875Y021850D01*
X014375Y019850D02*
X014125Y020100D01*
X013625Y020100D01*
X013375Y019850D01*
X013125Y020100D01*
X012625Y020100D01*
X012375Y019850D01*
X012125Y020100D01*
X011625Y020100D01*
X011375Y019850D01*
X011125Y020100D01*
X010625Y020100D01*
X010375Y019850D01*
X010375Y019350D01*
X010625Y019100D01*
X011125Y019100D01*
X011375Y019350D01*
X011625Y019100D01*
X012125Y019100D01*
X012375Y019350D01*
X012625Y019100D01*
X013125Y019100D01*
X013375Y019350D01*
X013625Y019100D01*
X014125Y019100D01*
X014375Y019350D01*
X014375Y019850D01*
X037847Y003889D02*
X038024Y003889D01*
X037945Y003791D02*
X037945Y003692D01*
X037847Y003692D02*
X037847Y003889D01*
X037945Y003791D02*
X038280Y003791D01*
X038870Y003791D02*
X039205Y003791D01*
X039205Y003692D01*
X039205Y002708D02*
X039205Y002609D01*
X038870Y002609D01*
X038280Y002609D02*
X037945Y002609D01*
X037945Y002708D01*
D12*
X037105Y002217D02*
X036645Y001910D01*
X036645Y001756D02*
X036645Y001449D01*
X036645Y001603D02*
X037105Y001603D01*
X037105Y001910D02*
X036645Y002217D01*
X036105Y002217D02*
X035645Y001910D01*
X035721Y001756D02*
X035875Y001756D01*
X035952Y001679D01*
X035952Y001449D01*
X036105Y001449D02*
X035645Y001449D01*
X035645Y001679D01*
X035721Y001756D01*
X035952Y001603D02*
X036105Y001756D01*
X036105Y001910D02*
X035645Y002217D01*
X035105Y002217D02*
X035105Y001910D01*
X035105Y002063D02*
X034645Y002063D01*
X034798Y001910D01*
X034721Y001756D02*
X034645Y001679D01*
X034645Y001526D01*
X034721Y001449D01*
X035028Y001449D01*
X035105Y001526D01*
X035105Y001679D01*
X035028Y001756D01*
X035105Y001296D02*
X034798Y001296D01*
X034645Y001142D01*
X034798Y000989D01*
X035105Y000989D01*
X035028Y000835D02*
X034721Y000835D01*
X034645Y000759D01*
X034645Y000528D01*
X035105Y000528D01*
X035105Y000759D01*
X035028Y000835D01*
X034875Y000989D02*
X034875Y001296D01*
X034105Y001296D02*
X033798Y001296D01*
X033645Y001142D01*
X033798Y000989D01*
X034105Y000989D01*
X034028Y000835D02*
X033721Y000835D01*
X033645Y000759D01*
X033645Y000528D01*
X034105Y000528D01*
X034105Y000759D01*
X034028Y000835D01*
X033875Y000989D02*
X033875Y001296D01*
X034028Y001449D02*
X033721Y001449D01*
X033645Y001526D01*
X033645Y001679D01*
X033721Y001756D01*
X033721Y001910D02*
X033645Y001986D01*
X033645Y002140D01*
X033721Y002217D01*
X034028Y001910D01*
X034105Y001986D01*
X034105Y002140D01*
X034028Y002217D01*
X033721Y002217D01*
X033721Y001910D02*
X034028Y001910D01*
X034028Y001756D02*
X034105Y001679D01*
X034105Y001526D01*
X034028Y001449D01*
X033105Y001449D02*
X033105Y001756D01*
X033105Y001603D02*
X032645Y001603D01*
X032798Y001449D01*
X032798Y001296D02*
X033105Y001296D01*
X032875Y001296D02*
X032875Y000989D01*
X032798Y000989D02*
X032645Y001142D01*
X032798Y001296D01*
X032798Y000989D02*
X033105Y000989D01*
X032105Y000989D02*
X031798Y000989D01*
X031645Y001142D01*
X031798Y001296D01*
X032105Y001296D01*
X032105Y001449D02*
X032105Y001756D01*
X032105Y001603D02*
X031645Y001603D01*
X031798Y001449D01*
X031875Y001296D02*
X031875Y000989D01*
X031105Y001449D02*
X030798Y001449D01*
X030645Y001603D01*
X030798Y001756D01*
X031105Y001756D01*
X031028Y001910D02*
X031105Y001986D01*
X031105Y002140D01*
X031028Y002217D01*
X030721Y002217D01*
X030645Y002140D01*
X030645Y001986D01*
X030721Y001910D01*
X030798Y001910D01*
X030875Y001986D01*
X030875Y002217D01*
X030875Y001756D02*
X030875Y001449D01*
X030105Y001449D02*
X029798Y001449D01*
X029645Y001603D01*
X029798Y001756D01*
X030105Y001756D01*
X030028Y001910D02*
X029952Y001910D01*
X029875Y001986D01*
X029875Y002140D01*
X029952Y002217D01*
X030028Y002217D01*
X030105Y002140D01*
X030105Y001986D01*
X030028Y001910D01*
X029875Y001986D02*
X029798Y001910D01*
X029721Y001910D01*
X029645Y001986D01*
X029645Y002140D01*
X029721Y002217D01*
X029798Y002217D01*
X029875Y002140D01*
X029875Y001756D02*
X029875Y001449D01*
X031645Y001986D02*
X031645Y002140D01*
X031721Y002217D01*
X032028Y001910D01*
X032105Y001986D01*
X032105Y002140D01*
X032028Y002217D01*
X031721Y002217D01*
X031645Y001986D02*
X031721Y001910D01*
X032028Y001910D01*
X032645Y002063D02*
X033105Y002063D01*
X033105Y001910D02*
X033105Y002217D01*
X032798Y001910D02*
X032645Y002063D01*
X035798Y001219D02*
X035798Y000989D01*
X036105Y000989D01*
X036105Y000835D02*
X036105Y000605D01*
X036028Y000528D01*
X035875Y000528D01*
X035798Y000605D01*
X035798Y000835D01*
X035798Y001219D02*
X035875Y001296D01*
X036105Y001296D01*
X036798Y001219D02*
X036798Y000989D01*
X037105Y000989D01*
X037105Y000835D02*
X037105Y000605D01*
X037028Y000528D01*
X036875Y000528D01*
X036798Y000605D01*
X036798Y000835D01*
X036798Y001219D02*
X036875Y001296D01*
X037105Y001296D01*
X036992Y004870D02*
X036761Y004870D01*
X036685Y004947D01*
X036685Y005100D01*
X036761Y005177D01*
X036992Y005177D01*
X036992Y005330D02*
X036992Y004870D01*
X036531Y004870D02*
X036531Y005100D01*
X036454Y005177D01*
X036224Y005177D01*
X036224Y004870D01*
X036071Y004947D02*
X035994Y004870D01*
X035841Y004870D01*
X035764Y004947D01*
X035764Y005254D01*
X035841Y005330D01*
X035994Y005330D01*
X036071Y005254D01*
X036071Y005100D02*
X035917Y005100D01*
X036071Y005100D02*
X036071Y004947D01*
X036301Y005870D02*
X036224Y005947D01*
X036301Y005870D02*
X036454Y005870D01*
X036531Y005947D01*
X036531Y006100D01*
X036454Y006177D01*
X036378Y006177D01*
X036224Y006100D01*
X036224Y006330D01*
X036531Y006330D01*
X036685Y006254D02*
X036761Y006330D01*
X036915Y006330D01*
X036992Y006254D01*
X036992Y006177D01*
X036685Y005870D01*
X036992Y005870D01*
X036915Y006870D02*
X036761Y006870D01*
X036685Y006947D01*
X036992Y007254D01*
X036992Y006947D01*
X036915Y006870D01*
X036685Y006947D02*
X036685Y007254D01*
X036761Y007330D01*
X036915Y007330D01*
X036992Y007254D01*
X036531Y007330D02*
X036224Y007330D01*
X036224Y007100D01*
X036378Y007177D01*
X036454Y007177D01*
X036531Y007100D01*
X036531Y006947D01*
X036454Y006870D01*
X036301Y006870D01*
X036224Y006947D01*
X036454Y007870D02*
X036454Y008330D01*
X036224Y008100D01*
X036531Y008100D01*
X036685Y008023D02*
X036761Y008100D01*
X036915Y008100D01*
X036992Y008023D01*
X036992Y007947D01*
X036915Y007870D01*
X036761Y007870D01*
X036685Y007947D01*
X036685Y008023D01*
X036761Y008100D02*
X036685Y008177D01*
X036685Y008254D01*
X036761Y008330D01*
X036915Y008330D01*
X036992Y008254D01*
X036992Y008177D01*
X036915Y008100D01*
X036915Y008870D02*
X036761Y008870D01*
X036685Y008947D01*
X036685Y009100D01*
X036915Y009100D01*
X036992Y009023D01*
X036992Y008947D01*
X036915Y008870D01*
X036685Y009100D02*
X036838Y009254D01*
X036992Y009330D01*
X036531Y009100D02*
X036224Y009100D01*
X036454Y009330D01*
X036454Y008870D01*
X036454Y009870D02*
X036454Y010330D01*
X036224Y010100D01*
X036531Y010100D01*
X036685Y010100D02*
X036992Y010100D01*
X036915Y009870D02*
X036915Y010330D01*
X036685Y010100D01*
X036685Y010870D02*
X036992Y011177D01*
X036992Y011254D01*
X036915Y011330D01*
X036761Y011330D01*
X036685Y011254D01*
X036531Y011100D02*
X036224Y011100D01*
X036454Y011330D01*
X036454Y010870D01*
X036685Y010870D02*
X036992Y010870D01*
X036915Y011870D02*
X036761Y011870D01*
X036685Y011947D01*
X036992Y012254D01*
X036992Y011947D01*
X036915Y011870D01*
X036685Y011947D02*
X036685Y012254D01*
X036761Y012330D01*
X036915Y012330D01*
X036992Y012254D01*
X036531Y012100D02*
X036224Y012100D01*
X036454Y012330D01*
X036454Y011870D01*
X036454Y012870D02*
X036301Y012870D01*
X036224Y012947D01*
X036378Y013100D02*
X036454Y013100D01*
X036531Y013023D01*
X036531Y012947D01*
X036454Y012870D01*
X036454Y013100D02*
X036531Y013177D01*
X036531Y013254D01*
X036454Y013330D01*
X036301Y013330D01*
X036224Y013254D01*
X036685Y013254D02*
X036685Y013177D01*
X036761Y013100D01*
X036915Y013100D01*
X036992Y013023D01*
X036992Y012947D01*
X036915Y012870D01*
X036761Y012870D01*
X036685Y012947D01*
X036685Y013023D01*
X036761Y013100D01*
X036915Y013100D02*
X036992Y013177D01*
X036992Y013254D01*
X036915Y013330D01*
X036761Y013330D01*
X036685Y013254D01*
X036761Y013870D02*
X036915Y013870D01*
X036992Y013947D01*
X036992Y014023D01*
X036915Y014100D01*
X036685Y014100D01*
X036685Y013947D01*
X036761Y013870D01*
X036531Y013947D02*
X036454Y013870D01*
X036301Y013870D01*
X036224Y013947D01*
X036378Y014100D02*
X036454Y014100D01*
X036531Y014023D01*
X036531Y013947D01*
X036454Y014100D02*
X036531Y014177D01*
X036531Y014254D01*
X036454Y014330D01*
X036301Y014330D01*
X036224Y014254D01*
X036685Y014100D02*
X036838Y014254D01*
X036992Y014330D01*
X036915Y014870D02*
X036915Y015330D01*
X036685Y015100D01*
X036992Y015100D01*
X036531Y015023D02*
X036531Y014947D01*
X036454Y014870D01*
X036301Y014870D01*
X036224Y014947D01*
X036378Y015100D02*
X036454Y015100D01*
X036531Y015023D01*
X036454Y015100D02*
X036531Y015177D01*
X036531Y015254D01*
X036454Y015330D01*
X036301Y015330D01*
X036224Y015254D01*
X036301Y015870D02*
X036224Y015947D01*
X036301Y015870D02*
X036454Y015870D01*
X036531Y015947D01*
X036531Y016023D01*
X036454Y016100D01*
X036378Y016100D01*
X036454Y016100D02*
X036531Y016177D01*
X036531Y016254D01*
X036454Y016330D01*
X036301Y016330D01*
X036224Y016254D01*
X036685Y016254D02*
X036761Y016330D01*
X036915Y016330D01*
X036992Y016254D01*
X036992Y016177D01*
X036685Y015870D01*
X036992Y015870D01*
X036915Y016870D02*
X036761Y016870D01*
X036685Y016947D01*
X036992Y017254D01*
X036992Y016947D01*
X036915Y016870D01*
X036685Y016947D02*
X036685Y017254D01*
X036761Y017330D01*
X036915Y017330D01*
X036992Y017254D01*
X036531Y017254D02*
X036454Y017330D01*
X036301Y017330D01*
X036224Y017254D01*
X036378Y017100D02*
X036454Y017100D01*
X036531Y017023D01*
X036531Y016947D01*
X036454Y016870D01*
X036301Y016870D01*
X036224Y016947D01*
X036454Y017100D02*
X036531Y017177D01*
X036531Y017254D01*
X036531Y017870D02*
X036224Y017870D01*
X036531Y018177D01*
X036531Y018254D01*
X036454Y018330D01*
X036301Y018330D01*
X036224Y018254D01*
X036685Y018254D02*
X036685Y018177D01*
X036761Y018100D01*
X036915Y018100D01*
X036992Y018023D01*
X036992Y017947D01*
X036915Y017870D01*
X036761Y017870D01*
X036685Y017947D01*
X036685Y018023D01*
X036761Y018100D01*
X036915Y018100D02*
X036992Y018177D01*
X036992Y018254D01*
X036915Y018330D01*
X036761Y018330D01*
X036685Y018254D01*
X036761Y018870D02*
X036915Y018870D01*
X036992Y018947D01*
X036992Y019023D01*
X036915Y019100D01*
X036685Y019100D01*
X036685Y018947D01*
X036761Y018870D01*
X036531Y018870D02*
X036224Y018870D01*
X036531Y019177D01*
X036531Y019254D01*
X036454Y019330D01*
X036301Y019330D01*
X036224Y019254D01*
X036685Y019100D02*
X036838Y019254D01*
X036992Y019330D01*
X036915Y019870D02*
X036915Y020330D01*
X036685Y020100D01*
X036992Y020100D01*
X036531Y020177D02*
X036531Y020254D01*
X036454Y020330D01*
X036301Y020330D01*
X036224Y020254D01*
X036531Y020177D02*
X036224Y019870D01*
X036531Y019870D01*
X036531Y020870D02*
X036224Y020870D01*
X036531Y021177D01*
X036531Y021254D01*
X036454Y021330D01*
X036301Y021330D01*
X036224Y021254D01*
X036685Y021254D02*
X036761Y021330D01*
X036915Y021330D01*
X036992Y021254D01*
X036992Y021177D01*
X036685Y020870D01*
X036992Y020870D01*
X036838Y021870D02*
X036992Y022177D01*
X036685Y022177D02*
X036838Y021870D01*
X036531Y021947D02*
X036531Y022100D01*
X036454Y022177D01*
X036378Y022177D01*
X036224Y022100D01*
X036224Y022330D01*
X036531Y022330D01*
X036531Y021947D02*
X036454Y021870D01*
X036301Y021870D01*
X036224Y021947D01*
X035105Y022947D02*
X035028Y022870D01*
X035105Y022947D02*
X035105Y023100D01*
X035028Y023177D01*
X034952Y023177D01*
X034875Y023100D01*
X034875Y022947D01*
X034798Y022870D01*
X034721Y022870D01*
X034645Y022947D01*
X034645Y023100D01*
X034721Y023177D01*
X034721Y023330D02*
X035028Y023330D01*
X035105Y023407D01*
X035105Y023561D01*
X035028Y023637D01*
X035105Y023791D02*
X035105Y024098D01*
X034952Y024251D02*
X034798Y024251D01*
X034645Y024405D01*
X034721Y024558D02*
X034645Y024635D01*
X034645Y024788D01*
X034721Y024865D01*
X034798Y024865D01*
X035105Y024558D01*
X035105Y024865D01*
X035105Y025018D02*
X035105Y025325D01*
X035105Y025172D02*
X034645Y025172D01*
X034798Y025018D01*
X034645Y025479D02*
X034798Y025632D01*
X034952Y025632D01*
X035105Y025479D01*
X034105Y025479D02*
X033952Y025632D01*
X033798Y025632D01*
X033645Y025479D01*
X033721Y025325D02*
X034028Y025018D01*
X034105Y025095D01*
X034105Y025249D01*
X034028Y025325D01*
X033721Y025325D01*
X033645Y025249D01*
X033645Y025095D01*
X033721Y025018D01*
X034028Y025018D01*
X034105Y024865D02*
X034105Y024558D01*
X033798Y024865D01*
X033721Y024865D01*
X033645Y024788D01*
X033645Y024635D01*
X033721Y024558D01*
X033645Y024405D02*
X033798Y024251D01*
X033952Y024251D01*
X034105Y024405D01*
X034105Y024098D02*
X033798Y024098D01*
X033645Y023944D01*
X033798Y023791D01*
X034105Y023791D01*
X034028Y023637D02*
X033721Y023637D01*
X033645Y023561D01*
X033645Y023330D01*
X034105Y023330D01*
X034105Y023561D01*
X034028Y023637D01*
X033875Y023791D02*
X033875Y024098D01*
X033105Y024098D02*
X033105Y023791D01*
X033105Y023944D02*
X032645Y023944D01*
X032798Y023791D01*
X032798Y023637D02*
X033105Y023330D01*
X033105Y023177D02*
X032952Y023023D01*
X032952Y023100D02*
X032952Y022870D01*
X033105Y022870D02*
X032645Y022870D01*
X032645Y023100D01*
X032721Y023177D01*
X032875Y023177D01*
X032952Y023100D01*
X032798Y023330D02*
X033105Y023637D01*
X032952Y024251D02*
X032798Y024251D01*
X032645Y024405D01*
X032798Y024558D02*
X032645Y024712D01*
X033105Y024712D01*
X033105Y024865D02*
X033105Y024558D01*
X033105Y024405D02*
X032952Y024251D01*
X032105Y024098D02*
X032105Y023791D01*
X032105Y023944D02*
X031645Y023944D01*
X031798Y023791D01*
X031798Y023637D02*
X032105Y023330D01*
X032105Y023023D02*
X031645Y023023D01*
X031645Y022870D02*
X031645Y023177D01*
X031798Y023330D02*
X032105Y023637D01*
X031952Y024251D02*
X031798Y024251D01*
X031645Y024405D01*
X031798Y024558D02*
X031645Y024712D01*
X032105Y024712D01*
X032105Y024865D02*
X032105Y024558D01*
X032105Y024405D02*
X031952Y024251D01*
X031105Y024098D02*
X031105Y023791D01*
X030798Y024098D01*
X030721Y024098D01*
X030645Y024021D01*
X030645Y023868D01*
X030721Y023791D01*
X030798Y023637D02*
X031105Y023330D01*
X031105Y023177D02*
X030952Y023023D01*
X030952Y023100D02*
X030952Y022870D01*
X031105Y022870D02*
X030645Y022870D01*
X030645Y023100D01*
X030721Y023177D01*
X030875Y023177D01*
X030952Y023100D01*
X030798Y023330D02*
X031105Y023637D01*
X030952Y024251D02*
X030798Y024251D01*
X030645Y024405D01*
X030798Y024558D02*
X030645Y024712D01*
X031105Y024712D01*
X031105Y024865D02*
X031105Y024558D01*
X031105Y024405D02*
X030952Y024251D01*
X030105Y024098D02*
X030105Y023791D01*
X029798Y024098D01*
X029721Y024098D01*
X029645Y024021D01*
X029645Y023868D01*
X029721Y023791D01*
X029798Y023637D02*
X030105Y023330D01*
X030105Y023023D02*
X029645Y023023D01*
X029645Y022870D02*
X029645Y023177D01*
X029798Y023330D02*
X030105Y023637D01*
X029952Y024251D02*
X029798Y024251D01*
X029645Y024405D01*
X029798Y024558D02*
X029645Y024712D01*
X030105Y024712D01*
X030105Y024865D02*
X030105Y024558D01*
X030105Y024405D02*
X029952Y024251D01*
X029105Y024405D02*
X028952Y024251D01*
X028798Y024251D01*
X028645Y024405D01*
X028798Y024558D02*
X028645Y024712D01*
X029105Y024712D01*
X029105Y024865D02*
X029105Y024558D01*
X029028Y024098D02*
X029105Y024021D01*
X029105Y023868D01*
X029028Y023791D01*
X029105Y023637D02*
X028798Y023330D01*
X028721Y023177D02*
X028875Y023177D01*
X028952Y023100D01*
X028952Y022870D01*
X029105Y022870D02*
X028645Y022870D01*
X028645Y023100D01*
X028721Y023177D01*
X028952Y023023D02*
X029105Y023177D01*
X029105Y023330D02*
X028798Y023637D01*
X028721Y023791D02*
X028645Y023868D01*
X028645Y024021D01*
X028721Y024098D01*
X028798Y024098D01*
X028875Y024021D01*
X028952Y024098D01*
X029028Y024098D01*
X028875Y024021D02*
X028875Y023944D01*
X028105Y023868D02*
X028028Y023791D01*
X028105Y023868D02*
X028105Y024021D01*
X028028Y024098D01*
X027952Y024098D01*
X027875Y024021D01*
X027875Y023944D01*
X027875Y024021D02*
X027798Y024098D01*
X027721Y024098D01*
X027645Y024021D01*
X027645Y023868D01*
X027721Y023791D01*
X027798Y023637D02*
X028105Y023330D01*
X028105Y023023D02*
X027645Y023023D01*
X027645Y022870D02*
X027645Y023177D01*
X027798Y023330D02*
X028105Y023637D01*
X027952Y024251D02*
X027798Y024251D01*
X027645Y024405D01*
X027798Y024558D02*
X027645Y024712D01*
X028105Y024712D01*
X028105Y024865D02*
X028105Y024558D01*
X028105Y024405D02*
X027952Y024251D01*
X027875Y025018D02*
X027875Y025325D01*
X028105Y025249D02*
X027645Y025249D01*
X027875Y025018D01*
X028105Y025479D02*
X027952Y025632D01*
X027798Y025632D01*
X027645Y025479D01*
X028645Y025479D02*
X028798Y025632D01*
X028952Y025632D01*
X029105Y025479D01*
X029028Y025325D02*
X028875Y025325D01*
X028798Y025249D01*
X028798Y025172D01*
X028875Y025018D01*
X028645Y025018D01*
X028645Y025325D01*
X029028Y025325D02*
X029105Y025249D01*
X029105Y025095D01*
X029028Y025018D01*
X029645Y025325D02*
X029721Y025172D01*
X029875Y025018D01*
X029875Y025249D01*
X029952Y025325D01*
X030028Y025325D01*
X030105Y025249D01*
X030105Y025095D01*
X030028Y025018D01*
X029875Y025018D01*
X030105Y025479D02*
X029952Y025632D01*
X029798Y025632D01*
X029645Y025479D01*
X030645Y025479D02*
X030798Y025632D01*
X030952Y025632D01*
X031105Y025479D01*
X030721Y025325D02*
X031028Y025018D01*
X031105Y025018D01*
X030645Y025018D02*
X030645Y025325D01*
X030721Y025325D01*
X031645Y025249D02*
X031721Y025325D01*
X031798Y025325D01*
X031875Y025249D01*
X031875Y025095D01*
X031798Y025018D01*
X031721Y025018D01*
X031645Y025095D01*
X031645Y025249D01*
X031875Y025249D02*
X031952Y025325D01*
X032028Y025325D01*
X032105Y025249D01*
X032105Y025095D01*
X032028Y025018D01*
X031952Y025018D01*
X031875Y025095D01*
X032105Y025479D02*
X031952Y025632D01*
X031798Y025632D01*
X031645Y025479D01*
X032645Y025479D02*
X032798Y025632D01*
X032952Y025632D01*
X033105Y025479D01*
X033028Y025325D02*
X032721Y025325D01*
X032645Y025249D01*
X032645Y025095D01*
X032721Y025018D01*
X032798Y025018D01*
X032875Y025095D01*
X032875Y025325D01*
X033028Y025325D02*
X033105Y025249D01*
X033105Y025095D01*
X033028Y025018D01*
X034645Y023791D02*
X035105Y023791D01*
X034721Y023637D02*
X034645Y023561D01*
X034645Y023407D01*
X034721Y023330D01*
X034105Y023100D02*
X034105Y022947D01*
X034028Y022870D01*
X033875Y022947D02*
X033875Y023100D01*
X033952Y023177D01*
X034028Y023177D01*
X034105Y023100D01*
X033875Y022947D02*
X033798Y022870D01*
X033721Y022870D01*
X033645Y022947D01*
X033645Y023100D01*
X033721Y023177D01*
X034952Y024251D02*
X035105Y024405D01*
X039645Y022330D02*
X039645Y022100D01*
X039798Y022177D01*
X039875Y022177D01*
X039952Y022100D01*
X039952Y021947D01*
X039875Y021870D01*
X039722Y021870D01*
X039645Y021947D01*
X039645Y022330D02*
X039952Y022330D01*
X040105Y022177D02*
X040259Y021870D01*
X040412Y022177D01*
X040336Y021330D02*
X040412Y021254D01*
X040412Y021177D01*
X040336Y021100D01*
X040412Y021023D01*
X040412Y020947D01*
X040336Y020870D01*
X040182Y020870D01*
X040105Y020947D01*
X039952Y020870D02*
X039645Y020870D01*
X039952Y021177D01*
X039952Y021254D01*
X039875Y021330D01*
X039722Y021330D01*
X039645Y021254D01*
X040105Y021254D02*
X040182Y021330D01*
X040336Y021330D01*
X040336Y021100D02*
X040259Y021100D01*
X040412Y020330D02*
X040105Y020330D01*
X040105Y020100D01*
X040259Y020177D01*
X040336Y020177D01*
X040412Y020100D01*
X040412Y019947D01*
X040336Y019870D01*
X040182Y019870D01*
X040105Y019947D01*
X039952Y019870D02*
X039645Y019870D01*
X039952Y020177D01*
X039952Y020254D01*
X039875Y020330D01*
X039722Y020330D01*
X039645Y020254D01*
X039722Y019330D02*
X039645Y019254D01*
X039722Y019330D02*
X039875Y019330D01*
X039952Y019254D01*
X039952Y019177D01*
X039645Y018870D01*
X039952Y018870D01*
X040105Y018870D02*
X040105Y018947D01*
X040412Y019254D01*
X040412Y019330D01*
X040105Y019330D01*
X040182Y018330D02*
X040105Y018254D01*
X040105Y018177D01*
X040182Y018100D01*
X040412Y018100D01*
X040412Y017947D02*
X040412Y018254D01*
X040336Y018330D01*
X040182Y018330D01*
X039952Y018254D02*
X039875Y018330D01*
X039722Y018330D01*
X039645Y018254D01*
X039952Y018254D02*
X039952Y018177D01*
X039645Y017870D01*
X039952Y017870D01*
X040105Y017947D02*
X040182Y017870D01*
X040336Y017870D01*
X040412Y017947D01*
X040259Y017330D02*
X040259Y016870D01*
X040412Y016870D02*
X040105Y016870D01*
X039952Y016947D02*
X039875Y016870D01*
X039722Y016870D01*
X039645Y016947D01*
X039798Y017100D02*
X039875Y017100D01*
X039952Y017023D01*
X039952Y016947D01*
X039875Y017100D02*
X039952Y017177D01*
X039952Y017254D01*
X039875Y017330D01*
X039722Y017330D01*
X039645Y017254D01*
X040105Y017177D02*
X040259Y017330D01*
X040336Y016330D02*
X040412Y016254D01*
X040412Y016177D01*
X040336Y016100D01*
X040412Y016023D01*
X040412Y015947D01*
X040336Y015870D01*
X040182Y015870D01*
X040105Y015947D01*
X039952Y015947D02*
X039875Y015870D01*
X039722Y015870D01*
X039645Y015947D01*
X039798Y016100D02*
X039875Y016100D01*
X039952Y016023D01*
X039952Y015947D01*
X039875Y016100D02*
X039952Y016177D01*
X039952Y016254D01*
X039875Y016330D01*
X039722Y016330D01*
X039645Y016254D01*
X040105Y016254D02*
X040182Y016330D01*
X040336Y016330D01*
X040336Y016100D02*
X040259Y016100D01*
X040412Y015330D02*
X040105Y015330D01*
X040105Y015100D01*
X040259Y015177D01*
X040336Y015177D01*
X040412Y015100D01*
X040412Y014947D01*
X040336Y014870D01*
X040182Y014870D01*
X040105Y014947D01*
X039952Y014947D02*
X039952Y015023D01*
X039875Y015100D01*
X039798Y015100D01*
X039875Y015100D02*
X039952Y015177D01*
X039952Y015254D01*
X039875Y015330D01*
X039722Y015330D01*
X039645Y015254D01*
X039645Y014947D02*
X039722Y014870D01*
X039875Y014870D01*
X039952Y014947D01*
X039875Y014330D02*
X039952Y014254D01*
X039952Y014177D01*
X039875Y014100D01*
X039952Y014023D01*
X039952Y013947D01*
X039875Y013870D01*
X039722Y013870D01*
X039645Y013947D01*
X039798Y014100D02*
X039875Y014100D01*
X039875Y014330D02*
X039722Y014330D01*
X039645Y014254D01*
X040105Y014330D02*
X040412Y014330D01*
X040412Y014254D01*
X040105Y013947D01*
X040105Y013870D01*
X040182Y013330D02*
X040105Y013254D01*
X040105Y013177D01*
X040182Y013100D01*
X040412Y013100D01*
X040412Y012947D02*
X040412Y013254D01*
X040336Y013330D01*
X040182Y013330D01*
X039952Y013254D02*
X039952Y013177D01*
X039875Y013100D01*
X039952Y013023D01*
X039952Y012947D01*
X039875Y012870D01*
X039722Y012870D01*
X039645Y012947D01*
X039798Y013100D02*
X039875Y013100D01*
X039952Y013254D02*
X039875Y013330D01*
X039722Y013330D01*
X039645Y013254D01*
X040105Y012947D02*
X040182Y012870D01*
X040336Y012870D01*
X040412Y012947D01*
X040259Y012330D02*
X040259Y011870D01*
X040412Y011870D02*
X040105Y011870D01*
X039875Y011870D02*
X039875Y012330D01*
X039645Y012100D01*
X039952Y012100D01*
X040105Y012177D02*
X040259Y012330D01*
X040336Y011330D02*
X040412Y011254D01*
X040412Y011177D01*
X040336Y011100D01*
X040412Y011023D01*
X040412Y010947D01*
X040336Y010870D01*
X040182Y010870D01*
X040105Y010947D01*
X039952Y011100D02*
X039645Y011100D01*
X039875Y011330D01*
X039875Y010870D01*
X040105Y011254D02*
X040182Y011330D01*
X040336Y011330D01*
X040336Y011100D02*
X040259Y011100D01*
X040412Y010330D02*
X040105Y010330D01*
X040105Y010100D01*
X040259Y010177D01*
X040336Y010177D01*
X040412Y010100D01*
X040412Y009947D01*
X040336Y009870D01*
X040182Y009870D01*
X040105Y009947D01*
X039952Y010100D02*
X039645Y010100D01*
X039875Y010330D01*
X039875Y009870D01*
X039875Y009330D02*
X039645Y009100D01*
X039952Y009100D01*
X040105Y008947D02*
X040105Y008870D01*
X040105Y008947D02*
X040412Y009254D01*
X040412Y009330D01*
X040105Y009330D01*
X039875Y009330D02*
X039875Y008870D01*
X039875Y008330D02*
X039645Y008100D01*
X039952Y008100D01*
X040105Y008177D02*
X040182Y008100D01*
X040412Y008100D01*
X040412Y007947D02*
X040412Y008254D01*
X040336Y008330D01*
X040182Y008330D01*
X040105Y008254D01*
X040105Y008177D01*
X040105Y007947D02*
X040182Y007870D01*
X040336Y007870D01*
X040412Y007947D01*
X039875Y007870D02*
X039875Y008330D01*
X039952Y007330D02*
X039645Y007330D01*
X039645Y007100D01*
X039798Y007177D01*
X039875Y007177D01*
X039952Y007100D01*
X039952Y006947D01*
X039875Y006870D01*
X039722Y006870D01*
X039645Y006947D01*
X040105Y006870D02*
X040412Y006870D01*
X040259Y006870D02*
X040259Y007330D01*
X040105Y007177D01*
X040182Y006330D02*
X040336Y006330D01*
X040412Y006254D01*
X040412Y006177D01*
X040336Y006100D01*
X040412Y006023D01*
X040412Y005947D01*
X040336Y005870D01*
X040182Y005870D01*
X040105Y005947D01*
X039952Y005947D02*
X039952Y006100D01*
X039875Y006177D01*
X039798Y006177D01*
X039645Y006100D01*
X039645Y006330D01*
X039952Y006330D01*
X040105Y006254D02*
X040182Y006330D01*
X040259Y006100D02*
X040336Y006100D01*
X039952Y005947D02*
X039875Y005870D01*
X039722Y005870D01*
X039645Y005947D01*
X039722Y005330D02*
X039645Y005254D01*
X039645Y004947D01*
X039722Y004870D01*
X039875Y004870D01*
X039952Y004947D01*
X039952Y005100D01*
X039798Y005100D01*
X039952Y005254D02*
X039875Y005330D01*
X039722Y005330D01*
X040105Y005177D02*
X040336Y005177D01*
X040412Y005100D01*
X040412Y004870D01*
X040566Y004947D02*
X040566Y005100D01*
X040643Y005177D01*
X040873Y005177D01*
X040873Y005330D02*
X040873Y004870D01*
X040643Y004870D01*
X040566Y004947D01*
X040105Y004870D02*
X040105Y005177D01*
X028105Y001910D02*
X028028Y001910D01*
X027721Y002217D01*
X027645Y002217D01*
X027645Y001910D01*
X027798Y001756D02*
X027645Y001603D01*
X027798Y001449D01*
X028105Y001449D01*
X027875Y001449D02*
X027875Y001756D01*
X027798Y001756D02*
X028105Y001756D01*
X027105Y001756D02*
X026798Y001756D01*
X026645Y001603D01*
X026798Y001449D01*
X027105Y001449D01*
X026875Y001449D02*
X026875Y001756D01*
X026875Y001910D02*
X026721Y002063D01*
X026645Y002217D01*
X026875Y002140D02*
X026875Y001910D01*
X027028Y001910D01*
X027105Y001986D01*
X027105Y002140D01*
X027028Y002217D01*
X026952Y002217D01*
X026875Y002140D01*
X026105Y002140D02*
X026105Y001986D01*
X026028Y001910D01*
X025875Y001910D02*
X025798Y002063D01*
X025798Y002140D01*
X025875Y002217D01*
X026028Y002217D01*
X026105Y002140D01*
X025875Y001910D02*
X025645Y001910D01*
X025645Y002217D01*
X025798Y001756D02*
X026105Y001756D01*
X025875Y001756D02*
X025875Y001449D01*
X025798Y001449D02*
X025645Y001603D01*
X025798Y001756D01*
X025798Y001449D02*
X026105Y001449D01*
X025105Y001449D02*
X024798Y001449D01*
X024645Y001603D01*
X024798Y001756D01*
X025105Y001756D01*
X024875Y001756D02*
X024875Y001449D01*
X024875Y001910D02*
X024875Y002217D01*
X025105Y002140D02*
X024645Y002140D01*
X024875Y001910D01*
X024105Y001986D02*
X024028Y001910D01*
X024105Y001986D02*
X024105Y002140D01*
X024028Y002217D01*
X023952Y002217D01*
X023875Y002140D01*
X023875Y002063D01*
X023875Y002140D02*
X023798Y002217D01*
X023721Y002217D01*
X023645Y002140D01*
X023645Y001986D01*
X023721Y001910D01*
X023798Y001756D02*
X024105Y001756D01*
X023875Y001756D02*
X023875Y001449D01*
X023798Y001449D02*
X023645Y001603D01*
X023798Y001756D01*
X023798Y001449D02*
X024105Y001449D01*
X023105Y001449D02*
X022798Y001449D01*
X022645Y001603D01*
X022798Y001756D01*
X023105Y001756D01*
X023105Y001910D02*
X022798Y002217D01*
X022721Y002217D01*
X022645Y002140D01*
X022645Y001986D01*
X022721Y001910D01*
X022875Y001756D02*
X022875Y001449D01*
X023105Y001910D02*
X023105Y002217D01*
X022105Y002217D02*
X022105Y001910D01*
X022105Y002063D02*
X021645Y002063D01*
X021798Y001910D01*
X021798Y001756D02*
X022105Y001756D01*
X021875Y001756D02*
X021875Y001449D01*
X021798Y001449D02*
X021645Y001603D01*
X021798Y001756D01*
X021798Y001449D02*
X022105Y001449D01*
X021105Y001449D02*
X020798Y001449D01*
X020645Y001603D01*
X020798Y001756D01*
X021105Y001756D01*
X021028Y001910D02*
X020721Y002217D01*
X021028Y002217D01*
X021105Y002140D01*
X021105Y001986D01*
X021028Y001910D01*
X020721Y001910D01*
X020645Y001986D01*
X020645Y002140D01*
X020721Y002217D01*
X020875Y001756D02*
X020875Y001449D01*
X019105Y001296D02*
X018952Y001449D01*
X018645Y001449D01*
X018798Y001603D02*
X018798Y001679D01*
X019105Y001679D01*
X019105Y001603D02*
X019105Y001756D01*
X019105Y001910D02*
X018798Y001910D01*
X018798Y002140D01*
X018875Y002217D01*
X019105Y002217D01*
X018645Y001679D02*
X018568Y001679D01*
X018105Y001756D02*
X017875Y001756D01*
X017798Y001679D01*
X017798Y001449D01*
X018105Y001449D01*
X018028Y001296D02*
X017875Y001296D01*
X017875Y001142D01*
X018028Y000989D02*
X018105Y001066D01*
X018105Y001219D01*
X018028Y001296D01*
X017721Y001296D02*
X017645Y001219D01*
X017645Y001066D01*
X017721Y000989D01*
X018028Y000989D01*
X018645Y001142D02*
X018952Y001142D01*
X019105Y001296D01*
X018105Y001986D02*
X018105Y002217D01*
X017645Y002217D01*
X017798Y002217D02*
X017798Y001986D01*
X017875Y001910D01*
X018028Y001910D01*
X018105Y001986D01*
X017105Y001986D02*
X017028Y001910D01*
X016875Y001910D01*
X016798Y001986D01*
X016798Y002217D01*
X016645Y002217D02*
X017105Y002217D01*
X017105Y001986D01*
X017105Y001756D02*
X016875Y001756D01*
X016798Y001679D01*
X016798Y001449D01*
X017105Y001449D01*
X017028Y001296D02*
X016875Y001296D01*
X016875Y001142D01*
X017028Y000989D02*
X016721Y000989D01*
X016645Y001066D01*
X016645Y001219D01*
X016721Y001296D01*
X017028Y001296D02*
X017105Y001219D01*
X017105Y001066D01*
X017028Y000989D01*
X016105Y001526D02*
X016105Y001679D01*
X016028Y001756D01*
X015875Y001756D01*
X015798Y001679D01*
X015798Y001603D01*
X015875Y001449D01*
X015645Y001449D01*
X015645Y001756D01*
X015798Y001910D02*
X016105Y002063D01*
X015798Y002217D01*
X015105Y002140D02*
X015105Y001986D01*
X015028Y001910D01*
X014875Y002063D02*
X014875Y002140D01*
X014952Y002217D01*
X015028Y002217D01*
X015105Y002140D01*
X014875Y002140D02*
X014798Y002217D01*
X014721Y002217D01*
X014645Y002140D01*
X014645Y001986D01*
X014721Y001910D01*
X014798Y001756D02*
X015105Y001603D01*
X014798Y001449D01*
X014798Y001296D02*
X014875Y001219D01*
X014952Y001296D01*
X015028Y001296D01*
X015105Y001219D01*
X015105Y001066D01*
X015028Y000989D01*
X014875Y001142D02*
X014875Y001219D01*
X014798Y001296D02*
X014721Y001296D01*
X014645Y001219D01*
X014645Y001066D01*
X014721Y000989D01*
X014105Y001142D02*
X013645Y001142D01*
X013645Y001372D01*
X013721Y001449D01*
X013875Y001449D01*
X013952Y001372D01*
X013952Y001142D01*
X013952Y001296D02*
X014105Y001449D01*
X014105Y001603D02*
X014105Y001833D01*
X014028Y001910D01*
X013952Y001833D01*
X013952Y001679D01*
X013875Y001603D01*
X013798Y001679D01*
X013798Y001910D01*
X013798Y002063D02*
X013798Y002217D01*
X013721Y002140D02*
X014028Y002140D01*
X014105Y002217D01*
X016028Y001449D02*
X016105Y001526D01*
X016221Y022870D02*
X016298Y022870D01*
X016375Y022947D01*
X016375Y023177D01*
X016528Y023177D02*
X016221Y023177D01*
X016145Y023100D01*
X016145Y022947D01*
X016221Y022870D01*
X016528Y022870D02*
X016605Y022947D01*
X016605Y023100D01*
X016528Y023177D01*
X017145Y023100D02*
X017145Y022947D01*
X017221Y022870D01*
X017298Y022870D01*
X017375Y022947D01*
X017375Y023100D01*
X017452Y023177D01*
X017528Y023177D01*
X017605Y023100D01*
X017605Y022947D01*
X017528Y022870D01*
X017452Y022870D01*
X017375Y022947D01*
X017375Y023100D02*
X017298Y023177D01*
X017221Y023177D01*
X017145Y023100D01*
X018645Y023177D02*
X018645Y022870D01*
X018645Y023177D02*
X018721Y023177D01*
X019028Y022870D01*
X019105Y022870D01*
X019645Y023177D02*
X019721Y023023D01*
X019875Y022870D01*
X019875Y023100D01*
X019952Y023177D01*
X020028Y023177D01*
X020105Y023100D01*
X020105Y022947D01*
X020028Y022870D01*
X019875Y022870D01*
X020645Y022870D02*
X020645Y023177D01*
X020798Y023100D02*
X020875Y023177D01*
X021028Y023177D01*
X021105Y023100D01*
X021105Y022947D01*
X021028Y022870D01*
X020875Y022870D02*
X020798Y023023D01*
X020798Y023100D01*
X020875Y022870D02*
X020645Y022870D01*
X021645Y023100D02*
X021875Y022870D01*
X021875Y023177D01*
X022105Y023100D02*
X021645Y023100D01*
X022645Y023100D02*
X022645Y022947D01*
X022721Y022870D01*
X022875Y023023D02*
X022875Y023100D01*
X022952Y023177D01*
X023028Y023177D01*
X023105Y023100D01*
X023105Y022947D01*
X023028Y022870D01*
X022875Y023100D02*
X022798Y023177D01*
X022721Y023177D01*
X022645Y023100D01*
X023645Y023100D02*
X023645Y022947D01*
X023721Y022870D01*
X023645Y023100D02*
X023721Y023177D01*
X023798Y023177D01*
X024105Y022870D01*
X024105Y023177D01*
X024645Y023177D02*
X024645Y022870D01*
X024645Y023023D02*
X025105Y023023D01*
X025105Y023330D02*
X024798Y023637D01*
X024721Y023791D02*
X024645Y023868D01*
X024645Y024021D01*
X024721Y024098D01*
X025028Y023791D01*
X025105Y023868D01*
X025105Y024021D01*
X025028Y024098D01*
X024721Y024098D01*
X024721Y023791D02*
X025028Y023791D01*
X025105Y023637D02*
X024798Y023330D01*
X025645Y023100D02*
X025645Y022870D01*
X026105Y022870D01*
X025952Y022870D02*
X025952Y023100D01*
X025875Y023177D01*
X025721Y023177D01*
X025645Y023100D01*
X025798Y023330D02*
X026105Y023637D01*
X026028Y023791D02*
X026105Y023868D01*
X026105Y024021D01*
X026028Y024098D01*
X025721Y024098D01*
X026028Y023791D01*
X025721Y023791D01*
X025645Y023868D01*
X025645Y024021D01*
X025721Y024098D01*
X025798Y023637D02*
X026105Y023330D01*
X026105Y023177D02*
X025952Y023023D01*
X015605Y023023D02*
X015145Y023023D01*
X015298Y022870D01*
X015605Y022870D02*
X015605Y023177D01*
X015528Y023330D02*
X015221Y023330D01*
X015145Y023407D01*
X015145Y023561D01*
X015221Y023637D01*
X015528Y023330D01*
X015605Y023407D01*
X015605Y023561D01*
X015528Y023637D01*
X015221Y023637D01*
X014605Y023637D02*
X014605Y023330D01*
X014605Y023177D02*
X014605Y022870D01*
X014605Y023023D02*
X014145Y023023D01*
X014298Y022870D01*
X014298Y023330D02*
X014145Y023484D01*
X014605Y023484D01*
X013605Y023637D02*
X013605Y023330D01*
X013298Y023637D01*
X013221Y023637D01*
X013145Y023561D01*
X013145Y023407D01*
X013221Y023330D01*
X013145Y023023D02*
X013605Y023023D01*
X013605Y022870D02*
X013605Y023177D01*
X013298Y022870D02*
X013145Y023023D01*
X012605Y023023D02*
X012145Y023023D01*
X012298Y022870D01*
X012605Y022870D02*
X012605Y023177D01*
X012528Y023330D02*
X012605Y023407D01*
X012605Y023561D01*
X012528Y023637D01*
X012452Y023637D01*
X012375Y023561D01*
X012375Y023484D01*
X012375Y023561D02*
X012298Y023637D01*
X012221Y023637D01*
X012145Y023561D01*
X012145Y023407D01*
X012221Y023330D01*
X011605Y023330D02*
X011298Y023330D01*
X011298Y023561D01*
X011375Y023637D01*
X011605Y023637D01*
X011528Y023791D02*
X011605Y023868D01*
X011605Y024098D01*
X011145Y024098D01*
X011298Y024098D02*
X011298Y023868D01*
X011375Y023791D01*
X011528Y023791D01*
X011528Y023177D02*
X011375Y023177D01*
X011375Y023023D01*
X011528Y022870D02*
X011605Y022947D01*
X011605Y023100D01*
X011528Y023177D01*
X011221Y023177D02*
X011145Y023100D01*
X011145Y022947D01*
X011221Y022870D01*
X011528Y022870D01*
X010605Y022870D02*
X010298Y022870D01*
X010145Y023023D01*
X010298Y023177D01*
X010605Y023177D01*
X010605Y023330D02*
X010298Y023330D01*
X010452Y023330D02*
X010298Y023484D01*
X010298Y023561D01*
X010375Y023714D02*
X010298Y023791D01*
X010298Y023944D01*
X010375Y024021D01*
X010452Y024021D01*
X010452Y023714D01*
X010528Y023714D02*
X010375Y023714D01*
X010528Y023714D02*
X010605Y023791D01*
X010605Y023944D01*
X010605Y024251D02*
X010221Y024251D01*
X010145Y024328D01*
X010375Y024328D02*
X010375Y024174D01*
X010375Y023177D02*
X010375Y022870D01*
D13*
X010375Y022100D03*
X011375Y022100D03*
X012375Y022100D03*
X013375Y022100D03*
X014375Y022100D03*
X015375Y022100D03*
X016375Y022100D03*
X017375Y022100D03*
X018875Y022100D03*
X019875Y022100D03*
X020875Y022100D03*
X021875Y022100D03*
X022875Y022100D03*
X023875Y022100D03*
X024875Y022100D03*
X025875Y022100D03*
X027875Y022100D03*
X028875Y022100D03*
X029875Y022100D03*
X029875Y022100D03*
X030875Y022100D03*
X031875Y022100D03*
X032875Y022100D03*
X033875Y022100D03*
X034875Y022100D03*
X037875Y022100D03*
X038875Y022100D03*
X038875Y021100D03*
X037875Y021100D03*
X037875Y020100D03*
X038875Y020100D03*
X038875Y019100D03*
X037875Y019100D03*
X037875Y018100D03*
X037875Y017100D03*
X038875Y017100D03*
X038875Y018100D03*
X038875Y016100D03*
X037875Y016100D03*
X037875Y015100D03*
X038875Y015100D03*
X038875Y014100D03*
X037875Y014100D03*
X037875Y013100D03*
X038875Y013100D03*
X038875Y012100D03*
X037875Y012100D03*
X037875Y011100D03*
X037875Y010100D03*
X038875Y010100D03*
X038875Y011100D03*
X038875Y009100D03*
X037875Y009100D03*
X037875Y008100D03*
X038875Y008100D03*
X038875Y007100D03*
X037875Y007100D03*
X037875Y006100D03*
X038875Y006100D03*
X038875Y005100D03*
X037875Y005100D03*
X036875Y003100D03*
X035875Y003100D03*
X034875Y003100D03*
X033875Y003100D03*
X032875Y003100D03*
X031875Y003100D03*
X030875Y003100D03*
X029875Y003100D03*
X027875Y003100D03*
X026875Y003100D03*
X025875Y003100D03*
X024875Y003100D03*
X023875Y003100D03*
X022875Y003100D03*
X021875Y003100D03*
X020875Y003100D03*
X018875Y003100D03*
X017875Y003100D03*
X016875Y003100D03*
X015875Y003100D03*
X014875Y003100D03*
X013875Y003100D03*
X012875Y003100D03*
X011875Y003100D03*
X025875Y012100D03*
X026875Y012100D03*
X026875Y013100D03*
X025875Y013100D03*
X025875Y014100D03*
X026875Y014100D03*
X013875Y019600D03*
X012875Y019600D03*
X011875Y019600D03*
X010875Y019600D03*
X009375Y022100D03*
X008375Y022100D03*
D14*
X008296Y022865D02*
X008218Y022865D01*
X008140Y022943D01*
X008140Y023100D01*
X008218Y023179D01*
X008218Y023325D02*
X008532Y023325D01*
X008610Y023404D01*
X008610Y023561D01*
X008532Y023639D01*
X008610Y023786D02*
X008610Y024099D01*
X008610Y024246D02*
X008610Y024560D01*
X008610Y024403D02*
X008140Y024403D01*
X008296Y024246D01*
X008140Y023786D02*
X008610Y023786D01*
X008218Y023639D02*
X008140Y023561D01*
X008140Y023404D01*
X008218Y023325D01*
X008375Y023100D02*
X008453Y023179D01*
X008532Y023179D01*
X008610Y023100D01*
X008610Y022943D01*
X008532Y022865D01*
X008375Y022943D02*
X008375Y023100D01*
X008375Y022943D02*
X008296Y022865D01*
X009140Y022943D02*
X009218Y022865D01*
X009296Y022865D01*
X009375Y022943D01*
X009375Y023100D01*
X009453Y023179D01*
X009532Y023179D01*
X009610Y023100D01*
X009610Y022943D01*
X009532Y022865D01*
X009140Y022943D02*
X009140Y023100D01*
X009218Y023179D01*
X009140Y023325D02*
X009140Y023561D01*
X009218Y023639D01*
X009532Y023639D01*
X009610Y023561D01*
X009610Y023325D01*
X009140Y023325D01*
X009296Y023786D02*
X009140Y023943D01*
X009296Y024099D01*
X009610Y024099D01*
X009610Y024246D02*
X009610Y024560D01*
X009610Y024403D02*
X009140Y024403D01*
X009296Y024246D01*
X009375Y024099D02*
X009375Y023786D01*
X009296Y023786D02*
X009610Y023786D01*
X010640Y018718D02*
X010640Y018405D01*
X010640Y018258D02*
X010640Y017944D01*
X011110Y017944D01*
X011110Y018258D01*
X010875Y018101D02*
X010875Y017944D01*
X010953Y017797D02*
X011032Y017797D01*
X011110Y017719D01*
X011110Y017562D01*
X011032Y017484D01*
X011110Y017337D02*
X011110Y017023D01*
X010640Y017023D01*
X010640Y017337D01*
X010718Y017484D02*
X010796Y017484D01*
X010875Y017562D01*
X010875Y017719D01*
X010953Y017797D01*
X010718Y017797D02*
X010640Y017719D01*
X010640Y017562D01*
X010718Y017484D01*
X010875Y017180D02*
X010875Y017023D01*
X010875Y016877D02*
X010953Y016798D01*
X010953Y016563D01*
X010953Y016720D02*
X011110Y016877D01*
X010875Y016877D02*
X010718Y016877D01*
X010640Y016798D01*
X010640Y016563D01*
X011110Y016563D01*
X011640Y016795D02*
X011718Y016716D01*
X011796Y016716D01*
X011875Y016795D01*
X011875Y016952D01*
X011953Y017030D01*
X012032Y017030D01*
X012110Y016952D01*
X012110Y016795D01*
X012032Y016716D01*
X011640Y016795D02*
X011640Y016952D01*
X011718Y017030D01*
X011640Y017177D02*
X012110Y017177D01*
X011953Y017334D01*
X012110Y017490D01*
X011640Y017490D01*
X011640Y017637D02*
X011640Y017872D01*
X011718Y017951D01*
X012032Y017951D01*
X012110Y017872D01*
X012110Y017637D01*
X011640Y017637D01*
X011640Y018098D02*
X011640Y018254D01*
X011640Y018176D02*
X012110Y018176D01*
X012110Y018098D02*
X012110Y018254D01*
X012032Y018405D02*
X011718Y018405D01*
X011640Y018483D01*
X011640Y018640D01*
X011718Y018718D01*
X012032Y018718D01*
X012110Y018640D01*
X012110Y018483D01*
X012032Y018405D01*
X012640Y018405D02*
X013110Y018405D01*
X013110Y018258D02*
X013110Y017944D01*
X012640Y017944D01*
X012718Y017797D02*
X012640Y017719D01*
X012640Y017562D01*
X012718Y017484D01*
X013032Y017484D01*
X013110Y017562D01*
X013110Y017719D01*
X013032Y017797D01*
X013110Y017337D02*
X012640Y017337D01*
X012953Y017180D02*
X013110Y017337D01*
X012953Y017180D02*
X013110Y017023D01*
X012640Y017023D01*
X012718Y016877D02*
X012640Y016798D01*
X012640Y016641D01*
X012718Y016563D01*
X012796Y016563D01*
X012875Y016641D01*
X012875Y016798D01*
X012953Y016877D01*
X013032Y016877D01*
X013110Y016798D01*
X013110Y016641D01*
X013032Y016563D01*
X013718Y017484D02*
X013640Y017562D01*
X013640Y017719D01*
X013718Y017797D01*
X013875Y017797D02*
X013875Y017641D01*
X013875Y017797D02*
X014032Y017797D01*
X014110Y017719D01*
X014110Y017562D01*
X014032Y017484D01*
X013718Y017484D01*
X013640Y017944D02*
X014110Y018258D01*
X013640Y018258D01*
X013640Y018405D02*
X013640Y018640D01*
X013718Y018718D01*
X014032Y018718D01*
X014110Y018640D01*
X014110Y018405D01*
X013640Y018405D01*
X013110Y018718D02*
X012875Y018483D01*
X012953Y018405D02*
X012640Y018718D01*
X013640Y017944D02*
X014110Y017944D01*
X011110Y018561D02*
X010640Y018561D01*
X022838Y012335D02*
X022838Y011865D01*
X022838Y012022D02*
X023073Y012022D01*
X023152Y012100D01*
X023152Y012257D01*
X023073Y012335D01*
X022838Y012335D01*
X022995Y012022D02*
X023152Y011865D01*
X023298Y011865D02*
X023612Y011865D01*
X023759Y011943D02*
X023837Y011865D01*
X023994Y011865D01*
X024072Y011943D01*
X024072Y012022D01*
X023994Y012100D01*
X023837Y012100D01*
X023759Y012179D01*
X023759Y012257D01*
X023837Y012335D01*
X023994Y012335D01*
X024072Y012257D01*
X024219Y012335D02*
X024219Y011865D01*
X024533Y011865D01*
X024376Y012100D02*
X024219Y012100D01*
X024219Y012335D02*
X024533Y012335D01*
X024680Y012335D02*
X024993Y012335D01*
X024836Y012335D02*
X024836Y011865D01*
X023612Y012335D02*
X023298Y012335D01*
X023298Y011865D01*
X023298Y012100D02*
X023455Y012100D01*
X023837Y012865D02*
X023759Y012943D01*
X023837Y012865D02*
X023994Y012865D01*
X024072Y012943D01*
X024072Y013022D01*
X023994Y013100D01*
X023837Y013100D01*
X023759Y013179D01*
X023759Y013257D01*
X023837Y013335D01*
X023994Y013335D01*
X024072Y013257D01*
X024219Y013257D02*
X024219Y012943D01*
X024298Y012865D01*
X024454Y012865D01*
X024533Y012943D01*
X024680Y012865D02*
X024680Y013335D01*
X024533Y013257D02*
X024454Y013335D01*
X024298Y013335D01*
X024219Y013257D01*
X024680Y013022D02*
X024993Y013335D01*
X024758Y013100D02*
X024993Y012865D01*
X024915Y013865D02*
X024758Y013865D01*
X024680Y013943D01*
X024680Y014257D01*
X024758Y014335D01*
X024915Y014335D01*
X024993Y014257D01*
X024993Y013943D01*
X024915Y013865D01*
X024533Y013943D02*
X024533Y014022D01*
X024454Y014100D01*
X024298Y014100D01*
X024219Y014179D01*
X024219Y014257D01*
X024298Y014335D01*
X024454Y014335D01*
X024533Y014257D01*
X024069Y014335D02*
X023912Y014335D01*
X023991Y014335D02*
X023991Y013865D01*
X024069Y013865D02*
X023912Y013865D01*
X023765Y013865D02*
X023765Y014335D01*
X023609Y014179D01*
X023452Y014335D01*
X023452Y013865D01*
X024219Y013943D02*
X024298Y013865D01*
X024454Y013865D01*
X024533Y013943D01*
X027640Y013943D02*
X027718Y013865D01*
X027875Y013865D01*
X027954Y013943D01*
X027954Y014100D01*
X027875Y014179D01*
X027797Y014179D01*
X027640Y014100D01*
X027640Y014335D01*
X027954Y014335D01*
X028100Y014335D02*
X028100Y014022D01*
X028257Y013865D01*
X028414Y014022D01*
X028414Y014335D01*
X028336Y013335D02*
X028414Y013257D01*
X028414Y012943D01*
X028336Y012865D01*
X028179Y012865D01*
X028100Y012943D01*
X028100Y013257D01*
X028179Y013335D01*
X028336Y013335D01*
X028561Y013257D02*
X028561Y013179D01*
X028639Y013100D01*
X028796Y013100D01*
X028874Y013022D01*
X028874Y012943D01*
X028796Y012865D01*
X028639Y012865D01*
X028561Y012943D01*
X028561Y013257D02*
X028639Y013335D01*
X028796Y013335D01*
X028874Y013257D01*
X029021Y013335D02*
X029178Y013335D01*
X029100Y013335D02*
X029100Y012865D01*
X029178Y012865D02*
X029021Y012865D01*
X028796Y012335D02*
X028561Y012335D01*
X028561Y011865D01*
X028796Y011865D01*
X028874Y011943D01*
X028874Y012257D01*
X028796Y012335D01*
X028414Y012335D02*
X028414Y011865D01*
X028100Y012335D01*
X028100Y011865D01*
X027954Y011943D02*
X027875Y011865D01*
X027718Y011865D01*
X027640Y011943D01*
X027640Y012257D01*
X027718Y012335D01*
X027875Y012335D01*
X027954Y012257D01*
X027954Y012100D02*
X027797Y012100D01*
X027954Y012100D02*
X027954Y011943D01*
X027954Y012865D02*
X027954Y013335D01*
X027797Y013179D01*
X027640Y013335D01*
X027640Y012865D01*
X013110Y002136D02*
X012718Y002136D01*
X012640Y002215D01*
X012875Y002215D02*
X012875Y002058D01*
X012875Y001911D02*
X012953Y001911D01*
X012953Y001598D01*
X012875Y001598D02*
X012796Y001676D01*
X012796Y001833D01*
X012875Y001911D01*
X013110Y001833D02*
X013110Y001676D01*
X013032Y001598D01*
X012875Y001598D01*
X012796Y001449D02*
X012796Y001371D01*
X012953Y001214D01*
X013110Y001214D02*
X012796Y001214D01*
X012718Y001067D02*
X012640Y000989D01*
X012640Y000832D01*
X012718Y000754D01*
X013032Y000754D01*
X013110Y000832D01*
X013110Y000989D01*
X013032Y001067D01*
X012718Y001067D01*
X012640Y000603D02*
X012640Y000447D01*
X012640Y000525D02*
X013110Y000525D01*
X013110Y000447D02*
X013110Y000603D01*
D15*
X003175Y000200D02*
X002675Y000200D01*
X024538Y004313D02*
X024675Y004313D01*
X024538Y004313D02*
X024538Y004450D01*
X025975Y004313D02*
X026112Y004313D01*
X026112Y004450D01*
X026112Y005750D02*
X025975Y005887D01*
X024675Y005887D02*
X024538Y005887D01*
X024538Y005750D01*
X024829Y016606D02*
X024681Y016746D01*
X025758Y016581D02*
X025994Y016581D01*
X025994Y016817D01*
X025994Y017683D02*
X025994Y017919D01*
X025758Y017919D01*
X024892Y017919D02*
X024656Y017919D01*
X024656Y017683D01*
X007525Y016950D02*
X007525Y023100D01*
X002125Y023100D01*
X002125Y016950D01*
X007525Y016950D01*
D16*
X025325Y015750D03*
D17*
X026725Y016100D03*
D18*
X026763Y017650D02*
X026787Y017650D01*
X025375Y018638D02*
X025375Y018662D01*
X025375Y019438D02*
X025375Y019462D01*
M02*
