G75*
G70*
%OFA0B0*%
%FSLAX24Y24*%
%IPPOS*%
%LPD*%
%AMOC8*
5,1,8,0,0,1.08239X$1,22.5*
%
%ADD10C,0.0594*%
%ADD11C,0.0594*%
%ADD12C,0.0560*%
%ADD13C,0.0660*%
%ADD14R,0.0660X0.0660*%
%ADD15C,0.0740*%
%ADD16R,0.0740X0.0740*%
%ADD17OC8,0.0740*%
%ADD18OC8,0.0515*%
%ADD19R,0.0515X0.0515*%
%ADD20C,0.0709*%
%ADD21C,0.2000*%
%ADD22C,0.0100*%
%ADD23C,0.0400*%
D10*
X013875Y002803D02*
X013875Y003397D01*
X014875Y003397D02*
X014875Y002803D01*
X015875Y002803D02*
X015875Y003397D01*
X016875Y003397D02*
X016875Y002803D01*
X017875Y002803D02*
X017875Y003397D01*
X018875Y003397D02*
X018875Y002803D01*
X020875Y002803D02*
X020875Y003397D01*
X021875Y003397D02*
X021875Y002803D01*
X022875Y002803D02*
X022875Y003397D01*
X023875Y003397D02*
X023875Y002803D01*
X024875Y002803D02*
X024875Y003397D01*
X025875Y003397D02*
X025875Y002803D01*
X026875Y002803D02*
X026875Y003397D01*
X027875Y003397D02*
X027875Y002803D01*
X029875Y002803D02*
X029875Y003397D01*
X030875Y003397D02*
X030875Y002803D01*
X031875Y002803D02*
X031875Y003397D01*
X032875Y003397D02*
X032875Y002803D01*
X033875Y002803D02*
X033875Y003397D01*
X034875Y003397D02*
X034875Y002803D01*
X035875Y002803D02*
X035875Y003397D01*
X036875Y003397D02*
X036875Y002803D01*
X034875Y021803D02*
X034875Y022397D01*
X033875Y022397D02*
X033875Y021803D01*
X032875Y021803D02*
X032875Y022397D01*
X031875Y022397D02*
X031875Y021803D01*
X030875Y021803D02*
X030875Y022397D01*
X029875Y022397D02*
X029875Y021803D01*
X028875Y021803D02*
X028875Y022397D01*
X027875Y022397D02*
X027875Y021803D01*
X025875Y021803D02*
X025875Y022397D01*
X024875Y022397D02*
X024875Y021803D01*
X023875Y021803D02*
X023875Y022397D01*
X022875Y022397D02*
X022875Y021803D01*
X021875Y021803D02*
X021875Y022397D01*
X020875Y022397D02*
X020875Y021803D01*
X019875Y021803D02*
X019875Y022397D01*
X018875Y022397D02*
X018875Y021803D01*
X017375Y021803D02*
X017375Y022397D01*
X016375Y022397D02*
X016375Y021803D01*
X015375Y021803D02*
X015375Y022397D01*
X014375Y022397D02*
X014375Y021803D01*
X013375Y021803D02*
X013375Y022397D01*
X012375Y022397D02*
X012375Y021803D01*
X011375Y021803D02*
X011375Y022397D01*
X010375Y022397D02*
X010375Y021803D01*
X010375Y022397D01*
D11*
X037875Y022100D03*
X038875Y022100D03*
X038875Y021100D03*
X037875Y021100D03*
X037875Y020100D03*
X038875Y020100D03*
X038875Y019100D03*
X037875Y019100D03*
X037875Y018100D03*
X037875Y017100D03*
X038875Y017100D03*
X038875Y018100D03*
X038875Y016100D03*
X037875Y016100D03*
X037875Y015100D03*
X038875Y015100D03*
X038875Y014100D03*
X037875Y014100D03*
X037875Y013100D03*
X038875Y013100D03*
X038875Y012100D03*
X037875Y012100D03*
X037875Y011100D03*
X037875Y010100D03*
X038875Y010100D03*
X038875Y011100D03*
X038875Y009100D03*
X037875Y009100D03*
X037875Y008100D03*
X038875Y008100D03*
X038875Y007100D03*
X037875Y007100D03*
X037875Y006100D03*
X038875Y006100D03*
X038875Y005100D03*
X037875Y005100D03*
D12*
X013875Y019320D02*
X013875Y019880D01*
X012875Y019880D02*
X012875Y019320D01*
X011875Y019320D02*
X011875Y019880D01*
X010875Y019880D02*
X010875Y019320D01*
X009375Y021820D02*
X009375Y022380D01*
X008375Y022380D02*
X008375Y021820D01*
X011875Y003380D02*
X011875Y002820D01*
X012875Y002820D02*
X012875Y003380D01*
D13*
X025875Y012100D03*
X026875Y012100D03*
X026875Y013100D03*
X025875Y013100D03*
X026875Y014100D03*
D14*
X025875Y014100D03*
D15*
X006075Y017550D03*
X005075Y017550D03*
X004075Y017550D03*
X003575Y018550D03*
X004575Y018550D03*
X005575Y018550D03*
D16*
X002925Y000950D03*
D17*
X003925Y000950D03*
X004925Y000950D03*
X005925Y000950D03*
X006925Y000950D03*
X007925Y000950D03*
X008925Y000950D03*
X009925Y000950D03*
X009925Y001950D03*
X008925Y001950D03*
X007925Y001950D03*
X006925Y001950D03*
X005925Y001950D03*
X004925Y001950D03*
X003925Y001950D03*
X002925Y001950D03*
X002925Y002950D03*
X003925Y002950D03*
X004925Y002950D03*
X005925Y002950D03*
X006925Y002950D03*
X007925Y002950D03*
X008925Y002950D03*
X009925Y002950D03*
D18*
X011575Y008400D03*
X011575Y009400D03*
X011575Y010400D03*
X011575Y011400D03*
X011575Y012400D03*
X011575Y013400D03*
X011575Y015400D03*
D19*
X011575Y014400D03*
D20*
X007725Y012300D03*
X006725Y011850D03*
X007725Y011400D03*
X006725Y010950D03*
X007725Y010500D03*
X006725Y010050D03*
X007725Y009600D03*
X006725Y009150D03*
X007725Y008700D03*
X006725Y008250D03*
X005725Y008700D03*
X005725Y009600D03*
X005725Y010500D03*
X005725Y011400D03*
X005725Y012300D03*
D21*
X006725Y015320D03*
X006725Y005480D03*
D22*
X007225Y006850D02*
X026425Y006850D01*
X027475Y007250D02*
X005725Y007250D01*
X005725Y008700D01*
X006725Y008250D02*
X007125Y007850D01*
X037425Y007850D01*
X037625Y007650D01*
X038325Y007650D01*
X038875Y007100D01*
X039075Y006550D02*
X038575Y006550D01*
X038425Y006700D01*
X038075Y006550D02*
X038525Y006100D01*
X038875Y006100D01*
X039325Y006300D02*
X039325Y005650D01*
X022375Y005650D01*
X022025Y006000D01*
X010625Y006000D01*
X008375Y003750D01*
X006975Y003750D01*
X006425Y003200D01*
X006425Y000950D01*
X005925Y000950D01*
X005425Y000950D02*
X004925Y000950D01*
X005425Y000950D02*
X005425Y003200D01*
X006175Y003950D01*
X008075Y003950D01*
X009275Y005150D01*
X008425Y003400D02*
X008425Y001950D01*
X008925Y001950D01*
X008425Y001950D02*
X007925Y001950D01*
X008425Y001450D02*
X007925Y000950D01*
X008425Y001450D02*
X039525Y001450D01*
X039525Y010450D01*
X038875Y011100D01*
X037875Y011100D02*
X036375Y009600D01*
X015525Y009600D01*
X014075Y009950D02*
X035725Y009950D01*
X037875Y012100D01*
X038375Y012600D02*
X025475Y012600D01*
X023675Y010800D01*
X010725Y010800D01*
X008375Y008450D01*
X008525Y008100D02*
X007625Y008100D01*
X007225Y008500D01*
X007225Y010950D01*
X006725Y010950D01*
X006225Y010550D02*
X006225Y012500D01*
X007225Y012500D01*
X007525Y012800D01*
X008075Y012800D01*
X008875Y012000D01*
X024375Y012000D01*
X024875Y013000D02*
X024975Y013100D01*
X025875Y013100D01*
X026375Y013600D01*
X035075Y013600D01*
X032525Y013950D02*
X031875Y014600D01*
X026375Y014600D01*
X025875Y014100D01*
X025525Y013750D01*
X024575Y013750D01*
X024525Y013800D01*
X011425Y013800D01*
X011375Y013750D01*
X006275Y013750D01*
X005225Y012700D01*
X004875Y012850D02*
X004875Y010500D01*
X005725Y010500D01*
X006225Y010550D02*
X006725Y010050D01*
X008525Y008100D02*
X009325Y008900D01*
X036975Y008900D01*
X037625Y009550D01*
X039325Y009550D01*
X039325Y008900D01*
X039075Y008650D01*
X038875Y008650D01*
X038875Y008100D01*
X038325Y008550D02*
X012175Y008550D01*
X013625Y008200D02*
X037775Y008200D01*
X037875Y008100D01*
X038325Y008550D02*
X038875Y009100D01*
X037875Y010100D02*
X037025Y009250D01*
X036075Y009250D01*
X037375Y007600D02*
X006675Y007600D01*
X003425Y011700D02*
X003425Y000950D01*
X002925Y000950D01*
X003925Y001950D02*
X004925Y001950D01*
X004925Y002950D02*
X003925Y002950D01*
X008925Y002950D02*
X009925Y002950D01*
X010525Y002350D01*
X016125Y002350D01*
X016875Y003100D01*
X015625Y003850D02*
X019175Y003850D01*
X020675Y002350D01*
X024075Y002350D01*
X024425Y002700D01*
X024425Y004250D01*
X024475Y004250D01*
X027825Y004250D01*
X027825Y004300D01*
X027825Y004250D02*
X037775Y004250D01*
X038025Y004000D01*
X038025Y003950D01*
X038225Y004150D01*
X038725Y004150D01*
X037575Y003900D02*
X027525Y003900D01*
X027125Y004750D02*
X027475Y005100D01*
X037875Y005100D01*
X037575Y003900D02*
X037575Y002650D01*
X039325Y006300D02*
X039075Y006550D01*
X038075Y006550D02*
X032425Y006550D01*
X031725Y007250D01*
X037375Y007600D02*
X037875Y007100D01*
X038375Y012600D02*
X038875Y013100D01*
X037875Y013100D02*
X033575Y017400D01*
X023625Y017400D01*
X023575Y017450D01*
X010475Y017450D01*
X007175Y014150D01*
X005875Y014150D01*
X003425Y011700D01*
X004875Y012850D02*
X005975Y013950D01*
X007275Y013950D01*
X007325Y014000D01*
X015525Y014000D01*
X018625Y017100D01*
X017525Y017800D02*
X017475Y017850D01*
X006525Y017850D01*
X005825Y018550D01*
X005575Y018550D01*
X005075Y018800D02*
X005075Y017550D01*
X005075Y018800D02*
X005325Y019050D01*
X006375Y019050D01*
X007625Y020300D01*
X025025Y020300D01*
X027575Y022850D01*
X032125Y022850D01*
X032875Y022100D01*
X033875Y022100D02*
X029875Y018100D01*
X026275Y018100D01*
X025925Y017750D01*
X023975Y017750D01*
X024325Y018550D02*
X011525Y018550D01*
X017225Y018200D02*
X024875Y018200D01*
X024325Y018550D02*
X027875Y022100D01*
X032825Y017750D02*
X033925Y018850D01*
X034875Y022100D02*
X030525Y017750D01*
X028575Y017750D01*
X027875Y017050D02*
X027025Y017050D01*
X026225Y016250D01*
X024975Y016250D01*
X024825Y014100D02*
X027425Y016700D01*
X024825Y014100D02*
X024725Y014100D01*
X024875Y013000D02*
X008375Y013000D01*
X008725Y013350D02*
X006775Y013350D01*
X005725Y012300D01*
X014875Y003100D02*
X015625Y003850D01*
D23*
X009275Y005150D03*
X008425Y003400D03*
X007225Y006850D03*
X006675Y007600D03*
X008375Y008450D03*
X012175Y008550D03*
X013625Y008200D03*
X015525Y009600D03*
X014075Y009950D03*
X008725Y013350D03*
X008375Y013000D03*
X005225Y012700D03*
X011525Y018550D03*
X017225Y018200D03*
X017525Y017800D03*
X018625Y017100D03*
X023975Y017750D03*
X024875Y018200D03*
X027425Y016700D03*
X027875Y017050D03*
X028575Y017750D03*
X026225Y016250D03*
X024975Y016250D03*
X024725Y014100D03*
X024375Y012000D03*
X027475Y007250D03*
X026425Y006850D03*
X027125Y004750D03*
X027825Y004300D03*
X027525Y003900D03*
X024475Y004250D03*
X031725Y007250D03*
X036075Y009250D03*
X038425Y006700D03*
X038725Y004150D03*
X038025Y003950D03*
X037575Y002650D03*
X035075Y013600D03*
X032525Y013950D03*
X032825Y017750D03*
X033925Y018850D03*
M02*
