G75*
G70*
%OFA0B0*%
%FSLAX24Y24*%
%IPPOS*%
%LPD*%
%AMOC8*
5,1,8,0,0,1.08239X$1,22.5*
%
%ADD10C,0.0000*%
%ADD11C,0.0594*%
%ADD12C,0.0594*%
%ADD13C,0.0560*%
%ADD14C,0.0660*%
%ADD15R,0.0660X0.0660*%
%ADD16C,0.0157*%
%ADD17C,0.0305*%
%ADD18C,0.0276*%
%ADD19R,0.0118X0.0315*%
%ADD20R,0.0315X0.0118*%
%ADD21R,0.0394X0.0394*%
%ADD22C,0.0740*%
%ADD23R,0.0110X0.0256*%
%ADD24R,0.0256X0.0110*%
%ADD25R,0.0276X0.0354*%
%ADD26R,0.0354X0.0276*%
%ADD27R,0.0740X0.0740*%
%ADD28OC8,0.0740*%
%ADD29OC8,0.0515*%
%ADD30R,0.0515X0.0515*%
%ADD31C,0.0709*%
%ADD32C,0.2000*%
%ADD33C,0.0100*%
%ADD34C,0.0400*%
D10*
X001875Y000990D02*
X001875Y023947D01*
X001877Y023994D01*
X001882Y024041D01*
X001892Y024087D01*
X001904Y024132D01*
X001921Y024176D01*
X001940Y024219D01*
X001963Y024260D01*
X001989Y024299D01*
X002019Y024336D01*
X002050Y024371D01*
X002085Y024402D01*
X002122Y024432D01*
X002161Y024458D01*
X002202Y024481D01*
X002245Y024500D01*
X002289Y024517D01*
X002334Y024529D01*
X002380Y024539D01*
X002427Y024544D01*
X002474Y024546D01*
X040764Y024546D01*
X040806Y024544D01*
X040848Y024539D01*
X040888Y024530D01*
X040929Y024517D01*
X040967Y024501D01*
X041005Y024482D01*
X041040Y024459D01*
X041073Y024433D01*
X041104Y024405D01*
X041132Y024374D01*
X041158Y024341D01*
X041181Y024306D01*
X041200Y024268D01*
X041216Y024230D01*
X041229Y024189D01*
X041238Y024149D01*
X041243Y024107D01*
X041245Y024065D01*
X041245Y000985D01*
X041243Y000927D01*
X041237Y000869D01*
X041228Y000812D01*
X041215Y000756D01*
X041198Y000701D01*
X041178Y000646D01*
X041154Y000594D01*
X041126Y000543D01*
X041096Y000493D01*
X041062Y000446D01*
X041025Y000401D01*
X040986Y000359D01*
X040944Y000320D01*
X040899Y000283D01*
X040852Y000249D01*
X040803Y000219D01*
X040751Y000191D01*
X040699Y000167D01*
X040644Y000147D01*
X040589Y000130D01*
X040533Y000117D01*
X040476Y000108D01*
X040418Y000102D01*
X040360Y000100D01*
X002765Y000100D01*
X002707Y000102D01*
X002649Y000108D01*
X002591Y000117D01*
X002535Y000130D01*
X002479Y000147D01*
X002424Y000168D01*
X002371Y000192D01*
X002320Y000219D01*
X002271Y000250D01*
X002223Y000284D01*
X002178Y000321D01*
X002136Y000361D01*
X002096Y000403D01*
X002059Y000448D01*
X002025Y000496D01*
X001994Y000545D01*
X001967Y000596D01*
X001943Y000649D01*
X001922Y000704D01*
X001905Y000760D01*
X001892Y000816D01*
X001883Y000874D01*
X001877Y000932D01*
X001875Y000990D01*
X020950Y004900D02*
X020952Y004950D01*
X020958Y004999D01*
X020968Y005048D01*
X020981Y005095D01*
X020999Y005142D01*
X021020Y005187D01*
X021044Y005230D01*
X021072Y005271D01*
X021103Y005310D01*
X021137Y005346D01*
X021174Y005380D01*
X021214Y005410D01*
X021255Y005437D01*
X021299Y005461D01*
X021344Y005481D01*
X021391Y005497D01*
X021439Y005510D01*
X021488Y005519D01*
X021538Y005524D01*
X021587Y005525D01*
X021637Y005522D01*
X021686Y005515D01*
X021735Y005504D01*
X021782Y005490D01*
X021828Y005471D01*
X021873Y005449D01*
X021916Y005424D01*
X021956Y005395D01*
X021994Y005363D01*
X022030Y005329D01*
X022063Y005291D01*
X022092Y005251D01*
X022118Y005209D01*
X022141Y005165D01*
X022160Y005119D01*
X022176Y005072D01*
X022188Y005023D01*
X022196Y004974D01*
X022200Y004925D01*
X022200Y004875D01*
X022196Y004826D01*
X022188Y004777D01*
X022176Y004728D01*
X022160Y004681D01*
X022141Y004635D01*
X022118Y004591D01*
X022092Y004549D01*
X022063Y004509D01*
X022030Y004471D01*
X021994Y004437D01*
X021956Y004405D01*
X021916Y004376D01*
X021873Y004351D01*
X021828Y004329D01*
X021782Y004310D01*
X021735Y004296D01*
X021686Y004285D01*
X021637Y004278D01*
X021587Y004275D01*
X021538Y004276D01*
X021488Y004281D01*
X021439Y004290D01*
X021391Y004303D01*
X021344Y004319D01*
X021299Y004339D01*
X021255Y004363D01*
X021214Y004390D01*
X021174Y004420D01*
X021137Y004454D01*
X021103Y004490D01*
X021072Y004529D01*
X021044Y004570D01*
X021020Y004613D01*
X020999Y004658D01*
X020981Y004705D01*
X020968Y004752D01*
X020958Y004801D01*
X020952Y004850D01*
X020950Y004900D01*
X022750Y016350D02*
X022752Y016400D01*
X022758Y016449D01*
X022768Y016498D01*
X022781Y016545D01*
X022799Y016592D01*
X022820Y016637D01*
X022844Y016680D01*
X022872Y016721D01*
X022903Y016760D01*
X022937Y016796D01*
X022974Y016830D01*
X023014Y016860D01*
X023055Y016887D01*
X023099Y016911D01*
X023144Y016931D01*
X023191Y016947D01*
X023239Y016960D01*
X023288Y016969D01*
X023338Y016974D01*
X023387Y016975D01*
X023437Y016972D01*
X023486Y016965D01*
X023535Y016954D01*
X023582Y016940D01*
X023628Y016921D01*
X023673Y016899D01*
X023716Y016874D01*
X023756Y016845D01*
X023794Y016813D01*
X023830Y016779D01*
X023863Y016741D01*
X023892Y016701D01*
X023918Y016659D01*
X023941Y016615D01*
X023960Y016569D01*
X023976Y016522D01*
X023988Y016473D01*
X023996Y016424D01*
X024000Y016375D01*
X024000Y016325D01*
X023996Y016276D01*
X023988Y016227D01*
X023976Y016178D01*
X023960Y016131D01*
X023941Y016085D01*
X023918Y016041D01*
X023892Y015999D01*
X023863Y015959D01*
X023830Y015921D01*
X023794Y015887D01*
X023756Y015855D01*
X023716Y015826D01*
X023673Y015801D01*
X023628Y015779D01*
X023582Y015760D01*
X023535Y015746D01*
X023486Y015735D01*
X023437Y015728D01*
X023387Y015725D01*
X023338Y015726D01*
X023288Y015731D01*
X023239Y015740D01*
X023191Y015753D01*
X023144Y015769D01*
X023099Y015789D01*
X023055Y015813D01*
X023014Y015840D01*
X022974Y015870D01*
X022937Y015904D01*
X022903Y015940D01*
X022872Y015979D01*
X022844Y016020D01*
X022820Y016063D01*
X022799Y016108D01*
X022781Y016155D01*
X022768Y016202D01*
X022758Y016251D01*
X022752Y016300D01*
X022750Y016350D01*
X006185Y021050D02*
X006187Y021100D01*
X006193Y021150D01*
X006203Y021199D01*
X006216Y021248D01*
X006234Y021295D01*
X006255Y021341D01*
X006279Y021384D01*
X006307Y021426D01*
X006338Y021466D01*
X006372Y021503D01*
X006409Y021537D01*
X006449Y021568D01*
X006491Y021596D01*
X006534Y021620D01*
X006580Y021641D01*
X006627Y021659D01*
X006676Y021672D01*
X006725Y021682D01*
X006775Y021688D01*
X006825Y021690D01*
X006875Y021688D01*
X006925Y021682D01*
X006974Y021672D01*
X007023Y021659D01*
X007070Y021641D01*
X007116Y021620D01*
X007159Y021596D01*
X007201Y021568D01*
X007241Y021537D01*
X007278Y021503D01*
X007312Y021466D01*
X007343Y021426D01*
X007371Y021384D01*
X007395Y021341D01*
X007416Y021295D01*
X007434Y021248D01*
X007447Y021199D01*
X007457Y021150D01*
X007463Y021100D01*
X007465Y021050D01*
X007463Y021000D01*
X007457Y020950D01*
X007447Y020901D01*
X007434Y020852D01*
X007416Y020805D01*
X007395Y020759D01*
X007371Y020716D01*
X007343Y020674D01*
X007312Y020634D01*
X007278Y020597D01*
X007241Y020563D01*
X007201Y020532D01*
X007159Y020504D01*
X007116Y020480D01*
X007070Y020459D01*
X007023Y020441D01*
X006974Y020428D01*
X006925Y020418D01*
X006875Y020412D01*
X006825Y020410D01*
X006775Y020412D01*
X006725Y020418D01*
X006676Y020428D01*
X006627Y020441D01*
X006580Y020459D01*
X006534Y020480D01*
X006491Y020504D01*
X006449Y020532D01*
X006409Y020563D01*
X006372Y020597D01*
X006338Y020634D01*
X006307Y020674D01*
X006279Y020716D01*
X006255Y020759D01*
X006234Y020805D01*
X006216Y020852D01*
X006203Y020901D01*
X006193Y020950D01*
X006187Y021000D01*
X006185Y021050D01*
X002185Y021050D02*
X002187Y021100D01*
X002193Y021150D01*
X002203Y021199D01*
X002216Y021248D01*
X002234Y021295D01*
X002255Y021341D01*
X002279Y021384D01*
X002307Y021426D01*
X002338Y021466D01*
X002372Y021503D01*
X002409Y021537D01*
X002449Y021568D01*
X002491Y021596D01*
X002534Y021620D01*
X002580Y021641D01*
X002627Y021659D01*
X002676Y021672D01*
X002725Y021682D01*
X002775Y021688D01*
X002825Y021690D01*
X002875Y021688D01*
X002925Y021682D01*
X002974Y021672D01*
X003023Y021659D01*
X003070Y021641D01*
X003116Y021620D01*
X003159Y021596D01*
X003201Y021568D01*
X003241Y021537D01*
X003278Y021503D01*
X003312Y021466D01*
X003343Y021426D01*
X003371Y021384D01*
X003395Y021341D01*
X003416Y021295D01*
X003434Y021248D01*
X003447Y021199D01*
X003457Y021150D01*
X003463Y021100D01*
X003465Y021050D01*
X003463Y021000D01*
X003457Y020950D01*
X003447Y020901D01*
X003434Y020852D01*
X003416Y020805D01*
X003395Y020759D01*
X003371Y020716D01*
X003343Y020674D01*
X003312Y020634D01*
X003278Y020597D01*
X003241Y020563D01*
X003201Y020532D01*
X003159Y020504D01*
X003116Y020480D01*
X003070Y020459D01*
X003023Y020441D01*
X002974Y020428D01*
X002925Y020418D01*
X002875Y020412D01*
X002825Y020410D01*
X002775Y020412D01*
X002725Y020418D01*
X002676Y020428D01*
X002627Y020441D01*
X002580Y020459D01*
X002534Y020480D01*
X002491Y020504D01*
X002449Y020532D01*
X002409Y020563D01*
X002372Y020597D01*
X002338Y020634D01*
X002307Y020674D01*
X002279Y020716D01*
X002255Y020759D01*
X002234Y020805D01*
X002216Y020852D01*
X002203Y020901D01*
X002193Y020950D01*
X002187Y021000D01*
X002185Y021050D01*
D11*
X010375Y021803D02*
X010375Y022397D01*
X010375Y021803D01*
X011375Y021803D02*
X011375Y022397D01*
X012375Y022397D02*
X012375Y021803D01*
X013375Y021803D02*
X013375Y022397D01*
X014375Y022397D02*
X014375Y021803D01*
X015375Y021803D02*
X015375Y022397D01*
X016375Y022397D02*
X016375Y021803D01*
X017375Y021803D02*
X017375Y022397D01*
X018875Y022397D02*
X018875Y021803D01*
X019875Y021803D02*
X019875Y022397D01*
X020875Y022397D02*
X020875Y021803D01*
X021875Y021803D02*
X021875Y022397D01*
X022875Y022397D02*
X022875Y021803D01*
X023875Y021803D02*
X023875Y022397D01*
X024875Y022397D02*
X024875Y021803D01*
X025875Y021803D02*
X025875Y022397D01*
X027875Y022397D02*
X027875Y021803D01*
X028875Y021803D02*
X028875Y022397D01*
X029875Y022397D02*
X029875Y021803D01*
X030875Y021803D02*
X030875Y022397D01*
X031875Y022397D02*
X031875Y021803D01*
X032875Y021803D02*
X032875Y022397D01*
X033875Y022397D02*
X033875Y021803D01*
X034875Y021803D02*
X034875Y022397D01*
X034875Y003397D02*
X034875Y002803D01*
X035875Y002803D02*
X035875Y003397D01*
X036875Y003397D02*
X036875Y002803D01*
X033875Y002803D02*
X033875Y003397D01*
X032875Y003397D02*
X032875Y002803D01*
X031875Y002803D02*
X031875Y003397D01*
X030875Y003397D02*
X030875Y002803D01*
X029875Y002803D02*
X029875Y003397D01*
X027875Y003397D02*
X027875Y002803D01*
X026875Y002803D02*
X026875Y003397D01*
X025875Y003397D02*
X025875Y002803D01*
X024875Y002803D02*
X024875Y003397D01*
X023875Y003397D02*
X023875Y002803D01*
X022875Y002803D02*
X022875Y003397D01*
X021875Y003397D02*
X021875Y002803D01*
X020875Y002803D02*
X020875Y003397D01*
X018875Y003397D02*
X018875Y002803D01*
X017875Y002803D02*
X017875Y003397D01*
X016875Y003397D02*
X016875Y002803D01*
X015875Y002803D02*
X015875Y003397D01*
X014875Y003397D02*
X014875Y002803D01*
X013875Y002803D02*
X013875Y003397D01*
D12*
X037875Y005100D03*
X038875Y005100D03*
X038875Y006100D03*
X037875Y006100D03*
X037875Y007100D03*
X038875Y007100D03*
X038875Y008100D03*
X037875Y008100D03*
X037875Y009100D03*
X038875Y009100D03*
X038875Y010100D03*
X038875Y011100D03*
X037875Y011100D03*
X037875Y010100D03*
X037875Y012100D03*
X038875Y012100D03*
X038875Y013100D03*
X037875Y013100D03*
X037875Y014100D03*
X038875Y014100D03*
X038875Y015100D03*
X037875Y015100D03*
X037875Y016100D03*
X038875Y016100D03*
X038875Y017100D03*
X038875Y018100D03*
X037875Y018100D03*
X037875Y017100D03*
X037875Y019100D03*
X038875Y019100D03*
X038875Y020100D03*
X037875Y020100D03*
X037875Y021100D03*
X038875Y021100D03*
X038875Y022100D03*
X037875Y022100D03*
D13*
X013875Y019880D02*
X013875Y019320D01*
X012875Y019320D02*
X012875Y019880D01*
X011875Y019880D02*
X011875Y019320D01*
X010875Y019320D02*
X010875Y019880D01*
X009375Y021820D02*
X009375Y022380D01*
X008375Y022380D02*
X008375Y021820D01*
X011875Y003380D02*
X011875Y002820D01*
X012875Y002820D02*
X012875Y003380D01*
D14*
X025875Y012100D03*
X026875Y012100D03*
X026875Y013100D03*
X025875Y013100D03*
X026875Y014100D03*
D15*
X025875Y014100D03*
D16*
X031347Y020765D02*
X031505Y020765D01*
X031505Y020291D01*
X031347Y020291D01*
X031347Y020765D01*
X031347Y020447D02*
X031505Y020447D01*
X031505Y020603D02*
X031347Y020603D01*
X031347Y020759D02*
X031505Y020759D01*
X031780Y020291D02*
X031938Y020291D01*
X031780Y020291D02*
X031780Y020765D01*
X031938Y020765D01*
X031938Y020291D01*
X031938Y020447D02*
X031780Y020447D01*
X031780Y020603D02*
X031938Y020603D01*
X031938Y020759D02*
X031780Y020759D01*
X032213Y020291D02*
X032371Y020291D01*
X032213Y020291D02*
X032213Y020765D01*
X032371Y020765D01*
X032371Y020291D01*
X032371Y020447D02*
X032213Y020447D01*
X032213Y020603D02*
X032371Y020603D01*
X032371Y020759D02*
X032213Y020759D01*
X032646Y020291D02*
X032804Y020291D01*
X032646Y020291D02*
X032646Y020765D01*
X032804Y020765D01*
X032804Y020291D01*
X032804Y020447D02*
X032646Y020447D01*
X032646Y020603D02*
X032804Y020603D01*
X032804Y020759D02*
X032646Y020759D01*
X033079Y020291D02*
X033237Y020291D01*
X033079Y020291D02*
X033079Y020765D01*
X033237Y020765D01*
X033237Y020291D01*
X033237Y020447D02*
X033079Y020447D01*
X033079Y020603D02*
X033237Y020603D01*
X033237Y020759D02*
X033079Y020759D01*
X033512Y020291D02*
X033670Y020291D01*
X033512Y020291D02*
X033512Y020765D01*
X033670Y020765D01*
X033670Y020291D01*
X033670Y020447D02*
X033512Y020447D01*
X033512Y020603D02*
X033670Y020603D01*
X033670Y020759D02*
X033512Y020759D01*
X033945Y020291D02*
X034103Y020291D01*
X033945Y020291D02*
X033945Y020765D01*
X034103Y020765D01*
X034103Y020291D01*
X034103Y020447D02*
X033945Y020447D01*
X033945Y020603D02*
X034103Y020603D01*
X034103Y020759D02*
X033945Y020759D01*
X034378Y020291D02*
X034536Y020291D01*
X034378Y020291D02*
X034378Y020765D01*
X034536Y020765D01*
X034536Y020291D01*
X034536Y020447D02*
X034378Y020447D01*
X034378Y020603D02*
X034536Y020603D01*
X034536Y020759D02*
X034378Y020759D01*
D17*
X035117Y019145D02*
X035423Y019145D01*
X035117Y019145D02*
X035117Y019943D01*
X035423Y019943D01*
X035423Y019145D01*
X035423Y019449D02*
X035117Y019449D01*
X035117Y019753D02*
X035423Y019753D01*
X030644Y020188D02*
X030318Y020188D01*
X030318Y020494D01*
X030644Y020494D01*
X030644Y020188D01*
X030644Y020492D02*
X030318Y020492D01*
X035117Y016252D02*
X035423Y016252D01*
X035117Y016252D02*
X035117Y016774D01*
X035423Y016774D01*
X035423Y016252D01*
X035423Y016556D02*
X035117Y016556D01*
D18*
X035163Y014407D02*
X035437Y014407D01*
X035163Y014407D02*
X035163Y014879D01*
X035437Y014879D01*
X035437Y014407D01*
X035437Y014682D02*
X035163Y014682D01*
X029689Y014013D02*
X029415Y014013D01*
X029415Y014485D01*
X029689Y014485D01*
X029689Y014013D01*
X029689Y014288D02*
X029415Y014288D01*
X029413Y015687D02*
X029139Y015687D01*
X029139Y016591D01*
X029413Y016591D01*
X029413Y015687D01*
X029413Y015962D02*
X029139Y015962D01*
X029139Y016237D02*
X029413Y016237D01*
X029413Y016512D02*
X029139Y016512D01*
X029139Y019446D02*
X029413Y019446D01*
X029139Y019446D02*
X029139Y020350D01*
X029413Y020350D01*
X029413Y019446D01*
X029413Y019721D02*
X029139Y019721D01*
X029139Y019996D02*
X029413Y019996D01*
X029413Y020271D02*
X029139Y020271D01*
D19*
X025817Y005887D03*
X025620Y005887D03*
X025423Y005887D03*
X025227Y005887D03*
X025030Y005887D03*
X024833Y005887D03*
X024833Y004313D03*
X025030Y004313D03*
X025227Y004313D03*
X025423Y004313D03*
X025620Y004313D03*
X025817Y004313D03*
X038378Y003702D03*
X038575Y003702D03*
X038772Y003702D03*
X038772Y002698D03*
X038575Y002698D03*
X038378Y002698D03*
D20*
X038044Y002806D03*
X038044Y003003D03*
X038044Y003200D03*
X038044Y003397D03*
X038044Y003594D03*
X039106Y003594D03*
X039106Y003397D03*
X039106Y003200D03*
X039106Y003003D03*
X039106Y002806D03*
X026112Y004608D03*
X026112Y004805D03*
X026112Y005002D03*
X026112Y005198D03*
X026112Y005395D03*
X026112Y005592D03*
X024538Y005592D03*
X024538Y005395D03*
X024538Y005198D03*
X024538Y005002D03*
X024538Y004805D03*
X024538Y004608D03*
D21*
X025325Y005100D03*
D22*
X006075Y017550D03*
X005075Y017550D03*
X004075Y017550D03*
X003575Y018550D03*
X004575Y018550D03*
X005575Y018550D03*
D23*
X025030Y017789D03*
X025227Y017789D03*
X025423Y017789D03*
X025620Y017789D03*
X025620Y016711D03*
X025423Y016711D03*
X025227Y016711D03*
X025030Y016711D03*
D24*
X024786Y016955D03*
X024786Y017152D03*
X024786Y017348D03*
X024786Y017545D03*
X025864Y017545D03*
X025864Y017348D03*
X025864Y017152D03*
X025864Y016955D03*
D25*
X025581Y015750D03*
X025069Y015750D03*
X025119Y018650D03*
X025631Y018650D03*
X025631Y019450D03*
X025119Y019450D03*
D26*
X026775Y017906D03*
X026775Y017394D03*
X026725Y016356D03*
X026725Y015844D03*
D27*
X002925Y000950D03*
D28*
X003925Y000950D03*
X004925Y000950D03*
X005925Y000950D03*
X006925Y000950D03*
X007925Y000950D03*
X008925Y000950D03*
X009925Y000950D03*
X009925Y001950D03*
X008925Y001950D03*
X007925Y001950D03*
X006925Y001950D03*
X005925Y001950D03*
X004925Y001950D03*
X003925Y001950D03*
X002925Y001950D03*
X002925Y002950D03*
X003925Y002950D03*
X004925Y002950D03*
X005925Y002950D03*
X006925Y002950D03*
X007925Y002950D03*
X008925Y002950D03*
X009925Y002950D03*
D29*
X011575Y008400D03*
X011575Y009400D03*
X011575Y010400D03*
X011575Y011400D03*
X011575Y012400D03*
X011575Y013400D03*
X011575Y015400D03*
D30*
X011575Y014400D03*
D31*
X007725Y012300D03*
X006725Y011850D03*
X007725Y011400D03*
X006725Y010950D03*
X007725Y010500D03*
X006725Y010050D03*
X007725Y009600D03*
X006725Y009150D03*
X007725Y008700D03*
X006725Y008250D03*
X005725Y008700D03*
X005725Y009600D03*
X005725Y010500D03*
X005725Y011400D03*
X005725Y012300D03*
D32*
X006725Y015320D03*
X006725Y005480D03*
D33*
X007875Y005000D02*
X006325Y003450D01*
X004425Y003450D01*
X004425Y001450D01*
X003925Y000950D01*
X003925Y001950D02*
X002925Y001950D01*
X002925Y002950D02*
X003925Y002950D01*
X004925Y002950D02*
X005925Y002950D01*
X006925Y002950D01*
X007925Y002950D01*
X008925Y002950D01*
X008925Y009300D01*
X007725Y010500D01*
X007725Y009600D02*
X008725Y008600D01*
X008725Y003700D01*
X008425Y003400D01*
X009425Y003500D02*
X009425Y002700D01*
X009175Y002450D01*
X008425Y002450D01*
X008425Y001700D01*
X008175Y001450D01*
X006925Y001450D01*
X006925Y000950D01*
X006925Y001950D02*
X005925Y001950D01*
X004925Y001950D01*
X006925Y001950D02*
X007925Y001950D01*
X008925Y001950D02*
X009925Y001950D01*
X013725Y001950D01*
X014875Y003100D01*
X015875Y003100D02*
X015875Y009750D01*
X013625Y012000D01*
X010125Y012000D01*
X010125Y013900D01*
X010100Y013925D01*
X011575Y015400D01*
X012075Y014900D02*
X012075Y018500D01*
X011400Y019175D01*
X011375Y019150D01*
X011375Y018900D01*
X007425Y018900D01*
X006075Y017550D01*
X004575Y018550D02*
X004575Y023450D01*
X030775Y023450D01*
X031525Y022700D01*
X031525Y022450D01*
X031875Y022100D01*
X031325Y022600D02*
X030675Y023250D01*
X011375Y023250D01*
X011375Y022100D01*
X011375Y019200D01*
X011400Y019175D01*
X011525Y018550D02*
X007875Y014900D01*
X007875Y014350D01*
X006225Y012700D01*
X006225Y011900D01*
X005725Y011400D01*
X006225Y011350D02*
X006725Y011850D01*
X006225Y011350D02*
X006225Y008050D01*
X006675Y007600D01*
X007225Y006850D02*
X007225Y008650D01*
X006725Y009150D01*
X007225Y009200D02*
X007725Y008700D01*
X008375Y008450D02*
X007875Y007950D01*
X007875Y005000D01*
X009275Y005150D02*
X014075Y009950D01*
X014425Y010100D02*
X012725Y011800D01*
X009075Y011800D01*
X009075Y013500D01*
X008875Y013700D01*
X007825Y013700D01*
X007825Y012400D01*
X007725Y012300D01*
X008375Y012050D02*
X008375Y013000D01*
X008725Y013350D02*
X008725Y011000D01*
X011525Y011000D01*
X011975Y010550D01*
X011975Y008750D01*
X012175Y008550D01*
X013625Y008200D02*
X014425Y009000D01*
X014425Y010100D01*
X015525Y009600D02*
X009425Y003500D01*
X008925Y001450D02*
X008925Y000950D01*
X008925Y001450D02*
X029175Y001450D01*
X030325Y002600D01*
X030325Y003500D01*
X036075Y009250D01*
X036425Y010050D02*
X032525Y013950D01*
X032575Y013950D01*
X032575Y017500D01*
X032825Y017750D01*
X033175Y017400D02*
X033175Y020500D01*
X033158Y020528D01*
X033475Y020650D02*
X033475Y020850D01*
X032975Y021350D01*
X031325Y021350D01*
X031325Y022600D01*
X030875Y022100D02*
X030575Y022400D01*
X030575Y023050D01*
X019875Y023050D01*
X019425Y022600D01*
X019425Y021700D01*
X016675Y018950D01*
X016675Y018500D01*
X011575Y013400D01*
X010100Y013925D02*
X010075Y013900D01*
X007725Y013900D01*
X007225Y013400D01*
X007225Y009200D01*
X005725Y009600D02*
X005225Y010100D01*
X005225Y012700D01*
X007725Y011400D02*
X008375Y012050D01*
X011575Y012400D02*
X016875Y017700D01*
X016875Y018550D01*
X019675Y021350D01*
X028425Y021350D01*
X028425Y022600D01*
X028675Y022850D01*
X029875Y022850D01*
X029875Y022100D01*
X028875Y022100D02*
X028625Y021850D01*
X028625Y021250D01*
X027375Y020000D01*
X018625Y020000D01*
X018625Y017100D01*
X017525Y017800D02*
X017525Y004450D01*
X018875Y003100D01*
X019325Y002600D02*
X019075Y002350D01*
X016875Y002350D01*
X016875Y003100D01*
X017175Y003800D02*
X017875Y003100D01*
X017175Y003800D02*
X017175Y018150D01*
X017225Y018200D01*
X012075Y014900D02*
X011575Y014400D01*
X019325Y008700D02*
X019325Y002600D01*
X024025Y004200D02*
X024325Y003900D01*
X025825Y003900D01*
X025825Y004300D01*
X025817Y004313D01*
X025825Y004350D01*
X026425Y004350D01*
X026425Y004700D01*
X026400Y004725D01*
X026425Y004750D01*
X027125Y004750D01*
X026400Y004725D02*
X026325Y004800D01*
X026125Y004800D01*
X026112Y004805D01*
X026075Y004800D01*
X025875Y004800D01*
X025775Y004700D01*
X025775Y004650D01*
X024625Y004650D01*
X024538Y004608D01*
X024575Y004650D01*
X024575Y004800D01*
X024538Y004805D01*
X024575Y004850D01*
X024575Y005000D01*
X024538Y005002D01*
X024538Y005198D02*
X024575Y005200D01*
X024575Y005350D01*
X024538Y005395D01*
X024525Y005400D01*
X024225Y005100D01*
X024225Y004350D01*
X024475Y004350D01*
X024475Y004250D01*
X024475Y004350D02*
X024825Y004350D01*
X024833Y004313D01*
X024025Y004200D02*
X024025Y006200D01*
X025725Y006200D01*
X025825Y006100D01*
X025825Y005900D01*
X025817Y005887D01*
X026025Y005650D02*
X026025Y011250D01*
X025100Y012175D01*
X025075Y012150D01*
X025075Y012000D01*
X024375Y012000D01*
X025075Y012200D02*
X025075Y015750D01*
X025069Y015750D01*
X024975Y015750D01*
X024625Y016100D01*
X024625Y016800D01*
X024650Y016825D01*
X024125Y017350D01*
X024125Y017600D01*
X023975Y017750D01*
X024325Y017550D02*
X024325Y019200D01*
X024925Y019800D01*
X026425Y019800D01*
X026425Y018750D01*
X028675Y021000D01*
X032475Y021000D01*
X032625Y020850D01*
X032625Y020650D01*
X032725Y020550D01*
X032725Y020528D01*
X032292Y020528D02*
X032275Y020500D01*
X032175Y020400D01*
X032175Y007200D01*
X028925Y003950D01*
X027525Y003950D01*
X027525Y003900D01*
X027475Y003950D01*
X027475Y007250D01*
X027475Y012500D01*
X026875Y013100D01*
X026375Y011900D02*
X026375Y016250D01*
X026225Y016250D01*
X026375Y016250D02*
X026725Y016250D01*
X026725Y016356D01*
X027075Y016200D02*
X027075Y016700D01*
X025675Y016700D01*
X025620Y016711D01*
X025625Y016700D01*
X025625Y015750D01*
X025581Y015750D01*
X025575Y015750D01*
X025575Y016150D01*
X025225Y016500D01*
X025225Y016700D01*
X025227Y016711D01*
X025030Y016711D02*
X025025Y016700D01*
X024975Y016650D01*
X024975Y016250D01*
X024650Y016825D02*
X024775Y016950D01*
X024786Y016955D01*
X024786Y017545D02*
X024775Y017550D01*
X024325Y017550D01*
X024525Y017800D02*
X024525Y018900D01*
X025075Y019450D01*
X025119Y019450D01*
X025631Y019450D02*
X025675Y019450D01*
X025925Y019200D01*
X025925Y017600D01*
X025875Y017550D01*
X025864Y017545D01*
X025620Y017789D02*
X025625Y017800D01*
X025625Y018650D01*
X025631Y018650D01*
X025625Y018650D02*
X025625Y019000D01*
X024925Y019000D01*
X024825Y018900D01*
X024825Y018400D01*
X024950Y018275D01*
X024875Y018200D01*
X024950Y018275D02*
X025225Y018000D01*
X025225Y017800D01*
X025227Y017789D01*
X025423Y017789D02*
X025425Y017800D01*
X025425Y018350D01*
X025125Y018650D01*
X025119Y018650D01*
X026425Y018750D02*
X026425Y017750D01*
X026775Y017400D01*
X026775Y017394D01*
X026775Y017350D01*
X027075Y017050D01*
X027075Y016700D01*
X027425Y016700D02*
X027425Y017250D01*
X026775Y017900D01*
X026775Y017906D01*
X027875Y017050D02*
X028575Y017750D01*
X027075Y016200D02*
X026725Y015850D01*
X026725Y015844D01*
X026725Y015800D01*
X027825Y014700D01*
X027825Y004300D01*
X026425Y005400D02*
X026425Y006850D01*
X026425Y011850D01*
X026375Y011900D01*
X025100Y012175D02*
X025075Y012200D01*
X024725Y014100D02*
X019325Y008700D01*
X026025Y005650D02*
X026075Y005600D01*
X026112Y005592D01*
X026125Y005400D02*
X026112Y005395D01*
X026125Y005400D02*
X026425Y005400D01*
X031725Y007250D02*
X031725Y020400D01*
X031825Y020500D01*
X031859Y020528D01*
X033475Y020650D02*
X033575Y020550D01*
X033591Y020528D01*
X033925Y020450D02*
X033925Y018850D01*
X034575Y017400D02*
X033175Y017400D01*
X034575Y017400D02*
X034775Y017200D01*
X034775Y016150D01*
X036200Y014725D01*
X035075Y013600D01*
X036200Y014725D02*
X037325Y013600D01*
X037325Y003000D01*
X038025Y003000D01*
X038044Y003003D01*
X038378Y002698D02*
X038375Y002650D01*
X038275Y002550D01*
X037575Y002550D01*
X037575Y002650D01*
X038425Y002300D02*
X036425Y002300D01*
X036425Y010050D01*
X038875Y010100D02*
X039625Y009350D01*
X039625Y002450D01*
X038125Y000950D01*
X009925Y000950D01*
X024525Y017800D02*
X025025Y017800D01*
X025030Y017789D01*
X033925Y020450D02*
X033975Y020500D01*
X034024Y020528D01*
X038875Y012100D02*
X038425Y011650D01*
X038425Y006700D01*
X037875Y006100D02*
X037875Y005650D01*
X038975Y005650D01*
X039425Y005200D01*
X039425Y002550D01*
X038875Y002550D01*
X038775Y002650D01*
X038772Y002698D01*
X038575Y002698D02*
X038575Y002450D01*
X038425Y002300D01*
X038475Y003400D02*
X038375Y003500D01*
X038375Y003700D01*
X038378Y003702D01*
X038375Y003750D01*
X038375Y004600D01*
X037875Y005100D01*
X038725Y004150D02*
X038775Y004100D01*
X038775Y003750D01*
X038772Y003702D01*
X039106Y003594D02*
X039125Y003550D01*
X039125Y003400D01*
X039106Y003397D01*
X039075Y003400D01*
X038475Y003400D01*
X038044Y003594D02*
X038025Y003600D01*
X038025Y003950D01*
D34*
X038025Y003950D03*
X038725Y004150D03*
X037575Y002650D03*
X038425Y006700D03*
X036075Y009250D03*
X031725Y007250D03*
X027475Y007250D03*
X026425Y006850D03*
X027125Y004750D03*
X027825Y004300D03*
X027525Y003900D03*
X024475Y004250D03*
X015525Y009600D03*
X014075Y009950D03*
X012175Y008550D03*
X013625Y008200D03*
X008375Y008450D03*
X006675Y007600D03*
X007225Y006850D03*
X009275Y005150D03*
X008425Y003400D03*
X005225Y012700D03*
X008375Y013000D03*
X008725Y013350D03*
X011525Y018550D03*
X017225Y018200D03*
X017525Y017800D03*
X018625Y017100D03*
X023975Y017750D03*
X024875Y018200D03*
X027425Y016700D03*
X027875Y017050D03*
X028575Y017750D03*
X026225Y016250D03*
X024975Y016250D03*
X024725Y014100D03*
X024375Y012000D03*
X032525Y013950D03*
X035075Y013600D03*
X032825Y017750D03*
X033925Y018850D03*
M02*
